<?xml version="1.0"?>

<svg baseprofile="tiny" fill="#ccc" height="500" stroke="#aaa" stroke-linecap="round" stroke-linejoin="round" stroke-width="1" version="1.2" viewBox="464.1 527.1 382.2 446.6" width="427.9" xmlns="http://www.w3.org/2000/svg">
 <g id="features">
  <path vector-effect="non-scaling-stroke" d="M640.7 710.8l0-0.2 0-0.2 0.2-0.2 1.7-1.1 0.2-0.3 0-0.3-0.1-0.7-0.2-0.5-0.2-0.3-1.6-1.7-3-2.5-0.4-0.1-1.8-0.4-0.8-0.4 0-1.3-0.5-0.9 1.3-1.5 2 1 2.4-0.3 1.3 0.6 0.5-0.3 0.3-0.7 0.1-0.2 0.8 0.7 1.3 0.6 1.5-0.1 0-0.1 0.1-0.4 0.1-0.3 0.4-0.2 0.4 0 0.7 0.3 0.3 0.1 0.8 0 0.7-0.2 1.9 0.6 1.8-0.4 3.2 0.2 2.7-1.4 0.7 0 1.1-0.6 1.1-0.8 1.5 3.7 2.6 2 0.5 2-1.1 2-0.8 2-1.7-0.5-0.3 1.4 0.2 1.7-2.8 1.6-3 1.5-1.9 1.3-0.7 3.3 1.1 0.9 1.2 0.7 0 1.3-0.2 2-4.9 1.5-1.9-1.2-1.8-0.2-0.3-0.2-0.2-0.2-0.4-0.8-1.1-1.3-0.3-0.5-0.1-0.4 0.1-0.3-0.1-0.3-0.3-1.3-0.3-1.1-1.2-2.8-0.3-0.3-2.3-2.5-0.2-0.4 0-0.1z M651.4 724.7l4.9-1.5 1.6 0.7 0.5 1.8 1-0.2 1.4 0.7 0.7-1.1 1.6 0.6 1.4-0.2 0.8-0.7 0.4-1 2.1-0.9 0.3 0.1 0.3 0.6 0.1 1-0.3 0.9-0.3 0.5-0.9 0-1.1 1.1-1.1 1.8-0.4 1.2 0.1 0.9 0.7 1.4 2.5-1.3 0.7 0-0.6 3.6-1.1 1.1 0.2 0.2-1 0.3-2.6 1.5-2.9 1-2.5 1.3-2.7 0.7-0.8 1.3 1.1 1.6 3 2.7 3.2 3.2 2.2 2.2 1.1 0.8 0.6 0 0.5-1.1 0.8-1.6 0.8-1.9 1.9-4.9 0.7-1.4 0.9 1.1 0.1 0.9-0.3 1.6 0.2 1.1 0.6 0.5 2.3 0.3 0.6 0.6 0.1 0.8-0.1 0.6 0.2 1.1-0.5 1.8-1.4 0.7-1.7-0.4-0.4 0.8 0.1 0.6 1.9 1 0.8 1.2-0.7 1.1 0.7 1.1-0.1 1.2-1.4 1-0.7 1.6 0 0.7 0.7 1.6-0.1 0.8-0.9 1-1.6-0.3-0.5 0.9 1.1 2.6 0.3 0.4-3.3 0.1-0.3 0.3-0.1 0.7-0.5 0.5-2.8 0.5-0.2 0.5 0.3 1-0.3 0.8-0.9 0-1.5-1-1 0.7-0.4 1.7-2 0.3-0.5-0.3-0.1-0.8-0.3-0.4-1.1-0.6-0.6-0.3-0.6 0.5-0.4 1.8-1 0.2-2.3-1.6 0.8-1.3-0.2-0.8-2.3-0.1-0.3-1-0.7-1.1-1.7-0.8-1.5 1.2-1.5-0.4-0.1 0.5 0.5 0.9-1 0.4-0.8 0.9-1.1 0.3-5.3-0.4-0.4-0.3-1.2-1.4-1.7-1.2-1.2-1.1-1.6-1.1-0.1-0.2-0.2-0.2-0.1-0.2-0.1-0.4-0.1-0.4-0.1-0.6 0-0.3 0-0.3 0.1-0.3 0.5-0.9 0.3-0.4 0.2-0.1 2.2-0.9 1.2-0.8 0.5-0.2 3.6-0.3 0.3-0.2 0.5-1 1.2-1.1 0.3-0.5 0.3-0.3 0-0.3-0.1-0.3-0.1-0.3-1.2-1.4-0.2-0.1-0.3 0.1-0.2 0.1-0.9 0.9-1.3 0.7-0.2 0.2-0.1 0.2-0.3 0.5-0.1 0.2-0.2 0.2-0.3 0.1-0.3 0.1-0.5-0.1-0.2-0.1 0-0.2 0.2-0.5 0.1-0.2 0-0.3-0.1-0.3-0.1-0.2-0.4-0.7-0.1-0.5-0.1-0.4 0-0.4 0.1-0.3 0.1-0.3 0.2-0.1 1.3-0.8 0.4-0.4 0.3-0.4 0.1-0.3 0.1-0.3 0.1-1.1 0.1-0.4 0.1-0.3 0.2-0.2 0.9-0.5 0.2-0.2 0.1-0.4 0.2-0.7-0.1-1 0.1-0.5 0.1-0.3 0.3-0.7 0.2-0.7 0.1-0.3 0.2-0.2 0.2-0.1 0.3 0 0.9-0.1 0.3-0.2 0.3-0.3 0.3-0.6 0-0.2 0-0.2-0.8-0.4-0.3-0.2-0.2-0.3-0.5-0.9-0.3-0.2-1.1-0.4-1.3-0.1-0.3-0.2-0.2-0.3-0.3-0.6-0.2-0.2-0.2 0-1.4-0.2-0.8-0.3-0.5-0.6-0.6-1.7 0-0.4 0-0.5 0.1-0.2 0.3-0.5 0.2-0.2 0.6-0.6 0.3-0.4 0-0.3 0-0.3-0.2-0.4-0.1-0.3-0.1-0.7 0.1-0.3 0.2-0.3 0.5-0.2 0.3-0.2 0.3-0.3 0.4-0.8 0.2-0.5 0.3-0.3 0.6-0.4 0.2-0.1 0.2-0.1 0.2-0.1 2.4-1.8 0.5-0.2 0.8-0.1 0.6 0.1 0.2 0.2 0.8 0.9 0.2 0.2 0.2 0.1 0.3 0.1 0.4-0.1 1.9-0.5 0.6 0 0.5 0.1 0.3 0.2 2.5 2.6 0.2 0.1 0.5 0.1 0.4-0.1 0.9-0.7 0.5-0.2 0.6-0.2 0.3-0.1 0.2-0.3 0-0.3 0.1-1.3-0.1-0.3-0.1-0.2-0.3-0.8-0.1-0.6z M640.7 773l1.1-0.3 0.8-0.9 1-0.4-0.5-0.9 0.1-0.5 1.5 0.4 1.5-1.2 1.7 0.8 0.7 1.1 0.3 1 2.3 0.1 0.2 0.8-0.8 1.3 2.3 1.6 1-0.2 0.4-1.8 0.6-0.5 0.6 0.3-0.1 0.7 0.5 2.4 0.8 1.1 0 0.8-0.2 1.1 0.6 0.8 1.2 0 1.4 0 1.1-0.1 0.7-0.6 0.5-0.6 0.6-0.5 0.7 0 1.2 0.5-0.3 0.7-0.3 1 0.2 0.5 0.8 0.5 1.1 0.3 0.5 1.1-0.2 2 0 1.7 0.2 1.1 0.6 0.9 0.8 0.3 0.7 0.4 0.5 1.1 0.1 1 0 1.3-0.1 1.8 0 1.9-0.1 1.1-0.8 0.1-1.1 1.4-0.9 0.4-0.8-0.4-0.6-1.4-0.9-0.5-0.5 1.7 0.2 0.8-0.5 0.9-0.1 1.3 0.9 0.7 0.3 1.4 1 1.1 0.1 0.9-0.1 0.5-1.7 1.1-1.7 0.2-0.6 1.6-1.5-0.2-1.3 0.5-0.3 0.8-0.6-0.2-1 0.7-0.5-1.2-0.3 0-0.3 0.5-0.2 1.9-0.1 0-0.5 0.3-0.8-0.6-0.9-0.8-0.3-0.2-0.4 0-0.8 0-0.3-0.1-0.2-0.1-0.2-0.3-0.2-0.4-0.1-0.2-0.6-0.8-0.1-0.2-0.5-0.6-4.6-4.2-0.5 0.1-0.5 0.2-1.4 1-0.5 0.3-0.3 0-0.5 0-0.4-0.2-1-0.9-0.3-0.3-0.2-0.4 0-0.5-0.1-0.3-0.1-0.2-0.1-0.1-1.4-1.2-1-1.5 0-0.1-1.4-2.5-0.1-0.4 0-0.6 0-0.4 0-0.6-0.1-0.4-0.1-0.3-0.9-0.9-0.4-0.4-0.3-0.1-0.1-0.2 0-0.2 0.3-1.3 0.2-0.7 0.1-0.2 0.2-0.3 0.2-0.1 0-0.2 0-0.1-0.7-0.4-0.3-0.5-0.1-0.3 0.1-0.2 0.5-0.2 1.2-0.5 0.2-0.2 0.2-0.3 0.1-0.4-0.1-0.2-0.2-0.1-0.2 0.1-0.3 0-0.3-0.1-0.4-0.5 0-0.4 0-0.3 1.9-2.8 0.3-0.4 0.2-0.9 0.1-0.3 0.2-0.2 0.2-0.2 0.6-0.3 0.2-0.2 0.1-0.2 0.4-0.5 0.1-0.1 0.2-0.2 0.4-0.2 1.6 0 0.3-0.2 0.3-0.3 0-0.2-0.1-0.2-0.2-0.2-1.2-0.3-0.2-0.3-0.2-0.3-0.1-0.8 0-0.2 0.1-0.5 0.3-0.5 0.3-0.3 1-0.7 0.3-0.4 0.1-0.3-0.1-0.7z M655.1 812.6l0.1 0 0.2-1.9 0.3-0.5 0.3 0 0.5 1.2 1-0.7 0.6 0.2 0.3-0.8 1.3-0.5 1.5 0.2 0.6-1.6 1.7-0.2 1.7-1.1 0.1-0.5-0.1-0.9-1-1.1-0.3-1.4-0.9-0.7 0.1-1.3 0.5-0.9-0.2-0.8 0.5-1.7 0.9 0.5 0.6 1.4 0.8 0.4 0.9-0.4 1.1-1.4 0.8-0.1 0.5-0.1 1.1 1.7 0.5 1.5 2.6 0.8 0.8-0.1 1.3-2 1.5 0.2 0.7-0.6-0.8-0.9 0.3-2 0.3-0.5 2.3-0.1-1.3 2.7 0.6 0.8 1.1-0.9 1.6 0 2 0.6 2.8-2 1.3-0.3 1.1 0.2 0.7-0.3 1.2 0.2 1.6 1.6 0.6 0 0.3-0.9-0.1-1.2-1-1.4-0.7-0.4 0-0.3 1-0.8 1.3 0.3 1.7-2.3 1-0.5 0.9 1.3 1 0.3 0.4 1.5 1.6 2.6 0.8 0.3 1.7-0.3 0.4 0.3-1.1 2-0.8 0.9 0 0.4-0.2 1.9 1.8 1 0.3 0.5-0.1 0.6-1.5 1.6 0.4 1.2-1 0.9-0.8 2.1-0.2 4.4-1.4 1.6 0.8 1 0.6 2.3 0.2 2.1 1.3 1.3 0.2 0.5-0.3 0.5-1.6-0.4-0.8-0.2-1.1 1.4-1.2 0.3-0.4 0.1-0.9-0.2-0.8-2.6-0.5-0.2-0.3 0.4-0.2 1.7-0.8 1-1.5-1.3-1.1 0.1 0.1 0.8 0.8 1.2-0.2 0.4-1-0.8-2.1-0.9-0.4 0.2 0 1.5-0.9 0.5-0.9-0.9-3.3-1.4-2 3.3-2.3 2.4-2-0.7-2.2 1.4-1.5 0.2-0.7-0.9 0-0.6 0.6-1.2-0.6-0.8-1 0 0.3 1.3-2-0.2-1 1.1-0.6 0-0.3-0.7 0.3-1.1 0.1-1.2-0.2-0.1-3-1-1.6 0.7-0.4-1.5-2.1-1-0.2 0 1.7-1.8 1.6-2.2 0.8-0.5 2-0.7 0.8-0.7 0.4-0.9-0.2-0.8-0.6-0.7-0.2 1.4-0.9 0.8-1.1 0.3-0.9 0.1-0.9 0.4-0.6 0.8-0.6 1-0.7 0.9-2.7 1.9-0.5 0.5-0.4 0.7-3.1 3.7-0.3-1.6 0-0.7-0.3-0.5-0.2-0.4 0-0.2 0.1-0.2 0.7-0.3 0.2-0.3 0-0.2-0.1-0.4-0.1-0.4-0.4-1.3-0.4-1.1-0.1-0.3 0.1-0.4 0.3-0.4 0.1-0.3 0.2-0.6 0-0.4-0.3-0.7-0.2-0.5 0-0.6 0.1-0.4 0.2-0.6 1-1.6 0.3-1.1-0.1 0z M653.4 547.1l1.1-1.8 0.8-0.7 0.6-0.2 0.3-0.3 0.2-0.4 0.1-0.6 0-0.3 0-0.2-0.1-0.2-0.1-0.3-0.1-0.3 0-0.6 0.1-0.4 0.2-0.2 0.6-0.5 2.6-3.2 4.1-3.8 0.5-0.2 1.2-0.3 0.7 0.2 0.2 0.1 0.5 0.3 0.1 0.3 0.3 0.1 0.4-0.1 1-0.6 0.3-0.4 0.3-0.4 0.2-0.8 0.2-0.4 0.3-0.6 0.3-0.3 1.4-0.6 0.4-0.6 0.7-0.5 1.3-0.3 0.5-0.2 1-0.7 0.6-0.7 0.5-0.6 0.2-0.4 0-0.4 0-0.3 0-0.3-0.1-0.2-0.2-0.2-1.1-1.6-0.1-0.3 0-0.2 0-0.3 0-0.1 0-0.1 0-0.3-0.1-0.2-0.4-1-0.6-1-0.8-1.4-0.8-2.1-0.1-0.6-0.1-0.3-0.1-0.3-0.1-0.2-0.5-0.6-0.2-0.2-0.1-0.3 0-0.3-0.1-0.3-0.2-0.2-0.7-0.4-0.2-0.2-0.1-0.3-0.1-0.3 0-0.3 0-0.5 0.2-0.2 0.3-0.2 0.5-0.1 1.9-0.1 0.7-0.1 0.4-0.2 0.4-0.4 2.5-3.9 0.3-0.6 0.2-0.6 0.2-0.4 0.2-0.2 0.4-0.3 0.5-0.6 0.3-0.2 0.7-0.3 0.2-0.2 1.2-1.3 0.2-0.4 0.1-0.4 0.2-1.3 0.1-0.6 0.3-0.3 0.2-0.2 2.1-0.8 0.7 1.2 6.1 8 0.7 2 0.5 1 1 0.7 0.3 0.6 0.2 0.6 0.2 0.3 0.4-0.2 0.3-0.4 0.2-0.4 0.2-0.2 0.5 0.1 0.6 0.3 0.6 0.7 0.4 1.2-0.9 0 0 0.5 0.5 0.4 1.7-0.5 1 0.1 3.2 2.3 0 0.6-0.3 0.5 0.1 0.7 0.3 0.6 0.5 0.5-0.6 0.5 0 0.6 0.4 0.3 0.9 0.8 0 0.6-0.4 0.7 0.2 0.4 0.5 0.3 0.3 0.3 0.2 1 0.2 5.6-0.1 0.8-0.2 1.3 0 0.5-0.1 0.7 0.3 1.8 1.2 2.1 0.1 1.4 0 0.4-0.1 0.4-0.2 0.4-0.2 0.3-0.2 0.6 0.1 0.6 0.2 0.5 0.1 0.5 0.3 1 0.6 0.9 1 1.2-0.3 1.1 0.2 0.5 0.5 0.4 0.3 0.8-0.2 0.9-0.3 0.7-0.2 0.7 0.2 0.8 0.8 1.3 0.2 0.6 0.2 1.7 0.4 1.8 0.2 0.5 0.1 0.1 0.6 0.3 0.2 0.2 0.1 0.2 0.1 0.5-0.6 0.2-1.2 1.5-0.9 0.1-2.2-0.3-1.2-0.8-3-0.6-1.8-0.3-0.4 0.5-0.1 0.8 0.9 0.6 0 0.6-0.8 0.7-1.5 0.4-1 2.1-0.7 0.4-0.1 1.1-1.2 0.5-0.3 0.4-1 3.5-1.4 0.8 0.1 0.6 1.3 0.7 0 0.8-1.2 1.6-0.9 2.1-1.8 1.2-0.5-0.1-0.3-0.8-3.4-1.6-4.1 2.8-2.3-0.5 0.1 0.6-0.2 0.6-0.9 0.6-0.4 0.9-0.7-0.2-0.8 0.5-0.5 1.4-0.4 0.3-2.9-1.1-1.5 0.7-2.7-2.2-1.7-3-0.6 0.2-0.9 1-3.2 2.2-1.6-0.2-1.4-1.2-0.3-1.1 0.3-0.8-0.1-1-1-1.2-0.3-0.8 1.1-0.8 0.5-1.9 0.8-0.5-0.7-1.2-0.4-1.7-1.2-0.7 1.1-1.6 0-1.6 0.4-0.5 3.6-2.2-0.6-1.6 0.2-0.6-0.2-0.5 0.5-0.6-1-0.6-1.9 0.5-0.4-0.7-1.5-1.1-0.5-1.7-2-0.7-0.6-0.9-1.1-3.5-0.4-0.4z M645.7 553.6l1.3-2 0.6-0.5 0.9-0.2 2-1 1.3-0.9 1-1 0.6-0.9 0.4 0.4 1.1 3.5 0.6 0.9 2 0.7 0.5 1.7 1.5 1.1 0.4 0.7 1.9-0.5 1 0.6-0.5 0.6 0.2 0.5-0.2 0.6 0.6 1.6-3.6 2.2-0.4 0.5 0 1.6-1.1 1.6 1.2 0.7 0.4 1.7 0.7 1.2-0.8 0.5-0.5 1.9-1.1 0.8 0.3 0.8 1 1.2 0.1 1-0.3 0.8 0.3 1.1 1.4 1.2 1.6 0.2 3.2-2.2 0.9-1 0.6-0.2 1.7 3 2.7 2.2-1 4.6-1.3 2.9 0.5 0.7 2.5 1.4 0.5 0.6 0 0.6-0.3 0.8-0.9 1 0.4 2 0.5 1.3 3.6 2.8 0.8 1.7 1.4 0.3 0.2 3.4 0.4 1-0.3 1.4-0.6-0.3-1.2 1.1-2.4-0.1-1.5 1-0.8 1.4 0.5 1.8 0 1-3 2.6 0.3 0.7 1.4 1 0.3 0.7 0 2.3-0.3 0.9 0.5 1.2-0.1 1.4-0.3 0.4-0.9 0.2-1.1-0.8-1.4 0.7-0.9 1.1-2.2-0.2-0.4-0.6-3.5 2.4-2.1 1-2.4-0.3-1.4 2-0.2 1-0.4 0.3-1.8-0.5-1.1-1.5-2.8-0.6-0.9 1.4-1.1 0.4-0.1 0.1-0.7-1.4-0.1-0.8 1-0.4 1-1 0.8-1.4-0.1-1.5-0.3 0-0.2 1.2-0.6 0.9-1.4 1.2-1.7 0.9-0.9 0.7-0.3 0.8-0.4 1.2-0.9 0.6-2.1 0.1-0.6-0.5-0.7-1.2-0.2-1.2 0.4-0.9-0.4-0.9-0.4-0.8-0.5-0.3-0.6 0.3 0.2 1.1-0.2 1.1-0.2 1.1-0.2 0.9-0.2 0.6-1.4 1.8-0.8 1.7-0.5 0.8-1.2 0.7-0.1 0.9 0.1 1.1 0 0.9-1.7-2.4-0.4-0.4-0.8 0-0.6-0.2-0.6-0.3-0.4-0.6 0.1-1.2 0.3-1.4-0.1-1.2-0.7-0.6 0-0.5 1.6-0.5 0.4-2.3-0.1-2.8 0-1.6-0.7 0.5-0.4 0.8-0.4 2 0.4 1.6-0.7 0.3-1.1-0.1-0.7 0.2-1 0.4-1-1-1.7-3-1.4-1.8-0.6-1.1-0.3-1.2 0.1-0.7 0.2-0.6 0.1-0.7-0.3-1.2-0.1-0.8-0.1-0.2-1.2-0.5-1.6-3.4-1.1-1-4.4-6.2-0.7-0.4-0.3-0.3-0.5-1.1-0.4-0.6 0.3-0.6 0.5-0.6 0.2-0.2 1-2.8 1.3-6.3 1.5-3.6 0.7-2.1 0.3-0.7 0.4-0.3 1-0.4 0.5-0.4 0.6-0.8 0.8-1.3 0.4-1.5-0.5-1.4 1.6-4.8 0.9-2.2 1.1-1.4 0.9-0.2 0.5 0.5 0.5 0.6 0.8 0.3 0.5-0.1 1.9-1.1-0.6-0.4-2.3-1.2 1.2-1.4 0.7-0.5 3-0.9 0.5 0.2 0.4 0.3 0.3 0.3 0.3 0.3 1.8 0.6 0.9 0.1 3.9-1.2 0.8-0.6-3.2 0 0-0.6 0.9-0.1 0.7-0.5 0.7-0.3 0.9 0.4 0-0.6-1.1-0.6-0.2 0.1 0.2-1.5 0.6-1.3 0.1-0.3 0-2.2 0.2-0.4 0.3-0.1 0.3 0.1 1.7 0.9 0.4 0.1 0.7-0.2 0.3-0.2 0.2-0.2 0.7-1.8 0.3-0.3 1.5-0.7 0.3-0.3 0.4-0.4 0.2-0.3 1-1.5z M701.9 557.1l3 0.6 1.2 0.8 2.2 0.3 0.9-0.1 1.2-1.5 0.6-0.2 0.1 0.2 0.7 2 0.4 0.8 0.3 0.7 0.2 1 0.3 1-3.6 1.4-3.7-2.7-2.7-2.4-1.1-1.9z M709.4 564.1l3.6-1.4 0.5 0.3 0.2 0.3 1.3 1.4 0.4 0.9 0 0.4-0.1 0.4 0 0.5 0.1 1.8 0.1 0.7-1.7-0.2-2.9 0.9-1.7-0.7-1.5-0.3 0.3-1.5-0.6-1.2 0.7-1.1 1.3-1.2z M707.7 569.1l1.5 0.3 1.7 0.7 2.9-0.9 1.7 0.2 0.3 0.3-0.1 0.8 0.7 2.6-0.5 0.2-0.8 0.4-1 0.3-0.2 0.6-0.5 1.6 0.1 1.8-0.4 0.9-1.4 0.3-1.6 0-1.5-0.2-0.4-0.4-0.2-1-0.2-1.2-0.5-0.7-0.8-1.4-0.1-1.2-0.3-0.6-0.8-0.5 1-2.7 1.4-0.2z M671.2 580.3l1.5-0.7 2.9 1.1 0.4-0.3 0.5-1.4 0.8-0.5 0.7 0.2 0.4-0.9 0.9-0.6 0.2-0.6-0.1-0.6 2.3 0.5 4.1-2.8 3.4 1.6 0.3 0.8 0.5 0.1 1.8-1.2 0.9-2.1 1.2-1.6 0-0.8 2.6 0.5 3 0.3 2.4-0.1 2.6 0.2 0.8 0.6 0.8 0.5 0.3 0.6 0.1 1.2 0.8 1.4 0.5 0.7 0.2 1.2 0.2 1 0.4 0.4 1.5 0.2 1.6 0 1.4-0.3 0.4-0.9-0.1-1.8 0.5-1.6 0.2-0.6 1-0.3 0.8-0.4 0.5-0.2 2 7.5 1 2.6 1.5 1.8-0.2 0.1-2.1 1.1-0.5 1.4-1 0.9-0.4 2.8-2.1 0.7-0.4 1-0.4 1-0.8 0.7 0 0.5-0.3 0.1-1.4 1.5-1.6 0.6-1.9 0.1-1.1 0-1.2-0.1-1.1-1.2-1.5-0.7-1.1 0-1 0.4-0.3 1-0.1 1.6 0 1.3 0 1-1.5-0.1-0.5 0.5-1.1-0.4-0.9 0.2 0 1.1-0.6 1.1-0.3 1.5-1.8-1.7-0.5-0.1-0.7 0.9 0 1-3.7 2.1-1.2 0-2.4-1.4-1.8-0.6-2.6 0.9-1.8 1.5-0.8-0.5 0.3-1.4-0.4-1-0.2-3.4-1.4-0.3-0.8-1.7-3.6-2.8-0.5-1.3-0.4-2 0.9-1 0.3-0.8 0-0.6-0.5-0.6-2.5-1.4-0.5-0.7 1.3-2.9 1-4.6z M714.2 593l0.4-1 2.1-0.7 0.4-2.8 1-0.9 0.5-1.4 2.1-1.1 0.2-0.1 0.2 0.3 0.7 0.6 2.5 1.1 0 0.6-1 0 0 0.4 0.1 0.2 0.3 0.5 0.1 0.7 0.2 0.5 0.3 0.6 0.3 0.4-0.3 0.7-0.5 0.4-1.1 0.5 0.1 0.6 0.2 0.3 0.3 0.2-0.1 0.2-0.2 0.3-0.5 0.5-0.1 0-2.3 0-2.7-0.4-2.5-0.6-0.7-0.6z M722.4 594.6l0.1 0 0.5-0.5 0.2-0.3 0.1-0.2 0.1 0 0.4 0 0.1-0.1 0.1-0.3 0.1-0.2 0.2 0.1 0.1 0.2 0.2 0.4 0.1 0.4-0.1 0.1 0.6-0.1 0.3-0.4 0.4-2.3 0.8 1.1 0.8 0.7 0.9 0.3 2 0.3 2.3 1.5 9.6 3.1 0.4 0.2 0 0.1-0.4 0.8-1.3 0.5-0.7 0.8-0.4 1.2 0 2.3-2-0.7-2.4 0.7-1.1-0.8-0.9-0.2-2.5 0.6-2.1-1-1.9 0.5-3.1-0.4-0.3-0.7-0.6-1.1-0.5-1.2-0.3-1.1-0.1-1 0-0.7 0.1-1.7 0.2-0.9z M664.5 624.9l2.2 0.2 0.9-1.1 1.4-0.7 1.1 0.8 0.9-0.2 0.3-0.4 0.1-1.4-0.5-1.2 0.3-0.9 0-2.3-0.3-0.7-1.4-1-0.3-0.7 3-2.6 0-1-0.5-1.8 0.8-1.4 1.5-1 2.4 0.1 1.2-1.1 0.6 0.3 0.8 0.5 1.8-1.5 2.6-0.9 1.8 0.6 2.4 1.4 1.2 0 3.7-2.1 0-1 0.7-0.9 0.5 0.1 1.8 1.7 0.3-1.5 0.6-1.1 0-1.1 0.9-0.2 1.1 0.4 0.5-0.5 1.5 0.1 0.9 0 1 0.6 0.3 1.1 0.2 0.1 1.4-0.3 0.5 0.3 0.6 1.5 2.1 2 0.6-0.1-0.3-1.2 1.5 0.2 0.5 0.6 0.5 1.9 0.6 0.5 0.5-0.3 0.2-0.5-1-2.5 0-1 0.3-0.3 0.6 0 0.5 0.6 0.2 0.8 0.7 0.3 0.4-1.2 1 0.3 0.3-0.4 0.5 0.4 0.4 1.7 1.3 0 0.3 0.4 3.6-2 0.1 0 0.6-1 1.6-0.5 1 0.2 3.1 0.4 1.9-0.5 2.1 1 2.5-0.6 0.9 0.2 1.1 0.8 2.4-0.7 2 0.7 0-2.3 0.4-1.2 0.7-0.8 1.3-0.5 0.4-0.8 0-0.1 10.1 6.5 1.3 1.3 0.6 1.1 0.1 0.8-0.1 0.6 0.1 0.8 0.5 0.7 1.6 1.1 0.6 0.7 0.7 1.3 0.8 1.9 0.6 2 0 1.6 0.2 0.6 0.2 0.5 0.4 0.4 0.5 0.2-0.2 0.8-0.1 0.3 0.4 0.4 0.8 1.3 0.4 0.5 1.9 0.5 0.5 0.3 0.5 0.6 1.1 0.5 0.4 0.9 0.3 2.1 0.1 0.3 1.2 1.3 1.6 0.7-0.4 1-0.6 0.5-3.4-0.2-0.8-0.7-2-0.4-0.9-1.3-1.2-0.3-0.8 0.6-0.2 1.9-1.3 1.2 0.3 0.7-0.2 0.6-3.2 1.9-1.6-0.3-1 0.2-1.6 1.3-1.7 0.8-0.2 0.2 0.3 0.7-0.1 1.2-1.2 0.6-0.1 1.4-1.6-0.1-1.5-1.1-7.3 1.2-1.3 1.6-0.5 1.2-1.2 0-1.6-0.2-0.7-1.3 0-1.4-0.2-1.6-0.9-0.9-1-0.1-2.1 0-1.4 0.6-1.1 0.4-0.5 1-0.3 1.5-0.7 1.3-0.8 0.1-0.9 0.3-0.8 0.5-0.1 1.9 0.7 2.4 1.9 3 1.7 1.4 2.9 0.2 2.6 0 2.6-1.1 1.3 0.3 0 2.5 1 2.2-0.5 1.5-0.2 1.7-1.3 2 0.2 0.5 1.5 1.1-0.8 0.2-1.8 1.4-1.8 0.6-3.4-1.5-0.1 1.6-0.7 1.4 1.7 2.2-1.8 0.3-0.7 0.8-0.6 0-0.6-0.6-2.2 0.2-0.7 1.5-0.7-0.1-0.8-1.1 0-2.2 0.1-0.7 0.8-1.8 0.7-0.4 0.1-0.8-0.5-0.4-1.8-0.2-1.4-1.6-0.8 0 0.1-1 0.8-0.7-0.1-0.9-0.6-0.8-0.3-0.8 0.1-2.3-0.9-2.1-0.8-0.5-0.1-0.5 1.8-0.2 0.1-1.2-0.2-1.5 0.8-1.6-0.1-0.8-1.9-1.6-2.5 0.5-1.7 1.2 0 0.6-0.4 0.5-1.1 0.3-2.4-0.3-0.5-1.3-0.8-0.7-0.6 0.8-0.1 1.3-0.2 0.3-1.4 0.3-2.7-0.5-2.5 0.5-1.6-0.1-0.7-1.1-0.9-0.2-0.7-1.3-0.9-0.6-1.8 0.2-0.5 0.7-1.2-0.7-0.2-1.8-1.2 0.6-2-0.2-0.5 0.6 0.2 1.5-1.1 1.1 0.5 1.6-0.1 1.7-0.6 0.5-1.1 0-1.4 1.8-1.6-1.2-1.5-2.1-0.3-2.1-3.3-1.7-0.2-1.4-0.5-0.9-1.5-0.2-0.3-0.4 0-0.8-2.1 1-0.6 0-0.6-1.5-1.7-0.1-0.6-0.9 0.5-1.3-0.4-0.3-0.1-1.2-0.3-0.4-1.2-0.3-2.2 0.6-1-0.1-0.5-0.6 0-2-0.4-0.6-2.4-1.4-1.2-1.3-0.3-1.2 0.2-1.8 1.3-0.7 0.3-1 2.8-3.6 0.2-1.1z M735.7 645.6l0.5-1.2 1.3-1.6 7.3-1.2 1.5 1.1 1.6 0.1 0.1-1.4 1.2-0.6 0.1-1.2-0.3-0.7 0.2-0.2 1.7-0.8 1.6-1.3 1-0.2 1.6 0.3 3.2-1.9 0.2-0.6-0.3-0.7 1.3-1.2 0.2-1.9 0.8-0.6 1.2 0.3 0.9 1.3 2 0.4 0.8 0.7 3.4 0.2 0.6-0.5 0.4-1 4.2 1.6 1.7 1.6-4.2 2.3-1.4 1.7-1.2 3.1 1 2.3 1.4 5.2 0.8 2.4 5 7.8 8.3 12.5 0.8 2.6-0.6 2.6-0.3 0.3-1 0.8 1-2.4 0.3-1.4-0.8-0.6-0.9-0.3-2.1-1.5-1-0.4-0.9 0.3-1.8 1.1-1 0.3-1.2-0.2-1-0.3-1-0.5-0.8-0.7-4.5-5.8-1.6-1.2-1.7-0.3 0-0.3-0.1-0.7-0.5-1.1-0.6-1-0.9-0.8-0.9-0.1-1.2 0-1 0.6-0.9 0.6-0.8 2-0.2 1.8-0.1 0.9-2.8 0-1.6 0.4-0.3-0.1-1.2-1.2-0.1-0.1-2.7-0.4-1 0.4-3.2 2.1 0.4 0.2 0.4 0.2 0.4 0.3 0 0.1 0 0.2-0.1-0.1-1 1-2 1.5-2 1.8-1.6 1.7-0.8 0.1-0.1-0.6 0.1-1-3.8-1.9-2.6-0.3-3.6 1-1.7-2.2 0.7-1.4 0.1-1.6 3.4 1.5 1.8-0.6 1.8-1.4 0.8-0.2-1.5-1.1-0.2-0.5 1.3-2 0.2-1.7 0.5-1.5-1-2.2 0-2.5 0.1-1.9 0.9-4.2-0.5-2 0.1-0.2z M758.1 666l0.1-0.9 0.2-1.8 0.8-2 0.9-0.6 1-0.6 1.2 0 0.9 0.1 0.9 0.8 0.6 1 0.5 1.1 0.1 0.7 0 0.3-0.4-0.1-5.9 2-0.9 0z M738.9 674.1l0.8-0.1 1.6-1.7 2-1.8 2-1.5 1-1 0.1 0.1 0-0.2 0.4 0.3 0.7-1.3 1.3-0.6 1.4-0.1 1.1 0.3 1.9 1.4 0.5 0.6 0.7 0.4 0.7-0.2 1.3-1.1 8.4-1.6 1.3 0.6 0.9 1.6 2.9 4.5-0.2 0.1-2 0.6-1.4 0.4-0.3 0.8-0.2-0.2-0.3 0.6 0.1 1.4-1.7 2-1.2 0.2-3-0.8-2.8 2.1 0 0.4 3.5 0.2 0.6 0.5 0.1 0.7-0.6 0.5-2.8 0.5-0.6 1.3 0.3 0.8-0.1 0.3-1.9 0.9-2.9 0.8-1.6-0.1-0.5-0.3-0.3-0.7 0.5-1.8 0-0.9-0.3-0.4-5.8-0.7-0.3 2.1-0.9 1-1.4 1.7-5.1-0.4-0.2-0.2 0.8-0.5 0.1-0.4-1.4-1.3-1.1-2.4 1.3-1.1 1.6 0.4 0.4-0.3 0-1.1-0.8-0.7-0.1-0.9-0.6-0.5 1.1-0.7 0.6 0.2 0.4-0.3 0.2-1.3-0.2-1.1z M766 674.6l0.3-0.8 1.4-0.4 2-0.6 0.2-0.1 0.5 0.8 2 1.1 1.5 1.7 0.8 0.6 1.6 0.2 0.7 0.3 2.2 2.8 1 0.8-0.2 0.2-0.1 0-0.7 0.5-1.1 0.2-1-0.2-0.6 0.5-1.6 3.8 0.1 0.5 0.8 1-1.4 1.2-0.5 0-1.1-1.1-0.3-0.8-0.7-0.4-0.3-0.6-1.2-1.1 0.3-1.8-0.7-2.7 1.3-1.8 0-0.5-1.8-0.1-1.3-1.9-2.1-1.3z M741.9 686.7l1.4-1.7 0.9-1 0.3-2.1 5.8 0.7 0.3 0.4 0 0.9-0.5 1.8 0.3 0.7 0.5 0.3 1.6 0.1 2.9-0.8 1.9-0.9 0.1-0.3-0.3-0.8 0.6-1.3 2.8-0.5 0.6-0.5-0.1-0.7-0.6-0.5-3.5-0.2 0-0.4 2.8-2.1 3 0.8 1.2-0.2 1.7-2-0.1-1.4 0.3-0.6 0.2 0.2 2.1 1.3 1.3 1.9 1.8 0.1 0 0.5-1.3 1.8 0.7 2.7-0.3 1.8 1.2 1.1 0.3 0.6 0.7 0.4 0.3 0.8 1.1 1.1 0.5 0 1.4-1.2-0.8-1-0.1-0.5 1.6-3.8 0.6-0.5 1 0.2 1.1-0.2 0.7-0.5 0.1 0 0.2-0.2 3.5 2.9 0.9 0.4 0.9 0.2 0.8 0.4 0.8 0.9 0.1 0.5 0.1 0.9 0.1 0.7 0.3 0.3 0.4 0.1 1.4 1-0.4 0.5 0.8 0.7 0.8 1 0.5 1.3 0.2 1.1 3.8 10.5 0.7 3 0 3.3-1 4.1-0.3 0.6-0.5 0.2-0.9 0.2-0.8 0.5-4.2 4.2-0.8 0.4-0.7 0.5-3.7 5.5-0.9 1-1.1 0.5-0.8 0.5-0.6 1.1 0.1 0.9 1.4 0.1 2.4-0.5 0.6 0.2 1.3 1.1 0.7 0.3 1.1 0.7 2.4 3.8 1.2 1.4 0.8-0.6 0.7-0.1-0.2 0.3-0.6 1.9 0.8 1-0.2 0.5-3.6 2.7-1.2-0.2-1.1-0.1-2.4 1.4-1.8 0.2-0.3 0.3 0.2 2.4-0.5 1-0.7 0.7-1.5 0-2.3-0.8-0.1 0-1.5 0.6-0.9-0.1-1.6 1-1.1-0.4-1.1 0.2-0.8-1.1-2.9 0.6-2.5-1.2-4 2.1-1.6 0-1.5-0.5-1.1 0.5-0.8-0.5-0.2-0.8 0.8 0.2 2.1-0.9 1.4-1 0.2-0.9-4.7-1.8-0.5-1.2-1.7-1.2-1.1 0.2-1-0.5-2-0.1 0-0.1-0.6-1.6-0.6-3-0.7-0.7-0.8-2.5-0.7-1.4-1.4-0.3 0-1-0.5-0.9 0.9-2.6-0.1-0.6-0.8-0.6-0.1-1.4-0.9-2 0.2-1.5 1.1-0.9 0.9-1.4 2.3-1.1-0.3-1.6-0.8-1 0.5-1-0.6-0.9 0.4-0.8-0.2-1.7 0.2-1.6-1.5-0.1-0.2-0.1-0.1-0.6 0.7-1.6 1.1-0.2 0.7-0.8 1.3 0 0.3-1.1 1-1.3-0.1-0.6-0.3-0.1-0.6 1-1-0.9-1.2 0.1-0.9 0.9-2.5-0.4 0.4-3.5 0.9-2.5 0.2-0.9-0.1-0.6-0.7-2.5-0.3-0.4-0.3-0.2-0.2-0.3-0.1-0.5 0.3-0.8 0-0.5 0-0.4-0.7-1.4-0.4-0.8-0.2-0.8 0.3-1z M787.3 743.5l1.2 0.2 3.6-2.7 0.2-0.5-0.8-1 0.6-1.9 0.2-0.3 0.3-0.1 1.8 0.2 0.8 0.4 1.3 1.9 0.7 0.4 0-0.5-0.2-1.3 0.9-1.4 1.2-1.4 0.6-1 0.3-1.9 0.6-2.1 0.7-1.9 0.6-1.3 1.7-1.7 2.3-1.1 2.5-0.5 2.3 0.1-0.4-0.6 1-0.3 1 0.2 1.1 0.5 1 0.2 3.9 0 1.9 0.5 2.1 1 2.3 0.6 2.1-1-0.5-0.4-0.6-0.2-0.5 0-0.6 0 0-0.5 14.4 3.5 5.7 2.9 11.6 9 1.4 1.6 1.1 1.9 0.9 3.6 0.8 2.3 0.6 2.3-0.3 1.6 0.3 1.2 0.1 1.5 0 2.8-0.1 0.1-0.2 0-2.4-0.8-0.8 0.2-0.5 0.5-0.5 1.7 1.1 1.4 1.1 0.3 0.1 0.9-0.4 0.5-0.3-0.4-1.2 1.2-1 0.5-1.9-1.2-0.7-0.1-0.5 0.6-0.1 1-1.3-0.6-1.1 0.5-1.4-0.6-1.2 0.5-1-0.7-0.6 0-0.3 0.5 0.9 0.9-0.1 0.2-1.4 0.3-2.3 1.1-1.2 2.4-0.6 0.6-2.3 0.1-1.9 1.6-1.5 0.5-1.9-0.2-1.7-0.6-2.2 0-2-0.7-2.9 1.1-2-1.7-2.3-0.1-2.1-0.9-2.3 1-1.7 0.2-0.8-0.7-1.9-0.1-1.1-0.7-0.2-1.1 0.2-0.5 1.8-1.4-1-0.2-0.5-0.5-1.8 0.5-3.7-0.5-3.2 1.2-2.1-0.1-2.3-1.8-1.5-2.1-0.1-0.6-1.6-0.9-2 0.2-1.1 1-0.5 0-0.8-1.5 0-0.7-0.6-0.5-0.2-1.6 0.5-1.4-0.5-0.9 0.1-0.9 1.2-1 0-0.3-2.9-2.2 0-0.5 0.8-1.1-0.2-0.8-1.8-0.7 0.7-4.2z M800.1 766l2.1 0.1 3.2-1.2 3.7 0.5 1.8-0.5 0.5 0.5 1 0.2-1.8 1.4-0.2 0.5 0.2 1.1 1.1 0.7 1.9 0.1 0.8 0.7 1.7-0.2 2.3-1 2.1 0.9 2.3 0.1 2 1.7 2.9-1.1 2 0.7 2.2 0 1.7 0.6 1.9 0.2 1.5-0.5 1.9-1.6 2.3-0.1 0.6-0.6 1.2-2.4 2.3-1.1 1.4-0.3 0.1-0.2-0.9-0.9 0.3-0.5 0.6 0 1 0.7 1.2-0.5 1.4 0.6 1.1-0.5 1.3 0.6 0.1-1 0.5-0.6 0.7 0.1 1.9 1.2 1-0.5 1.2-1.2 0.3 0.4 0.4-0.5-0.1-0.9-1.1-0.3-1.1-1.4 0.5-1.7 0.5-0.5 0.8-0.2 2.4 0.8 0.2 0 0.1-0.1 1.1 3.6-0.2 0.7-0.6 0.7-1.2 4 0 0.7-0.1 0.8-2 5.5-1.5 2.7-0.5 0.6-0.5 0.8-0.1 2 0.1 3.4-0.3 1.5-0.8 2.6-0.2 1.4-0.7 2.1 0 1-0.3 0.5-3.7 1.5-0.8 0.9-0.6-0.5-0.3 0.6-0.1 1-0.4 0.5-0.3 0.3-1.2 1.7-3.2 3.7-0.6 0.8-0.5 0.2-3.2-4.1-1.4-0.5-2.3-1.8-1.3-0.3 0 0.5 1.7 1.6 1 0.7 2.1 0.5 0.5 0.3 0.2 0.3 0 1.2-0.2 0.4-0.9-0.3-0.6 0.1-1 0.3-0.5 0.1-0.6-0.2-1.3-0.8-1.1 0-2.2 0.8-1.2 0.2 0.4 0.2-0.9 0.1-1.9-0.1-2.4-1-2.5-0.3-2.2 0.7-3.7 0.3-0.5-0.2-1.4-2.7-0.4-1.8-0.8 0.4-0.1-0.3-0.5-1.4 0.3-0.8-0.7-1.8-1-0.7-2 0.2-5.2 2-1.1-0.4-0.6-1.2-3.7 0.7-0.6-3.4 1.4-1.9 0.2-1.2 1-1.1 0.4-0.3 1.1 0.4 0.7-0.2-0.1-1.2 0.9-2.6 0-0.6-0.6-0.8-1.1 0.1-0.9-0.9-0.6 0.4-1-0.3-0.8 1-0.8 0-2-2.5 0.8-2.5 0.7 0.5 0 0.5 2.3 1.8 3-0.9 0.7-0.7 0-0.5-1.8-2.1-1.8-0.1 0-0.6 0.7-1.1-0.1-0.6-1.3-1.2-1.4-2.7 0-0.9 0.2-0.4 2.5-1.9z M798.4 794.5l3.7-0.7 0.6 1.2 1.1 0.4 5.2-2 2-0.2 1 0.7 0.7 1.8-0.3 0.8 0.5 1.4 0.1 0.3 0.8-0.4 0.4 1.8 1.4 2.7 0.5 0.2 3.7-0.3 2.2-0.7 2.5 0.3 2.4 1 1.9 0.1 0.9-0.1 0.8 0.4 7.8 0.5 0.9-0.6-0.1 1.4-3.7 3.9 0.6 0.4 0.7 0.3 1.7 0.3 0.5-0.5 0.4-0.8 0.2 0 0 1.6-0.5 1.2-2.7 2.4-2.4 1.7-1.5 0.6-3.3 0.5-0.9-0.1-0.4-0.4-0.8-1.5-1.5-2.1-0.4-1.1-0.1 1.5-0.7 0.8-1.8 0.9-1.4 1.3-0.4 0.2 0 0.4-0.1 0.9-0.2 0.9-0.3 0.4-0.5 0.2-0.8 0.6-0.5 0.3-0.5 0-1.1-0.5-0.4-0.1-1.2 0.1-2.1 0.9-1.1 0.6 0.8 0.4 0.8 0.1 0.8 0.4 0.5 1.2 1.4-1.4 3-0.6 1.4-0.6 1.3-1.1 0.9-0.2 0.7 0.8 0.1 0.6-0.2 0.7-0.2 0.6-0.1 0.1 0.1 0.6 0.2 0.6 0.4 0.9-0.5 0.4-0.2 0.7 0 1.7-0.1 0.5-0.4 0.3-0.7 0.6 1.3-0.1 0.4 0.2 0.2 0.4-1.3 2.1-2.4 2.2-2.1 1.3-0.4-0.4-3.1-1.2-1.6-0.4-1.6-0.6-1.7 0.6-0.7 1.9 0.5 0.5 0.1 0.1-0.1 0.1-0.1 0.1-0.9 0.8-0.7 0.3-0.6 0-0.6 0.1-0.7 0.7-0.7-0.8-0.3 0.1-0.1-0.9-0.8-0.3-2.2-0.8-2.5-0.3-3.3-0.7-1.7-0.1-0.2-0.3-0.4-1.2-1.1-0.4-0.6-0.8-0.9-1.7-0.2-0.8-0.8-0.1-2.2 0.7-1.6 0.1-1.7 0.2-0.8 1-0.6 0.1-2.5-1.5-0.1-0.4-0.3-0.8-1-0.7-0.1-0.1-0.5-0.2 0.3-1.2-0.2-0.9 0.5-4.2 1.7-2.7 3.4-0.6 2.3-1 0.2-1.2 1.3-0.8-0.8-0.7 0-1.7 1.2-1.3-0.1-0.5-0.5-0.6 0.2-0.8-2.3 0.5-0.5-1.7-0.2-2-0.6-1.4-0.1-1.7-1.3-0.8-0.1-1.4 1.3-1.9-0.1-2.1 0.4-0.1 1.1 1.1 1.8-0.5 0.8-0.7 0-1.5 0.6-0.4 2.3 0.4 1.4-0.6 1 0.2 0.8 0.6 1.9 2.3 1.2 0.7 0.5-0.6-0.4-0.7 0.8-0.6z M809.5 834.2l-0.1-0.1-0.5-0.5 0.7-1.9 1.7-0.6 1.6 0.6 1.6 0.4 3.1 1.2 0.4 0.4-0.6 0.4-2.1 0.7-3.7-0.6-1.3 0.1 0-0.1-0.6 0-0.2 0z M794.2 832.5l1.7 0.1 3.3 0.7 2.5 0.3 2.2 0.8 0.8 0.3 0.1 0.9-1 0-3.2 0.9-0.3 0.5-0.1 0.8-0.3 0.8-0.6 0.8-0.7 0.4-0.7 0.2-0.7 0.4-0.8 0.3-0.5 0.2-0.9-0.1-0.4-0.6-0.3-0.8-0.8 0-1.4 0.5-2.5-0.9-0.3-0.4 0.1-0.6 0.3-0.3 0.8-0.7 0.3-1.6 1.2 0.2 0.3-0.7 2.6-1-0.7-1.4z M789.6 839l2.5 0.9 1.4-0.5 0.8 0 0.3 0.8 0.4 0.6 0.9 0.1 0.5-0.2 0.8-0.3 3-0.5 0.4-0.2 0.2-0.6 0.2-0.5 0.2-0.2 2-0.6-0.1 0.2-0.2 0-0.4 0.4-0.7 1.3-0.1 1.1 0.2 0.8 1 0.1 0.3 0.7-0.4 1.9-0.8 0.8-1.4 2.1-0.5 1.4 0 0.4 0.7 0.1 0.5-0.1 0.8-0.4 0.8-0.3 1.4 0.4 1.4 1.1 1.3 1.2 1.4-0.9 1.2-1 0.6-2.7 0.2-0.8 0.3-0.5 1.9 0.5-0.4-0.9-0.2-1 0.2-0.8 1 0.1 0.1 0.9 0.5 1.4 0.7 1.2 0.5 0.6 10 1.1 5.8-1.8 15.1-1.4 1.1 0.7-0.4 2.5-0.2 0.4-0.2 0.5-0.2 0.3-0.4 0.3-1.6 0-0.3 0.2 0.2 1.7 0.3 1.2 0.8 2 0.4 3-0.4 2.8-1 2.4-1.2 1.5-3.2 1.1-1.2 1-0.6 0.1-1-0.1-0.5 0.2-0.5 0.5-0.4 0.5-0.4 0.4-0.9 0.4-3.1 0-0.9 0.3-0.9 0.6-1.9 1.7-2.4 3.5-0.4 0.9 0.1 1.9 0.5 2.9-1.6 0.7-3.6-1.2 0.2-0.4-0.3-1-0.8-0.5-0.6 0.5-0.7 0-1.7-3.3-1-0.7-3.2 0.2-1-1.1-0.8-0.3-4.1 1-1.6-1.3-2.6-0.9-0.3-1.3-2.7-1.3-0.7-1.3-0.9-0.5-1.2 0.2 0.1-1.1-1.1-0.5 0-0.8-0.2-0.1-3 0.7-2.1-0.9-3.8 0.8 0.6-2.1-1-0.3-1.7 0.5-1.6 0.1-0.3-2.4 0.2-1-0.7-2.1 0.9-2.5-0.4-1.8-0.1-1.7 0.7 0.5 1.2-0.4 0.1-1.7 1.1-1 0.5-1.3 1.2-1 0.6-2.5-0.1-0.8-0.3-1.4 1-1.5 1.4-1.5 0.5-1.1z m32.3 4.5l1 1.1 0.4 1.1-0.2 0.9-1.2 0.5-5.5-0.5-0.9-0.3-0.8-0.9-0.7-1-0.4-0.9 0.6-2.1 0.3-0.4 0.6-0.2 5.8 2 0.5 0.3 0.5 0.4z M810.7 845.1l-0.3 0.5-0.2 0.8-0.6 2.7-1.2 1-1.4 0.9-1.3-1.2-1.4-1.1-1.4-0.4-0.8 0.3-0.8 0.4-0.5 0.1-0.7-0.1 0-0.4 0.5-1.4 1.4-2.1 0.8-0.8 0.4-1.9-0.3-0.7-1-0.1-0.2-0.8 0.1-1.1 0.7-1.3 0.4-0.4 0.2 0 0.1-0.2 1-0.3 7.5 1.1 0.7 0.5 0.6 1.1 0.1 0.7-0.5 0.4-1 0.1-1.7-0.3-0.7 0-1.5 1.4-1.7 0.4-0.8 0.6 0.3 0.4 0.4 0.5 0.3 0.5 0.4 0.2 4.1 0z M782.1 864.2l1.6-0.1 1.7-0.5 1 0.3-0.6 2.1 3.8-0.8 2.1 0.9 3-0.7 0.2 0.1 0 0.8 1.1 0.5-0.1 1.1 1.2-0.2 0.9 0.5 0.7 1.3 2.7 1.3 0.3 1.3 2.6 0.9 1.6 1.3 4.1-1 0.8 0.3 1 1.1 3.2-0.2 1 0.7 1.7 3.3 0.7 0 0.6-0.5 0.8 0.5 0.3 1-0.2 0.4-3.1-1.1-1.9 0.7-4.6 4.5-1.9 0.8-10.1 2.2-1.8 0.8-0.2 0-0.5 0.7-0.5 0.7-0.1 0.3-1.6 1.1-1.7 2.5-1.7 0-1-0.1-2.1-0.9-0.5 0-1.7 0-0.4-0.3-0.8-0.8-0.9-0.3-2-0.1-0.8-0.3-0.1-0.8-1.2-2.1-2-1.8-2-1.3-1.5-1.3 0-0.5 0-0.8 0.5-1.9 1.1-1.7-0.6-1.6 1.8-1.7 0.3 0 0.8 0.9 1.4 0 0.3-0.9 0.1-2.2 0.3-0.7 0.9-1.3-0.3-0.4-0.6-0.1-0.3-1-1.1-0.6 0.4-0.9 1-0.2 0.7-0.4 0.1-0.9 0.9-0.1-0.7-1.8 1.9 0z M773.2 883l1.5 1.3 2 1.3 2 1.8 1.2 2.1 0.1 0.8-8.9-3.3-1.6-0.1-0.1 0-1-1.9 0-0.8 0.8-0.6 1.5 0.2 0.4-1 0.6-0.4 0.3 0 0.6 0.8 0.6 0.1 0-0.3z M780.2 864.2l0.7 1.8-0.9 0.1-0.1 0.9-0.7 0.4-1 0.2-0.4 0.9 1.1 0.6 0.3 1 0.6 0.1 0.3 0.4-0.9 1.3-0.3 0.7-0.1 2.2-0.3 0.9-1.4 0-0.8-0.9-0.3 0-1.8 1.7 0.6 1.6-1.1 1.7-0.5 1.9 0 0.8 0 0.5 0 0.3-0.6-0.1-0.6-0.8-0.3 0-0.6 0.4-0.4 1-1.5-0.2-0.8 0.6 0 0.8 1 1.9-1.1 0.6-1.7-0.6-6 2.1-8.1 0-7.6 2.6-0.4-0.1-0.4-0.4-0.4-0.2-0.5 0.1-0.2 0.7 0.3 1.4-0.2 0.7-0.9 0.6-1.1-0.4-4.3-2.7-0.3-0.5 0.3-0.7 0.6-0.5 1.3-0.6 0-0.4-0.4-0.4-0.9-0.9-0.6-0.3-0.2 0.2-0.6 0.4-0.3-0.1 0.4-1-0.5-0.3 0.4-0.7-0.1-1.2-1.2-1.4-0.1-0.5 1.4-2.2-0.4-0.9 0-0.8 1.8-3.7 0.1-1.2 1.1-1.4 0.2-1.1 1.2-1.3 0.4-0.2 1.9 0.2 0.6-1.5 1-0.6 1 0.8 2.1 0.5 1.1-0.1 1.7-0.9 1.2 0.6 2.8-0.2 1-0.7 0.8 0.2 1.3-0.7 2.6-0.1 3.2-1.4 2.3-0.1 5.7-3.3 1.9 0.7 0.2 1 0.8 0.3 2-0.5 1.1 0.4 2.5-0.1 1 0.1z M743.9 867.7l-1 0.6-0.6 1.5-1.9-0.2-0.4 0.2-1.2 1.3-0.2 1.1-1.1 1.4-0.1 1.2-1.8 3.7 0 0.8 0.4 0.9-1.4 2.2 0.1 0.5 1.2 1.4 0.1 1.2-0.4 0.7-0.4-0.2-1.5-0.3-1.1 0-0.2-0.3-1.4-0.4-1.3-0.1-0.8 0-0.7 0.6-2.9 0.2-0.7 0.2 1.7 1.4 0.3 0.5 0.1 1.4-0.2 0.8-0.6 0.6-0.6-0.1-0.9-0.3-0.7-0.5-0.4-0.4-0.3-0.7-1.5-0.8-1.1-1-1.5-0.5-0.7-0.4-0.8-1 0.2-1 0.4-1.5 0-1.3-0.1-0.9-1.4-1.2-1.4-0.6-1.4 0-1.3 0.3-0.7 0.5-0.3 0.7-0.1 1-0.8-0.5 0 0.5 0.5 0.2 0.8 0.6 0.6 0 1.2 1.4 3.6 4.2 0.4 1-0.1 0.9-1.1 0.3-3 0.3-0.7 0.2 0.4 0.3 0.3 0.3 0 0.4-2.2 0.4-1.2 0.5-0.5 0.4-0.2 0-1.5-0.2-1.6 2.8-0.1 0.3-1-0.3-1-0.7-3.2-0.6-0.1 0-0.1-1-2.7 0 0.1-1.6-0.2-0.2-2.4 0.7-0.6-1-0.5-1.5 0.2-1.2 0.5-1-0.5-2.6-1.3 0.1-0.3-1.9 1.3-1.1 0.3-1.7-1.5-0.3-1.2 0.8-0.8-0.2-1.2-1.4-2.1-3.3 1.2-0.8 2.6-0.5 0.2 0.1-0.1 0.6 0.5 0.1 0.5-0.9 0.4-0.2 1.3 1.3 2 0.4 1.3 0.7 1.9 0.2 1.3 1.5 0.8 0.3 2-0.7 0.6-1.3-1.1-1.3 0.3-0.8 0.9-0.9-0.3-0.6-0.9-0.6 0.1-1.5-0.5-2.4 0.4-1.7-0.3-0.6-1.1-0.7 0.2-1.8-0.3-1.6-1.5-2.5-0.5-2.3 0.8-0.3 2.4 0.4 0.7-0.3 0.6-1 1-0.4 1.9 0.9 0.5-0.5-0.5-1.8 0.9-2-0.3-2 1.8-0.2 2.6-0.2 0.2-0.4-0.4-0.9 1.7-1.4 7.3 0.1 5.8 1.1 0.5-0.2-0.1-1 1.6-0.4 0.8 0.2 0.5 0.9 0.9 0.5 1.6-0.5 1.4 0.3 2.2-0.2 1.6 0.7 1.5 0.1 1.6 0.1 1 0.7 1.5 0.6 1.7 2.9 0.2 1.7-0.3 1.9-0.8 0.9-2.4-0.5-0.8 0.1-0.5 0.9-0.6 1.6 0.8 1.6 0 2.3 1.5 0.4 0.6 1.7 1.5 0.9 0.1 0.6-0.4 1.1z M728.2 885.5l0.7-0.6 0.8 0 1.3 0.1 1.4 0.4 0.2 0.3-0.3 0-0.9 0.2-0.6 1.3-0.4 1.8-0.7 1.4-1.2 0.2-1-1.1 0.5-1.3 0.8-1.3 0.3-1-0.8-0.4-0.1 0z m6 3.1l0 0.4 0.3 0.3 0.4 0.5 0.3 0.2 0 0.6-3.8-0.6 0-0.5 1-0.4 1.2-2.1 0.6 0 0.5 0.4 0.1 0.5-0.2 0.3-0.4 0.4z M711.3 880.9l0.1-1 0.3-0.7 0.7-0.5 1.3-0.3 1.4 0 1.4 0.6 1.4 1.2 0.1 0.9 0 1.3-0.4 1.5-0.2 1-0.9-1.1-5.2-2.9z M687.8 875.2l2.1 3.3 1.2 1.4 0.8 0.2 1.2-0.8 1.5 0.3-0.3 1.7-1.3 1.1 0.3 1.9 1.3-0.1 0.5 2.6-0.5 1-0.2 1.2 0.5 1.5 0.6 1 2.4-0.7 0.2 0.2-0.1 1.6 2.7 0 0.1 1-0.9 0-1 0.3-1.8 1-0.9 0.2-1.2-0.2-0.9-1.2-1.5-0.6-1-0.3-0.9-0.2-0.8 0-0.4 0-0.3 0.3-0.3-0.6-0.7-0.6-0.8-0.3-1 0-0.6 0-0.6 0.5-0.1 0.7-0.4 1-0.1 0.9-0.3 0.2-0.4-0.9-0.2-0.2-0.4 0.4-1.7 2.7 0.6-0.1 0.6-0.2 0.5-0.4 0.5-0.4 1 1.8 0.6 0.6 0.9 0.2 0.7 0 0.7 0.1 0.3 0.6-0.3 1.2 0.7 0.5 0.3 0.1-1.7 2 0.1 1.1-0.8 0.4-3.8 0.1-0.8-0.2-3.6-1.7-8.6-0.9-1.7-1-1 0.1-1.7 0.6-0.6 0.7-0.5 1.6-0.3 1.6 0.4 0.7 1.2 0.4 0.1 0.9-0.5 1.2-0.6 1-0.3 0-0.1-2.8-1-1.8-9.9-7.6-8-3-1.1-0.1-2.7 0.7-0.2-0.6 0.8-2.1-0.6-0.7 3-1.9-0.4-0.7-1.5-0.2-1.2-1 1.3-1.4 4.5-0.8 0.8-0.7 0.9 0.5 1.4-0.9 2-0.1 2.9-1.4 1.8 0.1 0.3-0.3-0.4-1.6 0.5-1 0.1-1.4 0.4-1-0.1-1.4 1.1-0.5 0.6 0.5 0.5-0.2 0.4-0.7-0.1-0.8 0.1-0.2 2.2 0.5 1.2 2.4 0.8 0.8 0.5-0.1 0.2-1.1 0.2-0.2 1.5 0.4 3-1.3-0.1-0.5-1.5-0.7 0-0.6 0.3-0.7 1.9-1.9-0.5-1.7 0.6-1.4 1.6 0.2 1.1 0.7 1.2 0 0.7 0.4 1.4 1.7 2.4 4.3 0.9 0.3 0.5 1.2 0.7 0.7 1.8-0.3 1.2-0.9 1.8-0.4 1.2-1.1 0.9 0.3z M689.2 892.9l0.3-0.3 0.4 0 0.8 0 0.9 0.2 1 0.3 1.5 0.6 0.9 1.2-1.8-0.4-1 0.1-0.9 0.3-0.9 0.5-0.1 0-0.3-0.1-0.8-0.2-0.3-0.5 0-1 0.2-0.6 0.1-0.1z M684.3 894.7l0.3-0.2 0.1-0.9 0.4-1 0.1-0.7 0.6-0.5 0.6 0 1 0 0.8 0.3 0.7 0.6 0.3 0.6-0.1 0.1-0.2 0.6 0 1 0.3 0.5 0.8 0.2 0.3 0.1-0.8 0.6-0.7 0.9-0.5 0.4-0.2-0.6-0.1-0.7-0.1-0.4-1.8-0.5-1.2 0.1-0.4-0.1-0.2-0.3 0-0.1z M641.1 887.5l1.2 1 1.5 0.2 0.4 0.7-3 1.9 0.6 0.7-0.8 2.1 0.2 0.6-0.8 0.2-1.7 1.1-1.1 0.1-1.7-0.5-0.6 0.2-1 0.9-0.3 0.1-0.8 0.7-0.4 0.2-0.5-0.1-0.9-0.4-0.5-0.1-0.9 0.2-1.6 0.7-1.9 0.5-0.6 0.7-0.4 1-0.7 1-3.4 1.5-1-0.1-0.8-0.2-0.7-0.6-0.5-1.1-0.6-1.8-0.2-0.3-0.2-0.1-0.1-0.1-0.1-0.2-0.3 0-0.1 0.1-0.1 0.4 0 0.3 0.6 0.7 0.7 2.5 0.4 1-0.9 0.8-0.7 1-0.7 1.3-0.6 1.5-0.5 2 0 0.9-0.2 0-1 0-1.3 0-1.3 0-1.1 0.7-0.9 1.2-0.6 1.4-0.2 1.2-0.1 1.1 0.6 0.9 0.7 1 1.3 0.5 1.4 0.9 1.7 0.7 0.4 0.1-0.1 0.1-0.3 1.9-0.6 0.4-0.7-0.3-0.8-0.6-0.3 1.6-1 0.6-1.1 0.3-0.4 0.7-0.3 1.3-0.5 1.5-0.2 1.7 0.3 1.9-0.7 0.3-1.9 0.6-0.8 0.1-1-0.3-0.9-0.4-0.7-0.1-0.7 0.8-1.7-1.6-2.8-3.4-3-2.9-0.6-0.2-0.4 0.1-1.2 0.7-0.4 0.2-0.3 0.1-0.6 0.7-0.4 0.2-0.5-0.1-0.5-0.3-0.8-0.6 0.1-0.3 0.2-0.7-1-0.3-1.1-0.8-0.3-0.8 0.7-0.9 1.1-0.4 1.1-0.6 0.7-0.3 0.1-0.5 0-0.4-0.2-0.7-0.9-0.7-1-0.7-1.1-0.7-0.9-0.5-0.7 0-0.7 0-0.7 0.6-0.7 0 0 0.1-0.1 0 0.1-0.4 0.6-1 0.5-1.1-0.9 0.5-0.5-0.1-0.5-0.4-0.1 0.6-0.5-1-0.5 0.1-0.3 0.5-0.3-0.4 0.3-0.6 0.5-1 0.1-0.8 1.3 0 0.4-0.3 0-0.6-1-0.4-0.3-1-0.3-0.5-2.6-0.7-0.1-1.6-0.5-1.2-0.8-0.5 0.2-2.8-1.8-1.3-0.5-2.6-0.7-1.1-0.1-2-0.7-1.6 0.1-1.7-0.9-0.4-0.5 0.8-0.3-0.1-1.3-1.4-1.5-0.1-0.6-0.4 0.2-0.4 1.4-0.6 0.4-1.2 0.1-1.9 0.8-0.5 0.2-0.5-1.2-2.7-0.5-0.8-0.2-1.4-4.2-0.2 0.2-1.2 0.4-0.6 0.6-1.9-0.2-0.5-0.1-1.1-0.1-1 0.3-0.5 4.1 0 0.5 0.2 1 0.7 0.5 0.2 2.7 0.3 1-0.3 0.7-0.5 3.1-3.6 0.3-0.4 0.2-0.5 0.3-0.4 0.5-0.3-0.3-0.7-0.6-2-0.1-0.6-0.1-0.4-0.8-1.2-0.4-0.7 1.6 0.2 0.4-0.2 0.3-0.8-0.1-0.8-0.4-0.6-0.5-0.4 0-0.4 3.6-1.5 8.5-0.8 1.8-0.6 0.9-0.2 3.4 0 1-0.2 1.5-0.8 0.8-0.1 2.7 0.7-0.1 0.5 0 0.1-0.3 0.7 0.2 1.2-0.4 2-2.1 0.4-2.4-0.3-0.3 0.4 0.1 2.2 0.6 1 1.8 1.3 1.1 0.3 1.6 1.8 1.8 0.1 2 1.5 1.8-0.1 0.4 0.6-0.3 1.2-0.6 1.1 0.4 0.9 3.3 0.4 0.5-0.5 0.1-0.9 0.4-0.4 1.5-0.4 1.4 0.8 1.1-0.3 1 0.8 0.9 0.1 0.3 0.7 0.2 2 2.3 0.2 2.5 2.3 2.2 0.3 3-0.4-1 2.6 1.5 1.3 2.6-0.8 2 0.1 0.2 0.5-0.2 1.6 1 0.7-0.2 1.2 1.3-0.7 0.5 0.3 0.7-0.2 0.7 0.7 0.7 2.1z m-80.5-26.9l0.1 0.5 0 0.9-0.3 0.4-0.4-0.5 0-1.1 0.1-0.9 0.3-0.1 0.2 0.5 0 0.3z M614.4 920.4l-0.4-0.1-1.7-0.7-1.4-0.9-1.3-0.5-0.7-1-0.6-0.9 0.1-1.1 0.2-1.2 0.6-1.4 0.9-1.2 1.1-0.7 1.3 0 1.3 0 1 0 0.2 0 0 0.5 0.8 3.1-1 0.1-1.1 0.3-0.8 0.6-0.3 1 0.3 1.2 0.8 0.4 2.1-0.1 0 0.5-0.4 1.3-0.1 0.3-0.4 0.1-0.4 0.2-0.1 0.2z M583.1 916.8l0.1 0 0-0.1 0.7 0 0.7-0.6 0.7 0 0.7 0 0.9 0.5 1.1 0.7 1 0.7 0.9 0.7 0.2 0.7 0 0.4-0.1 0.5-0.7 0.3-1.1 0.6-1.1 0.4-0.7 0.9-0.1-0.3 0.6-1.4-1.7 0.2-0.5-0.2-0.6-0.4-0.3-0.4-0.2-0.6-0.4-0.8-0.4-1.2 0.3-0.6z M566.1 880l4.2 0.2 0.2 1.4 0.5 0.8 1.2 2.7-0.2 0.5-0.8 0.5-0.1 1.9-0.4 1.2-1.4 0.6-0.2 0.4 0.6 0.4 1.5 0.1 1.3 1.4 0.3 0.1 0.5-0.8 0.9 0.4-0.1 1.7 0.7 1.6 0.1 2 0.7 1.1 0.5 2.6 1.8 1.3-0.2 2.8 0.8 0.5 0.5 1.2 0.1 1.6 2.6 0.7 0.3 0.5 0.3 1 1 0.4 0 0.6-0.4 0.3-1.3 0-0.1 0.8-0.5 1-0.3 0.6 0.3 0.4 0.3-0.5 0.5-0.1 0.5 1-0.1 0.2-0.3 0.5-0.5 0.3-0.6 0 0 0.4 0.7 0.5 0.2 0.7-0.2 0.8-0.4 0.6-0.6 0.2-2.3-0.2 0.8 1.1 2.7-0.4 1 0.8-1.6 0.4 0 0.5 0.4-0.1 0.9 0.1-0.3 0.6 1.3 0 0 0.5-0.5 0.1-0.4 0.4 0 0.5 0.2 0.5 0 0.5-1-0.1-0.5-0.9-0.4-1-0.8-0.5-4-1.1-2.2 0.3-3.4 2.1-1.8 0.7-7.7 0.5 0 0.1-0.1 0.2-0.3 0.2-0.2 0-0.7-2-0.3-0.1-0.3 0.2-0.2 0.3-0.3 0.1-1 0.1-0.9 0.3-0.5 0.6 0.3 1 0 0.5-0.3 0.3-0.4 0.5-0.4 0.5-0.2 0.5 0.1 0.4 0.2 0.5 0 0.3-0.5 1.4-0.1 0.4-0.5 0.5-2.3-0.4-0.9 0.4-0.8 1.1-0.9 0.4-2 0.7-0.6 0.7-1.9 3.3-0.6-0.9-0.3-2.6-0.6-0.5-0.9 0.3 0 0.6 0 0.8-0.6 0.8 0 0.5 0.3 0.2 0.7 0.8-0.4 0-0.3 0.1-0.5 0.4-0.5 0.4 0 0.5 0 0.6-0.2 0.5-0.4 0.4-1.5 0.6 0.5 0 0.4 0.1 0.7 0.4 0.2 0.1 0.5-0.1 0.3 0 0.1 0.4 0.1 0.9 0.2 0.2 0.2 0.6-0.6 1.4-1.3 2-0.5 0.1-0.9-0.2-0.6 0.1-0.3 0.3-1.4 1.6-0.5 1.8-0.2 0.3-0.4-0.1-0.5-0.4-1.4-1.6-0.2-0.3-0.2-0.5-0.2-1 0.1-0.5-0.1-0.6-0.3-0.7-1.3-2.2-0.8-0.9-0.9-0.7-2.8-1.3-1.9-0.4-1.6-0.9-0.8-0.4-0.9 0.1-1.3 0.4-0.9 0.8 0 1 0.3 1.3-0.5 0.9-0.8 0.7-0.7 0.4-1.9 0.6-2.3 0.2-1.8-0.6-0.5-2.3 0.5 0 0.3-0.2 0.2-0.3 0-0.4-0.1-0.4-0.1-0.2-0.1 0-0.3-1.3 0-0.8 0.1-0.4 0.1-0.2 0.9-1.5 0.4-0.3 1.3-0.5 3-1.7 1.6-0.6 1.8-1.2 1.1 0 1.4 1.4 1 0.5 0.9-0.6 0.7-1.1 0.3-0.7 0.2-0.7 0.2-0.3 1.7 0 1.7-1 5.4-5.6 1.7-1.2 0.7-0.2 0.1-0.4 0.1-0.9-0.1-0.9-0.3-1.5 0.5-0.3 0.7-0.1 0.4 0 3.2-1.7 0.1-0.4 0.5-1 0.4-2.9 0-1.5 0.2-1.3 0.4-1 1-0.7 0.9 0 0.4-0.3 0.6-0.7 0.3-0.1 0.3 0.4 0.2 0.9 0.1 1 0.1 0.8 0.3-0.2 0.1-0.1 0.2-0.2 0.8 0.5 2 0.1 0.7 0.4-0.5-1-0.8-0.5-1.5-0.6-0.8-0.9 0.1-0.7 0.2-0.6-0.2-0.8 0-0.4 1.2 0.2 3.4-0.2 1.4-0.5 0.7-1.1 0.6-1.3 0.7-1.2-0.3-1.1 0.2-0.8 0.5-0.4 0.6 0.2 3.3-2.8 0.6-1 0.3-1.3 0.9-1 2-1.5 1.2-2.5-0.2-6.6 0.3-1.9z M670.4 868.1l-0.6 1.4 0.5 1.7-1.9 1.9-0.3 0.7 0 0.6 1.5 0.7 0.1 0.5-3 1.3-1.5-0.4-0.2 0.2-0.2 1.1-0.5 0.1-0.8-0.8-1.2-2.4-2.2-0.5-0.1 0.2 0.1 0.8-0.4 0.7-0.5 0.2-0.6-0.5-1.1 0.5 0.1 1.4-0.4 1-0.1 1.4-0.5 1 0.4 1.6-0.3 0.3-1.8-0.1-2.9 1.4-2 0.1-1.4 0.9-0.9-0.5-0.8 0.7-4.5 0.8-1.3 1.4-0.7-2.1-0.7-0.7-0.7 0.2-0.5-0.3-1.3 0.7 0.2-1.2-1-0.7 0.2-1.6-0.2-0.5-2-0.1-2.6 0.8-1.5-1.3 1-2.6-3 0.4-2.2-0.3-2.5-2.3-2.3-0.2-0.2-2-0.3-0.7-0.9-0.1-1-0.8-1.1 0.3-1.4-0.8-1.5 0.4-0.4 0.4-0.1 0.9-0.5 0.5-3.3-0.4-0.4-0.9 0.6-1.1 0.3-1.2-0.4-0.6-1.8 0.1-2-1.5-1.8-0.1-1.6-1.8-1.1-0.3-1.8-1.3-0.6-1-0.1-2.2 0.3-0.4 2.4 0.3 2.1-0.4 0.4-2-0.2-1.2 0.3-0.7 0-0.1 0.1-0.5 3.4 0.9 3.8-0.1 5.8 1.4 1.4 1.3 0.9 0.4 5.4-0.2 3.3-1.1 1.7-0.2 3.1 0.2 1.9-0.3 1.3-0.9 0.3 0.5-0.6 1 0.6 0.6 0.8-1.6 0.2-0.5 0.1-1-0.1-0.5-0.2-0.4-0.1-0.7 0-2.8-0.1-1.4-0.6-0.9 0.9 0.3 0.5-0.2 0.1 0 0.1 0.3 0.5 0.4 0.1 1.4 0.9 0.2 1.3-0.6 1.8 0.9 0.3 0 0.2-1.1 2 0.5 2.3-0.2 0.1-0.2-0.2-0.3-1.2-1.1-0.1-0.3 0.3-0.3 3.8 0.3 0.8 0.2 2.1 0.6 0.3 0.7 1.1 0.3 0.2 0.8 0.6 0.4 1.4 0 1.1-1 1.3-0.3 2.2 0.8 0.2 1 1.4 0.2 1.7-0.7 0.8-1.2 2.8-0.1 2.6-1.9 0.5-0.1 0.6 0.8-0.4 0.7 0.2 0.8 1.3 0.8 0.3 1.6-0.7 1.5-0.7 2.6-3.8 6.8-0.2 1 0.2 0.7 1.2 0.9z M652.1 850.4l-0.8-0.2-3.8-0.3-0.3 0.3 0.1 0.3 1.2 1.1 0.2 0.3-0.1 0.2-2.3 0.2-2-0.5-0.2 1.1-0.3 0-1.8-0.9-1.3 0.6-0.9-0.2-0.1-1.4-0.5-0.4-0.1-0.3-0.1 0 0.2-0.7 0-1.2 0.4-0.7 0.7-0.7 0.3-0.7-0.8-0.7 1.1-1.1 1.5 0.3 1.7-1.7 3.2-4.2 0.8-0.7 0.8-0.5 0.9-0.3 1.2-0.1 0.3-0.1 0.4 0.3 0.8 0.9 0.9 0.6 0.8 0.4 1.1 0.9 0.7 0.9 0 1 0 0.9 0 1.3-0.1 0.9-0.1 0.5-0.1 1-0.5 1.4-0.4 0.4-0.6 0.2-0.6 0-0.5-0.3-0.5-0.6-0.3 0-0.3 0.8 0.1 1.2 0 0.5z M655.8 845.8l0.1-0.5 0.1-0.9 0-1.3 0-0.9 0-1-0.7-0.9-1.1-0.9-0.8-0.4-0.9-0.6-0.8-0.9-0.4-0.3 0.6-0.3 1-1 0.8-1.4 0.1 0.3 0.5 0.5 1.4 0.9 1.8 0.9 1.2 0.8 1.2 0.4 0.8 0.1 0.5 0.6 0 0.8 0 1.4-0.1 1.5-0.1 0.3-0.2 0.8-0.6 1.1-1 1-2.1 0-1.3-0.1z M660.4 823.9l0.2 0 2.1 1 0.4 1.5 1.6-0.7 3 1 0.2 0.1-0.1 1.2-0.3 1.1 0.3 0.7 0.6 0 1-1.1 2 0.2-0.3-1.3 1 0 0.6 0.8-0.6 1.2 0 0.6 0.7 0.9 0.5 0.7-0.1 1.5 0.8 2.2-1.6 0.6-1.6 1.3-0.3 0.7 0.4 0.3 1.2-0.1 0.2 0.5-0.3 1.1 0.4 3-2.1 0.4-3.4 0.9-2.1-0.1-1.5 0-1.4-0.1-0.9-1 0.1-0.3 0.1-1.5 0-1.4 0-0.8-0.5-0.6-0.8-0.1-1.2-0.4-1.2-0.8-1.8-0.9-1.4-0.9-0.5-0.5-0.1-0.3 3.3-5.7 0.4-0.3 0.5-0.2 0.4-0.3 0.2-0.7 0.1-0.6 0.3-0.7 0.3-0.7 0.2-0.4 1-1z M642.1 698.3l-0.1 0.2-0.3 0.7-0.5 0.3-1.3-0.6-2.4 0.3-2-1-1.3 1.5-0.7-1.2-1.2-2.5-1.7-2.2-0.6-1.2-0.1-1.2 0.5-0.8 0.9-0.5 2-0.3 0.9-0.3 1.7-1.4 1.1 0.1 1.1 1.3 2.8 7.3 0.8 1.1 0.4 0.4z M658.8 697.7l-2.7 1.4-3.2-0.2-1.8 0.4-1.9-0.6 1.3-0.8-0.3-1 0.1-0.7 0.4-0.5 0.4-0.5 0.4 0.2 0.4-0.1 0.4-0.2 0.4-0.5-0.6 0-2.4 0.5-0.5 0.4-0.3 1.1-0.9 0.4-0.5 0 0.1-0.6 0.3-1.2 0.7 0.6 0.3-0.4 0.4-0.6-0.1-0.9 0.1-0.3 0.9-1.1 0.6-0.8 2.8 0.8 0.9 1.7 1.5 1.2 0.8 0.1 0.3 0.2 0.7 1 0.5 0.8 0.5 0.2z M650.2 692.5l-0.9 1.1-0.1 0.3 0.1 0.9-0.4 0.6-0.3 0.4-0.7-0.6-0.3 1.2-0.1 0.6-1.5-0.2-1.5-0.6-0.1-3.3 0.2-1.9-1.2-0.7-0.3-1 0.9-0.9-0.6-2.7-1.6-2.2 1.2-0.9 0.5-1.4 1.5 0.3 1.2 0.7 1.1 1.5 0.5 1.9 0.5 2.9 0 2.1 1.9 1.9z M641.8 683.5l1.6 2.2 0.6 2.7-0.9 0.9 0.3 1 1.2 0.7-0.2 1.9 0.1 3.3-0.5-0.2-1.8-1.2-1.5-1.7-1.1-1.7-3.2-6.9 2-0.3 1.7-0.2 1.7-0.5z M643.5 681.2l-0.5 1.4-1.2 0.9-1.7 0.5-1.7 0.2-2 0.3-2.3-5-0.2-1.1 0.1-1.1 0.6-1.3 3-5.1 2.5-3.3 0.4-0.2 0.4-0.9 0.2-0.1 0 0.1 0.1 0.3 0.6 3.5-1.4 2.7-1-0.3-0.5 0.3-0.1 1-1 1.6 0.3 1.3-0.2 0.9-0.7 0.4 0 1.5 3.4 2-0.4-1.9 0.1-0.4 0.5 0 2.1 1.6 0.6 0.2z M646.3 630l0.1-0.1 1.1-0.4 0.9-1.4 2.8 0.6 1.1 1.5 1.8 0.5 0.4-0.3 0.2-1 1.4-2 2.4 0.3 2.1-1 3.5-2.4 0.4 0.6-0.2 1.1-2.8 3.6-0.3 1-1.3 0.7-0.2 1.8 0.3 1.2 1.2 1.3 2.4 1.4 0.4 0.6 0 2 0.5 0.6 1 0.1 2.2-0.6 1.2 0.3 0.3 0.4 0.1 1.2 0.4 0.3-0.5 1.3 0.6 0.9 1.7 0.1 0.6 1.5 0.6 0 2.1-1 0 0.8 0.3 0.4 1.5 0.2 0.5 0.9 0.2 1.4 3.3 1.7 0.3 2.1 1.5 2.1 1.6 1.2-0.2 1.1-0.5 0.7-2.3 1.1-1.1 1.5-0.1 2.9-1.8 2.4 0.5 1.6-0.1 0.6-3.5 2-0.9 0.8-0.4 1.2 0.1 2.1-0.3 0.5-0.8-1-0.2-3.1-0.6-0.1-1.7 0.7-1.2-0.7-0.1 0.2-0.3-0.8-0.8-2.6-0.9-2.4-0.9-2.2-1.3-0.6-1.1 0.3-1.2 0.6-0.8 0.7-0.6 1.2-0.1 1.4-0.1 1.9 0.1 1.6 0 1.7 0.7 1.5 0.4 0.6-2.6 2.2-0.8-0.9-0.6-0.2-1.3 1.4-0.3 0-0.5-0.9-2 0.4-0.5 0.2-0.4 1.9 0.2 1.2-0.6 0.9-0.4 1.5-1.8 1.5-0.7-1.3-0.5-0.1-1.1 0.9-0.3 0.6 0.1 1.3-0.5 0.2-1.1-1.5-1.2-0.7-1.5-0.3-0.6-0.2-2.1-1.6-0.5 0-0.1 0.4 0.4 1.9-3.4-2 0-1.5 0.7-0.4 0.2-0.9-0.3-1.3 1-1.6 0.1-1 0.5-0.3 1 0.3 1.4-2.7-0.6-3.5-0.1-0.3 0-0.1 1.7-1.2 0.6-0.8-4-0.1-1.7-0.8 3.1-4.9 0.4-3.1-1-3.9-2.4-2.8 4.3-1.7 0.8-0.1 0.6 0.5 0.4 0.1 0.1-0.3 0.2-0.5 0.4-0.4 0.4-0.3 0.3-0.2-0.5-0.9 1.6-1.6 0.2-1.3-0.8 0.6-0.8 0.3-1.4 0.2-0.3-0.2-0.7-1.8-0.1-0.6 0.3-0.4 0.5-0.4 0.4-0.4 0.9-1.8 0.7-0.7 1.5-0.6 0.5-0.8 0.9-2.1-0.8-1.2-1.1-2.2z M637.8 648.8l2.4 2.8 1 3.9-0.4 3.1-3.1 4.9-1.3-1.8-0.4-2.7 0.6-6-0.6-2.2 0.8-1.4 1-0.6z M728.5 895.6l0.9 1.5 0 0.6-0.2 0-0.1 0.1-0.1 0.2-0.2 0.2-1.7 0.5-0.8 0.4-1.3 1.1-0.2 0.4-0.2 0.3 0.1 1.6-0.1 0.9-0.1 0.3-5.2 1.6-1.7-0.5-6.1-4.4-0.4-0.4-1.5-1.2-0.6-0.2-1.7 0.2-0.8 0.4-0.8 0.5 1.1-2.1 1.9-1.6 4-1.9-0.1 0.2-0.1 0.5-0.1 0.3 1.2-0.2 1.1-0.9 1.6-1.9 1.1-0.9 1.1 0 7.1 2.9 1.2-0.1 0.4 0.1 0.6 0.5 0 0.2 0 0.6 0 0.2 0.1 0 0.4-0.1 0.2 0.1z M484.1 952.7l0.3 0.2 0.4 0.7-0.1 0.6-0.5 0.3-0.6-0.2 0.1-1.1 0.4-0.5z m-1.6-1.8l0.3 0.2 0 0.6-0.2 0.5-0.5-0.2-0.3-0.8 0-0.6 0.3 0 0.3 0.2 0.1 0.1z M773 843.1l-1-0.1-1-0.6-0.1-0.1-0.2-0.4-0.2-0.2-0.1 0-2.7 0.3 0-0.4 0.1-0.6 0-0.1-0.1-0.4 0-0.1 0-0.2 0.1-0.3 0.1-0.1 0.8 0 0.1 0 0-0.1 0.4-0.7 0-0.1 0.2 0.2 0.5 0.3 0.9-0.3 0.4-0.1 0.7-0.4 0.6-0.5 0.3-0.2 0.4-0.4 0.3 1.2-0.1 0.3-0.1 0.1-0.7 0.8-0.1 0.1 0 0.1 0 0.1 0.1 0.2 0.1 0.4 0.1 0.1 0.1 0.1 0.1 0.1 0 1.9 0 0.1z M767.7 842l2.7-0.3 0.1 0 0.2 0.2 0.2 0.4 0.1 0.1 1 0.6 1 0.1-0.2 0.4 0 0.1 0 0.1 0.4 0.1 0.2 0.4 0.2 0.5 0 0.1 0 0.1-0.1 0.1-0.1 0.1-0.2 0.1-0.2 0.2-0.1 0.1-0.1 0.1-0.2 0-0.3-0.2-0.3-0.1-0.6 0.1-0.3 0.1-1.1 0.2-0.2-0.1-0.1 0-0.1 0.1-0.1 0.1 0 0.1-0.1 0 0 0.1-0.1 0-0.3-0.1-0.1-0.1-0.2-0.3-0.1-0.1 0-0.2-0.2-0.3-0.3-0.5 0-0.5-0.1-0.3 0-0.2 0-0.2-0.1-0.2 0-0.6-0.2-0.4z M773.2 837.5l-0.4 0.4-0.3 0.2-0.1-0.3-0.1-0.3 0-0.1-0.1 0-0.5 0.2-0.2-0.1-0.1 0-0.1-0.2-0.2-0.5-0.4-0.5-0.4-0.3-0.2-0.1 0-0.1 0-0.1 0-0.2 0-0.1-0.1 0-0.7-0.2 0.2-0.1 0.1-0.3 0.1 0 0.2 0.1 0.1 0.1 0.4 0.1 0.1 0 0.1-0.1 0.2-0.2 0.4-0.3 1 0 0.1 0.1 0.1 0.1 0.1 0.2 0.2 0.3 0.8 1 0.1 0.1 0.2 0 0.1 0.4-0.7 0.8z M772.5 838.1l-0.6 0.5-0.7 0.4-1.3-1.4-0.2-0.2-0.1-0.3 0-0.6 0-0.1 0-0.1-0.4-0.3-0.1 0 0-0.1 0-0.1 0-0.3 0-0.1 0.2-0.2 0.7 0.2 0.1 0 0 0.1 0 0.2 0 0.1 0 0.1 0.2 0.1 0.4 0.3 0.4 0.5 0.2 0.5 0.1 0.2 0.1 0 0.2 0.1 0.5-0.2 0.1 0 0 0.1 0.1 0.3 0.1 0.3z M767.7 837.3l0.2 0.1 0.1 0.1 0 0.1 0.1 0.2 0 0.1-0.5 0.1-0.6 0.7-0.5 0.2-1.8 0.1-0.6 0.6 0.3 0.6-2.3 0.4-0.1 0.1-0.4 0.4 0 0.2-0.1 0 0 0.1 0.1 0 0 0.1 0.1 0.1 0.1 0 0.7 0.1 0 0.1-0.5 0.4-0.4 0.5-0.1 0.3-0.3 0.4-0.8-0.9-1.4-0.4-0.4-0.5-0.1-1.2 0.2 0.1 0.5 0 0.2-0.1 0.2-0.2 0-0.1 0-0.6 0.2-0.3 0.4-0.5 0.6-1.3 1.3 0.4 1.2-0.4 1.8 0.3 0.1 0 0.4-0.4 0.9-0.1 0.6 0.3 0.3 0 0.3-0.2z M767.7 837.3l-0.3 0.2-0.3 0-0.6-0.3-0.9 0.1-0.4 0.4-0.1 0-1.8-0.3-1.2 0.4-1.3-0.4 1-1.5 0-0.3 0.1-0.1-0.1 0 0-0.2-0.1-0.1-0.2-0.1-1-0.1-0.2-0.1-0.1 0 0-0.1-0.1-0.1 0-0.1 0-0.1 0.1 0 0-0.1 0.6-0.1 1.2-1 1.9-0.1 0.9 0.3 0.3 0.2 0 0.1 0.1 0.1 0 0.6 0 0.1 0.1 0 0.1 0.1 0.5-0.2 0.3 0 0 0.1 0.1 0.2 0 0.1 1.8 0 0.1 1.3-0.1 0.3-0.1 0.4-0.3 0.4z M771.2 839l-0.4 0.1-0.9 0.3-0.5-0.3-0.2-0.2-0.6-0.8-0.5-0.2 0-0.1-0.1-0.2 0-0.1-0.1-0.1-0.2-0.1 0.3-0.4 0.1-0.4 0.1-0.3-0.1-1.3 0.4 0 0.2 0.1 0.2 0 0.1 0.1 0.3 0.1-0.2 0.2 0 0.1 0 0.3 0 0.1 0 0.1 0.1 0 0.4 0.3 0 0.1 0 0.1 0 0.6 0.1 0.3 0.2 0.2 1.3 1.4z M713 595.2l0-0.5 0.8-0.7 0.4-1 0.7 0.6 2.5 0.6 2.7 0.4 2.3 0-0.2 0.9-0.1 1.7-0.6-0.2-0.8 0-0.5 0-0.5 0.4-0.3 0.5-0.4 0.9-0.4 0.9-0.2 1.1-0.1 1.2 0.4 1.1 0.9 0.6 1 0.6-3.6 2-0.3-0.4-1.3 0-0.4-1.7-0.5-0.4-0.3 0.4-1-0.3-0.4 1.2-0.7-0.3 0.6-1 0.4-1.5-1.1-1.9 0.5-1.6 1.1-0.7 0.1-0.6 0.1-1.1-0.8-1.1 0-0.1z M700.4 600.8l0-1 0-1.3 0.1-1.6 0.3-1 1-0.4 1.1 0 1.5 0.7 1.1 1.2 1.2 0.1 1.1 0 1.9-0.1 1.6-0.6 1.4-1.5 0.3-0.1 0 0.1 0.8 1.1-0.1 1.1-0.1 0.6-1.1 0.7-0.5 1.6 1.1 1.9-0.4 1.5-0.6 1-0.2-0.8-0.5-0.6-0.6 0-0.3 0.3 0 1 1 2.5-0.2 0.5-0.5 0.3-0.6-0.5-0.5-1.9-0.5-0.6-1.5-0.2 0.3 1.2-0.6 0.1-2.1-2-0.6-1.5-0.5-0.3-1.4 0.3-0.2-0.1-0.3-1.1-1-0.6-0.9 0z M722.1 597.2l0 0.7 0.1 1 0.3 1.1 0.5 1.2 0.6 1.1 0.3 0.7-1-0.2-1.6 0.5-0.6 1-0.1 0-1-0.6-0.9-0.6-0.4-1.1 0.1-1.2 0.2-1.1 0.4-0.9 0.4-0.9 0.3-0.5 0.5-0.4 0.5 0 0.8 0 0.6 0.2z M769.2 838.9l0 0.1-0.4 0.7 0 0.1-0.1 0-0.8 0-0.1 0.1-0.1 0.3 0 0.2 0 0.1 0.1 0.4 0 0.1-0.1 0.6 0 0.4-0.3-0.1-0.1 0-0.5 0.5-0.7 0.2-0.1 0-0.6-0.4-0.1 0-0.1 0-0.1 0-0.1 0.1 0 0.1 0 0.3 0.2 0.6 0 0.7-0.1 1 0 0.1-0.3 0.5-0.2-0.6-1.1-0.5-0.7 0 0-0.1-1.1-0.9-0.5-0.1 0.3-0.4 0.1-0.3 0.4-0.5 0.5-0.4 0-0.1-0.7-0.1-0.1 0-0.1-0.1 0-0.1-0.1 0 0-0.1 0.1 0 0-0.2 0.4-0.4 0.1-0.1 2.3-0.4-0.3-0.6 0.6-0.6 1.8-0.1 0.5-0.2 0.6-0.7 0.5-0.1 0.5 0.2 0.6 0.8z M775.8 835.7l0.1 0.1 0 0.1 0.1 0.1 0.1 0.1 0 0.1 0 0.1-0.1 0-0.8-0.3-0.6 0.2 0.1-0.5-0.2-0.2 0-0.1-0.1-0.2 0-0.1 0.2-0.1 0.2-0.1 0.3 0 0.1 0 0.4 0.2 0 0.1 0.1 0.2 0.1 0.3z M776.1 836.3l0-0.1 0-0.1-0.1-0.1-0.1-0.1 0-0.1-0.1-0.1 0.2-0.3 0-0.4 0.1-0.1 0-0.1 0.4-0.1 0.2-0.2 0.8 0 0.2-0.1 0.2-0.1 0.2-0.4 0.6-0.3 0.1 0.8 0.6 1.5 0.2 0.2 0.2 0.1 0.1 0.1 0.2 0.4-0.5 0.2-0.1 0-0.1 0.1 0 0.5 0 0.2 0 0.2-0.1 0.3-0.1 0.2-0.1 0-0.1 0-0.3 0-0.3-0.2-0.3-0.5 0-0.5-0.7-0.1-0.5-0.3-0.8-0.5z M693.9 570.5l-1.3-0.7-0.1-0.6 1.4-0.8 1-3.5 0.3-0.4 1.2-0.5 0.1-1.1 0.7-0.4 1.9 0.6 2.5 1.5 3.7 1.2 2.1 0.6 0.6 1.2-0.3 1.5-1.4 0.2-1 2.7-0.8-0.6-2.6-0.2-2.4 0.1-3-0.3-2.6-0.5z M697.2 562.5l1-2.1 1.5-0.4 0.8-0.7 0-0.6-0.9-0.6 0.1-0.8 0.4-0.5 1.8 0.3 1.1 1.9 2.7 2.4 3.7 2.7-1.3 1.2-0.7 1.1-2.1-0.6-3.7-1.2-2.5-1.5-1.9-0.6z M735.1 653.9l-1.3-0.3-2.6 1.1-2.6 0-2.9-0.2-1.7-1.4-1.9-3-0.7-2.4 0.1-1.9 0.8-0.5 0.9-0.3 0.8-0.1 0.7-1.3 0.3-1.5 0.5-1 1.1-0.4 1.4-0.6 2.1 0 1 0.1 0.9 0.9 0.2 1.6 0 1.4 0.7 1.3 1.6 0.2 1.2 0-0.1 0.2 0.5 2-0.9 4.2-0.1 1.9z M653.6 692.5l-2.8-0.8-0.6 0.8-1.9-1.9 0-2.1-0.5-2.9-0.5-1.9 0.5-0.2-0.1-1.3 0.3-0.6 1.1-0.9 0.5 0.1 0.7 1.3 2.9 3.1 0.7-0.7 1.2 0.6 2.1 0 0.2 1.1 0.8 0.7 0.8 1.1-2.4 0.4-1.1-0.8-1.2 0-0.2 0.8 0.4 0.6 0 1 0.8 0.7-0.2 0.8-1.5 1z M778.7 823.5l0.2 0.9-0.3 1.2 0.5 0.2-0.5 0.8 0 0.1-0.1 0 0 0.1 0 0.1 0 0.1 0 0.1 0 0.1-0.1 0.3 0 0.2 0 0.1-0.1 0.1 0 0.1-0.1 0-0.2 0.2-0.1 0.1-0.1 0.1 0 0.1 0 0.2 0 0.1 0 0.1 0 0.1 0 0.1 0 0.1 0 0.1-4.7-0.5 0.5-1.5-2.2-1.8 0-1.5 0.4-0.4 0.5-1 6.4 0.9z M783 798.9l0.1 1.4 1.3 0.8 0.1 1.7 0.6 1.4 0.2 2 0.5 1.7 2.3-0.5-0.2 0.8 0.5 0.6 0.1 0.5-1.2 1.3 0 1.7 0.8 0.7-1.3 0.8-0.2 1.2-2.3 1-3.4 0.6-1.7 2.7-0.5 4.2-6.4-0.9-0.5 1-0.4 0.4-0.3 0.4-1.3 0.3-0.8 0.6-0.5-1.1-0.5-0.3-0.3 0.4-0.4 1.7-1.9 0.5-1.2 0.3-2.5 1.5-1.2-0.1-1.5 0-1.3 0.3-0.5-0.5-0.6 0.2-0.2 1.3-0.3 0.5-1.2-1.2-0.3-1.3 0.1-1.2 1.2-2 0-0.6-0.4-0.3-1.5 0.3-0.1-1.4-0.5-1.1 0.1-0.6 1.2-0.9-0.2-0.5-0.7-0.3-1.1 0.5-1.1-1.3-2 0-1.4-0.7-0.6-0.8 0.1-1.3-0.3-0.7-0.8-1-0.7 0-0.9-1.5 0.8-1.5 0.5-0.1 1.3 0.5 0.1 0.5-0.2 0.5 1.1 1.4 1.8 0.1 1.6 0.6 1.3-1.5 0.9 0.2 0.9 1.3 0.3 0 0.8-1 0.4-1.5 0.8-0.9 0.6 0 1.6 0.3 1.8 1.4 0.7-0.1 0.3-0.8 0.9-0.6 0.2-0.5-0.6-1.1 0-1.2-0.9-0.8-0.2-1.2-0.6-1-0.7-1.1 0-1.5 0.6-1.2 0.5-0.6 0.2 1.7 0.2 0.5 0.3 0 0.8-1-0.4-0.9 0.2-0.5 1.7-0.2 1-0.7 1.1 1 0.6 0.1 0.8-1.4 1.7-1-0.2-1.5 0.9-1.3 1.3-0.7 0.5-1 0.6 0.3 0.2 0.5-0.3 1.1 0.8 0.7 0.1 0.8 0.4 0.4 1.9-1.1 1.8-0.5 0.9-0.9 0.5 0.2 2.4 0.5 1.4 3.1z M771.4 824l0 1.5 2.2 1.8-0.5 1.5 0 0.1-0.1 0.2-0.1 0.3-0.1 0.2 0 0.1-0.1 0-0.1 0-0.1-0.1 0-0.2-0.1-0.1-0.1 0-0.1 0.1 0 0.1 0 0.1 0.2 0.7-0.1 0.1 0 0.2-0.2 0.2-0.3 0.1-0.1 0.1-0.1 0.9-0.6 0.3-0.2 0.2-0.1 0.2-0.2 0.2-0.9 0.2-1-1.1 0-0.1-0.1 0-0.1 0-0.1 0.1-0.1 0.1-0.1-0.1-0.2-0.2-0.1-0.3-0.1-0.3 0-0.3 0-0.1 0-0.1-1-1.3-1.2-2.1-0.1-0.7 1.9-0.5 0.4-1.7 0.3-0.4 0.5 0.3 0.5 1.1 0.8-0.6 1.3-0.3 0.3-0.4z M779.1 825.8l0.1 0.1 1 0.7 0.3 0.8-0.4 0.2 0 0.1-0.1 0.2 0 0.1 0.1 0.1 0.2 0.2 0 0.2 0.1 0.2 0 0.2-0.2 0.6-0.1 1 0.3 1.1-0.1 1.2-1.6 0.1-0.5-0.5-0.1 0-0.6 0.1-0.2-0.1-0.4-0.4-0.2-0.6 0.1-0.3 0.1-0.1 0-0.2 0.1 0 0-0.2 0.1-0.1 0-0.1 0.1-0.1 0-0.1 0.2-0.2 0-0.1 0.1-0.1 0.1-0.2 0-0.1 0.2-0.2 0-0.1 0-0.1 0-0.1 0-0.1 0-0.1 0-0.1 0-0.2 0-0.1 0.1-0.1 0.1-0.1 0.2-0.2 0.1 0 0-0.1 0.1-0.1 0-0.1 0-0.2 0.1-0.3 0-0.1 0-0.1 0-0.1 0-0.1 0-0.1 0.1 0 0-0.1 0.5-0.8z M780.5 827.4l0.1 0.4 2.5 1.5 0.6-0.1 0.8-1 1.7-0.2 0.1 0.4 0 1-0.5 0.4-0.1 0 0 0.2-0.1 0-0.1 1.4-0.3 1.1 0 0.3-0.1 0.1 0 0.1-0.1 0-0.2 0-0.4 0-0.2 0.1-0.1 0.1 0 0.1-0.1 0.1-0.1 0.1-0.4-0.1-0.8 0.3-0.1-0.6-0.1-0.2 0-0.1-0.4-0.2-0.1 0-0.3-0.4-0.2-0.1-0.1 0.1-0.1 0-0.3 0.4-0.1 0.1-0.6 0.1 0.1-1.2-0.3-1.1 0.1-1 0.2-0.6 0-0.2-0.1-0.2 0-0.2-0.2-0.2-0.1-0.1 0-0.1 0.1-0.2 0-0.1 0.4-0.2z M786.2 828l1.6-0.1 2.2-0.7 0.8 0.1 0.2 0.8 0.9 1.7 0.6 0.8 1.1 0.4 0.4 1.2 0.2 0.3 0.7 1.4-2.6 1-0.3 0.7-1.2-0.2-0.3 1.6-0.8 0.7-0.8 0.4-0.8 0.1-0.1-0.1-0.9-1.2-0.1 0 0-1.2 0.1-0.4 0-0.1 0.1-0.2 1-1.8 0-0.1 0.1-0.3-0.1 0 0-0.1-0.2-0.3-0.1-0.1 0-0.2 0-0.1 0-0.1-0.1 0-0.1 0-0.7 0.4-0.1 0-0.1-0.1-0.1-0.1-0.2-0.4-0.1-0.5-0.3-0.4 0-0.1 0-0.2 0-0.1 0.1-0.2 0.1-0.8 0-1-0.1-0.4z M776.9 748.6l2.3 0.8 1.5 0 0.7-0.7 0.5-1-0.2-2.4 0.3-0.3 1.8-0.2 2.4-1.4 1.1 0.1-0.7 4.2 1.8 0.7 0.2 0.8-0.8 1.1 0 0.5 2.9 2.2 0 0.3-1.2 1-0.1 0.9 0.5 0.9-0.5 1.4 0.2 1.6 0.6 0.5 0 0.7 0.8 1.5 0.5 0 1.1-1 2-0.2 1.6 0.9 0.1 0.6 1.5 2.1 2.3 1.8-2.5 1.9-0.2 0.4 0 0.9 1.4 2.7 1.3 1.2 0.1 0.6-0.7 1.1 0 0.6 1.8 0.1 1.8 2.1 0 0.5-0.7 0.7-3 0.9-2.3-1.8 0-0.5-0.7-0.5-0.8 2.5 2 2.5 0.8 0 0.8-1 1 0.3 0.6-0.4 0.9 0.9 1.1-0.1 0.6 0.8 0 0.6-0.9 2.6 0.1 1.2-0.7 0.2-1.1-0.4-0.4 0.3-1 1.1-0.2 1.2-1.4 1.9 0.6 3.4-0.8 0.6 0.4 0.7-0.5 0.6-1.2-0.7-1.9-2.3-0.8-0.6-1-0.2-1.4 0.6-2.3-0.4-0.6 0.4 0 1.5-0.8 0.7-1.8 0.5-1.1-1.1-0.4 0.1 0.1 2.1-1.3 1.9-1.4-3.1-2.4-0.5-0.5-0.2-0.9 0.9-1.8 0.5-1.9 1.1-0.4-0.4-0.1-0.8-0.8-0.7 0.3-1.1-0.2-0.5-0.6-0.3 0.8-4-0.1-0.9-1.8 0.3-2.2-0.3-0.2-0.2 0.7-1.1-1.9-0.8-0.1-0.2 0.7-0.7-0.1-0.5-0.8-1-1.8-0.8 0-1.6-1.8-0.4-0.7 0.4-0.4-0.3-0.7-1.1-0.1-2-2.2-0.8-0.5-1.4-1.4-0.9-0.1-1.1-1.2-2 0.1-1.3 2.7-1.3 0.5-1 1.6-1.2 2-2.8 0.2-0.6-0.6-2.6-2.8-1.7 0.4-2-0.8-1 0.1-0.7 0.8 0.1 0.7 1 1.2 1.4 1.4 1.5 1.9 0.3 0.7-0.9 1.5-1.3 1.1-1.5 1-0.4 2.5-1.5 2.5-0.5 1.2-0.2 0.3-0.2 0.3-0.8 0-1.5 0-3.1z M789.7 837.7l-0.3 0.3-0.1 0.6 0.3 0.4-0.5 1.1-1.4 1.5-1 1.5 0.3 1.4-1.4-1-1.3-0.1-0.7-0.6-0.6-0.8 0-0.1 0.3-0.7 0.1-0.2 0-0.4-0.1-0.8 0-0.2 0-0.1 0-0.1 0.3-0.3 0.1-0.1 1-0.2 0.1-0.1 0.1 0 0-0.1-0.1-0.7 0.1-0.9-0.1-0.3 0.4-0.1 1-0.1 0.8 0.4 0.1 0 0.9 1.2 0.1 0.1 0.8-0.1 0.8-0.4z M768.7 845.5l0.2 0.3 0.1 0.1 0.3 0.1 0.1 0 0-0.1 0.1 0 0-0.1 0.1-0.1 0.1-0.1 0.1 0 0.2 0.1 1.1-0.2 0.3-0.1 0.6-0.1 0.3 0.1 0.3 0.2 0.2 0 0.1-0.1 0.1-0.1 0.6 0.7 0.1 0.2 0 0.2 0.3 0.9 0 0.2 0 0.2 0 0.5-0.1 0.3-0.1 0.1-0.5-0.1-0.2 0.1-0.2 0.1-0.1 0.3 0 0.1-0.1 1 0 0.1-0.2 0.1-1 0-0.7-1.4-0.4-0.1-1.5 0.9 0.1-1.9-1.2-1.5 0.3-0.4 0.1 0 0-0.1 0.2-0.2 0.1-0.1 0.2-0.1z M738.6 796.5l0.5-0.5 0-1.4 1-0.2 0.3-0.2 0-0.6-1.1-1.1-0.7-1.2-0.5-0.3-0.1-0.8 2.5-0.8 0.6-0.8 0-0.6 0.3-0.5 1.4 0.4 0.7-1.2 1.5 0 3.5-2.3 1.6 1.3-0.5 2.2 2 2.2 0.7 1.6-2.1 1.7-0.1 0.2 0.3 0.7-1.2 0.5-0.8 1.3 0.9 0.2 0.4 0.6-0.2 1.8-1 1.3 0.6 2-0.7 1-1.4 0-1.6-0.1-2.7-2.1-2.8-2.6-1.3-1.7z M754.2 812.8l-0.9-0.2-1.3 1.5-1.6-0.6-1.8-0.1-1.1-1.4 0.2-0.5-0.1-0.5-1.3-0.5-0.5 0.1-0.8 1.5 0.9 1.5 0.7 0 0.8 1 0.3 0.7-0.1 1.3 0.6 0.8 1.4 0.7 2 0 1.1 1.3 1.1-0.5 0.7 0.3 0.2 0.5-1.2 0.9-0.1 0.6 0.5 1.1 0.1 1.4 1.5-0.3 0.4 0.3 0 0.6-1.2 2-0.1 1.2 0.3 1.3 1.2 1.2 1 3.1-0.6 4.2-0.6 1.3-0.7 0.1-0.4-0.9 0.1-0.9-0.2-0.5-1.6 0.2-0.2-1.4-0.3-0.3-0.6 0-0.2 0.5-1.5-0.8-1.3 0.3-0.2 0.5 0.3 1.2 0.3 0.8-1.2 0.1-0.8-0.2-1.1-0.9 0.1-0.8 0.5-0.9 0.2-1.5-0.5-0.8-1.1-0.3-1.1 0.1-0.8 0.5-0.7-0.1-3.4 1.1-1-0.3-0.6-0.3-0.3 0.2-2.1-1.7 0.2-0.8 0.8-0.7 0-0.5-0.3-0.4-0.7 0.1-0.5-1.4 0.6-1.2-0.5-0.7 0.7-0.3 0.2-1.4 0.4-0.2 1.7 0.4 0.1-0.3-0.4-1.2 0.3-1.2-0.3-1.2-1.3-1.9-2.5-1.1-1.2 0.5-1.3-0.3-1 0.7-1.2-0.6-0.7-1.6-1.3-0.5-0.3-2.6-0.7-1 0.2-0.5 0.4-0.3 2.2 1 1-0.7 0-0.8-0.7-1.4 0-1.2-0.7-0.7-0.2-0.8 0.3-1.6 1.3-1.6 0-0.2-1.2-0.1-0.4-0.6 0.3-1.2 1.1-1.9-0.3-0.3-2.3-0.9-1.6-0.7 1.1-1.3 1-0.7 2.8-0.7 0.7-0.9 1.5 0.2 1.9-0.9 0.4 0.2 1.9 4 0.5-0.1 1.1-1 1.3 1.7 2.8 2.6 2.7 2.1 1.6 0.1 1.4 0-0.6 0.9-0.8 2.6 1.2 0.4 1.7 1.6 1-0.3 2 1.9 0.5 1.2 0.8 0.9 0 0.6z M760.8 837.4l-0.6 1.3-0.4 0.5-0.2 0.3 0 0.6 0 0.1-0.2 0.2-0.2 0.1-0.5 0-0.2-0.1-1.5-0.4-1.1-1.4 0.6-1.3 0.6-4.2-1-3.1 0.3-0.5 0.2-1.3 0.6-0.2 0.5 0.5 1.3-0.3 1.5 0 0.4 2.2 0.1 0.1 0 0.1 0 0.1 0.1 0.1 0 0.1 0 0.1 0.8 1.9 0.1 0.4-1.2 1-0.6 0.1 0 0.1-0.1 0 0 0.1 0 0.1 0.1 0.1 0 0.1 0.1 0 0.2 0.1 1 0.1 0.2 0.1 0.1 0.1 0 0.2 0.1 0-0.1 0.1 0 0.3-1 1.5z M770.8 834.8l-0.2 0.2-0.1 0.1-0.1 0-0.4-0.1-0.1-0.1-0.2-0.1-0.1 0-0.1 0.3-0.2 0.1-0.3-0.1-0.1-0.1-0.2 0-0.2-0.1-0.4 0-1.8 0 0-0.1-0.1-0.2 0-0.1-0.3 0-0.5 0.2-0.1-0.1-0.1 0 0-0.1 0-0.6-0.1-0.1 0-0.1-0.3-0.2-0.9-0.3 0.1-0.5 0.1-0.1 0-0.4 0.1-0.2 0.2-0.1 0-0.1 0.1 0 0-0.1 0-0.2 0-0.2 0.1-0.1 1.4-0.5 0-0.1 0.1 0 0-0.1-0.1-0.2 0-0.1 0.7-0.9 1 1.3 0 0.1 0 0.1 0 0.3 0.1 0.3 0.1 0.3 0.2 0.2 0.1 0.1 0.1-0.1 0.1-0.1 0.1 0 0.1 0 0 0.1 1 1.1 1.1 1.3 0.1 0.5z M761.2 805.1l0.6 1 0.2 1.2 0.9 0.8 0 1.2 0.6 1.1-0.2 0.5-0.9 0.6-0.3 0.8-0.7 0.1-1.8-1.4-1.6-0.3-0.1-0.3-0.8-1.2-0.3-0.8 0-1 0.3-1.1 0.3-0.7 1 0 1.9-0.1 0.9-0.4z M763.9 833.2l-1.9 0.1-0.1-0.4-0.8-1.9 0-0.1 0-0.1-0.1-0.1 0-0.1 0-0.1-0.1-0.1-0.4-2.2 1.2 0.1 2.5-1.5 1.2-0.3 0.1 0.7 1.2 2.1-0.7 0.9 0 0.1 0.1 0.2 0 0.1-0.1 0 0 0.1-1.4 0.5-0.1 0.1 0 0.2 0 0.2 0 0.1-0.1 0 0 0.1-0.2 0.1-0.1 0.2 0 0.4-0.1 0.1-0.1 0.5z M758 810.7l-0.6 0-0.8 0.9-0.4 1.5-0.8 1-0.3 0-0.9-1.3 0-0.6-0.8-0.9-0.5-1.2-2-1.9-1 0.3-1.7-1.6-1.2-0.4 0.8-2.6 0.6-0.9 0.7-1-0.6-2 1-1.3 0.2-1.8-0.4-0.6-0.9-0.2 0.8-1.3 1.2-0.5-0.3-0.7 0.1-0.2 2.1-1.7 3.3 1.9 2.1-0.4 3.1 0.8 2.5-2.9-0.2-3 0.9-2.7 3.3-1 0.8 1 0.1 0.5-0.7 0.7 0.1 0.2 1.9 0.8-0.7 1.1 0.2 0.2 2.2 0.3 1.8-0.3 0.1 0.9-0.8 4-0.5 1-1.3 0.7-0.9 1.3 0.2 1.5-1.7 1-0.8 1.4-0.6-0.1-1.1-1-1 0.7-1.7 0.2-0.2 0.5 0.4 0.9-0.8 1-0.3 0-0.2-0.5-0.2-1.7-0.5 0.6-0.6 1.2 0 1.5 0.7 1.1-0.9 0.4-1.9 0.1-1 0-0.3 0.7-0.3 1.1 0 1 0.3 0.8 0.8 1.2 0.1 0.3z M757.7 775.5l1.4 0.9 0.5 1.4 2.2 0.8 0.1 2 0.7 1.1 0.4 0.3 0.7-0.4 1.8 0.4 0 1.6 1.8 0.8-3.3 1-0.9 2.7 0.2 3-2.5 2.9-3.1-0.8-2.1 0.4-3.3-1.9-0.7-1.6-2-2.2 0.5-2.2-1.6-1.3 1-1.8-0.1-1.7-0.4-1.1 0.1-0.5 2.4-0.5 0.6 0.2 0.9 1.1 0.8 0.2 0.5-0.3 0.3-0.8 0-1.8 1-1.5 2.1-0.4z M748.7 741.7l0 0.1 2 0.1 1 0.5 1.1-0.2 1.7 1.2 0.5 1.2 4.7 1.8-0.2 0.9-1.4 1-2.1 0.9-0.8-0.2 0.2 0.8 0.8 0.5-1.4 1-1.3 2.5-6.2 3.7-0.8 1.5-1.5 1.3-0.6-0.5-1-1.5-1.1-2.5-0.6-2.4-0.1-1.9 0-2.7 0.1-1.4-0.2-1.1 0-1.6 1-0.8 2.6 0.2 2.2-1.3 1.4-1.1z M736.1 683.9l1.4 1.3-0.1 0.4-0.8 0.5 0.2 0.2 5.1 0.4-0.3 1 0.2 0.8 0.4 0.8 0.7 1.4 0 0.4 0 0.5-0.3 0.8 0.1 0.5 0.2 0.3 0.3 0.2 0.3 0.4 0.7 2.5 0.1 0.6-0.2 0.9-0.9 2.5-0.4 3.5 2.5 0.4 0.9-0.9 1.2-0.1 1 0.9 0.6-1 0.3 0.1 0.1 0.6-1 1.3-0.3 1.1-1.3 0-0.7 0.8-1.1 0.2-0.7 1.6 0.1 0.6 0.2 0.1 1.5 0.1-0.2 1.6 0.2 1.7-0.4 0.8 0.6 0.9-0.5 1 0.8 1 0.3 1.6-2.3 1.1-0.9 1.4-1.1 0.9-0.2 1.5 0.9 2-1.2 0.3-1.3 1.3-0.1 0.9-1.3 2.8-2.2 2-1.3 0.4-0.2 0.2 0.2 0.8-1 1.2-1.1 0.7-0.2 1-0.3 0.3-3.4 0.3-0.8-0.6-1.4 0.3-1.6 1.3-1.5 0.4-1.1 1.1-1.7-0.5-1.6-1.6-0.4-1.5 0.2-3.3 0.9-0.3 0.6-1.2-1.8-1.4 0-1.6-0.6-2.1 0-3.1-1.8-2.1 0-1.6-0.4-1.3 0.4-1.1 1-0.8 0.4-0.7-1-3.7 0.1-0.9 1.6-0.9 1.5 0.2 0.7-0.9 1.8-0.4 0.1-0.3-0.3-1.1 0.3-1.9-0.3-1.7 0.3-0.8 0.9-0.6 0.4-1-0.2-0.8 0.2-1-0.7-0.6 0.5-1 1.4-1.5-0.4-1 1.1-0.6 0.3-0.8-0.2-1.8 1.4-1.9 1-0.8 1.8-0.1 0.7 0.5 0.4-0.3 1.3-1.8 0.4-2.2 2.3-2z m-11.8 48.1l1.4-1.5 1.8-2.1 0-1.6-0.6-1.7-0.9-1.6-1.2-1-1.5 0.2-1.1 1.8-0.5 1.9-0.1 2.2 0.8 1.9 0.6 1 1.3 0.5z M759.8 756.2l-0.1 0.7 0.8 1-0.4 2 2.8 1.7 0.6 2.6-0.2 0.6-2 2.8-1.6 1.2-0.5 1-2.7 1.3-0.1 1.3 1.2 2 0.1 1.1-2.1 0.4-1 1.5 0 1.8-0.3 0.8-0.5 0.3-0.8-0.2-0.9-1.1-0.6-0.2-2.4 0.5-0.1 0.5 0.4 1.1 0.1 1.7-1 1.8-3.5 2.3-1.5 0-0.7 1.2-1.4-0.4-0.3 0.5 0 0.6-0.6 0.8-2.5 0.8 0.1 0.8 0.5 0.3 0.7 1.2 1.1 1.1 0 0.6-0.3 0.2-1 0.2 0 1.4-0.5 0.5-1.1 1-0.5 0.1-1.9-4-0.4-0.2-1.9 0.9-1.5-0.2-0.7 0.9-2.8 0.7-1 0.7-1.1 1.3 1.6 0.7-0.5 0.2-0.9 1.2-1.1 0.2-1.1 0.7-2.3-0.1-1 0.3-0.5-0.3-1-3.8-0.4-0.7 0.1-2.5-0.6-0.4 1.5-0.8 1.4-0.2 0.3-0.5-3.9-5 0.2-0.7 0.7-0.7 2.5-1.1 0.2-0.8-1-1.2 0-0.5 2.7-1.7 0-1.7-0.8-0.8 1.1-1.4-0.3-0.4-1.6-0.4-0.3-0.6 0.7-0.6 2.5-0.9 0.7-0.7-0.1-0.9-0.9-1.7 1.4 0.3 1.1-2 1.5-1.6 2.6 1.7 1.1-2.3-0.5-0.3-0.2-0.4 0.2-0.2 3.3-1.5 1.2 0.2 1.9 1.1 0.6 0 0.6-1.2-1-0.9 1-2.4 0.4-0.3 1.4 0.5 2-0.3 1.3 0.6 1.3-0.4 0.2-0.2 1.5-1.3 0.8-1.5 6.2-3.7 1.3-2.5 1.4-1 0.8 0.9 0.4 1.2-0.4 3.2 0.6 0.4 2.2-0.3 0 0.5z M773.9 836.7l-0.1-0.4-0.2 0-0.1-0.1-0.8-1-0.2-0.3-0.1-0.2-0.1-0.1-0.1-0.1-1 0-0.4 0.3-0.1-0.5-1.1-1.3 0.9-0.2 0.2-0.2 0.1-0.2 0.2-0.2 0.6-0.3 0.6 0 0.9 0.2 0.1 0.2 0 0.3 0 0.3 0.6 0.7 0.2 0.6 0 0.1 0 0.1 0 0.2 0 0.2 0 0.1 0.3 0.2 0.1 0 0 0.1 0.1 0.2 0 0.1 0.2 0.2-0.1 0.5-0.2 0-0.3 0.3-0.2 0.2z M775.1 834.9l-0.3 0-0.2 0.1-0.2 0.1-0.1 0-0.3-0.2 0-0.1 0-0.2 0-0.2 0-0.1 0-0.1-0.2-0.6-0.6-0.7 0-0.3 0-0.3-0.1-0.2 0.1-0.2 0.6-0.3 0.2 0 0.1 0 0.1 0.1 0.2 0.4 0.4 0.3 0.5 0.4 0.1 0.1 0 0.2 0 0.1 0.4 0.1 0.1 0.1 0 0.1 0 0.1-0.8 1 0 0.1 0 0.1 0 0.1z M756.2 750.3l1.1-0.5 1.5 0.5 1.6 0 4-2.1 2.5 1.2 2.9-0.6 0.8 1.1 1.1-0.2 1.1 0.4 1.6-1 0.9 0.1 1.5-0.6 0.1 0 0 3.1 0 1.5-0.3 0.8-0.3 0.2-1.2 0.2-2.5 0.5-2.5 1.5-1 0.4-1.1 1.5-1.5 1.3-0.7 0.9-1.9-0.3-1.4-1.5-1.2-1.4-0.7-1-0.8-0.1 0-0.5-2.2 0.3-0.6-0.4 0.4-3.2-0.4-1.2-0.8-0.9z M773 843.1l0-0.1 0-1.9-0.1-0.1-0.1-0.1-0.1-0.1-0.1-0.4-0.1-0.2 0-0.1 0-0.1 0.1-0.1 0.7-0.8 0.1-0.1 0.1-0.3-0.3-1.2 0.7-0.8 0.2-0.2 0.3 0.2 0 0.1 0.1 0.1 0.1 0.2-0.1 0.3 0 0.1 0.1 0.1 0 0.2 0 0.4 0.1 0.1 0.5 1 0.1 0.3 0.1 0.2 0 0.1 0 0.1 0 0.1-0.5 0.7 0 0.1 0 0.1 0 0.2 0.2 0.3 0.1 0.5 0.5 1 0 0.1 0 0.1-0.1 0 0 0.1-1.2-0.2-0.3 0.1-0.9 0.6-0.4-0.1 0-0.1 0-0.1 0.2-0.4z M774.6 836.2l0.6-0.2 0.8 0.3 0.1 0 0.8 0.5 0.5 0.3 0.7 0.1 0 0.5-0.2 0-0.1 0-0.1 0.2-0.3 0.1-0.4 0.2 0 0.1-0.1 0.1 0 0.1 0.2 0.6 0 0.4 0.1 0.3 0.1 0.2 0.3 0.4 0 0.1 0 0.1-0.2 0.4 0 0.1-0.1 0.1-0.5 0.1-0.1 0.1-0.1 0.2-0.1 0.5-0.4 0.5 0 0.1 0 0.1-0.1 0-0.1 0.1-0.1 0-0.1 0.1-0.5-1-0.1-0.5-0.2-0.3 0-0.2 0-0.1 0-0.1 0.5-0.7 0-0.1 0-0.1 0-0.1-0.1-0.2-0.1-0.3-0.5-1-0.1-0.1 0-0.4 0-0.2-0.1-0.1 0-0.1 0.1-0.3-0.1-0.2-0.1-0.1 0-0.1-0.3-0.2 0.3-0.3 0.2 0z M721.6 673.4l0.7 0.1 0.7-1.5 2.2-0.2 0.6 0.6 0.6 0 0.7-0.8 1.8-0.3 3.6-1 2.6 0.3 3.8 1.9-0.1 1 0.1 0.6 0.2 1.1-0.2 1.3-0.4 0.3-0.6-0.2-1.1 0.7 0.6 0.5 0.1 0.9 0.8 0.7 0 1.1-0.4 0.3-1.6-0.4-1.3 1.1 1.1 2.4-2.3 2-0.4 2.2-1.3 1.8-0.4 0.3-0.7-0.5-1.8 0.1-1 0.8-1.4 1.9-2.9-1.7-2.9-2.6-0.8-2.8-3.1-0.7 1.4-2.8-1.4-2.2-0.9-3.1 1.8 0.4 3-1.7 0.6-1.9z M773 845.4l0.2-0.2 0.2-0.1 0.1-0.1 0.1-0.1 0-0.1 0-0.1-0.2-0.5-0.2-0.4 0.9-0.6 0.3-0.1 1.2 0.2 0.1 0.2 0.8 1.4 1 0.7 0.8 1.1 1.5 3.7-0.6-0.7-1.3-0.1-0.9 1.2-0.9-0.1-0.9 0.4-0.8 1.4-1.2 0.2-1.1-1-0.6-1.3 1 0 0.2-0.1 0-0.1 0.1-1 0-0.1 0.1-0.3 0.2-0.1 0.2-0.1 0.5 0.1 0.1-0.1 0.1-0.3 0-0.5 0-0.2 0-0.2-0.3-0.9 0-0.2-0.1-0.2-0.6-0.7z M776.1 842.8l0-0.1 0-0.1 0.4-0.5 0.1-0.5 0.1-0.2 0.1-0.1 0.5-0.1 0.1-0.1 0-0.1 0.2-0.4 0-0.1 0-0.1-0.3-0.4-0.1-0.2-0.1-0.3 0-0.4-0.2-0.6 0-0.1 0.1-0.1 0-0.1 0.4-0.2 0.3-0.1 0.1-0.2 0.1 0 0.2 0-0.2 0.5 0.1 0.1 0.5 0.4 0.1 0 0 0.1-0.1 0.2 0.1 0 0 0.1 0.2 0.4 0 0.1 0.1 0 0.1-0.1 0-0.1 0.1-0.1 0.8 0.2 0 0.1 0 0.1-0.1 0.1 0 0.1 0 0.1 0 0.2 0.1 0.1 0 0.1 0.1 0.2 0.3 0.2 0 0.1 0 0.1 0 0.2 0 0.1 0.1 0.2 0 0.1 0.8 0.9 0.1 0.1 0 0.1-0.1 0.1 0 0.1-0.2 0.1-0.1 0-0.7-0.2-0.3 0.1-0.3 0.5-0.1 0.1-0.1 0.1-0.2 0-0.9-0.6-2.2-0.2z M773.1 828.8l4.7 0.5-0.2 0.2 0 0.1-0.1 0.2-0.1 0.1 0 0.1-0.2 0.2 0 0.1-0.1 0.1 0 0.1-0.1 0.1 0 0.2-0.1 0 0 0.2-0.1 0.1-0.1 0.3-1.5 0-0.2 0.1-0.1 0.1 0 0.1 0 0.1-0.1 0.6-0.4-0.3-0.2-0.4-0.1-0.1-0.1 0-0.2 0-0.6 0.3-0.1 0.2-0.9-0.2-0.6 0 0.1-0.9 0.1-0.1 0.3-0.1 0.2-0.2 0-0.2 0.1-0.1-0.2-0.7 0-0.1 0-0.1 0.1-0.1 0.1 0 0.1 0.1 0 0.2 0.1 0.1 0.1 0 0.1 0 0-0.1 0.1-0.2 0.1-0.3 0.1-0.2 0-0.1z M767.7 842l0.2 0.4 0 0.6 0.1 0.2 0 0.2 0 0.2 0.1 0.3 0 0.5 0.3 0.5 0.2 0.3 0 0.2 0.1 0.1-0.2 0.1-0.1 0.1-0.2 0.2 0 0.1-0.1 0-0.3 0.4-1.2 0.9-1.1 2.4-0.9 0.4-0.2-1.7 0.8-1.8-0.4-1 0.3-0.5 0-0.1 0.1-1 0-0.7-0.2-0.6 0-0.3 0-0.1 0.1-0.1 0.1 0 0.1 0 0.1 0 0.6 0.4 0.1 0 0.7-0.2 0.5-0.5 0.1 0 0.3 0.1z M780.1 836.7l-0.2-0.4-0.1-0.1-0.2-0.1-0.2-0.2-0.6-1.5-0.1-0.8 0-0.1 0-0.2 0-0.4 1.6-0.1 0.6-0.1 0.1-0.1 0.3-0.4 0.1 0 0.1-0.1 0.2 0.1 0.3 0.4 0.1 0 0.4 0.2 0 0.1 0.1 0.2 0.1 0.6 0 0.5 0 0.2 0.3 0.4 0.1 0.1 0.6 0.3 0 0.1 0.1 0.2 0.1 0.1 0 0.1-0.1 0.2-0.1 1.2-1.1 0.4-1.1 0.1-1.4-0.9z M778.1 837.7l0.3 0.5 0.3 0.2 0.3 0 0.1 0 0.1 0 0.1-0.2 0.1-0.3 0-0.2 0-0.2 0-0.5 0.1-0.1 0.1 0 0.5-0.2 1.4 0.9 1.1-0.1 1.1-0.4 1.1-0.4 0.1 0.3-0.1 0.9 0.1 0.7 0 0.1-0.1 0-0.1 0.1-1 0.2-0.1 0.1-0.3 0.3 0 0.1 0 0.1 0 0.2 0.1 0.8 0 0.4-0.1 0.2-0.3 0.7 0 0.1-0.3 0.5-0.3 0.2-0.1 0-0.1 0-0.1-0.1-0.2-0.4-0.7-0.7-0.3 0-0.5 0.1 0-0.1-0.1-0.2 0-0.1 0-0.2 0-0.1 0-0.1-0.3-0.2-0.1-0.2 0-0.1-0.1-0.1 0-0.2 0-0.1 0-0.1 0.1-0.1 0-0.1 0-0.1-0.8-0.2-0.1 0.1 0 0.1-0.1 0.1-0.1 0 0-0.1-0.2-0.4 0-0.1-0.1 0 0.1-0.2 0-0.1-0.1 0-0.5-0.4-0.1-0.1 0.2-0.5z M775.8 835.7l-0.1-0.3-0.1-0.2 0-0.1-0.4-0.2-0.1 0 0-0.1 0-0.1 0-0.1 0.8-1 0-0.1 0-0.1-0.1-0.1-0.4-0.1 0-0.1 0-0.2-0.1-0.1-0.5-0.4 0.1-0.6 0-0.1 0-0.1 0.1-0.1 0.2-0.1 1.5 0 0.2 0.6 0.4 0.4 0.2 0.1 0.6-0.1 0.1 0 0.5 0.5 0 0.4 0 0.2 0 0.1-0.6 0.3-0.2 0.4-0.2 0.1-0.2 0.1-0.8 0-0.2 0.2-0.4 0.1 0 0.1-0.1 0.1 0 0.4-0.2 0.3z M782.7 833.7l0.8-0.3 0.4 0.1 0.1-0.1 0.1-0.1 0-0.1 0.1-0.1 0.2-0.1 0.4 0 0.2 0 0.1 0 0-0.1 0.1-0.1 0-0.3 0.3-1.1 0.1-1.4 0.1 0 0-0.2 0.1 0 0.5-0.4-0.1 0.8-0.1 0.2 0 0.1 0 0.2 0 0.1 0.3 0.4 0.1 0.5 0.2 0.4 0.1 0.1 0.1 0.1 0.1 0 0.7-0.4 0.1 0 0.1 0 0 0.1 0 0.1 0 0.2 0.1 0.1 0.2 0.3 0 0.1 0.1 0-0.1 0.3 0 0.1-1 1.8-0.1 0.2 0 0.1-0.1 0.4 0 1.2-0.8-0.4-1 0.1-0.4 0.1-1.1 0.4 0.1-1.2 0.1-0.2 0-0.1-0.1-0.1-0.1-0.2 0-0.1-0.6-0.3-0.1-0.1-0.3-0.4 0-0.2 0-0.5z M743.3 725.1l0.1 1.4 0.8 0.6 0.1 0.6-0.9 2.6 0.5 0.9 0 1 1.4 0.3 0.7 1.4 0.8 2.5 0.7 0.7 0.6 3 0.6 1.6-1.4 1.1-2.2 1.3-2.6-0.2-1 0.8 0 1.6 0.2 1.1-0.1 1.4 0 2.7 0.1 1.9 0.6 2.4 1.1 2.5 1 1.5 0.6 0.5-0.2 0.2-1.3 0.4-1.3-0.6-2 0.3-1.4-0.5-0.4 0.3-1 2.4 1 0.9-0.6 1.2-0.6 0-1.9-1.1-1.2-0.2-3.3 1.5-0.2 0.2 0.2 0.4 0.5 0.3-1.1 2.3-2.6-1.7-1.5 1.6-1.1 2-1.4-0.3-1.2-2.6-1.3-0.8-2.5-4.1-4.8-2.6-0.4-1-0.6-0.7-3.6-1.6-1.1-1.4-1.3-0.5 0.1-1.6-0.7-1.6 1-0.6 0.1-0.9-2.1-2.7-0.2-0.7 2.3-1.6 0.2-0.6-0.6-1.5 0.1-1 0.4-0.3 2.7 0.1 1-0.3 0.2-0.2-0.1-0.8 1.1-1.4 1.5-0.5 0.4-1.3 0.9-1.6-0.1-0.3 1.5-1.4 1.7-1 1.8 0.1-0.2 3.3 0.4 1.5 1.6 1.6 1.7 0.5 1.1-1.1 1.5-0.4 1.6-1.3 1.4-0.3 0.8 0.6 3.4-0.3 0.3-0.3 0.2-1 1.1-0.7 1-1.2-0.2-0.8 0.2-0.2 1.3-0.4 2.2-2 1.3-2.8 0.1-0.9 1.3-1.3 1.2-0.3z m-16.7 30.7l2.7-2.4 0.4-2.1-0.7-1.9-2.3-0.6-1.8 0-1 1.3 0 1.6 0.6 3.3 2.1 0.8z M656.3 723.2l0.2-2 0-1.3-1.2-0.7-1.1-0.9 0.7-3.3 1.9-1.3 3-1.5 2.8-1.6-0.2-1.7 0.3-1.4 1.7 0.5 0.8-2 1.1-2-0.5-2-2.6-2-1.5-3.7 2.9-1.9 0.6-1.4 0.2-0.6 1.6 0.5 1.4 0.9 2.3 0.2 1.5 1.4 1.1-0.2 1-0.8 1.7 0.1 1.3 0.6 0.1 0.6-0.1 0.6 0.7 0.7 0.9-0.5 0.5-1.9 0.5-0.6 1.8-0.1 1.5 0.7 0.7-1.2 0.8-0.3-0.1 0.6 0.9 1.3 0.1 0.9 0.1 5.6 0.2 1.7 1 0.9-0.3 1.8-1.4 1.7-1.1 0.1-1.8 1.5-1.6 0-1.1-0.7-0.6 0.1-0.1 0.3 0.5 0.9-0.2 0.6-1.1 0.2-2.2 2.7-1.8 2.1-0.1 0.2-1.2 0.5-1.6-0.2-1.4 1.8-1.4 0.3-0.4 1.2 0.3 2.9-0.5 0.8-2.1 0.9-0.4 1-0.8 0.7-1.4 0.2-1.6-0.6-0.7 1.1-1.4-0.7-1 0.2-0.5-1.8-1.6-0.7z M724.1 699.2l0.7 0.6-0.2 1 0.2 0.8-0.4 1-0.9 0.6-0.3 0.8 0.3 1.7-0.3 1.9 0.3 1.1-0.1 0.3-1.8 0.4-0.7 0.9-1.5-0.2-1.6 0.9-0.1 0.9 1 3.7-0.4 0.7-1 0.8-0.4 1.1 0.4 1.3 0 1.6 1.8 2.1 0 3.1 0.6 2.1 0 1.6 1.8 1.4-0.6 1.2-0.9 0.3-1.8-0.1-1.7 1-1.5 1.4 0.1 0.3-0.9 1.6-0.4 1.3-1.5 0.5-1.1 1.4 0.1 0.8-0.2 0.2-1 0.3-2.7-0.1-0.4 0.3-0.1 1 0.6 1.5-0.2 0.6-2.3 1.6-0.7 0-0.4-0.6-0.7 0.7-0.8-0.1-0.3-1.6-1.7-0.7-0.9-0.8 1.3-2.5 2.1-1.1 0.6-2 1.2-1-0.8-1.5-1.1-0.8-4.2-0.4-0.7-0.4-0.9-1.2-1.6 0-0.5-0.6-1.1-0.1-0.2-1.2-0.6-1.1 0-1.5 0.8-0.1 0.3-0.3 0.3-1.3-0.1-1.2 2.6-1.6 0.5-1.4-0.1-1.7-0.7-0.8-0.3-0.7-0.3-2.3 0.2-1.5-1.3-2.2 0-1.8-0.2-0.6-1-1.1-1.5-1-3.5-1.5-1-1.5-1.1 0.5 0.3-1.8-1-0.9-0.2-1.7-0.1-5.6-0.1-0.9-0.9-1.3 0.1-0.6 0.6-0.2 1.1-1.9-0.5-0.7-0.9-0.5-0.1-0.5 0.2-0.6 1.2-1.3 0.2-2 0.7-2 1.5-0.1 0.6-0.4 0.4-1.6 0.6-0.9 1.3 0 2.5 1.3 1 1.5 0.1 1.5 0.3 0.7 2.6 2.2-0.3 1.5 0.2 0.9 1.5 0.5 0.5 1.3 0.7 0 1.4 0.9 0 0.6-0.4 0.7 0.2 0.6 2.7 1.1 0.5 0.6 0 0.3-1.3 0.9-0.2 0.5 0.2 0.2 1 0.3 0.8-0.2 1.9 1.2 3.4-1.4 1.2-1.3 1.8-0.1 0.5 0.3 0.1 1.1 1 0.6 1.3 0.1 0.5-0.3 0.5-0.9 1.1-0.3 0.5 0.3-0.3 1.1 1 0.1 0.9 0.6 3.1-0.2z m-12 35.2l0.5-0.8 0.7-1.5 0.4-1.6-0.2-1.4-0.9-1-1.5-0.9-1.5-0.3-0.8 0.6-0.9 1.3-0.8 1.2-0.3 1.7 2.4 2.3 1.7 0.3 1.2 0.1z M726.8 692.5l0.2 1.8-0.3 0.8-1.1 0.6 0.4 1-1.4 1.5-0.5 1-3.1 0.2-0.9-0.6-1-0.1 0.3-1.1-0.5-0.3-1.1 0.3-0.5 0.9-0.5 0.3-1.3-0.1-1-0.6-0.1-1.1-0.5-0.3 0-4.6-0.6-2.1 0-2.7 1.7-1.9 2.1-0.7 3.1 0.7 0.8 2.8 2.9 2.6 2.9 1.7z M713.9 696.7l-1.8 0.1-1.2 1.3-3.4 1.4-1.9-1.2-0.8 0.2-1-0.3-0.2-0.2 0.2-0.5 1.3-0.9 0-0.3-0.5-0.6-2.7-1.1-0.2-0.6 0.4-0.7 0-0.6-1.4-0.9-0.7 0-0.5-1.3-1.5-0.5-0.2-0.9 0.3-1.5-2.6-2.2-0.3-0.7-0.1-1.5-1-1.5 10.6 1.5 1.5 2.2 2.2 0.2 2.2-0.2 0.8 3 0.9 1.6 1 0 0.6 2.1 0 4.6z M674.1 715.4l1.8-2.1 0.6 2.3 1 1.4 1 1.1 1.2 2.1 1.2 2.8 0.4 1.8-0.3 1.3-0.7 0.6-1.5 0.2-1.6-0.5-1.1-1.5-0.5-1.8-0.5-3-0.3-2.3-0.3-1.5-0.4-0.9z M670.3 741.7l-0.7 1.4-1.9 4.9-0.8 1.9-0.8 1.6-0.5 1.1-0.6 0-1.1-0.8-2.2-2.2-3.2-3.2-3-2.7-1.1-1.6 0.8-1.3 2.7-0.7 2.5-1.3 2.9-1 2.6-1.5 1-0.3 1.4 1.1 0.3 1-0.5 0.7 0.1 0.2 2.1 2.7z M666.9 736l-0.2-0.2 1.1-1.1 0.6-3.6-0.7 0-2.5 1.3-0.7-1.4-0.1-0.9 0.4-1.2 1.1-1.8 1.1-1.1 0.9 0 0.3-0.5 0.3-0.9-0.1-1-0.3-0.6-0.3-0.1 0.5-0.8-0.3-2.9 0.4-1.2 1.4-0.3 1.4-1.8 1.6 0.2 1.2-0.5 0.1-0.2 0.4 0.9 0.3 1.5 0.3 2.3 0.5 3 0.5 1.8 1.1 1.5 1.6 0.5 1.5-0.2 0.7-0.6 0.3-1.3-0.4-1.8-1.2-2.8-1.2-2.1-1-1.1-1-1.4-0.6-2.3 2.2-2.7 1.1-0.2 0.2-0.6-0.5-0.9 0.1-0.3 0.6-0.1 1.1 0.7 1.6 0 1.8-1.5 1.1-0.1 1.4-1.7 1.1-0.5 1 1.5 3.5 1.5 1.5 1 1 1.1 0.2 0.6 0 1.8 1.3 2.2-0.2 1.5 0.3 2.3 0.3 0.7 0.7 0.8 0.1 1.7-0.5 1.4-2.6 1.6 0.1 1.2-0.3 1.3-0.3 0.3-0.8 0.1 0 1.5 0.6 1.1 0.2 1.2 1.1 0.1 0.5 0.6 1.6 0 0.9 1.2 0.7 0.4 4.2 0.4 1.1 0.8 0.8 1.5-1.2 1-0.6 2-2.1 1.1-1.3 2.5 0.9 0.8 1.7 0.7 0.3 1.6 0.8 0.1 0.7-0.7 0.4 0.6 0.7 0 0.2 0.7-1 1.6-1.4 1-0.1 0.3 0.4 1-0.5 1.4 0 1.5-0.4 0.6-1 0.4-4.2-0.3-1.1 0.3-0.5-0.9-1.2-0.3-0.8 0.2-1.1 1-0.3-0.1-0.7-0.7-0.2-1.5-0.7-0.9-0.1-2.5-1.7-1.2-0.3 0-0.3 0.5 0 1.2-0.3 0.4-3.4 1.7-1.2-0.1-0.7 0.7-1.5-2-1.5 0.3-0.4 0.4-0.2 0.9-1.8 1-0.2 0.8-0.7 0.8 1.2 0.9 0.8 1.6 1.1-0.1 0.4 0.3-0.4 1.1 0 1.1-2 1.1 0.9 1.8 0.2 4.2-0.8 0.1-2.3-1-1.9-0.1-1.2-0.6 0.1-0.8-0.7-1.6 0-0.7 0.7-1.6 1.4-1 0.1-1.2-0.7-1.1 0.7-1.1-0.8-1.2-1.9-1-0.1-0.6 0.4-0.8 1.7 0.4 1.4-0.7 0.5-1.8-0.2-1.1 0.1-0.6-0.1-0.8-0.6-0.6-2.3-0.3-0.6-0.5-0.2-1.1 0.3-1.6-0.1-0.9-0.9-1.1-2.1-2.7-0.1-0.2 0.5-0.7-0.3-1-1.4-1.1z M787 844.5l0.1 0.8-0.6 2.5-1.2 1-0.5 1.3-1.1 1-0.1 1.7-1.2 0.4-0.7-0.5-0.2-0.4-1.3 0.4-0.2-2.2-0.2-0.1-1.5-3.7-0.8-1.1-1-0.7-0.8-1.4-0.1-0.2 0-0.1 0.1 0 0-0.1 0-0.1 0.1-0.1 0.1 0 0.1-0.1 0.1 0 2.2 0.2 0.9 0.6 0.2 0 0.1-0.1 0.1-0.1 0.3-0.5 0.3-0.1 0.7 0.2 0.1 0 0.2-0.1 0-0.1 0.1-0.1 0-0.1-0.1-0.1-0.8-0.9 0.5-0.1 0.3 0 0.7 0.7 0.2 0.4 0.1 0.1 0.1 0 0.1 0 0.3-0.2 0.3-0.5 0.6 0.8 0.7 0.6 1.3 0.1 1.4 1z M655.5 773.7l1.1 0.6 0.3 0.4 0.1 0.8 0.5 0.3 2-0.3 0.4-1.7 1-0.7 1.5 1 0.9 0 0.3-0.8-0.3-1 0.2-0.5 2.8-0.5 0.5-0.5 0.1-0.7 0.3-0.3 3.3-0.1-0.3-0.4-1.1-2.6 0.5-0.9 1.6 0.3 0.9-1 1.2 0.6 1.9 0.1 2.3 1 0.8-0.1 1.6 0.1 1.7-1.1 1.2 1.1 0.5-0.9 0.8-0.2 0.4 0.9 0.7-0.2 1.1 0.7 0 0.6-0.9 1.3 0.3 1.1 0.6 0.1 1.3-0.7 1.4 0.1 1.2-0.6 2.6 0.8 0.1 0.5-0.5 1.1-1.1 1.3 0.1 0.5 1.1 1.2 0.1 1-0.9 0.8-0.7 1.9-1.7 0.7-0.1 0.5 0.9 2.2 0 1.5-1 1.2-0.4 1.4-0.6 0.9 0.7 0.4 0.7 1.2 1.1 0.8 0.3-0.8 0.4-0.4 1.7 1 0.5-0.5 0.8 0.7 1.2 0.3 0.2 1 0.9 0.3 0.3 0.5-1 0.5-1.7 2.3-1.3-0.3-1 0.8 0 0.3 0.7 0.4 1 1.4 0.1 1.2-0.3 0.9-0.6 0-1.6-1.6-1.2-0.2-0.7 0.3-1.1-0.2-1.3 0.3-2.8 2-2-0.6-1.6 0-1.1 0.9-0.6-0.8 1.3-2.7-2.3 0.1-0.3 0.5-0.3 2 0.8 0.9-0.7 0.6-1.5-0.2-1.3 2-0.8 0.1-2.6-0.8-0.5-1.5-1.1-1.7-0.5 0.1 0.1-1.1 0-1.9 0.1-1.8 0-1.3-0.1-1-0.5-1.1-0.7-0.4-0.8-0.3-0.6-0.9-0.2-1.1 0-1.7 0.2-2-0.5-1.1-1.1-0.3-0.8-0.5-0.2-0.5 0.3-1 0.3-0.7-1.2-0.5-0.7 0-0.6 0.5-0.5 0.6-0.7 0.6-1.1 0.1-1.4 0-1.2 0-0.6-0.8 0.2-1.1 0-0.8-0.8-1.1-0.5-2.4 0.1-0.7z M701.8 800.3l0-0.4 0.8-0.9 1.1-2-0.4-0.3-1.7 0.3-0.8-0.3-1.6-2.6-0.4-1.5-1-0.3-0.9-1.3-0.3-0.5-0.9-0.3-0.2-1-1.2-0.3-0.8-0.7-0.5 0.5-1.7-1-0.4 0.4-0.3 0.8-1.1-0.8-0.7-1.2-0.7-0.4 0.6-0.9 0.4-1.4 1-1.2 0-1.5-0.9-2.2 0.1-0.5 1.7-0.7 0.7-1.9 0.9-0.8-0.1-1-1.1-1.2-0.1-0.5 1.1-1.3 0.5-1.1-0.1-0.5 0.4 0.2 0.6 0.3 0.4 1 0.8 0.9 1.8 1.1 0.3-0.8 1.8-0.6 1.5 1 0.5-0.5 1.5-0.1 1.8-0.9 0.5-0.9 1.3 0.1 1.2 1.3 1.2-0.9 2.3 0.1 1.4-1.3-0.3-3.6-0.2-0.4-0.6-0.2-7.7-0.5-1.9 1.5-1-1.2-2.8-4.4 0.4-1.1-0.9-1.8 0-0.9-0.9-1.2-0.3-1 1.1-0.3 4.2 0.3 1-0.4 0.4-0.6 0-1.5 0.5-1.4-0.4-1 0.1-0.3 1.4-1 1-1.6 2.1 2.7-0.1 0.9-1 0.6 0.7 1.6-0.1 1.6 1.3 0.5 1.1 1.4 3.6 1.6 0.6 0.7 0.4 1 4.8 2.6 2.5 4.1 1.3 0.8 1.2 2.6 0.9 1.7 0.1 0.9-0.7 0.7-2.5 0.9-0.7 0.6 0.3 0.6 1.6 0.4 0.3 0.4-1.1 1.4 0.8 0.8 0 1.7-2.7 1.7 0 0.5 1 1.2-0.2 0.8-2.5 1.1-0.7 0.7-0.2 0.7-0.6 0.8-0.3 1.3-1.6 1.3 1.1 1-0.3 0.7-1 0.3-1.3-1.2-0.9-0.1-0.5 0.1 0 1.1-0.2 0.1-1.4 0.2-0.2 0.9-1 1.2 0 1.6-0.6 3.2-0.4 0.8-1.3 0.2-0.2 1.2-1.7 0.2-0.3 0.8-0.5 0.1-2.3-2.2z M700.3 823.4l1.6 0.4 0.3-0.5-0.2-0.5-1.3-1.3-0.2-2.1-0.6-2.3-0.8-1 1.4-1.6 0.2-4.4 0.8-2.1 1-0.9-0.4-1.2 1.5-1.6 0.1-0.6-0.3-0.5-1.8-1 0.2-1.9 2.3 2.2 0.5-0.1 0.3-0.8 1.7-0.2 0.2-1.2 1.3-0.2 0.4-0.8 0.6-3.2 0-1.6 1-1.2 0.2-0.9 1.4-0.2 0.2-0.1 0-1.1 0.5-0.1 0.9 0.1 1.3 1.2 1-0.3 0.3-0.7-1.1-1 1.6-1.3 0.3-1.3 0.6-0.8 3.9 5-0.3 0.5-1.4 0.2-1.5 0.8 0.6 0.4-0.1 2.5 0.4 0.7 1 3.8 0.5 0.3 1-0.3 2.3 0.1 1.1-0.7 1.1-0.2 0.9-1.2 0.5-0.2 2.3 0.9 0.3 0.3-1.1 1.9-0.3 1.2 0.4 0.6 1.2 0.1 0 0.2-1.3 1.6-0.3 1.6 0.2 0.8 0.7 0.7 0 1.2 0.7 1.4 0 0.8-1 0.7-2.2-1-0.4 0.3-0.2 0.5 0.7 1 0.3 2.6 1.3 0.5 0.7 1.6 1.2 0.6 1-0.7 1.3 0.3 1.2-0.5 2.5 1.1 1.3 1.9 0.3 1.2-0.3 1.2 0.4 1.2-0.1 0.3-1.7-0.4-0.4 0.2-0.2 1.4-0.7 0.3 0.5 0.7-0.6 1.2 0.5 1.4 0.7-0.1 0.3 0.4 0 0.5-0.8 0.7-0.2 0.8 2.1 1.7 0.2 1.5 0.2 0.7 0.2 0.4 0.1 0.4-0.4 0.8-0.3 0.5-0.9 1.1-1.1 0.5-1.6 1.1-1.1 0.1-0.7-0.4-1.8-1.8-0.8-0.3-1-0.2-1.1-0.4-0.9-0.6-0.7-0.9-0.4-1.2-1.8 0.6-0.9-0.1-1.1-0.7-1.7 0.1-1.2-1.3-0.8-0.3-0.7 0.2-0.8 1-1.3-0.6-1 0.7-1.4-0.3-1.5 0.5-1.7-1-2.3-0.3-1.5 0.3-0.4 0.4-0.4 1.8-0.9-0.2-2-3.7-1.1 0.1-0.3-0.4-0.1-2 0.8-0.9 0.3-1.5-1.4-1.4-0.1-1.5 0.1-0.7z M650.3 682.1l1.8-1.5 0.4-1.5 0.6-0.9-0.2-1.2 0.4-1.9 0.5-0.2 2-0.4 0.5 0.9 0.3 0 1.3-1.4 0.6 0.2 0.8 0.9 1.9 3.5 0.4 1.4 0.4 1.8 0.8 4.1-1.8 0-0.7 1.1-1.3 1-0.8-1.1-0.8-0.7-0.2-1.1-2.1 0-1.2-0.6-0.7 0.7-2.9-3.1z M684.7 693.1l-0.8 0.3-0.7 1.2-1.5-0.7-1.8 0.1-0.5 0.6-0.5 1.9-0.9 0.5-0.7-0.7 0.1-0.6-0.1-0.6-1.3-0.6-1.7-0.1-1 0.8-0.3-2 1.5-2.4 0.4-2.9 2.2 0.7 2.6 1.5 3.2 0 2.1-0.3 0.9 0.5 0.5 0.7-1.1 1.9-0.6 0.2z M661.7 696.3l-1.1 0.8-1.1 0.6-0.7 0-0.5-0.2-0.5-0.8-0.7-1-0.3-0.2-0.8-0.1-1.5-1.2-0.9-1.7 1.5-1 0.2-0.8-0.8-0.7 0-1-0.4-0.6 0.2-0.8 1.2 0 1.1 0.8 2.4-0.4 1.3-1 0.7-1.1 1.8 0 1.8 3.4 0.1 1-0.8 1.4 0.3 0.2 1.2 0.5-0.2 0.6-0.6 1.4-2.9 1.9z M730.9 847.8l-0.9-0.5-0.5-0.9-0.8-0.2-1.6 0.4 0.1 1-0.5 0.2-5.8-1.1-7.3-0.1-1.7 1.4 0.4 0.9-0.2 0.4-2.6 0.2 0.1-0.9-0.5-0.8-0.1-0.8-1.6-0.9-1.4-2.6 0.4-0.6 1.5-0.4 0-0.7-0.3-1.2-1-0.8-1.3-2.1-0.1-1-0.2-1.1 0.4-1.8 0.4-0.4 1.5-0.3 2.3 0.3 1.7 1 1.5-0.5 1.4 0.3 1-0.7 1.3 0.6 0.8-1 0.7-0.2 0.8 0.3 1.2 1.3 1.7-0.1 1.1 0.7 0.9 0.1 1.8-0.6 0.4 1.2 0.7 0.9 0.9 0.6 1.1 0.4-0.2 4.2 1.4 1.6 0.8 2.1 0.3 2.2z M739.2 848.2l-1.5-0.1-1.6-0.7-2.2 0.2-1.4-0.3-1.6 0.5-0.3-2.2-0.8-2.1 1.3 0 2-0.8 0.9-2.4 1.6-1.1 1.1-0.5 0.9-1.1 0.3-0.5 0.4-0.8-0.1-0.4-0.2-0.4-0.2-0.7-0.2-1.5 0.3-0.2 0.6 0.3 1 0.3 0.8 2.8 0.1 2.7 0.8 2.5-0.1 2.8-1.3 2.1-0.6 1.6z M743.3 849.6l-1.5-0.6-1-0.7-1.6-0.1 0.6-1.6 1.3-2.1 0.1-2.8-0.8-2.5 2.5 0.4 2.9 0.8 1.4 1.7 0.2 2-1.7 0.9 0.8 1.9-1.1 0.2-2.1 2.5z M739.5 833.7l3.4-1.1 0.7 0.1 0.8-0.5 1.1-0.1 1.1 0.3 0.5 0.8-0.2 1.5-0.5 0.9-0.1 0.8 1.1 0.9 0.8 0.2 1.2-0.1 1.5-0.1 0.6 0.5 0.6 0.9 0.1 2.3-0.7 1.4-0.4 1.7-0.9 1.2-1.8 0.4-1.9 1.2-0.8-1.9 1.7-0.9-0.2-2-1.4-1.7-2.9-0.8-2.5-0.4-0.1-2.7-0.8-2.8z M749.4 837.4l-0.3-0.8-0.3-1.2 0.2-0.5 1.3-0.3 1.5 0.8 0.2-0.5 0.6 0 0.3 0.3 0.2 1.4 1.6-0.2 0.2 0.5-0.1 0.9 0.4 0.9-0.4 1.9 0.1 0.9-0.6 0.4-2.1-0.9-0.1-2.3-0.6-0.9-0.6-0.5-1.5 0.1z M728.6 837.7l1 0.2 0.8 0.3 1.8 1.8 0.7 0.4 1.1-0.1-0.9 2.4-2 0.8-1.3 0-1.4-1.6 0.2-4.2z M781.7 852.7l0.1 1.7 0.4 1.8-0.9 2.5 0.7 2.1-0.2 1 0.3 2.4-1.9 0-1-0.1-2.5 0.1-1.1-0.4-2 0.5-0.8-0.3-0.2-1-1.9-0.7-5.7 3.3-2.3 0.1-3.2 1.4-2.6 0.1-1.3 0.7-0.8-0.2-1 0.7-2.8 0.2-1.2-0.6-1.7 0.9-1.1 0.1-2.1-0.5-1-0.8 0.4-1.1-0.1-0.6-1.5-0.9-0.6-1.7-1.5-0.4 0-2.3-0.8-1.6 0.6-1.6 0.5-0.9 0.8-0.1 2.4 0.5 0.8-0.9 0.3-1.9-0.2-1.7-1.7-2.9 2.1-2.5 1.1-0.2 1.9-1.2 1.8-0.4 0.9-1.2 0.4-1.7 0.7-1.4 2.1 0.9 0.6-0.4-0.1-0.9 0.4-1.9 0.7-0.1 1.1 1.4 1.5 0.4 0.1 1.2 0.4 0.5 1.4 0.4 0.8 0.9 0.5 0.1 1.1 0.9 0 0.1 0.7 0 1.1 0.5 0.2 0.6 0.4 1-0.8 1.8 0.2 1.7 0.9-0.4 1.1-2.4 1.2-0.9 1.2 1.5-0.1 1.9 1.5-0.9 0.4 0.1 0.7 1.4 0.6 1.3 1.1 1 1.2-0.2 0.8-1.4 0.9-0.4 0.9 0.1 0.9-1.2 1.3 0.1 0.6 0.7 0.2 0.1 0.2 2.2 1.3-0.4 0.2 0.4z M661.9 672.9l-0.4-0.6-0.7-1.5 0-1.7-0.1-1.6 0.1-1.9 0.1-1.4 0.6-1.2 0.8-0.7 1.2-0.6 1.1-0.3 1.3 0.6 0.9 2.2 0.9 2.4 0.8 2.6 0.3 0.8-0.2 0.2 0 1-0.2 0.6-0.5 0.5-2.7-0.7-1.4 1.6-1.9-0.3z M697.2 824.9l1.2-0.3 1.1-1.4 0.8 0.2-0.1 0.7 0.1 1.5 1.4 1.4-0.3 1.5-0.8 0.9 0.1 2 0.3 0.4 1.1-0.1 2 3.7 0.9 0.2 0.2 1.1-1 0.9-1.6 0.8-1.7 0.8-1.2 0.7-1.6 0-1.4-0.2-1.2-0.5-1.1-0.8-1.2-2.1-0.2-1.2 0-1.7 0.4-1.5 0.6-1.1 1.2-1.8 1-1.8 0.7-1 0.3-1.3z M671.9 850l-2.6 1.9-2.8 0.1-0.8 1.2-1.7 0.7-1.4-0.2-0.2-1-2.2-0.8-1.3 0.3-1.1 1-1.4 0-0.6-0.4-0.2-0.8-1.1-0.3-0.3-0.7-2.1-0.6 0-0.5-0.1-1.2 0.3-0.8 0.3 0 0.5 0.6 0.5 0.3 0.6 0 0.6-0.2 0.4-0.4 0.5-1.4 0.1-1 1.3 0.1 2.1 0 1-1 0.6-1.1 0.2-0.8 0.9 1 1.4 0.1 1.5 0 2.1 0.1 3.4-0.9 2.1-0.4 0.1 1.6-0.4 1 0.3 1-2.5 1.9 0.3 0.3 1.4 0.2 0.3 1.1z M672.8 831.1l1.5-0.2 2.2-1.4 2 0.7 2.3-2.4 2-3.3 3.3 1.4 0.9 0.9 0.9-0.5 0-1.5 0.4-0.2 2.1 0.9 1 0.8 0.2-0.4-0.8-1.2-0.1-0.8 1.1-0.1 1.5 1.3 0.8-1 0.2-1.7 0.3-0.4 0.5 0.2 0.8 2.6 0.9 0.2 0.4-0.1-0.3 1.3-0.7 1-1 1.8-1.2 1.8-0.6 1.1-0.4 1.5 0 1.7 0.2 1.2 1.2 2.1 1.1 0.8 1.2 0.5 1.4 0.2 1.6 0 1.2-0.7 1.7-0.8 1.6-0.8 1-0.9 0.1 1 1.3 2.1 1 0.8 0.3 1.2 0 0.7-1.5 0.4-0.4 0.6 1.4 2.6 1.6 0.9 0.1 0.8 0.5 0.8-0.1 0.9-1.8 0.2 0.3 2-0.9 2 0.5 1.8-0.5 0.5-1.9-0.9-1 0.4-0.6 1-0.7 0.3-2.4-0.4-0.8 0.3 0.5 2.3 1.5 2.5 0.3 1.6-0.2 1.8 1.1 0.7 0.3 0.6-0.4 1.7 0.5 2.4-0.1 1.5 0.9 0.6 0.3 0.6-0.9 0.9-0.3 0.8 1.1 1.3-0.6 1.3-2 0.7-0.8-0.3-1.3-1.5-1.9-0.2-1.3-0.7-2-0.4-1.3-1.3-0.4 0.2-0.5 0.9-0.5-0.1 0.1-0.6-0.2-0.1-2.6 0.5-1.2 0.8-0.9-0.3-1.2 1.1-1.8 0.4-1.2 0.9-1.8 0.3-0.7-0.7-0.5-1.2-0.9-0.3-2.4-4.3-1.4-1.7-0.7-0.4-1.2 0-1.1-0.7-1.6-0.2-1.2-0.9-0.2-0.7 0.2-1 3.8-6.8 0.7-2.6 0.7-1.5-0.3-1.6-1.3-0.8-0.2-0.8 0.4-0.7-0.6-0.8-0.5 0.1-0.3-1.1-1.4-0.2-0.3-0.3 2.5-1.9-0.3-1 0.4-1-0.1-1.6-0.4-3 0.3-1.1-0.2-0.5-1.2 0.1-0.4-0.3 0.3-0.7 1.6-1.3 1.6-0.6-0.8-2.2 0.1-1.5-0.5-0.7z M684 655.5l1.4-1.8 1.1 0 2.7 3.8 2 0.3 1.9 1.5 2.2 2.2 1.6 2.6 0.8 2.8-3.9 2.6-2.5 0.6-6.9 1.9-0.5-0.6 0.1-1.3-0.5-0.9-0.2-0.8-0.8 0.1-0.8 0.7-0.8 0.2-0.9-0.9-0.7 0.1-0.5-1-0.4-0.2 0.1-0.6-0.5-1.6 1.8-2.4 0.1-2.9 1.1-1.5 2.3-1.1 0.5-0.7 0.2-1.1z M694.1 681.7l-2.5-1.3-1.3 0-1.9-2.8-1.8-2-0.5-1.7-1.4-0.3-0.3-1.6 6.9-1.9 2.5-0.6 3.9-2.6-0.8-2.8 1.7-1.2 3.4-0.8 3.1 4.9-0.3 3.3-1.5 0.9 0.3 3.4 0.6 2.5-0.7 0.9-2.7 1-1.9-0.3-2.7 1.5-1.6 0.2-0.5 1.3z M724.3 732l-1.3-0.5-0.6-1-0.8-1.9 0.1-2.2 0.5-1.9 1.1-1.8 1.5-0.2 1.2 1 0.9 1.6 0.6 1.7 0 1.6-1.8 2.1-1.4 1.5z M726.6 755.8l-2.1-0.8-0.6-3.3 0-1.6 1-1.3 1.8 0 2.3 0.6 0.7 1.9-0.4 2.1-2.7 2.4z M712.1 734.4l-1.2-0.1-1.7-0.3-2.4-2.3 0.3-1.7 0.8-1.2 0.9-1.3 0.8-0.6 1.5 0.3 1.5 0.9 0.9 1 0.2 1.4-0.4 1.6-0.7 1.5-0.5 0.8z M698.2 651.1l1.6 0.1 2.5-0.5 2.7 0.5 1.4-0.3 0.2-0.3 0.1-1.3 0.6-0.8 0.8 0.7 0.5 1.3 2.4 0.3 1.1-0.3 0.4-0.5 0-0.6 1.7-1.2 2.5-0.5 1.9 1.6 0.1 0.8-0.8 1.6 0.2 1.5-0.1 1.2-1.8 0.2 0.1 0.5 0.8 0.5 0.9 2.1-0.1 2.3 0.3 0.8 0.6 0.8 0.1 0.9-0.8 0.7-0.1 1-1.2 1.6-3.9 1.9-2.4-1-2.9-0.4-2.5 0.7-3.1-4.9 1-2-2.3-0.3 0-4.8-2.5-3.9z M686.5 653.7l0.6-0.5 0.1-1.7-0.5-1.6 1.1-1.1-0.2-1.5 0.5-0.6 2 0.2 1.2-0.6 0.2 1.8 1.2 0.7 0.5-0.7 1.8-0.2 0.9 0.6 0.7 1.3 0.9 0.2 0.7 1.1 2.5 3.9 0 4.8 2.3 0.3-1 2-3.4 0.8-1.7 1.2-1.6-2.6-2.2-2.2-1.9-1.5-2-0.3-2.7-3.8z M718 664.2l0.8 0 1.4 1.6 1.8 0.2 0.5 0.4-0.1 0.8-0.7 0.4-0.8 1.8-0.1 0.7 0 2.2 0.8 1.1-0.6 1.9-3 1.7-1.8-0.4-0.4-1-0.7-0.4-2.6 0.3-1.1-0.5-1.8 0.7-0.8-0.3-1.5 0.2-0.3-0.1-0.3-0.7-0.6-0.2-1.1 0.7-0.8 1.8-0.6-2.5-0.3-3.4 1.5-0.9 0.3-3.3 2.5-0.7 2.9 0.4 2.4 1 3.9-1.9 1.2-1.6z M716.2 676.6l0.9 3.1 1.4 2.2-1.4 2.8-2.1 0.7-1.7 1.9 0 2.7-1 0-0.9-1.6-0.8-3-2.2 0.2-2.2-0.2-1.5-2.2-10.6-1.5 0.5-1.3 1.6-0.2 2.7-1.5 1.9 0.3 2.7-1 0.7-0.9 0.8-1.8 1.1-0.7 0.6 0.2 0.3 0.7 0.3 0.1 1.5-0.2 0.8 0.3 1.8-0.7 1.1 0.5 2.6-0.3 0.7 0.4 0.4 1z M662.8 685.9l-0.8-4.1-0.4-1.8 3.2-1.3 3.3 1.6 1.7 0 1.4 2.3 0.3 2.6-1 1.5-2.2-0.5-1.9 0.5-1.8 2.6-1.8-3.4z M659.3 675.1l2.6-2.2 1.9 0.3 1.4-1.6 2.7 0.7 0.7 3.7 1.2 4.3-1.7 0-3.3-1.6-3.2 1.3-0.4-1.4-1.9-3.5z M670.7 694l-2.3-0.2-1.4-0.9-1.6-0.5-1.2-0.5-0.3-0.2 0.8-1.4-0.1-1 1.8-2.6 1.9-0.5 2.2 0.5 0.8 2-0.6 1.6-0.7 1.5 0.7 2.2z M673.3 695.2l-1.1 0.2-1.5-1.4-0.7-2.2 0.7-1.5 0.6-1.6-0.8-2 1-1.5-0.3-2.6 1.2-2 1.3-1.5 3.3 1.8-0.3 1.7-0.7 2.2-1.1 1.4 0 1.7-0.4 2.9-1.5 2.4 0.3 2z M690.3 680.4l-0.6 0.9-0.4 1.6-0.6 0.4-1.5 0.1-0.7 2-2.6-1.9-3.3-1.2-2.6 2-2 0.5 0.7-2.2 0.3-1.7 1.4-3.2 2.6-1.5 5.1-2.3 0.5 1.7 1.8 2 1.9 2.8z M673.4 674l0.3-0.5-0.1-2.1 0.4-1.2 0.9-0.8 3.5-2 0.4 0.2 0.5 1 0.7-0.1 0.9 0.9 0.8-0.2 0.8-0.7 0.8-0.1 0.2 0.8 0.5 0.9-0.1 1.3 0.5 0.6 0.3 1.6 1.4 0.3-5.1 2.3-2.6 1.5-1.4 3.2-3.3-1.8-0.1-2.9-0.2-2.2z M686.5 685.4l-0.2 2-1.2 1.3-0.2 0.6 0.1 0.5-2.1 0.3-3.2 0-2.6-1.5-2.2-0.7 0-1.7 1.1-1.4 2-0.5 2.6-2 3.3 1.2 2.6 1.9z M668.8 670l0.1-0.2 1.2 0.7 1.7-0.7 0.6 0.1 0.2 3.1 0.8 1 0.2 2.2 0.1 2.9-1.3 1.5-1.2 2-1.4-2.3-1.2-4.3-0.7-3.7 0.5-0.5 0.2-0.6 0-1 0.2-0.2z M702.4 772.3l-1.5 0.1-0.5 0.5-1.5-1-1.8 0.6-0.3 0.8-1.8-1.1-0.8-0.9-0.4-1-0.6-0.3 1.3-2.4 1.7-0.5 0.2-3.4-1-1.1-0.1-1.3 2.3-0.3 2.8 4.4 1 1.2 1.9-1.5-0.9 7.2z M703.3 765.1l7.7 0.5 0.6 0.2 0.2 0.4 0.3 3.6-1.4 1.3-2.3-0.1-1.2 0.9-1.2-1.3-1.3-0.1-0.5 0.9-1.8 0.9 0.9-7.2z M692.3 755l1.1-1 0.8-0.2 1.2 0.3 0.5 0.9 0.3 1 0.9 1.2 0 0.9 0.9 1.8-0.4 1.1-2.3 0.3 0.1 1.3 1 1.1-0.2 3.4-1.7 0.5-1.3 2.4-0.4-0.2-2.6-0.8-1.2 0.6-1.4-0.1-1.3 0.7-0.6-0.1-0.3-1.1 0.9-1.3 0-0.6-1.1-0.7-0.7 0.2-0.4-0.9 0.2-2.1 1.4 0.4 1.5-0.3 0.9-1.6-0.9-0.9 0.9-2.1 1.4-0.4 0.6-1.5 1.4-0.9 0.8-1.3z M690.1 757.2l-0.6 1.5-1.4 0.4-0.9 2.1 0.9 0.9-0.9 1.6-1.5 0.3-1.4-0.4-0.6-1.3-1.7 0.2-0.7-0.8 1.1-2.2-0.6-2.2 0-0.9 1.1-0.8 0.7 1.1 2.4-1 3.2 0.5 0.9 1z M678.3 766.7l-0.2-4.2-0.9-1.8 2-1.1 0-1.1 0.4-1.1 0.4-1.2 0.8-0.4 1 0.6 0 0.9 0.6 2.2-1.1 2.2 0.7 0.8 1.7-0.2 0.6 1.3-0.2 2.1-0.8 0.2-0.5 0.9-1.2-1.1-1.7 1.1-1.6-0.1z M683.1 751.8l1.2 0.1 3.4-1.7 0.3-0.4 0-1.2 0.3-0.5 0.3 0 1.7 1.2 0.1 2.5 0.7 0.9 0.2 1.5 0.7 0.7 0.3 0.1-0.8 1.3-1.4 0.9-0.9-1-3.2-0.5-2.4 1-0.7-1.1 1-1.4-0.8-2.4z M679.6 757.4l-0.4-0.3-1.1 0.1-0.8-1.6-1.2-0.9 0.7-0.8 0.2-0.8 1.8-1 0.2-0.9 0.4-0.4 1.5-0.3 1.5 2 0.7-0.7 0.8 2.4-1 1.4-1.1 0.8-1-0.6-0.8 0.4-0.4 1.2z">
  </path>
 </g>
</svg>
