<?xml version="1.0"?>

<svg baseprofile="tiny" fill="#6f9c76" height="1000" stroke="#ffffff" stroke-linecap="round" stroke-linejoin="round" stroke-width=".5" version="1.2" viewBox="0 0 1000 1000" width="1000" xmlns="http://www.w3.org/2000/svg">
 <g id="features">
  <path class="england" d="M640.7 710.8l0-0.2 0-0.2 0.2-0.2 1.7-1.1 0.2-0.3 0-0.3-0.1-0.7-0.2-0.5-0.2-0.3-1.6-1.7-3-2.5-0.4-0.1-1.8-0.4-0.8-0.4 0-1.3-0.5-0.9 1.3-1.5 2 1 2.4-0.3 1.3 0.6 0.5-0.3 0.3-0.7 0.1-0.2 0.8 0.7 1.3 0.6 1.5-0.1 0-0.1 0.1-0.4 0.1-0.3 0.4-0.2 0.4 0 0.7 0.3 0.3 0.1 0.8 0 0.7-0.2 1.9 0.6 1.8-0.4 3.2 0.2 2.7-1.4 0.7 0 1.1-0.6 1.1-0.8 1.5 3.7 2.6 2 0.5 2-1.1 2-0.8 2-1.7-0.5-0.3 1.4 0.2 1.7-2.8 1.6-3 1.5-1.9 1.3-0.7 3.3 1.1 0.9 1.2 0.7 0 1.3-0.2 2-4.9 1.5-1.9-1.2-1.8-0.2-0.3-0.2-0.2-0.2-0.4-0.8-1.1-1.3-0.3-0.5-0.1-0.4 0.1-0.3-0.1-0.3-0.3-1.3-0.3-1.1-1.2-2.8-0.3-0.3-2.3-2.5-0.2-0.4 0-0.1z" id="GBCHW" name="Cheshire West and Chester">
  </path>
  <path class="england" d="M651.4 724.7l4.9-1.5 1.6 0.7 0.5 1.8 1-0.2 1.4 0.7 0.7-1.1 1.6 0.6 1.4-0.2 0.8-0.7 0.4-1 2.1-0.9 0.3 0.1 0.3 0.6 0.1 1-0.3 0.9-0.3 0.5-0.9 0-1.1 1.1-1.1 1.8-0.4 1.2 0.1 0.9 0.7 1.4 2.5-1.3 0.7 0-0.6 3.6-1.1 1.1 0.2 0.2-1 0.3-2.6 1.5-2.9 1-2.5 1.3-2.7 0.7-0.8 1.3 1.1 1.6 3 2.7 3.2 3.2 2.2 2.2 1.1 0.8 0.6 0 0.5-1.1 0.8-1.6 0.8-1.9 1.9-4.9 0.7-1.4 0.9 1.1 0.1 0.9-0.3 1.6 0.2 1.1 0.6 0.5 2.3 0.3 0.6 0.6 0.1 0.8-0.1 0.6 0.2 1.1-0.5 1.8-1.4 0.7-1.7-0.4-0.4 0.8 0.1 0.6 1.9 1 0.8 1.2-0.7 1.1 0.7 1.1-0.1 1.2-1.4 1-0.7 1.6 0 0.7 0.7 1.6-0.1 0.8-0.9 1-1.6-0.3-0.5 0.9 1.1 2.6 0.3 0.4-3.3 0.1-0.3 0.3-0.1 0.7-0.5 0.5-2.8 0.5-0.2 0.5 0.3 1-0.3 0.8-0.9 0-1.5-1-1 0.7-0.4 1.7-2 0.3-0.5-0.3-0.1-0.8-0.3-0.4-1.1-0.6-0.6-0.3-0.6 0.5-0.4 1.8-1 0.2-2.3-1.6 0.8-1.3-0.2-0.8-2.3-0.1-0.3-1-0.7-1.1-1.7-0.8-1.5 1.2-1.5-0.4-0.1 0.5 0.5 0.9-1 0.4-0.8 0.9-1.1 0.3-5.3-0.4-0.4-0.3-1.2-1.4-1.7-1.2-1.2-1.1-1.6-1.1-0.1-0.2-0.2-0.2-0.1-0.2-0.1-0.4-0.1-0.4-0.1-0.6 0-0.3 0-0.3 0.1-0.3 0.5-0.9 0.3-0.4 0.2-0.1 2.2-0.9 1.2-0.8 0.5-0.2 3.6-0.3 0.3-0.2 0.5-1 1.2-1.1 0.3-0.5 0.3-0.3 0-0.3-0.1-0.3-0.1-0.3-1.2-1.4-0.2-0.1-0.3 0.1-0.2 0.1-0.9 0.9-1.3 0.7-0.2 0.2-0.1 0.2-0.3 0.5-0.1 0.2-0.2 0.2-0.3 0.1-0.3 0.1-0.5-0.1-0.2-0.1 0-0.2 0.2-0.5 0.1-0.2 0-0.3-0.1-0.3-0.1-0.2-0.4-0.7-0.1-0.5-0.1-0.4 0-0.4 0.1-0.3 0.1-0.3 0.2-0.1 1.3-0.8 0.4-0.4 0.3-0.4 0.1-0.3 0.1-0.3 0.1-1.1 0.1-0.4 0.1-0.3 0.2-0.2 0.9-0.5 0.2-0.2 0.1-0.4 0.2-0.7-0.1-1 0.1-0.5 0.1-0.3 0.3-0.7 0.2-0.7 0.1-0.3 0.2-0.2 0.2-0.1 0.3 0 0.9-0.1 0.3-0.2 0.3-0.3 0.3-0.6 0-0.2 0-0.2-0.8-0.4-0.3-0.2-0.2-0.3-0.5-0.9-0.3-0.2-1.1-0.4-1.3-0.1-0.3-0.2-0.2-0.3-0.3-0.6-0.2-0.2-0.2 0-1.4-0.2-0.8-0.3-0.5-0.6-0.6-1.7 0-0.4 0-0.5 0.1-0.2 0.3-0.5 0.2-0.2 0.6-0.6 0.3-0.4 0-0.3 0-0.3-0.2-0.4-0.1-0.3-0.1-0.7 0.1-0.3 0.2-0.3 0.5-0.2 0.3-0.2 0.3-0.3 0.4-0.8 0.2-0.5 0.3-0.3 0.6-0.4 0.2-0.1 0.2-0.1 0.2-0.1 2.4-1.8 0.5-0.2 0.8-0.1 0.6 0.1 0.2 0.2 0.8 0.9 0.2 0.2 0.2 0.1 0.3 0.1 0.4-0.1 1.9-0.5 0.6 0 0.5 0.1 0.3 0.2 2.5 2.6 0.2 0.1 0.5 0.1 0.4-0.1 0.9-0.7 0.5-0.2 0.6-0.2 0.3-0.1 0.2-0.3 0-0.3 0.1-1.3-0.1-0.3-0.1-0.2-0.3-0.8-0.1-0.6z" id="GBSHR" name="Shropshire">
  </path>
  <path class="england" d="M640.7 773l1.1-0.3 0.8-0.9 1-0.4-0.5-0.9 0.1-0.5 1.5 0.4 1.5-1.2 1.7 0.8 0.7 1.1 0.3 1 2.3 0.1 0.2 0.8-0.8 1.3 2.3 1.6 1-0.2 0.4-1.8 0.6-0.5 0.6 0.3-0.1 0.7 0.5 2.4 0.8 1.1 0 0.8-0.2 1.1 0.6 0.8 1.2 0 1.4 0 1.1-0.1 0.7-0.6 0.5-0.6 0.6-0.5 0.7 0 1.2 0.5-0.3 0.7-0.3 1 0.2 0.5 0.8 0.5 1.1 0.3 0.5 1.1-0.2 2 0 1.7 0.2 1.1 0.6 0.9 0.8 0.3 0.7 0.4 0.5 1.1 0.1 1 0 1.3-0.1 1.8 0 1.9-0.1 1.1-0.8 0.1-1.1 1.4-0.9 0.4-0.8-0.4-0.6-1.4-0.9-0.5-0.5 1.7 0.2 0.8-0.5 0.9-0.1 1.3 0.9 0.7 0.3 1.4 1 1.1 0.1 0.9-0.1 0.5-1.7 1.1-1.7 0.2-0.6 1.6-1.5-0.2-1.3 0.5-0.3 0.8-0.6-0.2-1 0.7-0.5-1.2-0.3 0-0.3 0.5-0.2 1.9-0.1 0-0.5 0.3-0.8-0.6-0.9-0.8-0.3-0.2-0.4 0-0.8 0-0.3-0.1-0.2-0.1-0.2-0.3-0.2-0.4-0.1-0.2-0.6-0.8-0.1-0.2-0.5-0.6-4.6-4.2-0.5 0.1-0.5 0.2-1.4 1-0.5 0.3-0.3 0-0.5 0-0.4-0.2-1-0.9-0.3-0.3-0.2-0.4 0-0.5-0.1-0.3-0.1-0.2-0.1-0.1-1.4-1.2-1-1.5 0-0.1-1.4-2.5-0.1-0.4 0-0.6 0-0.4 0-0.6-0.1-0.4-0.1-0.3-0.9-0.9-0.4-0.4-0.3-0.1-0.1-0.2 0-0.2 0.3-1.3 0.2-0.7 0.1-0.2 0.2-0.3 0.2-0.1 0-0.2 0-0.1-0.7-0.4-0.3-0.5-0.1-0.3 0.1-0.2 0.5-0.2 1.2-0.5 0.2-0.2 0.2-0.3 0.1-0.4-0.1-0.2-0.2-0.1-0.2 0.1-0.3 0-0.3-0.1-0.4-0.5 0-0.4 0-0.3 1.9-2.8 0.3-0.4 0.2-0.9 0.1-0.3 0.2-0.2 0.2-0.2 0.6-0.3 0.2-0.2 0.1-0.2 0.4-0.5 0.1-0.1 0.2-0.2 0.4-0.2 1.6 0 0.3-0.2 0.3-0.3 0-0.2-0.1-0.2-0.2-0.2-1.2-0.3-0.2-0.3-0.2-0.3-0.1-0.8 0-0.2 0.1-0.5 0.3-0.5 0.3-0.3 1-0.7 0.3-0.4 0.1-0.3-0.1-0.7z" id="GBHEF" name="Herefordshire">
  </path>
  <path class="england" d="M655.1 812.6l0.1 0 0.2-1.9 0.3-0.5 0.3 0 0.5 1.2 1-0.7 0.6 0.2 0.3-0.8 1.3-0.5 1.5 0.2 0.6-1.6 1.7-0.2 1.7-1.1 0.1-0.5-0.1-0.9-1-1.1-0.3-1.4-0.9-0.7 0.1-1.3 0.5-0.9-0.2-0.8 0.5-1.7 0.9 0.5 0.6 1.4 0.8 0.4 0.9-0.4 1.1-1.4 0.8-0.1 0.5-0.1 1.1 1.7 0.5 1.5 2.6 0.8 0.8-0.1 1.3-2 1.5 0.2 0.7-0.6-0.8-0.9 0.3-2 0.3-0.5 2.3-0.1-1.3 2.7 0.6 0.8 1.1-0.9 1.6 0 2 0.6 2.8-2 1.3-0.3 1.1 0.2 0.7-0.3 1.2 0.2 1.6 1.6 0.6 0 0.3-0.9-0.1-1.2-1-1.4-0.7-0.4 0-0.3 1-0.8 1.3 0.3 1.7-2.3 1-0.5 0.9 1.3 1 0.3 0.4 1.5 1.6 2.6 0.8 0.3 1.7-0.3 0.4 0.3-1.1 2-0.8 0.9 0 0.4-0.2 1.9 1.8 1 0.3 0.5-0.1 0.6-1.5 1.6 0.4 1.2-1 0.9-0.8 2.1-0.2 4.4-1.4 1.6 0.8 1 0.6 2.3 0.2 2.1 1.3 1.3 0.2 0.5-0.3 0.5-1.6-0.4-0.8-0.2-1.1 1.4-1.2 0.3-0.4 0.1-0.9-0.2-0.8-2.6-0.5-0.2-0.3 0.4-0.2 1.7-0.8 1-1.5-1.3-1.1 0.1 0.1 0.8 0.8 1.2-0.2 0.4-1-0.8-2.1-0.9-0.4 0.2 0 1.5-0.9 0.5-0.9-0.9-3.3-1.4-2 3.3-2.3 2.4-2-0.7-2.2 1.4-1.5 0.2-0.7-0.9 0-0.6 0.6-1.2-0.6-0.8-1 0 0.3 1.3-2-0.2-1 1.1-0.6 0-0.3-0.7 0.3-1.1 0.1-1.2-0.2-0.1-3-1-1.6 0.7-0.4-1.5-2.1-1-0.2 0 1.7-1.8 1.6-2.2 0.8-0.5 2-0.7 0.8-0.7 0.4-0.9-0.2-0.8-0.6-0.7-0.2 1.4-0.9 0.8-1.1 0.3-0.9 0.1-0.9 0.4-0.6 0.8-0.6 1-0.7 0.9-2.7 1.9-0.5 0.5-0.4 0.7-3.1 3.7-0.3-1.6 0-0.7-0.3-0.5-0.2-0.4 0-0.2 0.1-0.2 0.7-0.3 0.2-0.3 0-0.2-0.1-0.4-0.1-0.4-0.4-1.3-0.4-1.1-0.1-0.3 0.1-0.4 0.3-0.4 0.1-0.3 0.2-0.6 0-0.4-0.3-0.7-0.2-0.5 0-0.6 0.1-0.4 0.2-0.6 1-1.6 0.3-1.1-0.1 0z" id="GBGLS" name="Gloucestershire">
  </path>
  <path class="england" d="M653.4 547.1l1.1-1.8 0.8-0.7 0.6-0.2 0.3-0.3 0.2-0.4 0.1-0.6 0-0.3 0-0.2-0.1-0.2-0.1-0.3-0.1-0.3 0-0.6 0.1-0.4 0.2-0.2 0.6-0.5 2.6-3.2 4.1-3.8 0.5-0.2 1.2-0.3 0.7 0.2 0.2 0.1 0.5 0.3 0.1 0.3 0.3 0.1 0.4-0.1 1-0.6 0.3-0.4 0.3-0.4 0.2-0.8 0.2-0.4 0.3-0.6 0.3-0.3 1.4-0.6 0.4-0.6 0.7-0.5 1.3-0.3 0.5-0.2 1-0.7 0.6-0.7 0.5-0.6 0.2-0.4 0-0.4 0-0.3 0-0.3-0.1-0.2-0.2-0.2-1.1-1.6-0.1-0.3 0-0.2 0-0.3 0-0.1 0-0.1 0-0.3-0.1-0.2-0.4-1-0.6-1-0.8-1.4-0.8-2.1-0.1-0.6-0.1-0.3-0.1-0.3-0.1-0.2-0.5-0.6-0.2-0.2-0.1-0.3 0-0.3-0.1-0.3-0.2-0.2-0.7-0.4-0.2-0.2-0.1-0.3-0.1-0.3 0-0.3 0-0.5 0.2-0.2 0.3-0.2 0.5-0.1 1.9-0.1 0.7-0.1 0.4-0.2 0.4-0.4 2.5-3.9 0.3-0.6 0.2-0.6 0.2-0.4 0.2-0.2 0.4-0.3 0.5-0.6 0.3-0.2 0.7-0.3 0.2-0.2 1.2-1.3 0.2-0.4 0.1-0.4 0.2-1.3 0.1-0.6 0.3-0.3 0.2-0.2 2.1-0.8 0.7 1.2 6.1 8 0.7 2 0.5 1 1 0.7 0.3 0.6 0.2 0.6 0.2 0.3 0.4-0.2 0.3-0.4 0.2-0.4 0.2-0.2 0.5 0.1 0.6 0.3 0.6 0.7 0.4 1.2-0.9 0 0 0.5 0.5 0.4 1.7-0.5 1 0.1 3.2 2.3 0 0.6-0.3 0.5 0.1 0.7 0.3 0.6 0.5 0.5-0.6 0.5 0 0.6 0.4 0.3 0.9 0.8 0 0.6-0.4 0.7 0.2 0.4 0.5 0.3 0.3 0.3 0.2 1 0.2 5.6-0.1 0.8-0.2 1.3 0 0.5-0.1 0.7 0.3 1.8 1.2 2.1 0.1 1.4 0 0.4-0.1 0.4-0.2 0.4-0.2 0.3-0.2 0.6 0.1 0.6 0.2 0.5 0.1 0.5 0.3 1 0.6 0.9 1 1.2-0.3 1.1 0.2 0.5 0.5 0.4 0.3 0.8-0.2 0.9-0.3 0.7-0.2 0.7 0.2 0.8 0.8 1.3 0.2 0.6 0.2 1.7 0.4 1.8 0.2 0.5 0.1 0.1 0.6 0.3 0.2 0.2 0.1 0.2 0.1 0.5-0.6 0.2-1.2 1.5-0.9 0.1-2.2-0.3-1.2-0.8-3-0.6-1.8-0.3-0.4 0.5-0.1 0.8 0.9 0.6 0 0.6-0.8 0.7-1.5 0.4-1 2.1-0.7 0.4-0.1 1.1-1.2 0.5-0.3 0.4-1 3.5-1.4 0.8 0.1 0.6 1.3 0.7 0 0.8-1.2 1.6-0.9 2.1-1.8 1.2-0.5-0.1-0.3-0.8-3.4-1.6-4.1 2.8-2.3-0.5 0.1 0.6-0.2 0.6-0.9 0.6-0.4 0.9-0.7-0.2-0.8 0.5-0.5 1.4-0.4 0.3-2.9-1.1-1.5 0.7-2.7-2.2-1.7-3-0.6 0.2-0.9 1-3.2 2.2-1.6-0.2-1.4-1.2-0.3-1.1 0.3-0.8-0.1-1-1-1.2-0.3-0.8 1.1-0.8 0.5-1.9 0.8-0.5-0.7-1.2-0.4-1.7-1.2-0.7 1.1-1.6 0-1.6 0.4-0.5 3.6-2.2-0.6-1.6 0.2-0.6-0.2-0.5 0.5-0.6-1-0.6-1.9 0.5-0.4-0.7-1.5-1.1-0.5-1.7-2-0.7-0.6-0.9-1.1-3.5-0.4-0.4z" id="GBNBL" name="Northumberland">
  </path>
  <path class="england" d="M645.7 553.6l1.3-2 0.6-0.5 0.9-0.2 2-1 1.3-0.9 1-1 0.6-0.9 0.4 0.4 1.1 3.5 0.6 0.9 2 0.7 0.5 1.7 1.5 1.1 0.4 0.7 1.9-0.5 1 0.6-0.5 0.6 0.2 0.5-0.2 0.6 0.6 1.6-3.6 2.2-0.4 0.5 0 1.6-1.1 1.6 1.2 0.7 0.4 1.7 0.7 1.2-0.8 0.5-0.5 1.9-1.1 0.8 0.3 0.8 1 1.2 0.1 1-0.3 0.8 0.3 1.1 1.4 1.2 1.6 0.2 3.2-2.2 0.9-1 0.6-0.2 1.7 3 2.7 2.2-1 4.6-1.3 2.9 0.5 0.7 2.5 1.4 0.5 0.6 0 0.6-0.3 0.8-0.9 1 0.4 2 0.5 1.3 3.6 2.8 0.8 1.7 1.4 0.3 0.2 3.4 0.4 1-0.3 1.4-0.6-0.3-1.2 1.1-2.4-0.1-1.5 1-0.8 1.4 0.5 1.8 0 1-3 2.6 0.3 0.7 1.4 1 0.3 0.7 0 2.3-0.3 0.9 0.5 1.2-0.1 1.4-0.3 0.4-0.9 0.2-1.1-0.8-1.4 0.7-0.9 1.1-2.2-0.2-0.4-0.6-3.5 2.4-2.1 1-2.4-0.3-1.4 2-0.2 1-0.4 0.3-1.8-0.5-1.1-1.5-2.8-0.6-0.9 1.4-1.1 0.4-0.1 0.1-0.7-1.4-0.1-0.8 1-0.4 1-1 0.8-1.4-0.1-1.5-0.3 0-0.2 1.2-0.6 0.9-1.4 1.2-1.7 0.9-0.9 0.7-0.3 0.8-0.4 1.2-0.9 0.6-2.1 0.1-0.6-0.5-0.7-1.2-0.2-1.2 0.4-0.9-0.4-0.9-0.4-0.8-0.5-0.3-0.6 0.3 0.2 1.1-0.2 1.1-0.2 1.1-0.2 0.9-0.2 0.6-1.4 1.8-0.8 1.7-0.5 0.8-1.2 0.7-0.1 0.9 0.1 1.1 0 0.9-1.7-2.4-0.4-0.4-0.8 0-0.6-0.2-0.6-0.3-0.4-0.6 0.1-1.2 0.3-1.4-0.1-1.2-0.7-0.6 0-0.5 1.6-0.5 0.4-2.3-0.1-2.8 0-1.6-0.7 0.5-0.4 0.8-0.4 2 0.4 1.6-0.7 0.3-1.1-0.1-0.7 0.2-1 0.4-1-1-1.7-3-1.4-1.8-0.6-1.1-0.3-1.2 0.1-0.7 0.2-0.6 0.1-0.7-0.3-1.2-0.1-0.8-0.1-0.2-1.2-0.5-1.6-3.4-1.1-1-4.4-6.2-0.7-0.4-0.3-0.3-0.5-1.1-0.4-0.6 0.3-0.6 0.5-0.6 0.2-0.2 1-2.8 1.3-6.3 1.5-3.6 0.7-2.1 0.3-0.7 0.4-0.3 1-0.4 0.5-0.4 0.6-0.8 0.8-1.3 0.4-1.5-0.5-1.4 1.6-4.8 0.9-2.2 1.1-1.4 0.9-0.2 0.5 0.5 0.5 0.6 0.8 0.3 0.5-0.1 1.9-1.1-0.6-0.4-2.3-1.2 1.2-1.4 0.7-0.5 3-0.9 0.5 0.2 0.4 0.3 0.3 0.3 0.3 0.3 1.8 0.6 0.9 0.1 3.9-1.2 0.8-0.6-3.2 0 0-0.6 0.9-0.1 0.7-0.5 0.7-0.3 0.9 0.4 0-0.6-1.1-0.6-0.2 0.1 0.2-1.5 0.6-1.3 0.1-0.3 0-2.2 0.2-0.4 0.3-0.1 0.3 0.1 1.7 0.9 0.4 0.1 0.7-0.2 0.3-0.2 0.2-0.2 0.7-1.8 0.3-0.3 1.5-0.7 0.3-0.3 0.4-0.4 0.2-0.3 1-1.5z" id="GBCMA" name="Cumbria">
  </path>
  <path class="england" d="M701.9 557.1l3 0.6 1.2 0.8 2.2 0.3 0.9-0.1 1.2-1.5 0.6-0.2 0.1 0.2 0.7 2 0.4 0.8 0.3 0.7 0.2 1 0.3 1-3.6 1.4-3.7-2.7-2.7-2.4-1.1-1.9z" id="GBNTY" name="North Tyneside">
  </path>
  <path class="england" d="M709.4 564.1l3.6-1.4 0.5 0.3 0.2 0.3 1.3 1.4 0.4 0.9 0 0.4-0.1 0.4 0 0.5 0.1 1.8 0.1 0.7-1.7-0.2-2.9 0.9-1.7-0.7-1.5-0.3 0.3-1.5-0.6-1.2 0.7-1.1 1.3-1.2z" id="GBSTY" name="South Tyneside">
  </path>
  <path class="england" d="M707.7 569.1l1.5 0.3 1.7 0.7 2.9-0.9 1.7 0.2 0.3 0.3-0.1 0.8 0.7 2.6-0.5 0.2-0.8 0.4-1 0.3-0.2 0.6-0.5 1.6 0.1 1.8-0.4 0.9-1.4 0.3-1.6 0-1.5-0.2-0.4-0.4-0.2-1-0.2-1.2-0.5-0.7-0.8-1.4-0.1-1.2-0.3-0.6-0.8-0.5 1-2.7 1.4-0.2z" id="GBSND" name="Sunderland">
  </path>
  <path class="england" d="M671.2 580.3l1.5-0.7 2.9 1.1 0.4-0.3 0.5-1.4 0.8-0.5 0.7 0.2 0.4-0.9 0.9-0.6 0.2-0.6-0.1-0.6 2.3 0.5 4.1-2.8 3.4 1.6 0.3 0.8 0.5 0.1 1.8-1.2 0.9-2.1 1.2-1.6 0-0.8 2.6 0.5 3 0.3 2.4-0.1 2.6 0.2 0.8 0.6 0.8 0.5 0.3 0.6 0.1 1.2 0.8 1.4 0.5 0.7 0.2 1.2 0.2 1 0.4 0.4 1.5 0.2 1.6 0 1.4-0.3 0.4-0.9-0.1-1.8 0.5-1.6 0.2-0.6 1-0.3 0.8-0.4 0.5-0.2 2 7.5 1 2.6 1.5 1.8-0.2 0.1-2.1 1.1-0.5 1.4-1 0.9-0.4 2.8-2.1 0.7-0.4 1-0.4 1-0.8 0.7 0 0.5-0.3 0.1-1.4 1.5-1.6 0.6-1.9 0.1-1.1 0-1.2-0.1-1.1-1.2-1.5-0.7-1.1 0-1 0.4-0.3 1-0.1 1.6 0 1.3 0 1-1.5-0.1-0.5 0.5-1.1-0.4-0.9 0.2 0 1.1-0.6 1.1-0.3 1.5-1.8-1.7-0.5-0.1-0.7 0.9 0 1-3.7 2.1-1.2 0-2.4-1.4-1.8-0.6-2.6 0.9-1.8 1.5-0.8-0.5 0.3-1.4-0.4-1-0.2-3.4-1.4-0.3-0.8-1.7-3.6-2.8-0.5-1.3-0.4-2 0.9-1 0.3-0.8 0-0.6-0.5-0.6-2.5-1.4-0.5-0.7 1.3-2.9 1-4.6z" id="GBDUR" name="Durham">
  </path>
  <path class="england" d="M714.2 593l0.4-1 2.1-0.7 0.4-2.8 1-0.9 0.5-1.4 2.1-1.1 0.2-0.1 0.2 0.3 0.7 0.6 2.5 1.1 0 0.6-1 0 0 0.4 0.1 0.2 0.3 0.5 0.1 0.7 0.2 0.5 0.3 0.6 0.3 0.4-0.3 0.7-0.5 0.4-1.1 0.5 0.1 0.6 0.2 0.3 0.3 0.2-0.1 0.2-0.2 0.3-0.5 0.5-0.1 0-2.3 0-2.7-0.4-2.5-0.6-0.7-0.6z" id="GBHPL" name="Hartlepool">
  </path>
  <path class="england" d="M722.4 594.6l0.1 0 0.5-0.5 0.2-0.3 0.1-0.2 0.1 0 0.4 0 0.1-0.1 0.1-0.3 0.1-0.2 0.2 0.1 0.1 0.2 0.2 0.4 0.1 0.4-0.1 0.1 0.6-0.1 0.3-0.4 0.4-2.3 0.8 1.1 0.8 0.7 0.9 0.3 2 0.3 2.3 1.5 9.6 3.1 0.4 0.2 0 0.1-0.4 0.8-1.3 0.5-0.7 0.8-0.4 1.2 0 2.3-2-0.7-2.4 0.7-1.1-0.8-0.9-0.2-2.5 0.6-2.1-1-1.9 0.5-3.1-0.4-0.3-0.7-0.6-1.1-0.5-1.2-0.3-1.1-0.1-1 0-0.7 0.1-1.7 0.2-0.9z" id="GBRCC" name="Redcar and Cleveland">
  </path>
  <path class="england" d="M664.5 624.9l2.2 0.2 0.9-1.1 1.4-0.7 1.1 0.8 0.9-0.2 0.3-0.4 0.1-1.4-0.5-1.2 0.3-0.9 0-2.3-0.3-0.7-1.4-1-0.3-0.7 3-2.6 0-1-0.5-1.8 0.8-1.4 1.5-1 2.4 0.1 1.2-1.1 0.6 0.3 0.8 0.5 1.8-1.5 2.6-0.9 1.8 0.6 2.4 1.4 1.2 0 3.7-2.1 0-1 0.7-0.9 0.5 0.1 1.8 1.7 0.3-1.5 0.6-1.1 0-1.1 0.9-0.2 1.1 0.4 0.5-0.5 1.5 0.1 0.9 0 1 0.6 0.3 1.1 0.2 0.1 1.4-0.3 0.5 0.3 0.6 1.5 2.1 2 0.6-0.1-0.3-1.2 1.5 0.2 0.5 0.6 0.5 1.9 0.6 0.5 0.5-0.3 0.2-0.5-1-2.5 0-1 0.3-0.3 0.6 0 0.5 0.6 0.2 0.8 0.7 0.3 0.4-1.2 1 0.3 0.3-0.4 0.5 0.4 0.4 1.7 1.3 0 0.3 0.4 3.6-2 0.1 0 0.6-1 1.6-0.5 1 0.2 3.1 0.4 1.9-0.5 2.1 1 2.5-0.6 0.9 0.2 1.1 0.8 2.4-0.7 2 0.7 0-2.3 0.4-1.2 0.7-0.8 1.3-0.5 0.4-0.8 0-0.1 10.1 6.5 1.3 1.3 0.6 1.1 0.1 0.8-0.1 0.6 0.1 0.8 0.5 0.7 1.6 1.1 0.6 0.7 0.7 1.3 0.8 1.9 0.6 2 0 1.6 0.2 0.6 0.2 0.5 0.4 0.4 0.5 0.2-0.2 0.8-0.1 0.3 0.4 0.4 0.8 1.3 0.4 0.5 1.9 0.5 0.5 0.3 0.5 0.6 1.1 0.5 0.4 0.9 0.3 2.1 0.1 0.3 1.2 1.3 1.6 0.7-0.4 1-0.6 0.5-3.4-0.2-0.8-0.7-2-0.4-0.9-1.3-1.2-0.3-0.8 0.6-0.2 1.9-1.3 1.2 0.3 0.7-0.2 0.6-3.2 1.9-1.6-0.3-1 0.2-1.6 1.3-1.7 0.8-0.2 0.2 0.3 0.7-0.1 1.2-1.2 0.6-0.1 1.4-1.6-0.1-1.5-1.1-7.3 1.2-1.3 1.6-0.5 1.2-1.2 0-1.6-0.2-0.7-1.3 0-1.4-0.2-1.6-0.9-0.9-1-0.1-2.1 0-1.4 0.6-1.1 0.4-0.5 1-0.3 1.5-0.7 1.3-0.8 0.1-0.9 0.3-0.8 0.5-0.1 1.9 0.7 2.4 1.9 3 1.7 1.4 2.9 0.2 2.6 0 2.6-1.1 1.3 0.3 0 2.5 1 2.2-0.5 1.5-0.2 1.7-1.3 2 0.2 0.5 1.5 1.1-0.8 0.2-1.8 1.4-1.8 0.6-3.4-1.5-0.1 1.6-0.7 1.4 1.7 2.2-1.8 0.3-0.7 0.8-0.6 0-0.6-0.6-2.2 0.2-0.7 1.5-0.7-0.1-0.8-1.1 0-2.2 0.1-0.7 0.8-1.8 0.7-0.4 0.1-0.8-0.5-0.4-1.8-0.2-1.4-1.6-0.8 0 0.1-1 0.8-0.7-0.1-0.9-0.6-0.8-0.3-0.8 0.1-2.3-0.9-2.1-0.8-0.5-0.1-0.5 1.8-0.2 0.1-1.2-0.2-1.5 0.8-1.6-0.1-0.8-1.9-1.6-2.5 0.5-1.7 1.2 0 0.6-0.4 0.5-1.1 0.3-2.4-0.3-0.5-1.3-0.8-0.7-0.6 0.8-0.1 1.3-0.2 0.3-1.4 0.3-2.7-0.5-2.5 0.5-1.6-0.1-0.7-1.1-0.9-0.2-0.7-1.3-0.9-0.6-1.8 0.2-0.5 0.7-1.2-0.7-0.2-1.8-1.2 0.6-2-0.2-0.5 0.6 0.2 1.5-1.1 1.1 0.5 1.6-0.1 1.7-0.6 0.5-1.1 0-1.4 1.8-1.6-1.2-1.5-2.1-0.3-2.1-3.3-1.7-0.2-1.4-0.5-0.9-1.5-0.2-0.3-0.4 0-0.8-2.1 1-0.6 0-0.6-1.5-1.7-0.1-0.6-0.9 0.5-1.3-0.4-0.3-0.1-1.2-0.3-0.4-1.2-0.3-2.2 0.6-1-0.1-0.5-0.6 0-2-0.4-0.6-2.4-1.4-1.2-1.3-0.3-1.2 0.2-1.8 1.3-0.7 0.3-1 2.8-3.6 0.2-1.1z" id="GBNYK" name="North Yorkshire">
  </path>
  <path class="england" d="M735.7 645.6l0.5-1.2 1.3-1.6 7.3-1.2 1.5 1.1 1.6 0.1 0.1-1.4 1.2-0.6 0.1-1.2-0.3-0.7 0.2-0.2 1.7-0.8 1.6-1.3 1-0.2 1.6 0.3 3.2-1.9 0.2-0.6-0.3-0.7 1.3-1.2 0.2-1.9 0.8-0.6 1.2 0.3 0.9 1.3 2 0.4 0.8 0.7 3.4 0.2 0.6-0.5 0.4-1 4.2 1.6 1.7 1.6-4.2 2.3-1.4 1.7-1.2 3.1 1 2.3 1.4 5.2 0.8 2.4 5 7.8 8.3 12.5 0.8 2.6-0.6 2.6-0.3 0.3-1 0.8 1-2.4 0.3-1.4-0.8-0.6-0.9-0.3-2.1-1.5-1-0.4-0.9 0.3-1.8 1.1-1 0.3-1.2-0.2-1-0.3-1-0.5-0.8-0.7-4.5-5.8-1.6-1.2-1.7-0.3 0-0.3-0.1-0.7-0.5-1.1-0.6-1-0.9-0.8-0.9-0.1-1.2 0-1 0.6-0.9 0.6-0.8 2-0.2 1.8-0.1 0.9-2.8 0-1.6 0.4-0.3-0.1-1.2-1.2-0.1-0.1-2.7-0.4-1 0.4-3.2 2.1 0.4 0.2 0.4 0.2 0.4 0.3 0 0.1 0 0.2-0.1-0.1-1 1-2 1.5-2 1.8-1.6 1.7-0.8 0.1-0.1-0.6 0.1-1-3.8-1.9-2.6-0.3-3.6 1-1.7-2.2 0.7-1.4 0.1-1.6 3.4 1.5 1.8-0.6 1.8-1.4 0.8-0.2-1.5-1.1-0.2-0.5 1.3-2 0.2-1.7 0.5-1.5-1-2.2 0-2.5 0.1-1.9 0.9-4.2-0.5-2 0.1-0.2z" id="GBERY" name="East Riding of Yorkshire">
  </path>
  <path class="england" d="M758.1 666l0.1-0.9 0.2-1.8 0.8-2 0.9-0.6 1-0.6 1.2 0 0.9 0.1 0.9 0.8 0.6 1 0.5 1.1 0.1 0.7 0 0.3-0.4-0.1-5.9 2-0.9 0z" id="GBKHL" name="Kingston upon Hull">
  </path>
  <path class="england" d="M738.9 674.1l0.8-0.1 1.6-1.7 2-1.8 2-1.5 1-1 0.1 0.1 0-0.2 0.4 0.3 0.7-1.3 1.3-0.6 1.4-0.1 1.1 0.3 1.9 1.4 0.5 0.6 0.7 0.4 0.7-0.2 1.3-1.1 8.4-1.6 1.3 0.6 0.9 1.6 2.9 4.5-0.2 0.1-2 0.6-1.4 0.4-0.3 0.8-0.2-0.2-0.3 0.6 0.1 1.4-1.7 2-1.2 0.2-3-0.8-2.8 2.1 0 0.4 3.5 0.2 0.6 0.5 0.1 0.7-0.6 0.5-2.8 0.5-0.6 1.3 0.3 0.8-0.1 0.3-1.9 0.9-2.9 0.8-1.6-0.1-0.5-0.3-0.3-0.7 0.5-1.8 0-0.9-0.3-0.4-5.8-0.7-0.3 2.1-0.9 1-1.4 1.7-5.1-0.4-0.2-0.2 0.8-0.5 0.1-0.4-1.4-1.3-1.1-2.4 1.3-1.1 1.6 0.4 0.4-0.3 0-1.1-0.8-0.7-0.1-0.9-0.6-0.5 1.1-0.7 0.6 0.2 0.4-0.3 0.2-1.3-0.2-1.1z" id="GBNLN" name="North Lincolnshire">
  </path>
  <path class="england" d="M766 674.6l0.3-0.8 1.4-0.4 2-0.6 0.2-0.1 0.5 0.8 2 1.1 1.5 1.7 0.8 0.6 1.6 0.2 0.7 0.3 2.2 2.8 1 0.8-0.2 0.2-0.1 0-0.7 0.5-1.1 0.2-1-0.2-0.6 0.5-1.6 3.8 0.1 0.5 0.8 1-1.4 1.2-0.5 0-1.1-1.1-0.3-0.8-0.7-0.4-0.3-0.6-1.2-1.1 0.3-1.8-0.7-2.7 1.3-1.8 0-0.5-1.8-0.1-1.3-1.9-2.1-1.3z" id="GBNEL" name="North East Lincolnshire">
  </path>
  <path class="england" d="M741.9 686.7l1.4-1.7 0.9-1 0.3-2.1 5.8 0.7 0.3 0.4 0 0.9-0.5 1.8 0.3 0.7 0.5 0.3 1.6 0.1 2.9-0.8 1.9-0.9 0.1-0.3-0.3-0.8 0.6-1.3 2.8-0.5 0.6-0.5-0.1-0.7-0.6-0.5-3.5-0.2 0-0.4 2.8-2.1 3 0.8 1.2-0.2 1.7-2-0.1-1.4 0.3-0.6 0.2 0.2 2.1 1.3 1.3 1.9 1.8 0.1 0 0.5-1.3 1.8 0.7 2.7-0.3 1.8 1.2 1.1 0.3 0.6 0.7 0.4 0.3 0.8 1.1 1.1 0.5 0 1.4-1.2-0.8-1-0.1-0.5 1.6-3.8 0.6-0.5 1 0.2 1.1-0.2 0.7-0.5 0.1 0 0.2-0.2 3.5 2.9 0.9 0.4 0.9 0.2 0.8 0.4 0.8 0.9 0.1 0.5 0.1 0.9 0.1 0.7 0.3 0.3 0.4 0.1 1.4 1-0.4 0.5 0.8 0.7 0.8 1 0.5 1.3 0.2 1.1 3.8 10.5 0.7 3 0 3.3-1 4.1-0.3 0.6-0.5 0.2-0.9 0.2-0.8 0.5-4.2 4.2-0.8 0.4-0.7 0.5-3.7 5.5-0.9 1-1.1 0.5-0.8 0.5-0.6 1.1 0.1 0.9 1.4 0.1 2.4-0.5 0.6 0.2 1.3 1.1 0.7 0.3 1.1 0.7 2.4 3.8 1.2 1.4 0.8-0.6 0.7-0.1-0.2 0.3-0.6 1.9 0.8 1-0.2 0.5-3.6 2.7-1.2-0.2-1.1-0.1-2.4 1.4-1.8 0.2-0.3 0.3 0.2 2.4-0.5 1-0.7 0.7-1.5 0-2.3-0.8-0.1 0-1.5 0.6-0.9-0.1-1.6 1-1.1-0.4-1.1 0.2-0.8-1.1-2.9 0.6-2.5-1.2-4 2.1-1.6 0-1.5-0.5-1.1 0.5-0.8-0.5-0.2-0.8 0.8 0.2 2.1-0.9 1.4-1 0.2-0.9-4.7-1.8-0.5-1.2-1.7-1.2-1.1 0.2-1-0.5-2-0.1 0-0.1-0.6-1.6-0.6-3-0.7-0.7-0.8-2.5-0.7-1.4-1.4-0.3 0-1-0.5-0.9 0.9-2.6-0.1-0.6-0.8-0.6-0.1-1.4-0.9-2 0.2-1.5 1.1-0.9 0.9-1.4 2.3-1.1-0.3-1.6-0.8-1 0.5-1-0.6-0.9 0.4-0.8-0.2-1.7 0.2-1.6-1.5-0.1-0.2-0.1-0.1-0.6 0.7-1.6 1.1-0.2 0.7-0.8 1.3 0 0.3-1.1 1-1.3-0.1-0.6-0.3-0.1-0.6 1-1-0.9-1.2 0.1-0.9 0.9-2.5-0.4 0.4-3.5 0.9-2.5 0.2-0.9-0.1-0.6-0.7-2.5-0.3-0.4-0.3-0.2-0.2-0.3-0.1-0.5 0.3-0.8 0-0.5 0-0.4-0.7-1.4-0.4-0.8-0.2-0.8 0.3-1z" id="GBLIN" name="Lincolnshire">
  </path>
  <path class="england" d="M787.3 743.5l1.2 0.2 3.6-2.7 0.2-0.5-0.8-1 0.6-1.9 0.2-0.3 0.3-0.1 1.8 0.2 0.8 0.4 1.3 1.9 0.7 0.4 0-0.5-0.2-1.3 0.9-1.4 1.2-1.4 0.6-1 0.3-1.9 0.6-2.1 0.7-1.9 0.6-1.3 1.7-1.7 2.3-1.1 2.5-0.5 2.3 0.1-0.4-0.6 1-0.3 1 0.2 1.1 0.5 1 0.2 3.9 0 1.9 0.5 2.1 1 2.3 0.6 2.1-1-0.5-0.4-0.6-0.2-0.5 0-0.6 0 0-0.5 14.4 3.5 5.7 2.9 11.6 9 1.4 1.6 1.1 1.9 0.9 3.6 0.8 2.3 0.6 2.3-0.3 1.6 0.3 1.2 0.1 1.5 0 2.8-0.1 0.1-0.2 0-2.4-0.8-0.8 0.2-0.5 0.5-0.5 1.7 1.1 1.4 1.1 0.3 0.1 0.9-0.4 0.5-0.3-0.4-1.2 1.2-1 0.5-1.9-1.2-0.7-0.1-0.5 0.6-0.1 1-1.3-0.6-1.1 0.5-1.4-0.6-1.2 0.5-1-0.7-0.6 0-0.3 0.5 0.9 0.9-0.1 0.2-1.4 0.3-2.3 1.1-1.2 2.4-0.6 0.6-2.3 0.1-1.9 1.6-1.5 0.5-1.9-0.2-1.7-0.6-2.2 0-2-0.7-2.9 1.1-2-1.7-2.3-0.1-2.1-0.9-2.3 1-1.7 0.2-0.8-0.7-1.9-0.1-1.1-0.7-0.2-1.1 0.2-0.5 1.8-1.4-1-0.2-0.5-0.5-1.8 0.5-3.7-0.5-3.2 1.2-2.1-0.1-2.3-1.8-1.5-2.1-0.1-0.6-1.6-0.9-2 0.2-1.1 1-0.5 0-0.8-1.5 0-0.7-0.6-0.5-0.2-1.6 0.5-1.4-0.5-0.9 0.1-0.9 1.2-1 0-0.3-2.9-2.2 0-0.5 0.8-1.1-0.2-0.8-1.8-0.7 0.7-4.2z" id="GBNFK" name="Norfolk">
  </path>
  <path class="england" d="M800.1 766l2.1 0.1 3.2-1.2 3.7 0.5 1.8-0.5 0.5 0.5 1 0.2-1.8 1.4-0.2 0.5 0.2 1.1 1.1 0.7 1.9 0.1 0.8 0.7 1.7-0.2 2.3-1 2.1 0.9 2.3 0.1 2 1.7 2.9-1.1 2 0.7 2.2 0 1.7 0.6 1.9 0.2 1.5-0.5 1.9-1.6 2.3-0.1 0.6-0.6 1.2-2.4 2.3-1.1 1.4-0.3 0.1-0.2-0.9-0.9 0.3-0.5 0.6 0 1 0.7 1.2-0.5 1.4 0.6 1.1-0.5 1.3 0.6 0.1-1 0.5-0.6 0.7 0.1 1.9 1.2 1-0.5 1.2-1.2 0.3 0.4 0.4-0.5-0.1-0.9-1.1-0.3-1.1-1.4 0.5-1.7 0.5-0.5 0.8-0.2 2.4 0.8 0.2 0 0.1-0.1 1.1 3.6-0.2 0.7-0.6 0.7-1.2 4 0 0.7-0.1 0.8-2 5.5-1.5 2.7-0.5 0.6-0.5 0.8-0.1 2 0.1 3.4-0.3 1.5-0.8 2.6-0.2 1.4-0.7 2.1 0 1-0.3 0.5-3.7 1.5-0.8 0.9-0.6-0.5-0.3 0.6-0.1 1-0.4 0.5-0.3 0.3-1.2 1.7-3.2 3.7-0.6 0.8-0.5 0.2-3.2-4.1-1.4-0.5-2.3-1.8-1.3-0.3 0 0.5 1.7 1.6 1 0.7 2.1 0.5 0.5 0.3 0.2 0.3 0 1.2-0.2 0.4-0.9-0.3-0.6 0.1-1 0.3-0.5 0.1-0.6-0.2-1.3-0.8-1.1 0-2.2 0.8-1.2 0.2 0.4 0.2-0.9 0.1-1.9-0.1-2.4-1-2.5-0.3-2.2 0.7-3.7 0.3-0.5-0.2-1.4-2.7-0.4-1.8-0.8 0.4-0.1-0.3-0.5-1.4 0.3-0.8-0.7-1.8-1-0.7-2 0.2-5.2 2-1.1-0.4-0.6-1.2-3.7 0.7-0.6-3.4 1.4-1.9 0.2-1.2 1-1.1 0.4-0.3 1.1 0.4 0.7-0.2-0.1-1.2 0.9-2.6 0-0.6-0.6-0.8-1.1 0.1-0.9-0.9-0.6 0.4-1-0.3-0.8 1-0.8 0-2-2.5 0.8-2.5 0.7 0.5 0 0.5 2.3 1.8 3-0.9 0.7-0.7 0-0.5-1.8-2.1-1.8-0.1 0-0.6 0.7-1.1-0.1-0.6-1.3-1.2-1.4-2.7 0-0.9 0.2-0.4 2.5-1.9z" id="GBSFK" name="Suffolk">
  </path>
  <path class="england" d="M798.4 794.5l3.7-0.7 0.6 1.2 1.1 0.4 5.2-2 2-0.2 1 0.7 0.7 1.8-0.3 0.8 0.5 1.4 0.1 0.3 0.8-0.4 0.4 1.8 1.4 2.7 0.5 0.2 3.7-0.3 2.2-0.7 2.5 0.3 2.4 1 1.9 0.1 0.9-0.1 0.8 0.4 7.8 0.5 0.9-0.6-0.1 1.4-3.7 3.9 0.6 0.4 0.7 0.3 1.7 0.3 0.5-0.5 0.4-0.8 0.2 0 0 1.6-0.5 1.2-2.7 2.4-2.4 1.7-1.5 0.6-3.3 0.5-0.9-0.1-0.4-0.4-0.8-1.5-1.5-2.1-0.4-1.1-0.1 1.5-0.7 0.8-1.8 0.9-1.4 1.3-0.4 0.2 0 0.4-0.1 0.9-0.2 0.9-0.3 0.4-0.5 0.2-0.8 0.6-0.5 0.3-0.5 0-1.1-0.5-0.4-0.1-1.2 0.1-2.1 0.9-1.1 0.6 0.8 0.4 0.8 0.1 0.8 0.4 0.5 1.2 1.4-1.4 3-0.6 1.4-0.6 1.3-1.1 0.9-0.2 0.7 0.8 0.1 0.6-0.2 0.7-0.2 0.6-0.1 0.1 0.1 0.6 0.2 0.6 0.4 0.9-0.5 0.4-0.2 0.7 0 1.7-0.1 0.5-0.4 0.3-0.7 0.6 1.3-0.1 0.4 0.2 0.2 0.4-1.3 2.1-2.4 2.2-2.1 1.3-0.4-0.4-3.1-1.2-1.6-0.4-1.6-0.6-1.7 0.6-0.7 1.9 0.5 0.5 0.1 0.1-0.1 0.1-0.1 0.1-0.9 0.8-0.7 0.3-0.6 0-0.6 0.1-0.7 0.7-0.7-0.8-0.3 0.1-0.1-0.9-0.8-0.3-2.2-0.8-2.5-0.3-3.3-0.7-1.7-0.1-0.2-0.3-0.4-1.2-1.1-0.4-0.6-0.8-0.9-1.7-0.2-0.8-0.8-0.1-2.2 0.7-1.6 0.1-1.7 0.2-0.8 1-0.6 0.1-2.5-1.5-0.1-0.4-0.3-0.8-1-0.7-0.1-0.1-0.5-0.2 0.3-1.2-0.2-0.9 0.5-4.2 1.7-2.7 3.4-0.6 2.3-1 0.2-1.2 1.3-0.8-0.8-0.7 0-1.7 1.2-1.3-0.1-0.5-0.5-0.6 0.2-0.8-2.3 0.5-0.5-1.7-0.2-2-0.6-1.4-0.1-1.7-1.3-0.8-0.1-1.4 1.3-1.9-0.1-2.1 0.4-0.1 1.1 1.1 1.8-0.5 0.8-0.7 0-1.5 0.6-0.4 2.3 0.4 1.4-0.6 1 0.2 0.8 0.6 1.9 2.3 1.2 0.7 0.5-0.6-0.4-0.7 0.8-0.6z" id="GBESS" name="Essex">
  </path>
  <path class="england" d="M809.5 834.2l-0.1-0.1-0.5-0.5 0.7-1.9 1.7-0.6 1.6 0.6 1.6 0.4 3.1 1.2 0.4 0.4-0.6 0.4-2.1 0.7-3.7-0.6-1.3 0.1 0-0.1-0.6 0-0.2 0z" id="GBSOS" name="Southend-on-Sea">
  </path>
  <path class="england" d="M794.2 832.5l1.7 0.1 3.3 0.7 2.5 0.3 2.2 0.8 0.8 0.3 0.1 0.9-1 0-3.2 0.9-0.3 0.5-0.1 0.8-0.3 0.8-0.6 0.8-0.7 0.4-0.7 0.2-0.7 0.4-0.8 0.3-0.5 0.2-0.9-0.1-0.4-0.6-0.3-0.8-0.8 0-1.4 0.5-2.5-0.9-0.3-0.4 0.1-0.6 0.3-0.3 0.8-0.7 0.3-1.6 1.2 0.2 0.3-0.7 2.6-1-0.7-1.4z" id="GBTHR" name="Thurrock">
  </path>
  <path class="england" d="M789.6 839l2.5 0.9 1.4-0.5 0.8 0 0.3 0.8 0.4 0.6 0.9 0.1 0.5-0.2 0.8-0.3 3-0.5 0.4-0.2 0.2-0.6 0.2-0.5 0.2-0.2 2-0.6-0.1 0.2-0.2 0-0.4 0.4-0.7 1.3-0.1 1.1 0.2 0.8 1 0.1 0.3 0.7-0.4 1.9-0.8 0.8-1.4 2.1-0.5 1.4 0 0.4 0.7 0.1 0.5-0.1 0.8-0.4 0.8-0.3 1.4 0.4 1.4 1.1 1.3 1.2 1.4-0.9 1.2-1 0.6-2.7 0.2-0.8 0.3-0.5 1.9 0.5-0.4-0.9-0.2-1 0.2-0.8 1 0.1 0.1 0.9 0.5 1.4 0.7 1.2 0.5 0.6 10 1.1 5.8-1.8 15.1-1.4 1.1 0.7-0.4 2.5-0.2 0.4-0.2 0.5-0.2 0.3-0.4 0.3-1.6 0-0.3 0.2 0.2 1.7 0.3 1.2 0.8 2 0.4 3-0.4 2.8-1 2.4-1.2 1.5-3.2 1.1-1.2 1-0.6 0.1-1-0.1-0.5 0.2-0.5 0.5-0.4 0.5-0.4 0.4-0.9 0.4-3.1 0-0.9 0.3-0.9 0.6-1.9 1.7-2.4 3.5-0.4 0.9 0.1 1.9 0.5 2.9-1.6 0.7-3.6-1.2 0.2-0.4-0.3-1-0.8-0.5-0.6 0.5-0.7 0-1.7-3.3-1-0.7-3.2 0.2-1-1.1-0.8-0.3-4.1 1-1.6-1.3-2.6-0.9-0.3-1.3-2.7-1.3-0.7-1.3-0.9-0.5-1.2 0.2 0.1-1.1-1.1-0.5 0-0.8-0.2-0.1-3 0.7-2.1-0.9-3.8 0.8 0.6-2.1-1-0.3-1.7 0.5-1.6 0.1-0.3-2.4 0.2-1-0.7-2.1 0.9-2.5-0.4-1.8-0.1-1.7 0.7 0.5 1.2-0.4 0.1-1.7 1.1-1 0.5-1.3 1.2-1 0.6-2.5-0.1-0.8-0.3-1.4 1-1.5 1.4-1.5 0.5-1.1z m32.3 4.5l1 1.1 0.4 1.1-0.2 0.9-1.2 0.5-5.5-0.5-0.9-0.3-0.8-0.9-0.7-1-0.4-0.9 0.6-2.1 0.3-0.4 0.6-0.2 5.8 2 0.5 0.3 0.5 0.4z" id="GBKEN" name="Kent">
  </path>
  <path class="england" d="M810.7 845.1l-0.3 0.5-0.2 0.8-0.6 2.7-1.2 1-1.4 0.9-1.3-1.2-1.4-1.1-1.4-0.4-0.8 0.3-0.8 0.4-0.5 0.1-0.7-0.1 0-0.4 0.5-1.4 1.4-2.1 0.8-0.8 0.4-1.9-0.3-0.7-1-0.1-0.2-0.8 0.1-1.1 0.7-1.3 0.4-0.4 0.2 0 0.1-0.2 1-0.3 7.5 1.1 0.7 0.5 0.6 1.1 0.1 0.7-0.5 0.4-1 0.1-1.7-0.3-0.7 0-1.5 1.4-1.7 0.4-0.8 0.6 0.3 0.4 0.4 0.5 0.3 0.5 0.4 0.2 4.1 0z" id="GBMDW" name="Medway">
  </path>
  <path class="england" d="M782.1 864.2l1.6-0.1 1.7-0.5 1 0.3-0.6 2.1 3.8-0.8 2.1 0.9 3-0.7 0.2 0.1 0 0.8 1.1 0.5-0.1 1.1 1.2-0.2 0.9 0.5 0.7 1.3 2.7 1.3 0.3 1.3 2.6 0.9 1.6 1.3 4.1-1 0.8 0.3 1 1.1 3.2-0.2 1 0.7 1.7 3.3 0.7 0 0.6-0.5 0.8 0.5 0.3 1-0.2 0.4-3.1-1.1-1.9 0.7-4.6 4.5-1.9 0.8-10.1 2.2-1.8 0.8-0.2 0-0.5 0.7-0.5 0.7-0.1 0.3-1.6 1.1-1.7 2.5-1.7 0-1-0.1-2.1-0.9-0.5 0-1.7 0-0.4-0.3-0.8-0.8-0.9-0.3-2-0.1-0.8-0.3-0.1-0.8-1.2-2.1-2-1.8-2-1.3-1.5-1.3 0-0.5 0-0.8 0.5-1.9 1.1-1.7-0.6-1.6 1.8-1.7 0.3 0 0.8 0.9 1.4 0 0.3-0.9 0.1-2.2 0.3-0.7 0.9-1.3-0.3-0.4-0.6-0.1-0.3-1-1.1-0.6 0.4-0.9 1-0.2 0.7-0.4 0.1-0.9 0.9-0.1-0.7-1.8 1.9 0z" id="GBESX" name="East Sussex">
  </path>
  <path class="england" d="M773.2 883l1.5 1.3 2 1.3 2 1.8 1.2 2.1 0.1 0.8-8.9-3.3-1.6-0.1-0.1 0-1-1.9 0-0.8 0.8-0.6 1.5 0.2 0.4-1 0.6-0.4 0.3 0 0.6 0.8 0.6 0.1 0-0.3z" id="GBBNH" name="Brighton and Hove">
  </path>
  <path class="england" d="M780.2 864.2l0.7 1.8-0.9 0.1-0.1 0.9-0.7 0.4-1 0.2-0.4 0.9 1.1 0.6 0.3 1 0.6 0.1 0.3 0.4-0.9 1.3-0.3 0.7-0.1 2.2-0.3 0.9-1.4 0-0.8-0.9-0.3 0-1.8 1.7 0.6 1.6-1.1 1.7-0.5 1.9 0 0.8 0 0.5 0 0.3-0.6-0.1-0.6-0.8-0.3 0-0.6 0.4-0.4 1-1.5-0.2-0.8 0.6 0 0.8 1 1.9-1.1 0.6-1.7-0.6-6 2.1-8.1 0-7.6 2.6-0.4-0.1-0.4-0.4-0.4-0.2-0.5 0.1-0.2 0.7 0.3 1.4-0.2 0.7-0.9 0.6-1.1-0.4-4.3-2.7-0.3-0.5 0.3-0.7 0.6-0.5 1.3-0.6 0-0.4-0.4-0.4-0.9-0.9-0.6-0.3-0.2 0.2-0.6 0.4-0.3-0.1 0.4-1-0.5-0.3 0.4-0.7-0.1-1.2-1.2-1.4-0.1-0.5 1.4-2.2-0.4-0.9 0-0.8 1.8-3.7 0.1-1.2 1.1-1.4 0.2-1.1 1.2-1.3 0.4-0.2 1.9 0.2 0.6-1.5 1-0.6 1 0.8 2.1 0.5 1.1-0.1 1.7-0.9 1.2 0.6 2.8-0.2 1-0.7 0.8 0.2 1.3-0.7 2.6-0.1 3.2-1.4 2.3-0.1 5.7-3.3 1.9 0.7 0.2 1 0.8 0.3 2-0.5 1.1 0.4 2.5-0.1 1 0.1z" id="GBWSX" name="West Sussex">
  </path>
  <path class="england" d="M743.9 867.7l-1 0.6-0.6 1.5-1.9-0.2-0.4 0.2-1.2 1.3-0.2 1.1-1.1 1.4-0.1 1.2-1.8 3.7 0 0.8 0.4 0.9-1.4 2.2 0.1 0.5 1.2 1.4 0.1 1.2-0.4 0.7-0.4-0.2-1.5-0.3-1.1 0-0.2-0.3-1.4-0.4-1.3-0.1-0.8 0-0.7 0.6-2.9 0.2-0.7 0.2 1.7 1.4 0.3 0.5 0.1 1.4-0.2 0.8-0.6 0.6-0.6-0.1-0.9-0.3-0.7-0.5-0.4-0.4-0.3-0.7-1.5-0.8-1.1-1-1.5-0.5-0.7-0.4-0.8-1 0.2-1 0.4-1.5 0-1.3-0.1-0.9-1.4-1.2-1.4-0.6-1.4 0-1.3 0.3-0.7 0.5-0.3 0.7-0.1 1-0.8-0.5 0 0.5 0.5 0.2 0.8 0.6 0.6 0 1.2 1.4 3.6 4.2 0.4 1-0.1 0.9-1.1 0.3-3 0.3-0.7 0.2 0.4 0.3 0.3 0.3 0 0.4-2.2 0.4-1.2 0.5-0.5 0.4-0.2 0-1.5-0.2-1.6 2.8-0.1 0.3-1-0.3-1-0.7-3.2-0.6-0.1 0-0.1-1-2.7 0 0.1-1.6-0.2-0.2-2.4 0.7-0.6-1-0.5-1.5 0.2-1.2 0.5-1-0.5-2.6-1.3 0.1-0.3-1.9 1.3-1.1 0.3-1.7-1.5-0.3-1.2 0.8-0.8-0.2-1.2-1.4-2.1-3.3 1.2-0.8 2.6-0.5 0.2 0.1-0.1 0.6 0.5 0.1 0.5-0.9 0.4-0.2 1.3 1.3 2 0.4 1.3 0.7 1.9 0.2 1.3 1.5 0.8 0.3 2-0.7 0.6-1.3-1.1-1.3 0.3-0.8 0.9-0.9-0.3-0.6-0.9-0.6 0.1-1.5-0.5-2.4 0.4-1.7-0.3-0.6-1.1-0.7 0.2-1.8-0.3-1.6-1.5-2.5-0.5-2.3 0.8-0.3 2.4 0.4 0.7-0.3 0.6-1 1-0.4 1.9 0.9 0.5-0.5-0.5-1.8 0.9-2-0.3-2 1.8-0.2 2.6-0.2 0.2-0.4-0.4-0.9 1.7-1.4 7.3 0.1 5.8 1.1 0.5-0.2-0.1-1 1.6-0.4 0.8 0.2 0.5 0.9 0.9 0.5 1.6-0.5 1.4 0.3 2.2-0.2 1.6 0.7 1.5 0.1 1.6 0.1 1 0.7 1.5 0.6 1.7 2.9 0.2 1.7-0.3 1.9-0.8 0.9-2.4-0.5-0.8 0.1-0.5 0.9-0.6 1.6 0.8 1.6 0 2.3 1.5 0.4 0.6 1.7 1.5 0.9 0.1 0.6-0.4 1.1z" id="GBHAM" name="Hampshire">
  </path>
  <path class="england" d="M728.2 885.5l0.7-0.6 0.8 0 1.3 0.1 1.4 0.4 0.2 0.3-0.3 0-0.9 0.2-0.6 1.3-0.4 1.8-0.7 1.4-1.2 0.2-1-1.1 0.5-1.3 0.8-1.3 0.3-1-0.8-0.4-0.1 0z m6 3.1l0 0.4 0.3 0.3 0.4 0.5 0.3 0.2 0 0.6-3.8-0.6 0-0.5 1-0.4 1.2-2.1 0.6 0 0.5 0.4 0.1 0.5-0.2 0.3-0.4 0.4z" id="GBPOR" name="Portsmouth">
  </path>
  <path class="england" d="M711.3 880.9l0.1-1 0.3-0.7 0.7-0.5 1.3-0.3 1.4 0 1.4 0.6 1.4 1.2 0.1 0.9 0 1.3-0.4 1.5-0.2 1-0.9-1.1-5.2-2.9z" id="GBSTH" name="Southampton">
  </path>
  <path class="england" d="M687.8 875.2l2.1 3.3 1.2 1.4 0.8 0.2 1.2-0.8 1.5 0.3-0.3 1.7-1.3 1.1 0.3 1.9 1.3-0.1 0.5 2.6-0.5 1-0.2 1.2 0.5 1.5 0.6 1 2.4-0.7 0.2 0.2-0.1 1.6 2.7 0 0.1 1-0.9 0-1 0.3-1.8 1-0.9 0.2-1.2-0.2-0.9-1.2-1.5-0.6-1-0.3-0.9-0.2-0.8 0-0.4 0-0.3 0.3-0.3-0.6-0.7-0.6-0.8-0.3-1 0-0.6 0-0.6 0.5-0.1 0.7-0.4 1-0.1 0.9-0.3 0.2-0.4-0.9-0.2-0.2-0.4 0.4-1.7 2.7 0.6-0.1 0.6-0.2 0.5-0.4 0.5-0.4 1 1.8 0.6 0.6 0.9 0.2 0.7 0 0.7 0.1 0.3 0.6-0.3 1.2 0.7 0.5 0.3 0.1-1.7 2 0.1 1.1-0.8 0.4-3.8 0.1-0.8-0.2-3.6-1.7-8.6-0.9-1.7-1-1 0.1-1.7 0.6-0.6 0.7-0.5 1.6-0.3 1.6 0.4 0.7 1.2 0.4 0.1 0.9-0.5 1.2-0.6 1-0.3 0-0.1-2.8-1-1.8-9.9-7.6-8-3-1.1-0.1-2.7 0.7-0.2-0.6 0.8-2.1-0.6-0.7 3-1.9-0.4-0.7-1.5-0.2-1.2-1 1.3-1.4 4.5-0.8 0.8-0.7 0.9 0.5 1.4-0.9 2-0.1 2.9-1.4 1.8 0.1 0.3-0.3-0.4-1.6 0.5-1 0.1-1.4 0.4-1-0.1-1.4 1.1-0.5 0.6 0.5 0.5-0.2 0.4-0.7-0.1-0.8 0.1-0.2 2.2 0.5 1.2 2.4 0.8 0.8 0.5-0.1 0.2-1.1 0.2-0.2 1.5 0.4 3-1.3-0.1-0.5-1.5-0.7 0-0.6 0.3-0.7 1.9-1.9-0.5-1.7 0.6-1.4 1.6 0.2 1.1 0.7 1.2 0 0.7 0.4 1.4 1.7 2.4 4.3 0.9 0.3 0.5 1.2 0.7 0.7 1.8-0.3 1.2-0.9 1.8-0.4 1.2-1.1 0.9 0.3z" id="GBDOR" name="Dorset">
  </path>
  <path class="england" d="M689.2 892.9l0.3-0.3 0.4 0 0.8 0 0.9 0.2 1 0.3 1.5 0.6 0.9 1.2-1.8-0.4-1 0.1-0.9 0.3-0.9 0.5-0.1 0-0.3-0.1-0.8-0.2-0.3-0.5 0-1 0.2-0.6 0.1-0.1z" id="GBBMH" name="Bournemouth">
  </path>
  <path class="england" d="M684.3 894.7l0.3-0.2 0.1-0.9 0.4-1 0.1-0.7 0.6-0.5 0.6 0 1 0 0.8 0.3 0.7 0.6 0.3 0.6-0.1 0.1-0.2 0.6 0 1 0.3 0.5 0.8 0.2 0.3 0.1-0.8 0.6-0.7 0.9-0.5 0.4-0.2-0.6-0.1-0.7-0.1-0.4-1.8-0.5-1.2 0.1-0.4-0.1-0.2-0.3 0-0.1z" id="GBPOL" name="Poole">
  </path>
  <path class="england" d="M641.1 887.5l1.2 1 1.5 0.2 0.4 0.7-3 1.9 0.6 0.7-0.8 2.1 0.2 0.6-0.8 0.2-1.7 1.1-1.1 0.1-1.7-0.5-0.6 0.2-1 0.9-0.3 0.1-0.8 0.7-0.4 0.2-0.5-0.1-0.9-0.4-0.5-0.1-0.9 0.2-1.6 0.7-1.9 0.5-0.6 0.7-0.4 1-0.7 1-3.4 1.5-1-0.1-0.8-0.2-0.7-0.6-0.5-1.1-0.6-1.8-0.2-0.3-0.2-0.1-0.1-0.1-0.1-0.2-0.3 0-0.1 0.1-0.1 0.4 0 0.3 0.6 0.7 0.7 2.5 0.4 1-0.9 0.8-0.7 1-0.7 1.3-0.6 1.5-0.5 2 0 0.9-0.2 0-1 0-1.3 0-1.3 0-1.1 0.7-0.9 1.2-0.6 1.4-0.2 1.2-0.1 1.1 0.6 0.9 0.7 1 1.3 0.5 1.4 0.9 1.7 0.7 0.4 0.1-0.1 0.1-0.3 1.9-0.6 0.4-0.7-0.3-0.8-0.6-0.3 1.6-1 0.6-1.1 0.3-0.4 0.7-0.3 1.3-0.5 1.5-0.2 1.7 0.3 1.9-0.7 0.3-1.9 0.6-0.8 0.1-1-0.3-0.9-0.4-0.7-0.1-0.7 0.8-1.7-1.6-2.8-3.4-3-2.9-0.6-0.2-0.4 0.1-1.2 0.7-0.4 0.2-0.3 0.1-0.6 0.7-0.4 0.2-0.5-0.1-0.5-0.3-0.8-0.6 0.1-0.3 0.2-0.7-1-0.3-1.1-0.8-0.3-0.8 0.7-0.9 1.1-0.4 1.1-0.6 0.7-0.3 0.1-0.5 0-0.4-0.2-0.7-0.9-0.7-1-0.7-1.1-0.7-0.9-0.5-0.7 0-0.7 0-0.7 0.6-0.7 0 0 0.1-0.1 0 0.1-0.4 0.6-1 0.5-1.1-0.9 0.5-0.5-0.1-0.5-0.4-0.1 0.6-0.5-1-0.5 0.1-0.3 0.5-0.3-0.4 0.3-0.6 0.5-1 0.1-0.8 1.3 0 0.4-0.3 0-0.6-1-0.4-0.3-1-0.3-0.5-2.6-0.7-0.1-1.6-0.5-1.2-0.8-0.5 0.2-2.8-1.8-1.3-0.5-2.6-0.7-1.1-0.1-2-0.7-1.6 0.1-1.7-0.9-0.4-0.5 0.8-0.3-0.1-1.3-1.4-1.5-0.1-0.6-0.4 0.2-0.4 1.4-0.6 0.4-1.2 0.1-1.9 0.8-0.5 0.2-0.5-1.2-2.7-0.5-0.8-0.2-1.4-4.2-0.2 0.2-1.2 0.4-0.6 0.6-1.9-0.2-0.5-0.1-1.1-0.1-1 0.3-0.5 4.1 0 0.5 0.2 1 0.7 0.5 0.2 2.7 0.3 1-0.3 0.7-0.5 3.1-3.6 0.3-0.4 0.2-0.5 0.3-0.4 0.5-0.3-0.3-0.7-0.6-2-0.1-0.6-0.1-0.4-0.8-1.2-0.4-0.7 1.6 0.2 0.4-0.2 0.3-0.8-0.1-0.8-0.4-0.6-0.5-0.4 0-0.4 3.6-1.5 8.5-0.8 1.8-0.6 0.9-0.2 3.4 0 1-0.2 1.5-0.8 0.8-0.1 2.7 0.7-0.1 0.5 0 0.1-0.3 0.7 0.2 1.2-0.4 2-2.1 0.4-2.4-0.3-0.3 0.4 0.1 2.2 0.6 1 1.8 1.3 1.1 0.3 1.6 1.8 1.8 0.1 2 1.5 1.8-0.1 0.4 0.6-0.3 1.2-0.6 1.1 0.4 0.9 3.3 0.4 0.5-0.5 0.1-0.9 0.4-0.4 1.5-0.4 1.4 0.8 1.1-0.3 1 0.8 0.9 0.1 0.3 0.7 0.2 2 2.3 0.2 2.5 2.3 2.2 0.3 3-0.4-1 2.6 1.5 1.3 2.6-0.8 2 0.1 0.2 0.5-0.2 1.6 1 0.7-0.2 1.2 1.3-0.7 0.5 0.3 0.7-0.2 0.7 0.7 0.7 2.1z m-80.5-26.9l0.1 0.5 0 0.9-0.3 0.4-0.4-0.5 0-1.1 0.1-0.9 0.3-0.1 0.2 0.5 0 0.3z" id="GBDEV" name="Devon">
  </path>
  <path class="england" d="M614.4 920.4l-0.4-0.1-1.7-0.7-1.4-0.9-1.3-0.5-0.7-1-0.6-0.9 0.1-1.1 0.2-1.2 0.6-1.4 0.9-1.2 1.1-0.7 1.3 0 1.3 0 1 0 0.2 0 0 0.5 0.8 3.1-1 0.1-1.1 0.3-0.8 0.6-0.3 1 0.3 1.2 0.8 0.4 2.1-0.1 0 0.5-0.4 1.3-0.1 0.3-0.4 0.1-0.4 0.2-0.1 0.2z" id="GBTOB" name="Torbay">
  </path>
  <path class="england" d="M583.1 916.8l0.1 0 0-0.1 0.7 0 0.7-0.6 0.7 0 0.7 0 0.9 0.5 1.1 0.7 1 0.7 0.9 0.7 0.2 0.7 0 0.4-0.1 0.5-0.7 0.3-1.1 0.6-1.1 0.4-0.7 0.9-0.1-0.3 0.6-1.4-1.7 0.2-0.5-0.2-0.6-0.4-0.3-0.4-0.2-0.6-0.4-0.8-0.4-1.2 0.3-0.6z" id="GBPLY" name="Plymouth">
  </path>
  <path class="england" d="M566.1 880l4.2 0.2 0.2 1.4 0.5 0.8 1.2 2.7-0.2 0.5-0.8 0.5-0.1 1.9-0.4 1.2-1.4 0.6-0.2 0.4 0.6 0.4 1.5 0.1 1.3 1.4 0.3 0.1 0.5-0.8 0.9 0.4-0.1 1.7 0.7 1.6 0.1 2 0.7 1.1 0.5 2.6 1.8 1.3-0.2 2.8 0.8 0.5 0.5 1.2 0.1 1.6 2.6 0.7 0.3 0.5 0.3 1 1 0.4 0 0.6-0.4 0.3-1.3 0-0.1 0.8-0.5 1-0.3 0.6 0.3 0.4 0.3-0.5 0.5-0.1 0.5 1-0.1 0.2-0.3 0.5-0.5 0.3-0.6 0 0 0.4 0.7 0.5 0.2 0.7-0.2 0.8-0.4 0.6-0.6 0.2-2.3-0.2 0.8 1.1 2.7-0.4 1 0.8-1.6 0.4 0 0.5 0.4-0.1 0.9 0.1-0.3 0.6 1.3 0 0 0.5-0.5 0.1-0.4 0.4 0 0.5 0.2 0.5 0 0.5-1-0.1-0.5-0.9-0.4-1-0.8-0.5-4-1.1-2.2 0.3-3.4 2.1-1.8 0.7-7.7 0.5 0 0.1-0.1 0.2-0.3 0.2-0.2 0-0.7-2-0.3-0.1-0.3 0.2-0.2 0.3-0.3 0.1-1 0.1-0.9 0.3-0.5 0.6 0.3 1 0 0.5-0.3 0.3-0.4 0.5-0.4 0.5-0.2 0.5 0.1 0.4 0.2 0.5 0 0.3-0.5 1.4-0.1 0.4-0.5 0.5-2.3-0.4-0.9 0.4-0.8 1.1-0.9 0.4-2 0.7-0.6 0.7-1.9 3.3-0.6-0.9-0.3-2.6-0.6-0.5-0.9 0.3 0 0.6 0 0.8-0.6 0.8 0 0.5 0.3 0.2 0.7 0.8-0.4 0-0.3 0.1-0.5 0.4-0.5 0.4 0 0.5 0 0.6-0.2 0.5-0.4 0.4-1.5 0.6 0.5 0 0.4 0.1 0.7 0.4 0.2 0.1 0.5-0.1 0.3 0 0.1 0.4 0.1 0.9 0.2 0.2 0.2 0.6-0.6 1.4-1.3 2-0.5 0.1-0.9-0.2-0.6 0.1-0.3 0.3-1.4 1.6-0.5 1.8-0.2 0.3-0.4-0.1-0.5-0.4-1.4-1.6-0.2-0.3-0.2-0.5-0.2-1 0.1-0.5-0.1-0.6-0.3-0.7-1.3-2.2-0.8-0.9-0.9-0.7-2.8-1.3-1.9-0.4-1.6-0.9-0.8-0.4-0.9 0.1-1.3 0.4-0.9 0.8 0 1 0.3 1.3-0.5 0.9-0.8 0.7-0.7 0.4-1.9 0.6-2.3 0.2-1.8-0.6-0.5-2.3 0.5 0 0.3-0.2 0.2-0.3 0-0.4-0.1-0.4-0.1-0.2-0.1 0-0.3-1.3 0-0.8 0.1-0.4 0.1-0.2 0.9-1.5 0.4-0.3 1.3-0.5 3-1.7 1.6-0.6 1.8-1.2 1.1 0 1.4 1.4 1 0.5 0.9-0.6 0.7-1.1 0.3-0.7 0.2-0.7 0.2-0.3 1.7 0 1.7-1 5.4-5.6 1.7-1.2 0.7-0.2 0.1-0.4 0.1-0.9-0.1-0.9-0.3-1.5 0.5-0.3 0.7-0.1 0.4 0 3.2-1.7 0.1-0.4 0.5-1 0.4-2.9 0-1.5 0.2-1.3 0.4-1 1-0.7 0.9 0 0.4-0.3 0.6-0.7 0.3-0.1 0.3 0.4 0.2 0.9 0.1 1 0.1 0.8 0.3-0.2 0.1-0.1 0.2-0.2 0.8 0.5 2 0.1 0.7 0.4-0.5-1-0.8-0.5-1.5-0.6-0.8-0.9 0.1-0.7 0.2-0.6-0.2-0.8 0-0.4 1.2 0.2 3.4-0.2 1.4-0.5 0.7-1.1 0.6-1.3 0.7-1.2-0.3-1.1 0.2-0.8 0.5-0.4 0.6 0.2 3.3-2.8 0.6-1 0.3-1.3 0.9-1 2-1.5 1.2-2.5-0.2-6.6 0.3-1.9z" id="GBCON" name="Cornwall">
  </path>
  <path class="england" d="M670.4 868.1l-0.6 1.4 0.5 1.7-1.9 1.9-0.3 0.7 0 0.6 1.5 0.7 0.1 0.5-3 1.3-1.5-0.4-0.2 0.2-0.2 1.1-0.5 0.1-0.8-0.8-1.2-2.4-2.2-0.5-0.1 0.2 0.1 0.8-0.4 0.7-0.5 0.2-0.6-0.5-1.1 0.5 0.1 1.4-0.4 1-0.1 1.4-0.5 1 0.4 1.6-0.3 0.3-1.8-0.1-2.9 1.4-2 0.1-1.4 0.9-0.9-0.5-0.8 0.7-4.5 0.8-1.3 1.4-0.7-2.1-0.7-0.7-0.7 0.2-0.5-0.3-1.3 0.7 0.2-1.2-1-0.7 0.2-1.6-0.2-0.5-2-0.1-2.6 0.8-1.5-1.3 1-2.6-3 0.4-2.2-0.3-2.5-2.3-2.3-0.2-0.2-2-0.3-0.7-0.9-0.1-1-0.8-1.1 0.3-1.4-0.8-1.5 0.4-0.4 0.4-0.1 0.9-0.5 0.5-3.3-0.4-0.4-0.9 0.6-1.1 0.3-1.2-0.4-0.6-1.8 0.1-2-1.5-1.8-0.1-1.6-1.8-1.1-0.3-1.8-1.3-0.6-1-0.1-2.2 0.3-0.4 2.4 0.3 2.1-0.4 0.4-2-0.2-1.2 0.3-0.7 0-0.1 0.1-0.5 3.4 0.9 3.8-0.1 5.8 1.4 1.4 1.3 0.9 0.4 5.4-0.2 3.3-1.1 1.7-0.2 3.1 0.2 1.9-0.3 1.3-0.9 0.3 0.5-0.6 1 0.6 0.6 0.8-1.6 0.2-0.5 0.1-1-0.1-0.5-0.2-0.4-0.1-0.7 0-2.8-0.1-1.4-0.6-0.9 0.9 0.3 0.5-0.2 0.1 0 0.1 0.3 0.5 0.4 0.1 1.4 0.9 0.2 1.3-0.6 1.8 0.9 0.3 0 0.2-1.1 2 0.5 2.3-0.2 0.1-0.2-0.2-0.3-1.2-1.1-0.1-0.3 0.3-0.3 3.8 0.3 0.8 0.2 2.1 0.6 0.3 0.7 1.1 0.3 0.2 0.8 0.6 0.4 1.4 0 1.1-1 1.3-0.3 2.2 0.8 0.2 1 1.4 0.2 1.7-0.7 0.8-1.2 2.8-0.1 2.6-1.9 0.5-0.1 0.6 0.8-0.4 0.7 0.2 0.8 1.3 0.8 0.3 1.6-0.7 1.5-0.7 2.6-3.8 6.8-0.2 1 0.2 0.7 1.2 0.9z" id="GBSOM" name="Somerset">
  </path>
  <path class="england" d="M652.1 850.4l-0.8-0.2-3.8-0.3-0.3 0.3 0.1 0.3 1.2 1.1 0.2 0.3-0.1 0.2-2.3 0.2-2-0.5-0.2 1.1-0.3 0-1.8-0.9-1.3 0.6-0.9-0.2-0.1-1.4-0.5-0.4-0.1-0.3-0.1 0 0.2-0.7 0-1.2 0.4-0.7 0.7-0.7 0.3-0.7-0.8-0.7 1.1-1.1 1.5 0.3 1.7-1.7 3.2-4.2 0.8-0.7 0.8-0.5 0.9-0.3 1.2-0.1 0.3-0.1 0.4 0.3 0.8 0.9 0.9 0.6 0.8 0.4 1.1 0.9 0.7 0.9 0 1 0 0.9 0 1.3-0.1 0.9-0.1 0.5-0.1 1-0.5 1.4-0.4 0.4-0.6 0.2-0.6 0-0.5-0.3-0.5-0.6-0.3 0-0.3 0.8 0.1 1.2 0 0.5z" id="GBNSM" name="North Somerset">
  </path>
  <path class="england" d="M655.8 845.8l0.1-0.5 0.1-0.9 0-1.3 0-0.9 0-1-0.7-0.9-1.1-0.9-0.8-0.4-0.9-0.6-0.8-0.9-0.4-0.3 0.6-0.3 1-1 0.8-1.4 0.1 0.3 0.5 0.5 1.4 0.9 1.8 0.9 1.2 0.8 1.2 0.4 0.8 0.1 0.5 0.6 0 0.8 0 1.4-0.1 1.5-0.1 0.3-0.2 0.8-0.6 1.1-1 1-2.1 0-1.3-0.1z" id="GBBST" name="Bristol">
  </path>
  <path class="england" d="M660.4 823.9l0.2 0 2.1 1 0.4 1.5 1.6-0.7 3 1 0.2 0.1-0.1 1.2-0.3 1.1 0.3 0.7 0.6 0 1-1.1 2 0.2-0.3-1.3 1 0 0.6 0.8-0.6 1.2 0 0.6 0.7 0.9 0.5 0.7-0.1 1.5 0.8 2.2-1.6 0.6-1.6 1.3-0.3 0.7 0.4 0.3 1.2-0.1 0.2 0.5-0.3 1.1 0.4 3-2.1 0.4-3.4 0.9-2.1-0.1-1.5 0-1.4-0.1-0.9-1 0.1-0.3 0.1-1.5 0-1.4 0-0.8-0.5-0.6-0.8-0.1-1.2-0.4-1.2-0.8-1.8-0.9-1.4-0.9-0.5-0.5-0.1-0.3 3.3-5.7 0.4-0.3 0.5-0.2 0.4-0.3 0.2-0.7 0.1-0.6 0.3-0.7 0.3-0.7 0.2-0.4 1-1z" id="GBSGC" name="South Gloucestershire">
  </path>
  <path class="england" d="M642.1 698.3l-0.1 0.2-0.3 0.7-0.5 0.3-1.3-0.6-2.4 0.3-2-1-1.3 1.5-0.7-1.2-1.2-2.5-1.7-2.2-0.6-1.2-0.1-1.2 0.5-0.8 0.9-0.5 2-0.3 0.9-0.3 1.7-1.4 1.1 0.1 1.1 1.3 2.8 7.3 0.8 1.1 0.4 0.4z" id="GBWRL" name="Halton">
  </path>
  <path class="england" d="M658.8 697.7l-2.7 1.4-3.2-0.2-1.8 0.4-1.9-0.6 1.3-0.8-0.3-1 0.1-0.7 0.4-0.5 0.4-0.5 0.4 0.2 0.4-0.1 0.4-0.2 0.4-0.5-0.6 0-2.4 0.5-0.5 0.4-0.3 1.1-0.9 0.4-0.5 0 0.1-0.6 0.3-1.2 0.7 0.6 0.3-0.4 0.4-0.6-0.1-0.9 0.1-0.3 0.9-1.1 0.6-0.8 2.8 0.8 0.9 1.7 1.5 1.2 0.8 0.1 0.3 0.2 0.7 1 0.5 0.8 0.5 0.2z" id="GBHAL" name="Halton">
  </path>
  <path class="england" d="M650.2 692.5l-0.9 1.1-0.1 0.3 0.1 0.9-0.4 0.6-0.3 0.4-0.7-0.6-0.3 1.2-0.1 0.6-1.5-0.2-1.5-0.6-0.1-3.3 0.2-1.9-1.2-0.7-0.3-1 0.9-0.9-0.6-2.7-1.6-2.2 1.2-0.9 0.5-1.4 1.5 0.3 1.2 0.7 1.1 1.5 0.5 1.9 0.5 2.9 0 2.1 1.9 1.9z" id="GBKWL" name="Knowsley">
  </path>
  <path class="england" d="M641.8 683.5l1.6 2.2 0.6 2.7-0.9 0.9 0.3 1 1.2 0.7-0.2 1.9 0.1 3.3-0.5-0.2-1.8-1.2-1.5-1.7-1.1-1.7-3.2-6.9 2-0.3 1.7-0.2 1.7-0.5z" id="GBLIV" name="Liverpool">
  </path>
  <path class="england" d="M643.5 681.2l-0.5 1.4-1.2 0.9-1.7 0.5-1.7 0.2-2 0.3-2.3-5-0.2-1.1 0.1-1.1 0.6-1.3 3-5.1 2.5-3.3 0.4-0.2 0.4-0.9 0.2-0.1 0 0.1 0.1 0.3 0.6 3.5-1.4 2.7-1-0.3-0.5 0.3-0.1 1-1 1.6 0.3 1.3-0.2 0.9-0.7 0.4 0 1.5 3.4 2-0.4-1.9 0.1-0.4 0.5 0 2.1 1.6 0.6 0.2z" id="GBSFT" name="Sefton">
  </path>
  <path class="england" d="M646.3 630l0.1-0.1 1.1-0.4 0.9-1.4 2.8 0.6 1.1 1.5 1.8 0.5 0.4-0.3 0.2-1 1.4-2 2.4 0.3 2.1-1 3.5-2.4 0.4 0.6-0.2 1.1-2.8 3.6-0.3 1-1.3 0.7-0.2 1.8 0.3 1.2 1.2 1.3 2.4 1.4 0.4 0.6 0 2 0.5 0.6 1 0.1 2.2-0.6 1.2 0.3 0.3 0.4 0.1 1.2 0.4 0.3-0.5 1.3 0.6 0.9 1.7 0.1 0.6 1.5 0.6 0 2.1-1 0 0.8 0.3 0.4 1.5 0.2 0.5 0.9 0.2 1.4 3.3 1.7 0.3 2.1 1.5 2.1 1.6 1.2-0.2 1.1-0.5 0.7-2.3 1.1-1.1 1.5-0.1 2.9-1.8 2.4 0.5 1.6-0.1 0.6-3.5 2-0.9 0.8-0.4 1.2 0.1 2.1-0.3 0.5-0.8-1-0.2-3.1-0.6-0.1-1.7 0.7-1.2-0.7-0.1 0.2-0.3-0.8-0.8-2.6-0.9-2.4-0.9-2.2-1.3-0.6-1.1 0.3-1.2 0.6-0.8 0.7-0.6 1.2-0.1 1.4-0.1 1.9 0.1 1.6 0 1.7 0.7 1.5 0.4 0.6-2.6 2.2-0.8-0.9-0.6-0.2-1.3 1.4-0.3 0-0.5-0.9-2 0.4-0.5 0.2-0.4 1.9 0.2 1.2-0.6 0.9-0.4 1.5-1.8 1.5-0.7-1.3-0.5-0.1-1.1 0.9-0.3 0.6 0.1 1.3-0.5 0.2-1.1-1.5-1.2-0.7-1.5-0.3-0.6-0.2-2.1-1.6-0.5 0-0.1 0.4 0.4 1.9-3.4-2 0-1.5 0.7-0.4 0.2-0.9-0.3-1.3 1-1.6 0.1-1 0.5-0.3 1 0.3 1.4-2.7-0.6-3.5-0.1-0.3 0-0.1 1.7-1.2 0.6-0.8-4-0.1-1.7-0.8 3.1-4.9 0.4-3.1-1-3.9-2.4-2.8 4.3-1.7 0.8-0.1 0.6 0.5 0.4 0.1 0.1-0.3 0.2-0.5 0.4-0.4 0.4-0.3 0.3-0.2-0.5-0.9 1.6-1.6 0.2-1.3-0.8 0.6-0.8 0.3-1.4 0.2-0.3-0.2-0.7-1.8-0.1-0.6 0.3-0.4 0.5-0.4 0.4-0.4 0.9-1.8 0.7-0.7 1.5-0.6 0.5-0.8 0.9-2.1-0.8-1.2-1.1-2.2z" id="GBLAN" name="Lancashire">
  </path>
  <path class="england" d="M637.8 648.8l2.4 2.8 1 3.9-0.4 3.1-3.1 4.9-1.3-1.8-0.4-2.7 0.6-6-0.6-2.2 0.8-1.4 1-0.6z" id="GBBPL" name="Blackpool">
  </path>
  <path class="england" d="M728.5 895.6l0.9 1.5 0 0.6-0.2 0-0.1 0.1-0.1 0.2-0.2 0.2-1.7 0.5-0.8 0.4-1.3 1.1-0.2 0.4-0.2 0.3 0.1 1.6-0.1 0.9-0.1 0.3-5.2 1.6-1.7-0.5-6.1-4.4-0.4-0.4-1.5-1.2-0.6-0.2-1.7 0.2-0.8 0.4-0.8 0.5 1.1-2.1 1.9-1.6 4-1.9-0.1 0.2-0.1 0.5-0.1 0.3 1.2-0.2 1.1-0.9 1.6-1.9 1.1-0.9 1.1 0 7.1 2.9 1.2-0.1 0.4 0.1 0.6 0.5 0 0.2 0 0.6 0 0.2 0.1 0 0.4-0.1 0.2 0.1z" id="GBIOW" name="Isle of Wight">
  </path>
  <path class="england" d="M484.1 952.7l0.3 0.2 0.4 0.7-0.1 0.6-0.5 0.3-0.6-0.2 0.1-1.1 0.4-0.5z m-1.6-1.8l0.3 0.2 0 0.6-0.2 0.5-0.5-0.2-0.3-0.8 0-0.6 0.3 0 0.3 0.2 0.1 0.1z" id="GBIOS" name="Isles of Scilly">
  </path>
  <path class="england" d="M773 843.1l-1-0.1-1-0.6-0.1-0.1-0.2-0.4-0.2-0.2-0.1 0-2.7 0.3 0-0.4 0.1-0.6 0-0.1-0.1-0.4 0-0.1 0-0.2 0.1-0.3 0.1-0.1 0.8 0 0.1 0 0-0.1 0.4-0.7 0-0.1 0.2 0.2 0.5 0.3 0.9-0.3 0.4-0.1 0.7-0.4 0.6-0.5 0.3-0.2 0.4-0.4 0.3 1.2-0.1 0.3-0.1 0.1-0.7 0.8-0.1 0.1 0 0.1 0 0.1 0.1 0.2 0.1 0.4 0.1 0.1 0.1 0.1 0.1 0.1 0 1.9 0 0.1z" id="GBWND" name="Wandsworth">
  </path>
  <path class="england" d="M767.7 842l2.7-0.3 0.1 0 0.2 0.2 0.2 0.4 0.1 0.1 1 0.6 1 0.1-0.2 0.4 0 0.1 0 0.1 0.4 0.1 0.2 0.4 0.2 0.5 0 0.1 0 0.1-0.1 0.1-0.1 0.1-0.2 0.1-0.2 0.2-0.1 0.1-0.1 0.1-0.2 0-0.3-0.2-0.3-0.1-0.6 0.1-0.3 0.1-1.1 0.2-0.2-0.1-0.1 0-0.1 0.1-0.1 0.1 0 0.1-0.1 0 0 0.1-0.1 0-0.3-0.1-0.1-0.1-0.2-0.3-0.1-0.1 0-0.2-0.2-0.3-0.3-0.5 0-0.5-0.1-0.3 0-0.2 0-0.2-0.1-0.2 0-0.6-0.2-0.4z" id="GBMRT" name="Merton">
  </path>
  <path class="england" d="M773.2 837.5l-0.4 0.4-0.3 0.2-0.1-0.3-0.1-0.3 0-0.1-0.1 0-0.5 0.2-0.2-0.1-0.1 0-0.1-0.2-0.2-0.5-0.4-0.5-0.4-0.3-0.2-0.1 0-0.1 0-0.1 0-0.2 0-0.1-0.1 0-0.7-0.2 0.2-0.1 0.1-0.3 0.1 0 0.2 0.1 0.1 0.1 0.4 0.1 0.1 0 0.1-0.1 0.2-0.2 0.4-0.3 1 0 0.1 0.1 0.1 0.1 0.1 0.2 0.2 0.3 0.8 1 0.1 0.1 0.2 0 0.1 0.4-0.7 0.8z" id="GBWSM" name="Westminster">
  </path>
  <path class="england" d="M772.5 838.1l-0.6 0.5-0.7 0.4-1.3-1.4-0.2-0.2-0.1-0.3 0-0.6 0-0.1 0-0.1-0.4-0.3-0.1 0 0-0.1 0-0.1 0-0.3 0-0.1 0.2-0.2 0.7 0.2 0.1 0 0 0.1 0 0.2 0 0.1 0 0.1 0.2 0.1 0.4 0.3 0.4 0.5 0.2 0.5 0.1 0.2 0.1 0 0.2 0.1 0.5-0.2 0.1 0 0 0.1 0.1 0.3 0.1 0.3z" id="GBKEC" name="Kensington and Chelsea">
  </path>
  <path class="england" d="M767.7 837.3l0.2 0.1 0.1 0.1 0 0.1 0.1 0.2 0 0.1-0.5 0.1-0.6 0.7-0.5 0.2-1.8 0.1-0.6 0.6 0.3 0.6-2.3 0.4-0.1 0.1-0.4 0.4 0 0.2-0.1 0 0 0.1 0.1 0 0 0.1 0.1 0.1 0.1 0 0.7 0.1 0 0.1-0.5 0.4-0.4 0.5-0.1 0.3-0.3 0.4-0.8-0.9-1.4-0.4-0.4-0.5-0.1-1.2 0.2 0.1 0.5 0 0.2-0.1 0.2-0.2 0-0.1 0-0.6 0.2-0.3 0.4-0.5 0.6-1.3 1.3 0.4 1.2-0.4 1.8 0.3 0.1 0 0.4-0.4 0.9-0.1 0.6 0.3 0.3 0 0.3-0.2z" id="GBHNS" name="Hounslow">
  </path>
  <path class="england" d="M767.7 837.3l-0.3 0.2-0.3 0-0.6-0.3-0.9 0.1-0.4 0.4-0.1 0-1.8-0.3-1.2 0.4-1.3-0.4 1-1.5 0-0.3 0.1-0.1-0.1 0 0-0.2-0.1-0.1-0.2-0.1-1-0.1-0.2-0.1-0.1 0 0-0.1-0.1-0.1 0-0.1 0-0.1 0.1 0 0-0.1 0.6-0.1 1.2-1 1.9-0.1 0.9 0.3 0.3 0.2 0 0.1 0.1 0.1 0 0.6 0 0.1 0.1 0 0.1 0.1 0.5-0.2 0.3 0 0 0.1 0.1 0.2 0 0.1 1.8 0 0.1 1.3-0.1 0.3-0.1 0.4-0.3 0.4z" id="GBEAL" name="Ealing">
  </path>
  <path class="england" d="M771.2 839l-0.4 0.1-0.9 0.3-0.5-0.3-0.2-0.2-0.6-0.8-0.5-0.2 0-0.1-0.1-0.2 0-0.1-0.1-0.1-0.2-0.1 0.3-0.4 0.1-0.4 0.1-0.3-0.1-1.3 0.4 0 0.2 0.1 0.2 0 0.1 0.1 0.3 0.1-0.2 0.2 0 0.1 0 0.3 0 0.1 0 0.1 0.1 0 0.4 0.3 0 0.1 0 0.1 0 0.6 0.1 0.3 0.2 0.2 1.3 1.4z" id="GBHMF" name="Hammersmith and Fulham">
  </path>
  <path class="england" d="M713 595.2l0-0.5 0.8-0.7 0.4-1 0.7 0.6 2.5 0.6 2.7 0.4 2.3 0-0.2 0.9-0.1 1.7-0.6-0.2-0.8 0-0.5 0-0.5 0.4-0.3 0.5-0.4 0.9-0.4 0.9-0.2 1.1-0.1 1.2 0.4 1.1 0.9 0.6 1 0.6-3.6 2-0.3-0.4-1.3 0-0.4-1.7-0.5-0.4-0.3 0.4-1-0.3-0.4 1.2-0.7-0.3 0.6-1 0.4-1.5-1.1-1.9 0.5-1.6 1.1-0.7 0.1-0.6 0.1-1.1-0.8-1.1 0-0.1z" id="GBSTT" name="Stockton-on-Tees">
  </path>
  <path class="england" d="M700.4 600.8l0-1 0-1.3 0.1-1.6 0.3-1 1-0.4 1.1 0 1.5 0.7 1.1 1.2 1.2 0.1 1.1 0 1.9-0.1 1.6-0.6 1.4-1.5 0.3-0.1 0 0.1 0.8 1.1-0.1 1.1-0.1 0.6-1.1 0.7-0.5 1.6 1.1 1.9-0.4 1.5-0.6 1-0.2-0.8-0.5-0.6-0.6 0-0.3 0.3 0 1 1 2.5-0.2 0.5-0.5 0.3-0.6-0.5-0.5-1.9-0.5-0.6-1.5-0.2 0.3 1.2-0.6 0.1-2.1-2-0.6-1.5-0.5-0.3-1.4 0.3-0.2-0.1-0.3-1.1-1-0.6-0.9 0z" id="GBDAL" name="Darlington">
  </path>
  <path class="england" d="M722.1 597.2l0 0.7 0.1 1 0.3 1.1 0.5 1.2 0.6 1.1 0.3 0.7-1-0.2-1.6 0.5-0.6 1-0.1 0-1-0.6-0.9-0.6-0.4-1.1 0.1-1.2 0.2-1.1 0.4-0.9 0.4-0.9 0.3-0.5 0.5-0.4 0.5 0 0.8 0 0.6 0.2z" id="GBMDB" name="Middlesbrough">
  </path>
  <path class="england" d="M769.2 838.9l0 0.1-0.4 0.7 0 0.1-0.1 0-0.8 0-0.1 0.1-0.1 0.3 0 0.2 0 0.1 0.1 0.4 0 0.1-0.1 0.6 0 0.4-0.3-0.1-0.1 0-0.5 0.5-0.7 0.2-0.1 0-0.6-0.4-0.1 0-0.1 0-0.1 0-0.1 0.1 0 0.1 0 0.3 0.2 0.6 0 0.7-0.1 1 0 0.1-0.3 0.5-0.2-0.6-1.1-0.5-0.7 0 0-0.1-1.1-0.9-0.5-0.1 0.3-0.4 0.1-0.3 0.4-0.5 0.5-0.4 0-0.1-0.7-0.1-0.1 0-0.1-0.1 0-0.1-0.1 0 0-0.1 0.1 0 0-0.2 0.4-0.4 0.1-0.1 2.3-0.4-0.3-0.6 0.6-0.6 1.8-0.1 0.5-0.2 0.6-0.7 0.5-0.1 0.5 0.2 0.6 0.8z" id="GBRIC" name="Richmond upon Thames">
  </path>
  <path class="england" d="M775.8 835.7l0.1 0.1 0 0.1 0.1 0.1 0.1 0.1 0 0.1 0 0.1-0.1 0-0.8-0.3-0.6 0.2 0.1-0.5-0.2-0.2 0-0.1-0.1-0.2 0-0.1 0.2-0.1 0.2-0.1 0.3 0 0.1 0 0.4 0.2 0 0.1 0.1 0.2 0.1 0.3z" id="GBLND" name="City">
  </path>
  <path class="england" d="M776.1 836.3l0-0.1 0-0.1-0.1-0.1-0.1-0.1 0-0.1-0.1-0.1 0.2-0.3 0-0.4 0.1-0.1 0-0.1 0.4-0.1 0.2-0.2 0.8 0 0.2-0.1 0.2-0.1 0.2-0.4 0.6-0.3 0.1 0.8 0.6 1.5 0.2 0.2 0.2 0.1 0.1 0.1 0.2 0.4-0.5 0.2-0.1 0-0.1 0.1 0 0.5 0 0.2 0 0.2-0.1 0.3-0.1 0.2-0.1 0-0.1 0-0.3 0-0.3-0.2-0.3-0.5 0-0.5-0.7-0.1-0.5-0.3-0.8-0.5z" id="GBTWH" name="Tower Hamlets">
  </path>
  <path class="england" d="M693.9 570.5l-1.3-0.7-0.1-0.6 1.4-0.8 1-3.5 0.3-0.4 1.2-0.5 0.1-1.1 0.7-0.4 1.9 0.6 2.5 1.5 3.7 1.2 2.1 0.6 0.6 1.2-0.3 1.5-1.4 0.2-1 2.7-0.8-0.6-2.6-0.2-2.4 0.1-3-0.3-2.6-0.5z" id="GBGAT" name="Gateshead">
  </path>
  <path class="england" d="M697.2 562.5l1-2.1 1.5-0.4 0.8-0.7 0-0.6-0.9-0.6 0.1-0.8 0.4-0.5 1.8 0.3 1.1 1.9 2.7 2.4 3.7 2.7-1.3 1.2-0.7 1.1-2.1-0.6-3.7-1.2-2.5-1.5-1.9-0.6z" id="GBNET" name="Newcastle upon Tyne">
  </path>
  <path class="england" d="M735.1 653.9l-1.3-0.3-2.6 1.1-2.6 0-2.9-0.2-1.7-1.4-1.9-3-0.7-2.4 0.1-1.9 0.8-0.5 0.9-0.3 0.8-0.1 0.7-1.3 0.3-1.5 0.5-1 1.1-0.4 1.4-0.6 2.1 0 1 0.1 0.9 0.9 0.2 1.6 0 1.4 0.7 1.3 1.6 0.2 1.2 0-0.1 0.2 0.5 2-0.9 4.2-0.1 1.9z" id="GBYOR" name="York">
  </path>
  <path class="england" d="M653.6 692.5l-2.8-0.8-0.6 0.8-1.9-1.9 0-2.1-0.5-2.9-0.5-1.9 0.5-0.2-0.1-1.3 0.3-0.6 1.1-0.9 0.5 0.1 0.7 1.3 2.9 3.1 0.7-0.7 1.2 0.6 2.1 0 0.2 1.1 0.8 0.7 0.8 1.1-2.4 0.4-1.1-0.8-1.2 0-0.2 0.8 0.4 0.6 0 1 0.8 0.7-0.2 0.8-1.5 1z" id="GBSHN" name="Merseyside">
  </path>
  <path class="england" d="M778.7 823.5l0.2 0.9-0.3 1.2 0.5 0.2-0.5 0.8 0 0.1-0.1 0 0 0.1 0 0.1 0 0.1 0 0.1 0 0.1-0.1 0.3 0 0.2 0 0.1-0.1 0.1 0 0.1-0.1 0-0.2 0.2-0.1 0.1-0.1 0.1 0 0.1 0 0.2 0 0.1 0 0.1 0 0.1 0 0.1 0 0.1 0 0.1-4.7-0.5 0.5-1.5-2.2-1.8 0-1.5 0.4-0.4 0.5-1 6.4 0.9z" id="GBENF" name="Enfield">
  </path>
  <path class="england" d="M783 798.9l0.1 1.4 1.3 0.8 0.1 1.7 0.6 1.4 0.2 2 0.5 1.7 2.3-0.5-0.2 0.8 0.5 0.6 0.1 0.5-1.2 1.3 0 1.7 0.8 0.7-1.3 0.8-0.2 1.2-2.3 1-3.4 0.6-1.7 2.7-0.5 4.2-6.4-0.9-0.5 1-0.4 0.4-0.3 0.4-1.3 0.3-0.8 0.6-0.5-1.1-0.5-0.3-0.3 0.4-0.4 1.7-1.9 0.5-1.2 0.3-2.5 1.5-1.2-0.1-1.5 0-1.3 0.3-0.5-0.5-0.6 0.2-0.2 1.3-0.3 0.5-1.2-1.2-0.3-1.3 0.1-1.2 1.2-2 0-0.6-0.4-0.3-1.5 0.3-0.1-1.4-0.5-1.1 0.1-0.6 1.2-0.9-0.2-0.5-0.7-0.3-1.1 0.5-1.1-1.3-2 0-1.4-0.7-0.6-0.8 0.1-1.3-0.3-0.7-0.8-1-0.7 0-0.9-1.5 0.8-1.5 0.5-0.1 1.3 0.5 0.1 0.5-0.2 0.5 1.1 1.4 1.8 0.1 1.6 0.6 1.3-1.5 0.9 0.2 0.9 1.3 0.3 0 0.8-1 0.4-1.5 0.8-0.9 0.6 0 1.6 0.3 1.8 1.4 0.7-0.1 0.3-0.8 0.9-0.6 0.2-0.5-0.6-1.1 0-1.2-0.9-0.8-0.2-1.2-0.6-1-0.7-1.1 0-1.5 0.6-1.2 0.5-0.6 0.2 1.7 0.2 0.5 0.3 0 0.8-1-0.4-0.9 0.2-0.5 1.7-0.2 1-0.7 1.1 1 0.6 0.1 0.8-1.4 1.7-1-0.2-1.5 0.9-1.3 1.3-0.7 0.5-1 0.6 0.3 0.2 0.5-0.3 1.1 0.8 0.7 0.1 0.8 0.4 0.4 1.9-1.1 1.8-0.5 0.9-0.9 0.5 0.2 2.4 0.5 1.4 3.1z" id="GBHRT" name="Hertfordshire">
  </path>
  <path class="england" d="M771.4 824l0 1.5 2.2 1.8-0.5 1.5 0 0.1-0.1 0.2-0.1 0.3-0.1 0.2 0 0.1-0.1 0-0.1 0-0.1-0.1 0-0.2-0.1-0.1-0.1 0-0.1 0.1 0 0.1 0 0.1 0.2 0.7-0.1 0.1 0 0.2-0.2 0.2-0.3 0.1-0.1 0.1-0.1 0.9-0.6 0.3-0.2 0.2-0.1 0.2-0.2 0.2-0.9 0.2-1-1.1 0-0.1-0.1 0-0.1 0-0.1 0.1-0.1 0.1-0.1-0.1-0.2-0.2-0.1-0.3-0.1-0.3 0-0.3 0-0.1 0-0.1-1-1.3-1.2-2.1-0.1-0.7 1.9-0.5 0.4-1.7 0.3-0.4 0.5 0.3 0.5 1.1 0.8-0.6 1.3-0.3 0.3-0.4z" id="GBBNE" name="Barnet">
  </path>
  <path class="england" d="M779.1 825.8l0.1 0.1 1 0.7 0.3 0.8-0.4 0.2 0 0.1-0.1 0.2 0 0.1 0.1 0.1 0.2 0.2 0 0.2 0.1 0.2 0 0.2-0.2 0.6-0.1 1 0.3 1.1-0.1 1.2-1.6 0.1-0.5-0.5-0.1 0-0.6 0.1-0.2-0.1-0.4-0.4-0.2-0.6 0.1-0.3 0.1-0.1 0-0.2 0.1 0 0-0.2 0.1-0.1 0-0.1 0.1-0.1 0-0.1 0.2-0.2 0-0.1 0.1-0.1 0.1-0.2 0-0.1 0.2-0.2 0-0.1 0-0.1 0-0.1 0-0.1 0-0.1 0-0.1 0-0.2 0-0.1 0.1-0.1 0.1-0.1 0.2-0.2 0.1 0 0-0.1 0.1-0.1 0-0.1 0-0.2 0.1-0.3 0-0.1 0-0.1 0-0.1 0-0.1 0-0.1 0.1 0 0-0.1 0.5-0.8z" id="GBWFT" name="Waltham Forest">
  </path>
  <path class="england" d="M780.5 827.4l0.1 0.4 2.5 1.5 0.6-0.1 0.8-1 1.7-0.2 0.1 0.4 0 1-0.5 0.4-0.1 0 0 0.2-0.1 0-0.1 1.4-0.3 1.1 0 0.3-0.1 0.1 0 0.1-0.1 0-0.2 0-0.4 0-0.2 0.1-0.1 0.1 0 0.1-0.1 0.1-0.1 0.1-0.4-0.1-0.8 0.3-0.1-0.6-0.1-0.2 0-0.1-0.4-0.2-0.1 0-0.3-0.4-0.2-0.1-0.1 0.1-0.1 0-0.3 0.4-0.1 0.1-0.6 0.1 0.1-1.2-0.3-1.1 0.1-1 0.2-0.6 0-0.2-0.1-0.2 0-0.2-0.2-0.2-0.1-0.1 0-0.1 0.1-0.2 0-0.1 0.4-0.2z" id="GBRDB" name="Redbridge">
  </path>
  <path class="england" d="M786.2 828l1.6-0.1 2.2-0.7 0.8 0.1 0.2 0.8 0.9 1.7 0.6 0.8 1.1 0.4 0.4 1.2 0.2 0.3 0.7 1.4-2.6 1-0.3 0.7-1.2-0.2-0.3 1.6-0.8 0.7-0.8 0.4-0.8 0.1-0.1-0.1-0.9-1.2-0.1 0 0-1.2 0.1-0.4 0-0.1 0.1-0.2 1-1.8 0-0.1 0.1-0.3-0.1 0 0-0.1-0.2-0.3-0.1-0.1 0-0.2 0-0.1 0-0.1-0.1 0-0.1 0-0.7 0.4-0.1 0-0.1-0.1-0.1-0.1-0.2-0.4-0.1-0.5-0.3-0.4 0-0.1 0-0.2 0-0.1 0.1-0.2 0.1-0.8 0-1-0.1-0.4z" id="GBHAV" name="Havering">
  </path>
  <path class="england" d="M776.9 748.6l2.3 0.8 1.5 0 0.7-0.7 0.5-1-0.2-2.4 0.3-0.3 1.8-0.2 2.4-1.4 1.1 0.1-0.7 4.2 1.8 0.7 0.2 0.8-0.8 1.1 0 0.5 2.9 2.2 0 0.3-1.2 1-0.1 0.9 0.5 0.9-0.5 1.4 0.2 1.6 0.6 0.5 0 0.7 0.8 1.5 0.5 0 1.1-1 2-0.2 1.6 0.9 0.1 0.6 1.5 2.1 2.3 1.8-2.5 1.9-0.2 0.4 0 0.9 1.4 2.7 1.3 1.2 0.1 0.6-0.7 1.1 0 0.6 1.8 0.1 1.8 2.1 0 0.5-0.7 0.7-3 0.9-2.3-1.8 0-0.5-0.7-0.5-0.8 2.5 2 2.5 0.8 0 0.8-1 1 0.3 0.6-0.4 0.9 0.9 1.1-0.1 0.6 0.8 0 0.6-0.9 2.6 0.1 1.2-0.7 0.2-1.1-0.4-0.4 0.3-1 1.1-0.2 1.2-1.4 1.9 0.6 3.4-0.8 0.6 0.4 0.7-0.5 0.6-1.2-0.7-1.9-2.3-0.8-0.6-1-0.2-1.4 0.6-2.3-0.4-0.6 0.4 0 1.5-0.8 0.7-1.8 0.5-1.1-1.1-0.4 0.1 0.1 2.1-1.3 1.9-1.4-3.1-2.4-0.5-0.5-0.2-0.9 0.9-1.8 0.5-1.9 1.1-0.4-0.4-0.1-0.8-0.8-0.7 0.3-1.1-0.2-0.5-0.6-0.3 0.8-4-0.1-0.9-1.8 0.3-2.2-0.3-0.2-0.2 0.7-1.1-1.9-0.8-0.1-0.2 0.7-0.7-0.1-0.5-0.8-1-1.8-0.8 0-1.6-1.8-0.4-0.7 0.4-0.4-0.3-0.7-1.1-0.1-2-2.2-0.8-0.5-1.4-1.4-0.9-0.1-1.1-1.2-2 0.1-1.3 2.7-1.3 0.5-1 1.6-1.2 2-2.8 0.2-0.6-0.6-2.6-2.8-1.7 0.4-2-0.8-1 0.1-0.7 0.8 0.1 0.7 1 1.2 1.4 1.4 1.5 1.9 0.3 0.7-0.9 1.5-1.3 1.1-1.5 1-0.4 2.5-1.5 2.5-0.5 1.2-0.2 0.3-0.2 0.3-0.8 0-1.5 0-3.1z" id="GBCAM" name="Cambridgeshire">
  </path>
  <path class="england" d="M789.7 837.7l-0.3 0.3-0.1 0.6 0.3 0.4-0.5 1.1-1.4 1.5-1 1.5 0.3 1.4-1.4-1-1.3-0.1-0.7-0.6-0.6-0.8 0-0.1 0.3-0.7 0.1-0.2 0-0.4-0.1-0.8 0-0.2 0-0.1 0-0.1 0.3-0.3 0.1-0.1 1-0.2 0.1-0.1 0.1 0 0-0.1-0.1-0.7 0.1-0.9-0.1-0.3 0.4-0.1 1-0.1 0.8 0.4 0.1 0 0.9 1.2 0.1 0.1 0.8-0.1 0.8-0.4z" id="GBBEX" name="Bexley">
  </path>
  <path class="england" d="M768.7 845.5l0.2 0.3 0.1 0.1 0.3 0.1 0.1 0 0-0.1 0.1 0 0-0.1 0.1-0.1 0.1-0.1 0.1 0 0.2 0.1 1.1-0.2 0.3-0.1 0.6-0.1 0.3 0.1 0.3 0.2 0.2 0 0.1-0.1 0.1-0.1 0.6 0.7 0.1 0.2 0 0.2 0.3 0.9 0 0.2 0 0.2 0 0.5-0.1 0.3-0.1 0.1-0.5-0.1-0.2 0.1-0.2 0.1-0.1 0.3 0 0.1-0.1 1 0 0.1-0.2 0.1-1 0-0.7-1.4-0.4-0.1-1.5 0.9 0.1-1.9-1.2-1.5 0.3-0.4 0.1 0 0-0.1 0.2-0.2 0.1-0.1 0.2-0.1z" id="GBSTN" name="Sutton">
  </path>
  <path class="england" d="M738.6 796.5l0.5-0.5 0-1.4 1-0.2 0.3-0.2 0-0.6-1.1-1.1-0.7-1.2-0.5-0.3-0.1-0.8 2.5-0.8 0.6-0.8 0-0.6 0.3-0.5 1.4 0.4 0.7-1.2 1.5 0 3.5-2.3 1.6 1.3-0.5 2.2 2 2.2 0.7 1.6-2.1 1.7-0.1 0.2 0.3 0.7-1.2 0.5-0.8 1.3 0.9 0.2 0.4 0.6-0.2 1.8-1 1.3 0.6 2-0.7 1-1.4 0-1.6-0.1-2.7-2.1-2.8-2.6-1.3-1.7z" id="GBMIK" name="Milton Keynes">
  </path>
  <path class="england" d="M754.2 812.8l-0.9-0.2-1.3 1.5-1.6-0.6-1.8-0.1-1.1-1.4 0.2-0.5-0.1-0.5-1.3-0.5-0.5 0.1-0.8 1.5 0.9 1.5 0.7 0 0.8 1 0.3 0.7-0.1 1.3 0.6 0.8 1.4 0.7 2 0 1.1 1.3 1.1-0.5 0.7 0.3 0.2 0.5-1.2 0.9-0.1 0.6 0.5 1.1 0.1 1.4 1.5-0.3 0.4 0.3 0 0.6-1.2 2-0.1 1.2 0.3 1.3 1.2 1.2 1 3.1-0.6 4.2-0.6 1.3-0.7 0.1-0.4-0.9 0.1-0.9-0.2-0.5-1.6 0.2-0.2-1.4-0.3-0.3-0.6 0-0.2 0.5-1.5-0.8-1.3 0.3-0.2 0.5 0.3 1.2 0.3 0.8-1.2 0.1-0.8-0.2-1.1-0.9 0.1-0.8 0.5-0.9 0.2-1.5-0.5-0.8-1.1-0.3-1.1 0.1-0.8 0.5-0.7-0.1-3.4 1.1-1-0.3-0.6-0.3-0.3 0.2-2.1-1.7 0.2-0.8 0.8-0.7 0-0.5-0.3-0.4-0.7 0.1-0.5-1.4 0.6-1.2-0.5-0.7 0.7-0.3 0.2-1.4 0.4-0.2 1.7 0.4 0.1-0.3-0.4-1.2 0.3-1.2-0.3-1.2-1.3-1.9-2.5-1.1-1.2 0.5-1.3-0.3-1 0.7-1.2-0.6-0.7-1.6-1.3-0.5-0.3-2.6-0.7-1 0.2-0.5 0.4-0.3 2.2 1 1-0.7 0-0.8-0.7-1.4 0-1.2-0.7-0.7-0.2-0.8 0.3-1.6 1.3-1.6 0-0.2-1.2-0.1-0.4-0.6 0.3-1.2 1.1-1.9-0.3-0.3-2.3-0.9-1.6-0.7 1.1-1.3 1-0.7 2.8-0.7 0.7-0.9 1.5 0.2 1.9-0.9 0.4 0.2 1.9 4 0.5-0.1 1.1-1 1.3 1.7 2.8 2.6 2.7 2.1 1.6 0.1 1.4 0-0.6 0.9-0.8 2.6 1.2 0.4 1.7 1.6 1-0.3 2 1.9 0.5 1.2 0.8 0.9 0 0.6z" id="GBBKM" name="Buckinghamshire">
  </path>
  <path class="england" d="M760.8 837.4l-0.6 1.3-0.4 0.5-0.2 0.3 0 0.6 0 0.1-0.2 0.2-0.2 0.1-0.5 0-0.2-0.1-1.5-0.4-1.1-1.4 0.6-1.3 0.6-4.2-1-3.1 0.3-0.5 0.2-1.3 0.6-0.2 0.5 0.5 1.3-0.3 1.5 0 0.4 2.2 0.1 0.1 0 0.1 0 0.1 0.1 0.1 0 0.1 0 0.1 0.8 1.9 0.1 0.4-1.2 1-0.6 0.1 0 0.1-0.1 0 0 0.1 0 0.1 0.1 0.1 0 0.1 0.1 0 0.2 0.1 1 0.1 0.2 0.1 0.1 0.1 0 0.2 0.1 0-0.1 0.1 0 0.3-1 1.5z" id="GBHIL" name="Hillingdon">
  </path>
  <path class="england" d="M770.8 834.8l-0.2 0.2-0.1 0.1-0.1 0-0.4-0.1-0.1-0.1-0.2-0.1-0.1 0-0.1 0.3-0.2 0.1-0.3-0.1-0.1-0.1-0.2 0-0.2-0.1-0.4 0-1.8 0 0-0.1-0.1-0.2 0-0.1-0.3 0-0.5 0.2-0.1-0.1-0.1 0 0-0.1 0-0.6-0.1-0.1 0-0.1-0.3-0.2-0.9-0.3 0.1-0.5 0.1-0.1 0-0.4 0.1-0.2 0.2-0.1 0-0.1 0.1 0 0-0.1 0-0.2 0-0.2 0.1-0.1 1.4-0.5 0-0.1 0.1 0 0-0.1-0.1-0.2 0-0.1 0.7-0.9 1 1.3 0 0.1 0 0.1 0 0.3 0.1 0.3 0.1 0.3 0.2 0.2 0.1 0.1 0.1-0.1 0.1-0.1 0.1 0 0.1 0 0 0.1 1 1.1 1.1 1.3 0.1 0.5z" id="GBBEN" name="Brent">
  </path>
  <path class="england" d="M761.2 805.1l0.6 1 0.2 1.2 0.9 0.8 0 1.2 0.6 1.1-0.2 0.5-0.9 0.6-0.3 0.8-0.7 0.1-1.8-1.4-1.6-0.3-0.1-0.3-0.8-1.2-0.3-0.8 0-1 0.3-1.1 0.3-0.7 1 0 1.9-0.1 0.9-0.4z" id="GBLUT" name="Luton">
  </path>
  <path class="england" d="M763.9 833.2l-1.9 0.1-0.1-0.4-0.8-1.9 0-0.1 0-0.1-0.1-0.1 0-0.1 0-0.1-0.1-0.1-0.4-2.2 1.2 0.1 2.5-1.5 1.2-0.3 0.1 0.7 1.2 2.1-0.7 0.9 0 0.1 0.1 0.2 0 0.1-0.1 0 0 0.1-1.4 0.5-0.1 0.1 0 0.2 0 0.2 0 0.1-0.1 0 0 0.1-0.2 0.1-0.1 0.2 0 0.4-0.1 0.1-0.1 0.5z" id="GBHRW" name="Harrow">
  </path>
  <path class="england" d="M758 810.7l-0.6 0-0.8 0.9-0.4 1.5-0.8 1-0.3 0-0.9-1.3 0-0.6-0.8-0.9-0.5-1.2-2-1.9-1 0.3-1.7-1.6-1.2-0.4 0.8-2.6 0.6-0.9 0.7-1-0.6-2 1-1.3 0.2-1.8-0.4-0.6-0.9-0.2 0.8-1.3 1.2-0.5-0.3-0.7 0.1-0.2 2.1-1.7 3.3 1.9 2.1-0.4 3.1 0.8 2.5-2.9-0.2-3 0.9-2.7 3.3-1 0.8 1 0.1 0.5-0.7 0.7 0.1 0.2 1.9 0.8-0.7 1.1 0.2 0.2 2.2 0.3 1.8-0.3 0.1 0.9-0.8 4-0.5 1-1.3 0.7-0.9 1.3 0.2 1.5-1.7 1-0.8 1.4-0.6-0.1-1.1-1-1 0.7-1.7 0.2-0.2 0.5 0.4 0.9-0.8 1-0.3 0-0.2-0.5-0.2-1.7-0.5 0.6-0.6 1.2 0 1.5 0.7 1.1-0.9 0.4-1.9 0.1-1 0-0.3 0.7-0.3 1.1 0 1 0.3 0.8 0.8 1.2 0.1 0.3z" id="GBCBF" name="Central Bedfordshire">
  </path>
  <path class="england" d="M757.7 775.5l1.4 0.9 0.5 1.4 2.2 0.8 0.1 2 0.7 1.1 0.4 0.3 0.7-0.4 1.8 0.4 0 1.6 1.8 0.8-3.3 1-0.9 2.7 0.2 3-2.5 2.9-3.1-0.8-2.1 0.4-3.3-1.9-0.7-1.6-2-2.2 0.5-2.2-1.6-1.3 1-1.8-0.1-1.7-0.4-1.1 0.1-0.5 2.4-0.5 0.6 0.2 0.9 1.1 0.8 0.2 0.5-0.3 0.3-0.8 0-1.8 1-1.5 2.1-0.4z" id="GBBDF" name="Bedford">
  </path>
  <path class="england" d="M748.7 741.7l0 0.1 2 0.1 1 0.5 1.1-0.2 1.7 1.2 0.5 1.2 4.7 1.8-0.2 0.9-1.4 1-2.1 0.9-0.8-0.2 0.2 0.8 0.8 0.5-1.4 1-1.3 2.5-6.2 3.7-0.8 1.5-1.5 1.3-0.6-0.5-1-1.5-1.1-2.5-0.6-2.4-0.1-1.9 0-2.7 0.1-1.4-0.2-1.1 0-1.6 1-0.8 2.6 0.2 2.2-1.3 1.4-1.1z" id="GBRUT" name="Rutland">
  </path>
  <path class="england" d="M736.1 683.9l1.4 1.3-0.1 0.4-0.8 0.5 0.2 0.2 5.1 0.4-0.3 1 0.2 0.8 0.4 0.8 0.7 1.4 0 0.4 0 0.5-0.3 0.8 0.1 0.5 0.2 0.3 0.3 0.2 0.3 0.4 0.7 2.5 0.1 0.6-0.2 0.9-0.9 2.5-0.4 3.5 2.5 0.4 0.9-0.9 1.2-0.1 1 0.9 0.6-1 0.3 0.1 0.1 0.6-1 1.3-0.3 1.1-1.3 0-0.7 0.8-1.1 0.2-0.7 1.6 0.1 0.6 0.2 0.1 1.5 0.1-0.2 1.6 0.2 1.7-0.4 0.8 0.6 0.9-0.5 1 0.8 1 0.3 1.6-2.3 1.1-0.9 1.4-1.1 0.9-0.2 1.5 0.9 2-1.2 0.3-1.3 1.3-0.1 0.9-1.3 2.8-2.2 2-1.3 0.4-0.2 0.2 0.2 0.8-1 1.2-1.1 0.7-0.2 1-0.3 0.3-3.4 0.3-0.8-0.6-1.4 0.3-1.6 1.3-1.5 0.4-1.1 1.1-1.7-0.5-1.6-1.6-0.4-1.5 0.2-3.3 0.9-0.3 0.6-1.2-1.8-1.4 0-1.6-0.6-2.1 0-3.1-1.8-2.1 0-1.6-0.4-1.3 0.4-1.1 1-0.8 0.4-0.7-1-3.7 0.1-0.9 1.6-0.9 1.5 0.2 0.7-0.9 1.8-0.4 0.1-0.3-0.3-1.1 0.3-1.9-0.3-1.7 0.3-0.8 0.9-0.6 0.4-1-0.2-0.8 0.2-1-0.7-0.6 0.5-1 1.4-1.5-0.4-1 1.1-0.6 0.3-0.8-0.2-1.8 1.4-1.9 1-0.8 1.8-0.1 0.7 0.5 0.4-0.3 1.3-1.8 0.4-2.2 2.3-2z m-11.8 48.1l1.4-1.5 1.8-2.1 0-1.6-0.6-1.7-0.9-1.6-1.2-1-1.5 0.2-1.1 1.8-0.5 1.9-0.1 2.2 0.8 1.9 0.6 1 1.3 0.5z" id="GBNTT" name="Nottinghamshire">
  </path>
  <path class="england" d="M759.8 756.2l-0.1 0.7 0.8 1-0.4 2 2.8 1.7 0.6 2.6-0.2 0.6-2 2.8-1.6 1.2-0.5 1-2.7 1.3-0.1 1.3 1.2 2 0.1 1.1-2.1 0.4-1 1.5 0 1.8-0.3 0.8-0.5 0.3-0.8-0.2-0.9-1.1-0.6-0.2-2.4 0.5-0.1 0.5 0.4 1.1 0.1 1.7-1 1.8-3.5 2.3-1.5 0-0.7 1.2-1.4-0.4-0.3 0.5 0 0.6-0.6 0.8-2.5 0.8 0.1 0.8 0.5 0.3 0.7 1.2 1.1 1.1 0 0.6-0.3 0.2-1 0.2 0 1.4-0.5 0.5-1.1 1-0.5 0.1-1.9-4-0.4-0.2-1.9 0.9-1.5-0.2-0.7 0.9-2.8 0.7-1 0.7-1.1 1.3 1.6 0.7-0.5 0.2-0.9 1.2-1.1 0.2-1.1 0.7-2.3-0.1-1 0.3-0.5-0.3-1-3.8-0.4-0.7 0.1-2.5-0.6-0.4 1.5-0.8 1.4-0.2 0.3-0.5-3.9-5 0.2-0.7 0.7-0.7 2.5-1.1 0.2-0.8-1-1.2 0-0.5 2.7-1.7 0-1.7-0.8-0.8 1.1-1.4-0.3-0.4-1.6-0.4-0.3-0.6 0.7-0.6 2.5-0.9 0.7-0.7-0.1-0.9-0.9-1.7 1.4 0.3 1.1-2 1.5-1.6 2.6 1.7 1.1-2.3-0.5-0.3-0.2-0.4 0.2-0.2 3.3-1.5 1.2 0.2 1.9 1.1 0.6 0 0.6-1.2-1-0.9 1-2.4 0.4-0.3 1.4 0.5 2-0.3 1.3 0.6 1.3-0.4 0.2-0.2 1.5-1.3 0.8-1.5 6.2-3.7 1.3-2.5 1.4-1 0.8 0.9 0.4 1.2-0.4 3.2 0.6 0.4 2.2-0.3 0 0.5z" id="GBNTH" name="Northamptonshire">
  </path>
  <path class="england" d="M773.9 836.7l-0.1-0.4-0.2 0-0.1-0.1-0.8-1-0.2-0.3-0.1-0.2-0.1-0.1-0.1-0.1-1 0-0.4 0.3-0.1-0.5-1.1-1.3 0.9-0.2 0.2-0.2 0.1-0.2 0.2-0.2 0.6-0.3 0.6 0 0.9 0.2 0.1 0.2 0 0.3 0 0.3 0.6 0.7 0.2 0.6 0 0.1 0 0.1 0 0.2 0 0.2 0 0.1 0.3 0.2 0.1 0 0 0.1 0.1 0.2 0 0.1 0.2 0.2-0.1 0.5-0.2 0-0.3 0.3-0.2 0.2z" id="GBCMD" name="Camden">
  </path>
  <path class="england" d="M775.1 834.9l-0.3 0-0.2 0.1-0.2 0.1-0.1 0-0.3-0.2 0-0.1 0-0.2 0-0.2 0-0.1 0-0.1-0.2-0.6-0.6-0.7 0-0.3 0-0.3-0.1-0.2 0.1-0.2 0.6-0.3 0.2 0 0.1 0 0.1 0.1 0.2 0.4 0.4 0.3 0.5 0.4 0.1 0.1 0 0.2 0 0.1 0.4 0.1 0.1 0.1 0 0.1 0 0.1-0.8 1 0 0.1 0 0.1 0 0.1z" id="GBISL" name="Islington">
  </path>
  <path class="england" d="M756.2 750.3l1.1-0.5 1.5 0.5 1.6 0 4-2.1 2.5 1.2 2.9-0.6 0.8 1.1 1.1-0.2 1.1 0.4 1.6-1 0.9 0.1 1.5-0.6 0.1 0 0 3.1 0 1.5-0.3 0.8-0.3 0.2-1.2 0.2-2.5 0.5-2.5 1.5-1 0.4-1.1 1.5-1.5 1.3-0.7 0.9-1.9-0.3-1.4-1.5-1.2-1.4-0.7-1-0.8-0.1 0-0.5-2.2 0.3-0.6-0.4 0.4-3.2-0.4-1.2-0.8-0.9z" id="GBPTE" name="Peterborough">
  </path>
  <path class="england" d="M773 843.1l0-0.1 0-1.9-0.1-0.1-0.1-0.1-0.1-0.1-0.1-0.4-0.1-0.2 0-0.1 0-0.1 0.1-0.1 0.7-0.8 0.1-0.1 0.1-0.3-0.3-1.2 0.7-0.8 0.2-0.2 0.3 0.2 0 0.1 0.1 0.1 0.1 0.2-0.1 0.3 0 0.1 0.1 0.1 0 0.2 0 0.4 0.1 0.1 0.5 1 0.1 0.3 0.1 0.2 0 0.1 0 0.1 0 0.1-0.5 0.7 0 0.1 0 0.1 0 0.2 0.2 0.3 0.1 0.5 0.5 1 0 0.1 0 0.1-0.1 0 0 0.1-1.2-0.2-0.3 0.1-0.9 0.6-0.4-0.1 0-0.1 0-0.1 0.2-0.4z" id="GBLBH" name="Lambeth">
  </path>
  <path class="england" d="M774.6 836.2l0.6-0.2 0.8 0.3 0.1 0 0.8 0.5 0.5 0.3 0.7 0.1 0 0.5-0.2 0-0.1 0-0.1 0.2-0.3 0.1-0.4 0.2 0 0.1-0.1 0.1 0 0.1 0.2 0.6 0 0.4 0.1 0.3 0.1 0.2 0.3 0.4 0 0.1 0 0.1-0.2 0.4 0 0.1-0.1 0.1-0.5 0.1-0.1 0.1-0.1 0.2-0.1 0.5-0.4 0.5 0 0.1 0 0.1-0.1 0-0.1 0.1-0.1 0-0.1 0.1-0.5-1-0.1-0.5-0.2-0.3 0-0.2 0-0.1 0-0.1 0.5-0.7 0-0.1 0-0.1 0-0.1-0.1-0.2-0.1-0.3-0.5-1-0.1-0.1 0-0.4 0-0.2-0.1-0.1 0-0.1 0.1-0.3-0.1-0.2-0.1-0.1 0-0.1-0.3-0.2 0.3-0.3 0.2 0z" id="GBSWK" name="Southwark">
  </path>
  <path class="england" d="M721.6 673.4l0.7 0.1 0.7-1.5 2.2-0.2 0.6 0.6 0.6 0 0.7-0.8 1.8-0.3 3.6-1 2.6 0.3 3.8 1.9-0.1 1 0.1 0.6 0.2 1.1-0.2 1.3-0.4 0.3-0.6-0.2-1.1 0.7 0.6 0.5 0.1 0.9 0.8 0.7 0 1.1-0.4 0.3-1.6-0.4-1.3 1.1 1.1 2.4-2.3 2-0.4 2.2-1.3 1.8-0.4 0.3-0.7-0.5-1.8 0.1-1 0.8-1.4 1.9-2.9-1.7-2.9-2.6-0.8-2.8-3.1-0.7 1.4-2.8-1.4-2.2-0.9-3.1 1.8 0.4 3-1.7 0.6-1.9z" id="GBDNC" name="Doncaster">
  </path>
  <path class="england" d="M773 845.4l0.2-0.2 0.2-0.1 0.1-0.1 0.1-0.1 0-0.1 0-0.1-0.2-0.5-0.2-0.4 0.9-0.6 0.3-0.1 1.2 0.2 0.1 0.2 0.8 1.4 1 0.7 0.8 1.1 1.5 3.7-0.6-0.7-1.3-0.1-0.9 1.2-0.9-0.1-0.9 0.4-0.8 1.4-1.2 0.2-1.1-1-0.6-1.3 1 0 0.2-0.1 0-0.1 0.1-1 0-0.1 0.1-0.3 0.2-0.1 0.2-0.1 0.5 0.1 0.1-0.1 0.1-0.3 0-0.5 0-0.2 0-0.2-0.3-0.9 0-0.2-0.1-0.2-0.6-0.7z" id="GBCRY" name="Croydon">
  </path>
  <path class="england" d="M776.1 842.8l0-0.1 0-0.1 0.4-0.5 0.1-0.5 0.1-0.2 0.1-0.1 0.5-0.1 0.1-0.1 0-0.1 0.2-0.4 0-0.1 0-0.1-0.3-0.4-0.1-0.2-0.1-0.3 0-0.4-0.2-0.6 0-0.1 0.1-0.1 0-0.1 0.4-0.2 0.3-0.1 0.1-0.2 0.1 0 0.2 0-0.2 0.5 0.1 0.1 0.5 0.4 0.1 0 0 0.1-0.1 0.2 0.1 0 0 0.1 0.2 0.4 0 0.1 0.1 0 0.1-0.1 0-0.1 0.1-0.1 0.8 0.2 0 0.1 0 0.1-0.1 0.1 0 0.1 0 0.1 0 0.2 0.1 0.1 0 0.1 0.1 0.2 0.3 0.2 0 0.1 0 0.1 0 0.2 0 0.1 0.1 0.2 0 0.1 0.8 0.9 0.1 0.1 0 0.1-0.1 0.1 0 0.1-0.2 0.1-0.1 0-0.7-0.2-0.3 0.1-0.3 0.5-0.1 0.1-0.1 0.1-0.2 0-0.9-0.6-2.2-0.2z" id="GBLEW" name="Lewisham">
  </path>
  <path class="england" d="M773.1 828.8l4.7 0.5-0.2 0.2 0 0.1-0.1 0.2-0.1 0.1 0 0.1-0.2 0.2 0 0.1-0.1 0.1 0 0.1-0.1 0.1 0 0.2-0.1 0 0 0.2-0.1 0.1-0.1 0.3-1.5 0-0.2 0.1-0.1 0.1 0 0.1 0 0.1-0.1 0.6-0.4-0.3-0.2-0.4-0.1-0.1-0.1 0-0.2 0-0.6 0.3-0.1 0.2-0.9-0.2-0.6 0 0.1-0.9 0.1-0.1 0.3-0.1 0.2-0.2 0-0.2 0.1-0.1-0.2-0.7 0-0.1 0-0.1 0.1-0.1 0.1 0 0.1 0.1 0 0.2 0.1 0.1 0.1 0 0.1 0 0-0.1 0.1-0.2 0.1-0.3 0.1-0.2 0-0.1z" id="GBHRY" name="Haringey">
  </path>
  <path class="england" d="M767.7 842l0.2 0.4 0 0.6 0.1 0.2 0 0.2 0 0.2 0.1 0.3 0 0.5 0.3 0.5 0.2 0.3 0 0.2 0.1 0.1-0.2 0.1-0.1 0.1-0.2 0.2 0 0.1-0.1 0-0.3 0.4-1.2 0.9-1.1 2.4-0.9 0.4-0.2-1.7 0.8-1.8-0.4-1 0.3-0.5 0-0.1 0.1-1 0-0.7-0.2-0.6 0-0.3 0-0.1 0.1-0.1 0.1 0 0.1 0 0.1 0 0.6 0.4 0.1 0 0.7-0.2 0.5-0.5 0.1 0 0.3 0.1z" id="GBKTT" name="Kingston upon Thames">
  </path>
  <path class="england" d="M780.1 836.7l-0.2-0.4-0.1-0.1-0.2-0.1-0.2-0.2-0.6-1.5-0.1-0.8 0-0.1 0-0.2 0-0.4 1.6-0.1 0.6-0.1 0.1-0.1 0.3-0.4 0.1 0 0.1-0.1 0.2 0.1 0.3 0.4 0.1 0 0.4 0.2 0 0.1 0.1 0.2 0.1 0.6 0 0.5 0 0.2 0.3 0.4 0.1 0.1 0.6 0.3 0 0.1 0.1 0.2 0.1 0.1 0 0.1-0.1 0.2-0.1 1.2-1.1 0.4-1.1 0.1-1.4-0.9z" id="GBNWM" name="Newham">
  </path>
  <path class="england" d="M778.1 837.7l0.3 0.5 0.3 0.2 0.3 0 0.1 0 0.1 0 0.1-0.2 0.1-0.3 0-0.2 0-0.2 0-0.5 0.1-0.1 0.1 0 0.5-0.2 1.4 0.9 1.1-0.1 1.1-0.4 1.1-0.4 0.1 0.3-0.1 0.9 0.1 0.7 0 0.1-0.1 0-0.1 0.1-1 0.2-0.1 0.1-0.3 0.3 0 0.1 0 0.1 0 0.2 0.1 0.8 0 0.4-0.1 0.2-0.3 0.7 0 0.1-0.3 0.5-0.3 0.2-0.1 0-0.1 0-0.1-0.1-0.2-0.4-0.7-0.7-0.3 0-0.5 0.1 0-0.1-0.1-0.2 0-0.1 0-0.2 0-0.1 0-0.1-0.3-0.2-0.1-0.2 0-0.1-0.1-0.1 0-0.2 0-0.1 0-0.1 0.1-0.1 0-0.1 0-0.1-0.8-0.2-0.1 0.1 0 0.1-0.1 0.1-0.1 0 0-0.1-0.2-0.4 0-0.1-0.1 0 0.1-0.2 0-0.1-0.1 0-0.5-0.4-0.1-0.1 0.2-0.5z" id="GBGRE" name="Greenwich">
  </path>
  <path class="england" d="M775.8 835.7l-0.1-0.3-0.1-0.2 0-0.1-0.4-0.2-0.1 0 0-0.1 0-0.1 0-0.1 0.8-1 0-0.1 0-0.1-0.1-0.1-0.4-0.1 0-0.1 0-0.2-0.1-0.1-0.5-0.4 0.1-0.6 0-0.1 0-0.1 0.1-0.1 0.2-0.1 1.5 0 0.2 0.6 0.4 0.4 0.2 0.1 0.6-0.1 0.1 0 0.5 0.5 0 0.4 0 0.2 0 0.1-0.6 0.3-0.2 0.4-0.2 0.1-0.2 0.1-0.8 0-0.2 0.2-0.4 0.1 0 0.1-0.1 0.1 0 0.4-0.2 0.3z" id="GBHCK" name="Hackney">
  </path>
  <path class="england" d="M782.7 833.7l0.8-0.3 0.4 0.1 0.1-0.1 0.1-0.1 0-0.1 0.1-0.1 0.2-0.1 0.4 0 0.2 0 0.1 0 0-0.1 0.1-0.1 0-0.3 0.3-1.1 0.1-1.4 0.1 0 0-0.2 0.1 0 0.5-0.4-0.1 0.8-0.1 0.2 0 0.1 0 0.2 0 0.1 0.3 0.4 0.1 0.5 0.2 0.4 0.1 0.1 0.1 0.1 0.1 0 0.7-0.4 0.1 0 0.1 0 0 0.1 0 0.1 0 0.2 0.1 0.1 0.2 0.3 0 0.1 0.1 0-0.1 0.3 0 0.1-1 1.8-0.1 0.2 0 0.1-0.1 0.4 0 1.2-0.8-0.4-1 0.1-0.4 0.1-1.1 0.4 0.1-1.2 0.1-0.2 0-0.1-0.1-0.1-0.1-0.2 0-0.1-0.6-0.3-0.1-0.1-0.3-0.4 0-0.2 0-0.5z" id="GBBDG" name="Barking and Dagenham">
  </path>
  <path class="england" d="M743.3 725.1l0.1 1.4 0.8 0.6 0.1 0.6-0.9 2.6 0.5 0.9 0 1 1.4 0.3 0.7 1.4 0.8 2.5 0.7 0.7 0.6 3 0.6 1.6-1.4 1.1-2.2 1.3-2.6-0.2-1 0.8 0 1.6 0.2 1.1-0.1 1.4 0 2.7 0.1 1.9 0.6 2.4 1.1 2.5 1 1.5 0.6 0.5-0.2 0.2-1.3 0.4-1.3-0.6-2 0.3-1.4-0.5-0.4 0.3-1 2.4 1 0.9-0.6 1.2-0.6 0-1.9-1.1-1.2-0.2-3.3 1.5-0.2 0.2 0.2 0.4 0.5 0.3-1.1 2.3-2.6-1.7-1.5 1.6-1.1 2-1.4-0.3-1.2-2.6-1.3-0.8-2.5-4.1-4.8-2.6-0.4-1-0.6-0.7-3.6-1.6-1.1-1.4-1.3-0.5 0.1-1.6-0.7-1.6 1-0.6 0.1-0.9-2.1-2.7-0.2-0.7 2.3-1.6 0.2-0.6-0.6-1.5 0.1-1 0.4-0.3 2.7 0.1 1-0.3 0.2-0.2-0.1-0.8 1.1-1.4 1.5-0.5 0.4-1.3 0.9-1.6-0.1-0.3 1.5-1.4 1.7-1 1.8 0.1-0.2 3.3 0.4 1.5 1.6 1.6 1.7 0.5 1.1-1.1 1.5-0.4 1.6-1.3 1.4-0.3 0.8 0.6 3.4-0.3 0.3-0.3 0.2-1 1.1-0.7 1-1.2-0.2-0.8 0.2-0.2 1.3-0.4 2.2-2 1.3-2.8 0.1-0.9 1.3-1.3 1.2-0.3z m-16.7 30.7l2.7-2.4 0.4-2.1-0.7-1.9-2.3-0.6-1.8 0-1 1.3 0 1.6 0.6 3.3 2.1 0.8z" id="GBLEC" name="Leicestershire">
  </path>
  <path class="england" d="M656.3 723.2l0.2-2 0-1.3-1.2-0.7-1.1-0.9 0.7-3.3 1.9-1.3 3-1.5 2.8-1.6-0.2-1.7 0.3-1.4 1.7 0.5 0.8-2 1.1-2-0.5-2-2.6-2-1.5-3.7 2.9-1.9 0.6-1.4 0.2-0.6 1.6 0.5 1.4 0.9 2.3 0.2 1.5 1.4 1.1-0.2 1-0.8 1.7 0.1 1.3 0.6 0.1 0.6-0.1 0.6 0.7 0.7 0.9-0.5 0.5-1.9 0.5-0.6 1.8-0.1 1.5 0.7 0.7-1.2 0.8-0.3-0.1 0.6 0.9 1.3 0.1 0.9 0.1 5.6 0.2 1.7 1 0.9-0.3 1.8-1.4 1.7-1.1 0.1-1.8 1.5-1.6 0-1.1-0.7-0.6 0.1-0.1 0.3 0.5 0.9-0.2 0.6-1.1 0.2-2.2 2.7-1.8 2.1-0.1 0.2-1.2 0.5-1.6-0.2-1.4 1.8-1.4 0.3-0.4 1.2 0.3 2.9-0.5 0.8-2.1 0.9-0.4 1-0.8 0.7-1.4 0.2-1.6-0.6-0.7 1.1-1.4-0.7-1 0.2-0.5-1.8-1.6-0.7z" id="GBCHE" name="Cheshire East">
  </path>
  <path class="england" d="M724.1 699.2l0.7 0.6-0.2 1 0.2 0.8-0.4 1-0.9 0.6-0.3 0.8 0.3 1.7-0.3 1.9 0.3 1.1-0.1 0.3-1.8 0.4-0.7 0.9-1.5-0.2-1.6 0.9-0.1 0.9 1 3.7-0.4 0.7-1 0.8-0.4 1.1 0.4 1.3 0 1.6 1.8 2.1 0 3.1 0.6 2.1 0 1.6 1.8 1.4-0.6 1.2-0.9 0.3-1.8-0.1-1.7 1-1.5 1.4 0.1 0.3-0.9 1.6-0.4 1.3-1.5 0.5-1.1 1.4 0.1 0.8-0.2 0.2-1 0.3-2.7-0.1-0.4 0.3-0.1 1 0.6 1.5-0.2 0.6-2.3 1.6-0.7 0-0.4-0.6-0.7 0.7-0.8-0.1-0.3-1.6-1.7-0.7-0.9-0.8 1.3-2.5 2.1-1.1 0.6-2 1.2-1-0.8-1.5-1.1-0.8-4.2-0.4-0.7-0.4-0.9-1.2-1.6 0-0.5-0.6-1.1-0.1-0.2-1.2-0.6-1.1 0-1.5 0.8-0.1 0.3-0.3 0.3-1.3-0.1-1.2 2.6-1.6 0.5-1.4-0.1-1.7-0.7-0.8-0.3-0.7-0.3-2.3 0.2-1.5-1.3-2.2 0-1.8-0.2-0.6-1-1.1-1.5-1-3.5-1.5-1-1.5-1.1 0.5 0.3-1.8-1-0.9-0.2-1.7-0.1-5.6-0.1-0.9-0.9-1.3 0.1-0.6 0.6-0.2 1.1-1.9-0.5-0.7-0.9-0.5-0.1-0.5 0.2-0.6 1.2-1.3 0.2-2 0.7-2 1.5-0.1 0.6-0.4 0.4-1.6 0.6-0.9 1.3 0 2.5 1.3 1 1.5 0.1 1.5 0.3 0.7 2.6 2.2-0.3 1.5 0.2 0.9 1.5 0.5 0.5 1.3 0.7 0 1.4 0.9 0 0.6-0.4 0.7 0.2 0.6 2.7 1.1 0.5 0.6 0 0.3-1.3 0.9-0.2 0.5 0.2 0.2 1 0.3 0.8-0.2 1.9 1.2 3.4-1.4 1.2-1.3 1.8-0.1 0.5 0.3 0.1 1.1 1 0.6 1.3 0.1 0.5-0.3 0.5-0.9 1.1-0.3 0.5 0.3-0.3 1.1 1 0.1 0.9 0.6 3.1-0.2z m-12 35.2l0.5-0.8 0.7-1.5 0.4-1.6-0.2-1.4-0.9-1-1.5-0.9-1.5-0.3-0.8 0.6-0.9 1.3-0.8 1.2-0.3 1.7 2.4 2.3 1.7 0.3 1.2 0.1z" id="GBDBY" name="Derbyshire">
  </path>
  <path class="england" d="M726.8 692.5l0.2 1.8-0.3 0.8-1.1 0.6 0.4 1-1.4 1.5-0.5 1-3.1 0.2-0.9-0.6-1-0.1 0.3-1.1-0.5-0.3-1.1 0.3-0.5 0.9-0.5 0.3-1.3-0.1-1-0.6-0.1-1.1-0.5-0.3 0-4.6-0.6-2.1 0-2.7 1.7-1.9 2.1-0.7 3.1 0.7 0.8 2.8 2.9 2.6 2.9 1.7z" id="GBROT" name="Rotherham">
  </path>
  <path class="england" d="M713.9 696.7l-1.8 0.1-1.2 1.3-3.4 1.4-1.9-1.2-0.8 0.2-1-0.3-0.2-0.2 0.2-0.5 1.3-0.9 0-0.3-0.5-0.6-2.7-1.1-0.2-0.6 0.4-0.7 0-0.6-1.4-0.9-0.7 0-0.5-1.3-1.5-0.5-0.2-0.9 0.3-1.5-2.6-2.2-0.3-0.7-0.1-1.5-1-1.5 10.6 1.5 1.5 2.2 2.2 0.2 2.2-0.2 0.8 3 0.9 1.6 1 0 0.6 2.1 0 4.6z" id="GBSHF" name="Sheffield">
  </path>
  <path class="england" d="M674.1 715.4l1.8-2.1 0.6 2.3 1 1.4 1 1.1 1.2 2.1 1.2 2.8 0.4 1.8-0.3 1.3-0.7 0.6-1.5 0.2-1.6-0.5-1.1-1.5-0.5-1.8-0.5-3-0.3-2.3-0.3-1.5-0.4-0.9z" id="GBSTE" name="Stoke-on-Trent">
  </path>
  <path class="england" d="M670.3 741.7l-0.7 1.4-1.9 4.9-0.8 1.9-0.8 1.6-0.5 1.1-0.6 0-1.1-0.8-2.2-2.2-3.2-3.2-3-2.7-1.1-1.6 0.8-1.3 2.7-0.7 2.5-1.3 2.9-1 2.6-1.5 1-0.3 1.4 1.1 0.3 1-0.5 0.7 0.1 0.2 2.1 2.7z" id="GBTFW" name="Telford and Wrekin">
  </path>
  <path class="england" d="M666.9 736l-0.2-0.2 1.1-1.1 0.6-3.6-0.7 0-2.5 1.3-0.7-1.4-0.1-0.9 0.4-1.2 1.1-1.8 1.1-1.1 0.9 0 0.3-0.5 0.3-0.9-0.1-1-0.3-0.6-0.3-0.1 0.5-0.8-0.3-2.9 0.4-1.2 1.4-0.3 1.4-1.8 1.6 0.2 1.2-0.5 0.1-0.2 0.4 0.9 0.3 1.5 0.3 2.3 0.5 3 0.5 1.8 1.1 1.5 1.6 0.5 1.5-0.2 0.7-0.6 0.3-1.3-0.4-1.8-1.2-2.8-1.2-2.1-1-1.1-1-1.4-0.6-2.3 2.2-2.7 1.1-0.2 0.2-0.6-0.5-0.9 0.1-0.3 0.6-0.1 1.1 0.7 1.6 0 1.8-1.5 1.1-0.1 1.4-1.7 1.1-0.5 1 1.5 3.5 1.5 1.5 1 1 1.1 0.2 0.6 0 1.8 1.3 2.2-0.2 1.5 0.3 2.3 0.3 0.7 0.7 0.8 0.1 1.7-0.5 1.4-2.6 1.6 0.1 1.2-0.3 1.3-0.3 0.3-0.8 0.1 0 1.5 0.6 1.1 0.2 1.2 1.1 0.1 0.5 0.6 1.6 0 0.9 1.2 0.7 0.4 4.2 0.4 1.1 0.8 0.8 1.5-1.2 1-0.6 2-2.1 1.1-1.3 2.5 0.9 0.8 1.7 0.7 0.3 1.6 0.8 0.1 0.7-0.7 0.4 0.6 0.7 0 0.2 0.7-1 1.6-1.4 1-0.1 0.3 0.4 1-0.5 1.4 0 1.5-0.4 0.6-1 0.4-4.2-0.3-1.1 0.3-0.5-0.9-1.2-0.3-0.8 0.2-1.1 1-0.3-0.1-0.7-0.7-0.2-1.5-0.7-0.9-0.1-2.5-1.7-1.2-0.3 0-0.3 0.5 0 1.2-0.3 0.4-3.4 1.7-1.2-0.1-0.7 0.7-1.5-2-1.5 0.3-0.4 0.4-0.2 0.9-1.8 1-0.2 0.8-0.7 0.8 1.2 0.9 0.8 1.6 1.1-0.1 0.4 0.3-0.4 1.1 0 1.1-2 1.1 0.9 1.8 0.2 4.2-0.8 0.1-2.3-1-1.9-0.1-1.2-0.6 0.1-0.8-0.7-1.6 0-0.7 0.7-1.6 1.4-1 0.1-1.2-0.7-1.1 0.7-1.1-0.8-1.2-1.9-1-0.1-0.6 0.4-0.8 1.7 0.4 1.4-0.7 0.5-1.8-0.2-1.1 0.1-0.6-0.1-0.8-0.6-0.6-2.3-0.3-0.6-0.5-0.2-1.1 0.3-1.6-0.1-0.9-0.9-1.1-2.1-2.7-0.1-0.2 0.5-0.7-0.3-1-1.4-1.1z" id="GBSTS" name="Staffordshire">
  </path>
  <path class="england" d="M787 844.5l0.1 0.8-0.6 2.5-1.2 1-0.5 1.3-1.1 1-0.1 1.7-1.2 0.4-0.7-0.5-0.2-0.4-1.3 0.4-0.2-2.2-0.2-0.1-1.5-3.7-0.8-1.1-1-0.7-0.8-1.4-0.1-0.2 0-0.1 0.1 0 0-0.1 0-0.1 0.1-0.1 0.1 0 0.1-0.1 0.1 0 2.2 0.2 0.9 0.6 0.2 0 0.1-0.1 0.1-0.1 0.3-0.5 0.3-0.1 0.7 0.2 0.1 0 0.2-0.1 0-0.1 0.1-0.1 0-0.1-0.1-0.1-0.8-0.9 0.5-0.1 0.3 0 0.7 0.7 0.2 0.4 0.1 0.1 0.1 0 0.1 0 0.3-0.2 0.3-0.5 0.6 0.8 0.7 0.6 1.3 0.1 1.4 1z" id="GBBRY" name="Bromley">
  </path>
  <path class="england" d="M655.5 773.7l1.1 0.6 0.3 0.4 0.1 0.8 0.5 0.3 2-0.3 0.4-1.7 1-0.7 1.5 1 0.9 0 0.3-0.8-0.3-1 0.2-0.5 2.8-0.5 0.5-0.5 0.1-0.7 0.3-0.3 3.3-0.1-0.3-0.4-1.1-2.6 0.5-0.9 1.6 0.3 0.9-1 1.2 0.6 1.9 0.1 2.3 1 0.8-0.1 1.6 0.1 1.7-1.1 1.2 1.1 0.5-0.9 0.8-0.2 0.4 0.9 0.7-0.2 1.1 0.7 0 0.6-0.9 1.3 0.3 1.1 0.6 0.1 1.3-0.7 1.4 0.1 1.2-0.6 2.6 0.8 0.1 0.5-0.5 1.1-1.1 1.3 0.1 0.5 1.1 1.2 0.1 1-0.9 0.8-0.7 1.9-1.7 0.7-0.1 0.5 0.9 2.2 0 1.5-1 1.2-0.4 1.4-0.6 0.9 0.7 0.4 0.7 1.2 1.1 0.8 0.3-0.8 0.4-0.4 1.7 1 0.5-0.5 0.8 0.7 1.2 0.3 0.2 1 0.9 0.3 0.3 0.5-1 0.5-1.7 2.3-1.3-0.3-1 0.8 0 0.3 0.7 0.4 1 1.4 0.1 1.2-0.3 0.9-0.6 0-1.6-1.6-1.2-0.2-0.7 0.3-1.1-0.2-1.3 0.3-2.8 2-2-0.6-1.6 0-1.1 0.9-0.6-0.8 1.3-2.7-2.3 0.1-0.3 0.5-0.3 2 0.8 0.9-0.7 0.6-1.5-0.2-1.3 2-0.8 0.1-2.6-0.8-0.5-1.5-1.1-1.7-0.5 0.1 0.1-1.1 0-1.9 0.1-1.8 0-1.3-0.1-1-0.5-1.1-0.7-0.4-0.8-0.3-0.6-0.9-0.2-1.1 0-1.7 0.2-2-0.5-1.1-1.1-0.3-0.8-0.5-0.2-0.5 0.3-1 0.3-0.7-1.2-0.5-0.7 0-0.6 0.5-0.5 0.6-0.7 0.6-1.1 0.1-1.4 0-1.2 0-0.6-0.8 0.2-1.1 0-0.8-0.8-1.1-0.5-2.4 0.1-0.7z" id="GBWOR" name="Worcestershire">
  </path>
  <path class="england" d="M701.8 800.3l0-0.4 0.8-0.9 1.1-2-0.4-0.3-1.7 0.3-0.8-0.3-1.6-2.6-0.4-1.5-1-0.3-0.9-1.3-0.3-0.5-0.9-0.3-0.2-1-1.2-0.3-0.8-0.7-0.5 0.5-1.7-1-0.4 0.4-0.3 0.8-1.1-0.8-0.7-1.2-0.7-0.4 0.6-0.9 0.4-1.4 1-1.2 0-1.5-0.9-2.2 0.1-0.5 1.7-0.7 0.7-1.9 0.9-0.8-0.1-1-1.1-1.2-0.1-0.5 1.1-1.3 0.5-1.1-0.1-0.5 0.4 0.2 0.6 0.3 0.4 1 0.8 0.9 1.8 1.1 0.3-0.8 1.8-0.6 1.5 1 0.5-0.5 1.5-0.1 1.8-0.9 0.5-0.9 1.3 0.1 1.2 1.3 1.2-0.9 2.3 0.1 1.4-1.3-0.3-3.6-0.2-0.4-0.6-0.2-7.7-0.5-1.9 1.5-1-1.2-2.8-4.4 0.4-1.1-0.9-1.8 0-0.9-0.9-1.2-0.3-1 1.1-0.3 4.2 0.3 1-0.4 0.4-0.6 0-1.5 0.5-1.4-0.4-1 0.1-0.3 1.4-1 1-1.6 2.1 2.7-0.1 0.9-1 0.6 0.7 1.6-0.1 1.6 1.3 0.5 1.1 1.4 3.6 1.6 0.6 0.7 0.4 1 4.8 2.6 2.5 4.1 1.3 0.8 1.2 2.6 0.9 1.7 0.1 0.9-0.7 0.7-2.5 0.9-0.7 0.6 0.3 0.6 1.6 0.4 0.3 0.4-1.1 1.4 0.8 0.8 0 1.7-2.7 1.7 0 0.5 1 1.2-0.2 0.8-2.5 1.1-0.7 0.7-0.2 0.7-0.6 0.8-0.3 1.3-1.6 1.3 1.1 1-0.3 0.7-1 0.3-1.3-1.2-0.9-0.1-0.5 0.1 0 1.1-0.2 0.1-1.4 0.2-0.2 0.9-1 1.2 0 1.6-0.6 3.2-0.4 0.8-1.3 0.2-0.2 1.2-1.7 0.2-0.3 0.8-0.5 0.1-2.3-2.2z" id="GBWAR" name="Warwickshire">
  </path>
  <path class="england" d="M700.3 823.4l1.6 0.4 0.3-0.5-0.2-0.5-1.3-1.3-0.2-2.1-0.6-2.3-0.8-1 1.4-1.6 0.2-4.4 0.8-2.1 1-0.9-0.4-1.2 1.5-1.6 0.1-0.6-0.3-0.5-1.8-1 0.2-1.9 2.3 2.2 0.5-0.1 0.3-0.8 1.7-0.2 0.2-1.2 1.3-0.2 0.4-0.8 0.6-3.2 0-1.6 1-1.2 0.2-0.9 1.4-0.2 0.2-0.1 0-1.1 0.5-0.1 0.9 0.1 1.3 1.2 1-0.3 0.3-0.7-1.1-1 1.6-1.3 0.3-1.3 0.6-0.8 3.9 5-0.3 0.5-1.4 0.2-1.5 0.8 0.6 0.4-0.1 2.5 0.4 0.7 1 3.8 0.5 0.3 1-0.3 2.3 0.1 1.1-0.7 1.1-0.2 0.9-1.2 0.5-0.2 2.3 0.9 0.3 0.3-1.1 1.9-0.3 1.2 0.4 0.6 1.2 0.1 0 0.2-1.3 1.6-0.3 1.6 0.2 0.8 0.7 0.7 0 1.2 0.7 1.4 0 0.8-1 0.7-2.2-1-0.4 0.3-0.2 0.5 0.7 1 0.3 2.6 1.3 0.5 0.7 1.6 1.2 0.6 1-0.7 1.3 0.3 1.2-0.5 2.5 1.1 1.3 1.9 0.3 1.2-0.3 1.2 0.4 1.2-0.1 0.3-1.7-0.4-0.4 0.2-0.2 1.4-0.7 0.3 0.5 0.7-0.6 1.2 0.5 1.4 0.7-0.1 0.3 0.4 0 0.5-0.8 0.7-0.2 0.8 2.1 1.7 0.2 1.5 0.2 0.7 0.2 0.4 0.1 0.4-0.4 0.8-0.3 0.5-0.9 1.1-1.1 0.5-1.6 1.1-1.1 0.1-0.7-0.4-1.8-1.8-0.8-0.3-1-0.2-1.1-0.4-0.9-0.6-0.7-0.9-0.4-1.2-1.8 0.6-0.9-0.1-1.1-0.7-1.7 0.1-1.2-1.3-0.8-0.3-0.7 0.2-0.8 1-1.3-0.6-1 0.7-1.4-0.3-1.5 0.5-1.7-1-2.3-0.3-1.5 0.3-0.4 0.4-0.4 1.8-0.9-0.2-2-3.7-1.1 0.1-0.3-0.4-0.1-2 0.8-0.9 0.3-1.5-1.4-1.4-0.1-1.5 0.1-0.7z" id="GBOXF" name="Oxfordshire">
  </path>
  <path class="england" d="M650.3 682.1l1.8-1.5 0.4-1.5 0.6-0.9-0.2-1.2 0.4-1.9 0.5-0.2 2-0.4 0.5 0.9 0.3 0 1.3-1.4 0.6 0.2 0.8 0.9 1.9 3.5 0.4 1.4 0.4 1.8 0.8 4.1-1.8 0-0.7 1.1-1.3 1-0.8-1.1-0.8-0.7-0.2-1.1-2.1 0-1.2-0.6-0.7 0.7-2.9-3.1z" id="GBWGN" name="Wigan">
  </path>
  <path class="england" d="M684.7 693.1l-0.8 0.3-0.7 1.2-1.5-0.7-1.8 0.1-0.5 0.6-0.5 1.9-0.9 0.5-0.7-0.7 0.1-0.6-0.1-0.6-1.3-0.6-1.7-0.1-1 0.8-0.3-2 1.5-2.4 0.4-2.9 2.2 0.7 2.6 1.5 3.2 0 2.1-0.3 0.9 0.5 0.5 0.7-1.1 1.9-0.6 0.2z" id="GBSKP" name="Stockport">
  </path>
  <path class="england" d="M661.7 696.3l-1.1 0.8-1.1 0.6-0.7 0-0.5-0.2-0.5-0.8-0.7-1-0.3-0.2-0.8-0.1-1.5-1.2-0.9-1.7 1.5-1 0.2-0.8-0.8-0.7 0-1-0.4-0.6 0.2-0.8 1.2 0 1.1 0.8 2.4-0.4 1.3-1 0.7-1.1 1.8 0 1.8 3.4 0.1 1-0.8 1.4 0.3 0.2 1.2 0.5-0.2 0.6-0.6 1.4-2.9 1.9z" id="GBWRT" name="Warrington">
  </path>
  <path class="england" d="M730.9 847.8l-0.9-0.5-0.5-0.9-0.8-0.2-1.6 0.4 0.1 1-0.5 0.2-5.8-1.1-7.3-0.1-1.7 1.4 0.4 0.9-0.2 0.4-2.6 0.2 0.1-0.9-0.5-0.8-0.1-0.8-1.6-0.9-1.4-2.6 0.4-0.6 1.5-0.4 0-0.7-0.3-1.2-1-0.8-1.3-2.1-0.1-1-0.2-1.1 0.4-1.8 0.4-0.4 1.5-0.3 2.3 0.3 1.7 1 1.5-0.5 1.4 0.3 1-0.7 1.3 0.6 0.8-1 0.7-0.2 0.8 0.3 1.2 1.3 1.7-0.1 1.1 0.7 0.9 0.1 1.8-0.6 0.4 1.2 0.7 0.9 0.9 0.6 1.1 0.4-0.2 4.2 1.4 1.6 0.8 2.1 0.3 2.2z" id="GBWBK" name="West Berkshire">
  </path>
  <path class="england" d="M739.2 848.2l-1.5-0.1-1.6-0.7-2.2 0.2-1.4-0.3-1.6 0.5-0.3-2.2-0.8-2.1 1.3 0 2-0.8 0.9-2.4 1.6-1.1 1.1-0.5 0.9-1.1 0.3-0.5 0.4-0.8-0.1-0.4-0.2-0.4-0.2-0.7-0.2-1.5 0.3-0.2 0.6 0.3 1 0.3 0.8 2.8 0.1 2.7 0.8 2.5-0.1 2.8-1.3 2.1-0.6 1.6z" id="GBWOK" name="Wokingham">
  </path>
  <path class="england" d="M743.3 849.6l-1.5-0.6-1-0.7-1.6-0.1 0.6-1.6 1.3-2.1 0.1-2.8-0.8-2.5 2.5 0.4 2.9 0.8 1.4 1.7 0.2 2-1.7 0.9 0.8 1.9-1.1 0.2-2.1 2.5z" id="GBBRC" name="Bracknell Forest">
  </path>
  <path class="england" d="M739.5 833.7l3.4-1.1 0.7 0.1 0.8-0.5 1.1-0.1 1.1 0.3 0.5 0.8-0.2 1.5-0.5 0.9-0.1 0.8 1.1 0.9 0.8 0.2 1.2-0.1 1.5-0.1 0.6 0.5 0.6 0.9 0.1 2.3-0.7 1.4-0.4 1.7-0.9 1.2-1.8 0.4-1.9 1.2-0.8-1.9 1.7-0.9-0.2-2-1.4-1.7-2.9-0.8-2.5-0.4-0.1-2.7-0.8-2.8z" id="GBWNM" name="Royal Borough of Windsor and Maidenhead">
  </path>
  <path class="england" d="M749.4 837.4l-0.3-0.8-0.3-1.2 0.2-0.5 1.3-0.3 1.5 0.8 0.2-0.5 0.6 0 0.3 0.3 0.2 1.4 1.6-0.2 0.2 0.5-0.1 0.9 0.4 0.9-0.4 1.9 0.1 0.9-0.6 0.4-2.1-0.9-0.1-2.3-0.6-0.9-0.6-0.5-1.5 0.1z" id="GBSLG" name="Slough">
  </path>
  <path class="england" d="M728.6 837.7l1 0.2 0.8 0.3 1.8 1.8 0.7 0.4 1.1-0.1-0.9 2.4-2 0.8-1.3 0-1.4-1.6 0.2-4.2z" id="GBRDG" name="Reading">
  </path>
  <path class="england" d="M781.7 852.7l0.1 1.7 0.4 1.8-0.9 2.5 0.7 2.1-0.2 1 0.3 2.4-1.9 0-1-0.1-2.5 0.1-1.1-0.4-2 0.5-0.8-0.3-0.2-1-1.9-0.7-5.7 3.3-2.3 0.1-3.2 1.4-2.6 0.1-1.3 0.7-0.8-0.2-1 0.7-2.8 0.2-1.2-0.6-1.7 0.9-1.1 0.1-2.1-0.5-1-0.8 0.4-1.1-0.1-0.6-1.5-0.9-0.6-1.7-1.5-0.4 0-2.3-0.8-1.6 0.6-1.6 0.5-0.9 0.8-0.1 2.4 0.5 0.8-0.9 0.3-1.9-0.2-1.7-1.7-2.9 2.1-2.5 1.1-0.2 1.9-1.2 1.8-0.4 0.9-1.2 0.4-1.7 0.7-1.4 2.1 0.9 0.6-0.4-0.1-0.9 0.4-1.9 0.7-0.1 1.1 1.4 1.5 0.4 0.1 1.2 0.4 0.5 1.4 0.4 0.8 0.9 0.5 0.1 1.1 0.9 0 0.1 0.7 0 1.1 0.5 0.2 0.6 0.4 1-0.8 1.8 0.2 1.7 0.9-0.4 1.1-2.4 1.2-0.9 1.2 1.5-0.1 1.9 1.5-0.9 0.4 0.1 0.7 1.4 0.6 1.3 1.1 1 1.2-0.2 0.8-1.4 0.9-0.4 0.9 0.1 0.9-1.2 1.3 0.1 0.6 0.7 0.2 0.1 0.2 2.2 1.3-0.4 0.2 0.4z" id="GBSRY" name="Surrey">
  </path>
  <path class="england" d="M661.9 672.9l-0.4-0.6-0.7-1.5 0-1.7-0.1-1.6 0.1-1.9 0.1-1.4 0.6-1.2 0.8-0.7 1.2-0.6 1.1-0.3 1.3 0.6 0.9 2.2 0.9 2.4 0.8 2.6 0.3 0.8-0.2 0.2 0 1-0.2 0.6-0.5 0.5-2.7-0.7-1.4 1.6-1.9-0.3z" id="GBBBD" name="Blackburn with Darwen">
  </path>
  <path class="england" d="M697.2 824.9l1.2-0.3 1.1-1.4 0.8 0.2-0.1 0.7 0.1 1.5 1.4 1.4-0.3 1.5-0.8 0.9 0.1 2 0.3 0.4 1.1-0.1 2 3.7 0.9 0.2 0.2 1.1-1 0.9-1.6 0.8-1.7 0.8-1.2 0.7-1.6 0-1.4-0.2-1.2-0.5-1.1-0.8-1.2-2.1-0.2-1.2 0-1.7 0.4-1.5 0.6-1.1 1.2-1.8 1-1.8 0.7-1 0.3-1.3z" id="GBSWD" name="Swindon">
  </path>
  <path class="england" d="M671.9 850l-2.6 1.9-2.8 0.1-0.8 1.2-1.7 0.7-1.4-0.2-0.2-1-2.2-0.8-1.3 0.3-1.1 1-1.4 0-0.6-0.4-0.2-0.8-1.1-0.3-0.3-0.7-2.1-0.6 0-0.5-0.1-1.2 0.3-0.8 0.3 0 0.5 0.6 0.5 0.3 0.6 0 0.6-0.2 0.4-0.4 0.5-1.4 0.1-1 1.3 0.1 2.1 0 1-1 0.6-1.1 0.2-0.8 0.9 1 1.4 0.1 1.5 0 2.1 0.1 3.4-0.9 2.1-0.4 0.1 1.6-0.4 1 0.3 1-2.5 1.9 0.3 0.3 1.4 0.2 0.3 1.1z" id="GBBAS" name="Bath and North East Somerset">
  </path>
  <path class="england" d="M672.8 831.1l1.5-0.2 2.2-1.4 2 0.7 2.3-2.4 2-3.3 3.3 1.4 0.9 0.9 0.9-0.5 0-1.5 0.4-0.2 2.1 0.9 1 0.8 0.2-0.4-0.8-1.2-0.1-0.8 1.1-0.1 1.5 1.3 0.8-1 0.2-1.7 0.3-0.4 0.5 0.2 0.8 2.6 0.9 0.2 0.4-0.1-0.3 1.3-0.7 1-1 1.8-1.2 1.8-0.6 1.1-0.4 1.5 0 1.7 0.2 1.2 1.2 2.1 1.1 0.8 1.2 0.5 1.4 0.2 1.6 0 1.2-0.7 1.7-0.8 1.6-0.8 1-0.9 0.1 1 1.3 2.1 1 0.8 0.3 1.2 0 0.7-1.5 0.4-0.4 0.6 1.4 2.6 1.6 0.9 0.1 0.8 0.5 0.8-0.1 0.9-1.8 0.2 0.3 2-0.9 2 0.5 1.8-0.5 0.5-1.9-0.9-1 0.4-0.6 1-0.7 0.3-2.4-0.4-0.8 0.3 0.5 2.3 1.5 2.5 0.3 1.6-0.2 1.8 1.1 0.7 0.3 0.6-0.4 1.7 0.5 2.4-0.1 1.5 0.9 0.6 0.3 0.6-0.9 0.9-0.3 0.8 1.1 1.3-0.6 1.3-2 0.7-0.8-0.3-1.3-1.5-1.9-0.2-1.3-0.7-2-0.4-1.3-1.3-0.4 0.2-0.5 0.9-0.5-0.1 0.1-0.6-0.2-0.1-2.6 0.5-1.2 0.8-0.9-0.3-1.2 1.1-1.8 0.4-1.2 0.9-1.8 0.3-0.7-0.7-0.5-1.2-0.9-0.3-2.4-4.3-1.4-1.7-0.7-0.4-1.2 0-1.1-0.7-1.6-0.2-1.2-0.9-0.2-0.7 0.2-1 3.8-6.8 0.7-2.6 0.7-1.5-0.3-1.6-1.3-0.8-0.2-0.8 0.4-0.7-0.6-0.8-0.5 0.1-0.3-1.1-1.4-0.2-0.3-0.3 2.5-1.9-0.3-1 0.4-1-0.1-1.6-0.4-3 0.3-1.1-0.2-0.5-1.2 0.1-0.4-0.3 0.3-0.7 1.6-1.3 1.6-0.6-0.8-2.2 0.1-1.5-0.5-0.7z" id="GBWIL" name="Wiltshire">
  </path>
  <path class="england" d="M684 655.5l1.4-1.8 1.1 0 2.7 3.8 2 0.3 1.9 1.5 2.2 2.2 1.6 2.6 0.8 2.8-3.9 2.6-2.5 0.6-6.9 1.9-0.5-0.6 0.1-1.3-0.5-0.9-0.2-0.8-0.8 0.1-0.8 0.7-0.8 0.2-0.9-0.9-0.7 0.1-0.5-1-0.4-0.2 0.1-0.6-0.5-1.6 1.8-2.4 0.1-2.9 1.1-1.5 2.3-1.1 0.5-0.7 0.2-1.1z" id="GBCLD" name="Calderdale">
  </path>
  <path class="england" d="M694.1 681.7l-2.5-1.3-1.3 0-1.9-2.8-1.8-2-0.5-1.7-1.4-0.3-0.3-1.6 6.9-1.9 2.5-0.6 3.9-2.6-0.8-2.8 1.7-1.2 3.4-0.8 3.1 4.9-0.3 3.3-1.5 0.9 0.3 3.4 0.6 2.5-0.7 0.9-2.7 1-1.9-0.3-2.7 1.5-1.6 0.2-0.5 1.3z" id="GBKIR" name="Kirklees">
  </path>
  <path class="england" d="M724.3 732l-1.3-0.5-0.6-1-0.8-1.9 0.1-2.2 0.5-1.9 1.1-1.8 1.5-0.2 1.2 1 0.9 1.6 0.6 1.7 0 1.6-1.8 2.1-1.4 1.5z" id="GBNGM" name="Nottingham">
  </path>
  <path class="england" d="M726.6 755.8l-2.1-0.8-0.6-3.3 0-1.6 1-1.3 1.8 0 2.3 0.6 0.7 1.9-0.4 2.1-2.7 2.4z" id="GBLCE" name="Leicester">
  </path>
  <path class="england" d="M712.1 734.4l-1.2-0.1-1.7-0.3-2.4-2.3 0.3-1.7 0.8-1.2 0.9-1.3 0.8-0.6 1.5 0.3 1.5 0.9 0.9 1 0.2 1.4-0.4 1.6-0.7 1.5-0.5 0.8z" id="GBDER" name="Derby">
  </path>
  <path class="england" d="M698.2 651.1l1.6 0.1 2.5-0.5 2.7 0.5 1.4-0.3 0.2-0.3 0.1-1.3 0.6-0.8 0.8 0.7 0.5 1.3 2.4 0.3 1.1-0.3 0.4-0.5 0-0.6 1.7-1.2 2.5-0.5 1.9 1.6 0.1 0.8-0.8 1.6 0.2 1.5-0.1 1.2-1.8 0.2 0.1 0.5 0.8 0.5 0.9 2.1-0.1 2.3 0.3 0.8 0.6 0.8 0.1 0.9-0.8 0.7-0.1 1-1.2 1.6-3.9 1.9-2.4-1-2.9-0.4-2.5 0.7-3.1-4.9 1-2-2.3-0.3 0-4.8-2.5-3.9z" id="GBLDS" name="Leeds">
  </path>
  <path class="england" d="M686.5 653.7l0.6-0.5 0.1-1.7-0.5-1.6 1.1-1.1-0.2-1.5 0.5-0.6 2 0.2 1.2-0.6 0.2 1.8 1.2 0.7 0.5-0.7 1.8-0.2 0.9 0.6 0.7 1.3 0.9 0.2 0.7 1.1 2.5 3.9 0 4.8 2.3 0.3-1 2-3.4 0.8-1.7 1.2-1.6-2.6-2.2-2.2-1.9-1.5-2-0.3-2.7-3.8z" id="GBBRD" name="Bradford">
  </path>
  <path class="england" d="M718 664.2l0.8 0 1.4 1.6 1.8 0.2 0.5 0.4-0.1 0.8-0.7 0.4-0.8 1.8-0.1 0.7 0 2.2 0.8 1.1-0.6 1.9-3 1.7-1.8-0.4-0.4-1-0.7-0.4-2.6 0.3-1.1-0.5-1.8 0.7-0.8-0.3-1.5 0.2-0.3-0.1-0.3-0.7-0.6-0.2-1.1 0.7-0.8 1.8-0.6-2.5-0.3-3.4 1.5-0.9 0.3-3.3 2.5-0.7 2.9 0.4 2.4 1 3.9-1.9 1.2-1.6z" id="GBWKF" name="Wakefield">
  </path>
  <path class="england" d="M716.2 676.6l0.9 3.1 1.4 2.2-1.4 2.8-2.1 0.7-1.7 1.9 0 2.7-1 0-0.9-1.6-0.8-3-2.2 0.2-2.2-0.2-1.5-2.2-10.6-1.5 0.5-1.3 1.6-0.2 2.7-1.5 1.9 0.3 2.7-1 0.7-0.9 0.8-1.8 1.1-0.7 0.6 0.2 0.3 0.7 0.3 0.1 1.5-0.2 0.8 0.3 1.8-0.7 1.1 0.5 2.6-0.3 0.7 0.4 0.4 1z" id="GBBNS" name="Barnsley">
  </path>
  <path class="england" d="M662.8 685.9l-0.8-4.1-0.4-1.8 3.2-1.3 3.3 1.6 1.7 0 1.4 2.3 0.3 2.6-1 1.5-2.2-0.5-1.9 0.5-1.8 2.6-1.8-3.4z" id="GBSLF" name="Salford">
  </path>
  <path class="england" d="M659.3 675.1l2.6-2.2 1.9 0.3 1.4-1.6 2.7 0.7 0.7 3.7 1.2 4.3-1.7 0-3.3-1.6-3.2 1.3-0.4-1.4-1.9-3.5z" id="GBBOL" name="Bolton">
  </path>
  <path class="england" d="M670.7 694l-2.3-0.2-1.4-0.9-1.6-0.5-1.2-0.5-0.3-0.2 0.8-1.4-0.1-1 1.8-2.6 1.9-0.5 2.2 0.5 0.8 2-0.6 1.6-0.7 1.5 0.7 2.2z" id="GBTRF" name="Trafford">
  </path>
  <path class="england" d="M673.3 695.2l-1.1 0.2-1.5-1.4-0.7-2.2 0.7-1.5 0.6-1.6-0.8-2 1-1.5-0.3-2.6 1.2-2 1.3-1.5 3.3 1.8-0.3 1.7-0.7 2.2-1.1 1.4 0 1.7-0.4 2.9-1.5 2.4 0.3 2z" id="GBMAN" name="Manchester">
  </path>
  <path class="england" d="M690.3 680.4l-0.6 0.9-0.4 1.6-0.6 0.4-1.5 0.1-0.7 2-2.6-1.9-3.3-1.2-2.6 2-2 0.5 0.7-2.2 0.3-1.7 1.4-3.2 2.6-1.5 5.1-2.3 0.5 1.7 1.8 2 1.9 2.8z" id="GBOLD" name="Oldham">
  </path>
  <path class="england" d="M673.4 674l0.3-0.5-0.1-2.1 0.4-1.2 0.9-0.8 3.5-2 0.4 0.2 0.5 1 0.7-0.1 0.9 0.9 0.8-0.2 0.8-0.7 0.8-0.1 0.2 0.8 0.5 0.9-0.1 1.3 0.5 0.6 0.3 1.6 1.4 0.3-5.1 2.3-2.6 1.5-1.4 3.2-3.3-1.8-0.1-2.9-0.2-2.2z" id="GBRCH" name="Rochdale">
  </path>
  <path class="england" d="M686.5 685.4l-0.2 2-1.2 1.3-0.2 0.6 0.1 0.5-2.1 0.3-3.2 0-2.6-1.5-2.2-0.7 0-1.7 1.1-1.4 2-0.5 2.6-2 3.3 1.2 2.6 1.9z" id="GBTAM" name="Tameside">
  </path>
  <path class="england" d="M668.8 670l0.1-0.2 1.2 0.7 1.7-0.7 0.6 0.1 0.2 3.1 0.8 1 0.2 2.2 0.1 2.9-1.3 1.5-1.2 2-1.4-2.3-1.2-4.3-0.7-3.7 0.5-0.5 0.2-0.6 0-1 0.2-0.2z" id="GBBUR" name="Bury">
  </path>
  <path class="england" d="M702.4 772.3l-1.5 0.1-0.5 0.5-1.5-1-1.8 0.6-0.3 0.8-1.8-1.1-0.8-0.9-0.4-1-0.6-0.3 1.3-2.4 1.7-0.5 0.2-3.4-1-1.1-0.1-1.3 2.3-0.3 2.8 4.4 1 1.2 1.9-1.5-0.9 7.2z" id="GBSOL" name="Solihull">
  </path>
  <path class="england" d="M703.3 765.1l7.7 0.5 0.6 0.2 0.2 0.4 0.3 3.6-1.4 1.3-2.3-0.1-1.2 0.9-1.2-1.3-1.3-0.1-0.5 0.9-1.8 0.9 0.9-7.2z" id="GBCOV" name="Coventry">
  </path>
  <path class="england" d="M692.3 755l1.1-1 0.8-0.2 1.2 0.3 0.5 0.9 0.3 1 0.9 1.2 0 0.9 0.9 1.8-0.4 1.1-2.3 0.3 0.1 1.3 1 1.1-0.2 3.4-1.7 0.5-1.3 2.4-0.4-0.2-2.6-0.8-1.2 0.6-1.4-0.1-1.3 0.7-0.6-0.1-0.3-1.1 0.9-1.3 0-0.6-1.1-0.7-0.7 0.2-0.4-0.9 0.2-2.1 1.4 0.4 1.5-0.3 0.9-1.6-0.9-0.9 0.9-2.1 1.4-0.4 0.6-1.5 1.4-0.9 0.8-1.3z" id="GBBIR" name="Birmingham">
  </path>
  <path class="england" d="M690.1 757.2l-0.6 1.5-1.4 0.4-0.9 2.1 0.9 0.9-0.9 1.6-1.5 0.3-1.4-0.4-0.6-1.3-1.7 0.2-0.7-0.8 1.1-2.2-0.6-2.2 0-0.9 1.1-0.8 0.7 1.1 2.4-1 3.2 0.5 0.9 1z" id="GBSAW" name="Sandwell">
  </path>
  <path class="england" d="M678.3 766.7l-0.2-4.2-0.9-1.8 2-1.1 0-1.1 0.4-1.1 0.4-1.2 0.8-0.4 1 0.6 0 0.9 0.6 2.2-1.1 2.2 0.7 0.8 1.7-0.2 0.6 1.3-0.2 2.1-0.8 0.2-0.5 0.9-1.2-1.1-1.7 1.1-1.6-0.1z" id="GBDUD" name="Dudley">
  </path>
  <path class="england" d="M683.1 751.8l1.2 0.1 3.4-1.7 0.3-0.4 0-1.2 0.3-0.5 0.3 0 1.7 1.2 0.1 2.5 0.7 0.9 0.2 1.5 0.7 0.7 0.3 0.1-0.8 1.3-1.4 0.9-0.9-1-3.2-0.5-2.4 1-0.7-1.1 1-1.4-0.8-2.4z" id="GBWLL" name="Walsall">
  </path>
  <path class="england" d="M679.6 757.4l-0.4-0.3-1.1 0.1-0.8-1.6-1.2-0.9 0.7-0.8 0.2-0.8 1.8-1 0.2-0.9 0.4-0.4 1.5-0.3 1.5 2 0.7-0.7 0.8 2.4-1 1.4-1.1 0.8-1-0.6-0.8 0.4-0.4 1.2z" id="GBWLV" name="Wolverhampton">
  </path>
  <circle class="england" cx="650.3" cy="709.1" id="GBCHW">
  </circle>
  <circle class="england" cx="649.7" cy="755.2" id="GBSHR">
  </circle>
  <circle class="england" cx="650.5" cy="791.3" id="GBHEF">
  </circle>
  <circle class="england" cx="682.7" cy="811.7" id="GBGLS">
  </circle>
  <circle class="england" cx="684.6" cy="547.2" id="GBNBL">
  </circle>
  <circle class="england" cx="641.3" cy="594.9" id="GBCMA">
  </circle>
  <circle class="england" cx="709.4" cy="561.3" id="GBNTY">
  </circle>
  <circle class="england" cx="711.7" cy="566.5" id="GBSTY">
  </circle>
  <circle class="england" cx="710.7" cy="574.6" id="GBSND">
  </circle>
  <circle class="england" cx="687.9" cy="590.8" id="GBDUR">
  </circle>
  <circle class="england" cx="720.5" cy="589.9" id="GBHPL">
  </circle>
  <circle class="england" cx="731" cy="599" id="GBRCC">
  </circle>
  <circle class="england" cx="704.7" cy="627.2" id="GBNYK">
  </circle>
  <circle class="england" cx="753.9" cy="651.4" id="GBERY">
  </circle>
  <circle class="england" cx="761.4" cy="662.7" id="GBKHL">
  </circle>
  <circle class="england" cx="749.8" cy="674.4" id="GBNLN">
  </circle>
  <circle class="england" cx="773.5" cy="681" id="GBNEL">
  </circle>
  <circle class="england" cx="765.6" cy="712.8" id="GBLIN">
  </circle>
  <circle class="england" cx="823.6" cy="748.3" id="GBNFK">
  </circle>
  <circle class="england" cx="826.3" cy="786.8" id="GBSFK">
  </circle>
  <circle class="england" cx="800.9" cy="813.8" id="GBESS">
  </circle>
  <circle class="england" cx="813" cy="833" id="GBSOS">
  </circle>
  <circle class="england" cx="796.6" cy="836.7" id="GBTHR">
  </circle>
  <circle class="england" cx="815.7" cy="861.1" id="GBKEN">
  </circle>
  <circle class="england" cx="804.9" cy="840.6" id="GBMDW">
  </circle>
  <circle class="england" cx="788.8" cy="879.1" id="GBESX">
  </circle>
  <circle class="england" cx="773" cy="885.5" id="GBBNH">
  </circle>
  <circle class="england" cx="756.5" cy="878.3" id="GBWSX">
  </circle>
  <circle class="england" cx="726.1" cy="866.7" id="GBHAM">
  </circle>
  <circle class="england" cx="729.6" cy="887.7" id="GBPOR">
  </circle>
  <circle class="england" cx="715.1" cy="880.7" id="GBSTH">
  </circle>
  <circle class="england" cx="671.2" cy="889.3" id="GBDOR">
  </circle>
  <circle class="england" cx="690.3" cy="894" id="GBBMH">
  </circle>
  <circle class="england" cx="687.2" cy="893.4" id="GBPOL">
  </circle>
  <circle class="england" cx="597.4" cy="892.5" id="GBDEV">
  </circle>
  <circle class="england" cx="610.8" cy="914.8" id="GBTOB">
  </circle>
  <circle class="england" cx="585.8" cy="918.5" id="GBPLY">
  </circle>
  <circle class="england" cx="567.5" cy="907.3" id="GBCON">
  </circle>
  <circle class="england" cx="647.5" cy="868.5" id="GBSOM">
  </circle>
  <circle class="england" cx="649.1" cy="843.8" id="GBNSM">
  </circle>
  <circle class="england" cx="658.5" cy="841.8" id="GBBST">
  </circle>
  <circle class="england" cx="664.3" cy="834.1" id="GBSGC">
  </circle>
  <circle class="england" cx="635.9" cy="693.3" id="GBWRL">
  </circle>
  <circle class="england" cx="653.5" cy="696.6" id="GBHAL">
  </circle>
  <circle class="england" cx="646.1" cy="688.5" id="GBKWL">
  </circle>
  <circle class="england" cx="640.9" cy="688" id="GBLIV">
  </circle>
  <circle class="england" cx="636.5" cy="676.4" id="GBSFT">
  </circle>
  <circle class="england" cx="655.8" cy="649.5" id="GBLAN">
  </circle>
  <circle class="england" cx="638.6" cy="656.1" id="GBBPL">
  </circle>
  <circle class="england" cx="718.7" cy="898.2" id="GBIOW">
  </circle>
  <circle class="england" cx="484.2" cy="953.7" id="GBIOS">
  </circle>
  <circle class="england" cx="771.5" cy="840.8" id="GBWND">
  </circle>
  <circle class="england" cx="770.1" cy="843.7" id="GBMRT">
  </circle>
  <circle class="england" cx="771.9" cy="836" id="GBWSM">
  </circle>
  <circle class="england" cx="770.5" cy="837.2" id="GBKEC">
  </circle>
  <circle class="england" cx="762.5" cy="839.1" id="GBHNS">
  </circle>
  <circle class="england" cx="763.8" cy="835.4" id="GBEAL">
  </circle>
  <circle class="england" cx="769" cy="837.2" id="GBHMF">
  </circle>
  <circle class="england" cx="716.1" cy="599.1" id="GBSTT">
  </circle>
  <circle class="england" cx="707.8" cy="601.2" id="GBDAL">
  </circle>
  <circle class="england" cx="720.5" cy="600.6" id="GBMDB">
  </circle>
  <circle class="england" cx="763.7" cy="842.5" id="GBRIC">
  </circle>
  <circle class="england" cx="775" cy="835.5" id="GBLND">
  </circle>
  <circle class="england" cx="778.2" cy="835.7" id="GBTWH">
  </circle>
  <circle class="england" cx="699.5" cy="567.3" id="GBGAT">
  </circle>
  <circle class="england" cx="703" cy="562.1" id="GBNET">
  </circle>
  <circle class="england" cx="728.2" cy="647.4" id="GBYOR">
  </circle>
  <circle class="england" cx="651.2" cy="687.9" id="GBSHN">
  </circle>
  <circle class="england" cx="775.3" cy="826" id="GBENF">
  </circle>
  <circle class="england" cx="772.8" cy="810" id="GBHRT">
  </circle>
  <circle class="england" cx="769.9" cy="828.8" id="GBBNE">
  </circle>
  <circle class="england" cx="778.9" cy="830" id="GBWFT">
  </circle>
  <circle class="england" cx="783.4" cy="831.3" id="GBRDB">
  </circle>
  <circle class="england" cx="790.3" cy="832.2" id="GBHAV">
  </circle>
  <circle class="england" cx="781.4" cy="774.1" id="GBCAM">
  </circle>
  <circle class="england" cx="786.3" cy="840" id="GBBEX">
  </circle>
  <circle class="england" cx="771.6" cy="847.3" id="GBSTN">
  </circle>
  <circle class="england" cx="744.7" cy="793.9" id="GBMIK">
  </circle>
  <circle class="england" cx="737.9" cy="809.1" id="GBBKM">
  </circle>
  <circle class="england" cx="759" cy="831.8" id="GBHIL">
  </circle>
  <circle class="england" cx="766.8" cy="832.7" id="GBBEN">
  </circle>
  <circle class="england" cx="760.4" cy="808.5" id="GBLUT">
  </circle>
  <circle class="england" cx="762.9" cy="830.4" id="GBHRW">
  </circle>
  <circle class="england" cx="754" cy="800.4" id="GBCBF">
  </circle>
  <circle class="england" cx="757" cy="785.9" id="GBBDF">
  </circle>
  <circle class="england" cx="748.5" cy="749.3" id="GBRUT">
  </circle>
  <circle class="england" cx="733.7" cy="711.6" id="GBNTT">
  </circle>
  <circle class="england" cx="737" cy="777.8" id="GBNTH">
  </circle>
  <circle class="england" cx="772.3" cy="833.3" id="GBCMD">
  </circle>
  <circle class="england" cx="774.7" cy="833.6" id="GBISL">
  </circle>
  <circle class="england" cx="764.8" cy="754.4" id="GBPTE">
  </circle>
  <circle class="england" cx="773.9" cy="840.4" id="GBLBH">
  </circle>
  <circle class="england" cx="775.9" cy="838.1" id="GBSWK">
  </circle>
  <circle class="england" cx="729.1" cy="680.6" id="GBDNC">
  </circle>
  <circle class="england" cx="775.8" cy="847.9" id="GBCRY">
  </circle>
  <circle class="england" cx="778.7" cy="841.3" id="GBLEW">
  </circle>
  <circle class="england" cx="774.6" cy="830.3" id="GBHRY">
  </circle>
  <circle class="england" cx="766.5" cy="844.8" id="GBKTT">
  </circle>
  <circle class="england" cx="781.3" cy="835.1" id="GBNWM">
  </circle>
  <circle class="england" cx="782" cy="839.7" id="GBGRE">
  </circle>
  <circle class="england" cx="776.7" cy="833.2" id="GBHCK">
  </circle>
  <circle class="england" cx="785.9" cy="834.5" id="GBBDG">
  </circle>
  <circle class="england" cx="735.1" cy="747.7" id="GBLEC">
  </circle>
  <circle class="england" cx="672.1" cy="705.7" id="GBCHE">
  </circle>
  <circle class="england" cx="705.6" cy="713.2" id="GBDBY">
  </circle>
  <circle class="england" cx="717.8" cy="691.2" id="GBROT">
  </circle>
  <circle class="england" cx="707.6" cy="691.7" id="GBSHF">
  </circle>
  <circle class="england" cx="677.5" cy="721.5" id="GBSTE">
  </circle>
  <circle class="england" cx="663.9" cy="744" id="GBTFW">
  </circle>
  <circle class="england" cx="686.2" cy="734.9" id="GBSTS">
  </circle>
  <circle class="england" cx="782.3" cy="847.1" id="GBBRY">
  </circle>
  <circle class="england" cx="677.8" cy="781.4" id="GBWOR">
  </circle>
  <circle class="england" cx="705.1" cy="783.4" id="GBWAR">
  </circle>
  <circle class="england" cx="714.4" cy="815.9" id="GBOXF">
  </circle>
  <circle class="england" cx="656.6" cy="680.3" id="GBWGN">
  </circle>
  <circle class="england" cx="677.5" cy="692.1" id="GBSKP">
  </circle>
  <circle class="england" cx="659.7" cy="692.6" id="GBWRT">
  </circle>
  <circle class="england" cx="716.9" cy="840.1" id="GBWBK">
  </circle>
  <circle class="england" cx="736.8" cy="843.1" id="GBWOK">
  </circle>
  <circle class="england" cx="743.5" cy="844.2" id="GBBRC">
  </circle>
  <circle class="england" cx="744.1" cy="836.2" id="GBWNM">
  </circle>
  <circle class="england" cx="753.6" cy="839.1" id="GBSLG">
  </circle>
  <circle class="england" cx="730.1" cy="840.8" id="GBRDG">
  </circle>
  <circle class="england" cx="758.1" cy="855.7" id="GBSRY">
  </circle>
  <circle class="england" cx="664.2" cy="666.7" id="GBBBD">
  </circle>
  <circle class="england" cx="697.3" cy="833.7" id="GBSWD">
  </circle>
  <circle class="england" cx="664.2" cy="849" id="GBBAS">
  </circle>
  <circle class="england" cx="687.8" cy="854.6" id="GBWIL">
  </circle>
  <circle class="england" cx="686.7" cy="663.6" id="GBCLD">
  </circle>
  <circle class="england" cx="696.6" cy="673.8" id="GBKIR">
  </circle>
  <circle class="england" cx="724.3" cy="727" id="GBNGM">
  </circle>
  <circle class="england" cx="726.3" cy="752.2" id="GBLCE">
  </circle>
  <circle class="england" cx="710.4" cy="730.7" id="GBDER">
  </circle>
  <circle class="england" cx="709.9" cy="658.6" id="GBLDS">
  </circle>
  <circle class="england" cx="694.4" cy="654.3" id="GBBRD">
  </circle>
  <circle class="england" cx="713" cy="671.5" id="GBWKF">
  </circle>
  <circle class="england" cx="708.7" cy="680.5" id="GBBNS">
  </circle>
  <circle class="england" cx="666.2" cy="683.1" id="GBSLF">
  </circle>
  <circle class="england" cx="665.7" cy="675.5" id="GBBOL">
  </circle>
  <circle class="england" cx="668" cy="689.9" id="GBTRF">
  </circle>
  <circle class="england" cx="673.2" cy="686.6" id="GBMAN">
  </circle>
  <circle class="england" cx="684.1" cy="679.2" id="GBOLD">
  </circle>
  <circle class="england" cx="677.3" cy="673.2" id="GBRCH">
  </circle>
  <circle class="england" cx="680.9" cy="686.2" id="GBTAM">
  </circle>
  <circle class="england" cx="671" cy="675.7" id="GBBUR">
  </circle>
  <circle class="england" cx="698.5" cy="768" id="GBSOL">
  </circle>
  <circle class="england" cx="707.3" cy="768.6" id="GBCOV">
  </circle>
  <circle class="england" cx="691.7" cy="763.2" id="GBBIR">
  </circle>
  <circle class="england" cx="685.3" cy="759.5" id="GBSAW">
  </circle>
  <circle class="england" cx="680" cy="763.6" id="GBDUD">
  </circle>
  <circle class="england" cx="687.7" cy="753.1" id="GBWLL">
  </circle>
  <circle class="england" cx="680.2" cy="753.4" id="GBWLV">
  </circle>
 </g>
</svg>
