<?xml version="1.0"?>

<svg baseprofile="tiny" fill="#eee" height="422.9" stroke="#ccc" stroke-linecap="round" stroke-linejoin="round" stroke-width="1" version="1.2" viewBox="397.4 530.5 140.7 119.0" width="500" xmlns="http://www.w3.org/2000/svg">
 <g id="features">
  <path vector-effect="non-scaling-stroke" d="M431.8 567.2l0.3-0.5 0.1-0.7-0.3-2.1 0.2-0.6 0.3-0.1 0.1-0.1-0.2-0.7 1.3-2.1 0.5-0.5 0.6-0.5 2.9-0.4 0.4-0.5 0.4-0.5 0.4-0.6 0.9-0.3-0.4 1.5 0.7 0.1 2.1-0.7 0.9 0.1 1.3 0.7-0.1 0.1-1.1 1.3 1 1.1 1 2.8 0.8-0.3 1.3 0.3-0.5 1.6 0.2 1.9 0.5 1.3 1.4 1.1 0.4 1.9 0.5 0.6-0.3 1 0 2.4 1.4 1.9-1.7 0.1-1.1 0.7-1.8-0.7-0.3-0.8-2.2-2.2-1.6 0.5-0.5-0.2 0.5-0.7-0.6-0.7 0-1.5-3.2-0.3-0.1-0.6 0.9-1.3-0.1-0.3-2.6-0.7-1.3 0.6-1.3-0.2-0.9-1.6-1-0.5-0.1-0.1z M418.1 594.8l-0.1-1.6-0.5-0.1-0.7 0.5-0.8 0.4-0.7-0.3-1.5-1.3-0.7-0.4-0.3 0.1-0.8 0.6-0.4-0.1-0.3-0.4-0.5-1-0.4-0.2-0.8-0.3-0.8-0.5-0.4-0.8 0.4-1.2-0.3-0.2-0.8-0.6 2.4-1.2 1.6-1.6 0.6 0 1.3 1.2 1.6 0.8 1.6-0.1 1.6-0.9 1.6-1.7 0.9-0.5 1.6 0.5 1.4-0.4 0.8 0.4 0.5 0.1 0.6-0.3 0-0.2-0.2-0.2-0.2-0.7 0.1-2 0.3-1.1 3.4-4.2 0.8-1.5 0.5-1.7 0-0.9-0.2-2 0.1-1 0.4-0.5 0.9-0.4 0.1-0.1 0.1 0.1 1 0.5 0.9 1.6 1.3 0.2 1.3-0.6 2.6 0.7 0.1 0.3-0.9 1.3 0.1 0.6 3.2 0.3 0 1.5 0.6 0.7-0.5 0.7 0.5 0.2 1.6-0.5 2.2 2.2 0.3 0.8 1.8 0.7 1.1-0.7 1.7-0.1 0.9-0.8 1.2 0.2 1.1-0.4 1.2 1-0.1 1.1 0.9 1 0.1 0.6-0.2 0.6-1.3 0.6-1.2 0-0.9-0.6-1.2-0.2-1.1 0.7-2.8 0.7-1.3 0.9-4.4-0.3-1.7 0.7-1.3 1.2-0.6-0.4-1.2 0.2-1.1 1.8-2.8 1.4-1.1 2-1.2 1-0.1 1-1.1 0.1-0.8-0.7-1.3 0.2-1.6 0.9-0.1-0.5-0.6 0.1-2.5 1.4-1.9-0.1-1.9 2-0.7-0.3z M418.1 594.8l0.7 0.3 1.1 1.8 1.5-0.1 1.9 1.5 2.3-0.3 0.7 1 0 0.5-1.3 0.3-0.8 3 0.4 0.8-0.3 1 0.8 2.2 0 2.2 0.5 0.1 0.6 1 1.3 0.8 2-1.4 1.2-0.2 0.9-0.9 2.6 0.5 0.3 1 1.3 1.2-0.4 1.5 0.3 1 0.8 0.5 1.3-0.2 0.5 0.4 1.1 2.8 1 0.5 2-1.2 0 0.1-0.1 0.1-0.1 0.3 0.1 0.5 0.2 0.4 0.1 0.2-0.3 0.8-0.1-0.1-0.2 0.4-0.4-0.1-0.2 0 0.1 0.9 1.6 0.8-0.3 1.1 1.7 1.4-0.7 0.9 0.3 1.3-1 0.7-2.6 0.7-0.5 0.4-0.4 0.4-0.3 0.5-0.2 0.8 0.2 0.3 0.4 0.4 0.1 0.4-0.9 0.5 0.2 0.8-0.2 0.8-0.3 0.7-0.4 0.5-0.7 0.3-0.1-0.3 0-0.7 0-0.9 0.1-0.8 0.1-0.5-0.2-0.2-1.4 0.8-0.3 0.4 0 0.6 1 2.2-0.2 0-0.5 0.1-2.3-0.8-0.7 0.2-0.2-0.1-0.1-0.3-0.3-0.7-0.4-0.1-0.5 0-0.2-0.1 0.6-0.7-1.2-0.1-1.9 1.6-1 0.2-5-1.2-0.6-0.4-0.1-0.7-0.1-0.7-0.4-0.5-3.3-2.6-0.9-0.1-2.8 0.2-2.5-0.4-0.9-0.5-0.7-1.3-0.1-3.5-0.3-1.3-0.7-0.5-1.9-0.3-0.3-0.2-0.5-0.1-0.8-0.9-0.6-1.2-1-2.5-1.3 0-1.2-0.6-1.1-1.2-2-2.8-1.1-1.3-0.5-0.6-0.1-0.7-0.1-0.6-0.6-0.6 0.2-0.1 0.9-0.5 2.5-0.7 1.1-0.7 0.6-0.5 0.2-0.3 0.6-1.2 1-1.4 0.9-1.1 3.6 0.8 1.8 0.1 1.8-0.7 4.7-4.5 1.9-0.7z M442.4 616.5l0-0.1-2 1.2-1-0.5-1.1-2.8-0.5-0.4-1.3 0.2-0.8-0.5-0.3-1 0.4-1.5-1.3-1.2-0.3-1 0.9-0.6 1.6 0.1 2.2-1 0.8 0.3 0.8-0.3 0.6-0.9 2.2-0.9 1 0.1 0.4-0.4 0.7 0.5 0.6-0.2 0.4-0.4 0.6-1.4 2.5-0.8 0.3-0.2 0.2-1.1 1.2-0.2 1.4-1.3 0.2-0.8-0.4-0.8 0.7-1.5 3.1 1 1.2-0.5 0.7 0.2 1.4-0.7 1.2 0.7 1.5 0.3 1.3-0.7 1.1 1.7 0.5 0.3 0.9-1 1.8 0.3 0.5-0.8 2.3 0.9-0.1 0 0.9 0.4 1.8 0.9 0.2-0.1-0.7 0.9-1.4 1.3-0.5 0.4 0.8 1.2 0.1 1.1 0.4 1.3-0.5 0.4-1.2 0-1 0.7-2.1-1.1-0.8 1-1.1 0.5-0.1 0.6 0.2 0.5-0.4 0.6-0.3 1.4-0.3 0.2-3.7-0.7-0.6 0.9 0.3 1.1-0.1 0.6-1.3 1.7 0.1 1.4-0.6 0.7-0.9 0.3-0.2 0.1-0.1 0.2-0.5-1.3-0.3-0.3-0.5-0.1-0.4-0.2-0.4-1.3-0.4-0.6-2.9-2.4-1.6-0.8-1.4 0.1-1.4 1.3-2.3 3.7-1.5 1.1-0.4 0-0.8-0.1-0.2 0.1z M467.8 629.5l-0.7-0.8-1-0.9-0.5-0.3-0.6 0-0.5 0.3-0.3 0.5-0.4 0.4-0.6-0.1-1-0.6-1-0.9-0.9-1-0.8-1.3-0.2-0.8-0.2-0.8-0.2-0.7-0.4-0.5-1.7-0.8 0.8-0.5 0.4-0.8-0.1-1.1-0.5-1.5 0.1-0.2 0.2-0.1 0.9-0.3 0.6-0.7-0.1-1.4 1.3-1.7 0.1-0.6-0.3-1.1 0.6-0.9 3.7 0.7 0.3-0.2 0.3-1.4 0.4-0.6-0.2-0.5 0.1-0.6 1.1-0.5 0.8-1 2.1 1.1 1-0.7 1.2 0 0.5-0.4 2.1 3.6 1.2 0.2 0 1.7 1.1 1.4 1.3 0.1 1.3-1.4 0.1 1.2 0.7 1 0.1 1 0.6 1.1-0.2 3.8 0.9 1.3-0.7 0.8-1.2-0.7-0.8 0.5-1.3 0.1-0.9 1-1 0.2-0.4 1.5-0.5 0.1-0.4 0.6-1.2-0.7-1.3 0.6-0.5 0.8-1.3-0.1-1.6 1.6-0.4 0.9 0.2 0.8-0.2 0.3z M467.8 629.5l0.2-0.3-0.2-0.8 0.4-0.9 1.6-1.6 1.3 0.1 0.5-0.8 1.3-0.6 1.2 0.7 0.4-0.6 0.5-0.1 0.4-1.5 1-0.2 0.9-1 1.3-0.1 0.8-0.5 1.2 0.7 0.7-0.8 0.7 0.9 1-0.1 0.9 0.4 1-0.3 4.2 1.6 1.1-0.4 0.7 0.5 1.8 0.2 2-0.8 1.3 0.4-1.5 1.1 0.7 0.2 0.3 2.3 1.1 2.5 0.3 0.1 1-1.3 1 0 0.8-0.6 1.9 1.2 1.6-0.5 0.8 0 0.4 0 0 0.3-0.1 1.6-0.3 1.6-0.4 1.6-0.5 1.3-0.8 1.1-2 1-1.5 1.5-1.9 1.5-0.7 0.3-1.8 0.2-0.7-0.1-0.9-0.7 0-0.4 1-0.5 0.4-0.1-3.6-1.3-0.6-0.1-0.6-1.4-1.2-0.5-1.4-0.1-1-0.4-0.3 0.5-0.7-0.5-0.7 0-0.7 0.4-0.6 0.1-0.5-0.4-0.4-0.5-0.4-0.1-0.6 1.1-0.1 0.5 0.1 0.6 0 0.7-0.2 0.6-0.3 0.3-1.1 0.2-1.2 0.4-0.3 0-0.3-0.2-0.3-0.3-0.2-0.4 0-0.1-1.3 0-4 1.5-0.4 0-0.7-0.3-0.3 0.1-0.3 0.2-0.2 0.4-0.3 0.4-0.2 0.2-0.7-0.4-1.3-1.5-0.7-0.6 0.7-1.9 0.1-0.9-0.5-0.9 1.1-1.4 0.4-1.4-0.3-1.5-0.3-0.4z M450.8 577.7l-1.4-1.9 0-2.4 0.3-1-0.5-0.6-0.4-1.9-1.4-1.1-0.5-1.3-0.2-1.9 0.5-1.6-1.3-0.3-0.8 0.3-1-2.8-1-1.1 1.1-1.3 0.1-0.1 0.7 0.4 1.6 0.2 1.6-0.2 0.6-0.4 1-1.3 0.7-0.5 0-1.1 0.3-1.5 0.6-1.3 0.5-0.6 0.6-0.8 0.3-3.7 0.2-1.2 0.8 0 2 1.4 0.9 0.3 2.2-0.1-0.1 0.8-0.1 0.8-0.4 0.7 0 0.8-0.6 1 1.9 1.9 0.7 2.6-0.2 2.5 0.1 2.6 0.3 0.7 1.1 0.7-1.1 1-0.3 0.8 0.7 1 0.6 3.7 0.6 0.8-0.4 1.1 0 1.9-1.6 1.5-3.7-0.4 0.1 1.7-1.3 1.2-1.2-1-1.1 0.4-1.2-0.2-0.9 0.8z M461.5 569.9l-0.6-3.7-0.7-1 0.3-0.8 1.1-1-1.1-0.7-0.3-0.7-0.1-2.6 0.2-2.5-0.7-2.6-1.9-1.9 0.6-1 0-0.8 0.4-0.7 0.1-0.8 0.1-0.8 3.9-0.2 5.3-2.5 3.3-0.2 0.8-0.6 0.3-0.6 0.3 0.4 0.4 0.7 0 1.1 0.4 0.8-0.1 2 0.5 1.3-0.1 0.5-1.2 0-1.4 1-0.3 2.7-0.4 0.7-1.2 1 0.9 1.3 0.5 1.7 0 0.9-0.4 0.7 0.5 2.1 1.4 1.5-0.1 1.4 0.3 0.5 1.3 0.7-0.8 0.3-0.3 1-0.7 0.3-1.3 0.3-2.6-1.1-0.7 0.9-1.8 0.6-0.7-0.8-1.3-0.2-1.6 1.5-0.5-0.1z M474 550.5l-0.5-1.3 0.1-2-0.4-0.8 0-1.1-0.4-0.7-0.3-0.4 0.4-0.4 0.9-0.8 1-0.6 1-0.1 1.7 1 1.1 0.4 1.8-1.2 1.2 0.3 4.5 2.6 0.8 0.2 1-0.2 1.8-0.7 0.9-0.2 1.9 0.3 0.9 0.5 0.4 0.6 0.4 0.2 1.7 2 0.5 0.8-0.2 4.6-0.3 1.4-0.7 1.7 0.4 0.8 0.9 0.1 0.8-0.1 0.7 0.1 0.7 0.3 0.3 0.3-0.1 0.1-1.3 1.7-0.9 0.1-0.4 0.9-2.9 2.8-1.1 0.4-0.7-0.3-1-1.3-0.4-1.6-1.1-0.5-0.1-0.6-1.6-2.7 0-1.1-0.3-0.6 0.4-0.8-0.1-1.8-4.5 1.4-1-0.4-0.8-1.6-0.7-0.8-0.8 0-1.4 1-0.6-0.9 0.1-0.5-1.1 0.4-0.9-0.9-1.7 0z m13.1-13.4l2.4 0.4 0.5 0.3 0.1 0.8-0.3 1.1-0.5 0.9-0.3 0.5 0.1-0.6 0-0.4 0-0.3 0.2-0.4-1.1-0.9-1.1-0.1-1.2 0.1-1.1-0.2 0.6-0.5 0.5-0.3 0.5-0.3 0.7-0.1z M493.4 563.7l2.9-2.8 0.4-0.9 0.9-0.1 1.3-1.7 0.1-0.1 0.3 0.2 0.3 0.8-0.1 1.5-0.8 3 0.1 0.6 1.3 0.2 1.3 0.7 1.1 1 1 1.4 0.2 0.6 0.3 1.3 0.3 0.6 0.3 0.3 0.7 0.7 0.4 0.4 0.4 0.6 0.4 0.9 0.3 1 0.2 1.1 0.5 2.3 1.2 0.7 1.3 0.6 1.2 1.7 0.2 0-0.8-1.8-3-3.2 0.8-1.4 1.4 0.4 1.4 1.3 0.9 1.4 0.6 2.5-0.1 1.9-2.4 0.5-0.6 0.9-0.7-1.6-1-0.3-0.5 0.3-1-0.3-3.1 0.6-0.7-0.7-1 0.5-1.1-0.3-0.5 0.4-0.7-0.4-0.7 0.2-0.8-1.2 0-0.9-0.7-1.2 0.1-0.4 2.8-0.2 0.6-0.4 0.1-0.6-0.9-1.8-1.1 0-0.5 0.3-1.4-0.6-0.5-3.1 0.6-1.1 0.1-2-0.5-1.1-1.5-1.3-0.9-1.5-0.7-0.4z M503.3 581.5l3.1-0.6 1 0.3 0.5-0.3 1 0.3 0.7 1.6 0.6-0.9 2.4-0.5-0.1 0.4-0.6 1.8-1.1 1.2-1.4 0.7-2.8 0.8-1.2 0.7-1.3 1.1-0.3 0.4-0.2-0.4 0.1-0.6-0.5-1-0.7-0.4 0.7-2.5-0.5-0.5-0.1-0.9 0.7-0.7z M497.8 579.1l0 0.9 0.8 1.2 0.7-0.2 0.7 0.4 0.5-0.4 1.1 0.3 1-0.5 0.7 0.7-0.7 0.7 0.1 0.9 0.5 0.5-0.7 2.5 0.7 0.4 0.5 1-0.1 0.6 0.2 0.4-0.6 0.8-1.1 2.1-1.2-1-1.1 1-0.9-1.3-1.8 0-1.1-0.2-0.3-0.5 0-1.9 0.5-0.8 0.1-0.8-0.8-0.9-0.4-1.8 0.8-0.5 0.1-1.6-1.8-1.5 3.6-0.5z M497.1 590.1l1.8 0 0.9 1.3 1.1-1 1.2 1-0.6 1.1 0.6 0.4 0.2 0.7 0 0.7 0.2 0.4 0.6 0.1 0.3-0.4 0.3-0.5 0.5-0.5 0-0.1 2.9 0.7-0.4 1.7-1 0-1 0.7-1.6 0.2-0.6 0.7-2 1-0.3 0.6-0.4 0.4-0.2 0.7-0.5-0.1-0.4-1.7-2.1-1.5 0-1-0.5-1.2-1.1-1.2 1-0.5-0.8-1.6 0.2-0.3 1-0.1 0.7-0.7z M507.1 594l-2.9-0.7 1-1.6 0.5-0.5 1.6-0.8 1.6-1.3 1-0.4 0.8 0.3 0.7 0.5 1 0.1 5.7-0.9 0.2 0.3 0.2 0.3-0.3 0.3-0.3 0.2 0 1-1.3 0.7-0.5 1.2-1.6 1-2.3 0-1.4-0.8-1.3 1-1.6-0.3-0.8 0.4z M509.5 593.9l1.3-1 1.4 0.8 2.3 0 1.6-1 0.5-1.2 1.3-0.7 0-1 0.3-0.2 0.3-0.3 0.4 0.8 0.4 0.3 0.5 0.1 0.2 0.5 0 0.7 0.1 0.8 0.8 2.9 0.5 1.1 0.8 0.5 0.3 0.6 0.3 3.2 0.2 1.1 1.5 2.3 0.3 0.3-0.3 0.7 0 0.5 0.2 0.3 0 0.4-0.3 0.5-0.9 1.4-0.3 1 0.3 1.3-0.1 1.4-0.5 0.6-0.6 0.5-0.2 0.7 0.6 0.8-0.7 0.4-0.5 1.2-0.7 0.1-0.5-0.6-0.5-1.1-0.5-1.6-0.5-0.3-0.5-0.7-0.3-0.9-0.1-0.9 0.3-0.9 1.1-1.4 0.2-1.2-0.2-2.6-0.5-1.8-0.8-1.4-3.2-3.1-1.3-0.7-1.4-0.1 0 0.5 0.3 0.8-0.1 0.8-0.4 0.7-0.5 0.5 0.7 0 0.5 0.4 0.4 0.4 0.4 0.2 1.7 0.2 0.6 0.4-0.8 0.3-1 0.2-0.3 0.4 1.4 0.8-0.2 1 0 0.9 0.3 0.7-0.4 0.4-3.3 0.9-0.7-0.3-0.3-0.8-2.5-0.4-1.3-2.1-0.2-2.7 1.7-1.7-0.3-1 0.9-1.4 0.9-0.6 0.1-0.3-0.4-0.5 0.2-1.8z M504.4 628.6l-0.4 0-0.8 0-1.6 0.5-1.9-1.2-0.8 0.6-1 0-1 1.3-0.3-0.1-1.1-2.5-0.3-2.3-0.7-0.2 1.5-1.1 0.1-1.2 0.3-0.1 2.2 1.4 1.1-0.3-0.4-1.1 0.5-0.8-0.1-0.9 0.8-0.2 0.1-0.3-0.9-2.4-0.2-1.6 1.5-1.8 0-0.3-0.5-1 0.8-0.9-0.5-1.6 0.2-0.5 1.3-1.4-0.2-1.3 0.7-0.4 0.2-0.7 0.8-0.2 0.5-1.1 1.6-1 0.7 0 1.3 2.1 2.5 0.4 0.3 0.8 0.7 0.3 3.3-0.9 0.4-0.4 0.6 0.2-0.1 0.4 0 0.2-0.3 0.5 0.4 0.5-1.3 4.2-0.4 0.8-1.7 1.3-0.5 0.9 1.9-0.7 2.1-1.3 2-0.6 1.4 1.5 0.4 3.1-0.5 2.3-1.3 1.8-1.5 1.6-0.2 0.1-0.6-0.2-0.2 0.1-0.3 1.7-0.3 0.2-0.4 0.2-0.4-0.1-0.2-0.6-0.5-0.6-2.7-0.3-2 0.2-2.1 0.8-0.9 0.2-0.9 0.3-0.3 1 0.1 2.7z M454.6 581.6l1.3-0.6 0.2-0.6-0.1-0.6-0.9-1 0.1-1.1 1.3-1.2-0.1-1.7 3.7 0.4 1.6-1.5 0-1.9 0.4-1.1-0.6-0.8 0.5 0.1 1.6-1.5 1.3 0.2 0.7 0.8 1.8-0.6 0.7-0.9 2.6 1.1 1.3-0.3 0.7-0.3 0.3-1 0.8-0.3 0.7 1.8-0.1 0.5-0.2 0.8 0.9 1.3 0.5 1.7-0.1 1.4 0.6 2-0.3 1.4-0.2 0.9-0.1 0.5 0.1 0.8 0 0.1 0 0.2 0.2 0.5 0.2 0.4 0.1 0 0 0.1-0.3 1.8-0.1 0-0.4 0.8-0.4 1 0 0.8-0.1 0.6-0.4-0.4-0.7-0.4-0.1 0-1.7-0.9-0.2 0.8-0.4 0.4-1.3-0.3-2.1 0.7-0.7 0.9-1.1 0-1.8-0.8-1.8-2.4-1 0.4-2.1-0.8-3 1-1-0.3-1.6 0.2-0.5-0.2-0.6-0.8 1.6-0.8 0.3-1.3z M418.8 595.1l1.9-2 1.9 0.1 2.5-1.4 0.6-0.1 0.1 0.5 1.6-0.9 1.3-0.2 0.8 0.7 1.1-0.1 0.1-1 1.2-1 1.1-2 2.8-1.4 1.1-1.8 1.2-0.2 0.6 0.4 1.3-1.2 1.7-0.7 4.4 0.3 1.3-0.9 2.8-0.7 1.1-0.7 1.2 0.2 0.9 0.6 1.2 0-0.3 1.3-1.6 0.8-1.2 0.9 0.4 3-0.6 1.5 1.4 1-0.6 0.8 0.5 0.8 1 3-0.5 2.4-0.7 1.5 0.4 0.8-0.2 0.8-1.4 1.3-1.2 0.2-0.2 1.1-0.3 0.2-2.5 0.8-0.6 1.4-0.4 0.4-0.6 0.2-0.7-0.5-0.4 0.4-1-0.1-2.2 0.9-0.6 0.9-0.8 0.3-0.8-0.3-2.2 1-1.6-0.1-0.9 0.6-2.6-0.5-0.9 0.9-1.2 0.2-2 1.4-1.3-0.8-0.6-1-0.5-0.1 0-2.2-0.8-2.2 0.3-1-0.4-0.8 0.8-3 1.3-0.3 0-0.5-0.7-1-2.3 0.3-1.9-1.5-1.5 0.1-1.1-1.8z M473.4 600l-0.2 0.1-1.8-0.9-0.9-0.4 0.1 0-2.3-0.9-0.5 0.8-1.8-0.3-0.9 1-0.5-0.3-1.1-1.7-1.3 0.7-1.5-0.3-1.2-0.7-1.4 0.7-0.7-0.2-1.2 0.5-3.1-1 0.5-2.4-1-3-0.5-0.8 0.6-0.8-1.4-1 0.6-1.5-0.4-3 1.2-0.9 0.6 0.8 0.5 0.2 1.6-0.2 1 0.3 3-1 2.1 0.8 1-0.4 1.8 2.4 1.8 0.8 1.1 0 0.7-0.9 2.1-0.7 1.3 0.3 0.4-0.4 0.2-0.8 1.7 0.9 0.1 0 0.7 0.4 0.4 0.4 1.1 1 1.7 2.1 0.8 1.1 0.1 1.1-0.3 1.2-0.4 1.8-0.1 1.4 0 1.4-2.2 1.2-2.1 1.1z M472.1 606.2l-0.4-1.3-0.1-1.1-0.8-1.2 0.5-0.4 1.4-1.3 0.7-0.9 2.1-1.1 2.2-1.2 0.2 0.1 2.6-1.4 1.6-0.9 0.4-0.2 0.6 0.4 0.4 0.5 0.5 0.2 0.6 0 0.3-0.5-0.1-1 0-0.5 0.3-0.1 0.6 0.5 0.1 1-0.6 1.3-1 0.6 0.6 0.4 0.4 1.2 0.1 2.2 1.6 1.6 0 0.5-0.6 0.8 0.3 0.5 0.2 1.1 1.4 1.3 0.1 1.3-0.7 0 0 0.8 0.5 0.9-0.9 0.5-0.2 0.7-3.2 0.2-0.9-0.2 0 0.5-0.2 0-2.9-0.8-0.7 0.6-1.3 1.4-1.3-0.1-1.1-1.4 0-1.7-1.2-0.2-2.1-3.6z M481.3 621.2l-0.9-1.3 0.2-3.8-0.6-1.1-0.1-1-0.7-1-0.1-1.2 0.7-0.6 2.9 0.8 0.2 0 0-0.5 0.9 0.2 3.2-0.2 0.2-0.7 0.9-0.5-0.5-0.9 0-0.8 0.7 0 2-0.8 0.1 0.8 1.3-0.3 3.6 2.4 0.1 0.3-0.5 0.4 0.2 0.9 2.6 0.9 1.8-0.6 1 0.4 0.5 1 0 0.3-1.5 1.8 0.2 1.6 0.9 2.4-0.1 0.3-0.8 0.2 0.1 0.9-0.5 0.8 0.4 1.1-1.1 0.3-2.2-1.4-0.3 0.1-0.1 1.2-1.3-0.4-2 0.8-1.8-0.2-0.7-0.5-1.1 0.4-4.2-1.6-1 0.3-0.9-0.4-1 0.1-0.7-0.9z M494.2 579.6l1.8 1.5-0.1 1.6-0.8 0.5 0.4 1.8 0.8 0.9-0.1 0.8-0.5 0.8 0 1.9 0.3 0.5 1.1 0.2-0.7 0.7-1 0.1-0.2 0.3 0.8 1.6-1 0.5-3.3 0.4-2.5 1.3-1.1 0.1-0.7 0.8-1.6-0.1-0.1-1-0.6-0.5-0.3 0.1 0 0.5 0.1 1-0.3 0.5-0.6 0-0.5-0.2-0.4-0.5-0.6-0.4-0.4 0.2-1.6 0.9-2.6 1.4-0.2-0.1 0-1.4 0.1-1.4 0.4-1.8 0.3-1.2-0.1-1.1-0.8-1.1-1.7-2.1-1.1-1 0.1-0.6 0-0.8 0.4-1 0.4-0.8 0.1 0 0.3-1.8 0-0.1-0.1 0-0.2-0.4-0.2-0.5 0-0.2 0.2 0.2 0.5-0.1 3.6 0.4 1.7-1.6 1.1 0.6 1.2-0.3 1.2 0.4 0.5-0.6 1 0.4 0.2 0.5 1.4 0.1 0.9-1.6 1.9-0.4 3.2 1.2z M495 593.3l1.1 1.2 0.5 1.2 0 1 2.1 1.5 0.4 1.7 0.5 0.1 0.2-0.7 0.4-0.4 1.5 1.2 0.3 1 0.7 0.6 0.2 1.5 0.5 0 0.1 0.8 0.8 0.9-0.5 1.1-0.8 0.2-0.2 0.7-0.7 0.4 0.2 1.3-1.3 1.4-0.2 0.5 0.5 1.6-0.8 0.9-1-0.4-1.8 0.6-2.6-0.9-0.2-0.9 0.5-0.4-0.1-0.3-3.6-2.4-1.3 0.3-0.1-0.8-2 0.8-0.1-1.3-1.4-1.3-0.2-1.1-0.3-0.5 0.6-0.8 0-0.5-1.6-1.6-0.1-2.2-0.4-1.2-0.6-0.4 1-0.6 0.6-1.3 1.6 0.1 0.7-0.8 1.1-0.1 2.5-1.3 3.3-0.4z M473.8 567.2l-1.3-0.7-0.3-0.5 0.1-1.4-1.4-1.5-0.5-2.1 0.4-0.7 0-0.9-0.5-1.7-0.9-1.3 1.2-1 0.4-0.7 0.3-2.7 1.4-1 1.2 0 0.1-0.5 1.7 0 0.9 0.9 1.1-0.4-0.1 0.5 0.6 0.9 1.4-1 0.8 0 0.7 0.8 0.8 1.6 1 0.4 4.5-1.4 0.1 1.8-0.4 0.8 0.3 0.6 0 1.1 1.6 2.7 0.1 0.6-0.1 0.5-0.8-0.3-1.4 1.2-1.4 0.2-0.7 0.5-1.8-0.1-0.3 0.9 0.2 1.3-0.3 0.4-0.7-0.7-0.5 0.1-0.5 0.7-1.1-0.5-0.9 0.9-1.8 0.4-0.1 0.3 0.5 0.8 0.9 0.7-0.7 0.6 0.2 1.7-1.2-0.6-2.2 0.1 0.1-0.5-0.7-1.8z M489.1 560.4l1.1 0.5 0.4 1.6 1 1.3 0.7 0.3 1.1-0.4 0.7 0.4 0.9 1.5 1.5 1.3 0.5 1.1-0.1 2-0.6 1.1 0.5 3.1 1.4 0.6 0.5-0.3 1.1 0 0.9 1.8-0.1 0.6-0.6 0.4-2.8 0.2-0.1 0.4 0.7 1.2-3.6 0.5-3.2-1.2-1.9 0.4-0.9 1.6-1.4-0.1-0.2-0.5-1-0.4-0.5 0.6-1.2-0.4-1.2 0.3-1.1-0.6-1.7 1.6-3.6-0.4-0.5 0.1-0.2-0.2 0-0.1-0.1-0.8 0.1-0.5 0.2-0.9 0.3-1.4-0.6-2 0.1-1.4-0.5-1.7-0.9-1.3 0.2-0.8 2.2-0.1 1.2 0.6-0.2-1.7 0.7-0.6-0.9-0.7-0.5-0.8 0.1-0.3 1.8-0.4 0.9-0.9 1.1 0.5 0.5-0.7 0.5-0.1 0.7 0.7 0.3-0.4-0.2-1.3 0.3-0.9 1.8 0.1 0.7-0.5 1.4-0.2 1.4-1.2 0.8 0.3 0.1-0.5z M500.2 598.9l0.3-0.6 2-1 0.6-0.7 1.6-0.2 1-0.7 1 0 0.4-1.7 0.8-0.4 1.6 0.3-0.2 1.8 0.4 0.5-0.1 0.3-0.9 0.6-0.9 1.4 0.3 1-1.7 1.7 0.2 2.7-0.7 0-1.6 1-0.8-0.9-0.1-0.8-0.5 0-0.2-1.5-0.7-0.6-0.3-1-1.5-1.2z">
  </path>
 </g>
</svg>
