<?xml version="1.0"?>

<svg baseprofile="tiny" fill="#6f9c76" height="422.9" stroke="#ffffff" stroke-linecap="round" stroke-linejoin="round" stroke-width=".5" version="1.2" viewBox="397.4 530.5 140.7 119.0" width="500" xmlns="http://www.w3.org/2000/svg">
 <g id="features">
  <path class="northern-ireland" d="M431.8 567.2l0.3-0.5 0.1-0.7-0.3-2.1 0.2-0.6 0.3-0.1 0.1-0.1-0.2-0.7 1.3-2.1 0.5-0.5 0.6-0.5 2.9-0.4 0.4-0.5 0.4-0.5 0.4-0.6 0.9-0.3-0.4 1.5 0.7 0.1 2.1-0.7 0.9 0.1 1.3 0.7-0.1 0.1-1.1 1.3 1 1.1 1 2.8 0.8-0.3 1.3 0.3-0.5 1.6 0.2 1.9 0.5 1.3 1.4 1.1 0.4 1.9 0.5 0.6-0.3 1 0 2.4 1.4 1.9-1.7 0.1-1.1 0.7-1.8-0.7-0.3-0.8-2.2-2.2-1.6 0.5-0.5-0.2 0.5-0.7-0.6-0.7 0-1.5-3.2-0.3-0.1-0.6 0.9-1.3-0.1-0.3-2.6-0.7-1.3 0.6-1.3-0.2-0.9-1.6-1-0.5-0.1-0.1z" id="GBDRY" name="Derry">
  </path>
  <path class="northern-ireland" d="M418.1 594.8l-0.1-1.6-0.5-0.1-0.7 0.5-0.8 0.4-0.7-0.3-1.5-1.3-0.7-0.4-0.3 0.1-0.8 0.6-0.4-0.1-0.3-0.4-0.5-1-0.4-0.2-0.8-0.3-0.8-0.5-0.4-0.8 0.4-1.2-0.3-0.2-0.8-0.6 2.4-1.2 1.6-1.6 0.6 0 1.3 1.2 1.6 0.8 1.6-0.1 1.6-0.9 1.6-1.7 0.9-0.5 1.6 0.5 1.4-0.4 0.8 0.4 0.5 0.1 0.6-0.3 0-0.2-0.2-0.2-0.2-0.7 0.1-2 0.3-1.1 3.4-4.2 0.8-1.5 0.5-1.7 0-0.9-0.2-2 0.1-1 0.4-0.5 0.9-0.4 0.1-0.1 0.1 0.1 1 0.5 0.9 1.6 1.3 0.2 1.3-0.6 2.6 0.7 0.1 0.3-0.9 1.3 0.1 0.6 3.2 0.3 0 1.5 0.6 0.7-0.5 0.7 0.5 0.2 1.6-0.5 2.2 2.2 0.3 0.8 1.8 0.7 1.1-0.7 1.7-0.1 0.9-0.8 1.2 0.2 1.1-0.4 1.2 1-0.1 1.1 0.9 1 0.1 0.6-0.2 0.6-1.3 0.6-1.2 0-0.9-0.6-1.2-0.2-1.1 0.7-2.8 0.7-1.3 0.9-4.4-0.3-1.7 0.7-1.3 1.2-0.6-0.4-1.2 0.2-1.1 1.8-2.8 1.4-1.1 2-1.2 1-0.1 1-1.1 0.1-0.8-0.7-1.3 0.2-1.6 0.9-0.1-0.5-0.6 0.1-2.5 1.4-1.9-0.1-1.9 2-0.7-0.3z" id="GBSTB" name="Strabane">
  </path>
  <path class="northern-ireland" d="M418.1 594.8l0.7 0.3 1.1 1.8 1.5-0.1 1.9 1.5 2.3-0.3 0.7 1 0 0.5-1.3 0.3-0.8 3 0.4 0.8-0.3 1 0.8 2.2 0 2.2 0.5 0.1 0.6 1 1.3 0.8 2-1.4 1.2-0.2 0.9-0.9 2.6 0.5 0.3 1 1.3 1.2-0.4 1.5 0.3 1 0.8 0.5 1.3-0.2 0.5 0.4 1.1 2.8 1 0.5 2-1.2 0 0.1-0.1 0.1-0.1 0.3 0.1 0.5 0.2 0.4 0.1 0.2-0.3 0.8-0.1-0.1-0.2 0.4-0.4-0.1-0.2 0 0.1 0.9 1.6 0.8-0.3 1.1 1.7 1.4-0.7 0.9 0.3 1.3-1 0.7-2.6 0.7-0.5 0.4-0.4 0.4-0.3 0.5-0.2 0.8 0.2 0.3 0.4 0.4 0.1 0.4-0.9 0.5 0.2 0.8-0.2 0.8-0.3 0.7-0.4 0.5-0.7 0.3-0.1-0.3 0-0.7 0-0.9 0.1-0.8 0.1-0.5-0.2-0.2-1.4 0.8-0.3 0.4 0 0.6 1 2.2-0.2 0-0.5 0.1-2.3-0.8-0.7 0.2-0.2-0.1-0.1-0.3-0.3-0.7-0.4-0.1-0.5 0-0.2-0.1 0.6-0.7-1.2-0.1-1.9 1.6-1 0.2-5-1.2-0.6-0.4-0.1-0.7-0.1-0.7-0.4-0.5-3.3-2.6-0.9-0.1-2.8 0.2-2.5-0.4-0.9-0.5-0.7-1.3-0.1-3.5-0.3-1.3-0.7-0.5-1.9-0.3-0.3-0.2-0.5-0.1-0.8-0.9-0.6-1.2-1-2.5-1.3 0-1.2-0.6-1.1-1.2-2-2.8-1.1-1.3-0.5-0.6-0.1-0.7-0.1-0.6-0.6-0.6 0.2-0.1 0.9-0.5 2.5-0.7 1.1-0.7 0.6-0.5 0.2-0.3 0.6-1.2 1-1.4 0.9-1.1 3.6 0.8 1.8 0.1 1.8-0.7 4.7-4.5 1.9-0.7z" id="GBFER" name="Fermanagh">
  </path>
  <path class="northern-ireland" d="M442.4 616.5l0-0.1-2 1.2-1-0.5-1.1-2.8-0.5-0.4-1.3 0.2-0.8-0.5-0.3-1 0.4-1.5-1.3-1.2-0.3-1 0.9-0.6 1.6 0.1 2.2-1 0.8 0.3 0.8-0.3 0.6-0.9 2.2-0.9 1 0.1 0.4-0.4 0.7 0.5 0.6-0.2 0.4-0.4 0.6-1.4 2.5-0.8 0.3-0.2 0.2-1.1 1.2-0.2 1.4-1.3 0.2-0.8-0.4-0.8 0.7-1.5 3.1 1 1.2-0.5 0.7 0.2 1.4-0.7 1.2 0.7 1.5 0.3 1.3-0.7 1.1 1.7 0.5 0.3 0.9-1 1.8 0.3 0.5-0.8 2.3 0.9-0.1 0 0.9 0.4 1.8 0.9 0.2-0.1-0.7 0.9-1.4 1.3-0.5 0.4 0.8 1.2 0.1 1.1 0.4 1.3-0.5 0.4-1.2 0-1 0.7-2.1-1.1-0.8 1-1.1 0.5-0.1 0.6 0.2 0.5-0.4 0.6-0.3 1.4-0.3 0.2-3.7-0.7-0.6 0.9 0.3 1.1-0.1 0.6-1.3 1.7 0.1 1.4-0.6 0.7-0.9 0.3-0.2 0.1-0.1 0.2-0.5-1.3-0.3-0.3-0.5-0.1-0.4-0.2-0.4-1.3-0.4-0.6-2.9-2.4-1.6-0.8-1.4 0.1-1.4 1.3-2.3 3.7-1.5 1.1-0.4 0-0.8-0.1-0.2 0.1z" id="GBDGN" name="Dungannon">
  </path>
  <path class="northern-ireland" d="M467.8 629.5l-0.7-0.8-1-0.9-0.5-0.3-0.6 0-0.5 0.3-0.3 0.5-0.4 0.4-0.6-0.1-1-0.6-1-0.9-0.9-1-0.8-1.3-0.2-0.8-0.2-0.8-0.2-0.7-0.4-0.5-1.7-0.8 0.8-0.5 0.4-0.8-0.1-1.1-0.5-1.5 0.1-0.2 0.2-0.1 0.9-0.3 0.6-0.7-0.1-1.4 1.3-1.7 0.1-0.6-0.3-1.1 0.6-0.9 3.7 0.7 0.3-0.2 0.3-1.4 0.4-0.6-0.2-0.5 0.1-0.6 1.1-0.5 0.8-1 2.1 1.1 1-0.7 1.2 0 0.5-0.4 2.1 3.6 1.2 0.2 0 1.7 1.1 1.4 1.3 0.1 1.3-1.4 0.1 1.2 0.7 1 0.1 1 0.6 1.1-0.2 3.8 0.9 1.3-0.7 0.8-1.2-0.7-0.8 0.5-1.3 0.1-0.9 1-1 0.2-0.4 1.5-0.5 0.1-0.4 0.6-1.2-0.7-1.3 0.6-0.5 0.8-1.3-0.1-1.6 1.6-0.4 0.9 0.2 0.8-0.2 0.3z" id="GBARM" name="Armagh">
  </path>
  <path class="northern-ireland" d="M467.8 629.5l0.2-0.3-0.2-0.8 0.4-0.9 1.6-1.6 1.3 0.1 0.5-0.8 1.3-0.6 1.2 0.7 0.4-0.6 0.5-0.1 0.4-1.5 1-0.2 0.9-1 1.3-0.1 0.8-0.5 1.2 0.7 0.7-0.8 0.7 0.9 1-0.1 0.9 0.4 1-0.3 4.2 1.6 1.1-0.4 0.7 0.5 1.8 0.2 2-0.8 1.3 0.4-1.5 1.1 0.7 0.2 0.3 2.3 1.1 2.5 0.3 0.1 1-1.3 1 0 0.8-0.6 1.9 1.2 1.6-0.5 0.8 0 0.4 0 0 0.3-0.1 1.6-0.3 1.6-0.4 1.6-0.5 1.3-0.8 1.1-2 1-1.5 1.5-1.9 1.5-0.7 0.3-1.8 0.2-0.7-0.1-0.9-0.7 0-0.4 1-0.5 0.4-0.1-3.6-1.3-0.6-0.1-0.6-1.4-1.2-0.5-1.4-0.1-1-0.4-0.3 0.5-0.7-0.5-0.7 0-0.7 0.4-0.6 0.1-0.5-0.4-0.4-0.5-0.4-0.1-0.6 1.1-0.1 0.5 0.1 0.6 0 0.7-0.2 0.6-0.3 0.3-1.1 0.2-1.2 0.4-0.3 0-0.3-0.2-0.3-0.3-0.2-0.4 0-0.1-1.3 0-4 1.5-0.4 0-0.7-0.3-0.3 0.1-0.3 0.2-0.2 0.4-0.3 0.4-0.2 0.2-0.7-0.4-1.3-1.5-0.7-0.6 0.7-1.9 0.1-0.9-0.5-0.9 1.1-1.4 0.4-1.4-0.3-1.5-0.3-0.4z" id="GBNYM" name="Newry and Mourne">
  </path>
  <path class="northern-ireland" d="M450.8 577.7l-1.4-1.9 0-2.4 0.3-1-0.5-0.6-0.4-1.9-1.4-1.1-0.5-1.3-0.2-1.9 0.5-1.6-1.3-0.3-0.8 0.3-1-2.8-1-1.1 1.1-1.3 0.1-0.1 0.7 0.4 1.6 0.2 1.6-0.2 0.6-0.4 1-1.3 0.7-0.5 0-1.1 0.3-1.5 0.6-1.3 0.5-0.6 0.6-0.8 0.3-3.7 0.2-1.2 0.8 0 2 1.4 0.9 0.3 2.2-0.1-0.1 0.8-0.1 0.8-0.4 0.7 0 0.8-0.6 1 1.9 1.9 0.7 2.6-0.2 2.5 0.1 2.6 0.3 0.7 1.1 0.7-1.1 1-0.3 0.8 0.7 1 0.6 3.7 0.6 0.8-0.4 1.1 0 1.9-1.6 1.5-3.7-0.4 0.1 1.7-1.3 1.2-1.2-1-1.1 0.4-1.2-0.2-0.9 0.8z" id="GBLMV" name="Limavady">
  </path>
  <path class="northern-ireland" d="M461.5 569.9l-0.6-3.7-0.7-1 0.3-0.8 1.1-1-1.1-0.7-0.3-0.7-0.1-2.6 0.2-2.5-0.7-2.6-1.9-1.9 0.6-1 0-0.8 0.4-0.7 0.1-0.8 0.1-0.8 3.9-0.2 5.3-2.5 3.3-0.2 0.8-0.6 0.3-0.6 0.3 0.4 0.4 0.7 0 1.1 0.4 0.8-0.1 2 0.5 1.3-0.1 0.5-1.2 0-1.4 1-0.3 2.7-0.4 0.7-1.2 1 0.9 1.3 0.5 1.7 0 0.9-0.4 0.7 0.5 2.1 1.4 1.5-0.1 1.4 0.3 0.5 1.3 0.7-0.8 0.3-0.3 1-0.7 0.3-1.3 0.3-2.6-1.1-0.7 0.9-1.8 0.6-0.7-0.8-1.3-0.2-1.6 1.5-0.5-0.1z" id="GBCLR" name="Coleraine">
  </path>
  <path class="northern-ireland" d="M474 550.5l-0.5-1.3 0.1-2-0.4-0.8 0-1.1-0.4-0.7-0.3-0.4 0.4-0.4 0.9-0.8 1-0.6 1-0.1 1.7 1 1.1 0.4 1.8-1.2 1.2 0.3 4.5 2.6 0.8 0.2 1-0.2 1.8-0.7 0.9-0.2 1.9 0.3 0.9 0.5 0.4 0.6 0.4 0.2 1.7 2 0.5 0.8-0.2 4.6-0.3 1.4-0.7 1.7 0.4 0.8 0.9 0.1 0.8-0.1 0.7 0.1 0.7 0.3 0.3 0.3-0.1 0.1-1.3 1.7-0.9 0.1-0.4 0.9-2.9 2.8-1.1 0.4-0.7-0.3-1-1.3-0.4-1.6-1.1-0.5-0.1-0.6-1.6-2.7 0-1.1-0.3-0.6 0.4-0.8-0.1-1.8-4.5 1.4-1-0.4-0.8-1.6-0.7-0.8-0.8 0-1.4 1-0.6-0.9 0.1-0.5-1.1 0.4-0.9-0.9-1.7 0z m13.1-13.4l2.4 0.4 0.5 0.3 0.1 0.8-0.3 1.1-0.5 0.9-0.3 0.5 0.1-0.6 0-0.4 0-0.3 0.2-0.4-1.1-0.9-1.1-0.1-1.2 0.1-1.1-0.2 0.6-0.5 0.5-0.3 0.5-0.3 0.7-0.1z" id="GBMYL" name="Moyle">
  </path>
  <path class="northern-ireland" d="M493.4 563.7l2.9-2.8 0.4-0.9 0.9-0.1 1.3-1.7 0.1-0.1 0.3 0.2 0.3 0.8-0.1 1.5-0.8 3 0.1 0.6 1.3 0.2 1.3 0.7 1.1 1 1 1.4 0.2 0.6 0.3 1.3 0.3 0.6 0.3 0.3 0.7 0.7 0.4 0.4 0.4 0.6 0.4 0.9 0.3 1 0.2 1.1 0.5 2.3 1.2 0.7 1.3 0.6 1.2 1.7 0.2 0-0.8-1.8-3-3.2 0.8-1.4 1.4 0.4 1.4 1.3 0.9 1.4 0.6 2.5-0.1 1.9-2.4 0.5-0.6 0.9-0.7-1.6-1-0.3-0.5 0.3-1-0.3-3.1 0.6-0.7-0.7-1 0.5-1.1-0.3-0.5 0.4-0.7-0.4-0.7 0.2-0.8-1.2 0-0.9-0.7-1.2 0.1-0.4 2.8-0.2 0.6-0.4 0.1-0.6-0.9-1.8-1.1 0-0.5 0.3-1.4-0.6-0.5-3.1 0.6-1.1 0.1-2-0.5-1.1-1.5-1.3-0.9-1.5-0.7-0.4z" id="GBLRN" name="Larne">
  </path>
  <path class="northern-ireland" d="M503.3 581.5l3.1-0.6 1 0.3 0.5-0.3 1 0.3 0.7 1.6 0.6-0.9 2.4-0.5-0.1 0.4-0.6 1.8-1.1 1.2-1.4 0.7-2.8 0.8-1.2 0.7-1.3 1.1-0.3 0.4-0.2-0.4 0.1-0.6-0.5-1-0.7-0.4 0.7-2.5-0.5-0.5-0.1-0.9 0.7-0.7z" id="GBCKF" name="Carrickfergus">
  </path>
  <path class="northern-ireland" d="M497.8 579.1l0 0.9 0.8 1.2 0.7-0.2 0.7 0.4 0.5-0.4 1.1 0.3 1-0.5 0.7 0.7-0.7 0.7 0.1 0.9 0.5 0.5-0.7 2.5 0.7 0.4 0.5 1-0.1 0.6 0.2 0.4-0.6 0.8-1.1 2.1-1.2-1-1.1 1-0.9-1.3-1.8 0-1.1-0.2-0.3-0.5 0-1.9 0.5-0.8 0.1-0.8-0.8-0.9-0.4-1.8 0.8-0.5 0.1-1.6-1.8-1.5 3.6-0.5z" id="GBNTA" name="Newtownabbey">
  </path>
  <path class="northern-ireland" d="M497.1 590.1l1.8 0 0.9 1.3 1.1-1 1.2 1-0.6 1.1 0.6 0.4 0.2 0.7 0 0.7 0.2 0.4 0.6 0.1 0.3-0.4 0.3-0.5 0.5-0.5 0-0.1 2.9 0.7-0.4 1.7-1 0-1 0.7-1.6 0.2-0.6 0.7-2 1-0.3 0.6-0.4 0.4-0.2 0.7-0.5-0.1-0.4-1.7-2.1-1.5 0-1-0.5-1.2-1.1-1.2 1-0.5-0.8-1.6 0.2-0.3 1-0.1 0.7-0.7z" id="GBBFS" name="Belfast">
  </path>
  <path class="northern-ireland" d="M507.1 594l-2.9-0.7 1-1.6 0.5-0.5 1.6-0.8 1.6-1.3 1-0.4 0.8 0.3 0.7 0.5 1 0.1 5.7-0.9 0.2 0.3 0.2 0.3-0.3 0.3-0.3 0.2 0 1-1.3 0.7-0.5 1.2-1.6 1-2.3 0-1.4-0.8-1.3 1-1.6-0.3-0.8 0.4z" id="GBNDN" name="North Down">
  </path>
  <path class="northern-ireland" d="M509.5 593.9l1.3-1 1.4 0.8 2.3 0 1.6-1 0.5-1.2 1.3-0.7 0-1 0.3-0.2 0.3-0.3 0.4 0.8 0.4 0.3 0.5 0.1 0.2 0.5 0 0.7 0.1 0.8 0.8 2.9 0.5 1.1 0.8 0.5 0.3 0.6 0.3 3.2 0.2 1.1 1.5 2.3 0.3 0.3-0.3 0.7 0 0.5 0.2 0.3 0 0.4-0.3 0.5-0.9 1.4-0.3 1 0.3 1.3-0.1 1.4-0.5 0.6-0.6 0.5-0.2 0.7 0.6 0.8-0.7 0.4-0.5 1.2-0.7 0.1-0.5-0.6-0.5-1.1-0.5-1.6-0.5-0.3-0.5-0.7-0.3-0.9-0.1-0.9 0.3-0.9 1.1-1.4 0.2-1.2-0.2-2.6-0.5-1.8-0.8-1.4-3.2-3.1-1.3-0.7-1.4-0.1 0 0.5 0.3 0.8-0.1 0.8-0.4 0.7-0.5 0.5 0.7 0 0.5 0.4 0.4 0.4 0.4 0.2 1.7 0.2 0.6 0.4-0.8 0.3-1 0.2-0.3 0.4 1.4 0.8-0.2 1 0 0.9 0.3 0.7-0.4 0.4-3.3 0.9-0.7-0.3-0.3-0.8-2.5-0.4-1.3-2.1-0.2-2.7 1.7-1.7-0.3-1 0.9-1.4 0.9-0.6 0.1-0.3-0.4-0.5 0.2-1.8z" id="GBARD" name="Ards">
  </path>
  <path class="northern-ireland" d="M504.4 628.6l-0.4 0-0.8 0-1.6 0.5-1.9-1.2-0.8 0.6-1 0-1 1.3-0.3-0.1-1.1-2.5-0.3-2.3-0.7-0.2 1.5-1.1 0.1-1.2 0.3-0.1 2.2 1.4 1.1-0.3-0.4-1.1 0.5-0.8-0.1-0.9 0.8-0.2 0.1-0.3-0.9-2.4-0.2-1.6 1.5-1.8 0-0.3-0.5-1 0.8-0.9-0.5-1.6 0.2-0.5 1.3-1.4-0.2-1.3 0.7-0.4 0.2-0.7 0.8-0.2 0.5-1.1 1.6-1 0.7 0 1.3 2.1 2.5 0.4 0.3 0.8 0.7 0.3 3.3-0.9 0.4-0.4 0.6 0.2-0.1 0.4 0 0.2-0.3 0.5 0.4 0.5-1.3 4.2-0.4 0.8-1.7 1.3-0.5 0.9 1.9-0.7 2.1-1.3 2-0.6 1.4 1.5 0.4 3.1-0.5 2.3-1.3 1.8-1.5 1.6-0.2 0.1-0.6-0.2-0.2 0.1-0.3 1.7-0.3 0.2-0.4 0.2-0.4-0.1-0.2-0.6-0.5-0.6-2.7-0.3-2 0.2-2.1 0.8-0.9 0.2-0.9 0.3-0.3 1 0.1 2.7z" id="GBDOW" name="Down">
  </path>
  <path class="northern-ireland" d="M454.6 581.6l1.3-0.6 0.2-0.6-0.1-0.6-0.9-1 0.1-1.1 1.3-1.2-0.1-1.7 3.7 0.4 1.6-1.5 0-1.9 0.4-1.1-0.6-0.8 0.5 0.1 1.6-1.5 1.3 0.2 0.7 0.8 1.8-0.6 0.7-0.9 2.6 1.1 1.3-0.3 0.7-0.3 0.3-1 0.8-0.3 0.7 1.8-0.1 0.5-0.2 0.8 0.9 1.3 0.5 1.7-0.1 1.4 0.6 2-0.3 1.4-0.2 0.9-0.1 0.5 0.1 0.8 0 0.1 0 0.2 0.2 0.5 0.2 0.4 0.1 0 0 0.1-0.3 1.8-0.1 0-0.4 0.8-0.4 1 0 0.8-0.1 0.6-0.4-0.4-0.7-0.4-0.1 0-1.7-0.9-0.2 0.8-0.4 0.4-1.3-0.3-2.1 0.7-0.7 0.9-1.1 0-1.8-0.8-1.8-2.4-1 0.4-2.1-0.8-3 1-1-0.3-1.6 0.2-0.5-0.2-0.6-0.8 1.6-0.8 0.3-1.3z" id="GBMFT" name="Magherafelt">
  </path>
  <path class="northern-ireland" d="M418.8 595.1l1.9-2 1.9 0.1 2.5-1.4 0.6-0.1 0.1 0.5 1.6-0.9 1.3-0.2 0.8 0.7 1.1-0.1 0.1-1 1.2-1 1.1-2 2.8-1.4 1.1-1.8 1.2-0.2 0.6 0.4 1.3-1.2 1.7-0.7 4.4 0.3 1.3-0.9 2.8-0.7 1.1-0.7 1.2 0.2 0.9 0.6 1.2 0-0.3 1.3-1.6 0.8-1.2 0.9 0.4 3-0.6 1.5 1.4 1-0.6 0.8 0.5 0.8 1 3-0.5 2.4-0.7 1.5 0.4 0.8-0.2 0.8-1.4 1.3-1.2 0.2-0.2 1.1-0.3 0.2-2.5 0.8-0.6 1.4-0.4 0.4-0.6 0.2-0.7-0.5-0.4 0.4-1-0.1-2.2 0.9-0.6 0.9-0.8 0.3-0.8-0.3-2.2 1-1.6-0.1-0.9 0.6-2.6-0.5-0.9 0.9-1.2 0.2-2 1.4-1.3-0.8-0.6-1-0.5-0.1 0-2.2-0.8-2.2 0.3-1-0.4-0.8 0.8-3 1.3-0.3 0-0.5-0.7-1-2.3 0.3-1.9-1.5-1.5 0.1-1.1-1.8z" id="GBOMH" name="Omagh">
  </path>
  <path class="northern-ireland" d="M473.4 600l-0.2 0.1-1.8-0.9-0.9-0.4 0.1 0-2.3-0.9-0.5 0.8-1.8-0.3-0.9 1-0.5-0.3-1.1-1.7-1.3 0.7-1.5-0.3-1.2-0.7-1.4 0.7-0.7-0.2-1.2 0.5-3.1-1 0.5-2.4-1-3-0.5-0.8 0.6-0.8-1.4-1 0.6-1.5-0.4-3 1.2-0.9 0.6 0.8 0.5 0.2 1.6-0.2 1 0.3 3-1 2.1 0.8 1-0.4 1.8 2.4 1.8 0.8 1.1 0 0.7-0.9 2.1-0.7 1.3 0.3 0.4-0.4 0.2-0.8 1.7 0.9 0.1 0 0.7 0.4 0.4 0.4 1.1 1 1.7 2.1 0.8 1.1 0.1 1.1-0.3 1.2-0.4 1.8-0.1 1.4 0 1.4-2.2 1.2-2.1 1.1z" id="GBCKT" name="Mid Ulster">
  </path>
  <path class="northern-ireland" d="M472.1 606.2l-0.4-1.3-0.1-1.1-0.8-1.2 0.5-0.4 1.4-1.3 0.7-0.9 2.1-1.1 2.2-1.2 0.2 0.1 2.6-1.4 1.6-0.9 0.4-0.2 0.6 0.4 0.4 0.5 0.5 0.2 0.6 0 0.3-0.5-0.1-1 0-0.5 0.3-0.1 0.6 0.5 0.1 1-0.6 1.3-1 0.6 0.6 0.4 0.4 1.2 0.1 2.2 1.6 1.6 0 0.5-0.6 0.8 0.3 0.5 0.2 1.1 1.4 1.3 0.1 1.3-0.7 0 0 0.8 0.5 0.9-0.9 0.5-0.2 0.7-3.2 0.2-0.9-0.2 0 0.5-0.2 0-2.9-0.8-0.7 0.6-1.3 1.4-1.3-0.1-1.1-1.4 0-1.7-1.2-0.2-2.1-3.6z" id="GBCGV" name="Craigavon">
  </path>
  <path class="northern-ireland" d="M481.3 621.2l-0.9-1.3 0.2-3.8-0.6-1.1-0.1-1-0.7-1-0.1-1.2 0.7-0.6 2.9 0.8 0.2 0 0-0.5 0.9 0.2 3.2-0.2 0.2-0.7 0.9-0.5-0.5-0.9 0-0.8 0.7 0 2-0.8 0.1 0.8 1.3-0.3 3.6 2.4 0.1 0.3-0.5 0.4 0.2 0.9 2.6 0.9 1.8-0.6 1 0.4 0.5 1 0 0.3-1.5 1.8 0.2 1.6 0.9 2.4-0.1 0.3-0.8 0.2 0.1 0.9-0.5 0.8 0.4 1.1-1.1 0.3-2.2-1.4-0.3 0.1-0.1 1.2-1.3-0.4-2 0.8-1.8-0.2-0.7-0.5-1.1 0.4-4.2-1.6-1 0.3-0.9-0.4-1 0.1-0.7-0.9z" id="GBBNB" name="Banbridge">
  </path>
  <path class="northern-ireland" d="M494.2 579.6l1.8 1.5-0.1 1.6-0.8 0.5 0.4 1.8 0.8 0.9-0.1 0.8-0.5 0.8 0 1.9 0.3 0.5 1.1 0.2-0.7 0.7-1 0.1-0.2 0.3 0.8 1.6-1 0.5-3.3 0.4-2.5 1.3-1.1 0.1-0.7 0.8-1.6-0.1-0.1-1-0.6-0.5-0.3 0.1 0 0.5 0.1 1-0.3 0.5-0.6 0-0.5-0.2-0.4-0.5-0.6-0.4-0.4 0.2-1.6 0.9-2.6 1.4-0.2-0.1 0-1.4 0.1-1.4 0.4-1.8 0.3-1.2-0.1-1.1-0.8-1.1-1.7-2.1-1.1-1 0.1-0.6 0-0.8 0.4-1 0.4-0.8 0.1 0 0.3-1.8 0-0.1-0.1 0-0.2-0.4-0.2-0.5 0-0.2 0.2 0.2 0.5-0.1 3.6 0.4 1.7-1.6 1.1 0.6 1.2-0.3 1.2 0.4 0.5-0.6 1 0.4 0.2 0.5 1.4 0.1 0.9-1.6 1.9-0.4 3.2 1.2z" id="GBANT" name="Antrim">
  </path>
  <path class="northern-ireland" d="M495 593.3l1.1 1.2 0.5 1.2 0 1 2.1 1.5 0.4 1.7 0.5 0.1 0.2-0.7 0.4-0.4 1.5 1.2 0.3 1 0.7 0.6 0.2 1.5 0.5 0 0.1 0.8 0.8 0.9-0.5 1.1-0.8 0.2-0.2 0.7-0.7 0.4 0.2 1.3-1.3 1.4-0.2 0.5 0.5 1.6-0.8 0.9-1-0.4-1.8 0.6-2.6-0.9-0.2-0.9 0.5-0.4-0.1-0.3-3.6-2.4-1.3 0.3-0.1-0.8-2 0.8-0.1-1.3-1.4-1.3-0.2-1.1-0.3-0.5 0.6-0.8 0-0.5-1.6-1.6-0.1-2.2-0.4-1.2-0.6-0.4 1-0.6 0.6-1.3 1.6 0.1 0.7-0.8 1.1-0.1 2.5-1.3 3.3-0.4z" id="GBLSB" name="Lisburn">
  </path>
  <path class="northern-ireland" d="M473.8 567.2l-1.3-0.7-0.3-0.5 0.1-1.4-1.4-1.5-0.5-2.1 0.4-0.7 0-0.9-0.5-1.7-0.9-1.3 1.2-1 0.4-0.7 0.3-2.7 1.4-1 1.2 0 0.1-0.5 1.7 0 0.9 0.9 1.1-0.4-0.1 0.5 0.6 0.9 1.4-1 0.8 0 0.7 0.8 0.8 1.6 1 0.4 4.5-1.4 0.1 1.8-0.4 0.8 0.3 0.6 0 1.1 1.6 2.7 0.1 0.6-0.1 0.5-0.8-0.3-1.4 1.2-1.4 0.2-0.7 0.5-1.8-0.1-0.3 0.9 0.2 1.3-0.3 0.4-0.7-0.7-0.5 0.1-0.5 0.7-1.1-0.5-0.9 0.9-1.8 0.4-0.1 0.3 0.5 0.8 0.9 0.7-0.7 0.6 0.2 1.7-1.2-0.6-2.2 0.1 0.1-0.5-0.7-1.8z" id="GBBLY" name="Ballymoney">
  </path>
  <path class="northern-ireland" d="M489.1 560.4l1.1 0.5 0.4 1.6 1 1.3 0.7 0.3 1.1-0.4 0.7 0.4 0.9 1.5 1.5 1.3 0.5 1.1-0.1 2-0.6 1.1 0.5 3.1 1.4 0.6 0.5-0.3 1.1 0 0.9 1.8-0.1 0.6-0.6 0.4-2.8 0.2-0.1 0.4 0.7 1.2-3.6 0.5-3.2-1.2-1.9 0.4-0.9 1.6-1.4-0.1-0.2-0.5-1-0.4-0.5 0.6-1.2-0.4-1.2 0.3-1.1-0.6-1.7 1.6-3.6-0.4-0.5 0.1-0.2-0.2 0-0.1-0.1-0.8 0.1-0.5 0.2-0.9 0.3-1.4-0.6-2 0.1-1.4-0.5-1.7-0.9-1.3 0.2-0.8 2.2-0.1 1.2 0.6-0.2-1.7 0.7-0.6-0.9-0.7-0.5-0.8 0.1-0.3 1.8-0.4 0.9-0.9 1.1 0.5 0.5-0.7 0.5-0.1 0.7 0.7 0.3-0.4-0.2-1.3 0.3-0.9 1.8 0.1 0.7-0.5 1.4-0.2 1.4-1.2 0.8 0.3 0.1-0.5z" id="GBBLA" name="Ballymena">
  </path>
  <path class="northern-ireland" d="M500.2 598.9l0.3-0.6 2-1 0.6-0.7 1.6-0.2 1-0.7 1 0 0.4-1.7 0.8-0.4 1.6 0.3-0.2 1.8 0.4 0.5-0.1 0.3-0.9 0.6-0.9 1.4 0.3 1-1.7 1.7 0.2 2.7-0.7 0-1.6 1-0.8-0.9-0.1-0.8-0.5 0-0.2-1.5-0.7-0.6-0.3-1-1.5-1.2z" id="GBCSR" name="Castlereagh">
  </path>
  <circle class="northern-ireland" cx="441.2" cy="565.2" id="GBDRY">
  </circle>
  <circle class="northern-ireland" cx="432.7" cy="579.9" id="GBSTB">
  </circle>
  <circle class="northern-ireland" cx="417.4" cy="613.1" id="GBFER">
  </circle>
  <circle class="northern-ireland" cx="455.8" cy="605.2" id="GBDGN">
  </circle>
  <circle class="northern-ireland" cx="468.9" cy="617" id="GBARM">
  </circle>
  <circle class="northern-ireland" cx="484.9" cy="628.6" id="GBNYM">
  </circle>
  <circle class="northern-ireland" cx="454.3" cy="565" id="GBLMV">
  </circle>
  <circle class="northern-ireland" cx="465.1" cy="558" id="GBCLR">
  </circle>
  <circle class="northern-ireland" cx="491.4" cy="552" id="GBMYL">
  </circle>
  <circle class="northern-ireland" cx="503.8" cy="575.8" id="GBLRN">
  </circle>
  <circle class="northern-ireland" cx="506.7" cy="583.7" id="GBCKF">
  </circle>
  <circle class="northern-ireland" cx="499.2" cy="585.8" id="GBNTA">
  </circle>
  <circle class="northern-ireland" cx="500.2" cy="594.9" id="GBBFS">
  </circle>
  <circle class="northern-ireland" cx="509.4" cy="591.4" id="GBNDN">
  </circle>
  <circle class="northern-ireland" cx="518.1" cy="596.1" id="GBARD">
  </circle>
  <circle class="northern-ireland" cx="506.3" cy="615.2" id="GBDOW">
  </circle>
  <circle class="northern-ireland" cx="466.3" cy="578.4" id="GBMFT">
  </circle>
  <circle class="northern-ireland" cx="438.8" cy="596.1" id="GBOMH">
  </circle>
  <circle class="northern-ireland" cx="461.1" cy="591.2" id="GBCKT">
  </circle>
  <circle class="northern-ireland" cx="480.7" cy="603.9" id="GBCGV">
  </circle>
  <circle class="northern-ireland" cx="491.3" cy="616.1" id="GBBNB">
  </circle>
  <circle class="northern-ireland" cx="485.7" cy="587.4" id="GBANT">
  </circle>
  <circle class="northern-ireland" cx="493.3" cy="601.5" id="GBLSB">
  </circle>
  <circle class="northern-ireland" cx="476.6" cy="558.8" id="GBBLY">
  </circle>
  <circle class="northern-ireland" cx="486.7" cy="570.9" id="GBBLA">
  </circle>
  <circle class="northern-ireland" cx="504.5" cy="599.9" id="GBCSR">
  </circle>
 </g>
</svg>
