<?xml version="1.0"?>

<svg baseprofile="tiny" fill="#eee" height="500" stroke="#ccc" stroke-linecap="round" stroke-linejoin="round" stroke-width="1" version="1.2" viewBox="412.8 77.7 326.3 495.2" width="329.5" xmlns="http://www.w3.org/2000/svg">
 <g id="features">
  <path vector-effect="non-scaling-stroke" d="M684.4 496.2l-2.1 0.8-0.2 0.2-0.3 0.3-0.1 0.6-0.2 1.3-0.1 0.4-0.2 0.4-1.2 1.3-0.2 0.2-0.7 0.3-0.3 0.2-0.5 0.6-0.4 0.3-0.2 0.2-0.2 0.4-0.2 0.6-0.3 0.6-2.5 3.9-0.4 0.4-0.4 0.2-0.7 0.1-1.9 0.1-0.5 0.1-0.3 0.2-0.2 0.2 0 0.5 0 0.3 0.1 0.3 0.1 0.3 0.2 0.2 0.7 0.4 0.2 0.2 0.1 0.3 0 0.3 0.1 0.3 0.2 0.2 0.5 0.6 0.1 0.2 0.1 0.3 0.1 0.3 0.1 0.6 0.8 2.1 0.8 1.4 0.6 1 0.4 1 0.1 0.2 0 0.3 0 0.1 0 0.1 0 0.3 0 0.2 0.1 0.3 1.1 1.6 0.2 0.2 0.1 0.2 0 0.3 0 0.3 0 0.4-0.2 0.4-0.5 0.6-0.6 0.7-1 0.7-0.5 0.2-1.3 0.3-0.7 0.5-0.4 0.6-1.4 0.6-0.3 0.3-0.3 0.6-0.2 0.4-0.2 0.8-0.3 0.4-0.3 0.4-1 0.6-0.4 0.1-0.3-0.1-0.1-0.3-0.5-0.3-0.2-0.1-0.7-0.2-1.2 0.3-0.5 0.2-4.1 3.8-2.6 3.2-0.6 0.5-0.2 0.2-0.1 0.4 0 0.6 0.1 0.3 0.1 0.3 0.1 0.2 0 0.2 0 0.3-0.1 0.6-0.2 0.4-0.3 0.3-0.6 0.2-0.8 0.7-1.1 1.8-0.6 0.9-1 1-1.3 0.9-2 1-0.9 0.2-0.6 0.5-1.3 2 0-0.1-0.5-2-1.1-0.8-0.3-0.7 0.3-3.9 0.9-1.3 0-1-0.2-0.5-1.4-0.1-0.3-0.4 0.3-0.9 1.2-0.7-0.3-0.8-0.5-0.5-1.6-0.2-1-0.6-1.2 0.5-1.2 1.1-0.7-0.8-1.1 0.4-0.5-0.6 0.1-1-0.6-1.2-1.9-1.9 0-1.3-0.3-0.5-1.2-0.4-1.6 0.6-0.9-1.1-1.2-0.8-2.4 1.5-1.2 1.1-0.9-0.1-0.2-0.6 0.2-0.9 0.1-2 0.9-1.4 2-1.4 0-0.6-0.6-0.2-1.7-0.1-1.3-0.7-0.9 1.8-0.4 0.4-3.1 0-1.5 0.6-2.7-0.5-1.6-2.3 1-3.4 0.1-1.1 1.2-1.9-0.1-2.2 0.2-0.9-0.2-0.6-0.6-0.5-0.1-1-1.1-1.8 0.5-0.7 1.8-0.3 0.4-1.1-0.1-0.6-0.5-0.4 0.1-0.9 4-4.9-0.3-0.5-1 0-0.7-0.4 0.1-1.3-1.1-2.3 0-0.7 0.9-0.9 0.2-1.4 0.6-0.8 1.2-0.9 0.4-0.2 0.9 0.2 0.4 0.5 1.1 1.5 1.8 0 0.3 1.1 1 0.6 1.9-0.3 2.1-2.1 0.9 1.8 0.1 1.2 0.9 2.3 0 1.4 1.1 0.8 1.3-0.5 0.1-0.6-0.2-0.9 1-1.3 6.1-5.3 0.4 0.1 0.4 0.7-0.3 1.6 1.2 0.4 1-0.5 1.4-2.1 1.1-0.4 0.6-0.3 1.8-1.4 2.1 0.8 3.8-1.6 0.7 0.4 0 0.8 2.1 0.5 0.8-0.4 0.6-1 0.9 0.2 0.6-1.2 1.6-0.2 0.5 0.6 0.7-0.9 2.2-0.1 0.8-0.9 0.6 0.2 0.1-0.4-0.3-0.8-1.6-0.8 2.7-3.1 0.6-1.1 0.2-0.6 0.5 0.4 2 1.1 7.5 1.5 0.4 0.2 0.3 0.7 0.1 0.8 0.1 0.6 0.3 0.2 1 0.5 1 1 2.6 5.3z M615.2 529l2.7 0.5 1.5-0.6 3.1 0 0.4-0.4 0.9-1.8 1.3 0.7 1.7 0.1 0.6 0.2 0 0.6-2 1.4-0.9 1.4-0.1 2-0.2 0.9 0.2 0.6 0.9 0.1 1.2-1.1 2.4-1.5 1.2 0.8 0.9 1.1 1.6-0.6 1.2 0.4 0.3 0.5 0 1.3 1.9 1.9 0.6 1.2-0.1 1 0.5 0.6 1.1-0.4 0.7 0.8 1.2-1.1 1.2-0.5 1 0.6 1.6 0.2 0.5 0.5 0.3 0.8-1.2 0.7-0.3 0.9 0.3 0.4 1.4 0.1 0.2 0.5 0 1-0.9 1.3-0.3 3.9 0.3 0.7 1.1 0.8 0.5 2 0 0.1-1 1.5-0.2 0.3-0.4 0.4-0.3 0.3-1.5 0.7-0.3 0.3-0.7 1.8-0.2 0.2-0.3 0.2-0.7 0.2-0.4-0.1-1.7-0.9-0.3-0.1-0.3 0.1-0.2 0.4 0 2.2-0.1 0.3-0.6 1.3-0.2 1.5-4 1.1-14.9-1.1-0.8-0.3-0.7-0.4-0.7-0.2-0.7 0.3 0.2 0.1 0 0.1 0.1 0.4-0.8 0.3-0.7-0.2-1.4-1.3-0.6 2.3 0.4 0.9 0.2 1.6 0.1 1.7-0.1 1.3-0.5 1.4-0.8 0.4-4.3-0.4-1.3 0.2-1 1.7-3.3-0.5 0.1 0.4 0.1 0 0.1 0.2-0.4 0.3-0.3-0.1-0.3-0.3-0.3-0.5 0.6-1 0.2 0.1 0.2 0.4-0.1-0.6 0-0.3-0.2-0.2-0.6 0.9-0.7 0.7 0.2 0.8 0.1 0.3-0.3 0.1-0.6 0.5 1.6 1.7-0.5 0.3-2.4 1.1-3.7 2.9-2.2 0.3-1.5-0.2 0-0.6-0.2 0-0.1-0.1-0.2-0.1-0.1-0.2 0.1-0.2 0.2-0.3 0-0.1-0.1-0.8 0.2-1.1-0.1-0.8-0.7-0.3 0-0.4-0.7 0.6-0.5 1.2-0.2 1.4 0.5 1.2-1.8 0.4-2.4-1.6-1.7-2.8 0.4-3.2-0.7 0.4-1.1 1.5-0.8 0.4-0.7-0.1-3.5-1.7-0.5-0.5-0.4-0.5-0.5-1.2-0.2-0.9-0.3-0.6-0.8-0.2-0.2 0.4-0.4 0.8-0.3 1-0.2 0.9 0.5 1.9 0.3 1.2 0.3 0.6 0.8 0 0.7 0.2 0.6 0.4 0.5 0.8 0.2 1-0.4 0.9-0.3 1 0.7 1.2-0.6 1.2 0.2 1.7 0.2 1.5-0.3 0.7-0.3 0.2-0.2 0.3-0.3 0.4-0.5 0.2-1.1-0.2-1-0.4-1.1-0.9-0.5-0.2-1.7 0-0.4-0.3-2.7-4.2-1.5-1.5-5.6-3.5-2.1-0.6-1-0.6-0.8-2.3-1-0.5-1.8 0.1-1.1 0.5-1.1 0.8-0.9 1-0.8 1.1-0.4 0.7-0.2 0.5 0 0.4 0 0.6 0.1 0.7 0.2 0.9 0.4 0.8 0.4 0.4 0.4 0.9 0.5 1.9 0.7 1.9 1.4 1.2 0 0.7-0.2 1.5-0.1 0.7 0.1 0.4 0.6 1.3-1-0.2-2-1.1-1-0.3-0.5-0.6-0.2-1.2 0-1.4 0.5-0.7-0.3-0.5-0.2-0.6 0-0.5 0.2-0.6-0.9-0.1-0.4-0.2-0.3-0.3-0.2-0.7-0.2-1.1-0.3-1.1-0.4-0.5-1-0.4-4.4-5.4-1.4-2.5-0.8-2.9-0.3-3.2 0.2-3 0.3-1.4 0.6-0.7 1 0.1 0.5-0.1 0.3-0.3 0.2-0.9 0.4 0.4 0.5 0.9 0.2 0.5 0.7 1.1 0.3 0.8 0.2 0.9 0.1 0.9-0.1 1.9 0.2 0.8 0.6 0.9 0.8 0.7 0.9 0.1 0.8-0.8 0.1-0.3 0.2-0.3 0-0.6-1.7-3.4-0.2-0.7-0.1-0.7 2.1-1.2 1.3 0.1 1.6 0.7 0.5-0.1 1.2-1.2 0.3-1.2 0.5-0.6 3.3-0.6 1.2 0.7 0.5-0.5 3 0 3.3-1 0.5-0.6 0.1-0.7-0.1-0.6-1.2-0.7-0.3-1.8 0.2-1 1.7-1.7 2.8-1.5 0.6-0.2 2.3 0.8 1-0.5 0.4-0.3 0.4-1.2 0.6 0 0.3 2.8 0.6-0.1 0.7-0.8 0.1-1.7 0.8-0.7 0.3-2.9 1.2-2 0.2-1.8 1.2-1 1.2-2.7 0.6-0.1 1.9 0.4 0.3-0.1 0.3-0.9 2 0.2 0.7 0.5 1 1.6 0.8 0.4 1-1.3 0-1.4 1.3-2.5-0.6-2 0.2-2 1.1-1.6 3.2-1.6 0.2-0.3-0.5-1.3 0.5-0.3 0.7-0.3 0.3-0.1 0.9 0.7 3.7-0.1 2.5 0.7 2.6 3.1 1.3 3.1 1.6 0.7 0 2.6 0.3 0.9 1.4 0.9 1.4 1.6 1.2-0.2 0.1-1.6 0.3-0.6 1.7-0.9 0-1.6 0.3-1.2-0.1-1.6 3.1-2.2z M603.7 473.9l-1.7-1.7-1-1.2-0.6-0.5-1 0 0 0.5-0.4-0.1-0.5-0.9-0.2-0.9 0.3-1 0.7-1.3 0.6-2.1 0.1-0.9 3.1-2 0.5 0.4 0.7 1.5 0.5 0.3 2.7 0.2 0.5-0.8 1.2 0.3 0.8-0.4 2.4 1 0.3 0.4-0.4 0.4-3.8 1.8 0.3 1.8 0.3 0.5-0.8 0.6 0.2 0.5 0.6 0.3 0 0.4-2.9 0.9-1.1-0.1-0.4 1.1-0.8 0.8-0.2 0.2z M600 463.8l-0.1 0.9-0.6 2.1-0.7 1.3-0.3 1 0.2 0.9 0.5 0.9 0.4 0.1 2.8 2 0.4 0.7 0.4 0.2 1 1.8-1.3-0.1-2.7 0.7-4.5 0.5-3.1 1.2-1.1 0.9-0.3-1.1-3 0-1.3 1.4-0.8 0.3-0.3 0.1-0.4-0.4 0.1-1-0.1-0.6-0.8 0.2-0.3 0.9-0.5 0.4-1.1-0.8-2.3 0-1.4-0.4-0.5 0.7 1 2.4 0.1 1.6-0.4 0.8-1.3 0.2-2.7-1.7-0.3 0.1-1.2 0.3-0.8-0.3-1.1-1.9-1.3-0.4-0.6-1.2 0.1-0.9 1.9-1.1 0.1-0.3-0.9-0.7-2.5-0.8-1-0.8-1.3-0.1-1.3-0.4-1 0-0.6-0.8-1-3.1-1.6-4-0.7-2.2-0.1-2.2 0-0.2 0-0.1-0.1-1.7 0.2-0.8 0.1 0.1 0.2-1.2 0.6-0.6 0.2-0.3-0.5-0.7-0.1-0.6 0-0.3 1-1.7-2.6-0.5-0.7-0.1-0.3 0.1-2.5 0.7-0.2-0.4 0.1-0.3 0.3-0.8 0-0.3 0-0.3-2.7-1.7-0.2-0.6 1.3-1.9 0.1-0.6 0.2-0.7 1.5-1.6 2.1-0.9 0.2-1.1 0-0.3 1-0.6 1.6 0.1 1.3-1 1.8-1.7 1.6-0.7 1.7-0.1 0.4-0.4 0-0.7 0.4-0.4 0.6 0 0.8 0.7 0.6-0.1 3.7-1.2 1.8-1.3 1.4 0.7 1.5 3.9 0.3 0.5 2.3-0.9 2.8-1.5 1-0.3 0.4 0.1 1.1 0.8 1.3 2.9-1.5 0.4-1 0.9-1.8-0.4 0 5.6-0.3 0.6-0.4 0.4-1.1 0-0.2 0.5-0.3 0.1 0.3 0.1 0 1.3 0.6 0.7-0.2 1.6 2.3 2.4 2.4 0.6 1 1.2 0.8 0.4 0.3 0 0.3-0.9 0.3-0.1 0.8 1.1 2.3 0.3 1.6 1.6 2.6 1.4 1.3 1.7 1.7-0.4 0.2 0.2 0.1 1.7 0.4 0.4 0.1-0.1z M591.3 478.9l1.1-0.9 3.1-1.2 4.5-0.5 2.7-0.7 1.3 0.1 0.6 1.1 0.3 0.6 0.4 0.1 0.9-0.1 0.3 0 0.3 0.4 0.3 0.6 0.3 0.5 0.5 0.2 2.7-0.6 1 0 3.4 1-0.3 0.5-1.3 1.1-1.3 0-0.6-0.6-0.9 0.2-1.7 2.2-1.4 0.9-0.1 1-2.4 0.9-2.6 2.4-1.6 0.6-0.3-0.9-2-0.9-1.7-1.3 1.3-1.4 0.2-0.3-0.2-0.3-2.7-0.1-0.5-0.9-0.1-1.3-1.8-0.1 0.3-1.2-0.2-0.6-1.6 0.2-0.2-0.7z M620.1 495.2l-1.2 0.9-0.6 0.8-0.2 1.4-0.9 0.9-3-1.3-2-0.2-1.2-1.2-1-0.1-3.6 0.7-0.9 0.5-0.7 0.9-0.4 0-0.1-0.4-0.1-0.5 0.7-1.2 0.1-0.8-1.2-3.8 0.5-0.6 1.1-0.4 0.2-0.5-1.1-0.6-3 1-1.3-1.5 0.6-0.5 1.6-0.6 2.6-2.4 2.4-0.9 0.1-1 1.4-0.9 1.7-2.2 0.9-0.2 0.6 0.6 1.3 0 1.3-1.1 0.3-0.5 2.6 0.7 0 0.1 0 0.3-0.1 2 0 1.9 0.1 2.5 0.7 1.1 1 0.4 0.9 0.5 0.2 0.6-0.3 3.9 0 1.7z M621.8 495.7l-0.4-0.5-0.9-0.2-0.4 0.2 0-1.7 0.3-3.9-0.2-0.6-0.9-0.5-1-0.4-0.7-1.1-0.1-2.5 0-1.9 0.1-2 0-0.3 0-0.1 2.1 0.6 2.2 0 0.8-0.4 0.5 0.1 0.5 0.6 0.7 0.7 8.6 0.7 0.3 0.3 0.8 1.2 0.3 0.3 0.6 0.1 0 0.9-0.3 1.8-0.1 2-2.3 0.2-2.5 0.5-2.9 2.2-4.1 2.8-1 0.9z M647.1 494.9l-0.6 0.3-1.1 0.4-1.4 2.1-1 0.5-1.2-0.4 0.3-1.6-0.4-0.7-0.4-0.1-6.1 5.3-1 1.3 0.2 0.9-0.1 0.6-1.3 0.5-1.1-0.8 0-1.4-0.9-2.3-0.1-1.2-0.9-1.8-2.1 2.1-1.9 0.3-1-0.6-0.3-1.1-1.8 0-1.1-1.5 1-0.9 4.1-2.8 2.9-2.2 2.5-0.5 2.3-0.2 0.1-2 0.3-1.8 0-0.9 0.8-0.1 0 0.1 0 0.2 0.3 1.5 1.2 1.3 5.3 4 3.3 2.5 1.2 1z M668.6 483.9l-0.2 0.6-0.6 1.1-2.7 3.1 1.6 0.8 0.3 0.8-0.1 0.4-0.6-0.2-0.8 0.9-2.2 0.1-0.7 0.9-0.5-0.6-1.6 0.2-0.6 1.2-0.9-0.2-0.6 1-0.8 0.4-2.1-0.5 0-0.8-0.7-0.4-3.8 1.6-2.1-0.8-1.8 1.4-1.2-1-3.3-2.5-5.3-4-1.2-1.3-0.3-1.5 0-0.2 0-0.1 2.1-0.2 3.6-1.6 1.1-0.9 0.7-1.3 0.8-1 1.2-0.2-0.2-1-0.2-0.4-0.2-0.3 0.9-0.8 1.3-1.6 1-0.5 7.9 0.6 0.9 0.4 1.3 1.9 0.8 0.5-0.4 1.4-0.2 0.4 0.6 0.3 1.2-0.3 0.7 0.6 0.2-0.4 0.5-0.4 0.3-0.4 0.7 0.7 1.9 1.4 1.8 0.6 2.5 2.1z M569.9 549.8l-1 0.5-2.3-0.8-0.6 0.2-2.8 1.5-1.7 1.7-0.2 1 0.3 1.8 1.2 0.7 0.1 0.6-0.1 0.7-0.5 0.6-3.3 1-3 0-0.5 0.5-1.2-0.7-3.3 0.6-0.5 0.6-0.3 1.2-1.2 1.2-0.5 0.1-1.6-0.7-1.3-0.1-2.1 1.2-0.1-0.1-0.6-1.7-0.2-0.9 0-1.8 0.1-0.6 0.2-0.7 0.9-2 0.3-1.1 0.1-1.7 0.4-1.5 0.9-0.9 1.9-1.3 3.1-4.1 0.2-0.2 0.5-0.1 0.1-0.3 0-0.9 0-0.4 1.1-2.8 0.2-0.7 0-0.8-0.1-1.8 0.1-0.8 0.2-0.5 1.6-1.9 0.8-0.7 0.4-0.5 0.3-0.8 0.4-1.9 0.4-1 1.5-1.4 3.1-1.5 1.2-1.6 0.4-2.3-0.4-1.9-1.2-1.5-1.7-0.6 1-1.5 0.4 0.1 0.4-0.1 1.8-1.1 1.4-1.3 0.7 0.8 1.7 0.7 1.8 1.4 2.3 1 0.7 2.2 0 1.6-0.2 1.3-1.2 1.3-1 0.8-0.2 1 0.3 1 0.5 0.8 0.2 1 0 1.4-0.2 0.7-0.9 0-1.4-0.6-1.4 0-1.1-0.2-0.5 0.6 0.1 0.6 0.8 1.4 0.5 1.2 0.7 0.9 1.4 1.1 1.4 1.2 1 1.3 0.4 1.1 0.1 1.3 0 2 0 1.5-0.1 1.8-0.5 1.4-0.6 1.6 0 0.6z M564.6 514l-1.4 1.3-1.8 1.1-0.4 0.1-0.4-0.1 0-0.1-0.2-1.7-1-1.7-1.4-1.2-2.6-1.1-1.5-0.1-0.4-0.3 0.3-0.8 0-0.6-2.7-1.8-1.5-1.4-0.9-1.3 2.1-2.2 0.7-1.8-0.2-2.8-0.3-1-0.3-0.7-0.2-0.9-0.3-3.6 0-0.1 0.1 0 1.6-0.4 2.5 0 1.1 0.1 1.1 1 0.7 2 1 1.8 2.2 2.4 1.6 1.4 2.6 0.2 1.7-0.1 1.2 0.2 0 0.3-0.7 1.1-1.2 2.6-1.6 1.9-1.2 1.2-0.4 1 0.7 0.6 1.1 0.2 1.4 0 1.1 0 1.5 0.8 0 0.8-0.4 1.2-1.5 1.1-1.6 1.2-0.2 0.2z M556.6 491.9l-1.1-1-1.1-0.1-2.5 0-1.6 0.4-0.1 0-0.2-2.3 0.3-2.2 0.7-1.5 1-0.9 1.5-0.6 0.9-0.2 0.6 0.1 3 1.4 0.8 0.1 0.5-0.2 1 0.6 2.2 0.3 0 0.1 0.3 1.3 0.7 1.3 0.7 1.4 0.3 1.5-0.2 1-1 0.7-0.9 0-1.2 0-1.1-0.1-1.3-0.1-1.1-0.3-1-0.6-0.1-0.1z M567.6 499.8l-1.2-0.2-1.7 0.1-2.6-0.2-1.6-1.4-2.2-2.4-1-1.8-0.7-2 0.1 0.1 1 0.6 1.1 0.3 1.3 0.1 1.1 0.1 1.2 0 0.9 0 1-0.7 0.2-1-0.3-1.5-0.7-1.4-0.7-1.3-0.3-1.3 0-0.1 5.6 0.9 0.8-0.5 0.4 0.4 0.8 0.5 1.1 0.9 2 1.7 2 1.6 0 1.1-0.1 1.6 0 1 0 0.1-1.3 0.8-2.6 1.9-2.3 0.9-1.2 0.8-0.1 0.3z M563.8 473.4l1 0 1.3 0.4 1.3 0.1 1 0.8 2.5 0.8 0.9 0.7-0.1 0.3-1.9 1.1-0.1 0.9 0.6 1.2 1.3 0.4 1.1 1.9 0.8 0.3 1.2-0.3 0.1 3.5 0.2 1.8 0.3 0.6-0.1 1.4 0 1.6 0 0.4-2-1.6-2-1.7-1.1-0.9-0.8-0.5-0.4-0.4 0.4-0.2-5.1-1.1-0.1-0.3-0.3-1.3-0.1-1.7 0-0.1 0-0.8 0-0.8 0-0.1 0.1-0.8 0-0.6 0-0.6 0-3.1 0-1.3z M561.9 440.2l-1.3 1-1.6-0.1-1 0.6 0 0.3-0.2 1.1-2.1 0.9-1.5 1.6-0.2 0.7-0.1 0.6-1.3 1.9 0.2 0.6 2.7 1.7 0 0.3 0 0.3-0.3 0.8-0.1 0.3 0.2 0.4 2.5-0.7 0.3-0.1 0.7 0.1 2.6 0.5-1 1.7 0 0.3 0.1 0.6 0.5 0.7-0.2 0.3-0.6 0.6-0.2 1.2-0.1-0.1-0.2 0.8 0.1 1.7 0 0.1 0 0.2 0.1 2.2 0.7 2.2 1.6 4 1 3.1 0.6 0.8 0 1.3 0 3.1 0 0.6 0 0.6-0.1 0.8 0 0.1 0 0.8 0 0.8 0 0.1 0.1 1.7 0.3 1.3 0.1 0.3-1.9-0.4-2-1.3-2.4-3.1-1.9-0.7-0.9-0.9-0.7-1.1-0.6-1.1-0.6-2.5 0-0.4-0.7-0.2-0.2 0.6 0 0.9 0.3 1 2.2 3.4 0.5 1.5-0.3 0.7-0.8 0.2-1.2-0.1-1.1-0.4-0.5-1.2-0.1-1.5-0.1-3.2 0.1-0.7 1.8-4.9 3.3-5.4 0.2-1.2-0.2-0.3-0.5 0.4-0.6 0.9-2.7 5.6-0.7 1-1 0.1-0.3-0.7 0-2.6-0.2-1.1-0.4-0.9-0.7-0.2-0.6 0.8 0.5 1.5 0.7 2.9 0.4 2.9-0.1 1.3-0.6 0.3-0.1 0.6 0.2 1.7 0 1.6 0.1 1.2 0.2 0.9-0.6 0.4-0.7-0.3-0.8-0.4-0.8-0.2 0 0.5 0.6 0.3 0.6 0.4 0.5 0.7 0.2 1-0.2 1.2-0.4 0.8-0.6 0.7-0.4 0.7-0.2 1-0.1 0.8-0.2 0.8-0.5 0.8-0.6 0.8-0.6 0.1-1.5-0.4-0.7-0.9-0.7-2.1-0.5-2.4-0.1-1.7-1.9-2.5-0.3-1.1-0.3-0.7-0.8 0.6 0.8 1.4 1.8 4.6 0.3 1.7-0.4 0.8-0.9-0.3-3.1-2.5-0.4-1.1 0-1.8-0.5 0.7-0.4 1.1-0.3 1.1-0.1 0.9-0.2 0.6-1.4 2 1.2 2.4 0.4 1.3 0.4 1.5-0.9 0-2.1-1.2-1.5-0.6-0.5-0.7-0.3-2.1-0.3-0.3-0.4-0.2-0.3-0.4-0.2-0.6 0-0.8 0-1.5 0.1-0.6 0.5-1 0.1-0.7-0.1-0.7-0.6-2.4 1.2-1.4 5.1-9 2.7-1.1 2-1.6 0.4-0.4 1.7-3.9 0.7-1.1 1.5-1 1.7-0.7 1.7-1.3 0.9-2.2-0.8 0.6-1.8 1.9-0.7 0.4-2 0.2-0.7 0.3-0.8 0.7-0.5 1-1.1 3-0.4 0.6-5.6 3.8-3.9 6-0.4 0.3-0.9 0-0.3 0.3 0 0.4-0.2 1.2-0.3 1-0.2-0.1-0.4 1-1 0.3-1.2-0.1-0.8-0.3-0.1-0.4 0-0.7-0.1-0.5-0.3 0.2-0.2 0.4 0 0.5 0 0.6-0.3 4.5 0.1 0.2 0.7 0.3 0.3 0.1 0.5 1.7 0.2 0.9 0 0.8 0.2 0.7 0.5 0.5 0 0.5-0.3 0 0 0.6 0.2 0.1 0.5 0.4-0.3 0.2-0.2 0.3-0.2 0.1 2.6 2.9 1.2 2 0.4 2.1-0.3 1.1-0.7 0.6-1.6 0.5-0.7 0.5-2.1 2.5-0.6 0.7-0.4 1-0.3 1-0.1 0.7-0.2 1.4-0.1 0.7-1 0.8 0.1 0.4 0.2 0.3 0.1 0.3-0.1 1.9 0.4 0.5 0.6 0.1 0.4 0.9-0.3 1.1-0.8 0.3-0.5 0.5 0.3 1.5-1 2-0.3 0.8 0 0.4 0 1.6-0.1 0.7-0.1 0-0.2-0.1-0.2 0.2-1.1 2.8-0.7 1.1-1.1 0.7 0 0.5 0.6-0.1 0.4 0.2 0.5 0.4 0.4 0.7 0.8 1.8 0 0.4 0.6 0.5-0.5 1.3-1.6 2.2-0.7 0.8-1 0.7-1 0.5-1.1 0.3-0.5-0.1-0.9-0.5-0.5-0.1-0.5 0.3-1.1 0.8-0.5 0.1-1.4 0-0.8-0.3-0.5-1-0.6-3.6 0-1.8 0.2-1.6 1.3-1.2 1.8-2.1 0.4-0.8 0.1-1.7-0.3-1.9 0-1.9 0.6-2.4-0.2-0.6-0.3-0.6-0.1-0.6 0.1-0.9 1.1-2.5 1-2.9 0.2-1.6-0.5-1.2 2.5-2.2 0.4-0.9 0.2-1.1 0.7-1.5 0.8-1.2 0.7-0.5 1.3-0.6 1.6-1.5 1.5-2.2 0.9-2.5-4.6 5.1-1.6 1.4-0.6 0.3-0.6 0 0.3-1.1-1.3-0.5-0.6-0.4-0.7-0.8-0.3-1.1-0.1-2.3-0.2-0.6 2-3 0.3-0.7 0.3-1.1 0.7-0.9 0.8-0.8 0.7-1-1 0.6-1.6 1.9-1.3 0.6-0.8 0.9-0.4 0-0.4-0.5-0.2-1-0.1-0.9 5.1-8 0.4-1.1-0.2-0.4 0.3-0.3 0.2-0.4-0.6-0.2-0.6 0.3-0.6 0.6-0.7 0.4-0.3 1.6-2 2.3 0 1.9-0.8 1.5-0.2 0.2-0.4-0.1-0.2-0.5 0.1-0.6 0.2-0.5 0.2-2.2 1.8-3.5 3.5-5.1 0.1-0.3 0.1-0.4 0.1-0.4 0.3-0.1 0.3 0 0.4 0.2 0.3 0.2 0 0.1 0.1 0.2 0.4 0.3 0.4 0 0-0.5-0.2-0.5-0.3-0.3-0.3-0.2-0.1-0.2-0.3-1.3-0.1-0.7 0.2-0.6 1.5-2.3 0.3-0.8 0.3-1.2-1.4 0.5-1.1 1.3-0.9 1.4-1.1 0.9 0.3-1.7 0.6-1.7 0.8-1.7 0.9-1.3-0.4-1.1 0.5-0.9 1.1-0.6 0.9-0.2 0.5-0.3 0.1-0.6-0.3-0.6-0.6-0.3-2 0.6-0.4 0.3-0.5 0.5-0.4 0.5-0.5-0.1-0.2-0.8 0.1-0.9 0.5-1.8 0.6-3.1 0.4-1.1 0.9-1 0.9 0.5 1.2-0.1 2.4-1 0-0.5-1.1 0-2.1 0.7-1-0.2 0.9-2.8 0.4-0.7 0.5-0.3 0.6-0.3 0.4-0.4-0.2-0.7 1.2-1.7 1.5-0.8 4.7-0.4 3.8 1.1 1.6-0.4 1.3-1.1 2.9-4.1 1.6-3.4 0.9-1.4-1 0.5-0.6 1.3-0.5 1.5-0.7 1.3-1.9 1.8-1.1 1.8-0.5 0.5-2 0.3-5-1.2-1.3 1.2-0.8-0.6-0.8-3.2-0.6 0.3-0.5 0.8-0.9 1.8-0.7-0.5 1.7-4.1 0.2-1.2 1.2 1.1 1.1 0.5 1.1-0.1 0.8-0.3 2.3-1.8 1.2-0.5 0.5-0.5 0.5-0.7-1.5 1-0.6 0.1-0.9-0.1-0.2 0.1-0.8 0.6-0.5 0.2-1 0.9-0.6 0.1-0.5-0.2-0.8-0.9-0.6-0.1 0.1-0.6 0.2-0.3 0.2-0.2 0.3-0.3 0.2-0.4 0.1-0.8 0.2-0.3 1.2-2.3 0.4-0.6 1.9-1.8 0.3-0.5 0.3 0 0.1 0 5.9 0.8 1.2 1.2 3.3 0.8 0.6-0.9 1.1-0.5 0.8-1.5 2.3-0.3 2.2-1.3 1.1 0.2 0.3 0.1 1.4 0.8 3.5-0.6 1.3 0.8 0.2 0.1 2.2 0.2 0.1 0 1.7 0.1 1.8-0.8 0.6 0.2 0.2 1.3-0.5 0.7 0 1 1.3 0.3 0.2 0.1 0.6 1 1.2 2.1-0.3 0.6-0.5-0.3-1-0.6-4.5 2.2-0.1 0.2 0 0.2 0.3 0.5 1.3 0.3 0.3 0.4 0.2 0.2 0 0.7-1.3 2.3 0.1 0.7 0.5 0.6 1.2 0.4z m-20.2 80.6l-1.1 0.7 0.1 1.1 0.5 1.3 0.1 1.4-0.6 0.7-1.2 0.6-2.2 0.4-2.5-0.3-2.2-0.8-1.9-1.2-1.9-1.7 0-0.5 0-0.6-0.5-2.2-0.2-0.6 0-0.6 0.3-0.2 0.1-0.2 0.1-0.3 0.2-0.4-1.2-1.6-0.9-1.7-0.4-2 0.3-2.7 0.6-1.8 1.1-1.7 1.5-1.3 1.6-0.3-0.1-0.3-0.2-0.6-0.1-0.3 1.3-0.1 0.3 0.1 3.1 1.5 0.8 0.8 1 1.6 0.6 1.7 1 4.1-0.6 1.2 2.1 2.1 0.1 1.8-0.5 0.3-0.7 0-0.4 0.3 0.3 1.1 0.3 0.3 2 0.9z m1.9-19.9l0.5 0.3 0.3 0.7 0.1 0.7-0.3 0.5-0.6 0-0.4-0.8-0.6-1.4-3-2.9-0.5-1.4-0.6-2.3-0.1-1.1-1.6-1.1-0.3-0.7-0.4-1.2-0.5-1.5 0-1.3 1.6-0.8 1.4 1.2 1.4 1.6 0.5 0.3 0.4 0.1 0.3 0.2 0.3 1.9 0.3 0.4 0.4 0.2 0.4 0.4 0.6 1.1 0.4 1.1 0.4 1.1 0.4 2.6 0 0.5-0.3 0.4-0.5 1.2z m-46.9 1.7l-0.1 0.9 0 1 0.2 0.8 0.2 0.7 0 0.5-0.5 0.3-0.5 0.3-0.4 0.5-0.2 0.7-0.3-0.6-0.8 1.3-1.1 1-1.2 0.7-1.4 0.4-2-0.3-0.6 0.3-0.3 1.7-0.2 0.4-0.5 0.5-1.1 0.9-1.2 0.5-1.1-0.4-0.7-1.9 0.3-1.8 1-1.2 2.5-1.5-1-2.9-0.6-0.7-1.8-1-0.4 0 0.2-1.5 1.2-1.5 2.1-2.1-1-0.5-1.3-0.2-1.4 0.2-0.9 0.8-1.1 2.9-0.7 1.3-1.5 1.1-1.5 2.2-0.6 0.7-1.3 0.2-0.6-0.7 0.1-1.4 0.6-1.5-0.2-0.1-0.2-0.4-0.3-0.1 0.5-1.4 2.1-3.1-1.6-1.1 0.7-0.6 0.3-0.5 0.2-0.8 0.1-1.3 0.1-1 0.4-0.7 1.7-1.2 2.5-1.2 0.6-0.6 0.5-0.4 0.6 0.2-0.3 0.6-0.6 2.3 0 0.6 0.3 1.5 0.4 0.6 0.6 0.1 0-0.5-0.4-1.7 1-1.8 1.5-1.5 1.7-1 1.2-1.7 0.6-0.3 0.6-0.2 0.7-0.4 0.6-0.6 0.5-0.5 0.4 0.1 0.3 0.4 0.2 0.5 0.2 3.5 0.6 4.7 0.2 2.5 0.3 0.8 0.6 0.8 0.7 0.7 0.5 0.3 0.2 0.3-0.1 0.7-0.2 0.7-0.1 0.5 0.2 0.5 0.3 0.3 0.8 0.4z m-8.2-31.3l0.3-0.2 0.8 0.3 0.4-0.4-0.2-0.3-0.1-0.2-0.1-0.6 0.8-0.1 0.7-0.3 0.6 0 0.2 1-1.5 2.6-0.6 1.7 0.2 1.5-1 0.7-1.3 0.4-1.2-0.1-1-0.5 0.7-0.6 0.4-0.9 0.2-1.2 0.4-1 1-1.3 0.3-0.5z m19.1-0.8l2.4-2.4 1.4-1 1 0.5 0.2 0.8 0.1 1.2 0 1-0.8 0.7-0.7 1.3-0.9 1-1.9 4.6-3.9 7.9-1 3.3-0.5-0.1-1.2 1.4-0.8 0.4-0.3 0.7-0.5 3.2-0.3 1.3-1.2 0.8-1.8-0.1-1.7-1.1-0.7-2.1-0.4-4 0.1-1.5 0.4-1.3 0.7-0.6 0.8-0.4 0.8-0.8 1.4-1.2 3.6-0.7 1.6-1.3-1.2-0.1-1.7 0.5-1.6 0.1-0.7-1.4 0.6-1.9 1.3-2.1 1.5-1.8 0.9-0.8 1.4-0.4 3.6-3.6z m5.1-7.5l0.4 0.6 0.3 1.3-0.9 0.9-1.5 0.5-1.1 0.1 0.5-1.3 0.7-0.8 1.6-1.3z m2.6-5.2l0.3 0.3 0.2 0.2 0.2 0 0.3-0.5 0.1 1.2-0.4 1.2-0.5 1.2-0.4 2.7-0.5-0.5-0.9-2.3 0.5-0.8 0.5-2 0.6-0.7z m0-4.6l0.6-0.5 1.1 0.2 0.6-0.3-0.3 1-0.4 0.7-0.3 0.7 0.3 1.1-1 0.7-0.9-0.6-0.3-1.4 0.6-1.6z m3.5-8.1l1.5 0 0.7-0.1 0.4-0.5-0.7 1.5-0.8 0.9-1.1 0.5-1.2 0 0.2-0.8 0.3-0.6 0.7-0.9z m-28.2-4.7l-2.4 0.1-1.2-0.2-1.2-1.1 0.5-0.8 0.5-0.6 0.6-0.3 0.6 0 0.7 0.7 1.4 1.2 0.5 1z m-30.8-5.8l2.4-0.9 1.2 0 0.6 1.5-0.7 1.1-2.8 0.4-0.1 1.4-0.9 0.8-1.1 0.2-1 0.4-0.8 1.5 0.2 1.5-0.9 0.1-3-1.4-0.4-1-0.3-1.3-0.4-1.4 1-0.6 3.1-0.5 1.1-0.4 1.7-1.1 1.1-0.3z m52.9 8.7l0.4 0.6 0.7 1.2 0.4 1.2-0.6 0.5-1.6 0-0.6-0.3 0-0.9-0.2-0.4-0.3-0.1-0.3-0.1-0.4 0.1 0.2 1.1-0.6 1-1.5 1.3 0 0.7 0.7-0.6 0.8-0.4 1.8-0.2 0.8 0.4-0.3 0.9-0.9 1-4.1 2.8-1.9 0.5-1.5-1 0.3-0.3 0.6-0.5 0.4-0.8 0.1-0.7-0.4-0.5-0.6 0.1-1.2 0.4-0.2 0.2-0.3 0.6-0.3 0.6-0.4 0.3-1.6 0.4-3.7 1.9-0.8 0.9-0.6 0.4-0.5-0.1-0.6-0.4-0.6-0.2-0.4 0.2-1.2 0.7-0.5 0.3-4.3 0-0.3 0.3-0.2 0.6-0.3 0.5-0.5 0.3-0.6 0-0.9-0.4-1.3-0.7-0.9-1-0.6-1.3-0.3-1.5 0.4-1.2 1-0.7 1.2-0.3 0.9 0.2 0.8 0.9 0.6 1.2 0.6 0.8 0.9-0.6 0-0.6-0.4-0.1-0.2-0.2-0.1-0.1-0.3-0.2 0.9-0.4 2.1 0.5 0.7-0.4 0.8-0.7 3.3-0.7 2.1-1.6 0.9-0.9-0.3-0.4-1 0.2-2.7 1.6-2.3 0.6-1.2-0.1-0.9-0.8-0.2-1 0.2-0.8 0.5-0.6 0.5-0.3 0.6-0.1 0.4-0.4 0.6-1.8 0.2-0.6 0.2-0.6 0.4-0.5 0.5-0.2 1.6 0.2 2.8-1.3 0.6-0.5 0.2-0.9 0.1-0.8-0.2-0.7-0.5-0.5-3 1.6-1 0.1-0.3 0.2-0.4 0.4-0.4 0.2-0.5-0.4-0.7-1.8-0.5-0.8-0.5-0.6-1-0.6-4.4-0.7-0.9-0.5-0.8-0.6-0.6-0.6 2.2-1.7-0.4-0.8-0.9-1.1-0.3-1 1.7-0.2 0.8-0.3 0.7-0.7 0.4 0.6 0.5 0.4 0.3 0 0.4-0.4 0.1-1.6 1.4-1.1 1.8-0.6 1.6-0.2 0.6 0.5 2.2 0.7-0.1 0.4-0.1 0.9-0.1 0.4 1.5 0.1 1.1 1.7 1.9 4.6 0.2 0.6 0 0.6 0.1 0.4 0.5 0.2 4.7 0 0.3 0.3 0.4 0.5 0.3 0.3 0.7-0.5 0.5-0.1 0.5 0.1 0.3 0.3 1 1.6 0.4 0.4 0.5 0.1 0.9-0.2 0.3 0.1 0.5 0.4 0.6 0.8 0.6 1 0.2 1 0.3 0.2 0.7-0.2 0.5 0.3-0.2 1.7-0.4-0.3-0.4-0.1-0.9-0.2z m-36.1-20.6l-0.4 0.8-0.7 1.7-0.3 0.7-0.4 0.5-0.3 0.3-0.5 0.3-0.6 0-1.7 2.4-2.4 2-0.8 0.3-1.2-0.5-0.5 0-0.2 0.8-0.2 0.9-0.4-0.5-0.5-1-0.3-0.9 1.3-0.2 1.3-1.2 2.1-3.5 0.5-0.7 1.5-1.2 1.1-0.4 1.4-1.3 0.8-0.2 1.3-0.3 0.4 0.3-0.3 0.9z M558.6 425.8l-0.1 0-2.2-0.2-0.2-0.1-1.3-0.8-3.5 0.6-1.4-0.8-0.3-0.1-1.1-0.2-2.2 1.3-2.3 0.3-0.8 1.5-1.1 0.5-0.6 0.9-3.3-0.8-1.2-1.2-5.9-0.8-0.1 0-0.3 0 0.3-0.5-0.9-0.7 0-0.6 0.4-0.3 1-0.9 1.2 0.2 0.6-0.1 1.4-1.2 1.1 0 2 0.6 1-0.3 1.8-1.2 3.8-0.9 0.8-0.6-7.7 1.7-3.7-1.7 0-0.5 0.5-1.2 0.3-0.5 3.1-3.4 0.9-1.5 0.8-1.6-2.8 2.5-0.4 0.7-0.2 0.5-0.5 0.5-0.6 0.3-0.5 0.1-0.4 0.3-0.1 0.6-0.1 0.8-0.2 0.7-0.6 1.2-0.6 0.8-0.7 0.3-0.8 0.1-0.4 0.1-0.5 0.8-1 0.4-0.3 0.5-0.6 1-1.3 1.7-0.7 0.5-1 0.2-0.5 0.4-0.6 1.5-0.5 0.4-0.6 0.1-0.5 0.5-0.5 0.6-1.9 2.8-3.1 3.7-3.2 2.6-0.3 0.2-0.4-0.3-0.6-1.2-0.5-0.2-0.7-0.2-0.9-0.4-0.8-0.5-0.6-0.7 0.7-1.4 0.2-0.7 0.1-0.8-0.4 0-1.7 2.4-2.8-0.6-7-5.8-0.3-0.7 0-1.3 0.5-0.6 0.7-0.3 2.3-0.2 1.7 0.4 1.5 0.8 1.3 1.2 0.3-0.6-1.1-0.9-0.5-0.6 0-0.8 5-3.4 1.1-0.1 3 1.5 1.1 0.3 2.5-0.2 1.4-0.4 1-0.6-4.3 0.6-1.1-0.2-2.3-1.5-2-0.6-5.1 2.9-1.7 0.5-0.5 0-0.6-0.2-1.1-0.8-0.6-0.1-3.2 0.2-3.5-1-1.2 0.2-0.9 0.9-0.8 0.5-1.2-0.2-1.1-0.6-0.6-0.6-0.3-0.5-0.2-0.5-0.1-0.5 0-0.5 0-0.9 0.3 0 0.3 0.2 0.3-0.2 1.1-1.7 0.6-0.5 7.2-0.8 0.5-0.2 1.7-1.3 0.7-0.3 0.8 0.2 0.4 0.5 0.5 0.6 0.7 0.5 2.4 1.2 0.5 0.3-0.1-1-0.2-0.9-0.5-0.6-0.8-0.1 0-0.7 0.5 0 0.6 0 0.6 0.2 0.5 0.5 0.6-0.9 1.1-0.4 1.2 0.4 0.9 0.2-3.5-1.7-0.9-1.1 0-0.9 0.6-0.7 4.9-0.7 1.9-0.9 1.5-1.5-0.6-0.3-0.8 0.1-0.8 0.4-0.8 1.4-0.9 0-1.8-0.5 0.4-0.8 1.8-2.1-2.1-0.4-4.4 1-2.2-0.6 1.6-0.4 1.7-0.2 0-0.6-0.4-0.2-1-1 0.9-1 0.5-1.8 0.4-2 0.5-1.7 0.8-1 1.4-1 1.4-0.5 1.2 0.2 0.5 0.6 0.9 1.7 0.5 0.7 0.7 0.5 0.7 0.4 1.6 0.2 2.5-0.6 2.3-1.2 0-0.6-0.8 0.3-0.8 0.4-0.7 0.3-0.6-0.4-1.1 0.8-1-0.3-1-0.7-0.9-0.4-0.7-0.4 0.1-1.1 0.1-1.2-1-0.8-0.4 0.1-1 0.4-0.5 0.1-0.5-0.2-0.8-0.8-0.5-0.2-0.5-0.6 0.7-1.4 2-2.6 0.5-0.9 0.3-0.4 0.6 0 1.4 0.1 0.5-0.4 0.8-0.5 1.2 0.5 2 1.5 0.9 0.5 4.6 0.1 0.3-0.3 0.3-0.6 0.8-0.1 0.8 0.3 0.3 0.1 0.3 0 0-0.6-0.9-0.6-3.9 0.7-1.1 0.4-0.7 0.1-0.3-0.3-1.2-1.5-0.5-0.5-3.9-1.2-0.6-0.9 0.3-1.5 1.6-2.4 0.7-1.2-0.9-1.4 1.1-1.7 2-1.2 1.6-0.4 1.5 1.2 1.5 1.7 1.6 1.2 1.8-0.5 0-0.6-2-0.5-0.4-0.4-0.7-1.3-0.4-0.5-0.5-0.3-0.4-0.6 0.6-1.3 1.1-1.2 1.1-0.4 0-0.7-1.1-0.5-0.8 0.7-0.6 1.1-0.5 0.5-0.8 0.3-1.7 1.2-0.9 0.3-1-0.1-1.8-0.9-0.9-0.2-2 0.7-1-0.1-0.4-1.2 0.2-0.3 1.1-2.6 0.4-0.4 1-0.7 0.4-0.4 0.4-0.4 0.4 0.3 0.2 0.6 0.3 0.3 1-0.2 5.3-2.5 2.1-1.9 0.4-2.5-0.8-0.2-1.3 1.3-2.1 3.1-1.2 0.9-1.1-0.2-1.1-0.5-1.4-0.2 1.1-0.8 0.4-0.6-0.1-0.7-0.4-1.1-0.1-0.6-0.2 0.1-0.7 0.7-3.2 4.2-1.1 0.6-2.5 0.4-1.1-0.6-0.8-3.4 0.2 0.1 0.2-0.2 0.2-0.2 0.1-0.3-0.2-0.3-0.4-0.7-0.1-0.2 0-1.2 0.2-0.6 0.5-0.6-0.5-0.3-1.5-0.4-0.3-0.2-0.1-0.9-0.4-1.5-0.1-1.2 0.1-0.6 0.7-1.5 0.2-0.5 0-1.3 0-1.1 0.2-0.6 0.7 0-0.1-0.4-0.1-1-0.1-0.4 0.8-0.4 0.8 0.2 0.8 0.5 2.6 2.6 0.7 0.6 0.5-0.3 0.8 1.3 0.4 0.3 1.4 1 0.5 0.1-0.3-0.5-0.1-0.4-0.1-0.4-0.1-0.5 3.3-0.6 2 0.4 1.1 0 0.2-0.6-1.5-1.2-2.1-0.5-2.1 0.3-1.3 1.1-1.6-1.9 0.3-0.3 0.4-0.8-1.6-0.3-0.8-1.4-0.6-1.7-0.9-1.4-0.7-0.3-0.7-0.1-0.6-0.4-0.2-1.1 0.2-1 1-1.1-0.3-0.8 0-0.6 1.8-1 0.9-0.1 1.3 1.6 0.6-0.1 0.5-0.7 0.4-0.9-0.5-0.2-0.4-0.4-0.3-0.6-0.4-0.6-0.6-0.3-3.9-0.9-0.1-1 0.2-2.3-0.1-1 0.1-0.7-0.4-1.8 0-1.1 0.2-0.9 0.3-0.9 0.5-0.7 0.6-0.5 1.2-0.5 1.2 0 1.2 0.3 1.2 0.8-0.2 1.2 0.2 1.7 0.3 1.8 0.3 1.3 0.5 0.9 0.6 0.7 0.7 0.3 0.8 0-0.4-0.4-0.2-0.4-0.3-1.1 0.6 0 0.4 0.1 0.9 0.6-0.3-1.8 0.2-1.2 0.1-1.1-0.7-1.4-1.8-1.7-0.6-1 0.5-0.9-0.4-0.1-0.1-0.2-0.1-0.3 0.4-0.8 1.1-1.5 0.4-0.7 0.7 0.8 0.5 0.4 1.7 0-0.3 2.4 1.3 1.8 2 1 1.5 0.2-0.3-0.6 0.5-0.8 0.6-2.5 0.4-0.9 0.6 0 2.2 0.9 0.6 0.6 1.3 1.6 1.6 1 3.4 1.3-0.7-1.2-0.5-0.6-1.4-0.6-2-2.1-3.1-1.4-0.3-0.4-0.1-0.5-0.1-0.2 0-0.2 0.2-0.6 0.3-0.1 0.3 0.4 0.4 0.1 0.2-1.1 0.9 0.6 1.3 1.9 1 0.6 0.6 0 0.9-0.5 0.5-0.1 0.6 0.2 1 0.8 0.5 0.1 0.6 0.4 1.7 1.7 2 0.9 1.3 2.5 1 0.6-0.3-0.5-0.3-0.8-0.3-0.8-0.1-0.6-0.3-0.6-4.7-4.2-1.1-0.3 0-0.6 0.9 0 0.4-0.6-0.1-1.1-0.4-1.1-0.6-0.5-1.5-0.3-0.7-0.6-1.3-0.4-2-2.5-1.2-0.2 0.1-0.2 0.1-0.1 0.2-0.3-0.7-1-0.9-0.3-2 0.1 0.2-0.3 0.1-0.3 0.1-0.3 0.3-0.3 0-0.6-1.6-2.9 0.9-1.2 1.8 0.5 1.1 2.4 1-0.9 1 0.4 1.1 0.1 1.1-1.5-0.3 0 0.2-0.8 0-0.8-0.2-0.7-0.3-0.7 0.6 0 0-0.6-1-0.6 0.7-0.5 1.3-0.3 0.6-0.4 0-0.7-1.5 0.1-0.8-0.2-0.6-0.5 0.3-0.5-0.3-0.5-0.4-0.3-0.4-0.3-0.5-0.1 0.1-0.5 0.2-1 0.1-0.4-0.6 0-0.5-0.3-2.1-3.4 0-1.5 0.8-0.2 1 0.4 2 1.4 0.8 0.2 0.8-0.2 1.9-1.3 1-0.3 1 0.1 1 0.8 0.3-0.6 0.6-0.6 0.7-0.4 0.4-0.2 0.8 0.3 1.5 1.3 0.6 0.2 2.3-0.2 0.8 0.2 3.2 2.5-0.5-0.9-0.5-0.6-1.3-1 0.6-0.5 1.4-0.2 0.6-0.5-3-0.6-0.9 0-0.4 0.3-0.5 0.8-0.5 0.1-0.5-0.2-0.9-0.8-0.6-0.2-0.6-0.5-1.4-2.1-0.5-0.4-0.1-0.4-0.9-1.3-0.1-0.2-0.4-1.1-0.1-0.7-0.1-0.6 0.9 0-0.5-1 0-0.9 0.4-0.9 0.4-0.9 0.1-0.5-0.1-0.6 0-0.5 0.2-0.2 0.3 0.1 0.6 0.4 0.3 0.1 2.8 1.9 1.9-0.1-1.3-1.1-0.4-0.6 0.1-0.7-0.3-0.6-0.4 0.4-0.5 0.2-0.5 0.1-0.5-0.1 0-0.6 0.4 0 0.2 0 0-0.7-0.3 0-0.2-0.2-0.5-0.4 2.6-1.6 1.2 0.6 1.4 1-5.2-4.6 0-1.6 0.1-0.8 0.4-0.4 2.5-1.5 0.7-0.8 0.5-1.3-0.3 0 0.4-1.9 0.1-1.8 0.3-1.6 0.8-0.9 6.1 1.3 1.1 0.8 0.8 1 0 0.5 0.2 1.4 0.3 1.2 0.2 0-0.1 0.9-0.1 0.8-0.2 0.7-0.3 0.7 0.9-0.7 0.3-0.9 0.1-0.9 0-0.9 0.2-1.3 0.4-0.6 0.3-0.6-0.3-1.5 0.9 0.7 1.4 1.9 0.8 0.4 1.3 1.1 0.6 0.2 0.5 0.3 0 0.7-0.2 0.8-0.1 0.6-0.6 0.7-1.7 1.7-0.8 2.2-0.9 1.7-0.4 1.2 0.8-0.1 2.8-3.1 0.5-0.3 0.3-1.4 0.7-0.6 1-0.5 0.8-0.8 0.6-1.6 0.2-1.6 0.5-1.3 1.2-0.5 2 0.4 1.9 0.9 2.3 1.7 0 0.7 0 0.3-0.1 0.1 0.1 0.9-1.1 1.3-0.7 1.6-0.6 1.9-0.8 1.9 0.8-0.4 0.8-0.8 1.3-1.8 0-0.4 0-0.4 0-0.4 0.2-0.1 0.2-0.1 1.9-2.1 0.1-0.2 1.8-1.3 1.3-0.6 0.4-0.1 1 0.3 1.4 1.4 1 0.3-0.6-0.7 0.5-0.4 0.2-0.5 0.3-0.5 0.3-0.4 0.5-0.1 0.9 0.5 0.6 0.1 0.4-0.2 0.4-1.2 0.5-0.3 1.8 0 1 0.3 0.4 0 0.5-0.3 0.4-0.7 0.6-1.5 0.5-0.3 0.4-0.1 0.1-0.1 0 0.3 0.9 1.7 0.2 0.2 1.1-0.2 4 0.7 4-0.7 2-0.9 3.2-2.5 1.8-0.9 3-0.5 1.5 0 1 0.5-0.4 0.5-0.2 0.1 1.1 1.1 1.4-0.1 2.6-1 2.6 1.2 1.3 0 0.6-1.8-0.8-0.3-0.8-0.6-0.8-1-0.5-1.2 1.1-1.5 0.7-0.4 0.8 0.1 0.2 0.5 0.1 0.8 0.2 0.8 0.3 0.4 1.4 0 3.1-1 1.9-0.2 2.4 1.8 1.6 0 3.1-0.6 1.6 0.7-0.3 1.6-0.9 1.9-0.2 1.3-0.6 0.7-0.7 1.7-0.4 0.7-1.2 1.2-0.4 0.6-0.5 1.8 0 1.4 0.5 1.1 1 0.6 0.6-0.1 0.5-0.3 0.4-0.1 0.4 0.5 0.2 1.1-0.2 0.8-0.5 0.5-0.4 0.1-0.5 3.2-2 4-2.5 3.6-1.8 2.1-1.9 1.1-4.1 1.5-1.7 1-2.5 2.6-0.4 0.8-0.3 1.5-0.9 1.5-2 2.2-10.3 8.5-3.4 1.8-0.9 0.9-0.4 0.9-0.5 1.8-0.2 0.7-0.5 0.4-1.1 0.7-1.5 0.3-3 2.1-0.5 0.3-0.3 0.5-0.1 0.8-0.1 0.9-0.7-0.5-0.3-0.2 0.4-0.5-0.7-0.4-1.2-0.1-1.3-0.8-0.3 0.3 0.2 0.7 0.4 0.8 0.7 0.6 1.4 0 0.8 0.4 0.3 0.4 1 1.7-1 1.6-0.2 0.9 0.2 1.1-0.8-0.1-1.4-0.5-0.7 0-0.4 0.3-0.8 1.2-0.4 0.3-1.3 0-2.7-1.4-1.3-0.4-3.8 1-1-0.7-1.5-2.2-0.9-0.8-1-0.3 2.5 3.7 1.5 1.3 1.8 0.4 1.9-0.9 1-0.2 0.8 0.8 0.8 1 1.1 0.8 0.8 0-0.3-1.5 3 2.1 1.6 0.4 2.7-2.1 1.5 0.4 0.8 1.1-0.6 1.1 1.5 0.5 1.7-0.8 1.7-1.6 1.4-2 0.7-0.8 0.5 0.1 0.3 0.8-0.1 1.5-0.3 0.7-6.4 8.5-1.1 0.8-1.2 1.9-0.6 0.7-1 0.2-0.7-0.4-0.2-0.9 0.6-1.3-1.3-1.3-1.6 0.6-3.7 3.4-0.6 0.2-1.2 0.1-3 0.9-0.9-0.2-0.8 0-0.3 1.1-0.3 1.2-0.8 0.5-0.6 0.3-3.1 3.1-0.4 0.6-0.4 0.9-0.4 1.3 0.3 0.1 0.6-0.5 1.4-0.6 0.7-0.7 0.7-0.9 0.5-0.8 0.5-0.8 2.2-1.4 1.8-1.9 2-1 0.3 0 0.6 0.2 0.6 0.8 2.4 0.5 1 0 0.7-0.6 0.6-0.7 2.1-1.3 0.7-0.1 0.2 1.1-1 1.8-1.3 1.7-1.4 1.1-1.6 2.7 0.1 0.4 0.2 0.3 0.1 0.3 0.2 0.2-2.2 0.2-0.9 0.5-0.8 1.1 0.5 0.8-0.3 0.1-1.1-0.4-2.6 0 0 0.7 1.4 0 0.6 0.1 0.6 0.4-0.9 2-0.5 0.9-0.5 0.7 1.6 0.5 0.9 0 1-0.5 0.7-0.9 0.4-0.6 0-0.3 1.1-0.1 0.5-0.2 0.8-1.3 0.7-0.7 0.8-0.5 0.6-0.2 0.9-0.4-0.6-0.9-1.7-1.6 1.3 0.1 4.3-0.7 4.5 0.4 1.4-0.4 3.9-2.9 0 0.1 0.8 1.6 0.4 1.9 1 0.6-0.1 1-0.3 0.6 0.3 0.9-0.1 1.5 1.2 0.8 0.2 1.3 0.1 1.3-0.3 2.8 0.1 1.3-1.6 2-0.3 1 0.3 0.5 0.8-0.2 1.6-2 2.7-0.3 0.7-0.9 0.8-0.4 3.7-0.7 2.8 2.7 1.9 0.4 0.7 3.5-0.3 1-1.3 1.1-1.3 2.4-1.3 1.1-0.6 1 0.1 0.6 1.8 1.1-0.5 4.2 1.7 1.3-0.5 0.8 0.1 0.9-0.4 1.2-0.7 0.9-1.1 0-2.6 1.3-1.2 1.5-1.4 1-1.3 1.5-1.3 0.1-1.6 1.7-0.2 0.1-2.7 1.5-0.3 1 0.2 0.5-0.4 2.8 0.1 3.1-0.3 0.9-1.3 1.5-0.7 2.9-1-0.4-2.9 0.9-0.9-0.3-2-1.7-0.4 0.4-0.5 1.2-0.3 2.5-0.5 0.4-2.6-0.6-3.1 0.6-3.1-1.2-0.6 0.1-1.2 1.3 0.4 1.5-0.3 0.5-2.4 1.4-2.4 0.7-1.4 1.8-1.6-0.2-0.5 0.4-0.1 0.2-0.6 0.5-2 3-0.5 0-1.3-0.6-0.9-1.4-1-0.2-1.4 2.2-0.3 1.3-1.3 0.7 0.2 2.3-0.9 1-0.2 0.7 0.5 1.3-2.7 1.5-2.7 0.4-0.3 0.6 0 1.9z m-75.7-35.8l2.4 1.6 1.1 1.2-0.9 0.8 0 0.6 1.2 0-0.6 3.1-0.9 1.8-1.3 0.8-1.8 0.2-0.8-0.5-0.8-2-0.7-0.5-0.7-0.3-1.4-1.6-0.9-0.5 2.8-3.2 1.5-1.2 1.8-0.3z m-13.2 0.6l0.8-0.6 1.6-1 0.9-0.2 0.5 0.5 1.1 0.3 0.6 0.4-1.2 0.7-1.6 0.3-1.5-0.1-1.2-0.3z m30.4-20.1l-1.3-0.5-1-1.1-0.3-1.2 1.1-0.7 1.6 0.3 1.2 1.3 0.2 1.3-1.5 0.6z m-5-5.4l-0.5-0.7-0.1-1.4 0.4-5.6 0.3-1.5 0.8-0.7 1.3-0.2 0-0.5-0.3-0.5-0.2-0.4-0.4-0.9 0.5-0.6 0.5 0 0.9 0.6 0-0.7-0.6-1.2 0.4 0.1 0.3 0.3 0.3 0.3 0.2 0.5-0.1 1.3-0.8 2.6-0.7 3 0 2.7 0.4 0.6 0.7 1.5 0.2 1.4-0.8 0.6-0.7 0.3-0.8 0.6-0.7 0.3-0.8-0.5 0.1-0.7 0.1-0.2 0.1-0.4z m4.5-14.9l-0.7-0.4-0.3-0.9 0.1-1.1 0.6-1.1-0.2-0.3-0.1-0.1-0.1-0.3 0.4-0.5 0.3-0.4 0.3-0.1 0.3 0.5-0.6 3.3 0 1.4z m-27.9 14.9l-0.8 0.7-4.3-1.5-1.1-0.7-0.9-1.1-0.3-1.2-0.4-2.3-2-1.5-0.5-1.9 2.9 0-0.7-0.8-0.4-0.9-0.1-1.1 0.4-1.1 0.6-0.9 0.5-0.2 0.4 0.2 2.5 3.7 0.3 0.8 0.4 0.6 0.9 0.6 0.6 0.2-0.3-1.1 0-0.6 0.2-0.1 0.2-0.3 0.2-0.1-0.8-1-0.1-0.2-0.1-0.3-0.4-0.7-0.1-0.3 0.1-0.4 0.4-0.1 0.1-0.3 0.4-0.5 0.8 0.1 1.4 0.7-0.5-1.6-1.1-1.4-1.5-0.9-1.1-0.4 0.6-0.8 0.5-1.3 0.1-1.3-0.6-0.7 0-0.7 1 0 0.7 0.7 0.5 0.8 1 0.7 0.2 0.7 0.1 0.8 0.1 0.6 0.5 0.5 0.3 0.3 2.2 1.2 0.5 0.5 0.5 0.8 0.7 0.7 0.6-0.1 0.6-0.3 0.8-0.1-1 2.6 0.4 0.2 1-1.3 0.6-1.7 0.6 0.3 3.6 4.7 0-0.5-0.3-0.3-0.2-0.6-0.2-0.3 0-1.2-0.6-1.1-1.6-2-0.8-1.8 0.2-0.9 0.6-0.8 0.6-1.8-0.6 0.1-0.5-0.1-0.5-0.3-0.3-0.3 0.2-1.2-0.3-0.7-0.4-0.5-0.2-0.6 0-1 0.1-0.3 0.3-0.1 1.9-1.3 0.3-0.3 0.4-1.1 0.3-1 0.3-0.6 0.6 0.3 0.4-0.2 0.1-0.1 0.2-0.3 0.4 0.9 0.4 0.5 1.1 1 0.4 0.6 1.2 1.9 0.1 0.4 2.1 1.8 0.9 1.2 0.5 0.8 0.2 0.8 0.5 6 0.4 2.7 0.1 1.2-0.1 1.3-0.5 1.9-0.1 1.2-0.2 0.7-1.2 1.2-0.5 0.8 0.6-0.6 0.8-0.5 0.8-0.3 0.7 0.2 0.4 0.9-0.3 0.8-0.5 0.7-0.2 0.6 0.2 1.4 0.7 0.9 0.7 0.6 0.3 0.7-0.4 0.7-1.5 1-0.7 0.6 4-0.5 1.1 0.3 0.2 0.7-0.5 0.8-1.2 0.5 0 0.6 1.2-0.1 1.1-0.5 0.9-0.2 1.1 1.1 0.4 0.4 0.6 0 1.2-0.1 0.7 0.3 0.5 0.8 0.3 0.8 0.3 0.5 0.7 0.1 0.4-0.4 0.3-0.6 0.2-0.3 2 0.1 1.3-1.4 1.3-0.5 1.4 0 0.8 1.1 3.4 0-0.7 2.2 0 0.6 0.2 0.9-0.2 0.8-0.3 0.7-1 1.3-1.7 1.5-0.7 0.4-1.9 0.2-0.3 0.5-0.1 1.9-0.4 1.2-1 0.8-1 0.6-0.4 0.4-0.4 0.7-2.8 3.9-0.7 0.7-0.9 0.7-2.5 0.4-0.6-0.3-0.5-1.1 0.2-1.5 1.2-1.8-0.1-0.8 0-0.6 0.3-0.2 0.1-0.2 0.2-0.8 0.1-0.4 0.4-0.4 0.8-1.7 0.4-0.5 0.6-0.6 4.5-2.3 0-0.5-1.3 0.7-1.3 0.4-4 0-0.3-0.2 0-0.5-0.1-0.6-0.1-0.5-1.1-1.9-0.6-0.8-0.5-0.2 0.2 0.9 0.2 0.6 0.5 1.4-0.5 1.3-0.3 0.6-0.5 0.5 0.4 0.6-0.6 0.7-0.4 1-0.4 0.8-0.7 0.4-0.6-0.7-0.3-1.5-0.2-1.8-0.1-1.2-0.3-0.5-0.3-0.1-0.3 0.1-0.3 0.5-0.4-0.6-0.4-0.4-0.4-0.2-0.4 0 0 0.5 0.6 0.7-0.8 0.6-6.6 1.7 0-0.6 0.5-0.5 1.5-1.9 0-0.5-0.9-0.1-0.8 0.2-0.8 0.5-0.8 0.6-0.9-1.5-0.7-1.6 0.5-0.2 0.5-0.3 0.4-0.5 0.2-0.7-2.1 0.2-0.8-0.2-2.2-3-0.1-0.3-0.3-0.8-0.1-0.4-0.2-0.3-0.2-0.2-0.2-0.3-0.2-0.6 2.2-1.6 0.9-0.4 1.1 0.2 0.8 0.7 0.8 1.1 1 0.9 1.3 0.2-0.6-1.1-3-2.5-0.6-0.7-0.3-0.3-0.5-0.1-0.6 0.1-1 0.4-0.6 0 0.7-0.5 0-0.6-0.4-0.1-0.9-0.5 0.4-0.2 0.1-0.1 0.1-0.3-0.4-0.3-0.3-0.4-0.1-0.7 0.2-1-0.7 0.2-0.9 1.2-0.6 0.4 0.2-0.8 0.1-0.8-0.2-0.8-0.4-0.6-0.4 1.1-0.6 0.4-0.5 0.2-0.4 0.7-0.1 1 0.5 1.6-0.1 0.9z M606.8 386.9l0.2-0.1 1.6-1.7 1.3-0.1 1.3-1.5 1.4-1 1.2-1.5 2.6-1.3 1.1 0 0.7-0.9 0.4-1.2-0.1-0.9 0.5-0.8-1.7-1.3 0.5-4.2-1.8-1.1-0.1-0.6 0.6-1 1.3-1.1 1.3-2.4 1.3-1.1 0.3-1-0.7-3.5-1.9-0.4-2.8-2.7-3.7 0.7-0.8 0.4-0.7 0.9-2.7 0.3-1.6 2-0.8 0.2-0.3-0.5 0.3-1 1.6-2-0.1-1.3 0.3-2.8-0.1-1.3-0.2-1.3-1.2-0.8 0.1-1.5-0.3-0.9 0.3-0.6 0.1-1-1-0.6-0.4-1.9-0.8-1.6 0-0.1 3.3-2.5 2.8-0.7-0.4 1-0.2 0.4-0.4 0.4 0.6 0.5 0.6 0 0.7-0.3 0.7-0.2-1-2.3 1.7 0.6 1 0.1 0.9-0.2 0.6-0.5 0.8-0.9 0.4-1.1-0.2-1 0.4-0.9 0.4-0.1 0.5 0.2 0.6 0.2 0.6-0.3 1.2-0.8 0.6-0.1 5.8 0.2 3.5 2.3 6.2 2.2 2 0.1 1.9-0.6 2.9-2.2 0.8-0.2 4.4 0 0 0.7 0 2.1 0 3.2 1.9 4.2 1.5 1.5 1.4 1.9 0.6 1.5 0 1.4-1.2 0.7-1.9-0.6-1.7-0.7-2.1-0.1-1.8 0.1-2 1.4-2.7 2.4-0.8 2.4-0.1 2.7 0.3 1.6 0.9 1.5 0.8 1.6 0.1 1.6 0 1.6-0.9 2.6-1.1 1.9-0.9 0.7-0.7 0-1.1-0.1-1.2-0.5-1.4-0.2-1 0.6-2.1 1.1-1.1 1.4-1 1.6-1.1 1.5-1.1 1.4-1.2 0.6-1.2 0.5-0.5 1.2-0.1 1.2 0.2 0.8 0.3 0.9 0.5 1.4 0 1.1-1 0.9-1.7 0.4-2.2 0.2-2.4 0-3.4 0-3.2 0-1.7-0.2-1.1-0.9z M601.4 401.1l0.7-2.9 1.3-1.5 0.3-0.9-0.1-3.1 0.4-2.8-0.2-0.5 0.3-1 2.7-1.5 1.1 0.9 1.7 0.2 3.2 0 3.4 0 2.4 0 2.2-0.2 1.7-0.4 1-0.9 0-1.1-0.5-1.4-0.3-0.9-0.2-0.8 0.1-1.2 0.5-1.2 1.2-0.5 1.2-0.6 1.1-1.4 1.1-1.5 1-1.6 1.1-1.4 2.1-1.1 1-0.6 1.4 0.2 1.2 0.5 1.1 0.1 0.7 0 0.9-0.7 1.1-1.9 0.9-2.6 0-1.6-0.1-1.6-0.8-1.6-0.9-1.5-0.3-1.6 0.1-2.7 0.8-2.4 2.7-2.4 2-1.4 1.8-0.1 2.1 0.1 1.7 0.7 1.9 0.6 1.2-0.7 0-1.4-0.6-1.5-1.4-1.9-1.5-1.5-1.9-4.2 0-3.2 0-2.1 0-0.7 3 0 0.3 0.2 0.5 0.8 0.5 0.2 0.5-0.2 0.4-0.3 0.4 0 0.4 0.5 1.6-0.8 4 1.4 1.5 0 0.8 1.2 0.3-0.2 0.4-0.6 0.6-0.4 0.8 0.1 2.2 1.1 0.4-0.7 0.3 0.2 0.5 0.4 0.5 0.1 0.5-0.3 0.8-0.8 0.4-0.1 0.9 0.5 0.6 0.2 0.2-0.4 0.2-0.5 0.3-0.5 0.5-0.4 0.4-0.1 1 0.1 2 1.3 1 0.4 1.2-0.3 2.8-2.1 0.7-0.2 5.2 0.2 0 0.3 0.3 0.7 0.4 0.9 0.4 0.5 0.6 0 0.8-0.7 0.6 0.1 0.3 0.3 0.5 1.2 4 4.5 0.4 1.5 0.2 1.6 0.2 1.5 0.8 1.4 0 0.5-0.2 1.1 0.5 1 1.3 1.5-0.7 0.1-0.3 0.6 0.1 0.8 0.4 0.4 0.6 0.2-0.3 0.5-1.1 1-1.9 2.6-0.8 1.6-0.2 1.2-4.9 4.6-1.2 1.9-3 8-0.2-0.6-0.1-0.1-0.8-0.3-1 0-0.6 0-0.6 0-0.5 0.3-0.5 0.7-0.5 0.5-0.6 0-0.7 0-0.7-0.9-0.8-0.7-1.1-0.1-1.7 0.1-0.8 0.4-0.5 0.8-0.3 0.6-0.1 0.8 0.2 1.3 0.7 0.6 0.5 0.7 0.3 1.4-0.4 1.3-0.7 1.1-1.4 0-1.1 0-0.4 0.6-0.1 1.1 0.1 1.4 0.3 1 0.6 0.5 0.6 0 1.2-0.1 1.3-0.6 1.3-0.3 1.6-0.4 1.4-0.3 2-0.5 1.3-0.3 1.4 0.2 0.3 0.4 0.1 0.3 0 0.1-4.2 6.8-1.4 3.1-0.7 3.1 0.2 0.7 0.2 0.5 0.3 0.7 0 1-0.3 0.5-0.8 1.1-0.2 0.5-0.3 1.5-0.7 1-1.6 1.3-1.3 1.8-1.1 2-0.7 0.9-2.6 1.7-0.8 0.7-0.9 1-0.4 0.9-0.5-0.4-0.9 0-1.4 0.1-1.9-2.3-2.8-0.4-1.1-0.8-2.3-3.4 0.1-1.2-0.3-1.5 0.8-1.8 0.1-1-1-0.7-0.5-1.7-1.9-1.3-0.8-1.6-0.7-0.7-2.3 0-1.1-1.2-2-1-0.9 0.2-1.7 1.1-4.6-0.2-1.5 0.7-0.9 0.7-0.5 0.9-0.9 4.1-0.6 0.6-1.8-1.4-1.8-0.2-3.6-1.8-0.4 0.2-0.2 1.8-0.3 0.5-2.4 0.6-1.2 1.1-1.1 0-1.8-0.1-1.4 0.6-1.9-1.3-2.2 0.4-0.6-0.3-0.3-0.4 0-2.4-0.9-0.7-1.7 0.6-1.8-0.6-1.2 0.8-0.9 0.2-0.9-0.4-0.8-0.8-2.4 0.2z M682.4 386.4l-0.1-0.3-0.3-0.4-1.4-0.2-1.3 0.3-2 0.5-1.4 0.3-1.6 0.4-1.3 0.3-1.3 0.6-1.2 0.1-0.6 0-0.6-0.5-0.3-1-0.1-1.4 0.1-1.1 0.4-0.6 1.1 0 1.4 0 0.7-1.1 0.4-1.3-0.3-1.4-0.5-0.7-0.7-0.6-0.2-1.3 0.1-0.8 0.3-0.6 0.5-0.8 0.8-0.4 1.7-0.1 1.1 0.1 0.8 0.7 0.7 0.9 0.7 0 0.6 0 0.5-0.5 0.5-0.7 0.5-0.3 0.6 0 0.6 0 1 0 0.8 0.3 0.1 0.1 0.2 0.6-1.1 4.5-0.3 1.8 0.2 1.6 0.9 0.7 0.1 0.7-0.8 1.6z M620.2 405.3l1.1 0 1.2-1.1 2.4-0.6 0.3-0.5 0.2-1.8 0.4-0.2 3.6 1.8 1.8 0.2 1.8 1.4 0.6-0.6 0.9-4.1 0.5-0.9 0.9-0.7 1.5-0.7 4.6 0.2 1.7-1.1 0.9-0.2 2 1 1.1 1.2 2.3 0 0.7 0.7 0.8 1.6 1.9 1.3 0.5 1.7 1 0.7-0.1 1-0.8 1.8 0.3 1.5-0.1 1.2 2.3 3.4 1.1 0.8 2.8 0.4 1.9 2.3 1.4-0.1 0.9 0 0.5 0.4-0.2 0.5-0.6 3.8-0.5 1-0.7 0.9-0.4 1.2 0 0.7 0.3 1.2 0 0.4-0.3 0.6-0.8 1-0.5 1.4-0.7 0.9-4.4 3.2-0.8 1.8-1 0.7-1.8 0.9-0.4 0.6-0.9 2.3-0.4 0.2-0.4-0.2-0.3-0.4-0.6-0.1-2.6 0.3-0.1-0.4-0.5-1.4 0-1.1-0.6-0.9-1.8-0.1-2.1 0.1-1.9 0.6-2.9 0.4-1.5 0.3-0.6 1.2-0.2 1-0.2-0.2-1.3-0.1-1.6-1-1.1-2.2 0.1-1.2 1.2-3.3 1.4-1.8 1.3-0.7 0-0.7-0.9-0.6-1.2-0.1-0.8-1-0.1-1-0.3-0.8-1.3-0.8-0.9-0.3-1.5-0.4-1.3-0.3-0.8-0.7-1.2-1.8-1.4-2.1-0.4-1.2-0.6-2 0-1.5 0-1.6-0.7-2-0.5-0.6-0.5-2.1-0.1-2.5z M634.9 439.9l0.2-1 0.6-1.2 1.5-0.3 2.9-0.4 1.9-0.6 2.1-0.1 1.8 0.1 0.6 0.9 0 1.1 0.5 1.4 0.1 0.4-11 1.7-0.1-0.3-0.5-1.1-0.6-0.6z M609.1 469.2l-0.3-0.5-0.3-1.8 3.8-1.8 0.4-0.4-0.3-0.4-2.4-1-0.8 0.4-1.2-0.3-0.5 0.8-2.7-0.2-0.5-0.3-0.7-1.5-0.5-0.4-3.1 2-0.1 0.1-0.4-0.4-0.1-1.7-0.2-0.2-1.7 0.4-1.3-1.7-2.6-1.4-1.6-1.6-2.3-0.3-0.8-1.1-0.3 0.1-0.3 0.9-0.3 0-0.8-0.4-1-1.2-2.4-0.6-2.3-2.4 0.2-1.6-0.6-0.7 0-1.3-0.3-0.1 0.3-0.1 0.2-0.5 1.1 0 0.4-0.4 0.3-0.6 0-5.6 1.8 0.4 1-0.9 1.5-0.4-1.3-2.9-1.1-0.8-0.4-0.1-1 0.3-2.8 1.5-2.3 0.9-0.3-0.5-1.5-3.9-1.4-0.7-1.8 1.3-3.7 1.2-0.6 0.1-0.8-0.7-0.6 0-0.4 0.4 0 0.7-0.4 0.4-1.7 0.1-1.6 0.7-1.8 1.7-1.2-0.4-0.5-0.6-0.1-0.7 1.3-2.3 0-0.7-0.2-0.2-0.3-0.4-1.3-0.3-0.3-0.5 0-0.2 0.1-0.2 4.5-2.2 1 0.6 0.5 0.3 0.3-0.6-1.2-2.1-0.6-1-0.2-0.1-1.3-0.3 0-1 0.5-0.7-0.2-1.3-0.6-0.2-1.8 0.8-1.7-0.1 0-1.9 0.3-0.6 2.7-0.4 2.7-1.5-0.5-1.3 0.2-0.7 0.9-1-0.2-2.3 1.3-0.7 0.3-1.3 1.4-2.2 1 0.2 0.9 1.4 1.3 0.6 0.5 0 2-3 0.6-0.5 0.1-0.2 0.5-0.4 1.6 0.2 1.4-1.8 2.4-0.7 2.4-1.4 0.3-0.5-0.4-1.5 1.2-1.3 0.6-0.1 3.1 1.2 3.1-0.6 2.6 0.6 0.5-0.4 0.3-2.5 0.5-1.2 0.4-0.4 2 1.7 0.9 0.3 2.9-0.9 1 0.4 2.4-0.2 0.8 0.8 0.9 0.4 0.9-0.2 1.2-0.8 1.8 0.6 1.7-0.6 0.9 0.7 0 2.4 0.3 0.4 0.6 0.3 2.2-0.4 1.9 1.3 1.4-0.6 1.8 0.1 0.1 2.5 0.5 2.1 0.5 0.6 0.7 2 0 1.6 0 1.5 0.6 2 0.4 1.2 1.4 2.1 1.2 1.8 0.8 0.7 1.3 0.3 1.5 0.4 0.9 0.3 1.3 0.8 0.3 0.8 0.1 1 0.8 1 1.2 0.1 0.9 0.6 0 0.7-1.3 0.7-1.4 1.8-1.2 3.3-0.1 1.2 1.1 2.2 1.6 1 1.3 0.1 0.2 0.2 0.6 0.6 0.5 1.1 0.1 0.3-0.3 0-1.8 0.8-1.6 1.3-4.9 5-2 0.8-2-0.6 0.6 0.8 0.8 0.3 1.5 0 0 0.1 0.1 0.4 0.3 1-0.6 0.6 0 0.3 1.1 0.9 0 0.6-0.8 0.4-1.5-0.1-0.2 0.2 0.2 1.2-0.4 0.4-1.6 0-1.3 1.4 0 0.4 0.7 0.5-0.1 1.5 2.8 0.3 1.2 1.2 0.1 1.9-1.7 0.9-0.2 0.5 0.5 0.6 1 0.3-0.2 0.2-0.8 0.4-1.5-0.5-1.2 0.2-0.5 0.3-0.3 1.4-1 0.7-4-0.6-2.6 0.2-1-0.9-0.9 0.2-0.3 1-0.4 0.3-2.2 0.5z M603.7 473.9l0.2-0.2 0.8-0.8 0.4-1.1 1.1 0.1 2.9-0.9 0-0.4-0.6-0.3-0.2-0.5 0.8-0.6 2.2-0.5 0.4-0.3 0.3-1 0.9-0.2 1 0.9 2.6-0.2 4 0.6 1-0.7 0.3-1.4 0.5-0.3 1.2-0.2 1.5 0.5 0.8-0.4 0.2-0.2-1-0.3-0.5-0.6 0.2-0.5 1.7-0.9-0.1-1.9-1.2-1.2-2.8-0.3 0.1-1.5-0.7-0.5 0-0.4 1.3-1.4 1.6 0 0.4-0.4-0.2-1.2 0.2-0.2 1.5 0.1 0.8-0.4 0-0.6-1.1-0.9 0-0.3 0.6-0.6-0.3-1-0.1-0.4 0-0.1 0.5 0 1-0.3 1.9-1.2 1.9-0.4 9.3-4.8 0.5-0.6 0.4-0.8 1-0.6 1.1-0.2 0.8 0.5 0.9 0.8 1.6 0.2 0.6 1 0.1 1.6-0.4 1.5-0.6 1.3-0.7 0.9 1.1 0 0.2 0.2 0.2 1.2 0.1 0.3 0.5 0.2 0.4 0.1 0.4 0.2 0.3 0.6 4.3 0.3 1 0.6 1.6 1.5 0.4 0.2 1.7 1.5 0 0.5-2.5 2.5-0.9 1.7-1.1 0.5-2.2 0.5-3 2-1.1 0.3-1.1-0.2-2.9-1.5-2.2 0-1.2 0.3-0.5 0.6-0.3 0.8-2.5 1.8-2.6 3-0.8 0.4-0.9 0.4-0.5 0.9-0.7 2.8-0.5 1.2-0.7 0.5-3.3 0.2-0.9 0.4-1.6 1.1-1.9 0.9-1.8 0.3-1.9-0.1-7.5-2.3-4.2 0.1-1.8-0.6-1.7-1.2z M432.8 394.2l0.3 0.6 0.1 0.7 0.2 0.7 0.4 0.4-1.4-0.1-0.4 0.3-0.4 0.6-0.3 0.4-0.4 0.3-0.3 0.2 0.2 0.8-0.4 0.5-0.7 0.4-0.7 0.1-3.1-0.6-0.7-0.4 0-0.8 0.6-0.8 0.7-0.4 0.6-0.4 0.2-0.9-0.1-1-0.5-0.6 1.2-0.8 1.1-0.3 0.9-0.7 0.3-2.4 0.3 0 0.1 0.2 0.3 0.4 0.3 0.1 0.3 0.1 0.2 0.2 0.2 0.2-0.7 1.5-0.3 0.3 1.5 0.8 0.4 0.4z m7.1-27.2l0.5 0.6 0.5 0.7 0.5 0.5 0.7-0.1-0.2 1.3-0.4 0.4-0.6 0.3-0.5 0.7-0.3 0.8-0.5 1.8-0.3 0.7-0.9 0.4-3.7-1 0 0.6 3.1 0.9 0.8 0.8 0.4 1.4 0.2 1.8-0.1 1.7-0.5 1-0.8-0.5-0.9-0.1-1.8 0 0 0.6 0.8 0.2 1.7-0.2 0.7 0 0.8 0.7 0.5 0.9 0.6 0.7 1 0.1 0 0.6-1.1 1.1-3.9-0.8-1.5 0.9-1.3-1.6-0.4-0.9-1.2-4.6-0.2-1.4 0.3-1 0-0.6-0.8-1.1-0.5-0.5-0.6-0.1 0.5-0.7 0.4-0.7 0.6-1.6 0.2-0.9 0.1-0.8 0.3-0.5 0.6-0.2 0.3-1.2-0.5-2.6-1.3-3.9 1-0.7 2.1-1.1 0.4 0 4.2 3-0.4 0.3-0.3 0-0.9-0.3 0 0.6 1 0.2 1.5 1.4 1.1 0.1 0 0.6-1.3 0.7-1-0.5-0.9-0.8-1.9-1.2-1-1.4-0.9-0.9-1.1 0.6 0.3 0.3 0.3 0.3 0.3 0.5 0.1 0.4 0.1 0.7 0.4 0.2 0.4-0.1 0.4 0.1 1.1 0.5 0.2 0.2 0.6 1.1 0.7 0.3 1.4 0 0.8 0.3z m-1-13.7l0 0.3-0.1 0.1-0.2 0.2 0.4 0.3 0.4 0 0.4-0.2 0.4-0.1 0.3 0.1 1.3 1-0.3 0.6-0.6-0.4-1.1 1-0.9 0 0.3 0.9 0.4 0.3 1.1 0 0.7 0.3 0.3 0.6 0 0.6-4.1 1.2-1.2-0.3-3.7-2.3-0.5-1 0.2-1.6 0.7-1.4 0.9-0.8 1.1 0 0.5 0.4 0.6 0.2 0.6-0.1 0.5-0.5 0.3 0.4 0.4 0.2 0.4 0 0.5 0z m6.3-14.9l0.7 0.1 1 0 0.9 0.5 0.4 1.1-0.4 0.5-0.8 1.5-0.4 0.3-0.6-0.1-0.5-0.6-0.3-0.7-0.3-0.3-0.6-0.2-1-1.1-2.1 0 0 0.7 0.5 0 0.3 0.2 0.1 0.4-0.3 0.5 0 0.7 1.4-0.1 0.4 0.4 0.1 1.2 0.4 0.8 0.7 0 1.5-0.5-0.9 1.9-1.1 0.8-2.8 0.3-0.3 0.1-0.7 0.4-0.3 0-0.3-0.3-0.4-1.2-0.2-0.2-0.7 0.1-1.9 1.6 0 0.7 3.3 0 2.8-0.8 0.9 0.1 0.8 0.4 0.3 0.3 0.2 0.5-0.1 0.6-1 1.8-1.9-0.1-1 0.1-0.8 0.7-0.7-0.6-1.7 0.1-0.8-0.2-0.5-0.3-0.1-0.2-0.6-1-0.1-0.5-0.3-0.5-0.3-0.4 0.4 0 0.9-0.7-1.6-0.1-2.8-1.9-1.4-0.3-0.4 0.5-0.3 0.4-0.3 0.2-0.4-0.1-0.6-0.3-0.7-0.4-2.1-1.5 0-0.6 1-0.8 0.8-1.5 0.6-1.7 0.8-1.5 1 0.6 3.2-0.6 0 0.6-0.4 0.1-0.9 0.5 0.8 1.2 1.4-1.4 1.5-2.2 1.1-1.1 0 0.6-0.3 0.3-0.2 0.3-0.5 1.1 2.6 1.1 1 0.1 0-0.6-0.4 0-0.6-0.6 1-0.4 2.2-1.7 1.3-0.2 0.6 0.8 0.1 0.8-0.3 0.8-0.8 0.5 0.8 0.5 1.4-0.7 0.6 0.4z m-4.3-4.9l1.9-2.2 0.9-0.2 0.5 0.9-0.9 1-1.3 0.6-1.1-0.1z m-65.5-10.9l0.7 0.6 1.7 0.2 0.8 0.5-0.8 1-1 0.2-1-0.7-0.4-1.8z m73.8-6.1l-0.2 1-0.3 0.6-0.5 0.3-0.6 0.1 0.1-0.8 0-0.2-0.1 0 0-0.3 1.9-1.9 1.1-0.5 0.8 0.6 0 1.9-0.5 0.3-1.7-1.1z m8-27.8l0.5 0 0.2 0 0-0.6-0.6-0.3-0.5-0.9-0.2-1 0.3-0.9 0.9 0.4 1.5 1.8 0.5-0.3 0.4 0.4 0.4 0.5 0.3 0.7 0.2 0.8-3.9 0 0-0.6z m-3.8 41.8l-0.9 0.9-0.3-0.2-2.4-2.8-0.5-0.3-2.8-3.6-0.5-0.4-0.2-0.6-0.4-0.7 0-0.5 0.8-0.2 0.5 0.1 0.4 0.4 0.3 0.7 0.2 1.1 3.8-3.6 0.6-1 1.1-0.3 2.2 0.1-2.3-1.8 0-0.6 2.4-1.4 1.4-0.3 1.4 0.3 0.9 0.7-0.4-0.4-0.5-0.4-0.3-0.3-0.2-0.3-0.1-0.3 0.9-0.5 0.3-0.1 0-0.6-2.7 0-0.6-0.3-1.3-1.3-0.7-0.3-2.7 0.1-1.2-0.4-0.4-1.4-0.6 0.5-0.4 0-2.2-1.7 0.8-0.7 0.5-0.7 0.6-0.6 1 0.1 0-0.6-0.2-0.2 0-0.1-0.1-0.3 1.4-0.2 1.5-0.6 2.8-1.6-4.4 1.2-1.3 0 0.2-0.8 0.3-0.5 0.5-0.1 0.6 0.2 0-0.6-1.3 0 0.4-0.3 0.3-0.4 0.3-0.5 0.3-0.6-2.1 1.4-0.4 0.1-1.3-2.9-0.4-0.5 0.2-1-0.2-0.4-0.4-0.2-0.2-0.5 0.1-1.1 0.5-0.8 0-0.9 0.4-0.1 0.2-0.2 0.1-0.3 0.2-0.5-0.3-0.2-0.3-0.3-0.3-0.2 0-0.5 3.5-0.3 1-0.4-1.2-0.6-0.5-0.5-0.2-1 0.1-1.1 0.2-0.6 0.9-1.1 0.7 0.5 1.8 1 0.4 0.1 0.4-0.3 2.5 1.2 0 0.6-1.4-0.1 0.3 1.2 1 1.6 0.6 0.6-0.1 1.4 0.5 1.9 0.7 1.6 0.7 0.9-0.1-0.8 0-0.5 0.1-1.1-0.4-0.6-0.7-1.6-0.2-0.8 0.4-0.4 0.2-0.6 0.1-0.6 0.1-0.3 2.1-0.5 0.4-0.4 0.8-0.2 1.2 0.6 1.2 1.1 0.5 1.3 1.3-1.9-1.2-0.7-0.4-0.5-0.2-0.6-0.2-1.3-0.2-0.5-0.3-0.1-0.7 0.1-0.3 0-0.1-0.3-0.2-0.8 0-0.2-0.6-0.8-0.2-0.5-0.2-0.5 0.2-0.2 0.2-0.2 0.2-0.1 0.4-0.1-0.3-0.6-0.2-0.5-0.3-0.1-0.5 0 3.8-3.4 1-1.5 0.6 0.4 0.3-0.3 0.3-0.4 0.4-0.3 1.6 0 1.3-0.4 2.9-1.6 0.4-0.3 1.2-1.6 8.3-6.5 2.3-3.1 1.4-1.3 1.1 0.1 1 1.1 0.8 1.6 0.6 1.7 0.2 1.4 0.9 1.5 0.1 0.9-0.8 0.4-0.4 0.5-1.1 3.7 0.4 0.6 0.6 0.4 0.6 0.3 0.7 0 0 0.6-1 0.5-2.1 1.6-0.8 0.9 0.3 0.8-0.1 0.6-0.4 0.4-0.6 0.1-0.5 0.3-0.5 1.2-1.4 0.6-0.1 0.6 0.2 0.8-0.1 0.7-0.4 0.4-0.5 0.2-1.3 0.1 0.8 1.4 1.8 0.5 1.8-0.1 1.3-0.6 2.3-2.5 0.7-0.4 0.9-0.3 0.5 0.1-0.5 0.6 0 0.6 0.3 0-0.2 0.4-0.2 0.6-0.2 0.3 0.1 0.3 0.2 0.9-1.2 0.6-0.4 0.3-0.3 0.4-0.5 0.9-0.2 0.2-0.8 0.5-0.7-0.1-1.3-1-0.8-0.3-2.1 0.3-0.8-0.3-1.4-0.9-0.7 0 1.1 3.2 0.5 1-0.4 0.4-0.2 0.4 0.1 0.4 0.2 0.7-0.9 0.7-2.3 0.5-1.6 2-0.7 0.4-0.5 0-0.7-0.5-0.4-0.1-1.3 1.2-2.4 0.7-0.8-0.1 0 0.7 1.8 0 6.1-1.5 1.4-0.9 0.7-0.1 0.6 0.5 0.4 0.9 0.3 1.1-0.1 1.2 0.2 0.1 0.5 0.5-0.4 0.5-0.4 0.4-0.4 0.2-0.4 0.1 0.5 0.4 0.5 0.2 0.6 0 0.6 0-0.8 1-0.7 1-0.7 0.8-1.2 0.3-4.3-0.8-1-0.4-0.3-0.1-0.3 0.7 0.4 0.4 1 0.4 0.8 0.8 1.6 0.5 0.7 0.9 0 0.6-0.5 0.3-0.7 1.4-0.4 0.6-0.8 0.7-0.6-0.1-0.6-0.3-0.9-0.3 0 0.7 0.2 0.1 0.2 0.3 0.3 0.2 0 0.6-1.1 0.6-0.9-0.2-0.7-0.7-0.6-0.9-0.4-1.2-0.2-0.5-0.5-0.2-0.2 0.5 0.2 1 0.5 1 0.3 0.6-0.3 0.6-1.5-0.8-0.4-0.4-0.3-0.5-0.3-1.1-1.3-2.6-0.3-1.2-0.1-1.2 0.7-2.4 1.3-1.3 1.7-0.5 1.8-0.1 0-0.6-4.5 0 0 0.6-0.2 1-1.1 1.4-1.3 1.3-1 0.6 0.7 0.9 0.9 2.7 0.5 0.5 0.7 0.3 0.6 0.8 0.4 0.8 0.5 0.6-0.3 0.2-0.2 0.2-0.2 0.2-0.4 0 0.4 0.6 0.4 0.3 0.3 0.1 0.2 0.2 0.2 0.6 0.2 1.9-3.9-1-1.6-1-0.4 0.3-0.3 0.5-0.2 0.5-0.4 0.7 0.5 0.3 1 0.5 0.4 0.3 1.1 2 0.2 0.5-0.2 0.7-0.7 0.4-0.8 0.2-0.8-0.1 0 0.6 0.3 0 0 0.5-1-0.2-2.2-1.6-0.3 0.7 0.2 0.2 0.4 0.6 0.3 0.3-0.5 0.9-0.5 0.5-1.2 1.1 0.2 0.1 0.2 0.3 0.2 0.2-0.9 1-2.9 2z m-315.5 12.9l-0.1 0 0-0.1 0.1 0 0.1 0 0 0.1-0.1 0z M640.9 232.8l2.1 0.1 1.1 0.6-0.1 1.1-1.3 0.8-0.3 0.4 0 0.8 0.2 0.6 0.1 0.5-0.6 0.6 0.5 1.5 0.2 1.2-0.3 0.9-1 0.7-2.3-2.4 0-0.6 0.7-0.7-0.5-1.4-1.5-2.3 0.6 0.4 0.6 0.2 0.6-0.2 0.5-0.4 0-0.6-3.2 0 0-0.6 1.8-0.8 2.1-0.4z m-13.9 4.3l1.4-0.1 2.8-1.4 1.3 0.2-1.2 1.8-2.3 0.7-4.4 0-0.2-0.5-0.9-2.3-0.2-0.8-0.5-0.5-0.5-0.4-0.4-0.4-1-1.9 0-0.5 0.2-0.4 0.1-0.4-0.3-0.5-0.3-0.2-0.6 0.6-0.2-0.1-0.4-0.4-0.5 0.1-0.4-0.1-0.1-0.9 0.7-1.8 0.1-0.3 1-1.1 2.1-0.8 0.6 0 0.7 0.5 1.6 1.6 1 0.3 0.9 0.6 2.5 3.8-0.7 0.6 0 0.7 0.6 0 0.4 0.3 0.7 0.9 0 0.6-0.9 0.1-1.1 0.4-1 0.8-0.6 1.2z m24.4-16.2l0.7 0.3 0.3 0.8 0 1 0 1.4-0.4 0.6-0.9 0.5-1.8 0.4-0.6 0.4-1 2.1-0.8 0.6-0.7-0.1-3.6-1.5-0.5-0.5-0.5-0.8-1.7-3.7-0.4-0.5-0.5 0.1-0.7 0.9-0.8 0.7-0.8-0.2-0.5 0.4-0.4-0.1-0.5-0.2-0.6-0.1 0.7 1.3-1.5-0.1-0.5 0.3-0.3 1-1.1-0.5-2.8 0.5-1.2-1.2-0.5-2 0.1-2 0.6-1.7 0.7-1.2 0-0.6-0.3-0.6-0.3-0.6-0.2-0.6-0.1-0.7-0.5 0.3-0.4 0.5 0 0.5 0.3 0.6 0 0.6-0.5-0.3-0.4-0.1-0.4 0.1-0.4 0.3 0.5 0.4 0.1 0.6 0 0.7 0.1 0.1 0.2 1.2-0.4 0.8-1.1 1.2 0 0.5-1.6-0.6-1.4-2.3-0.6-3 0.7-2.8 0.3-0.6-0.2-4.1 1.2-2.7 2.1-1.4 2.2-0.5 2.3 0.1 1.2 0.5 1.7 1.6 0.6 0 0.6-0.3 0.5 0 0.5 0.4 0.7 1.1 0.5 0.3-0.7 0.5-0.3 0.1 0.9 1 2.6 1.6-0.3 0.1-0.2 0.1-0.1 0.4 0.2 0.2 0.2 0.2 0.2 0.2-2.8 1.1-0.4-0.2-0.4 1.5-0.9 1.3-1.1 1-0.8 0.3 0.7 0.6 0.9 0.4 1.8 0.2 0.7-0.6 0.7-1.1 0.8-0.6 1.8 1.6 0.6-0.2 0.6-0.6 0.7-0.3 0.7 0.5 0.5 0.8 0.6 0.6 0.8-0.7-0.1 0.4-0.2 1.1-0.1 0.4 1 0.2 0.8-0.5 0.8-0.6 0.8-0.4 1.1-0.1 0.4 0.2 0.3 0.6-0.3 0.9-1.9 1.4-0.7 0.7 0.5 1.2 0.7 0.8 0.8 0.3 0.9-0.3-0.7-1.9-0.3-0.6 0.9-0.1 1.6-1.1 0.7-0.1z m8.7-13.6l-0.3 1 0.3 0.6 1.3 0.8-0.8 0.9-2.1 0.3-1 0.7-0.1-2.1-0.7-1-0.9-0.2-0.8 0.7 0.1 1.4-1 0.4-0.7-0.7 0.9-1.7 0.7-0.3 0.8-0.1 0.5-0.4 0.3-1-0.3-0.6-1.5-1.6-0.5-0.3 1.9-0.7 0.7 0.1 0 0.6-0.2 0.3-0.1 0.3 1.3 0 0.5 0.1 0.4 0.5-0.6-0.2-0.5 0.5-0.1 0.8 0.6 0.9 0.5 0.1 0.6-0.2 1.1-0.6 0.1 0.4-0.1 0.2-0.2-0.1-0.1 0.2z m-21.7-0.7l-1.4-0.1-1.4-0.4-1.2-0.9-1.1-1.4-0.3-1.7 0.9-1.2 1.3-0.7 1.2 0.1 0 0.2 0.1 0.3 0.2 0.4 0.3 0.3 0.3 0.1 0.3 0 2-0.5 0.6 0 0.7 0.4 0 0.5-0.1 0.1-0.1 0-0.2 0.1-0.8 1.1 0.2 1.5-0.1 1.2-1.4 0.6z m8.2-6.3l0.6 0.5 0.5-0.1 0.5-0.3 0.5-0.1 0-0.3-0.2-1.6 0-0.6-0.1-1.2 0.2-0.9 0.5-0.6 0.8 0.1 0 0.7-0.4 0 0 0.6 0.6-0.1 0.6 0.1 0.4 0.4 0.3 0.9-0.3 0.8-1 1.6-0.2 0.4 0 1.5 0.1 1.2 0.3 0.7 0.8 0.1 0 0.6-1.4 0.5-0.8 0.1-0.4-0.3-0.1-1.2-0.4-0.9-0.7-0.5-0.7-0.2 0-1.9z m18-8.8l1-1.6 0.7-0.8 0.2 0.2 0.5 2 0.1 0.9-2.2 0.1-0.9 0.4-0.4 1-0.5 0.5-0.9 2.2-0.3 0.5-0.5 0.3-0.1-2-0.8 0.1-2 2.5 0.2-1 0.1-0.3 0-0.6-0.9 0.6-0.3-0.1-0.4-0.5-1.7 2.4-1 1-0.8-0.2-0.1 1.2-0.3 0.6-0.2-0.2-0.1-1 0.3-1.4 0.3-0.4 0.4-0.2 0.6-0.5 0.5-0.6 0.7-1.4 0.4-0.5 0.6-0.3 0.5 0 0.3-0.3 0.2-1.3-0.2-0.3-0.7-1 1.1 0 1.9-1.2 1.1-0.1 0 0.7-0.6 0.4-0.7 0.7-1.2 1.5 0.3 0.1 0.2 0.1 0.1 0.3 0.6-0.5 1.5-0.3 1.2-1.4 0.8-0.1 0.7 0 0.7-0.2z m-28.2-2.5l-0.5-0.3-0.4 0-0.3-0.1-0.1-0.9 0.9 0 1.5 0.3 0.8-0.3 1.3-1.9 0.7-0.6 0.9 0.7 0 0.4-0.1 0.1-0.1 0-0.1 0-0.5 0.7-0.1 0.5 0.2 0.8-0.9 0.1-0.4-0.1 0 0.6 3.7 1.2 0.7 0.4 0.8 2.3 0.3 0.6 0.5 0.3 0.5 0.1 0.5 0.1 0.4 0.7 0 0.5-0.9 0-0.6 0.5-1.1 1.5 0.1-0.8 0.1-0.6 0.2-0.6 0.3-0.5-2.3-2.3-1.3-0.8-1.3-0.1 0 0.7 0.3 0.3 0.4 1-0.7-0.7-0.3 0.8-0.4 0.2-0.3 0-0.5-0.3-0.3-0.4-0.3-0.5-0.7-1.9-0.1-0.5-0.1-0.5-0.4-0.7z M701.8 169.8l0.4-1.6 0.9-0.9 1-0.4 0.9 0 0.1 0.4-0.1 0.2-0.1 0-0.2 0.1-0.6 0.1-0.2 0.4-0.1 0.7 0.6 0 0 0.7-0.8 0.5-0.8 0.9-0.7 0.2-0.3-1.3z m40.6-102l0.8 0.1 0.5 0.6 0.1 0.8-0.2 1.1-1.2 1.1-1.3-0.4-1.4-0.8-1.3 0.1 0 0.7 0.3 0.3 0.1 0.3 0.1 0.3 0.2 0.3-1.3-0.3-1-1.5-1.6-3.3 0-0.7 5.5 0 0.5 0.2 0 0.7 0 0.6 0.1 0.4 0.4 0 0.3-0.2 0.3-0.3 0.1-0.1z m-14.6 18.9l0.4-1.6 0.7-1.1 0.9-0.6 0.9 0-0.6 1.7-3.3 4-0.3 0.7 0.1 0.7 0.2 0.2 0.4-0.5 0.5-0.9 0.2-0.3 0.6-0.4 0.7 0 0.2 1 0 0.5-0.1 1-0.2 1-0.5 0.4-3.6 0.4-0.7 0.3 0.9 1 2.4 0.6 1.2 0.9-2.2 2.3-0.5 0.4-0.2 0.2 0 0.5 0 0.5 0.2 0.4 0.2 0.2 0.3-0.5 0.3 0 0.3 0.2 0.7 0.1 0.2 0.3-1.8 1.9-0.9 0.3-0.8-0.2-0.4-1.3-0.4-0.7-0.5 0-0.3 0.5 0.1 0.6 0.2 0.6 0.4 0.3 0 0.6-0.5 0-0.4 0.1-0.7 0.5 0 0.6 1.9 0-0.3 0.6-0.3 0.7-0.4 1.3 0.9-1.2 0.4-0.5 0.7-0.2-1.4 3.2-0.3 1.4 0.8-1.1 1-0.5 0.5 0.5-0.6 1.7 1.6 1.3 0 0.6-1.4 0 0 0.7 0.4 0 0 0.6-0.8-0.5-0.5 0.4-0.5 0.7-0.8 0 0.7 0.7-0.2 0.8-0.3 0.4-0.3 0.2-0.5 0 0 0.5 0.3 0.1 1 0.6-0.8 1 0.4 1.3 0.9 0.9 0.4 0-0.2 1.3-0.7 0.7-0.9 0.2-0.7-0.3 0.2 1.3 1 2.7-0.4 1-0.7 0-1.4-1 0.2 1.9-0.1 2-0.4 1.7-0.7 1.3-0.2-0.4-0.1-0.2 0.4 1.1 0.1 1-0.1 1.1-0.4 1.3 0.5 0.6 0.1 0.8-0.2 0.7-0.4 0.5-0.2-0.5-0.8-1.4-0.3 0.9-0.4-0.1-0.1-0.7 0.5-0.8 0-0.7-0.7-0.6-1.4 0.3-0.8-0.4-0.6-1.1 0.9-1.2-0.3-1.5 0.4-0.8 0.4-0.4 0.6-0.2 0.5 0.1 0-0.5-0.8-1.1-0.4-0.2 0-0.7 1.2 0-0.2-1.6 0.5-1.5 0.7-1.6 0.7-4.5 0.7-1.8 0.4-1.9-0.2-2.5-0.2-0.4-0.3 0.1-0.3-0.1-0.2-0.9 0.1-0.4 0.1-0.4 0.7-2-0.4 0-0.7 0.6-0.2 0.3-0.5-0.1-0.2-0.3 0.2-0.8 0.6-2.5 0.4-0.9 0.4-0.8 0.5-0.5 0-0.6-0.9-0.1-0.7 1-1.3 2.9-0.6-2.2-0.7-1.5-1-1-1.5-0.4 0 0.7 0.9 0.4 0.7 0.9 0.7 1.1 0.6 1.4-0.4 1.3-0.9-0.9-0.4-0.4-0.6 0 0 1.7-0.3 1.3-0.4 0.2-0.3-1.3-0.5 0.6-0.2 0.9-0.2 1.1-0.3 0.7-0.5 0-1.8-1.3-0.1-0.2-1-1.2-0.2 0.1-0.2-0.9 0-0.4 0.2-0.7 0.6-0.5 1.4-0.4 0.6-0.3-0.6-0.5-1.1-2-0.2 0.8-0.3 1.3-0.5 0.9-0.6 0.1-0.2-0.9-0.3-0.9-0.7 0.2-1.4 1-1.1 0.2-0.4-0.2-0.3-0.3 0-0.5-0.1-0.4-0.4-0.2-0.9-0.2-0.4-0.5-0.5-2.5-0.5-1.8 0.2-0.5 0.7-0.9 0.7-0.6 0.8-0.5 0.9-0.3 0.8 0.1 0.7 0.6 0.5 0.8 0.6 0.6 0.8 0-0.4-1.3 1.6 0.6 0-0.6-0.3 0 0-0.7 2.2-0.3 0.6 0.8 0.1 2.8 0.2-0.1 0.6-0.4 0.2-0.2-0.3-0.5-0.2-1-0.2-0.4 1 0-0.1-0.4-0.2-1 1-0.5 1.3 0.4 1 1.3 0.5 2.1 0.7-1.1 0.6-0.8-1.3-1.4 1-2.5 0.3 0.4 0.3 0.1 0.7 0.1-0.6-1.1 0.8-0.3 2.4 0.1-1.2-0.8-1.4-0.3-1.1-0.8-0.2-2-0.9 1.1-0.5 0.3-0.6-0.1-0.5-0.7-0.1-0.9 0.1-0.9 0.5-0.7 0-0.7-1.4 0-0.7-0.2-0.4-0.5 0.1-1.2-0.1-1.6-0.3-3-0.7 1.8-0.5 1-0.4 0.5-0.8-0.4-0.1-0.7 0.3-0.9 0.6-0.7-1 0-0.8 0.3-0.7-0.1-0.7-0.8-0.5 1.1-0.6 0.3-1.7-0.1-0.1-0.5 0.2-1.1 0.5-1.1 0.4-0.5 1.1 0.1 0.3-0.1 0.3-0.7 0-0.7 0-0.7 0.1-0.5 0.4-0.9 0.6-0.8 0.6-0.1 0.6 1.1 0.6 2 1.5 1.6 1.8 0.6 1.5-0.9-0.5-0.5-0.7-0.1-1.2-0.1-0.3-0.3-0.4-0.7-0.6-0.7-0.7-0.2 0.4-0.7 0.6-1.7 0.2-0.3 0.6-0.1 1.4-1.1-0.5-0.6-0.2-0.1 0.4-0.7 0.2-0.5-0.1-0.4-0.2-0.4 1.2-0.6 1.3 0.2 1.2 0.8 1.2 1 0.1-0.4 0.2-0.3-0.8-1 0.1-0.9 1-2.1 0.5 1.9 0 0.8-0.2 0.6 0.2 0.8-0.1 0.6-0.3 0.4-0.4 0.2 0.3 2.2-0.3 1-0.7 0.7-0.6 1.3 1 0-0.3 0.4-0.2 0.2-0.5 0.1 0.3 0.2 0.1 0.2 0.2 0.1 0.4 0.1-1 3.2 0.5-0.1 0.4-0.2 0.4-0.4 0.3-0.5 0.3 0.6-0.6 1.4-0.2 0.6 0.2 0.6 0 0.7-0.9 0.4-1.1 3.3-0.9 0.8 0 0.7 0.6 0.1 0.6-0.1 0.5-0.2 0.5-0.5 0-1.7 1.2-1 3-0.5-2.2-1.7-0.7-0.9 0.5-0.7 0.6-0.6 0.5 0.3 0.1 1.6 0.4-0.6 0.9-1.7 0.2-0.6 0.5-0.3 0.8 0.6 0.6 0.9-0.3 1.1 0.6 0.3 0.5 0.4 0.3 0.8 0.3 1.1-0.3 0.4-0.1 0.2 0.6 0.6-0.5 0.5-1.1-0.6-0.4 0.5-0.4 0.6-0.5 0.5-0.5 0.3 0.2 0.3 0.6-0.2 1.1-0.5-0.2 0.2-0.5 0.4 0 0.7 1.6-0.9 0.6 0.4 0 1.8 0.4 0 0.2-1 0.1 0 0.3 0.1 0.4-0.4 0.1-0.5 0.2-0.8 0.2-0.7 0.4-0.7 0.2 0.3 0 0.3 0.1 0.8z m5.2-26.8l-0.6 1.1 0.1 0.9 0.8 1.9-0.3 1-0.3 1-1.6-1.8-0.7-0.7-1-0.1 0.6 0.7 0.6 1.2 1.1 2.7-0.6 0.4-0.7 0.2-0.6-0.1-0.7-0.5 0.2 1 0.6 0.6 0.7 0.3 0.8 0.1-0.1 0.3 0 0.1-0.3 0.2 0.8 0.9 0 1.2-0.5 0.9-0.9 0.3 0.7 1.6 0.2 0.8 0.1 1.2-0.2 1.1-0.3 0.3-1.1-0.5-1.2 0-0.6-0.2-0.2-0.7-0.2 0-0.2 0.4-0.1 0.5 0.5 0.7 0 0.6-1.6-0.4-1.1-1.2-0.6-2.1-0.6-9 0.4-2 1.6-0.3 0 0.6-0.2 1.1 0.6 1.2 0.7 0.6 0.5-0.2-0.1-0.5-0.7-2.5-0.1-1.3 0.1-0.6 0.4-1.5-0.1-0.2-0.2-0.4-0.1-0.9 0.1-0.9 0.2-0.8 0.5-1 0.5-0.9 0.6-0.1 0.5 1.7 0.6-1.1 0.9-0.3 2.1 0.2 0 1.2-0.1 0.4-0.3 0.3 0 0.7 0.2 0.1 0.2 0.3 0.3 0.2z m3.8 1.3l-1.4 0.2-0.7-0.3-0.8-0.5 0.3-1 0-0.9-0.1-0.8-0.2-0.7 0.9 0.7 0.2-0.7-0.1-1.4-0.3-1.2 0.8-0.3 0.4-1.3 0-1.5-0.6-0.7 0-0.8 0.8-0.3 0.8-1 0.7-1.1 0-0.9 0.4-1 0.5 0 0.5 0.7 0.2 1.4-0.2 1-0.5 0.6-0.5 0.6-0.4 0.8 0.1 0.2 0.6-0.2 0.6-0.6 0.4-0.5 1-3.5 0.5-0.7 0.3 0.4 0.3 0.1 0.6 0.1 0.6 0.3 0.5 0.4 0.4 0.8 0.2 1.2-0.4 0-0.9 0.6 0.9 0.6 0.4 0-0.7 0.9-1 0.5-0.6 0.7 0.3 1.2 0 0.7-0.9 0 0.3 0.2 0.3 0.2 0.3 0.2 0 0.8-1.9 1.9-0.3 0.6 0.3 1.2 0.7 1 0.3 1-0.7 0.8-0.4 0-0.4-0.2-0.4-0.3-0.4-0.2-0.9-0.1-0.7 0.1z m-19.2 55.9l0.3 0 0.2 0.7-0.3 1-0.3 0.9-0.5 1.5-0.3 0.6-0.2 0 0-0.7 0.2-0.9 0-1.2 0-0.2-0.1 0.6-0.1 0.5-0.7 1.2-0.7 0.6-0.1-0.4 0.6-0.8 0.3-1.1 0.2-1.3 0.4-0.9-0.1-0.6-0.3-0.5 0.1-0.4 0.8-0.2 0.3-0.4 0.3 0 0 0.8-0.3 1.3-0.1 0.5 0.4-0.6z m-34.6-5.8l0.2 0.8 0.1 1.7-0.7 1.1-1.2-0.5-0.8-0.9-0.4-0.5 0.1-0.7 0.4-0.5 0.7-0.5 1.1-0.1 0.5 0.1z m46.4-0.8l0.6-0.5 0 0.6-0.1 1.4-0.3 1-0.4 0.8-0.3 2-0.5 0.3-1.3-1.1-0.5-0.6 0.2-3.1-0.8-1.1 0-1.1 0.9-0.1 0.9 0.4 0.4-0.2 0.1-0.8 0.3-0.2 0.2 0.6 0.1 0.9 0.2 0.8 0.3 0z m6.8-21l0.2 0 0.1 0.4-0.3 0.5-0.6 0.8-0.8 1.2-1.3 1.5-1.9 0.6-0.8-0.6 0.2-0.5 0.2-0.4 0.1-0.5 0.3-0.7 0.5-0.6 0.5-0.3 0.5 0 0.4-0.4 0.4-0.5 1.6-0.1 0.5-0.2 0.2-0.2z M585.9 479.5l0.8-0.3 1.3-1.4 3 0 0.3 1.1 0.2 0.7 1.6-0.2 0.2 0.6-0.3 1.2 1.8 0.1 0.1 1.3 0.5 0.9 2.7 0.1 0.2 0.3-0.2 0.3-1.3 1.4 1.7 1.3 2 0.9 0.3 0.9-0.6 0.5 1.3 1.5 3-1 1.1 0.6-0.2 0.5-1.1 0.4-0.5 0.6 1.2 3.8-0.1 0.8-0.7 1.2 0.1 0.5-2.2 1.7-3.1 1.6-1.6 0.9-0.8-0.2-1.3-1-2.6-2.4-3.9-3.1-0.9-1 0-0.2 0-1.2 0.6-1.2 0-0.5-0.4-0.5-0.8 0-1.1 0-0.7-0.6-1.1-1.1-0.2-0.3-0.4-0.7 0-0.4 1-0.4 2.3 0.2 1.4 0 0.7-0.3 0.5-1.1 0.3-1.4 0-1-0.4-0.4-1.3 0-1.1 0.2-0.5 0.2-0.5-0.8-0.3-1.7 0-1.9z M574.7 482l0.3-0.1 2.7 1.7 1.3-0.2 0.4-0.8-0.1-1.6-1-2.4 0.5-0.7 1.4 0.4 2.3 0 1.1 0.8 0.5-0.4 0.3-0.9 0.8-0.2 0.1 0.6-0.1 1 0.4 0.4 0.3-0.1 0 1.9 0.3 1.7 0.5 0.8 0.5-0.2 1.1-0.2 1.3 0 0.4 0.4 0 1-0.3 1.4-0.5 1.1-0.7 0.3-1.4 0-2.3-0.2-1 0.4 0 0.4 0.4 0.7-0.6 0.2-0.7 0.1-1.1-0.1-1.1-0.6-0.8-1.1-0.7-0.5-0.4 0.2-0.2 0.7-0.6 0.6-0.5 0.1-0.5 0-0.7-0.3-0.9-0.3-0.1-0.1-0.3-0.6-0.2-1.8-0.1-3.5z M575.1 495.1l0-0.1 0-1 0.1-1.6 0-1.1 0-0.4 0-1.6 0.1-1.4 0.1 0.1 0.9 0.3 0.7 0.3 0.5 0 0.5-0.1 0.6-0.6 0.2-0.7 0.4-0.2 0.7 0.5 0.8 1.1 1.1 0.6 1.1 0.1 0.7-0.1 0.6-0.2 0.2 0.3 1.1 1.1 0.7 0.6 1.1 0 0.8 0 0.4 0.5 0 0.5-0.6 1.2 0 1.2-1.1 0.1-2.1-0.4-1.2 0-0.7 0.4-0.2 0.5 0.4 1.1-0.1 1-0.5 0.9-1.2 0-0.5-0.6-0.1-0.2-0.8-0.8-0.7 0.2-1 0.5-1.3 0.2-0.8 0-0.5-0.1-0.4-0.9 0-1.2z M567.6 500.1l0-0.3 0.1-0.3 1.2-0.8 2.3-0.9 2.6-1.9 1.3-0.8 0 1.2 0.4 0.9 0.5 0.1 0.8 0 1.3-0.2 1-0.5 0.7-0.2 0.8 0.8 0 0.8-0.2 0.9-0.4 0.6-0.3 0.4 0.3 1 0.8 0.7 0.5 0.5 0.3 1.2-0.1 1.4-0.2 1.1-0.7 0.2-0.5 0.2-0.2 0-1.4-0.4-3-1.7-7.4-3.3-0.5-0.7z M592.6 524.8l-0.7 0.3-0.5 0.3 0.5 1.3-0.2 0.3-3.2 1.6-1.1 1.6-0.2 2 0.6 2-1.3 2.5 0 1.4-1 1.3-0.8-0.4-1-1.6-0.7-0.5-2-0.2-0.3 0.9-0.3 0.1-1.9-0.4-0.6 0.1-1.2 2.7-1.2 1-0.2 1.8-1.2 2-0.3 2.9-0.8 0.7-0.1 1.7-0.7 0.8-0.6 0.1-0.3-2.8-0.6 0-0.4 1.2-0.4 0.3 0-0.6 0.6-1.6 0.5-1.4 0.1-1.8 0-1.5 0-2-0.1-1.3-0.4-1.1-1-1.3-1.4-1.2-1.4-1.1-0.7-0.9-0.5-1.2-0.8-1.4-0.1-0.6 0.5-0.6 1.1 0.2 1.4 0 1.4 0.6 0.9 0 0.2-0.7 0-1.4-0.2-1-0.5-0.8-0.3-1 0.2-1 1-0.8 1.2-1.3 0.2-1.3 0-1.6-0.7-2.2-2.3-1-1.8-1.4-1.7-0.7-0.7-0.8 0.2-0.2 1.6-1.2 1.5-1.1 0.4-1.2 0-0.8-1.5-0.8-1.1 0-1.4 0-1.1-0.2-0.7-0.6 0.4-1 1.2-1.2 1.6-1.9 1.2-2.6 0.7-1.1 0.5 0.7 7.4 3.3 3 1.7 1.4 0.4 0.2 0 0.5 1.6 1 2.1 0.8 1 1 1 0.3 0.9 0 0.6-0.5 0.9-1.1 1.3-0.2 1 0.7 0.7 0.9 0 1.2 0 2.6 0 1.5-0.2 0.8-0.8 0.8-0.7 0.9-0.1 0.9 0.3 1 1.2 0.5 1.2 0 1.5-0.2 1.3-0.5 2.2-0.4 1.6z M617.2 499.2l0 0.7 1.1 2.3-0.1 1.3 0.7 0.4 1 0 0.3 0.5-4 4.9-0.1 0.9 0.5 0.4 0.1 0.6-0.4 1.1-1.8 0.3-0.5 0.7 1.1 1.8 0.1 1 0.6 0.5 0.2 0.6-0.2 0.9 0.1 2.2-1.2 1.9-0.1 1.1-1 3.4 1.6 2.3-3.1 2.2 0.1 1.6-0.3 1.2 0 1.6-1.7 0.9-0.3 0.6-0.1 1.6-1.2 0.2-1.4-1.6-1.4-0.9-0.3-0.9 0-2.6-1.6-0.7-1.3-3.1-2.6-3.1-2.5-0.7-3.7 0.1-0.9-0.7-0.3 0.1 0.4-1.6 0.5-2.2 0.2-1.3 0-1.5-0.5-1.2-1-1.2-0.9-0.3-0.9 0.1-0.8 0.7-0.8 0.8-1.5 0.2-2.6 0-1.2 0-0.9 0-0.7-0.7 0.2-1 1.1-1.3 0.5-0.9 0-0.6-0.3-0.9-1-1-0.8-1-1-2.1-0.5-1.6 0.5-0.2 0.7-0.2 0.2-1.1 0.1-1.4-0.3-1.2-0.5-0.5-0.8-0.7-0.3-1 0.3-0.4 0.4-0.6 0.2-0.9 0-0.8 0.1 0.2 0.5 0.6 1.2 0 0.5-0.9 0.1-1-0.4-1.1 0.2-0.5 0.7-0.4 1.2 0 2.1 0.4 1.1-0.1 0 0.2 0.9 1 3.9 3.1 2.6 2.4 1.3 1 0.8 0.2 1.6-0.9 3.1-1.6 2.2-1.7 0.1 0.4 0.4 0 0.7-0.9 0.9-0.5 3.6-0.7 1 0.1 1.2 1.2 2 0.2 3 1.3z">
  </path>
 </g>
</svg>
