<?xml version="1.0"?>

<svg baseprofile="tiny" fill="#eee" height="500" stroke="#ccc" stroke-linecap="round" stroke-linejoin="round" stroke-width="1" version="1.2" viewBox="530.7 674.7 134.0 186.3" width="359.6" xmlns="http://www.w3.org/2000/svg">
 <g id="features">
  <path vector-effect="non-scaling-stroke" d="M634.7 701.9l0.8 0.4 1.8 0.4 0.4 0.1 3 2.5 1.6 1.7 0.2 0.3 0.2 0.5 0.1 0.7 0 0.3-0.2 0.3-1.7 1.1-0.2 0.2 0 0.2 0 0.2-1.7 0.5-2.8 2.5-2.4 2-0.9 1.1-1-1.7-1.1-2.2-0.7-1.7-0.4-0.7-1-0.3-0.9 0-0.9 0-0.9-0.4-1.3-1.5-1.3-2.3-0.7-1.1-0.3-0.9 0-1.2 0.3-1.2 0-0.9-0.4-0.9-1.2-0.5-0.3-0.5 0.3-2.8 0.5-0.9-0.1 0 0.2-0.5 0.1 0 1.4-0.1 1.8 0.9 1 0.8 0.4 0.8 0.5 0.6 6 3.9 0.7 0.8 0.6 1 0.4 0.4 0.1-0.3 0-1.6z M632.9 716.9l0.9-1.1 2.4-2 2.8-2.5 1.7-0.5 0 0.1 0.2 0.4 2.3 2.5 0.3 0.3 1.2 2.8 0.3 1.1 0.3 1.3 0.1 0.3-0.1 0.3 0.1 0.4 0.3 0.5 1.1 1.3 0.4 0.8 0.2 0.2 0.3 0.2 1.8 0.2 1.9 1.2 0.1 0.6 0.3 0.8 0.1 0.2 0.1 0.3-0.1 1.3 0 0.3-0.2 0.3-0.3 0.1-0.6 0.2-0.5 0.2-0.9 0.7-0.4 0.1-0.5-0.1-0.2-0.1-2.5-2.6-0.3-0.2-0.5-0.1-0.6 0-1.9 0.5-0.4 0.1-0.3-0.1-0.2-0.1-0.2-0.2-0.8-0.9-0.2-0.2-0.6-0.1-0.8 0.1-0.5 0.2-2.4 1.8-0.2 0.1-0.2 0.1-0.2 0.1-0.6 0.4-0.3 0.3-0.2 0.5-0.4 0.8-0.3 0.3-0.3 0.2-0.5 0.2-0.2 0.3-0.1 0.3 0.1 0.7 0.1 0.3 0.2 0.4 0 0.3 0 0.3-0.3 0.4-0.6 0.6-0.2 0.2-0.3 0.5-0.1 0.2 0 0.5 0 0.4 0.6 1.7-2.4 0.3-2.4 1.1-0.9-0.2-0.3-0.3 0.1-1-1.1-1.7-0.5-0.5-3.4-1.8-0.2-0.5 0.1-0.9-0.2-0.2-0.5 0.2 0.8-1.7 1.4-1.9 1.5-1.5 1.3-0.1 2.2-0.1 1.7-0.2 2.4-1 2.5-1-0.7-1-0.9-0.7-0.6-0.9 0-1.9 0.5-2.9 0.4-0.6z M620.4 732.4l0.5-0.2 0.2 0.2-0.1 0.9 0.2 0.5 3.4 1.8 0.5 0.5 1.1 1.7-0.1 1 0.3 0.3 0.9 0.2 2.4-1.1 2.4-0.3 0.5 0.6 0.8 0.3 1.4 0.2 0.2 0 0.2 0.2 0.3 0.6 0.2 0.3 0.3 0.2 1.3 0.1 1.1 0.4 0.3 0.2 0.5 0.9 0.2 0.3 0.3 0.2 0.8 0.4 0 0.2 0 0.2-0.3 0.6-0.3 0.3-0.3 0.2-0.9 0.1-0.3 0-0.2 0.1-0.2 0.2-0.1 0.3-0.2 0.7-0.3 0.7-0.1 0.3-0.1 0.5 0.1 1-0.2 0.7-0.1 0.4-0.2 0.2-0.9 0.5-0.2 0.2-0.1 0.3-0.1 0.4-0.1 1.1-0.1 0.3-0.1 0.3-0.3 0.4-0.4 0.4-1.3 0.8-0.2 0.1-0.1 0.3-0.1 0.3 0 0.4 0.1 0.4 0.1 0.5 0.4 0.7 0.1 0.2 0.1 0.3 0 0.3-0.1 0.2-0.2 0.5 0 0.2 0.2 0.1 0.5 0.1 0.3-0.1 0.3-0.1 0.2-0.2 0.1-0.2 0.3-0.5 0.1-0.2 0.2-0.2 1.3-0.7 0.9-0.9 0.2-0.1 0.3-0.1 0.2 0.1 1.2 1.4 0.1 0.3 0.1 0.3 0 0.3-0.3 0.3-0.3 0.5-1.2 1.1-0.5 1-0.3 0.2-3.6 0.3-0.5 0.2-1.2 0.8-2.2 0.9-0.2 0.1-0.3 0.4-0.5 0.9-0.1 0.3 0 0.3 0 0.3 0.1 0.6 0.1 0.4 0.1 0.4 0.1 0.2 0.2 0.2 0.1 0.2 1.6 1.1 1.2 1.1 1.7 1.2 1.2 1.4 0.4 0.3 5.3 0.4 0.1 0.7-0.1 0.3-0.3 0.4-1 0.7-0.3 0.3-0.3 0.5-0.1 0.5 0 0.2 0.1 0.8 0.2 0.3 0.2 0.3 1.2 0.3 0.2 0.2 0.1 0.2 0 0.2-0.3 0.3-0.3 0.2-1.6 0-0.4 0.2-0.2 0.2-0.1 0.1-0.4 0.5-0.1 0.2-0.2 0.2-0.6 0.3-0.2 0.2-0.2 0.2-0.1 0.3-0.2 0.9-0.3 0.4-1.9 2.8 0 0.3 0 0.4 0.4 0.5 0.3 0.1 0.3 0 0.2-0.1 0.2 0.1 0.1 0.2-0.1 0.4-0.2 0.3-0.2 0.2-1.2 0.5-0.5 0.2-0.1 0.2 0.1 0.3 0.3 0.5 0.7 0.4 0 0.1 0 0.2-0.2 0.1-0.2 0.3-0.1 0.2-0.2 0.7-0.3 1.3 0 0.2 0.1 0.2 0.3 0.1 0.4 0.4 0.9 0.9 0.1 0.3 0.1 0.4 0 0.6 0 0.4 0 0.6 0.1 0.4 1.4 2.5-0.5 1.2 0.1 1.1-0.2 1.2 1.3 3.9-1.4 1.4-0.1 1.1-1 1.8-1.3 0.3-0.9 0.8-1 0.3-0.2 0.1-2.1 0.1-3.2-0.5-0.8 0.6-0.1 0.6 0.2 0.5-2.1 0.2-0.6 0.1-0.5-1.3-1.3-0.4-0.9-1.3-0.5 0.2-0.2 0.8-0.3 0.1-0.4-0.2-0.8-0.4-0.6 0-0.3 0.4-0.1 1.6-0.3 0.4-2.2 0.7 0.2 0.5-0.1 0.3-1.1-0.3-0.5 0.9-1.2 0.8-0.4-0.8-2.6-1.3-2.2 0.9-1.3-0.4-0.5 0.9-1.4 0.2-1.7-2 1.5-2.5 0.7-2.2 1.5-1.4 0.4-1.3-0.2-1.6 0.3-2.2 0.4-0.3 0.5-0.3 0.2-0.6-0.5-1.8 0.1-1.3 1-1.8 1.4-1.4 0.1-0.8-0.8-1-0.1-1.1-0.3-0.5-2-0.8-0.2-0.3 0.5-1.4-0.1-0.5-1.7-0.5-0.6-0.2 0.4-1.5-0.3-2.6 0.5-1.9 0-2.6 0.4-0.4-0.3-0.4 0.2-0.8 1.4-0.8 0.2-0.4-0.7-1 0-0.9-0.7-1 0-0.6 1.3-1.2 1.9-0.4 0.5-0.6-0.8-1.2-1-0.1-0.2-1.4-1.2-2.9-1.9-1.3 0.2-1.6 0.9-0.7 0.6-2.4-1-0.2-1 1.1-2.1 0.4-1-1.7 0.2-2.2-0.5-1.2-1.3-0.6-2.8 0.2 0.7-1.1 1.7-0.7 1.8-1.7 0.5-2.2-0.3-1 1.7-2.7 1.6 0.4 1.7-0.6 1.3 0.1 1.5-1 3.1-0.5 1.4-2.7-0.4-2.5-0.8-1.7 0.5-2.1 0.4-0.5 2.4-1.1 1.7-0.1 0.6-0.8 0.3-1.4 1.6 0.4 2.2-0.8z M631.3 813.4l1-0.3 0.9-0.8 1.3-0.3 1-1.8 0.1-1.1 1.4-1.4-1.3-3.9 0.2-1.2-0.1-1.1 0.5-1.2 0 0.1 1 1.5 1.4 1.2 0.1 0.1 0.1 0.2 0.1 0.3 0 0.5 0.2 0.4 0.3 0.3 1 0.9 0.4 0.2 0.5 0 0.3 0 0.5-0.3 1.4-1 0.5-0.2 0.5-0.1 4.6 4.2 0.5 0.6 0.1 0.2 0.6 0.8 0.1 0.2 0.2 0.4 0.2 0.3 0.2 0.1 0.3 0.1 0.8 0 0.4 0 0.3 0.2 0.9 0.8 0.8 0.6 0.5-0.3 0.1 0-0.3 1.1-1 1.6-0.2 0.6-0.1 0.4 0 0.6 0.2 0.5 0.3 0.7 0 0.4-0.2 0.6-0.1 0.3-0.3 0.4-0.1 0.4 0.1 0.3 0.4 1.1 0.4 1.3 0.1 0.4 0.1 0.4 0 0.2-0.2 0.3-0.7 0.3-0.1 0.2 0 0.2 0.2 0.4 0.3 0.5 0 0.7 0.3 1.6-1.3 1.5-0.9 0.8-2.2 0.5-1.8 1.2-1.6-0.7-1-0.9 0.3-0.8 1.4-1.2 0.9-0.8 0.4-0.7-0.5-1-0.7-0.4-0.9 0-2.9 1.8-1.2 0-0.4-0.1-0.7-0.2-0.7 0.2-0.5-1.1-0.2-2 0-2 0-1.1-0.7-1-0.7 0-0.8-0.4-0.5-0.9 0-1.8-0.7-1.5-1.6-0.8-1.1 0-1.1 0-0.6-0.5-0.7-0.8z M640.5 827.3l0.7-0.2 0.7 0.2 0.4 0.1 1.2 0 2.9-1.8 0.9 0 0.7 0.4 0.5 1-0.4 0.7-0.9 0.8-1.4 1.2-0.3 0.8 1 0.9 1.6 0.7-0.8 0.6-2 0.7-4 0.3-0.6-0.2-0.4-0.6-0.2-0.5-0.3-0.2-0.4 0.3-1.2 1.5-0.3 0.5-2.7 1.8-0.1 0 0-0.2 0.5-0.9-0.1-0.3-1.3-0.5-0.3-0.8 0.8-1.4-1.1-1.3-0.1-0.5 0-0.1 2.7-0.9 1-0.5 2.8-1.5 0.5-0.1z M633.9 833.6l0.3 0.8 1.3 0.5 0.1 0.3-0.5 0.9 0 0.2-0.6 0.2-0.8 0.6-1.2 1.3-0.2 0.3-0.2 0.8-0.2 0.4-0.4 0.2-0.6 0.1-0.3 0.2-0.4-0.4-0.5-0.5-0.4-0.2-0.5 0-0.8 0.1-0.6 0-0.5 0-0.5-0.2-0.4-0.6-0.7-1.2-0.3-0.5 0.3-0.2 0.4-1 1.9-2 0.4-0.2 0.7-0.4 2.6-0.2 2.6 0.7z M625 836.9l0.3 0.5 0.7 1.2 0.4 0.6 0.5 0.2 0.5 0 0.6 0 0.8-0.1 0.5 0 0.4 0.2 0.5 0.5 0.4 0.4 0.6 1.6-0.4 1.6-0.8 1-0.9-0.3-0.7-0.1-3.3 1.4-11.7-1.1-0.9-0.5-0.8-1.1 0.1 0 0-0.1 2.2-1.1-0.8-0.9 0.4-0.3 0.8 0.2-0.3-1.4 0.2-0.8-0.1-1.1 2-1.4 0.2 0.1 0.5 0.3 0.5-0.7 0.5 0 0.7 0.7 1.2 0.2 0.5 0.6 0.9-0.8 2 0.5 0.1-1 0.3 0 1.3 1 0.1 0z M616.4 836.1l-0.2-0.1-2 1.4 0.1 1.1-0.2 0.8 0.3 1.4-0.8-0.2-0.4 0.3 0.8 0.9-2.2 1.1 0 0.1-0.1 0-1.4-1.9-2.7-2.3-0.7-0.1-0.8 0.4-1.1-0.5-0.9-0.9-0.5-0.8 0-0.3 0-0.1 0.2-0.1 0.1 0-0.3-1.5-0.2-0.4 2.9 0.6 2.4-1.3-0.6-2.1-1.4-1.3 0.1-0.6 0.6-0.7 0.3-2.3 0.3-0.4 3.1 0.5 1.8-0.6 1.2 0.6 1.6 1.3 1.3 2-0.3 3.6-0.3 2.4z M601.2 815.4l1.7 2 1.4-0.2 0.5-0.9 1.3 0.4 2.2-0.9 2.6 1.3 0.4 0.8-0.4 0.7 1 0.8 0.2 0.8-0.2 2.3 0.1 1.4 1 1.4 0.1 0.9-0.2 0-1.8 0.6-3.1-0.5-0.3 0.4-0.3 2.3-0.6 0.7-0.1 0.6 1.4 1.3 0.6 2.1-2.4 1.3-2.9-0.6-0.3-1-0.5-1.3-0.6-1-0.4-0.4-0.8-0.5-0.4-0.6-0.7-1.4-0.5-0.5-0.6-0.1-1.5 0.1 0.6-1.1 2.1-3.9-1.7-2-2.4-2.7-0.7-0.9 0.8-0.7 0.9 0.6 0.5-0.1 0.3-0.8-0.3-1.3 0.8-0.6 2.3 0 0.9 1.2z M595 817.1l0.7 0.9 2.4 2.7 1.7 2-2.1 3.9-0.6 1.1-3.5 0.5-0.7 0.3-0.6 0.4-0.4 0.4-0.1 0.7 0.4 0.8 0.5 0.7 0.3 0.7-1.9 0 0 0.1-0.3 0.4-0.2 0.1-0.2-0.4-0.1-0.3-0.3-0.2-0.4-0.2-0.3 0-0.1 0.1-0.5 0.8-0.2 0.1-0.3-0.1-0.5-0.4-1.1-0.2-0.5-0.1-0.5 0.3-0.5 0.4-0.6 0.8-0.5 0.3-0.5-0.1-0.5-0.4-0.4 0-0.2 0.8-0.6-0.1-2.7-1.1-0.9-0.1-0.1-0.3-0.1-0.2-0.1-0.5 0.9-0.7-0.1-0.8-0.5-1 0-1.1 1.6-0.5 0.2-0.3 0.5-0.9 0.3-0.4 0.3 0.5-0.3 0 0 0.5 0.3 0.2 0.4 0.4 1.4-0.5 2.4-0.2 2.2-0.5 1-1.7 0-0.5 0-0.4 0-0.2 1.4-2 0.2-1.4 0.6-0.8 0-0.9 0.7-0.8 0.8-0.2 0.6-0.7 2.1 0.4 0.1-0.1z M603.9 789.8l1.7 0.5 0.1 0.5-0.5 1.4 0.2 0.3 2 0.8 0.3 0.5 0.1 1.1 0.8 1-0.1 0.8-1.4 1.4-1 1.8-0.1 1.3 0.5 1.8-0.2 0.6-0.5 0.3-0.4 0.3-0.3 2.2 0.2 1.6-0.4 1.3-1.5 1.4-0.7 2.2-1.5 2.5-0.9-1.2-2.3 0-0.8 0.6 0.3 1.3-0.3 0.8-0.5 0.1-0.9-0.6-0.8 0.7-0.1 0.1-2.1-0.4-0.6 0.7-0.8 0.2-0.7 0.8 0 0.9-0.6 0.8-0.2 1.4-1.4 2-0.2-0.1-0.6 0.7-0.4 0.2-0.5 0.1-1.8-0.2-2.6-1.4-0.7 0.4-3.6 0.6-1.1-0.4-1.2-1-1.1-1.3-0.6-1.4 1.9 0.2 0.8-0.1 0.5-0.6-0.9 0-0.8-0.2-0.8-0.5-0.4-0.9 0.1-0.2 0.3-0.5 0.2-0.7 0-0.7-0.3-0.5-0.3 0.2-0.3 0.8-0.3 0.3-0.4 0.6-0.3 0.2-0.5-0.2-0.4-0.3-0.4-0.6-0.9 0.2-0.1 0.5 0.3 0.7 0.7 0.7-1.6 0.9-1.8 0.1-3.5-0.5-1.3 0.1-1.7 0.5 0-0.1 0.1-0.6 0-1.3 0-1.4 0-1.2-0.2-0.9-0.4-0.9-0.6-0.6-0.7-0.1-0.6 0-0.6 0.1-0.6 0.3-0.4 0.1-0.6 0-0.7 0-0.5-0.1-0.2-0.2 0-0.5 0.4-0.6 1.1-0.2 0.5-0.3 0-0.6-0.1-0.5-0.7-0.7 0-0.4 0.4-0.7 1.8-1.9 1-0.3 0.9 0 1 0.2 1.6-0.7 3.8-2.2 1-0.9 0-0.7-0.5-0.7-0.8-1.2-0.6-1.2-0.3-1.1-0.8-1 0.2-0.1 2.8 0.1 4 0.7 2 0 1.5-0.1 1.4-0.2 1.6 0 1.7 0 1.5-0.7 2-2.2 1.9-1.5 2.2-1.1 0.6-0.1 1.1 0.5 0.9 0.2 1.3 0 0.9-1 1.2-0.7 0.5-0.3 1 0.2 0.6 0 0.8 0 0.8-0.3 1.2 0.3 1.3 0.2 1.3 0.9 1 0 1-1.2z M565.6 796.2l0.8 1 0.3 1.1 0.6 1.2 0.8 1.2 0.5 0.7 0 0.7-1 0.9-3.8 2.2-1.6 0.7-1-0.2-0.9 0-1 0.3-1.8 1.9-0.4 0.7 0 0.4 0.7 0.7 0.1 0.5 0 0.6-0.5 0.3-1.1 0.2-0.4 0.6 0 0.5 0.2 0.2 0.5 0.1 0.7 0 0.6 0 0.4-0.1 0.6-0.3 0.6-0.1 0.6 0 0.7 0.1 0.6 0.6 0.4 0.9 0.2 0.9 0 1.2 0 1.4 0 1.3-0.1 0.6 0 0.1-0.3 0.1-1.6 1.1 0 1.9-0.5 0-0.1 0.2 0 0.3-0.1 0.5-0.8 2.2-0.5-0.2-0.6-0.5-0.3 0.2-0.8 0.9-4.2-0.1-0.7 0.1-0.8 0.5-0.4 0.6-0.3 0.7-0.5 0.5-0.9 0.4-0.3 0.7-0.5 0.2-0.2-0.1-0.5-0.3-3-1-1.2-0.9 0.5-0.8-0.7-1.4-2.3-0.6-0.9-1.1 0.3-0.5 3.6 0.5-0.1-0.2-0.2-0.6-0.1-0.2 0.7-0.1 1.3 0.5 0.6 0.1 0.7-0.2 1.5-0.9 2.3-0.5 1.1-0.8 0.5-0.1 0.6 0.4 0-0.5-1.3-1.3-0.3-1.9 0.8-1.5 1.8-0.5 0-0.5-0.5 0.3-1.4 0.6-2.6 0.3-0.6 0.3 0.8 0 0.5 0.3 0.2 0.7-0.2 1.1 0.6 0.6-0.1 0.9-0.7 0.7-3.7 0.9-1 0-6.5-0.9-0.8 0.4 0.4 1.2-0.5 0.6-0.7 0 0.1-0.8 0-0.5-2.3-1.8-0.9-0.2 1-0.1 0.7-0.1 0.5-0.4 0.5-0.7 0.7-0.7 1.6-0.3 0.8-0.4 0.7-0.7 0.2-0.8-0.3-1.9 0-1.1-0.2-1.2-0.4-0.9-0.7-0.6-0.3 0.5-0.8-0.7-1.9-0.3-0.8-0.5-0.7 0.5-2.6 0.5-0.9 0 0.3-0.3 0.3-0.2 0-0.5-0.1-0.4-0.1-0.2 0.1-0.3 0.5-0.2 0-0.5-0.4-1 0.4-0.4 1.7-0.2 0.9-0.3 1.4-1.5 0.6-0.3 1.5-0.2 1.9-0.7 1.4-1.3 0.2-2 0.7 0 0-0.5-0.6-0.4 0.1-0.6 0.5-0.3 0.8-0.2 1.2 0.1 0.6 0.1 2.5 1.4 0.9 0 1.3-0.6-0.3-1 0.9 0.1 1.8 0.8 1 0.1 0.4-0.3 0-0.7-0.3-0.9 0.1-0.7 0.3-0.3 1.6-0.2 0.9-0.7 0.7-0.8 1.1-1.9 0.9-1 0.6 0 0.6 0.5 0 0.2-0.2 0.7 0 1.1 0.1 1 0.6 0.2 0.6 0 0.8 0 0.6 0.1 0.4 0.6 0.5 0.4 0.7 0.3 1.1 0.2 1.1 0.5z M595.2 756.7l2.8-0.2 1.3 0.6 0.5 1.2-0.2 2.2 1 1.7 2.1-0.4 1-1.1 1 0.2-0.6 2.4-0.9 0.7-0.2 1.6 1.9 1.3 1.2 2.9 0.2 1.4 1 0.1 0.8 1.2-0.5 0.6-1.9 0.4-1.3 1.2 0 0.6 0.7 1 0 0.9 0.7 1-0.2 0.4-1.4 0.8-0.2 0.8 0.3 0.4-0.4 0.4 0 2.6-0.5 1.9 0.3 2.6-0.4 1.5 0.6 0.2-1 1.2-1 0-1.3-0.9-1.3-0.2-1.2-0.3-0.8 0.3-0.8 0-0.6 0-1-0.2-0.5 0.3-1.2 0.7-0.9 1-1.3 0-0.9-0.2-1.1-0.5-0.6 0.1-2.2 1.1-1.9 1.5-2 2.2-1.5 0.7-1.7 0-1.6 0-1.4 0.2-1.5 0.1-2 0-4-0.7-2.8-0.1-0.2 0.1-1.1-0.5-1.1-0.2-0.7-0.3-0.5-0.4-0.4-0.6-0.6-0.1-0.8 0-0.6 0-0.6-0.2-0.1-1 0-1.1 0.2-0.7 0-0.2 1 0.7-0.1-2.2 1.8-0.9 5.7 0.2 0.6-0.2 0.3-0.4 0.2-0.5 0.3-0.5 1.4-0.4 1-0.6 0.9-0.9 1.4-1.7 0.6-0.4 0.8-0.2 1-0.1 0.8-0.2 5.6-4.9 2.7-3.9 1.4-2.6 0.6-1.8 0.4-3.2 0.4-1.8 0.5-1.6 0.6-1.1-0.3-0.7-0.1-0.9 0.1-0.9 0.3-0.7 0.3 0 1.1 0.5 0.5 0.1 0.8-0.3 2.4-1.8 0-0.1 0.9-0.2z M616.6 732.8l-0.3 1.4-0.6 0.8-1.7 0.1-2.4 1.1-0.4 0.5-0.5 2.1 0.8 1.7 0.4 2.5-1.4 2.7-3.1 0.5-1.5 1-1.3-0.1-1.7 0.6-1.6-0.4-1.7 2.7 0.3 1-0.5 2.2-1.8 1.7-1.7 0.7-0.7 1.1-0.9 0.2 0-0.5-1.3 0-2.4 0.9-1.3 0.2-0.7-0.6-2.1-2.9-0.6-1.2 0.2-1.9 0.8-1.9 0.9-1.5 0.9-0.6 0.1-0.2 0.3-1.1 0.1-0.3 0.1-0.1 0.6-0.2 1.9-1.5 0.6-0.8-1.3 0.2-0.8 0.6-0.8 0.2-3.5-4.4-0.9-1.9-0.3-0.7 0.2-0.6 0.8-0.3 0.5-0.5-0.1-1.2-0.4-1.2-0.2-0.6 0-1.1 0.1-0.5 0.3-0.3 2.8-2-0.3-0.2-0.2-0.1-0.1-0.3-0.6 0.6-0.5 0.4-0.5-0.1-0.3-0.9-1.2 0.9-1.3 0.1-2.7-0.4-3.4 1-0.7 0.5-1 0.6-3.2 0-1 0.5-0.9 0.8-1.6 1.9 0.1 0.2 0.1 0.3-0.7 0.5-0.4 0.9-0.1 1 0.6 0.8-0.6 0.6-0.3 0.3-0.4 0.2-0.5-0.1-0.7-0.8-1-0.4-0.9-0.7-0.5-0.2-0.6 0.2-0.3 0.3-0.3 0.3-0.3 0.3-1.1 0.3-2.6-0.3-0.7 0.4-0.6 0.8-0.7 0.3-0.7-0.4 0.5-0.8 0-0.3-0.2-0.5 0.3-0.4 0.7-1.2 6.5-7.6 0.7-0.4 0.9-0.1 0.9-0.3 0.9-0.5 3.7-2.9 1-1.6 3-2 0.4-1 0.2-1.4 0.1-3.3 0.1-0.9 0.4-0.3 0.3 0.2 0.1 0.5 0.2 0.5 0.4-0.6 0.3-0.9 0.1-0.4 1.9-2.2 0.5-0.4 0.8-0.4 0.7-0.8 0.9-2.1 1.1-1.3 1.2-0.8 1.4-0.4 1.5-0.1 0.4 0.1 0.3 0.2 0.4 0.1 0.6-0.4 1-0.5 1.1-0.3 0.4-0.3 0.3 0.2 3.1 3.5-1.1 3.5-1.2 2.1-1.3 1.5-0.2 0.8 0.1 0.9 0.7 1.1 0.7 1.1 0.4 1 0 1.3-0.5 1.2-0.2 0.6 0.2 0.9 0.5 0 1.1 0 0.9-0.5 0.9-0.2 0.5-0.3 0.4 0.5 0.2 1.2 1.1 1.8 1.8 1.5 1.6 0.6 0.9-1 2.2-1.1 1.8-1.4 0.6-0.5 3.2-1.4 0.5 0.2 0.2 0.5-0.3 1.2 1.2 1.3 2.3-0.3 1.1 0.4 1.5-1 0.3-0.1 1.4 0.4 0.1 0.2-0.5 0.9-2 2 0.4 1.2 0.6 0.1 0.3 0.5-0.1 0.6-0.8 0.7-0.1 2.4z M617 723.9l-1.5 1-1.1-0.4-2.3 0.3-1.2-1.3 0.3-1.2-0.2-0.5-0.5-0.2-3.2 1.4-0.6 0.5-1.8 1.4-2.2 1.1-0.9 1-1.6-0.6-1.8-1.5-1.1-1.8-0.2-1.2-0.4-0.5-0.5 0.3-0.9 0.2-0.9 0.5-1.1 0-0.5 0-0.2-0.9 0.2-0.6 0.5-1.2 0-1.3-0.4-1-0.7-1.1-0.7-1.1-0.1-0.9 0.2-0.8 1.3-1.5 1.2-2.1 1.1-3.5-3.1-3.5-0.3-0.2 1.2-1 5.1-2.2 1.6 0-0.5-1.4-1.3-1.4-0.4-1 0.9 0.1 0.9 0.3 0.8 0.5 0.6 0.7 0.9-0.5 1 0.4 1 0.9 0.8 1.1 0.7 0.5 5.4-0.2 1.8-0.4 2.3-1.1 0 0.1-0.1 1.3 0 1.8-0.1 0.6 0 0.8 0.6 0.7 0.6 0.7 0.7 1.5 0.1 1.5 0 1.9-1.1 2-4.1 4.4 1.8 0.5 1.4 0.1 0.6 0.5 1.3 1.3 0.4 1.8 0.1 1.9 0.2 2.5z M621.8 694.7l-0.1 0-0.2 0.5 0.1 0-0.5 0.9-0.3 2.8 0.3 0.5 1.2 0.5 0.4 0.9 0 0.9-0.3 1.2 0 1.2 0.3 0.9 0.7 1.1 1.3 2.3 1.3 1.5 0.9 0.4 0.9 0 0.9 0 1 0.3 0.4 0.7 0.7 1.7 1.1 2.2 1 1.7-0.4 0.6-0.5 2.9 0 1.9 0.6 0.9 0.9 0.7 0.7 1-2.5 1-2.4 1-1.7 0.2-2.2 0.1-1.3 0.1-1.5 1.5-1.4 1.9-0.8 1.7-2.2 0.8-1.6-0.4 0.1-2.4 0.8-0.7 0.1-0.6-0.3-0.5-0.6-0.1-0.4-1.2 2-2 0.5-0.9-0.1-0.2-1.4-0.4-0.3 0.1-0.2-2.5-0.1-1.9-0.4-1.8-1.3-1.3-0.6-0.5-1.4-0.1-1.8-0.5 4.1-4.4 1.1-2 0-1.9-0.1-1.5-0.7-1.5-0.6-0.7-0.6-0.7 0-0.8 0.1-0.6 0-1.8 0.1-1.3 0-0.1 6.6-3.3 0.6 0z M564.8 700.9l0.2 0.4 0.4 0.5 0.3 0.6-0.3 0.8-0.4 0.2-0.4-0.2-1-0.9-1-1.7-0.4-0.6-0.4-0.1-1.4 0.1-0.3-0.2-0.8-1.3 0-0.6 1.3-1.1 0.5 0.3 0.5 0 0.9-0.1 0.3 0.3 0.7 0.7 0.7 0.9 0.4 0.9 0.2 1.1z m22.4-3l1.4 0 0.6 0.1 0.6 0.5-1 1-1.6 3.1-1.1 0.6-1.2 0.2-1.1 0.6-1.1 0.9-0.9 1-0.2 0.3-0.1 0.2 0 0.3 0 0.6-0.1 0.6-0.1 0.1-0.2-0.1-1.7 1.2-0.7 0.9-3 1.8-0.5 0.2-0.6-0.1-1.2-0.6 0 0.2-0.3 0.3-0.3 0.1-0.3-0.1-0.1-0.4 0-0.8 0.1-0.6 0.1-0.3 0.4-0.4 0.5-0.7 0.3-0.7-0.5-0.4-0.7 0.4-1.1 1.5-0.6 0.3-0.1-0.3-1.5-1.3-0.2-0.1-0.4 0.1-0.1 0 0-0.2 0-0.7 0-0.2 0-0.2 0-0.6-0.2-0.6-0.9-0.9-1.6-3-0.8-1.1 0-0.6 0.2-0.8 0.1-1.2 0-1.7 0.2-2.6-0.1-1.1-0.4-1.2 0.8-0.6 6-2.1 0.6 0 3.2 0.5 0.9 0.1 1.8 1 0.5 0.4 0.2 1 0.1 0.9 0.2 0.5-0.1 0.2 0.6 0.4 0.7 0.4 0.2 0 0.1 0.4-0.1 0.6 0 0.4 0.2 0.2 0 0.2 0.8 0.9 0.2 0.9 0.1 0.7 0.2 0.4 0.6 0.1 0.6 0 1.1-0.4 0.5 0 0.3-0.2 0.4-0.8 0.3-0.2 0.3 0.1 0.6 0.4 0.2 0.1z M623 815l2.1-0.2 1.5 1.7 0.3 1 0.9 1.4 0.7 0.4 0.3-0.4 1.9 1 1.3 1.1 1.2 0.8 0.1 0 0.3 0.7 0.9 0.2 0.9 0.6 0 0.8 0 1.1-0.2 1.1-0.1 0.8 0.7 1 1.4 0.8-1 0.5-2.7 0.9 0 0.1 0.1 0.5 1.1 1.3-0.8 1.4-2.6-0.7-2.6 0.2-0.7 0.4-1.4-2.6-2.1-5.2 1.2-0.8 0.1-1.3-1-2.5-1.4-4.4-0.4-1.7z M611.3 817.9l1.2-0.8 0.5-0.9 1.1 0.3 0.1-0.3-0.2-0.5 2.2-0.7 0.3-0.4 0.1-1.6 0.3-0.4 0.6 0 0.8 0.4 1 3.9-1.2 0.8 2.8 3.9 3.6 4 0 0.1 2.1 5.2 1.4 2.6-0.4 0.2-1.9 2-0.4 1-0.3 0.2-0.1 0-1.3-1-0.3 0-0.1 1-2-0.5-0.9 0.8-0.5-0.6-1.2-0.2-0.7-0.7-0.5 0-0.5 0.7-0.5-0.3 0.3-2.4 0.3-3.6-1.3-2-1.6-1.3-1.2-0.6 0.2 0-0.1-0.9-1-1.4-0.1-1.4 0.2-2.3-0.2-0.8-1-0.8 0.4-0.7z M625.1 814.8l-0.2-0.5 0.1-0.6 0.8-0.6 3.2 0.5 2.1-0.1 0.2-0.1 0.7 0.8 0.6 0.5 0.1 0.6 0.8 1.6 0.2 1.3 0 1.7 0 1.6-0.4 0.3-0.1 0-1.2-0.8-1.3-1.1-1.9-1-0.3 0.4-0.7-0.4-0.9-1.4-0.3-1-1.5-1.7z M632.6 814.7l1.1 0 1.1 0 1.6 0.8 0.7 1.5 0 1.8 0.5 0.9 0.8 0.4 0.7 0 0.7 1 0 1.1 0 2 0.2 2 0.5 1.1-0.5 0.1-2.8 1.5-1.4-0.8-0.7-1 0.1-0.8 0.2-1.1 0-1.1 0-0.8-0.9-0.6-0.9-0.2-0.3-0.7 0.4-0.3 0-1.6 0-1.7-0.2-1.3-0.8-1.6-0.1-0.6z M618.3 813l0.4 0.2 0.3-0.1 0.2-0.8 0.5-0.2 0.9 1.3 1.3 0.4 0.5 1.3 0.6-0.1 0.4 1.7 1.4 4.4 1 2.5-0.1 1.3-1.2 0.8 0-0.1-3.6-4-2.8-3.9 1.2-0.8-1-3.9z">
  </path>
 </g>
</svg>
