<?xml version="1.0"?>

<svg baseprofile="tiny" fill="#6f9c76" height="1000" stroke="#ffffff" stroke-linecap="round" stroke-linejoin="round" stroke-width=".5" version="1.2" viewbox="0 0 1000 1000" width="1000" xmlns="http://www.w3.org/2000/svg">
 <g id="features">
  <path class="wales" d="M634.7 701.9l0.8 0.4 1.8 0.4 0.4 0.1 3 2.5 1.6 1.7 0.2 0.3 0.2 0.5 0.1 0.7 0 0.3-0.2 0.3-1.7 1.1-0.2 0.2 0 0.2 0 0.2-1.7 0.5-2.8 2.5-2.4 2-0.9 1.1-1-1.7-1.1-2.2-0.7-1.7-0.4-0.7-1-0.3-0.9 0-0.9 0-0.9-0.4-1.3-1.5-1.3-2.3-0.7-1.1-0.3-0.9 0-1.2 0.3-1.2 0-0.9-0.4-0.9-1.2-0.5-0.3-0.5 0.3-2.8 0.5-0.9-0.1 0 0.2-0.5 0.1 0 1.4-0.1 1.8 0.9 1 0.8 0.4 0.8 0.5 0.6 6 3.9 0.7 0.8 0.6 1 0.4 0.4 0.1-0.3 0-1.6z" id="GBFLN" name="Flintshire">
  </path>
  <path class="wales" d="M632.9 716.9l0.9-1.1 2.4-2 2.8-2.5 1.7-0.5 0 0.1 0.2 0.4 2.3 2.5 0.3 0.3 1.2 2.8 0.3 1.1 0.3 1.3 0.1 0.3-0.1 0.3 0.1 0.4 0.3 0.5 1.1 1.3 0.4 0.8 0.2 0.2 0.3 0.2 1.8 0.2 1.9 1.2 0.1 0.6 0.3 0.8 0.1 0.2 0.1 0.3-0.1 1.3 0 0.3-0.2 0.3-0.3 0.1-0.6 0.2-0.5 0.2-0.9 0.7-0.4 0.1-0.5-0.1-0.2-0.1-2.5-2.6-0.3-0.2-0.5-0.1-0.6 0-1.9 0.5-0.4 0.1-0.3-0.1-0.2-0.1-0.2-0.2-0.8-0.9-0.2-0.2-0.6-0.1-0.8 0.1-0.5 0.2-2.4 1.8-0.2 0.1-0.2 0.1-0.2 0.1-0.6 0.4-0.3 0.3-0.2 0.5-0.4 0.8-0.3 0.3-0.3 0.2-0.5 0.2-0.2 0.3-0.1 0.3 0.1 0.7 0.1 0.3 0.2 0.4 0 0.3 0 0.3-0.3 0.4-0.6 0.6-0.2 0.2-0.3 0.5-0.1 0.2 0 0.5 0 0.4 0.6 1.7-2.4 0.3-2.4 1.1-0.9-0.2-0.3-0.3 0.1-1-1.1-1.7-0.5-0.5-3.4-1.8-0.2-0.5 0.1-0.9-0.2-0.2-0.5 0.2 0.8-1.7 1.4-1.9 1.5-1.5 1.3-0.1 2.2-0.1 1.7-0.2 2.4-1 2.5-1-0.7-1-0.9-0.7-0.6-0.9 0-1.9 0.5-2.9 0.4-0.6z" id="GBWRX" name="Wrexham">
  </path>
  <path class="wales" d="M620.4 732.4l0.5-0.2 0.2 0.2-0.1 0.9 0.2 0.5 3.4 1.8 0.5 0.5 1.1 1.7-0.1 1 0.3 0.3 0.9 0.2 2.4-1.1 2.4-0.3 0.5 0.6 0.8 0.3 1.4 0.2 0.2 0 0.2 0.2 0.3 0.6 0.2 0.3 0.3 0.2 1.3 0.1 1.1 0.4 0.3 0.2 0.5 0.9 0.2 0.3 0.3 0.2 0.8 0.4 0 0.2 0 0.2-0.3 0.6-0.3 0.3-0.3 0.2-0.9 0.1-0.3 0-0.2 0.1-0.2 0.2-0.1 0.3-0.2 0.7-0.3 0.7-0.1 0.3-0.1 0.5 0.1 1-0.2 0.7-0.1 0.4-0.2 0.2-0.9 0.5-0.2 0.2-0.1 0.3-0.1 0.4-0.1 1.1-0.1 0.3-0.1 0.3-0.3 0.4-0.4 0.4-1.3 0.8-0.2 0.1-0.1 0.3-0.1 0.3 0 0.4 0.1 0.4 0.1 0.5 0.4 0.7 0.1 0.2 0.1 0.3 0 0.3-0.1 0.2-0.2 0.5 0 0.2 0.2 0.1 0.5 0.1 0.3-0.1 0.3-0.1 0.2-0.2 0.1-0.2 0.3-0.5 0.1-0.2 0.2-0.2 1.3-0.7 0.9-0.9 0.2-0.1 0.3-0.1 0.2 0.1 1.2 1.4 0.1 0.3 0.1 0.3 0 0.3-0.3 0.3-0.3 0.5-1.2 1.1-0.5 1-0.3 0.2-3.6 0.3-0.5 0.2-1.2 0.8-2.2 0.9-0.2 0.1-0.3 0.4-0.5 0.9-0.1 0.3 0 0.3 0 0.3 0.1 0.6 0.1 0.4 0.1 0.4 0.1 0.2 0.2 0.2 0.1 0.2 1.6 1.1 1.2 1.1 1.7 1.2 1.2 1.4 0.4 0.3 5.3 0.4 0.1 0.7-0.1 0.3-0.3 0.4-1 0.7-0.3 0.3-0.3 0.5-0.1 0.5 0 0.2 0.1 0.8 0.2 0.3 0.2 0.3 1.2 0.3 0.2 0.2 0.1 0.2 0 0.2-0.3 0.3-0.3 0.2-1.6 0-0.4 0.2-0.2 0.2-0.1 0.1-0.4 0.5-0.1 0.2-0.2 0.2-0.6 0.3-0.2 0.2-0.2 0.2-0.1 0.3-0.2 0.9-0.3 0.4-1.9 2.8 0 0.3 0 0.4 0.4 0.5 0.3 0.1 0.3 0 0.2-0.1 0.2 0.1 0.1 0.2-0.1 0.4-0.2 0.3-0.2 0.2-1.2 0.5-0.5 0.2-0.1 0.2 0.1 0.3 0.3 0.5 0.7 0.4 0 0.1 0 0.2-0.2 0.1-0.2 0.3-0.1 0.2-0.2 0.7-0.3 1.3 0 0.2 0.1 0.2 0.3 0.1 0.4 0.4 0.9 0.9 0.1 0.3 0.1 0.4 0 0.6 0 0.4 0 0.6 0.1 0.4 1.4 2.5-0.5 1.2 0.1 1.1-0.2 1.2 1.3 3.9-1.4 1.4-0.1 1.1-1 1.8-1.3 0.3-0.9 0.8-1 0.3-0.2 0.1-2.1 0.1-3.2-0.5-0.8 0.6-0.1 0.6 0.2 0.5-2.1 0.2-0.6 0.1-0.5-1.3-1.3-0.4-0.9-1.3-0.5 0.2-0.2 0.8-0.3 0.1-0.4-0.2-0.8-0.4-0.6 0-0.3 0.4-0.1 1.6-0.3 0.4-2.2 0.7 0.2 0.5-0.1 0.3-1.1-0.3-0.5 0.9-1.2 0.8-0.4-0.8-2.6-1.3-2.2 0.9-1.3-0.4-0.5 0.9-1.4 0.2-1.7-2 1.5-2.5 0.7-2.2 1.5-1.4 0.4-1.3-0.2-1.6 0.3-2.2 0.4-0.3 0.5-0.3 0.2-0.6-0.5-1.8 0.1-1.3 1-1.8 1.4-1.4 0.1-0.8-0.8-1-0.1-1.1-0.3-0.5-2-0.8-0.2-0.3 0.5-1.4-0.1-0.5-1.7-0.5-0.6-0.2 0.4-1.5-0.3-2.6 0.5-1.9 0-2.6 0.4-0.4-0.3-0.4 0.2-0.8 1.4-0.8 0.2-0.4-0.7-1 0-0.9-0.7-1 0-0.6 1.3-1.2 1.9-0.4 0.5-0.6-0.8-1.2-1-0.1-0.2-1.4-1.2-2.9-1.9-1.3 0.2-1.6 0.9-0.7 0.6-2.4-1-0.2-1 1.1-2.1 0.4-1-1.7 0.2-2.2-0.5-1.2-1.3-0.6-2.8 0.2 0.7-1.1 1.7-0.7 1.8-1.7 0.5-2.2-0.3-1 1.7-2.7 1.6 0.4 1.7-0.6 1.3 0.1 1.5-1 3.1-0.5 1.4-2.7-0.4-2.5-0.8-1.7 0.5-2.1 0.4-0.5 2.4-1.1 1.7-0.1 0.6-0.8 0.3-1.4 1.6 0.4 2.2-0.8z" id="GBPOW" name="Powys">
  </path>
  <path class="wales" d="M631.3 813.4l1-0.3 0.9-0.8 1.3-0.3 1-1.8 0.1-1.1 1.4-1.4-1.3-3.9 0.2-1.2-0.1-1.1 0.5-1.2 0 0.1 1 1.5 1.4 1.2 0.1 0.1 0.1 0.2 0.1 0.3 0 0.5 0.2 0.4 0.3 0.3 1 0.9 0.4 0.2 0.5 0 0.3 0 0.5-0.3 1.4-1 0.5-0.2 0.5-0.1 4.6 4.2 0.5 0.6 0.1 0.2 0.6 0.8 0.1 0.2 0.2 0.4 0.2 0.3 0.2 0.1 0.3 0.1 0.8 0 0.4 0 0.3 0.2 0.9 0.8 0.8 0.6 0.5-0.3 0.1 0-0.3 1.1-1 1.6-0.2 0.6-0.1 0.4 0 0.6 0.2 0.5 0.3 0.7 0 0.4-0.2 0.6-0.1 0.3-0.3 0.4-0.1 0.4 0.1 0.3 0.4 1.1 0.4 1.3 0.1 0.4 0.1 0.4 0 0.2-0.2 0.3-0.7 0.3-0.1 0.2 0 0.2 0.2 0.4 0.3 0.5 0 0.7 0.3 1.6-1.3 1.5-0.9 0.8-2.2 0.5-1.8 1.2-1.6-0.7-1-0.9 0.3-0.8 1.4-1.2 0.9-0.8 0.4-0.7-0.5-1-0.7-0.4-0.9 0-2.9 1.8-1.2 0-0.4-0.1-0.7-0.2-0.7 0.2-0.5-1.1-0.2-2 0-2 0-1.1-0.7-1-0.7 0-0.8-0.4-0.5-0.9 0-1.8-0.7-1.5-1.6-0.8-1.1 0-1.1 0-0.6-0.5-0.7-0.8z" id="GBMON" name="Monmouthshire">
  </path>
  <path class="wales" d="M640.5 827.3l0.7-0.2 0.7 0.2 0.4 0.1 1.2 0 2.9-1.8 0.9 0 0.7 0.4 0.5 1-0.4 0.7-0.9 0.8-1.4 1.2-0.3 0.8 1 0.9 1.6 0.7-0.8 0.6-2 0.7-4 0.3-0.6-0.2-0.4-0.6-0.2-0.5-0.3-0.2-0.4 0.3-1.2 1.5-0.3 0.5-2.7 1.8-0.1 0 0-0.2 0.5-0.9-0.1-0.3-1.3-0.5-0.3-0.8 0.8-1.4-1.1-1.3-0.1-0.5 0-0.1 2.7-0.9 1-0.5 2.8-1.5 0.5-0.1z" id="GBNWP" name="Newport">
  </path>
  <path class="wales" d="M633.9 833.6l0.3 0.8 1.3 0.5 0.1 0.3-0.5 0.9 0 0.2-0.6 0.2-0.8 0.6-1.2 1.3-0.2 0.3-0.2 0.8-0.2 0.4-0.4 0.2-0.6 0.1-0.3 0.2-0.4-0.4-0.5-0.5-0.4-0.2-0.5 0-0.8 0.1-0.6 0-0.5 0-0.5-0.2-0.4-0.6-0.7-1.2-0.3-0.5 0.3-0.2 0.4-1 1.9-2 0.4-0.2 0.7-0.4 2.6-0.2 2.6 0.7z" id="GBCRF" name="Cardiff">
  </path>
  <path class="wales" d="M625 836.9l0.3 0.5 0.7 1.2 0.4 0.6 0.5 0.2 0.5 0 0.6 0 0.8-0.1 0.5 0 0.4 0.2 0.5 0.5 0.4 0.4 0.6 1.6-0.4 1.6-0.8 1-0.9-0.3-0.7-0.1-3.3 1.4-11.7-1.1-0.9-0.5-0.8-1.1 0.1 0 0-0.1 2.2-1.1-0.8-0.9 0.4-0.3 0.8 0.2-0.3-1.4 0.2-0.8-0.1-1.1 2-1.4 0.2 0.1 0.5 0.3 0.5-0.7 0.5 0 0.7 0.7 1.2 0.2 0.5 0.6 0.9-0.8 2 0.5 0.1-1 0.3 0 1.3 1 0.1 0z" id="GBVGL" name="Vale of Glamorgan">
  </path>
  <path class="wales" d="M616.4 836.1l-0.2-0.1-2 1.4 0.1 1.1-0.2 0.8 0.3 1.4-0.8-0.2-0.4 0.3 0.8 0.9-2.2 1.1 0 0.1-0.1 0-1.4-1.9-2.7-2.3-0.7-0.1-0.8 0.4-1.1-0.5-0.9-0.9-0.5-0.8 0-0.3 0-0.1 0.2-0.1 0.1 0-0.3-1.5-0.2-0.4 2.9 0.6 2.4-1.3-0.6-2.1-1.4-1.3 0.1-0.6 0.6-0.7 0.3-2.3 0.3-0.4 3.1 0.5 1.8-0.6 1.2 0.6 1.6 1.3 1.3 2-0.3 3.6-0.3 2.4z" id="GBBGE" name="Bridgend">
  </path>
  <path class="wales" d="M601.2 815.4l1.7 2 1.4-0.2 0.5-0.9 1.3 0.4 2.2-0.9 2.6 1.3 0.4 0.8-0.4 0.7 1 0.8 0.2 0.8-0.2 2.3 0.1 1.4 1 1.4 0.1 0.9-0.2 0-1.8 0.6-3.1-0.5-0.3 0.4-0.3 2.3-0.6 0.7-0.1 0.6 1.4 1.3 0.6 2.1-2.4 1.3-2.9-0.6-0.3-1-0.5-1.3-0.6-1-0.4-0.4-0.8-0.5-0.4-0.6-0.7-1.4-0.5-0.5-0.6-0.1-1.5 0.1 0.6-1.1 2.1-3.9-1.7-2-2.4-2.7-0.7-0.9 0.8-0.7 0.9 0.6 0.5-0.1 0.3-0.8-0.3-1.3 0.8-0.6 2.3 0 0.9 1.2z" id="GBNTL" name="Neath Port Talbot">
  </path>
  <path class="wales" d="M595 817.1l0.7 0.9 2.4 2.7 1.7 2-2.1 3.9-0.6 1.1-3.5 0.5-0.7 0.3-0.6 0.4-0.4 0.4-0.1 0.7 0.4 0.8 0.5 0.7 0.3 0.7-1.9 0 0 0.1-0.3 0.4-0.2 0.1-0.2-0.4-0.1-0.3-0.3-0.2-0.4-0.2-0.3 0-0.1 0.1-0.5 0.8-0.2 0.1-0.3-0.1-0.5-0.4-1.1-0.2-0.5-0.1-0.5 0.3-0.5 0.4-0.6 0.8-0.5 0.3-0.5-0.1-0.5-0.4-0.4 0-0.2 0.8-0.6-0.1-2.7-1.1-0.9-0.1-0.1-0.3-0.1-0.2-0.1-0.5 0.9-0.7-0.1-0.8-0.5-1 0-1.1 1.6-0.5 0.2-0.3 0.5-0.9 0.3-0.4 0.3 0.5-0.3 0 0 0.5 0.3 0.2 0.4 0.4 1.4-0.5 2.4-0.2 2.2-0.5 1-1.7 0-0.5 0-0.4 0-0.2 1.4-2 0.2-1.4 0.6-0.8 0-0.9 0.7-0.8 0.8-0.2 0.6-0.7 2.1 0.4 0.1-0.1z" id="GBSWA" name="Swansea">
  </path>
  <path class="wales" d="M603.9 789.8l1.7 0.5 0.1 0.5-0.5 1.4 0.2 0.3 2 0.8 0.3 0.5 0.1 1.1 0.8 1-0.1 0.8-1.4 1.4-1 1.8-0.1 1.3 0.5 1.8-0.2 0.6-0.5 0.3-0.4 0.3-0.3 2.2 0.2 1.6-0.4 1.3-1.5 1.4-0.7 2.2-1.5 2.5-0.9-1.2-2.3 0-0.8 0.6 0.3 1.3-0.3 0.8-0.5 0.1-0.9-0.6-0.8 0.7-0.1 0.1-2.1-0.4-0.6 0.7-0.8 0.2-0.7 0.8 0 0.9-0.6 0.8-0.2 1.4-1.4 2-0.2-0.1-0.6 0.7-0.4 0.2-0.5 0.1-1.8-0.2-2.6-1.4-0.7 0.4-3.6 0.6-1.1-0.4-1.2-1-1.1-1.3-0.6-1.4 1.9 0.2 0.8-0.1 0.5-0.6-0.9 0-0.8-0.2-0.8-0.5-0.4-0.9 0.1-0.2 0.3-0.5 0.2-0.7 0-0.7-0.3-0.5-0.3 0.2-0.3 0.8-0.3 0.3-0.4 0.6-0.3 0.2-0.5-0.2-0.4-0.3-0.4-0.6-0.9 0.2-0.1 0.5 0.3 0.7 0.7 0.7-1.6 0.9-1.8 0.1-3.5-0.5-1.3 0.1-1.7 0.5 0-0.1 0.1-0.6 0-1.3 0-1.4 0-1.2-0.2-0.9-0.4-0.9-0.6-0.6-0.7-0.1-0.6 0-0.6 0.1-0.6 0.3-0.4 0.1-0.6 0-0.7 0-0.5-0.1-0.2-0.2 0-0.5 0.4-0.6 1.1-0.2 0.5-0.3 0-0.6-0.1-0.5-0.7-0.7 0-0.4 0.4-0.7 1.8-1.9 1-0.3 0.9 0 1 0.2 1.6-0.7 3.8-2.2 1-0.9 0-0.7-0.5-0.7-0.8-1.2-0.6-1.2-0.3-1.1-0.8-1 0.2-0.1 2.8 0.1 4 0.7 2 0 1.5-0.1 1.4-0.2 1.6 0 1.7 0 1.5-0.7 2-2.2 1.9-1.5 2.2-1.1 0.6-0.1 1.1 0.5 0.9 0.2 1.3 0 0.9-1 1.2-0.7 0.5-0.3 1 0.2 0.6 0 0.8 0 0.8-0.3 1.2 0.3 1.3 0.2 1.3 0.9 1 0 1-1.2z" id="GBCMN" name="Carmarthenshire">
  </path>
  <path class="wales" d="M565.6 796.2l0.8 1 0.3 1.1 0.6 1.2 0.8 1.2 0.5 0.7 0 0.7-1 0.9-3.8 2.2-1.6 0.7-1-0.2-0.9 0-1 0.3-1.8 1.9-0.4 0.7 0 0.4 0.7 0.7 0.1 0.5 0 0.6-0.5 0.3-1.1 0.2-0.4 0.6 0 0.5 0.2 0.2 0.5 0.1 0.7 0 0.6 0 0.4-0.1 0.6-0.3 0.6-0.1 0.6 0 0.7 0.1 0.6 0.6 0.4 0.9 0.2 0.9 0 1.2 0 1.4 0 1.3-0.1 0.6 0 0.1-0.3 0.1-1.6 1.1 0 1.9-0.5 0-0.1 0.2 0 0.3-0.1 0.5-0.8 2.2-0.5-0.2-0.6-0.5-0.3 0.2-0.8 0.9-4.2-0.1-0.7 0.1-0.8 0.5-0.4 0.6-0.3 0.7-0.5 0.5-0.9 0.4-0.3 0.7-0.5 0.2-0.2-0.1-0.5-0.3-3-1-1.2-0.9 0.5-0.8-0.7-1.4-2.3-0.6-0.9-1.1 0.3-0.5 3.6 0.5-0.1-0.2-0.2-0.6-0.1-0.2 0.7-0.1 1.3 0.5 0.6 0.1 0.7-0.2 1.5-0.9 2.3-0.5 1.1-0.8 0.5-0.1 0.6 0.4 0-0.5-1.3-1.3-0.3-1.9 0.8-1.5 1.8-0.5 0-0.5-0.5 0.3-1.4 0.6-2.6 0.3-0.6 0.3 0.8 0 0.5 0.3 0.2 0.7-0.2 1.1 0.6 0.6-0.1 0.9-0.7 0.7-3.7 0.9-1 0-6.5-0.9-0.8 0.4 0.4 1.2-0.5 0.6-0.7 0 0.1-0.8 0-0.5-2.3-1.8-0.9-0.2 1-0.1 0.7-0.1 0.5-0.4 0.5-0.7 0.7-0.7 1.6-0.3 0.8-0.4 0.7-0.7 0.2-0.8-0.3-1.9 0-1.1-0.2-1.2-0.4-0.9-0.7-0.6-0.3 0.5-0.8-0.7-1.9-0.3-0.8-0.5-0.7 0.5-2.6 0.5-0.9 0 0.3-0.3 0.3-0.2 0-0.5-0.1-0.4-0.1-0.2 0.1-0.3 0.5-0.2 0-0.5-0.4-1 0.4-0.4 1.7-0.2 0.9-0.3 1.4-1.5 0.6-0.3 1.5-0.2 1.9-0.7 1.4-1.3 0.2-2 0.7 0 0-0.5-0.6-0.4 0.1-0.6 0.5-0.3 0.8-0.2 1.2 0.1 0.6 0.1 2.5 1.4 0.9 0 1.3-0.6-0.3-1 0.9 0.1 1.8 0.8 1 0.1 0.4-0.3 0-0.7-0.3-0.9 0.1-0.7 0.3-0.3 1.6-0.2 0.9-0.7 0.7-0.8 1.1-1.9 0.9-1 0.6 0 0.6 0.5 0 0.2-0.2 0.7 0 1.1 0.1 1 0.6 0.2 0.6 0 0.8 0 0.6 0.1 0.4 0.6 0.5 0.4 0.7 0.3 1.1 0.2 1.1 0.5z" id="GBPEM" name="Pembrokeshire">
  </path>
  <path class="wales" d="M595.2 756.7l2.8-0.2 1.3 0.6 0.5 1.2-0.2 2.2 1 1.7 2.1-0.4 1-1.1 1 0.2-0.6 2.4-0.9 0.7-0.2 1.6 1.9 1.3 1.2 2.9 0.2 1.4 1 0.1 0.8 1.2-0.5 0.6-1.9 0.4-1.3 1.2 0 0.6 0.7 1 0 0.9 0.7 1-0.2 0.4-1.4 0.8-0.2 0.8 0.3 0.4-0.4 0.4 0 2.6-0.5 1.9 0.3 2.6-0.4 1.5 0.6 0.2-1 1.2-1 0-1.3-0.9-1.3-0.2-1.2-0.3-0.8 0.3-0.8 0-0.6 0-1-0.2-0.5 0.3-1.2 0.7-0.9 1-1.3 0-0.9-0.2-1.1-0.5-0.6 0.1-2.2 1.1-1.9 1.5-2 2.2-1.5 0.7-1.7 0-1.6 0-1.4 0.2-1.5 0.1-2 0-4-0.7-2.8-0.1-0.2 0.1-1.1-0.5-1.1-0.2-0.7-0.3-0.5-0.4-0.4-0.6-0.6-0.1-0.8 0-0.6 0-0.6-0.2-0.1-1 0-1.1 0.2-0.7 0-0.2 1 0.7-0.1-2.2 1.8-0.9 5.7 0.2 0.6-0.2 0.3-0.4 0.2-0.5 0.3-0.5 1.4-0.4 1-0.6 0.9-0.9 1.4-1.7 0.6-0.4 0.8-0.2 1-0.1 0.8-0.2 5.6-4.9 2.7-3.9 1.4-2.6 0.6-1.8 0.4-3.2 0.4-1.8 0.5-1.6 0.6-1.1-0.3-0.7-0.1-0.9 0.1-0.9 0.3-0.7 0.3 0 1.1 0.5 0.5 0.1 0.8-0.3 2.4-1.8 0-0.1 0.9-0.2z" id="GBCGN" name="Ceredigion">
  </path>
  <path class="wales" d="M616.6 732.8l-0.3 1.4-0.6 0.8-1.7 0.1-2.4 1.1-0.4 0.5-0.5 2.1 0.8 1.7 0.4 2.5-1.4 2.7-3.1 0.5-1.5 1-1.3-0.1-1.7 0.6-1.6-0.4-1.7 2.7 0.3 1-0.5 2.2-1.8 1.7-1.7 0.7-0.7 1.1-0.9 0.2 0-0.5-1.3 0-2.4 0.9-1.3 0.2-0.7-0.6-2.1-2.9-0.6-1.2 0.2-1.9 0.8-1.9 0.9-1.5 0.9-0.6 0.1-0.2 0.3-1.1 0.1-0.3 0.1-0.1 0.6-0.2 1.9-1.5 0.6-0.8-1.3 0.2-0.8 0.6-0.8 0.2-3.5-4.4-0.9-1.9-0.3-0.7 0.2-0.6 0.8-0.3 0.5-0.5-0.1-1.2-0.4-1.2-0.2-0.6 0-1.1 0.1-0.5 0.3-0.3 2.8-2-0.3-0.2-0.2-0.1-0.1-0.3-0.6 0.6-0.5 0.4-0.5-0.1-0.3-0.9-1.2 0.9-1.3 0.1-2.7-0.4-3.4 1-0.7 0.5-1 0.6-3.2 0-1 0.5-0.9 0.8-1.6 1.9 0.1 0.2 0.1 0.3-0.7 0.5-0.4 0.9-0.1 1 0.6 0.8-0.6 0.6-0.3 0.3-0.4 0.2-0.5-0.1-0.7-0.8-1-0.4-0.9-0.7-0.5-0.2-0.6 0.2-0.3 0.3-0.3 0.3-0.3 0.3-1.1 0.3-2.6-0.3-0.7 0.4-0.6 0.8-0.7 0.3-0.7-0.4 0.5-0.8 0-0.3-0.2-0.5 0.3-0.4 0.7-1.2 6.5-7.6 0.7-0.4 0.9-0.1 0.9-0.3 0.9-0.5 3.7-2.9 1-1.6 3-2 0.4-1 0.2-1.4 0.1-3.3 0.1-0.9 0.4-0.3 0.3 0.2 0.1 0.5 0.2 0.5 0.4-0.6 0.3-0.9 0.1-0.4 1.9-2.2 0.5-0.4 0.8-0.4 0.7-0.8 0.9-2.1 1.1-1.3 1.2-0.8 1.4-0.4 1.5-0.1 0.4 0.1 0.3 0.2 0.4 0.1 0.6-0.4 1-0.5 1.1-0.3 0.4-0.3 0.3 0.2 3.1 3.5-1.1 3.5-1.2 2.1-1.3 1.5-0.2 0.8 0.1 0.9 0.7 1.1 0.7 1.1 0.4 1 0 1.3-0.5 1.2-0.2 0.6 0.2 0.9 0.5 0 1.1 0 0.9-0.5 0.9-0.2 0.5-0.3 0.4 0.5 0.2 1.2 1.1 1.8 1.8 1.5 1.6 0.6 0.9-1 2.2-1.1 1.8-1.4 0.6-0.5 3.2-1.4 0.5 0.2 0.2 0.5-0.3 1.2 1.2 1.3 2.3-0.3 1.1 0.4 1.5-1 0.3-0.1 1.4 0.4 0.1 0.2-0.5 0.9-2 2 0.4 1.2 0.6 0.1 0.3 0.5-0.1 0.6-0.8 0.7-0.1 2.4z" id="GBGWN" name="Gwynedd">
  </path>
  <path class="wales" d="M617 723.9l-1.5 1-1.1-0.4-2.3 0.3-1.2-1.3 0.3-1.2-0.2-0.5-0.5-0.2-3.2 1.4-0.6 0.5-1.8 1.4-2.2 1.1-0.9 1-1.6-0.6-1.8-1.5-1.1-1.8-0.2-1.2-0.4-0.5-0.5 0.3-0.9 0.2-0.9 0.5-1.1 0-0.5 0-0.2-0.9 0.2-0.6 0.5-1.2 0-1.3-0.4-1-0.7-1.1-0.7-1.1-0.1-0.9 0.2-0.8 1.3-1.5 1.2-2.1 1.1-3.5-3.1-3.5-0.3-0.2 1.2-1 5.1-2.2 1.6 0-0.5-1.4-1.3-1.4-0.4-1 0.9 0.1 0.9 0.3 0.8 0.5 0.6 0.7 0.9-0.5 1 0.4 1 0.9 0.8 1.1 0.7 0.5 5.4-0.2 1.8-0.4 2.3-1.1 0 0.1-0.1 1.3 0 1.8-0.1 0.6 0 0.8 0.6 0.7 0.6 0.7 0.7 1.5 0.1 1.5 0 1.9-1.1 2-4.1 4.4 1.8 0.5 1.4 0.1 0.6 0.5 1.3 1.3 0.4 1.8 0.1 1.9 0.2 2.5z" id="GBCWY" name="Conwy">
  </path>
  <path class="wales" d="M621.8 694.7l-0.1 0-0.2 0.5 0.1 0-0.5 0.9-0.3 2.8 0.3 0.5 1.2 0.5 0.4 0.9 0 0.9-0.3 1.2 0 1.2 0.3 0.9 0.7 1.1 1.3 2.3 1.3 1.5 0.9 0.4 0.9 0 0.9 0 1 0.3 0.4 0.7 0.7 1.7 1.1 2.2 1 1.7-0.4 0.6-0.5 2.9 0 1.9 0.6 0.9 0.9 0.7 0.7 1-2.5 1-2.4 1-1.7 0.2-2.2 0.1-1.3 0.1-1.5 1.5-1.4 1.9-0.8 1.7-2.2 0.8-1.6-0.4 0.1-2.4 0.8-0.7 0.1-0.6-0.3-0.5-0.6-0.1-0.4-1.2 2-2 0.5-0.9-0.1-0.2-1.4-0.4-0.3 0.1-0.2-2.5-0.1-1.9-0.4-1.8-1.3-1.3-0.6-0.5-1.4-0.1-1.8-0.5 4.1-4.4 1.1-2 0-1.9-0.1-1.5-0.7-1.5-0.6-0.7-0.6-0.7 0-0.8 0.1-0.6 0-1.8 0.1-1.3 0-0.1 6.6-3.3 0.6 0z" id="GBDEN" name="Denbighshire">
  </path>
  <path class="wales" d="M564.8 700.9l0.2 0.4 0.4 0.5 0.3 0.6-0.3 0.8-0.4 0.2-0.4-0.2-1-0.9-1-1.7-0.4-0.6-0.4-0.1-1.4 0.1-0.3-0.2-0.8-1.3 0-0.6 1.3-1.1 0.5 0.3 0.5 0 0.9-0.1 0.3 0.3 0.7 0.7 0.7 0.9 0.4 0.9 0.2 1.1z m22.4-3l1.4 0 0.6 0.1 0.6 0.5-1 1-1.6 3.1-1.1 0.6-1.2 0.2-1.1 0.6-1.1 0.9-0.9 1-0.2 0.3-0.1 0.2 0 0.3 0 0.6-0.1 0.6-0.1 0.1-0.2-0.1-1.7 1.2-0.7 0.9-3 1.8-0.5 0.2-0.6-0.1-1.2-0.6 0 0.2-0.3 0.3-0.3 0.1-0.3-0.1-0.1-0.4 0-0.8 0.1-0.6 0.1-0.3 0.4-0.4 0.5-0.7 0.3-0.7-0.5-0.4-0.7 0.4-1.1 1.5-0.6 0.3-0.1-0.3-1.5-1.3-0.2-0.1-0.4 0.1-0.1 0 0-0.2 0-0.7 0-0.2 0-0.2 0-0.6-0.2-0.6-0.9-0.9-1.6-3-0.8-1.1 0-0.6 0.2-0.8 0.1-1.2 0-1.7 0.2-2.6-0.1-1.1-0.4-1.2 0.8-0.6 6-2.1 0.6 0 3.2 0.5 0.9 0.1 1.8 1 0.5 0.4 0.2 1 0.1 0.9 0.2 0.5-0.1 0.2 0.6 0.4 0.7 0.4 0.2 0 0.1 0.4-0.1 0.6 0 0.4 0.2 0.2 0 0.2 0.8 0.9 0.2 0.9 0.1 0.7 0.2 0.4 0.6 0.1 0.6 0 1.1-0.4 0.5 0 0.3-0.2 0.4-0.8 0.3-0.2 0.3 0.1 0.6 0.4 0.2 0.1z" id="GBAGY" name="Anglesey">
  </path>
  <path class="wales" d="M623 815l2.1-0.2 1.5 1.7 0.3 1 0.9 1.4 0.7 0.4 0.3-0.4 1.9 1 1.3 1.1 1.2 0.8 0.1 0 0.3 0.7 0.9 0.2 0.9 0.6 0 0.8 0 1.1-0.2 1.1-0.1 0.8 0.7 1 1.4 0.8-1 0.5-2.7 0.9 0 0.1 0.1 0.5 1.1 1.3-0.8 1.4-2.6-0.7-2.6 0.2-0.7 0.4-1.4-2.6-2.1-5.2 1.2-0.8 0.1-1.3-1-2.5-1.4-4.4-0.4-1.7z" id="GBCAY" name="Caerphilly">
  </path>
  <path class="wales" d="M611.3 817.9l1.2-0.8 0.5-0.9 1.1 0.3 0.1-0.3-0.2-0.5 2.2-0.7 0.3-0.4 0.1-1.6 0.3-0.4 0.6 0 0.8 0.4 1 3.9-1.2 0.8 2.8 3.9 3.6 4 0 0.1 2.1 5.2 1.4 2.6-0.4 0.2-1.9 2-0.4 1-0.3 0.2-0.1 0-1.3-1-0.3 0-0.1 1-2-0.5-0.9 0.8-0.5-0.6-1.2-0.2-0.7-0.7-0.5 0-0.5 0.7-0.5-0.3 0.3-2.4 0.3-3.6-1.3-2-1.6-1.3-1.2-0.6 0.2 0-0.1-0.9-1-1.4-0.1-1.4 0.2-2.3-0.2-0.8-1-0.8 0.4-0.7z" id="GBRCT" name="Rhondda, Cynon, Taff">
  </path>
  <path class="wales" d="M625.1 814.8l-0.2-0.5 0.1-0.6 0.8-0.6 3.2 0.5 2.1-0.1 0.2-0.1 0.7 0.8 0.6 0.5 0.1 0.6 0.8 1.6 0.2 1.3 0 1.7 0 1.6-0.4 0.3-0.1 0-1.2-0.8-1.3-1.1-1.9-1-0.3 0.4-0.7-0.4-0.9-1.4-0.3-1-1.5-1.7z" id="GBBGW" name="Blaenau Gwent">
  </path>
  <path class="wales" d="M632.6 814.7l1.1 0 1.1 0 1.6 0.8 0.7 1.5 0 1.8 0.5 0.9 0.8 0.4 0.7 0 0.7 1 0 1.1 0 2 0.2 2 0.5 1.1-0.5 0.1-2.8 1.5-1.4-0.8-0.7-1 0.1-0.8 0.2-1.1 0-1.1 0-0.8-0.9-0.6-0.9-0.2-0.3-0.7 0.4-0.3 0-1.6 0-1.7-0.2-1.3-0.8-1.6-0.1-0.6z" id="GBTOF" name="Torfaen">
  </path>
  <path class="wales" d="M618.3 813l0.4 0.2 0.3-0.1 0.2-0.8 0.5-0.2 0.9 1.3 1.3 0.4 0.5 1.3 0.6-0.1 0.4 1.7 1.4 4.4 1 2.5-0.1 1.3-1.2 0.8 0-0.1-3.6-4-2.8-3.9 1.2-0.8-1-3.9z" id="GBMTY" name="Merthyr Tydfil">
  </path>
  <circle class="wales" cx="630" cy="705.3" id="GBFLN">
  </circle>
  <circle class="wales" cx="637.1" cy="720" id="GBWRX">
  </circle>
  <circle class="wales" cx="619.7" cy="781.2" id="GBPOW">
  </circle>
  <circle class="wales" cx="644.7" cy="815.6" id="GBMON">
  </circle>
  <circle class="wales" cx="641.6" cy="830.4" id="GBNWP">
  </circle>
  <circle class="wales" cx="630.1" cy="836.4" id="GBCRF">
  </circle>
  <circle class="wales" cx="622.2" cy="841" id="GBVGL">
  </circle>
  <circle class="wales" cx="612.2" cy="832.6" id="GBBGE">
  </circle>
  <circle class="wales" cx="603.8" cy="824.6" id="GBNTL">
  </circle>
  <circle class="wales" cx="593.5" cy="822.6" id="GBSWA">
  </circle>
  <circle class="wales" cx="585.1" cy="808.7" id="GBCMN">
  </circle>
  <circle class="wales" cx="550.7" cy="806.5" id="GBPEM">
  </circle>
  <circle class="wales" cx="594.9" cy="775.1" id="GBCGN">
  </circle>
  <circle class="wales" cx="595.9" cy="734" id="GBGWN">
  </circle>
  <circle class="wales" cx="603.3" cy="711.8" id="GBCWY">
  </circle>
  <circle class="wales" cx="622.1" cy="716.4" id="GBDEN">
  </circle>
  <circle class="wales" cx="574.8" cy="698.6" id="GBAGY">
  </circle>
  <circle class="wales" cx="629.6" cy="826.2" id="GBCAY">
  </circle>
  <circle class="wales" cx="619.9" cy="827.3" id="GBRCT">
  </circle>
  <circle class="wales" cx="630" cy="816.5" id="GBBGW">
  </circle>
  <circle class="wales" cx="637.5" cy="823.2" id="GBTOF">
  </circle>
  <circle class="wales" cx="621.9" cy="818.8" id="GBMTY">
  </circle>
 </g>
</svg>
