<svg height="131.09348" viewBox="0 0 299.30777 131.09279" width="299.30777" xmlns="http://www.w3.org/2000/svg" xmlns:xlink="http://www.w3.org/1999/xlink"><clipPath id="a"><path d="m439.17 778.06s5.726-8.933 12.188-6.161c6.46 2.772 9.682 17.434 10.184 20.023-4.396-6.326-14.164-16.093-22.372-13.862"/></clipPath><linearGradient id="b" gradientTransform="matrix(-16.334 -13.96 -13.96 16.334 463.14 790.06)" gradientUnits="userSpaceOnUse"><stop offset="0" stop-color="#75d2f2"/><stop offset=".31604" stop-color="#00adef"/><stop offset=".34949" stop-color="#00adef"/><stop offset="1" stop-color="#2c3792"/></linearGradient><clipPath id="c"><path d="m444.2 792.53c-3.695 0-7.171-.694-9.145-2.822-6.357-6.841 4.945-14.522 4.945-14.522s-5.575 5.48-.196 9.28c4.178 2.949 14.134.525 14.159.456 1.837 1.307 4.869 5.164 4.869 5.164s-7.7 2.444-14.631 2.444z"/></clipPath><linearGradient id="d" gradientTransform="matrix(25.717 0 0 -25.717 433.12 783.86)" gradientUnits="userSpaceOnUse"><stop offset="0" stop-color="#b3e18a"/><stop offset=".35773" stop-color="#78cb40"/><stop offset=".37" stop-color="#78cb40"/><stop offset=".52206" stop-color="#78cb40"/><stop offset=".94811" stop-color="#488b44"/><stop offset="1" stop-color="#488b44"/></linearGradient><clipPath id="e"><path d="m469.82 804.4c-5.566-3.534-7.547-14.336-7.547-14.336s.861 2.72 3.823 5.894c4.288 4.597 16.209 7.219 19.12 3.088 0 0-.637 2.997-2.926 4.85-1.826 1.478-4.172 2.071-6.43 2.071-2.328 0-4.563-.63-6.04-1.567"/></clipPath><linearGradient id="f" gradientTransform="matrix(-22.943 .000002 .000002 22.943 485.22 798.02)" gradientUnits="userSpaceOnUse"><stop offset="0" stop-color="#f57cc1"/><stop offset=".37" stop-color="#ec008c"/><stop offset=".53571" stop-color="#ec008c"/><stop offset="1" stop-color="#9c0054"/></linearGradient><clipPath id="g"><path d="m484.12 794.33s-7.96-6.141-22.267-5.58c0 0-.691-2.909-1.659-5.695.303-.219 20.723-2.084 28.737 6.297 0 0 5.499 5.767-3.779 12.432 0 0 3.324-4.115-1.032-7.454"/></clipPath><linearGradient id="h" gradientTransform="matrix(9.3831 20.608 20.608 -9.3831 471.29 779.72)" gradientUnits="userSpaceOnUse"><stop offset="0" stop-color="#f0845b"/><stop offset=".16338" stop-color="#f0845b"/><stop offset=".39999" stop-color="#f1511b"/><stop offset=".54789" stop-color="#f1511b"/><stop offset=".96226" stop-color="#cb2833"/><stop offset="1" stop-color="#cb2833"/></linearGradient><g transform="matrix(1.3333 0 0 -1.3333 -577.520452 825.684024)"><path d="m579.26 561.55c1.7014-3.4939-1.9764-7.9948-11.055-6.4808-.23388 7.0182 8.9428 10.819 11.055 6.4808m7.8912-14.049c-11.551-6.8254-17.598-1.9192-18.632 1.8728 22.583-4.3438 28.31 20.39 7.1771 20.346-4.1688-.009-17.355-2.6477-17.795-16.886-.61773-19.808 24.19-18.943 31.506-10.137z" fill="#2c3792"/><path d="m506.98 547.72c-4.3188-4.0295-12.281-3.3922-12.281 5.6506 0 7.727 7.4146 10.808 12.281 8.8268zm13.679-3.576c-1.3033-.50882-3.6778-1.0176-3.6778 2.7173v20.26c-12.622 5.8863-31.904 2.2531-31.904-15.959 0-7.7538 4.8329-14.488 12.585-14.488 5.1454 0 8.1805 2.8423 9.9301 5.4114.91052-2.6869 2.9422-5.4114 6.8236-5.4114 4.3973 0 7.6574 3.1119 7.6574 3.1119z" fill="#2c3792"/><path d="m642.33 553.46 14.001 13.224c-2.3281 4.7508-6.038 2.4888-7.4913 1.1087l-12.326-12.085v12.967c-1.7996 1.3944-6.0362 1.439-6.0362-2.3852v-29.117h6.0362v13.19c4.8847-2.5316 10.723-7.868 14.12-13.19h7.0039c-2.578 5.356-9.6087 12.469-15.308 16.288" fill="#00adef"/><path d="m626.13 552.21v16.466c-1.7996 1.3944-6.038 1.439-6.038-2.3852v-15.115c0-4.4544-2.1942-8.8303-8.2233-8.8303-6.0273 0-8.2251 4.3759-8.2251 8.8303v17.5c-1.7978 1.3944-6.0362 1.439-6.0362-2.3852v-14.081c0-5.7578 1.6943-15.536 14.261-15.536 12.569 0 14.261 9.7783 14.261 15.536" fill="#00adef"/><path d="m544.23 547.72c-4.317-4.0295-12.281-3.3922-12.281 5.6506 0 7.9519 7.4163 10.808 12.281 8.8268zm-21.901 3.4422c0-7.7538 4.8312-14.488 12.585-14.488 4.5526 0 7.7073 2.4066 9.3177 4.6598v-3.2583c0-4.7419-3.2779-14.893-18.011-7.136l-2.212-5.04c5.1329-5.34 12.344-4.9365 12.344-4.9365 11.999 0 17.877 9.0517 17.877 16.988 0 1.1141.002 29.171.002 29.171-12.621 5.8863-31.902 1.8496-31.902-15.959" fill="#2c3792"/></g><g clip-path="url(#a)" transform="matrix(2.3805 0 0 -2.3805 -1031.030452 1918.604024)"><path d="m439.17 778.06s5.726-8.933 12.188-6.161c6.46 2.772 9.682 17.434 10.184 20.023-4.396-6.326-14.164-16.093-22.372-13.862" fill="url(#b)"/></g><g clip-path="url(#c)" transform="matrix(2.3805 0 0 -2.3805 -1031.030452 1918.604024)"><path d="m444.2 792.53c-3.695 0-7.171-.694-9.145-2.822-6.357-6.841 4.945-14.522 4.945-14.522s-5.575 5.48-.196 9.28c4.178 2.949 14.134.525 14.159.456 1.837 1.307 4.869 5.164 4.869 5.164s-7.7 2.444-14.631 2.444z" fill="url(#d)"/></g><g clip-path="url(#e)" transform="matrix(2.3805 0 0 -2.3805 -1031.030452 1918.604024)"><path d="m469.82 804.4c-5.566-3.534-7.547-14.336-7.547-14.336s.861 2.72 3.823 5.894c4.288 4.597 16.209 7.219 19.12 3.088 0 0-.637 2.997-2.926 4.85-1.826 1.478-4.172 2.071-6.43 2.071-2.328 0-4.563-.63-6.04-1.567" fill="url(#f)"/></g><g clip-path="url(#g)" transform="matrix(2.3805 0 0 -2.3805 -1031.030452 1918.604024)"><path d="m484.12 794.33s-7.96-6.141-22.267-5.58c0 0-.691-2.909-1.659-5.695.303-.219 20.723-2.084 28.737 6.297 0 0 5.499 5.767-3.779 12.432 0 0 3.324-4.115-1.032-7.454" fill="url(#h)"/></g></svg>