<svg viewBox="0 0 120.47 127.56" xmlns="http://www.w3.org/2000/svg"><path d="m120.47 60.14c0 36.85-31.54 67.42-63.9 67.42 0 0 3.72-9.78 3.67-9.78-33.24 0-60.24-24.43-60.24-57.64a60.24 60.24 0 0 1 120.47 0" fill="#004b88"/><g fill="#fff"><path d="m92.78 80a7.9 7.9 0 0 0 1.93-.68v-2.68a10.75 10.75 0 0 1 -2.13.76 9.41 9.41 0 0 1 -2.16.24 3.06 3.06 0 0 1 -2.29-.83 3.31 3.31 0 0 1 -.88-2.3h8.18v-1.68a5.78 5.78 0 0 0 -1.5-4.23 5.57 5.57 0 0 0 -4.18-1.53 5.69 5.69 0 0 0 -4.41 1.74 7 7 0 0 0 -1.59 4.92 6.4 6.4 0 0 0 1.72 4.79 6.54 6.54 0 0 0 4.79 1.69 12.1 12.1 0 0 0 2.52-.21m-1.26-9.76a2.9 2.9 0 0 1 .67 2h-4.86a3.18 3.18 0 0 1 .72-2 2.17 2.17 0 0 1 1.72-.7 2.25 2.25 0 0 1 1.75.7m-11.17 9.76a5.86 5.86 0 0 0 1.7-.74v-3a6.5 6.5 0 0 1 -1.7.83 6.13 6.13 0 0 1 -1.85.27q-2.7 0-2.7-3.72t2.7-3.83a5 5 0 0 1 1.41.21c.46.14 1 .32 1.52.54l1-2.68a8.88 8.88 0 0 0 -4-.86 6 6 0 0 0 -4.62 1.71 6.92 6.92 0 0 0 -1.61 4.93q0 6.51 5.92 6.5a9.92 9.92 0 0 0 2.16-.2m-10.4-12.65h-3.46v12.69h3.46zm-1.72-1.58a2 2 0 0 0 1.41-.45 1.65 1.65 0 0 0 .43-1.28c0-1.13-.63-1.69-1.88-1.69s-1.88.56-1.88 1.69.62 1.7 1.88 1.7m-7.88 14.3 4.83-12.68h-3.61l-2.46 7.21a11 11 0 0 0 -.51 2.6h-.07a13.09 13.09 0 0 0 -.51-2.6l-2.43-7.23h-3.62l4.83 12.7zm-17.41-3.48a5 5 0 0 1 -.65-2.81 5.23 5.23 0 0 1 .64-2.85 2 2 0 0 1 1.8-1 2.33 2.33 0 0 1 2 .89 5.14 5.14 0 0 1 .63 2.92v.38a4.47 4.47 0 0 1 -.67 2.62 2.37 2.37 0 0 1 -1.95.77 2.11 2.11 0 0 1 -1.84-.94m4.23 1.82h.14l.71 1.68h2.65v-17.66h-3.46v4.06a14.47 14.47 0 0 0 .25 2.53h-.11a4.13 4.13 0 0 0 -3.65-1.86 4.23 4.23 0 0 0 -3.55 1.74 8 8 0 0 0 -1.3 4.86 8 8 0 0 0 1.3 4.81 4.13 4.13 0 0 0 3.51 1.73 4 4 0 0 0 3.6-1.87m-13.73-3.19a2.43 2.43 0 0 1 -.72 1.85 2.66 2.66 0 0 1 -1.92.69c-1.12 0-1.68-.49-1.68-1.46a1.71 1.71 0 0 1 .73-1.52 4.34 4.34 0 0 1 2.21-.55h1.34v1zm3.43 4.85v-8.46a4.1 4.1 0 0 0 -1.36-3.38 6 6 0 0 0 -3.91-1.11 10.35 10.35 0 0 0 -4.85 1.14l1.14 2.34a8.88 8.88 0 0 1 3.58-.92 1.72 1.72 0 0 1 2 1.93v.55l-2.2.07a8.19 8.19 0 0 0 -4.26 1.06 3.35 3.35 0 0 0 -1.41 3 4 4 0 0 0 1 3 3.93 3.93 0 0 0 2.88 1 5.71 5.71 0 0 0 2.41-.43 5.1 5.1 0 0 0 1.79-1.52h.09l.69 1.73z"/><path d="m101.58 50.85a3.31 3.31 0 0 0 -1-1.2 9.82 9.82 0 0 0 -2.17-1.12 14.56 14.56 0 0 1 -2.16-1 1 1 0 0 1 -.5-.81c0-.55.52-.82 1.54-.82a5.46 5.46 0 0 1 1.69.26 16.9 16.9 0 0 1 1.78.67l1-2.5a10.47 10.47 0 0 0 -4.46-1 6.34 6.34 0 0 0 -3.71.93 3 3 0 0 0 -1.31 2.61 3.91 3.91 0 0 0 .31 1.66 3.22 3.22 0 0 0 1 1.2 10.22 10.22 0 0 0 2.15 1.13c.68.29 1.22.54 1.63.76a3.31 3.31 0 0 1 .86.57.91.91 0 0 1 .25.67c0 .72-.63 1.09-1.88 1.09a8.61 8.61 0 0 1 -2.13-.31 12 12 0 0 1 -2.17-.76v2.86a9.5 9.5 0 0 0 1.83.55 13 13 0 0 0 2.35.19 6.8 6.8 0 0 0 4.06-1 3.51 3.51 0 0 0 1.35-3 3.88 3.88 0 0 0 -.32-1.63m-11.57-2.85a4.82 4.82 0 0 0 -1.14-3.45 4.42 4.42 0 0 0 -3.36-1.19 5.51 5.51 0 0 0 -2.31.46 3.77 3.77 0 0 0 -1.59 1.39h-.19l-.46-1.62h-2.69v12.65h3.46v-6a6 6 0 0 1 .65-3.22 2.32 2.32 0 0 1 2.09-1 1.8 1.8 0 0 1 1.56.68 3.62 3.62 0 0 1 .49 2.06v7.41h3.49zm-16.7 8.27a8 8 0 0 0 1.94-.67v-2.71a10.75 10.75 0 0 1 -2.13.76 9.49 9.49 0 0 1 -2.17.24 3.05 3.05 0 0 1 -2.29-.83 3.34 3.34 0 0 1 -.87-2.3h8.17v-1.68a5.84 5.84 0 0 0 -1.49-4.23 6.5 6.5 0 0 0 -8.6.22 7.08 7.08 0 0 0 -1.63 4.93 6.4 6.4 0 0 0 1.77 4.78 6.52 6.52 0 0 0 4.78 1.69 12 12 0 0 0 2.52-.23m-1.3-9.76a2.88 2.88 0 0 1 .67 2h-4.85a3.23 3.23 0 0 1 .72-2 2.2 2.2 0 0 1 1.72-.7 2.27 2.27 0 0 1 1.74.7m-9 7.12h-6l5.72-7.79v-2.25h-9.42v2.64h5.52l-5.82 8v2h10zm-12-10h-3.48v12.64h3.48zm-1.75-1.6a2 2 0 0 0 1.42-.45 1.67 1.67 0 0 0 .47-1.26c0-1.12-.63-1.69-1.89-1.69s-1.88.57-1.88 1.69.63 1.71 1.88 1.71m-7.1 11.37a1.35 1.35 0 0 1 -.41-1.09v-6.12h3.55v-2.6h-3.55v-2.7h-2.21l-1 2.68-1.91 1.16v1.46h1.66v6.11a4.58 4.58 0 0 0 .94 3.15 3.91 3.91 0 0 0 3 1 7.84 7.84 0 0 0 3.17-.58v-2.53a7.34 7.34 0 0 1 -2.18.4 1.66 1.66 0 0 1 -1.09-.35m-7.41-9.8h-3.43v12.68h3.46zm-1.71-1.56a2 2 0 0 0 1.41-.45 1.67 1.67 0 0 0 .47-1.26c0-1.12-.63-1.69-1.88-1.69s-1.89.57-1.89 1.69.65 1.71 1.89 1.71m-5.89 14.26a5.71 5.71 0 0 0 1.7-.73v-3a6.88 6.88 0 0 1 -1.7.84 6.13 6.13 0 0 1 -1.85.27q-2.7 0-2.7-3.72c0-2.56.9-3.83 2.7-3.83a4.9 4.9 0 0 1 1.41.2c.47.14 1 .32 1.52.54l1-2.67a8.75 8.75 0 0 0 -3.95-.86 6.05 6.05 0 0 0 -4.6 1.7 7 7 0 0 0 -1.64 5q0 6.49 5.91 6.5a9.27 9.27 0 0 0 2.16-.21"/></g></svg>