<svg width="500" height="173" xmlns="http://www.w3.org/2000/svg">
  <path fill="#003f87" d="M0 163.317h3.855V-.001H0zm0 0"/>
  <path d="M96.138 27.138c.668 1.791 1.974 2.459 2.975 2.004-2.216-.273-.425-4.098-3.308-4.098-.152 0-.304 0-.456.03-.486-.515-1.032-.728-1.882-.728-1.214 0-3.309 1.184-3.309 3.613 0 5.221 6.071 5.707 6.071 10.321 0 1.366-1.001 2.186-2.155 2.186-1.032 0-1.852-1.154-2.702-2.945-.425-.85-1.305-2.003-2.246-3.248.304.212.607.334.91.334.335 0 .638-.09.85-.304a1.36 1.36 0 0 0 .365-.82v-.062c0-.394-.182-.85-.516-1.183-.304-.335-.76-.547-1.184-.547a1.053 1.053 0 0 0-.85.304 1.122 1.122 0 0 0-.334.82v.03c0 .213.031.365.091.547-1.305-1.7-2.52-3.37-2.52-4.31 0-.79.547-1.518 1.245-2.368.031 0 .243.121.243.121l.181-.182c.243-.273.76-.85 1.791-1.973l.304-.304-.637-.546c.152-.395.304-.82.425-1.275.213.85.637 1.366 1.245 1.214-.395-.88.395-2.034-.121-4.159.485.82 1.214 1.245 1.73 1.093-1.366-1.184.395-2.853-1.366-5.434.576.182.971.062 1.214-.213-1.609-.212-.88-2.276-3.673-3.005.699-.121 1.093-.516 1.002-.88-.76.516-1.397-1.002-3.825-.972-.152-.91-1.002-1.851-1.943-2.307.182.698 0 1.336-.182 1.852l-7.923-7.771c-.242-.212-.364-.274-.425-.212-.062.09-.062.242.091.394l6.8 8.53c-.516.182-1.002.395-1.548.577a.983.983 0 0 0-.577.91c-1.275.608-2.368 1.397-2.914 1.883-.425.395-.76.486-.395 1.336.152.334-.304 1.153.698.546.637-.395 2.094-1.184 2.307-.668.121.243-.607.607-1.093.79-.486.181-1.032.576-.971.759.09.182.485-.031.516.182.03.242.182.425.364.425.212 0 .456-.395.637-.274.152.152-.09 1.063-.242 1.306.76-.091 1.245-.82 1.275-1.397.031-.576.182-.728.304-.79.121-.09.242.608.09 1.033.426-.09.82-.637.79-1.609.182-.182.395-.304.546-.304.274 0 .79.728 1.518.728 1.336 0 2.095-1.092 2.186-1.608.062-.426.03-.82-.212-1.124.485.395.637 1.002.637 1.427 0 1.913-3.37 2.823-4.736 4.159-.062.031-.121.09-.182.121l-1.578-.607-.091.365s-.031.062-.091.304c-.182.516-.516 1.67-.728 2.307l-.091.273.151.062c-.94 1.245-1.7 2.641-1.882 4.098a9.57 9.57 0 0 0-1.153-1.062.95.95 0 0 0 .09-.425c.032-.425-.09-.85-.364-1.123-.182-.213-.455-.365-.728-.365-.273-.03-.546.091-.76.274-.061.031-.09.09-.15.151-.063-.03-.092-.09-.152-.12-.547-.426-1.184-.881-1.579-1.336a.859.859 0 0 0-.667-.274h-.729c-.212 0-.364.182-.637.395-.121.121-.485.395-.88.728.182.182.364.395.577.607.09.121.181.212.303.364.091-.09.182-.181.274-.242.151-.121.364-.152.577-.152.212 0 .485.152.697.456.122.212 1.427 1.882 2.49 3.066-.122.03-.243.09-.365.121-.425.182-1.457.151-1.912.121-.456-.03-.547-.151-.85.334a7.016 7.016 0 0 1-.425.577c-.152.182-.273.395.062.941.455.79 1.609 2.884 2.003 3.825.395.94.85 1.093 1.579 1.396.728.304 2.003 1.002 2.155 1.184l.031-.728c-.212-.213-.91-.486-1.184-.577-.273-.09-.334-.212 0-.212.304 0 1.184.334 1.822.577-.182-.698-.85-1.488-1.275-1.913-.516-.151-1.063-.151-1.275.032.031.12-.091.334-.304.334s-.364-.182-.274-.395c.063-.212.365-.273.304-.668-.062-.425-.576-.485-.88-.516-.455-.637-1.002-1.608-1.214-2.003-.243-.365-.091-.607.062-.728.395-.304 1.184.151 2.793.272.576.032 1.275.063 2.003.091.213 1.882.972 3.674 3.552 4.311 1.275.304 2.61 1.245 3.066 2.459-5.221-.091-6.041 1.943-6.041 3.855 0 2.186 1.852 2.064 1.852 3.673 0 1.427-4.372 2.034-5.707 2.216-1.123.152-1.76.425-2.307.972-.516.516-1.063 1.032-2.034 2.003 0 0 .395.091.82.091l.728-.971c.213-.304.394-.577.516-.547.151.032.062.274-.122.607l-.607 1.032c2.58.152 2.732-.789 2.732-1.183 0-.395-.637-.668-.273-.911.395-.243.698-.062 1.002.273.273.334.395.637 1.093.364 0 0 5.585-2.307 6.283-2.64.638-.274.456-.547.091-.881-.425-.334-.485-.88-.485-1.488 0-1.67 1.001-2.216 2.823-2.185-.031.304-.031.576-.031.82 0 2.64 3.976 5.22 5.07 5.22.485 0 1.122-.334 1.153 1.245.03 1.184.273 2.004.062 3.34-.213 1.365-.607 1.578-1.397 2.124-.82.577-1.578 2.368-1.942 2.763.364.242.759.273 1.062-.607.243-.728.546-1.245.85-1.397-.334.79-.546 1.943-.698 2.307 1.032.152 2.672-.758 2.672-1.487 0-.728-.577-.668-.577-1.123 0-.243.273-.456.577-.456.394 0 .728.304.759.486.425-.273.728-.698.698-1.76 0-.395 0-.85-.031-1.275a.718.718 0 0 0 .09.151c.182.304.516.486.911.546.395.032.79-.09 1.123-.303.395-.274.698-.668.76-1.093.03-.091.03-.152.03-.243a1.14 1.14 0 0 0-.181-.637 1.121 1.121 0 0 0-.76-.486c-.394-.09-.88 0-1.274.274-.365.242-.638.607-.729.971-.09-1.426-.212-2.793-.151-3.339.062-.79.09-1.154-.182-1.275-.273-.121-.577.334-.971.334-.395 0-1.549-1.093-1.549-2.216 0-1.153 1.215-2.64 1.154-4.189 0-.486.304-.728.486-.304.242.546.576 1.275 1.123 1.852-.334 1.973 1.821 3.886 3.612 2.459-.88.121-1.487-.668-1.882-1.427.152.031.304.031.486.031h.273c.607.759 2.58.698 3.097-1.214-.334.395-1.032.698-1.579.637.76-.577 1.154-1.518 1.154-2.55 0-4.978-6.041-5.555-6.041-10.109 0-1.67 1.457-2.762 2.49-2.762.394 0 .697.121.94.304-.395.395-.607 1.002-.576 1.73.151 3.582 6.01 3.4 6.101 5.13.637-2.58-3.734-1.79-3.885-5.282M80.573 13.391c.304-.546 0-1.366 1.001-1.366.486 0 .911.486 1.488.667-.941.091-1.791.304-2.49.698M75.23 24.38c-.031.273-.121.546-.304.698-.09.09-.242.182-.395.151-.334-.03-.607-.394-.607-.85v-.09c.031-.273.122-.547.304-.698a.577.577 0 0 1 .395-.152c.182 0 .304.091.364.182.182.182.274.455.243.758m17.303 25.166c.031-.273.243-.577.516-.759.304-.181.607-.242.91-.181.122.03.305.09.426.242v.031c.121.152.09.365.09.486-.09.273-.273.546-.545.728-.516.334-1.093.304-1.336-.062-.121-.182-.091-.365-.062-.486m-3.643-16.696a.66.66 0 0 1 .182-.486.765.765 0 0 1 .485-.151c.274 0 .577.151.82.395.243.242.365.576.365.85-.032.12-.063.334-.213.455a.634.634 0 0 1-.455.182c-.304 0-.607-.152-.85-.395-.213-.273-.364-.577-.334-.85m-9.927-11.292c.274-.88.82-2.611.82-2.611l.91.364c-.273.091-.606.334-.88.607.213.091.577.121.82-.062l-.364.941c-.091-.151-.335-.486-.607-.546-.182.728.303 1.032.637 1.184.546.304.91.334 1.062.09.182-.334-.182-.758-.637-.576-.062-.486.212-.728.516-.728.274 0 .455.242.546.546-.062-.79.304-1.396 1.033-1.609.272.759.062 1.275-.516 1.822.303-.122.637-.122.759.09.182.274.121.638-.304.88-.09-.515-.668-.546-.85-.242-.152.335.09.638.607.911.607.365 1.093.152 1.396-.364-.181-.063-.546-.032-.85.181l.607-1.153c.031.151.122.455.395.667.091-.242.213-.697.031-1.123l1.336.76c-.456.062-.79.394-.941.606.304.091.607.063.76 0l-.7 1.093c.032-.364-.09-.698-.272-.82-.274.547-.213 1.033.364 1.397.516.304.91.365 1.123.062.182-.304-.151-.789-.637-.607 0-.485.274-.728.607-.728.243.031.425.304.486.637.182-.758.516-1.214 1.305-1.366.182.729-.182 1.336-.88 1.7.304-.09.607-.03.728.182.151.304.09.668-.365.85-.062-.516-.637-.607-.82-.304-.15.274.063.577.608.911.334.212.789.486 1.335-.062-.182-.213-.607-.274-.759-.274l.607-.758c-.031.304.182.607.364.758.091-.394.152-.789.122-1.092l.759.637s-1.245 1.335-1.852 2.003zm8.197 20.672c-.335.456-.911.637-1.275.365-.365-.243-.395-.85-.063-1.306.335-.455.88-.637 1.245-.394.395.273.425.88.09 1.335m2.369-3.764c-.334.455-.88.607-1.245.365-.395-.274-.395-.85-.09-1.336.333-.456.91-.637 1.274-.365.365.273.395.85.062 1.336m-14.698-9.262c-.303.122-.546.334-.667.607-.334.638.062 1.488.85 1.852.425.213.91.243 1.305.091.334-.09.576-.304.698-.576.121-.273.121-.607.029-.911-.152-.395-.455-.728-.911-.941a1.787 1.787 0 0 0-1.305-.121m.425 2.003c-.547-.273-.82-.79-.638-1.184a.618.618 0 0 1 .395-.303c.273-.122.607-.091.91.062.304.151.547.394.638.667.029.122.062.334 0 .516a.973.973 0 0 1-.395.334 1.205 1.205 0 0 1-.91-.09m9.503 14.387a1.75 1.75 0 0 0-.486 1.214v.03c0 .485.152.91.456 1.213.212.243.515.365.82.365.303 0 .576-.122.819-.334.303-.304.485-.728.516-1.214 0-.425-.122-.79-.334-1.093-.243-.334-.577-.516-.941-.516-.304 0-.607.121-.85.334m.789 2.307a.646.646 0 0 1-.455-.213c-.213-.212-.304-.516-.304-.85 0-.364.121-.667.334-.85.09-.12.273-.212.486-.212.424 0 .759.486.728 1.093 0 .334-.122.637-.334.85a.634.634 0 0 1-.455.182m-9.562-27.38c-.637.485-.82 1.305-.425 1.82.395.517 1.245.547 1.882.063.334-.273.577-.637.607-1.032.029-.273-.029-.576-.213-.79-.151-.242-.425-.363-.697-.394a1.486 1.486 0 0 0-1.154.334m-.121 1.184c0-.273.151-.576.425-.79.242-.181.515-.273.759-.242.121.03.273.063.394.213a.466.466 0 0 1 .091.424 1.076 1.076 0 0 1-.424.698c-.395.304-.911.304-1.154.03a.6.6 0 0 1-.091-.335m11.292 27.26a1.194 1.194 0 0 0-.516.76c-.062.364.03.728.304 1.001.273.304.607.486 1.032.547.395.09.82.029 1.123-.152.364-.182.607-.486.668-.85.12-.698-.486-1.396-1.336-1.548-.455-.091-.941 0-1.275.242m.91 1.822c-.576-.122-1.001-.546-.91-.972.029-.212.182-.334.273-.425.243-.151.577-.212.91-.151.517.09.912.485.912.85v.09c-.091.426-.607.7-1.184.608m6.648-3.673c0 1.123.91 2.003 2.034 2.003 1.123 0 2.033-.88 2.033-2.003a2.034 2.034 0 0 0-4.067 0m.516 0c0-.85.667-1.518 1.517-1.518.82 0 1.488.667 1.488 1.518a1.49 1.49 0 0 1-1.488 1.487c-.85 0-1.517-.667-1.517-1.487M48.722 35.517c.182-.516-.728-1.093-.85-1.791-.091-.729 0-1.427-.82-2.368-.82-.972-3.643-3.977-4.493-4.918.213-.03.729-.152 1.245.364.304.274.91.85 1.457 1.397.759-1.913 1.67-3.31 3.005-4.797.152-.181.334-.394.486-.546-.455.121-1.214.243-1.64.546-.062-.82.03-1.487-.545-2.034.212-1.153.029-2.55-2.55-4.25 1.305.304 2.094 1.518 3.096.577-.88 0-.91-2.004-4.19-3.643 1.246-.029 2.217 2.004 3.674.85-1.366-.151-1.821-2.61-4.28-3.339.85.09 1.73.485 2.459-.486-.85.182-1.366-.606-2.277-.667.334-1.063.273-1.73-.09-2.52-.669.063-1.306.243-1.792.638-.062-.577-.698-.638-1.245-.577.063.243.182.607-.12.668-.426.09-1.913.485-3.037.91-1.123.456-2.428 1.245-2.792 1.518-.243.152-.425-.213-.577-.394-.394.334-.789.789-.485 1.244-.637.03-1.336.213-1.913.668 0 .728.607 1.426 1.488 1.851-1.518 1.488-.121 2.884-1.457 4.22 1.882.062 1.548-2.55 2.489-2.914-.091 1.852-1.123 2.155-1.123 4.159 0 1.062.637 2.216.062 2.914 1.579-.425 1.184-3.916 2.155-4.979.182.607.063 1.184-.12 1.791-.577 1.64.062 3.856-.82 4.584 1.608-.182 1.82-2.762 3.126-3.703-1.123 2.337-2.307 7.285-4.007 9.744-2.732 3.704-4.34 8.227-6.86 8.227-1.124 0-1.943-.668-1.943-2.095 0-4.189 7.194-7.103 7.194-11.566 0-2.003-1.609-2.762-2.64-2.762-.668 0-1.488.334-2.217.91a2.115 2.115 0 0 0-.82-.181c-2.55 0-1.881 4.584-4.097 4.523.88.516 2.398-.455 3.278-1.73-.364 2.975-4.644 2.185-4.31 5.737.606-2.793 7.406-2.368 7.406-6.618 0-.485-.242-.88-.576-1.184.516-.334 1.002-.455 1.427-.455.82 0 1.578.607 1.578 1.791 0 3.764-7.194 6.921-7.194 11.536 0 .789.242 1.457.607 1.942-.486.213-1.032.122-1.457-.394-.03 1.184 1.67 1.943 2.732 1.335.242.091.485.152.728.182-.304.85-1.397 1.123-1.973 1.093 1.76 1.366 4.826-.425 4.644-2.003 1.397-1.124 2.277-3.036 3.31-4.311-.092.304-.122.576-.183.85-1.032 1.882-1.973 3.552-2.246 6.04-.212 2.035-1.275 3.917-2.732 3.917-.304 0-.82-.425-1.093-.212-.425.394 0 .789 0 1.184 0 .576-1.123 1.153-1.123 2.974 0 .82.455 1.792.273 2.338.455-.242 1.093-1.032 1.336-2.034.485 2.398-1.032 2.307.062 4.432.152-.698.85-1.002 1.275-.698.425.273.243.486-.09.79-.304.333-.608 1.912.85 1.82-.274-.181-.305-.606.424-.758 1.002-.181 1.275.273 2.337.273.668 0 .85-.85 1.367-.85.515 0 .515.395.334.698.85-.242 1.001-.667 1.001-1.153s-.394-.759-.09-.972c.303-.151 1.274.03.88.82.516-.091.789-.455.789-1.063 0-.607-.698-.971-1.366-.85-.121-.394-.668-.576-1.214-.576-1.154 0-.972.91-1.791.91-1.275 0-2.55-1.67-2.55-4.492 0-1.518 1.639-1.913 2.793-2.398 1.153-.516 3.187-1.76 4.401-3.795.941-1.578.972-3.34.85-5.403 1.61.94 1.822 2.276 1.822 3.248 0 1.275-.668 1.79-1.184 2.003-.455.213-.577.152-.638.395-.062.334.152.516.365.607.576.304.455.88.637 1.487.151.607.699 1.549 1.609 2.247.09-.365.062-.972 0-1.76 1.275.636.242 3.126 2.671 3.126-.425-.243-.303-.91-.062-1.002.273-.09.576.152 1.062.82.455.667.334.607 1.488.607 1.153 0 .637-.395 1.244-.395s.546.698.213 1.214c1.032-.303 1.336-1.093 1.002-1.882.91-.485 1.366.182 1.518.668.88-.88 0-1.943-.698-2.034.029-.304-.274-.668-.668-.698-.364-.03-.728-.03-1.153-.03-.395.03-.638.638-1.124.638-1.517 0-4.553-2.762-4.553-3.946 0-1.184 2.884-1.913 2.884-3.764 0-2.429-2.368-3.248-4.372-4.797.698-.789 2.793-1.001 3.977-.394.121-.699.577-.516.728-1.67.425 1.002-.029 1.882.425 2.307.334-.485 1.184-.394 1.123-1.67.274.79-.333 2.004.274 2.52.09-.637.485-.758.728-.758.242 0 .455.182.455.546 0 .971-1.184.516-1.184 1.609 0 .455.577.637.577.91 0 .304-.486.759-1.032.395.181.395.546.79 1.062.79s1.093-.426 1.305-.972c.274.667.063 1.457-.424 1.548.515.273 1.76.03 1.639-1.579.698.122 1.062.607.637 1.458.576-.152 1.123-.425 1.123-1.063 0-.455-.516-.607-.303-1.214m-13.63-21.796c-.668.062-.638-.576-1.792-.85.82-.182 1.852-.576 2.763-.941.182.76-.121 1.7-.972 1.791m4.675 4.918c-.85.364-1.517-.365-1.67-.88-.181-.516-.303-.911-.12-1.124.364-.364.485-.637.272-1.093-.242-.515-.82-.272-1.396-.12.273-.486.304-.85-.091-.79-.455.029-.455.758-.699.667-.242-.062-.12-.485-.12-.728.028-.303.211-.394.515-.546l2.459-.94c.304-.092.546-.152.76.061.15.152.545.365.424.607-.121.213-.637-.272-1.002-.029-.303.243-.029.486.516.638-.516.303-1.093.515-.91 1.092.151.456.424.577.94.577.274 0 .486.425.698.88.243.486.304 1.336-.576 1.73m.121-6.8c-.637.486-1.518.03-1.912-.637.91-.394 1.942-.789 2.64-1.244-.637 1.001-.181 1.457-.727 1.882m-1.49-6.228c.181.274.273.395.273.638-.121-.062-.304-.212-.486-.456l.091 1.093c.122-.182.243-.304.395-.395-.031.728-.334 1.032-.577 1.063a.462.462 0 0 1-.546-.365c-.062-.304.212-.516.486-.242.062-.637-.456-.637-.698-.365.274-.637.152-1.062-.395-1.396-.364.607-.212 1.002.243 1.457-.456-.242-.82.121-.456.607.091-.425.456-.304.547.031.062.274-.213.637-.668.79-.667.212-.91-.213-1.062-.607.151-.091.485-.063.88.212l-.334-1.093c-.152.395-.365.546-.637.667-.032-.303.212-.94.212-.94l-1.306.515s.607.304.82.547c-.274.09-.546.151-.941-.031l.516 1.001c.121-.455.334-.728.516-.758.121.395.274.85-.334 1.153-.456.243-.91.182-1.063-.09-.151-.304.031-.608.395-.365-.062-.637-.607-.637-.758-.152 0-.637-.152-1.032-.82-1.214-.182.637.031 1.032.668 1.305-.335-.062-.729.304-.243.729 0-.395.334-.425.516-.182.121.212.121.516-.151.667-.213.122-.607.122-1.124-.364.152-.062.304-.031.547 0l-.698-.85c.031.304.031.516-.031.667-.152-.181-.212-.303-.273-.637l-.516.456c.486.303 1.062.789 1.76 1.76.729-.455 2.065-1.093 2.885-1.426.789-.335 2.185-.79 3.035-1.002-.182-1.154-.09-1.913.062-2.46zm-5.434-1.487.395.82.455-.547h.062c.031.274.062.76.062 1.032 0 .335.274.607.607.607a.609.609 0 0 0 .607-.607c0-.242-.151-.425-.334-.546-.242-.151-.486-.395-.668-.607.032-.031.032-.031.032-.062l.789.062-.304-.85-.577.516c-.03 0-.03-.03-.062-.03l-.03-.85-.82.303.546.637c-.031.031-.031.062-.031.062zm3.005.668a.477.477 0 0 0 0-.668.477.477 0 0 0-.667 0 .477.477 0 0 0 0 .668.477.477 0 0 0 .667 0m1.063-.79a.477.477 0 0 0 0-.667.477.477 0 0 0-.668 0c-.182.182-.182.455 0 .668a.477.477 0 0 0 .668 0m1.244.182c.182-.182.182-.486 0-.637a.43.43 0 0 0-.667 0c-.182.151-.182.455 0 .637a.477.477 0 0 0 .667 0m.091 1.001c.212.182.486.182.668 0 .182-.181.182-.485 0-.637a.453.453 0 0 0-.668-.03.477.477 0 0 0 0 .667m-5.312.88a.467.467 0 0 0 .455-.455c0-.273-.213-.485-.455-.485a.48.48 0 0 0-.486.485c0 .243.213.456.486.456m-1.275.09a.48.48 0 0 0 .486-.485c0-.242-.213-.455-.486-.455a.467.467 0 0 0-.455.455c0 .274.212.486.455.486m-.243.546a.499.499 0 0 0-.485-.485c-.274 0-.456.242-.456.485s.182.455.456.455c.273 0 .485-.212.485-.455m.152 1.245c0-.243-.212-.455-.486-.455a.467.467 0 0 0-.455.455c0 .273.212.485.455.485a.479.479 0 0 0 .486-.485M63.111 41.74c0 .062.062.09.121.12.758.214 1.609-.363 2.064-.242-.576-.212-.971.152-1.518.03.334 0 .668-.063.698-.152-.273.182-1.001-.121-1.305.09-.03 0-.03.03-.062.063-.212.03-.425.182-.425.334 0 .486 1.912.091 1.912.273 0 .121-.364.242-.88.242-.394 0-1.032-.242-1.882-.029.062-.151.243-.364.152-.455.09-.029.12-.09.151-.151-.062-.03-.121-.03-.151-.063.029-.029 0-.062-.03-.09l-.029-.092c-.029-.029-.09-.062-.181-.12-.063-.03-.122-.03-.152-.03-.03-.029-.09 0-.09 0-.063 0-.092 0-.122.062-.03-.029-.063-.062-.121-.062a.2.2 0 0 0 0 .182c-.063 0-.152.182-.213.151.03.063.063.091.063.091-.063.091-.063.213-.121.213.029.029.029.062.062.062-.03.151-.062.334-.03.485-.12-.12-.303-.424-.424-.485-.09-.062-.09-.121-.09-.212s.028-.182.028-.274c0-.029-.029-.062-.029-.09 0-.063-.09-.091-.151-.091.029 0 .062.029.062.09-.03.03-.03.03-.03.063-.028 0-.028.062 0 .09v.063c0 .03 0 0-.028 0 0-.062-.03-.182-.091-.182h-.062c0-.09-.063-.12-.152-.062l.062.03c0 .028-.029.062-.029.09 0 .062.063.09.152.09.029.03.029.03.029.063h-.03c-.12-.062-.181 0-.181.063v.029c-.03.029-.062.09.03.151 0-.029 0-.062.028-.062l.03-.03.028.03c0 .029.03 0 .063 0 .029 0 .029-.03.029 0h.03c.028.029.028.029 0 .029-.063.09-.063.152.061.182v.029c0 .152-.212.121-.181-.03-.122.183.09.305.212.213.029 0 .029 0 .029.03 0 .028.029.028.062.028 0 0 0-.029.03-.029v.03c0 .028.028.09.09.09-.029-.029 0-.062 0-.062.03 0 0 .242.243.364.029.121.121.213.242.182.063.121.121.182.091.182-.029 0-.304 0-.364.029a.597.597 0 0 1-.243.062l-.029.03s.03 0 .03-.03c-.092.03-.152.03-.182-.029-.03-.029-.03-.062-.063-.121-.029-.03-.062-.063-.09-.063h-.063c-.03-.062-.121-.062-.182-.029.062 0 .09.03.121.063-.029.029-.029.062-.029.062-.029.03 0 .091.152.152 0 0 .029 0 0 0-.03.029-.063.029-.091 0-.063-.063-.063-.122-.152-.063h-.058c-.062 0-.182.091-.121.182 0-.029.029-.062.09-.09v.062c.03.09.063.151.213.029.029 0 .029 0 .029.029-.062.062-.152.121-.062.182l.029.029c-.03.121.09.182.12.182 0-.03-.062-.091-.028-.152 0 0 .029.03.029 0 .09-.029.062-.121.09-.151h.03c0 .062.029.151.121.151a.182.182 0 0 0 .121-.151c.03 0 .063.029.063.09 0 0 .062-.029.062-.062.03.03.03.091-.029.152.03 0 .121-.063.152-.152.029 0 .029.03.029.062v-.029c.029.03.12.03.212 0v.12s.029-.062.062-.062c.03 0 0 .09.063.152 0-.243.151-.152.303-.243 0 .03-.029.062-.062.09.062 0 .242-.09.242-.15 0-.063.091-.152.122-.425h.062c.212-.03.304-.182.516-.182-.063.062-.063.212-.063.303s.152.212.182.243v.029a.617.617 0 0 0-.151.029c-.182.121-.182-.242-.365-.152 0 0-.029 0-.029.03-.062 0-.182.062-.151.151.029-.029.062-.062.121-.062v.029c0 .029 0 .062.062.062.03 0 .03-.029.063-.029 0 0 .029 0 .029.03 0 .062-.212-.063-.182.15l.03.03c0 .062.028.121.12.09 0-.028-.062-.028-.029-.062h.03s.028 0 .028-.029h.03v.092c0 .062.09.151.181.062-.029 0-.09 0-.09-.029.029 0 .062-.03.062-.03v-.061h.087c.03.029.091.09.152.062.121-.03.029-.152.121-.152 0 0 .03-.029.062 0 .091 0 .152.03.182-.029.03-.029.03-.212-.09-.242-.03-.03.09-.425-.183-.577.122.03.547.091.638-.029.121.03.272.122.272.152.03.029.03.062 0 .09-.12.063-.09.092-.181.122-.03-.03-.062-.09-.091-.121h-.091c-.062 0-.152 0-.182.09.029-.028.062-.028.121-.028v.029c0 .029 0 .062.03.062v.03c-.092 0-.213-.03-.183.062 0 0 .03.029.03.062-.063.029-.063.09-.03.121 0-.029 0-.029.063-.062l.029.029c.062.029.121-.063.182-.03-.062.03-.122.092-.091.122 0 .03 0 .03.029.062-.03.03-.03.122.062.152 0-.03-.03-.062 0-.091.029 0 .062-.03.062-.03.12-.062.062-.15.09-.181.063-.03.122.09.213 0 0-.03.029-.062 0-.09 0-.03 0-.03.029-.03 0 .03.029.062.09.062-.09-.09 0-.12.03-.151 0-.03.029-.03.029-.03.029.03.09 0 .121-.062-.062 0-.182-.062-.091-.09.121-.063.151-.152.091-.213-.091-.12-.304-.12-.334-.273h.212c.637 0 1.063-.182 1.032-.395 0-.425-1.943.03-1.943-.272 0-.091.122-.182.274-.243m-1.427.091c.03 0 .151.062.212.062-.09.03-.062.063-.121.063-.063 0-.091-.091-.091-.121m-.121-.091c-.03.062-.091.09-.152.062-.029-.062.03-.062-.029-.151.03.029.152.09.182.09m-.212.456c.029-.03.029-.063.062-.063.03 0 .063-.029.063-.062.029-.03 0-.063-.063-.063.063-.029.063-.062.063-.062-.03-.029-.091 0-.091 0 0-.029.029-.029.029-.062h.062l.182.09.03.03c0 .029 0 .062-.03.062 0 0 0-.03-.029-.062-.03 0-.03.029 0 .062-.062 0-.09-.03-.121.03 0 .028 0 .062.029.09 0 0 0 .03-.03.062 0 .063-.062.122-.12.063-.063-.03-.063-.091-.03-.121m2.36-3.161c0 .062.062.09.121.121.76.212 1.61-.364 2.064-.213-.576-.212-.94.122-1.517.03.333 0 .667-.091.698-.182-.273.181-1.002-.091-1.305.09l-.03.03c-.424 0-.758 0-.758.272 0 .577 1.548.213 2.064.213.456 0 .425.063.425.152 0 .151-.576.182-.85.182-.425 0-1.7-.213-2.458-.063.062-.121.212-.304.12-.394.063-.03.122-.063.122-.152a.236.236 0 0 0-.152-.062c.03-.03 0-.063-.029-.091l-.029-.091a.47.47 0 0 0-.182-.121c-.09-.063-.151-.063-.181-.063l-.091.03c-.03-.03-.091-.03-.091.028-.063-.029-.091-.062-.152-.062-.029.062-.029.121 0 .213-.09 0-.151.182-.212.151 0 .063.03.091.062.091-.062.091-.09.212-.151.212.03.03.03.063.062.091-.029.063-.029.152-.029.212l-.062-.029h-.03c-.12 0-.15 0-.303-.09-.121-.063-.121-.122-.121-.243 0-.091.029-.182.029-.273 0-.03 0-.063-.03-.091-.028-.063-.09-.122-.15-.122.028.03.062.063.062.122-.03.029-.03.029-.03.062-.028 0-.062.062 0 .09v.06c0 .028-.028 0-.028 0-.03-.063-.063-.183-.122-.183h-.029c0-.09-.09-.151-.182-.062.03 0 .063.03.063.03v.09c0 .062.029.09.121.09.03 0 .03 0 .03.03v.03c-.152-.063-.183 0-.183.061 0 0-.029.03 0 .063-.062.029-.062.09.03.151 0-.029-.03-.062 0-.09h.028l.03.029c.029 0 .029 0 .09-.03h.03l.029.03c.029 0 0 0 0 .029-.091.09-.063.182.062.182v.029c0 .151-.213.121-.213-.03-.12.182.091.335.243.243h.029c0 .03.029.063.062.063 0 0 0-.03.03-.03.028.063.028.091.09.122 0-.03 0-.063.03-.063.029 0 0-.09.212.03.03.028.03.062.091.062h.121c0 .09.03.273 0 .273-.029 0-.273-.03-.334 0-.12.062-.364.181-.455.062-.029-.03-.029-.091-.062-.121 0-.063-.063-.091-.091-.091h-.063c-.029-.03-.12-.063-.181-.03.029.03.09.03.12.092-.028 0-.028.029-.028.062-.03.03-.03.09.151.121 0 .03.03.03 0 .03-.029.028-.062.028-.09 0-.063-.063-.063-.122-.152-.092 0 0-.03.03-.063.03-.09 0-.181.09-.151.181.029-.029.029-.062.09-.09 0 .029.03.062.03.062 0 .09.029.151.212.029h.03c-.063.09-.152.152-.063.213 0 0 0 .029.029.029v.029c-.03.09.09.182.121.151 0 0-.062-.062-.029-.12h.03c.09-.03.061-.152.12-.183v.03c.03.029.03.12.122.12.12 0 .151-.09.151-.15.03.028.062.062.062.12 0-.029.063-.062.063-.09.029.062.029.12-.03.181.03 0 .152-.062.152-.182.03.03.03.03.03.063h.21c.03-.03.03 0 .03 0v.121c0-.029.029-.062.062-.062 0 0 0 .09.03.151.028-.273.242-.182.424-.303 0 .029-.03.062-.062.09.151.122.334-.12.394-.242l.063-.062c0 .029 0 .062-.03.09.152 0 .122-.151.213-.12.485.028.12-.426.91-.304.091 0 .182-.03.212-.091-.062.121-.062.334.062.364.062 0 .152.03.182.09.03 0 0 0 0 0a.216.216 0 0 0-.151.063c-.182.091-.182-.272-.365-.212 0 0-.029.03-.062.03-.062 0-.181.09-.151.181.029-.029.062-.062.121-.062v.029c0 .029 0 .062.062.062.03 0 .062-.029.062-.029.03 0 .03 0 .03.03 0 .062-.214-.03-.183.15 0 0 .03.03.03.063 0 .063.061.121.151.091-.029-.03-.062-.062-.062-.09.029.028.062.028.062.028v-.062h.029s.029 0 .029.029l-.029.029s0 .062.029.062c-.029.063.091.152.182.091-.03-.029-.091-.029-.091-.062.029 0 .029-.03.062-.03v-.062c0-.029.029-.029.029-.029h.029c.029 0 .029 0 .062.03 0 .029.062.062.121.062.121-.063.03-.182.121-.182h.091c.091.03.243 0 .243-.03.029-.028.029-.212-.091-.272-.062-.03.029-.122-.03-.213a.633.633 0 0 0 .365.091c.242 0 .364-.029.516-.09.151-.092.303-.063.334-.063.029.03.062.03.029.09-.062.122-.03.152-.062.214-.062.062-.152 0-.243 0-.029 0-.09.029-.09.029-.063.029-.152.09-.152.151 0 0 .062-.062.12-.062v.029c-.028.09.063.121.152.062h.03c-.092.063-.213.152-.122.182l.03.03c-.03.062 0 .12.061.12 0-.029 0-.062.03-.12h.061c.062 0 .062-.122.121-.152 0 0 .03 0 0 0-.029.062-.062.151 0 .182h.03c.028.062.061.09.151.062 0 0-.062-.03-.062-.062l.062-.063c.091-.151-.029-.151-.029-.212.03-.062.152 0 .182-.151.029-.03.029-.091-.029-.091v-.03c.029 0 .091.03.121-.029-.121 0-.062-.09-.062-.12s0-.03.03-.063c.028 0 .061-.063.061-.121-.029.029-.151.09-.151 0 0 0 0-.091-.091-.063-.182 0-.425-.029-.76-.062-.029 0-.029 0 0 0 .334-.03 1.002-.091 1.002-.304 0-.182-.029-.304-.607-.304-.576 0-1.912.243-1.912-.09 0-.182.273-.152.576-.152m-1.912-.03c-.03.063-.091.092-.152.063-.029-.062.03-.062-.029-.182.03.063.152.122.182.122m.121.364c-.029 0 0-.062-.062-.062-.03 0 0 0 0 .062-.03-.03-.091-.03-.091 0-.03.03-.03.062 0 .09.029.03 0 .063 0 .092-.03.062-.063.09-.152.062-.062-.029-.062-.09-.029-.151.03-.03.03-.063.063-.063.029 0 .062 0 .09-.029 0-.062-.029-.062-.09-.09.062-.03.09-.03.062-.063-.03-.03-.09.029-.09 0 0-.03.028-.03.028-.063h.063l.181.091c.03.03.063.03.03.063 0 0 .029.062 0 .062m.12-.121c-.09-.03-.12-.121-.09-.182.029.03.151.091.213.091-.091.03-.063.09-.122.09m4.405-1.704c0-.029 0-.029.029-.029a.26.26 0 0 0 .062-.182c-.062.063-.182.121-.182.03 0-.03 0-.092-.121-.063-.182 0-.364-.03-.698-.063-.029 0-.029 0 0-.029.334 0 1.002-.062 1.002-.303 0-.182-.213-.304-.82-.304-.637 0-2.52.242-2.52-.121 0-.212.638-.121 1.124-.121 0 .062.062.09.121.09.79.243 1.7-.364 2.155-.212-.607-.212-1.002.152-1.609.03.365 0 .729-.091.76-.182-.274.181-1.032-.122-1.366.09-.03.03-.03.03-.062.03-.577 0-1.275-.063-1.275.273 0 .607 2.125.273 2.64.273.517 0 .638.03.638.152 0 .151-.516.182-.79.182-.485 0-2.489-.273-3.278-.03.03-.151.243-.333.122-.455.09-.029.151-.09.151-.151-.062-.03-.121-.063-.151-.063 0-.062-.03-.09-.03-.12-.029 0-.029-.092-.062-.092a.47.47 0 0 0-.182-.121c-.09-.062-.151-.062-.182-.062l-.09.029c-.063-.03-.122-.03-.122.029-.029-.03-.09-.063-.121-.063-.03.091-.062.122-.03.213-.062 0-.15.212-.211.181.029.063.029.063.062.091-.062.091-.09.212-.151.243.029.029.062.062.09.062v.182l-.12-.03h-.092c-.029 0-.062 0-.09-.028-.091 0-.182-.152-.335-.243-.12-.062-.12-.12-.12-.242 0-.121.028-.213.028-.304 0-.029 0-.09-.029-.121 0-.062-.121-.09-.151-.09.029.028.062.028.062.09-.029.03-.062.062-.062.09 0 0-.03.063 0 .092.029 0 .029 0 .029.029l-.03.029c0 .03 0 .03 0 0-.028-.062-.062-.182-.12-.182h-.063v-.029c0-.062-.09-.121-.182-.03.03 0 .063 0 .091.03-.029.03-.029.062-.029.09 0 .063.062.092.152.092v.029c.029 0 .029.029.029.029h-.03c-.12-.062-.181 0-.181.062v.063c-.063.029-.063.121.029.182 0-.03 0-.091.029-.091s.062.029.062.029.03 0 .063-.03h.062l.03.03c-.092.09-.092.182.028.212.03 0 .03.03.03.03 0 .18-.243.12-.213-.03-.151.182.091.334.243.242h.029c0 .03.029.063.062.063 0 0 0-.03.03-.03.029.063.029.122.09.122 0-.03 0-.062.03-.062.029 0 .151.242.394.394-.03-.029.09-.062.152-.09 0 .062.029.09.062.12l.062-.029c-.029.122.122.243.091.243-.029 0-.273-.03-.364 0-.09.062-.395.151-.455.062-.03-.062-.03-.09-.063-.151-.029-.03-.062-.063-.09-.063l-.063-.029a.269.269 0 0 0-.212 0c.062 0 .09 0 .121.063 0 .029-.029.062-.029.062-.03.03 0 .09.152.152.029 0 .029.029.029.029-.03.029-.063.029-.091 0-.091-.063-.091-.122-.182-.091 0 0-.03.029-.062.029-.091 0-.213.09-.152.182 0-.03.03-.091.09-.091 0 .029.03.029.03.062 0 .091.03.152.243.03-.03.09-.152.181-.063.242 0 0 .03 0 .03.029-.03.121.09.182.15.182a.236.236 0 0 1-.062-.152h.063c.09-.029.062-.121.09-.151.03-.03.03 0 .03 0 0 .029.029.151.121.12.121 0 .152-.09.152-.15.062.029.062.062.062.12.03 0 .062-.028.091-.09 0 .062 0 .121-.062.182.062 0 .151-.063.181-.182.03.029.03.062.03.062.062.03.12.03.212 0h.029v.121c0-.029.029-.062.062-.062.03 0 0 .09.063.182.029-.273.151-.182.334-.273.029-.03.029-.03.029 0l-.091.09c.062.03.303-.12.303-.212 0-.029.091-.029.182-.062.182.029.152-.121.212-.121 1.002.151.425-.425 1.61-.304.061 0 .09-.062.12-.091-.062.09-.062.334.062.364.062 0 .182.03.213.063v.029c-.062 0-.152.029-.182.029-.182.121-.182-.273-.365-.182-.029 0-.062.03-.062.03-.09 0-.181.09-.151.181 0-.029.062-.062.121-.09v.062c0 .029 0 .062.062.062.03 0 .062-.03.062-.03.03 0 .03 0 .03.03 0 .062-.243-.03-.183.152l.03.062c0 .062.028.121.15.09-.028 0-.061-.028-.061-.062h.062l.029-.029s0-.029 0 0h.029l-.03.03c0 .029.03.062.03.09 0 .063.09.152.182.063 0 0-.091 0-.091-.063h.062v-.09h.091c.029-.03.029 0 .029 0 .029.029.09.09.151.062.121-.03.03-.152.121-.182h.091c.091.03.243.03.274-.03.029-.028 0-.211-.091-.272-.062-.029 0-.121-.062-.213.09.03.212.091.364.091.304 0 .395-.062.516-.121.151-.09.303-.03.334-.03.029 0 .062 0 .062.063-.062.152 0 .152-.03.243-.028.029-.15 0-.242 0-.029 0-.09.029-.09.029-.063 0-.152.062-.152.151.029-.029.062-.062.121-.062v.029c0 .09.121.121.182.062 0 0 .029 0 0 .03-.03.029-.152.12-.062.151l.029.03c0 .062.029.12.09.15-.028-.028-.028-.062 0-.12h.063c.062 0 .029-.122.121-.182-.029.09-.029.181.03.181 0 0 0 .03.028.03.03.062.091.09.182.062l-.09-.09c.028 0 .061-.03.061-.063.062-.152-.062-.152-.062-.213 0-.062.152-.03.152-.182 0 0 0-.062-.062-.062v-.03c.062 0 .09.03.12-.029-.12 0-.061-.09-.09-.151m-4.402-1.154c.03.03.182.091.243.091-.122.03-.091.063-.152.063-.09 0-.09-.091-.09-.152m-.152-.09c-.03.062-.091.12-.152.062-.062-.063 0-.063-.062-.152.062.03.182.09.212.09m-.212.517c0-.03.029-.091.062-.091.03.029.063 0 .063-.03.029-.062-.03-.09-.063-.09.03-.03.063-.063.03-.063-.03-.029-.063 0-.063 0-.03-.029.029-.029.029-.062h.062l.182.091c.03 0 .063.03.063.062 0 0 0 .063-.03.063 0 0 0-.063-.029-.063-.029-.029-.029 0-.029.063-.029-.03-.09-.03-.09 0-.03.062-.03.062 0 .09v.122c-.03.029-.092.09-.152.062-.063-.029-.063-.12-.03-.151m-.181-.274zm-3.752-3.734c0-.181-.182-.303-.79-.303-.637 0-2.52.242-2.52-.121 0-.213.638-.122 1.124-.122 0 .063.062.091.121.091.79.243 1.61-.303 2.186-.09-.455-.426-1.032.028-1.609-.092.334 0 .698-.09.728-.181-.273.181-1.032-.122-1.366.09-.029 0-.029.03-.062.063-.577-.03-1.275-.091-1.275.242 0 .607 2.125.273 2.64.273.517 0 .638.03.638.152 0 .12-.516.151-.82.151-.455 0-2.458-.242-3.278 0 .062-.151.242-.334.151-.455.091-.03.152-.09.152-.152-.062-.029-.121-.062-.152-.062.03-.03-.029-.09-.062-.121 0 0 0-.091-.03-.091a.47.47 0 0 0-.18-.121c-.092-.063-.152-.063-.183-.063-.029 0-.09.03-.09.03-.063-.03-.122-.03-.122.028-.029-.029-.09-.062-.121-.062-.063.062-.063.121-.03.212-.09.03-.15.182-.212.182 0 .062.03.062.062.062-.062.122-.09.243-.151.274l.062.062c0 .063-.029.121-.029.182l-.062-.029h-.182c-.121-.03-.182-.182-.334-.273-.121-.063-.121-.122-.121-.273 0-.091.029-.182.029-.273 0-.03-.03-.091-.03-.091a.182.182 0 0 0-.15-.122c.028.03.062.063.062.122-.03 0-.063.029-.063.029-.029.029-.029.09.03.12v.06c-.03.028-.03.028-.03 0-.029-.063-.062-.183-.121-.183h-.062V31.9c0-.062-.091-.121-.182-.029.029 0 .062 0 .09.03-.028.028-.028.062-.028.09 0 .062.062.091.151.091v.03l.03.028h-.03c-.121-.062-.182 0-.182.063v.062c-.062.03-.062.121.03.182 0-.03-.03-.091.028-.091v-.03c.03.03.063.03.063.063 0 0 .029 0 .062-.029.03-.03.03-.03.03 0h.062v.03c-.091.09-.091.181.029.212.029 0 .029 0 .029.03-.03.18-.243.15-.243-.03-.12.182.122.334.274.242h.029c0 .03.029.063.062.063 0 0 0-.03.03-.03v.03c0 .029.029.09.09.09 0-.028 0-.062.03-.062.029 0 .151.243.394.365.062 0 .121 0 .152-.063 0 .03 0 .03.029.063.029.12.09.242.062.242-.029 0-.425 0-.485.03-.122.062-.395.181-.486.062-.029-.063-.029-.091-.062-.152-.03-.03-.063-.062-.091-.062h-.063a.179.179 0 0 0-.212-.03c.063 0 .091 0 .121.063 0 .029-.029.062-.029.062-.029.03 0 .091.182.152v.029c-.029.03-.062.03-.09 0-.092-.062-.092-.152-.183-.09 0 0-.029 0-.029.028h-.029c-.09-.029-.212.091-.151.182 0-.03.029-.09.09-.09.03.028.03.062.03.062 0 .09.062.151.242.029v.029c-.029.062-.151.151-.062.212 0 0 .029 0 .029.03-.03.12.09.181.151.181a.236.236 0 0 1-.062-.151c.03 0 .062.029.062 0 .091-.03.063-.121.091-.152.03-.029.03 0 .03 0 0 .03.029.152.15.122.092 0 .152-.091.122-.152h.03c.028.03.062.062.028.121.03 0 .063-.029.091-.09 0 .062.03.12-.062.181.062 0 .151-.062.182-.182.029.03.029.063.029.091 0-.029 0-.029.029-.029.029.03.09.03.212 0v.121c.03 0 .03-.062.062-.062.03 0 0 .121.063.182.029-.274.334-.152.516-.243 0-.029.029-.029 0 0 0 .03-.03.063-.063.091a.32.32 0 0 0 .213-.09s0 .028-.03.028l.305-.12v-.092c.029 0 .062 0 .09-.029.182.03.152-.121.213-.09 1.002.12.425-.456 1.61-.335.062 0 .09-.029.12-.062-.062.121-.062.304.063.304.062.029.182.062.212.09v.03c-.063 0-.152.029-.182.029-.182.121-.182-.274-.364-.182-.03 0-.063.03-.063.03-.09 0-.181.09-.151.18 0-.028.062-.061.121-.09v.062c-.029.03 0 .063.062.063.03 0 .03-.03.091-.03v.03c0 .062-.242-.03-.181.151 0 0 0 .063.029.063 0 .062.029.121.151.09-.029 0-.062-.028-.062-.062h.062l.03-.029h.028c0 .03-.029.03-.029.063 0 0 .03.029.03.062 0 .062.09.151.181.062 0 0-.09 0-.09-.062h.062v-.09h.121c.029.061.09.09.15.061.122-.029.03-.151.122-.181h.091c.091.029.243.029.273-.03.03-.029 0-.212-.09-.303-.091-.03 0-.091-.063-.182.091.03.212.09.364.09.304 0 .365-.062.486-.12.151-.091.304-.063.334-.03.029 0 .062.03.062.063-.029.152.03.152-.029.212 0 .063-.151.03-.213 0-.062 0-.09.063-.09.063-.063 0-.152.09-.152.151.03 0 .09-.062.121-.062v.029c.03.09.121.121.182.062.03 0 .062 0 .03.03-.063.028-.152.12-.063.15 0 0 0 .03.029.03 0 .062.062.121.09.121 0-.029 0-.029.03-.09h.029c.062 0 .03-.122.09-.183h.03c-.03.091-.03.182.03.182 0 0 .028.03.061.03 0 .028.063.09.152.028-.03 0-.062-.029-.062-.062 0 0 .029-.03.029-.062.062-.152-.091-.152-.091-.213 0-.062.151-.029.151-.181 0-.03 0-.063-.062-.091.03 0 .091 0 .091-.03-.09 0-.062-.09-.09-.15 0-.03 0-.03.028-.03.03-.03.063-.09.03-.152-.03.03-.152.091-.152 0 0 0-.03-.09-.122-.062-.181.03-.333-.029-.667-.062.334-.03.971-.091.971-.334m-4.462-.486c.03.03.182.063.242.091-.12.03-.09.062-.151.062-.091 0-.091-.09-.091-.151m-.151-.091c-.03.062-.091.121-.152.062-.062-.062 0-.062-.062-.151.062.029.181.09.212.09m-.212.486c0-.029.029-.062.062-.062.03 0 .062 0 .062-.03.03-.062 0-.09-.062-.12.062 0 .062-.03.062-.03-.029-.029-.09 0-.09 0-.03-.029 0-.062.029-.062.029-.03.029-.03.062 0l.182.091c.029 0 .062.03.062.03 0 .028 0 .061-.029.09 0 0 0-.062-.062-.09v.09c-.03-.03-.091-.03-.091 0-.03.03-.03.062 0 .09v.092c-.03.062-.091.121-.152.09-.062-.062-.062-.12-.029-.181m5.15-2.732c0-.182-.242-.303-.88-.303-.637 0-2.064.242-2.064-.122 0-.181.273-.181.607-.151a.317.317 0 0 0 .151.09c.82.243 1.791-.211 2.307-.062-.607-.455-1.093 0-1.73-.12.364 0 .516-.122.516-.213-.273.182-.82-.09-1.154.121-.029 0-.062.03-.062.03-.455 0-.82 0-.82.303 0 .637 1.7.273 2.247.273.546 0 .667.03.667.152 0 .151-.546.182-.85.182-.455 0-1.882-.243-2.732-.063.063-.151.212-.334.152-.425a.2.2 0 0 0 .12-.181.236.236 0 0 0-.15-.063c.028-.029 0-.062-.063-.121 0 0 0-.09-.03-.09a.47.47 0 0 0-.181-.122c-.09-.063-.151-.063-.212-.063 0-.029-.091 0-.091 0-.062 0-.09 0-.121.063a.236.236 0 0 0-.152-.063c-.029.063-.029.122 0 .213-.09 0-.182.212-.242.181.029.063.062.091.062.091-.062.091-.09.243-.151.243.029.062.09.09.09.09v.243l-.151-.029h-.03l-.028-.029s.029 0 .029.03l-.063-.03c-.09-.062-.181-.182-.273-.243-.151-.09-.151-.151-.121-.272 0-.122.062-.213.062-.334-.029 0-.029-.063-.029-.091a.24.24 0 0 0-.182-.121c.03.029.063.062.063.12 0 .03-.03.063-.03.063-.028.03-.062.063 0 .121v.03l-.028.029c0 .029 0 .029 0 0-.03-.063-.063-.182-.122-.182-.029 0-.062-.03-.062 0v-.03c0-.09-.091-.15-.182-.028.03 0 .062 0 .091.029-.03 0-.03.062-.03.062-.028.091.03.121.122.121.03 0 .03 0 .03.03v.029c.028.029 0 0 0 0-.152-.063-.213 0-.213.09v.03c-.062.062-.062.12.03.181 0-.029 0-.09.028-.09h.03l.028.029s.03 0 .091-.03h.03l.029.03c.029 0 .029.029 0 .029-.091.09-.091.182.029.212.029 0 .029 0 .029.03-.03.181-.274.151-.243-.03-.12.213.091.365.273.243h.03c0 .062 0 .062.028.09 0-.028.03-.062.063-.062v.03c0 .062.029.09.09.12-.028-.028 0-.09.03-.09.029 0 .09.151.242.242.121.03.213.182.274.091 0 .122.12.274.09.274-.029 0-.364-.03-.455.029-.12.062-.425.151-.516.029-.029-.03 0-.091-.062-.152 0-.029-.062-.062-.09-.062h-.063a.179.179 0 0 0-.212-.03c.029 0 .09 0 .12.092l-.028.029c-.03.062 0 .121.182.182 0 0 .029.029 0 .029-.03 0-.063 0-.091-.03-.091-.028-.091-.12-.182-.09 0 .029-.03.029-.063.029-.09 0-.212.09-.181.213.029-.03.062-.091.12-.091 0 .029 0 .029.03.062 0 .091.029.152.242.03.03 0 .03 0 0 0-.029.09-.151.181-.062.242l.03.029v.029c-.03.09.09.182.15.182 0-.03-.062-.091-.028-.152h.029c.09-.029.062-.151.12-.182 0-.029 0 0 0 0 .03.063.03.152.152.152.122-.03.152-.121.152-.152v-.029c.062.03.09.063.062.121.03 0 .063-.029.091-.09a.19.19 0 0 1-.029.212c.03-.03.152-.063.152-.182.029 0 .029.029.062.062.03 0 .121 0 .213-.029.029 0 .029.03.029.03v.09s.029-.029.062-.029c.03 0 0 .091.063.152.029-.274.182-.152.364-.274.03-.029.03 0 0 0 0 .03-.03.091-.062.091.181.063.515-.242.546-.364.09-.03.151-.03.182-.03.576.063.181-.485 1.092-.333.063 0 .152-.063.213-.121-.063.12-.063.364.062.394.062 0 .152.063.213.091 0 .03 0 .03-.03.03-.062 0-.12.028-.15.028-.213.122-.213-.273-.395-.212-.03 0-.063.03-.063.063-.09 0-.212.09-.182.181a.416.416 0 0 1 .121-.09v.062c0 .029.03.062.091.062.03 0 .063-.029.063-.029.029 0 .029 0 .029.03 0 .062-.243-.063-.212.15 0 .03.029.063.062.092-.029.062.03.12.152.09-.03-.028-.063-.062-.063-.09h.063s.029 0 .029-.03c0 0 .029 0 .029.03 0 0-.03 0-.03.029l.03.062c0 .091.09.152.213.091a.22.22 0 0 1-.122-.062c.03 0 .063-.03.063-.03.029 0 .029-.028.029-.062 0-.029 0-.029.029-.029h.091c0 .062.063.121.152.09.121-.061.03-.18.121-.211h.091c.091.029.274.029.304-.03.029-.028 0-.242-.121-.303-.063-.03 0-.121-.063-.212a.86.86 0 0 0 .425.09c.273 0 .364-.028.486-.12.151-.091.303-.03.364-.03.029 0 .062.03.062.063-.029.151 0 .182-.029.242-.029.063-.151 0-.242 0-.063 0-.091.03-.091.063-.063 0-.152.062-.152.151.03 0 .063-.062.121-.062v.029c.03.09.152.121.213.062 0 0 .029 0 0 .03-.03.029-.152.151-.063.181 0 0 .03 0 .063.03-.03.062.029.12.09.12-.029-.029-.029-.062 0-.12h.063c.062 0 .029-.122.09-.182.03 0 .03 0 .03.029-.03.062-.062.151.029.181h.03c.028.063.09.122.181.063 0 0-.062-.03-.062-.063 0-.029.029-.062.029-.062.062-.182-.091-.182-.091-.242 0-.063.151-.03.151-.182 0-.03 0-.063-.062-.091.062 0 .09 0 .121-.063-.121 0-.09-.09-.09-.151v-.03a.236.236 0 0 0 .062-.15c-.063.028-.182.09-.213 0 0 0 0-.092-.09-.063-.213 0-.334-.03-.698-.063.394 0 1.032-.12 1.032-.364m-5.04.395v-.03.03m1.033-.941c.029.029.182.09.242.121-.121 0-.09.062-.151.062-.063 0-.091-.09-.091-.181m-.152-.063c-.029.063-.09.091-.151.03-.063-.03 0-.063-.091-.152.09.029.212.121.242.121m-.242.516c.029-.063.029-.091.062-.091.063 0 .063 0 .091-.03 0-.062-.029-.09-.09-.12.062 0 .09-.03.062-.063-.03-.029-.063.03-.091 0 0-.029.029-.029.062-.062h.063l.181.121c.03 0 .063 0 .063.03 0 .028 0 .061-.03.09-.028 0-.028-.062-.062-.09-.029 0-.029.028 0 .09-.062-.03-.09-.03-.12 0s0 .062.028.09c0 .03 0 .063-.029.122 0 .03-.062.121-.151.063-.063-.03-.063-.122-.03-.152m.516 1.123zm2.979-3.44c.667 0 .971-.211.971-.424 0-.728-1.791-.273-1.791-.728 0-.063.062-.121.121-.182h.03c.91-.091.91-.728 1.578-.85-.79-.091-.91.516-1.245.546.182-.09.243-.304.243-.395-.152.213-.516.243-.698.486-.03.03-.063.09-.03.121-.12.091-.211.182-.211.273 0 .699 1.851.213 1.851.728 0 .182-.334.273-.82.273-.394 0-.667-.273-1.365-.09 0-.122.242-.334.151-.425.063-.03.121-.091.121-.152a.236.236 0 0 0-.151-.062c.029-.03 0-.063-.03-.091 0-.03 0-.091-.028-.091a.65.65 0 0 0-.152-.121c-.09-.03-.151-.03-.182-.03 0-.029-.09 0-.09 0-.03 0-.092 0-.092.03-.029-.03-.09-.03-.12-.03-.03.063-.063.091-.03.182-.062 0-.121.182-.182.152.03.062.03.062.063.062-.063.122-.091.243-.152.243l.062.062a1.02 1.02 0 0 0-.09.395h-.03l-.12-.121c-.122-.063-.122-.091-.092-.213 0-.09.091-.151.091-.242 0-.03-.029-.062-.029-.09 0-.063-.09-.092-.121-.092 0 .03.029.03.029.091l-.062.062s-.03.063 0 .091v.063h-.03c0-.063-.029-.182-.09-.182h-.03c0-.091-.062-.121-.181-.062.029 0 .062.029.062.029 0 .029-.03.062-.03.062 0 .091.063.121.122.121h.03v.03c0 .029 0 .029 0 0-.122-.03-.183 0-.213.062v.062c-.062.03-.062.091 0 .121 0-.029 0-.062.062-.062 0 0 .03 0 .03.03 0 0 .029 0 .09-.03h.03s.029 0 .029.03c-.091.09-.091.15.029.181v.03c-.03.15-.243.12-.212-.03-.152.152.029.304.212.213h.029c0 .029 0 .062.029.062 0 0 .03-.029.062-.029 0 .062 0 .091.063.121 0-.029 0-.062.029-.062s.062.121.151.212a1.668 1.668 0 0 1-.394.121c-.03 0-.243-.029-.304.03-.121.028-.364.12-.455.028-.03-.029 0-.062-.03-.12-.028-.03-.062-.063-.09-.063h-.062c-.03-.063-.152-.063-.182-.03.029 0 .062 0 .121.063-.03.03-.03.063-.062.063 0 .029 0 .09.181.12v.03c-.029.029-.062.029-.09 0-.063-.063-.091-.121-.152-.091 0 0-.03.03-.062.03-.063 0-.182.09-.122.18 0-.028.03-.09.063-.09.029.03.029.062.029.062 0 .063.062.152.212.03h.03c-.063.09-.152.151-.092.212 0 0 .03 0 .063.029-.03.09.062.182.12.151-.028 0-.062-.062-.062-.12h.063c.09-.03.029-.122.09-.152h.03c0 .029 0 .12.121.12.091 0 .121-.09.121-.12v-.03c.03.03.063.063.063.122l.062-.063c.03.03.03.091-.029.152.03 0 .121-.063.152-.152l.029.03c.029.028.09.028.212 0v.12c0-.029.029-.062.062-.062 0 0 0 .091.03.152.028-.243.15-.152.303-.243.03-.029.03 0 .03 0 0 .03-.03.063-.063.091.062 0 .182-.062.182-.151l.09-.091c.063.029.152 0 .182-.063 0 .03.03.091 0 .122.152 0 .334-.182.395-.213.334-.063-.212-.304.485-.273.063 0 .152-.03.182-.062-.029.09-.029.303.063.334.062 0 .151.029.181.062v.03c-.062 0-.12.028-.151.028-.152.121-.182-.242-.334-.182 0 0-.03.03-.062.03-.063 0-.152.09-.152.181.03-.029.062-.09.121-.09v.062c0 .029 0 .062.063.062.029 0 .062-.029.062-.029.03 0 .03 0 .03.03 0 .062-.213-.063-.183.12 0 .03.03.063.03.063 0 .062.062.121.15.09-.028-.028-.061-.028-.061-.062h.062v-.029s0-.029.029-.029v.121c0 .062.09.151.212.062-.062 0-.09 0-.121-.029.029 0 .062-.03.062-.03v-.061h.03c.029 0 .029 0 .062-.03l.029.03c0 .029.062.09.121.062.121-.062.03-.152.121-.182h.063c.09.03.242.03.273 0 0-.062 0-.212-.091-.273-.063-.03 0-.091-.063-.182.091.029.212.09.334.09.274 0 .03-.062.152-.12.09-.091.242-.03.303-.03.03 0 .063.03.03.063-.03.121.029.151 0 .212-.03.03-.152 0-.213 0-.062 0-.09.03-.09.03-.063 0-.122.062-.122.15 0-.028.063-.062.121-.062v.03c0 .09.091.12.152.062 0-.03.03 0 .03 0-.063.029-.152.121-.063.151 0 0 0 .03.029.03 0 .062.029.12.09.12-.028-.028-.028-.062 0-.12h.03c.062.029.029-.091.09-.122.03-.029.03-.029.03 0-.03.063-.03.152.029.152h.029c.03.062.062.09.152.062 0 0-.063-.029-.063-.062l.03-.063c.062-.12-.063-.12-.063-.182s.121-.029.121-.181c0 0 0-.063-.062-.063v-.029c.029 0 .09.03.09-.029-.09 0-.062-.062-.062-.121v-.03c.03-.028.063-.062.03-.15-.03.062-.152.09-.152 0 0 0 0-.063-.091-.03-.182 0-.273-.09-.577-.09-.029-.03-.029-.03 0-.03m-2.003-.728h-.03.03m.455-.121c.03 0 .152.062.212.062-.09.03-.062.062-.121.062-.062 0-.09-.062-.09-.12m-.122-.092c-.03.063-.091.091-.121.063-.063-.063 0-.063-.063-.152.063.03.152.091.182.091m-.213.455c.03-.029.03-.062.063-.062.029 0 .062 0 .062-.062.03-.03 0-.03-.029-.091.03 0 .03 0 .03-.03-.03-.029-.063 0-.092 0 0-.029.03-.029.063-.062h.029l.182.09c.029 0 .029.03.029.063v.063c-.03 0-.03-.063-.063-.063-.029 0-.029 0 0 .063-.062-.03-.09-.03-.09 0-.03.029-.03.062 0 .09.029 0 0 .03 0 .063-.03.062-.063.121-.152.062-.063-.029-.03-.09-.03-.12m2.475 10.246-.151-.03v-.12c.029-.547-.304-.942-.88-.942-.516 0-1.518.668-2.915.668-.576 0-1.305-.304-1.73-.577l-.182.425v-.029c0-.182-.151-.364-.334-.364a.392.392 0 0 0-.364.364c0 .182.182.334.364.334.091 0 .213-.03.273-.121l-.181.425c.062.029.12.029.181.062-.212 2.125 1.367 4.827 4.129 5.646.395-.09.82-.029.82.395 0 .273-.122.395-.395.395-.152 0-.243-.091-.243-.182 0-.212.304-.091.334-.212.063-.182-.062-.243-.242-.243-.182 0-.486.121-.486.455 0 .365.304.607.638.607.303 0 .94-.182.85-.94.151 0 .334-.03.364-.152l.03-.456h-.152l.12-4.857h.092c.182.03.334-.062.364-.242 0-.213-.152-.304-.304-.304m-5.009.365 3.37 4.826c-1.791-.698-3.582-2.307-3.37-4.826m3.491 4.37-3.096-4.4h.304c.151 0 .303 0 .455-.03l2.459 3.521c-.03.365-.091.668-.121.911m.212-1.396-2.156-3.097c.243-.062.456-.121.668-.212l1.64 2.337c-.063.304-.092.638-.152.972m.516-3.4-.122-.03c-.151 0-.334.063-.334.274-.029.181.122.303.304.303h.09c-.028.063-.028.091-.028.122-.03.273-.121.728-.182 1.275l-1.397-1.974c.668-.242 1.184-.546 1.458-.546.212 0 .273.121.212.577m8.377-5.017c.122-.062.213-.151.243-.242a.205.205 0 0 1-.243-.03c.062-.062.182 0 .062-.151-.09-.182-.151-.182-.272-.063-.091.122-.82-.029-.82-.576a.412.412 0 0 0 .242.213c.03.029.062.029.091.062h.091c.062.03.152.03.213.03h.029c.151-.03.272-.152.272-.304.03-.273-.242-.425-.546-.668a2.176 2.176 0 0 0-.303-.273c-.091-.212-.03-.394-.304-.789a.773.773 0 0 0-.091-.334c-.121.243-.182.728.182 1.123.303.334.94.637.91.941 0 .063-.062.091-.151.121h-.091c-.03 0-.062-.029-.062-.029-.062 0-.091-.029-.152-.062-.062-.03-.12-.09-.212-.182-.273-.242-.516-.607-.668-.79-.304-.394-.151-.758-.121-1.062.212-.273-.121-.88-.304-1.032 0 0 .03-.12-.029-.303-.029.029-.121.029-.182.029-.029-.121-.062-.121-.151-.152-.121 0-.121-.09-.121-.121-.091.062-.091.121-.182.121-.122 0-.152 0-.182.03-.091.062-.121.09-.243.09-.12 0-.09.063-.09.152 0 .062 0 .121.09.151 0 .03 0 .03.03.03l.09.12.063-.12c.062-.063.212-.063.242.062.03.062.03.09-.062.09-.121.03-.152.03-.243.03-.09 0-.09.09-.09.151.029.063.09.091.242.063.151-.03.395-.063.395.062 0 .304-.365.304-.456.668-.09-.063-.182-.122-.212-.182a1.384 1.384 0 0 0-.273-.334 1.932 1.932 0 0 0-.274-.243c-.12-.062-.151-.12-.151-.273 0-.09.062-.212.062-.304 0 0-.029-.062-.029-.09-.029-.091-.121-.122-.182-.122.03.03.063.063.091.121l-.062.063c-.03.029-.03.062 0 .09v.092c-.03-.09-.063-.212-.152-.212h-.062c0-.09-.091-.151-.182-.062.03 0 .062 0 .091.029-.03.029-.03.09-.03.09 0 .063.063.122.152.122h.03v.059c-.152-.063-.213 0-.213.062v.062c-.062.029-.062.121.03.182 0-.03 0-.091.029-.091l.029-.03c0 .03.029.03.029.063 0 0 .029 0 .062-.029.03-.029.03-.029.063 0 0 0 .029 0 .029.03.029 0 .029 0 0 0-.091.09-.063.181.029.211-.03.091-.212.063-.212-.09-.121.212.09.333.273.273 0 .062 0 .212.03.212-.03 0 0-.03.028-.03v.03c0 .029.03.09.091.09 0-.028 0-.028.03-.062.028.063.062.091.09.152.063.152.243.516.638.698-.213.09-.334.273-.456.425-.12.09-.273.212-.364.151-.062-.029-.062-.062-.121-.121-.03-.03-.091-.03-.121-.03 0 0-.03.03-.063.03a.145.145 0 0 0-.182.062c.03 0 .063-.029.122.03v.062c0 .062.029.09.242.09 0 0 .03 0 0 0 0 .03-.03.063-.09.03-.092 0-.122-.091-.213 0 0 0 0 .029-.03.062h-.028c-.063 0-.152.182-.03.243 0-.03 0-.091.03-.121l.062.029c.063.09.121.12.243-.063 0-.029.029 0 .029 0-.03.091-.121.213 0 .243h.062v.029c.03.121.182.151.243.121-.063-.03-.122-.062-.152-.151h.062c.091-.063 0-.152.03-.213h.029c.029.063.09.122.182.091.062-.029.062-.09.09-.151.122-.03.243-.091.334-.063 0-.062.063-.151.213-.182a.205.205 0 0 1 .243.03c.029-.063.062-.152.151-.243-.029.577.728.546.91.88-.242-.09-.485-.151-.606-.12-.182.028-.516.211-.577.424-.029.152.152.486.334.607-.212.03-.273-.029-.485.03l-.03-.03c-.15.03-.181-.273-.394-.182 0 0-.029 0-.062.03-.063 0-.182.09-.152.181 0-.029.063-.062.121-.09v.062c0 .029 0 .062.063.062.062 0 .062-.029.09-.029l.03.03c0 .09-.273-.03-.212.181 0 0 .029.03.029.062 0 .063.062.122.151.091 0-.029-.062-.062-.029-.09h.03c.028 0 .028 0 .028-.03h.03v.125c0 .091.12.182.242.091-.03 0-.121-.03-.121-.062 0 0 .062 0 .062-.03v-.062c0-.03.03-.03.03-.03h.062c.029 0 .029 0 .029.03.029.03.09.091.151.062.063-.029.063-.029.091-.062l.063.062c0-.09.062-.151.242-.029l.121-.12s.152.09.212 0c.122-.092.062-.092.062-.183-.09-.151-.12-.151-.151-.303-.062-.273.334-.456.546-.395.062.182.304.637.698.79.273.09.364-.213.455-.152.03 0 .03.029.062.062-.029.121 0 .243-.029.304-.029.062-.182.029-.273 0-.03 0-.091.062-.091.062a.195.195 0 0 0-.182.182c.029-.03.091-.09.151-.09 0 .028.03.028.03.028 0 .121.12.152.181.091 0-.029.03 0 .03 0-.063.063-.183.152-.092.213h.062c0 .09.062.151.121.151-.029-.029-.029-.062 0-.12h.062c.062 0 .03-.122.091-.183h.03c-.03.091-.03.182.028.212h.062c0 .063.091.122.182.063 0 0-.062-.03-.09-.063l.061-.062c.062-.182-.09-.182-.09-.242 0-.091.15-.03.15-.213v-.03c.092-.028.183-.09.183-.15-.122 0-.212-.03-.212-.03zm1.579.971c.152.091.091.334-.091.304a10.691 10.691 0 0 0-1.73-4.553l.029-.03a.582.582 0 0 0 .364-.455.618.618 0 0 0-.577.243c-.062-.091-.12-.182-.181-.243a8.594 8.594 0 0 0-1.974-1.821c-.667-.485-1.396-.79-2.155-1.002 0-.182.243-.212.334-.062.03-.273-.212-.425-.364-.364a.247.247 0 0 0-.152.242.592.592 0 0 0-.425-.242c0 .212.063.334.122.424-.122 0-.182.063-.213.122-.091.151 0 .425.303.425-.151-.091-.09-.334.091-.304v3.521a.593.593 0 0 0-.576.121c.182.213.395.213.576.182v3.795c-.181.029-.242-.212-.09-.304-.274 0-.395.243-.335.395.03.062.122.12.273.12a.577.577 0 0 0-.151.395.532.532 0 0 0 .394-.151c0 .182.063.242.152.304.151.062.394-.063.394-.334-.09.12-.334.09-.334-.091h2.672c-.062.182-.03.394.151.576.182-.182.182-.394.152-.576h2.944c0 .182-.212.242-.334.09.03.304.273.395.395.335.091-.03.182-.122.152-.304.09.09.242.151.394.151a.53.53 0 0 0-.151-.394.34.34 0 0 0 .303-.152c.03-.12-.09-.394-.364-.364m-2.55-4.675c-.091.091-.121.182-.091.273a.298.298 0 0 0 .273.151.704.704 0 0 0-.212.395c.182.03.304-.029.425-.09-.029.15 0 .242.091.303a.348.348 0 0 0 .243 0c.667 1.093 1.153 2.368 1.335 3.643-.062-.063-.182-.091-.334-.091a.895.895 0 0 0 .182.425h-2.246c.029-.152-.062-.274-.152-.304-.09-.03-.182-.03-.303.09a.539.539 0 0 0-.152-.394.588.588 0 0 0-.182.395c-.121-.121-.212-.121-.304-.091-.09.029-.151.151-.151.304h-1.913c.063-.122.122-.243.122-.395a.51.51 0 0 0-.365.152v-3.127c.122.029.274-.03.304-.121.03-.091 0-.212-.121-.334.121 0 .273-.03.394-.182a.715.715 0 0 0-.394-.152c.121-.09.151-.212.121-.303s-.182-.182-.304-.152v-2.64c.063.09.182.12.304.15a.469.469 0 0 0-.062-.364 6.717 6.717 0 0 1 1.7.82 8.345 8.345 0 0 1 1.79 1.64m8.413 5.738c-.334-.243-.85-.728-1.123-1.275-.334-.728-1.761-3.521-1.974-3.916-.181-.304-.273-.576-.273-.85 0-.273.121-.516.304-.728.09-.152.394-.455.515-.637a3.16 3.16 0 0 1 .273-.334c-.516-.88-1.062-1.579-1.76-2.338-.82-.94-1.761-1.76-2.793-2.428.546-.365 1.123-.88 1.123-1.73a1.56 1.56 0 0 0-.576-1.215c.576-1.852 1.608-4.068 2.489-5.04l-1.852-.789c.486.728.516 1.579.395 2.095-.485-.334-.88-.79-1.032-1.396-.091.546-.395 1.457-.668 2.003.516-.273.972-.364 1.488-.152-.304.425-1.093 1.063-2.307.79-.668-.152-1.336-.516-1.306-1.032.03-.304.243-.668.668-.607.395.029.425.637.304.91.515-.303 1.062-1.851.242-2.064-.637-.182-1.245.698-1.457 1.397-.121-.85-.455-1.64-1.123-1.58-.85.063-.577 1.64-.273 2.035.03-.546.334-.85.607-.82.212 0 .516.152.455.668-.029.485-.76.82-1.578.82-.79 0-2.156-.243-2.277-1.761.516.09 1.305.485 1.64.971-.092-.91-.122-1.548 0-2.49-.426.577-1.124.881-1.61.972.122-.637.698-1.335 1.336-1.73h-3.37c.668.395 1.215 1.093 1.366 1.73-.515-.09-1.183-.394-1.608-.971.12.94.12 1.578 0 2.49.334-.486 1.123-.881 1.608-.972-.12 1.518-1.487 1.76-2.276 1.76-.82 0-1.518-.334-1.579-.82-.062-.515.243-.667.486-.667.242-.029.546.274.576.82.304-.395.577-1.973-.273-2.034-.637-.062-1.002.728-1.123 1.579-.213-.7-.79-1.58-1.458-1.397-.82.212-.273 1.76.273 2.064-.151-.273-.121-.88.274-.91.425-.063.637.303.667.607.03.515-.637.88-1.275 1.032-1.214.273-2.003-.365-2.337-.79.546-.212 1.001-.12 1.518.152-.274-.546-.577-1.457-.668-2.003-.152.606-.576 1.062-1.062 1.396-.091-.486-.063-1.366.394-2.095l-1.821.79c.85.971 1.912 3.187 2.489 5.039-.364.334-.546.728-.546 1.214 0 .85.546 1.366 1.093 1.73a13.265 13.265 0 0 0-2.793 2.429 15.567 15.567 0 0 0-2.975 4.918 47.499 47.499 0 0 1 1.64 1.79c.454.577.727 1.184.758 1.64 0 .82.182 1.153.638 1.73.12.152.334.82.364 1.214h9.198v10.018c-.364.03-.76.121-1.062.516 1.062.425 2.064.789 3.096 1.123.09-.668.212-1.063.546-1.457 0 0-1.336-.152-2.034-.182V35.486h8.986c-.062 1.397-.304 2.732-.76 3.977a11.528 11.528 0 0 1-2.003 3.521 9.483 9.483 0 0 1-2.975 2.338c-.182.09-.182.212-.364.303-.152.152-.304.455-.456.79-.09.303-.151.515-.181.94.394.122.637.182 1.032.274 3.157.79 3.946.576 4.128.425a12.765 12.765 0 0 0 1.973-1.882 15.707 15.707 0 0 0 2.975-4.948 17.606 17.606 0 0 0 1.063-6.072c0-.364.029-.485 0-.88m-13.964.698H49.54c.029-1.427.272-2.823.758-4.129a11.033 11.033 0 0 1 2.004-3.49 9.166 9.166 0 0 1 2.974-2.368 8.332 8.332 0 0 1 3.491-.85zm.151-15.33c-3.066 0-5.19.91-6.405 1.73-.728-.425-1.032-.85-1.032-1.335 0-1.73 4.948-1.883 7.437-1.883 2.49 0 7.438.152 7.438 1.883 0 .485-.304.91-1.032 1.335-1.215-.82-3.34-1.73-6.406-1.73m.395 15.33V24.133a8.221 8.221 0 0 1 3.248.85 9.162 9.162 0 0 1 2.975 2.367 11.036 11.036 0 0 1 2.004 3.491c.485 1.306.728 2.702.759 4.129zm30.722 22.373c-.03-.121-.182-.212-.304-.152-2.884.82-6.466-1.548-9.926-3.855-2.915-1.943-5.647-3.764-8.014-3.764-.88 0-1.64.182-2.308.546-.82.455-1.426 1.154-1.82 2.125-.426.971-.82 1.609-1.154 2.155-.425.607-.698 1.093-.698 1.64 0 .485.212.88.607 1.305.334.334.789.637 1.487 1.032.152.062.304.151.455.213.577.272.941.455 1.002.789-1.153.485-2.61.91-4.31 1.214-1.883.334-3.947.486-6.132.486-2.186 0-4.28-.152-6.163-.486-1.67-.304-3.157-.728-4.31-1.214.062-.486.424-.699 1.032-.972.151-.09.303-.151.455-.212.576-.304 1.123-.607 1.487-.941.395-.365.577-.729.577-1.215 0-.546-.273-1.001-.668-1.639-.334-.546-.76-1.184-1.153-2.155-.395-.971-1.002-1.67-1.852-2.125-.637-.364-1.427-.546-2.277-.546-2.368 0-5.13 1.821-8.044 3.764-3.461 2.307-7.013 4.675-9.897 3.855-.151-.029-.273.03-.334.152-.029.151.03.273.152.334.88.394 1.64 1.002 2.398 1.578 1.032.82 2.004 1.579 3.096 1.579 1.033 0 2.125-.334 3.461-1.032 1.154-.607 2.368-1.427 3.521-2.216 2.277-1.579 4.645-3.157 6.861-3.34-.212.243-.455.425-.668.638-.667.576-1.214 1.093-1.214 2.125 0 .82.274 1.396.668 2.185.09.243.242.516.364.82.242.546.334 1.002.486 1.578.09.274.151.577.242.911.152.546.395 1.548 2.034 2.368 1.912.971 5.19 1.457 9.744 1.457 4.554 0 7.832-.485 9.714-1.457 1.64-.82 1.913-1.821 2.034-2.368.091-.334.182-.637.243-.91.151-.577.242-1.033.515-1.579.182-.425.334-.76.486-1.032.364-.637.637-1.154.637-1.882 0-1.032-.607-1.579-1.305-2.186-.213-.212-.455-.425-.699-.667 2.247.181 4.584 1.76 6.86 3.339 1.154.789 2.369 1.609 3.553 2.216 1.335.698 2.428 1.032 3.46 1.032 1.063 0 2.064-.79 3.097-1.579.728-.576 1.517-1.184 2.398-1.578.121-.063.182-.213.121-.334m-28.896-2.975c-.152 0-.274.029-.395.062v-2.459c-1.093-.029-2.337-.212-3.612-.546v3.036a.946.946 0 0 0-.425-.09c-.88 0-1.397.727-1.397 1.395 0 .638.365 1.245.698 1.61.152-.395.304-.7.516-.7.425 0 .243 2.126 1.488 2.186-.03.122-.063.213-.063.334 0 .546.425 1.002.972 1.002.546 0 .971-.455.971-1.002 0-.12 0-.212-.062-.334 1.244-.062 1.062-2.185 1.487-2.185.213 0 .334.273.546.698.304-.364.668-.971.668-1.609 0-.667-.516-1.396-1.397-1.396m-2.216 5.373a.544.544 0 0 1-.546-.546c0-.304.243-.546.546-.546.304 0 .546.242.546.546a.544.544 0 0 1-.546.546m2.945-3.096c-.152-.274-.364-.425-.577-.425-.82 0-.485 2.216-1.487 2.216-.455 0-.698-.273-.698-.607 0-.304.243-.395.243-.637 0-.243-.213-.334-.425-.334-.213 0-.395.09-.395.334 0 .242.212.334.212.637 0 .334-.242.607-.698.607-.971 0-.667-2.216-1.487-2.216-.182 0-.425.151-.546.425-.182-.304-.274-.637-.274-.88 0-.395.304-.942.972-.942 1.123 0 .85 1.518 1.396 1.518.243 0 .425-.151.425-.364 0-.455-.79-.85-.79-1.488 0-.607.547-1.153 1.185-1.639.637.486 1.184 1.032 1.184 1.64 0 .637-.759 1.032-.759 1.487 0 .212.152.364.395.364.546 0 .272-1.518 1.396-1.518.668 0 .971.547.971.941 0 .243-.09.577-.242.88m.58-8.35c-2.064-.515-4.523-1.396-6.8-2.428v-.029c.062-.455-.121-.971-.455-1.396-.364-.395-.85-.607-1.305-.607-.213 0-.425.029-.638.09-.334-.273-.637-.606-.94-.97a11.037 11.037 0 0 1-2.004-3.492 12.055 12.055 0 0 1-.607-2.337c-.121.667-.85 1.548-2.156 1.578.03-.151.03-.485-.09-.516-.334.365-.85.79-2.034.365.181.91.455 1.821.758 2.671a15.385 15.385 0 0 0 2.975 4.948c.395.486.85.941 1.305 1.336v.273c0 .486.455 1.245 1.124 1.579.546.242 1.153.182 1.67-.213 1.001.546 2.276 1.032 3.642 1.427 1.548.425 3.035.667 4.19.667 1 0 2.336-.485 3.642-1.305a10.653 10.653 0 0 0 1.366-1.032c.062-.063.121-.091.151-.152-1.001.152-2.55-.12-3.794-.455m-7.529-3.096-.242-.152c-.395-.303-.728-.303-1.093.03-.151.12-.303.303-.455.485l-.242.242.151.122c.425.364.486.728.364.94-.029.091-.12.122-.212.152-.212.062-.485 0-.79-.212l-.18-.091-.092.182c-.029.029-.029.062-.062.121-.063.03-.091.091-.121.152-.182.303-.274.546-.274.758 0 .063 0 .091.03.152.062.242.242.334.394.425l.121.062c.182.121.455.273.637.395-.364.212-.728.212-1.123.029-.546-.274-.91-.911-.91-1.215 0-.485.212-1.123.606-1.73l.063-.121-.063-.091a3.093 3.093 0 0 1-.273-.546c.212.029.425.062.637.09l.091.03.091-.063c.242-.273 1.093-1.153 1.912-1.153.365 0 .729.182 1.002.516.212.212.334.515.395.759a1.47 1.47 0 0 1-.364-.273m1.305 3.916a.882.882 0 1 1 .001-1.763.882.882 0 0 1-.001 1.763m3.855 1.214c-.425 0-.79-.364-.79-.82 0-.455.365-.79.79-.79.455 0 .82.335.82.79s-.365.82-.82.82M60.014 3.43c-.455-.395-.82-.91-.88-1.457.546.09 1.123.485 1.487.94V.667c-.364.456-.94.85-1.487.941.062-.546.395-1.032.85-1.608h-2.186c.486.576.82 1.062.88 1.608-.546-.09-1.153-.485-1.487-.94v2.246c.334-.456.941-.85 1.488-.941-.063.546-.425 1.062-.911 1.457zm-3.126 2.702c.212.91 1.032 1.608 2.003 1.608 1.002 0 1.822-.698 2.004-1.608zm2.428-.79h1.609a2.074 2.074 0 0 0-1.609-1.67zm-.85 0v-1.67c-.82.183-1.457.82-1.609 1.67zm1.548 3.097c-.212.09-.485.181-.728.212v2.793h.728zm-2.216 3.005h.729V8.651a2.52 2.52 0 0 1-.729-.212zm2.368-3.521c0 .364.304.637.668.637a.641.641 0 0 0 .637-.637c0-.365-.304-.668-.637-.668a.674.674 0 0 0-.668.668m2.186-.061c.364 0 .637-.304.637-.668a.622.622 0 0 0-.637-.637c-.364 0-.668.273-.668.637 0 .365.304.668.668.668m1.609-.486c.364 0 .667-.273.667-.637a.674.674 0 0 0-.667-.668c-.365 0-.637.304-.637.668 0 .364.273.637.637.637m4.614 1.488a.673.673 0 0 0 .667-.668c0-.364-.303-.637-.667-.637a.622.622 0 0 0-.637.637c0 .364.273.668.637.668M67.3 7.741c.364 0 .637-.304.637-.668a.622.622 0 0 0-.637-.637c-.364 0-.668.272-.668.637 0 .364.304.668.668.668m-1.64-.517c.365 0 .668-.273.668-.637a.674.674 0 0 0-.667-.667c-.334 0-.637.303-.637.667a.64.64 0 0 0 .637.637m3.521 4.979c-.364 0-.637.304-.637.667 0 .365.273.638.637.638s.668-.273.668-.638a.674.674 0 0 0-.668-.667m.334-1.579c-.364 0-.668.304-.668.638 0 .394.304.667.668.667a.654.654 0 0 0 .668-.667c0-.334-.304-.638-.668-.638m-.88-.94c0 .364.303.667.667.667.364 0 .637-.304.637-.668a.622.622 0 0 0-.637-.637c-.364 0-.667.273-.667.637M56.979 8.56a.622.622 0 0 0 .637-.637c0-.364-.273-.668-.637-.668a.673.673 0 0 0-.668.668c0 .364.304.637.668.637m-1.518-.698c.334 0 .637-.304.637-.668a.641.641 0 0 0-.637-.637c-.364 0-.668.273-.668.637 0 .365.304.668.668.668m-1.64-.486c.365 0 .668-.273.668-.637a.674.674 0 0 0-.667-.668c-.334 0-.638.304-.638.668 0 .364.304.637.638.637m-4.584 1.488c.364 0 .637-.304.637-.668a.622.622 0 0 0-.637-.637c-.364 0-.668.273-.668.637s.304.668.668.668m1.275-1.123c.334 0 .637-.304.637-.668a.641.641 0 0 0-.637-.637c-.364 0-.668.272-.668.637 0 .364.304.668.668.668m1.609-.517c.364 0 .667-.273.667-.637a.674.674 0 0 0-.667-.667c-.365 0-.638.303-.638.667 0 .364.273.637.638.637m-2.854 5.647a.674.674 0 0 0-.667-.668c-.334 0-.638.304-.638.668 0 .364.304.637.638.637.364 0 .667-.273.667-.637m-.334-1.579c0-.394-.272-.667-.637-.667a.654.654 0 0 0-.668.667c0 .364.304.637.668.637a.622.622 0 0 0 .637-.637m-.425-.94c.365 0 .637-.305.637-.668a.622.622 0 0 0-.637-.638c-.364 0-.667.273-.667.638 0 .364.303.667.667.667m15.24.425c.364.699.698 1.123.636 1.67-.029.576-.637.971-.88 1.518-.273-.638-.667-1.124-.637-1.64.062-.516.76-1.184.88-1.548m-9.683 0c-.365.699-.698 1.123-.638 1.67.063.576.638.971.91 1.518.243-.638.668-1.124.608-1.64-.03-.516-.76-1.184-.88-1.548m394.511 138.425c-.245-3.734-2.975-6.739-6.89-6.739-4.069 0-6.588 3.066-6.83 6.74zm3.765 6.648c-1.063 5.313-4.797 8.136-10.2 8.136-7.62 0-11.202-5.313-11.445-12.568 0-7.194 4.706-12.416 11.232-12.416 8.44 0 11.02 7.893 10.807 13.66h-17.88c-.122 4.16 2.216 7.863 7.437 7.863 3.279 0 5.495-1.518 6.193-4.675zm-27.989-8.62c-.607-3.006-2.641-4.767-5.92-4.767-5.676 0-7.437 4.523-7.437 9.32 0 4.432 2.004 8.742 6.982 8.742 3.825 0 6.041-2.185 6.557-5.828h4.007c-.88 5.859-4.462 9.289-10.534 9.289-7.285 0-11.17-5.04-11.17-12.203 0-7.134 3.703-12.78 11.262-12.78 5.463 0 9.713 2.55 10.32 8.226zm-25.135-7.65h3.915v23.86h-3.915zm0-9.108h3.915v4.797h-3.915zm-12.295 12.568h-4.007v-3.46h4.007v-3.552c0-3.886 2.307-5.92 6.618-5.92.728 0 1.791.121 2.52.364v3.4c-.668-.212-1.518-.303-2.216-.303-1.882 0-3.005.607-3.005 2.671v3.34h4.644v3.46h-4.644v20.4h-3.917zm-13.872 0h-4.007v-3.46h4.007v-3.583c0-3.855 2.306-5.889 6.587-5.889.76 0 1.821.121 2.55.364v3.4c-.698-.212-1.518-.303-2.216-.303-1.882 0-3.005.607-3.005 2.671v3.34h4.613v3.46h-4.613v20.4h-3.916zm-21.614 17.485c8.044 0 11.414-6.921 11.414-13.57 0-6.647-3.37-13.568-11.414-13.568-8.045 0-11.384 6.92-11.384 13.569 0 6.648 3.34 13.57 11.384 13.57m0-30.843c10.473 0 15.785 8.257 15.785 17.273 0 8.985-5.312 17.242-15.785 17.242-10.473 0-15.786-8.257-15.786-17.242 0-9.016 5.313-17.273 15.786-17.273m-35.578 9.896h4.736v3.43h-4.736v14.845c0 1.852.486 2.125 2.945 2.125h1.79v3.46h-2.974c-4.068 0-5.677-.85-5.677-5.22v-15.21h-4.068v-3.43h4.068v-7.164h3.916zm-29.84 0h3.703v3.765h.091c1.67-2.945 4.28-4.342 7.741-4.342 6.284 0 8.226 3.613 8.226 8.743v15.694h-3.915v-16.18c0-2.944-1.852-4.796-4.857-4.796-4.766 0-7.074 3.188-7.074 7.498v13.478h-3.916zm-7.377 9.623c-.242-3.734-2.945-6.739-6.89-6.739-4.069 0-6.588 3.066-6.831 6.74zm3.795 6.648c-1.063 5.313-4.827 8.136-10.23 8.136-7.59 0-11.202-5.313-11.445-12.568 0-7.194 4.736-12.416 11.232-12.416 8.44 0 11.02 7.893 10.807 13.66h-17.88c-.121 4.16 2.216 7.863 7.437 7.863 3.279 0 5.495-1.518 6.193-4.675zm-58.619-16.27h3.673v3.49h.091c1.822-2.732 4.342-4.068 7.711-4.068 2.975 0 5.586 1.124 6.557 4.068 1.609-2.58 4.402-4.068 7.498-4.068 4.736 0 7.923 2.004 7.923 6.922v17.515h-3.916v-15.663c0-2.945-.79-5.313-4.614-5.313-3.825 0-6.223 2.398-6.223 6.102v14.874h-3.946v-15.663c0-3.097-.972-5.313-4.463-5.313-4.614 0-6.375 4.25-6.375 6.102v14.874h-3.916zm-15.147 2.883c-5.313 0-7.316 4.584-7.316 9.016 0 4.645 2.125 9.046 7.528 9.046 5.373 0 7.164-4.584 7.164-9.228 0-4.493-2.307-8.834-7.376-8.834m-11.08-2.884h3.915v3.218h.091c1.275-2.64 4.28-3.795 7.62-3.795 7.346 0 10.989 5.829 10.989 12.568 0 6.77-3.612 12.416-10.898 12.416-2.398 0-6.01-.941-7.71-3.734h-.092v12.325h-3.916zm-15.179 20.946c4.098 0 7.407-3.248 7.407-9.016 0-5.767-3.309-9.046-7.407-9.046-4.128 0-7.437 3.279-7.437 9.046 0 5.768 3.309 9.016 7.437 9.016m0-21.523c7.56 0 11.566 5.495 11.566 12.507 0 6.982-4.007 12.477-11.566 12.477-7.589 0-11.596-5.495-11.596-12.477 0-7.012 4.007-12.507 11.596-12.507m-19.155-8.53h3.947v32.967h-3.947zm-7.467 18.73c-.212-3.734-2.945-6.739-6.86-6.739-4.069 0-6.618 3.066-6.831 6.74zm3.794 6.648c-1.062 5.313-4.796 8.136-10.2 8.136-7.619 0-11.2-5.313-11.444-12.568 0-7.194 4.706-12.416 11.232-12.416 8.44 0 11.02 7.893 10.777 13.66h-17.85c-.151 4.16 2.216 7.863 7.437 7.863 3.279 0 5.495-1.518 6.163-4.675zm-30.66 7.59h-4.189l-8.894-23.892h4.401l6.679 19.914h.121l6.496-19.914h4.099zm-17.242-14.238c-.242-3.734-2.945-6.739-6.86-6.739-4.068 0-6.618 3.066-6.83 6.74zm3.795 6.648c-1.063 5.313-4.797 8.136-10.2 8.136-7.62 0-11.232-5.313-11.445-12.568 0-7.194 4.706-12.416 11.202-12.416 8.439 0 11.02 7.893 10.807 13.66H97.99c-.151 4.16 2.186 7.863 7.407 7.863 3.279 0 5.495-1.518 6.193-4.675zm-46.87 3.886h7.285c3.005 0 11.08-.82 11.08-12.962 0-7.863-2.914-12.598-10.99-12.598h-7.376zm-4.372-29.264h11.293c10.169 0 15.815 5.13 15.815 15.695 0 11.019-4.826 17.272-15.815 17.272H64.234zm-27.533 6.982c0-1.912-1.427-3.521-3.795-3.521-1.821 0-3.764 1.093-3.764 3.521 0 1.974 1.76 3.916 3.187 5.707 1.882-1.244 4.372-2.853 4.372-5.707m-5.677 10.048c-3.096 1.7-5.707 3.552-5.707 7.438 0 3.308 3.096 5.585 6.253 5.585 3.006 0 5.404-1.518 7.043-3.916zm9.744 11.809c-1.973 3.096-5.737 4.675-9.319 4.675-8.925 0-10.29-6.314-10.29-9.016 0-5.1 3.49-7.74 7.71-9.957-1.852-2.58-3.643-4.432-3.643-7.771 0-3.552 2.61-6.77 7.407-6.77 4.128 0 7.984 2.247 7.984 6.74 0 3.976-2.975 6.678-6.163 8.53l5.95 7.255c.577-1.67.972-3.37 1.063-5.13H45.2c-.364 3.976-.82 5.13-2.216 8.135l6.406 7.437h-5.1zm439.5-77.348h3.916V94.59h.091c1.245-2.914 4.705-4.068 7.529-4.068 6.283 0 8.196 3.582 8.196 8.713v15.694h-3.916v-16.15c0-2.944-1.852-4.796-4.827-4.796-4.766 0-7.073 3.187-7.073 7.468v13.478h-3.916zm-7.68 9.107h4.736v3.46h-4.736v14.814c0 1.852.484 2.125 2.945 2.125h1.79v3.46h-2.974c-4.068 0-5.707-.819-5.707-5.22V94.529h-4.038v-3.46h4.038v-7.164h3.946zm-14.328-9.077h3.916v32.938h-3.916zm-9.29 20.612c-3.035 2.277-11.899.063-11.899 5.92 0 2.58 2.216 3.49 4.614 3.49 5.16 0 7.286-3.156 7.286-5.372zm6.376 12.234c-.699.425-1.67.637-2.823.637-2.035 0-3.31-1.093-3.31-3.673-2.185 2.58-5.1 3.673-8.408 3.673-4.34 0-7.893-1.882-7.893-6.678 0-5.404 4.007-6.588 8.075-7.347 4.31-.88 8.044-.515 8.044-3.49 0-3.461-2.884-3.977-5.312-3.977-3.339 0-5.768 1.002-5.95 4.523h-3.946c.245-5.92 4.766-7.984 10.108-7.984 4.311 0 8.956.972 8.956 6.557v12.264c0 1.852 0 2.671 1.244 2.671.396 0 .79-.09 1.215-.212zm-28.506-14.116c-.245-3.734-2.945-6.739-6.86-6.739-4.068 0-6.619 3.036-6.83 6.74zm3.795 6.648c-1.063 5.313-4.797 8.136-10.2 8.136-7.62 0-11.232-5.313-11.445-12.568 0-7.194 4.705-12.416 11.202-12.416 8.47 0 11.05 7.893 10.807 13.66h-17.85c-.151 4.16 2.216 7.833 7.407 7.833 3.279 0 5.495-1.518 6.193-4.645zm-29.84 7.559h-4.16l-4.826-18.973h-.093l-4.797 18.973h-4.25l-7.68-23.86h4.341l5.404 19.519h.093l4.796-19.52h4.31l4.98 19.52h.092l5.343-19.52h4.068zm-47.266-23.86h3.673v3.794h.091c1.67-2.975 4.311-4.34 7.772-4.34 6.284 0 8.196 3.581 8.196 8.712v15.694h-3.916v-16.15c0-2.944-1.852-4.796-4.827-4.796-4.766 0-7.073 3.187-7.073 7.468v13.478h-3.916zm-15.117 20.946c4.098 0 7.407-3.218 7.407-8.986 0-5.768-3.309-9.046-7.407-9.046-4.129 0-7.438 3.278-7.438 9.046 0 5.768 3.31 8.986 7.438 8.986m0-21.493c7.559 0 11.566 5.495 11.566 12.507 0 6.982-4.007 12.446-11.566 12.446-7.59 0-11.596-5.464-11.596-12.446 0-7.012 4.007-12.507 11.596-12.507m-48.631.547h3.673v3.521h.091c1.821-2.732 4.341-4.068 7.71-4.068 2.975 0 5.586 1.093 6.557 4.068 1.61-2.58 4.402-4.068 7.499-4.068 4.735 0 7.923 1.974 7.923 6.922v17.485h-3.916V99.295c0-2.975-.79-5.312-4.615-5.312s-6.223 2.398-6.223 6.102v14.844h-3.946V99.295c0-3.096-.971-5.312-4.462-5.312-4.615 0-6.375 4.25-6.375 6.102v14.844h-3.916zm-38.28 0h3.674v3.521h.12c1.792-2.732 4.311-4.068 7.711-4.068 2.945 0 5.586 1.093 6.527 4.068 1.64-2.58 4.402-4.068 7.498-4.068 4.766 0 7.923 1.974 7.923 6.922v17.485h-3.916V99.295c0-2.975-.79-5.312-4.614-5.312-3.825 0-6.223 2.398-6.223 6.102v14.844h-3.916V99.295c0-3.096-.972-5.312-4.493-5.312-4.614 0-6.375 4.25-6.375 6.102v14.844h-3.916zm-15.117 20.946c4.098 0 7.437-3.218 7.437-8.986 0-5.768-3.339-9.046-7.437-9.046-4.129 0-7.437 3.278-7.437 9.046 0 5.768 3.308 8.986 7.437 8.986m0-21.493c7.559 0 11.596 5.495 11.596 12.507 0 6.982-4.037 12.446-11.596 12.446s-11.596-5.464-11.596-12.446c0-7.012 4.037-12.507 11.596-12.507m-18.79 1.366c-.972-4.644-4.615-7.012-9.229-7.012-7.862 0-11.171 6.466-11.171 13.357 0 7.528 3.309 13.782 11.201 13.782 5.738 0 9.138-4.038 9.532-9.502h4.372c-.88 8.257-5.92 13.205-14.268 13.205-10.2 0-15.239-7.559-15.239-17.182 0-9.592 5.464-17.333 15.603-17.333 6.891 0 12.598 3.673 13.57 10.685zm-47.69 17.91h5.13v4.676c0 3.49-1.518 6.192-5.07 7.255v-2.307c2.004-.76 2.793-2.975 2.672-4.493h-2.733zm-24.953-18.73h3.703v3.795h.091c1.67-2.975 4.31-4.34 7.771-4.34 6.254 0 8.196 3.581 8.196 8.712v15.694h-3.916v-16.15c0-2.944-1.851-4.796-4.857-4.796-4.735 0-7.042 3.187-7.042 7.468v13.478h-3.946zm-8.622 11.445c0-4.189-1.851-8.53-6.8-8.53-5.039 0-7.042 4.098-7.042 8.682 0 4.28 1.548 9.076 6.739 9.076 5.16 0 7.103-4.735 7.103-9.228m3.856 10.382c0 7.802-3.491 11.718-11.08 11.718-4.463 0-9.623-1.822-9.866-7.013h3.916c.151 2.823 3.642 3.886 6.192 3.886 5.13 0 7.164-3.704 7.164-9.046v-1.579h-.09c-1.336 2.914-4.402 4.341-7.438 4.341-7.103 0-10.655-5.585-10.655-12.082 0-5.616 2.702-12.598 11.02-12.598 3.005 0 5.676 1.336 7.103 3.947h.062v-3.4h3.673zm-29.416-21.826h3.916v23.86h-3.916zm3.916-4.28h-3.916v-4.797h3.916zm-11.383 13.933c-.213-3.734-2.945-6.739-6.861-6.739-4.068 0-6.618 3.036-6.83 6.74zm3.794 6.648c-1.062 5.313-4.796 8.136-10.2 8.136-7.62 0-11.231-5.313-11.444-12.568 0-7.194 4.705-12.416 11.202-12.416 8.469 0 11.05 7.893 10.806 13.66H89.61c-.15 4.16 2.217 7.833 7.408 7.833 3.278 0 5.494-1.518 6.193-4.645zM72.49 91.069h3.703v5.039h.091c1.913-3.886 4.523-5.737 8.773-5.586v4.16c-6.314 0-8.62 3.55-8.62 9.652v10.596H72.49zm-15.027 20.946c4.099 0 7.407-3.218 7.407-8.986 0-5.768-3.308-9.046-7.407-9.046-4.128 0-7.437 3.278-7.437 9.046 0 5.768 3.309 8.986 7.437 8.986m0-21.493c7.56 0 11.566 5.495 11.566 12.507 0 6.982-4.007 12.446-11.566 12.446-7.589 0-11.596-5.464-11.596-12.446 0-7.012 4.007-12.507 11.596-12.507m-34.242-8.56h21.644v3.703H27.623v10.473h15.118v3.704H27.623v15.087h-4.402z"/>
</svg>