<svg fill="#4f47e5" viewBox="0 0 436 217.5" xmlns="http://www.w3.org/2000/svg"><path d="m32.38 29.39h5.38v39.65h-5.38z"/><path d="m50.91 36.45h.11l22.07 32.59h6.83v-39.65h-5.38v32.59h-.11l-21.84-32.59h-7.05v39.65h5.37z"/><path d="m109.12 67.36c2.71-1.12 4.97-2.6 6.8-4.45s3.21-3.96 4.14-6.33 1.4-4.82 1.4-7.36c0-1.23-.13-2.58-.39-4.03-.26-1.46-.69-2.91-1.29-4.37s-1.41-2.87-2.44-4.26c-1.03-1.38-2.32-2.6-3.86-3.67-1.55-1.06-3.38-1.91-5.49-2.55-2.11-.63-4.56-.95-7.36-.95h-13.83v39.65h12.94c3.55 0 6.67-.56 9.38-1.68zm-16.94-3.36v-29.57h8.06c3.21 0 5.82.53 7.84 1.6s3.59 2.36 4.73 3.89 1.91 3.15 2.32 4.84c.41 1.7.62 3.18.62 4.45 0 2.46-.45 4.62-1.34 6.47s-2.11 3.39-3.64 4.62-3.31 2.16-5.35 2.77c-2.04.62-4.19.92-6.47.92h-6.78z"/><path d="m153.39 64h-21.22v-12.71h18.81v-5.04h-18.81v-11.82h20.21v-5.04h-25.59v39.65h26.6z"/><path d="m163.97 51.57h8.57c2.54 0 4.63-.34 6.27-1.04 1.64-.69 2.94-1.57 3.89-2.63s1.61-2.26 1.99-3.58c.37-1.32.56-2.6.56-3.84s-.19-2.51-.56-3.84c-.37-1.32-1.04-2.52-1.99-3.58s-2.25-1.94-3.89-2.63-3.73-1.04-6.27-1.04h-13.94v39.65h5.38v-17.47zm0-17.47h7.06c1.04 0 2.08.08 3.11.25s1.94.48 2.74.92c.8.45 1.45 1.09 1.93 1.93s.73 1.93.73 3.28-.24 2.44-.73 3.28-1.13 1.48-1.93 1.93-1.72.76-2.74.92c-1.03.17-2.06.25-3.11.25h-7.06v-12.77z"/><path d="m216 64h-21.23v-12.71h18.82v-5.04h-18.82v-11.82h20.22v-5.04h-25.59v39.65h26.6z"/><path d="m226.58 36.45h.11l22.07 32.59h6.83v-39.65h-5.38v32.59h-.11l-21.84-32.59h-7.05v39.65h5.37z"/><path d="m284.79 67.36c2.71-1.12 4.97-2.6 6.8-4.45s3.21-3.96 4.14-6.33 1.4-4.82 1.4-7.36c0-1.23-.13-2.58-.39-4.03-.26-1.46-.69-2.91-1.29-4.37s-1.41-2.87-2.44-4.26c-1.03-1.38-2.32-2.6-3.86-3.67-1.55-1.06-3.38-1.91-5.49-2.55-2.11-.63-4.56-.95-7.36-.95h-13.83v39.65h12.94c3.55 0 6.67-.56 9.38-1.68zm-16.94-3.36v-29.57h8.06c3.21 0 5.82.53 7.84 1.6 2.02 1.06 3.59 2.36 4.73 3.89s1.91 3.15 2.32 4.84c.41 1.7.62 3.18.62 4.45 0 2.46-.45 4.62-1.34 6.47-.9 1.85-2.11 3.39-3.64 4.62s-3.31 2.16-5.35 2.77c-2.04.62-4.19.92-6.47.92h-6.78z"/><path d="m329.06 64h-21.22v-12.71h18.81v-5.04h-18.81v-11.82h20.21v-5.04h-25.59v39.65h26.6z"/><path d="m339.64 36.45h.12l22.06 32.59h6.83v-39.65h-5.37v32.59h-.12l-21.84-32.59h-7.05v39.65h5.37z"/><path d="m384.72 69.04h5.38v-34.61h12.77v-5.04h-30.91v5.04h12.76z"/><path d="m43.32 113.06h21.48v-10.49h-21.48v-10.48h23.23v-10.49h-34.59v51.56h11.36z"/><path d="m71.83 96.16c-1.38 3.35-2.08 7.09-2.08 11.21s.69 7.86 2.08 11.21c1.38 3.35 3.31 6.2 5.79 8.56s5.41 4.16 8.81 5.43c3.4 1.26 7.11 1.89 11.14 1.89s7.74-.63 11.14-1.89 6.34-3.07 8.81-5.43c2.48-2.35 4.41-5.21 5.79-8.56s2.08-7.09 2.08-11.21-.69-7.87-2.08-11.21c-1.38-3.35-3.31-6.2-5.79-8.56-2.48-2.35-5.41-4.16-8.81-5.43-3.4-1.26-7.11-1.89-11.14-1.89s-7.74.63-11.14 1.89-6.34 3.07-8.81 5.43c-2.48 2.36-4.41 5.21-5.79 8.56zm10.85 4.59c.75-2.04 1.83-3.8 3.24-5.28s3.1-2.63 5.06-3.46c1.97-.83 4.16-1.24 6.59-1.24s4.62.41 6.59 1.24 3.65 1.98 5.06 3.46 2.49 3.24 3.24 5.28 1.13 4.25 1.13 6.63-.38 4.65-1.13 6.66c-.75 2.02-1.83 3.76-3.24 5.24s-3.1 2.63-5.06 3.46c-1.97.83-4.16 1.24-6.59 1.24s-4.62-.41-6.59-1.24-3.65-1.98-5.06-3.46-2.49-3.23-3.24-5.24-1.13-4.23-1.13-6.66.38-4.59 1.13-6.63z"/><path d="m136.02 87.61c-2.48 2.36-4.41 5.21-5.79 8.56s-2.08 7.09-2.08 11.21.69 7.86 2.08 11.21c1.38 3.35 3.31 6.2 5.79 8.56s5.41 4.16 8.81 5.43c3.4 1.26 7.11 1.89 11.14 1.89s7.74-.63 11.14-1.89 6.34-3.07 8.81-5.43c2.48-2.35 4.41-5.21 5.79-8.56s2.08-7.09 2.08-11.21-.69-7.87-2.08-11.21c-1.38-3.35-3.31-6.2-5.79-8.56-2.48-2.35-5.41-4.16-8.81-5.43-3.4-1.26-7.11-1.89-11.14-1.89s-7.74.63-11.14 1.89-6.34 3.07-8.81 5.43zm19.96 3.17c2.43 0 4.62.41 6.59 1.24s3.65 1.98 5.06 3.46 2.49 3.24 3.24 5.28 1.13 4.25 1.13 6.63-.38 4.65-1.13 6.66c-.75 2.02-1.83 3.76-3.24 5.24s-3.1 2.63-5.06 3.46c-1.97.83-4.16 1.24-6.59 1.24s-4.62-.41-6.59-1.24-3.65-1.98-5.06-3.46-2.49-3.23-3.24-5.24-1.13-4.23-1.13-6.66.38-4.59 1.13-6.63 1.83-3.8 3.24-5.28 3.1-2.63 5.06-3.46c1.97-.83 4.16-1.24 6.59-1.24z"/><path d="m218.89 131.48c3.5-1.12 6.58-2.75 9.25-4.92 2.67-2.16 4.79-4.83 6.37-8.01s2.37-6.86 2.37-11.03c0-4.71-.81-8.71-2.44-12.02-1.63-3.3-3.82-5.98-6.59-8.05-2.77-2.06-6.01-3.56-9.72-4.48s-7.64-1.38-11.76-1.38h-17.04v51.56h18.57c3.83 0 7.5-.56 11-1.67zm-18.2-8.81v-30.59h6.7c2.38 0 4.65.3 6.81.91s4.04 1.52 5.64 2.73 2.88 2.76 3.82 4.62c.95 1.87 1.42 4.07 1.42 6.59 0 2.91-.47 5.38-1.42 7.39-.95 2.02-2.25 3.64-3.9 4.88s-3.6 2.12-5.86 2.66c-2.26.53-4.7.8-7.32.8h-5.9z"/><path d="m273.29 122.24h20.03l4.44 10.92h12.82l-22.43-51.56h-9.39l-22.28 51.56h12.53l4.3-10.92zm9.83-25.64 6.34 16.02h-12.6z"/><path d="m313.42 81.6h11.36v51.56h-11.36z"/><path d="m362.5 131.48c3.5-1.12 6.58-2.75 9.25-4.92 2.67-2.16 4.79-4.83 6.37-8.01s2.37-6.86 2.37-11.03c0-4.71-.81-8.71-2.44-12.02-1.63-3.3-3.82-5.98-6.59-8.05-2.77-2.06-6.01-3.56-9.72-4.48s-7.64-1.38-11.76-1.38h-17.04v51.56h18.57c3.83 0 7.5-.56 11-1.67zm-18.21-8.81v-30.59h6.7c2.38 0 4.65.3 6.81.91s4.04 1.52 5.64 2.73 2.88 2.76 3.82 4.62c.95 1.87 1.42 4.07 1.42 6.59 0 2.91-.47 5.38-1.42 7.39-.95 2.02-2.25 3.64-3.9 4.88s-3.6 2.12-5.86 2.66c-2.26.53-4.7.8-7.32.8h-5.9z"/><path d="m62.38 179.98h-.11l-21.84-32.59h-7.05v39.65h5.37v-32.59h.11l22.07 32.59h6.83v-39.65h-5.38z"/><path d="m83.27 169.29h18.82v-5.04h-18.82v-11.82h20.22v-5.04h-25.59v39.65h26.59v-5.04h-21.22z"/><path d="m107.57 152.43h12.77v34.61h5.38v-34.61h12.77v-5.04h-30.92z"/><path d="m178.39 179.09-9.33-31.7h-6.16l-9.32 31.7h-.12l-8.76-31.7h-5.6l11.59 39.65h5.72l9.52-32.37h.11l9.57 32.37h5.72l11.53-39.65h-5.6l-8.76 31.7z"/><path d="m231.03 152.38c-1.81-1.87-3.99-3.33-6.52-4.4-2.54-1.06-5.32-1.6-8.34-1.6s-5.81.53-8.34 1.6c-2.54 1.06-4.71 2.53-6.52 4.4s-3.23 4.07-4.26 6.61-1.54 5.28-1.54 8.23.51 5.69 1.54 8.23 2.44 4.74 4.26 6.61c1.81 1.87 3.98 3.33 6.52 4.4 2.54 1.06 5.32 1.6 8.34 1.6s5.8-.53 8.34-1.6c2.54-1.06 4.71-2.53 6.52-4.4s3.23-4.07 4.26-6.61 1.54-5.28 1.54-8.23-.51-5.69-1.54-8.23-2.45-4.74-4.26-6.61zm-.98 20.97c-.71 1.92-1.72 3.59-3.02 5.01-1.31 1.42-2.88 2.55-4.7 3.39-1.83.84-3.88 1.26-6.16 1.26s-4.33-.42-6.16-1.26-3.4-1.97-4.7-3.39c-1.31-1.42-2.32-3.09-3.02-5.01-.71-1.92-1.06-3.97-1.06-6.13s.35-4.21 1.06-6.13 1.72-3.59 3.02-5.01c1.31-1.42 2.87-2.55 4.7-3.39s3.88-1.26 6.16-1.26 4.33.42 6.16 1.26 3.4 1.97 4.7 3.39c1.31 1.42 2.31 3.09 3.02 5.01s1.06 3.97 1.06 6.13-.36 4.21-1.06 6.13z"/><path d="m265.46 167.75c1.21-.65 2.24-1.46 3.08-2.41s1.48-2.02 1.93-3.19c.45-1.18.67-2.4.67-3.67s-.19-2.51-.56-3.84c-.37-1.32-1.04-2.52-1.99-3.58s-2.25-1.94-3.89-2.63-3.73-1.04-6.27-1.04h-13.94v39.65h5.38v-17.47h5.99l10.08 17.47h6.72l-11.26-18.09c1.49-.15 2.85-.55 4.06-1.2zm-8.54-2.89h-7.06v-12.77h7.06c1.04 0 2.08.08 3.11.25s1.94.48 2.74.92c.8.45 1.45 1.09 1.93 1.93s.73 1.93.73 3.28-.24 2.44-.73 3.28-1.13 1.48-1.93 1.93-1.72.76-2.74.92c-1.03.17-2.06.25-3.11.25z"/><path d="m309.51 147.39h-7.51l-17.52 17.14h-.45v-17.14h-5.38v39.65h5.38v-19.83h.45l18.48 19.83h7.84l-20.44-21.34z"/><path d="m0 0v217.5h436v-217.5zm425 206.5h-414v-195.5h414z"/></svg>