<svg xmlns="http://www.w3.org/2000/svg" viewBox="0 0 436 217.5" style="fill:#4F47E5"><rect class="cls-1" x="32.38" y="29.39" width="5.38" height="39.65"></rect><polygon class="cls-1" points="50.91 36.45 51.02 36.45 73.09 69.04 79.92 69.04 79.92 29.39 74.54 29.39 74.54 61.98 74.43 61.98 52.59 29.39 45.54 29.39 45.54 69.04 50.91 69.04 50.91 36.45"></polygon><path class="cls-1" d="M109.12,67.36c2.71-1.12,4.97-2.6,6.8-4.45,1.83-1.85,3.21-3.96,4.14-6.33.93-2.37,1.4-4.82,1.4-7.36,0-1.23-.13-2.58-.39-4.03-.26-1.46-.69-2.91-1.29-4.37-.6-1.46-1.41-2.87-2.44-4.26-1.03-1.38-2.32-2.6-3.86-3.67-1.55-1.06-3.38-1.91-5.49-2.55-2.11-.63-4.56-.95-7.36-.95h-13.83v39.65h12.94c3.55,0,6.67-.56,9.38-1.68ZM92.18,64v-29.57h8.06c3.21,0,5.82.53,7.84,1.6s3.59,2.36,4.73,3.89c1.14,1.53,1.91,3.15,2.32,4.84.41,1.7.62,3.18.62,4.45,0,2.46-.45,4.62-1.34,6.47s-2.11,3.39-3.64,4.62c-1.53,1.23-3.31,2.16-5.35,2.77-2.04.62-4.19.92-6.47.92h-6.78Z"></path><polygon class="cls-1" points="153.39 64 132.17 64 132.17 51.29 150.98 51.29 150.98 46.25 132.17 46.25 132.17 34.43 152.38 34.43 152.38 29.39 126.79 29.39 126.79 69.04 153.39 69.04 153.39 64"></polygon><path class="cls-1" d="M163.97,51.57h8.57c2.54,0,4.63-.34,6.27-1.04,1.64-.69,2.94-1.57,3.89-2.63.95-1.06,1.61-2.26,1.99-3.58.37-1.32.56-2.6.56-3.84s-.19-2.51-.56-3.84c-.37-1.32-1.04-2.52-1.99-3.58-.95-1.06-2.25-1.94-3.89-2.63-1.64-.69-3.73-1.04-6.27-1.04h-13.94v39.65h5.38v-17.47ZM163.97,34.1h7.06c1.04,0,2.08.08,3.11.25,1.03.17,1.94.48,2.74.92.8.45,1.45,1.09,1.93,1.93.48.84.73,1.93.73,3.28s-.24,2.44-.73,3.28c-.49.84-1.13,1.48-1.93,1.93-.8.45-1.72.76-2.74.92-1.03.17-2.06.25-3.11.25h-7.06v-12.77Z"></path><polygon class="cls-1" points="216 64 194.77 64 194.77 51.29 213.59 51.29 213.59 46.25 194.77 46.25 194.77 34.43 214.99 34.43 214.99 29.39 189.4 29.39 189.4 69.04 216 69.04 216 64"></polygon><polygon class="cls-1" points="226.58 36.45 226.69 36.45 248.76 69.04 255.59 69.04 255.59 29.39 250.21 29.39 250.21 61.98 250.1 61.98 228.26 29.39 221.21 29.39 221.21 69.04 226.58 69.04 226.58 36.45"></polygon><path class="cls-1" d="M284.79,67.36c2.71-1.12,4.97-2.6,6.8-4.45,1.83-1.85,3.21-3.96,4.14-6.33.93-2.37,1.4-4.82,1.4-7.36,0-1.23-.13-2.58-.39-4.03-.26-1.46-.69-2.91-1.29-4.37-.6-1.46-1.41-2.87-2.44-4.26-1.03-1.38-2.32-2.6-3.86-3.67-1.55-1.06-3.38-1.91-5.49-2.55-2.11-.63-4.56-.95-7.36-.95h-13.83v39.65h12.94c3.55,0,6.67-.56,9.38-1.68ZM267.85,64v-29.57h8.06c3.21,0,5.82.53,7.84,1.6,2.02,1.06,3.59,2.36,4.73,3.89,1.14,1.53,1.91,3.15,2.32,4.84.41,1.7.62,3.18.62,4.45,0,2.46-.45,4.62-1.34,6.47-.9,1.85-2.11,3.39-3.64,4.62-1.53,1.23-3.31,2.16-5.35,2.77-2.04.62-4.19.92-6.47.92h-6.78Z"></path><polygon class="cls-1" points="329.06 64 307.84 64 307.84 51.29 326.65 51.29 326.65 46.25 307.84 46.25 307.84 34.43 328.05 34.43 328.05 29.39 302.46 29.39 302.46 69.04 329.06 69.04 329.06 64"></polygon><polygon class="cls-1" points="339.64 36.45 339.76 36.45 361.82 69.04 368.65 69.04 368.65 29.39 363.28 29.39 363.28 61.98 363.16 61.98 341.32 29.39 334.27 29.39 334.27 69.04 339.64 69.04 339.64 36.45"></polygon><polygon class="cls-1" points="384.72 69.04 390.1 69.04 390.1 34.43 402.87 34.43 402.87 29.39 371.96 29.39 371.96 34.43 384.72 34.43 384.72 69.04"></polygon><polygon class="cls-1" points="43.32 113.06 64.8 113.06 64.8 102.57 43.32 102.57 43.32 92.09 66.55 92.09 66.55 81.6 31.96 81.6 31.96 133.16 43.32 133.16 43.32 113.06"></polygon><path class="cls-1" d="M71.83,96.16c-1.38,3.35-2.08,7.09-2.08,11.21s.69,7.86,2.08,11.21c1.38,3.35,3.31,6.2,5.79,8.56,2.48,2.36,5.41,4.16,8.81,5.43,3.4,1.26,7.11,1.89,11.14,1.89s7.74-.63,11.14-1.89c3.4-1.26,6.34-3.07,8.81-5.43,2.48-2.35,4.41-5.21,5.79-8.56,1.38-3.35,2.08-7.09,2.08-11.21s-.69-7.87-2.08-11.21c-1.38-3.35-3.31-6.2-5.79-8.56-2.48-2.35-5.41-4.16-8.81-5.43-3.4-1.26-7.11-1.89-11.14-1.89s-7.74.63-11.14,1.89c-3.4,1.26-6.34,3.07-8.81,5.43-2.48,2.36-4.41,5.21-5.79,8.56ZM82.68,100.75c.75-2.04,1.83-3.8,3.24-5.28,1.41-1.48,3.1-2.63,5.06-3.46,1.97-.83,4.16-1.24,6.59-1.24s4.62.41,6.59,1.24c1.97.83,3.65,1.98,5.06,3.46,1.41,1.48,2.49,3.24,3.24,5.28.75,2.04,1.13,4.25,1.13,6.63s-.38,4.65-1.13,6.66c-.75,2.02-1.83,3.76-3.24,5.24-1.41,1.48-3.1,2.63-5.06,3.46-1.97.83-4.16,1.24-6.59,1.24s-4.62-.41-6.59-1.24c-1.97-.83-3.65-1.98-5.06-3.46-1.41-1.48-2.49-3.23-3.24-5.24-.75-2.01-1.13-4.23-1.13-6.66s.38-4.59,1.13-6.63Z"></path><path class="cls-1" d="M136.02,87.61c-2.48,2.36-4.41,5.21-5.79,8.56-1.38,3.35-2.08,7.09-2.08,11.21s.69,7.86,2.08,11.21c1.38,3.35,3.31,6.2,5.79,8.56,2.48,2.36,5.41,4.16,8.81,5.43,3.4,1.26,7.11,1.89,11.14,1.89s7.74-.63,11.14-1.89c3.4-1.26,6.34-3.07,8.81-5.43,2.48-2.35,4.41-5.21,5.79-8.56,1.38-3.35,2.08-7.09,2.08-11.21s-.69-7.87-2.08-11.21c-1.38-3.35-3.31-6.2-5.79-8.56-2.48-2.35-5.41-4.16-8.81-5.43-3.4-1.26-7.11-1.89-11.14-1.89s-7.74.63-11.14,1.89c-3.4,1.26-6.34,3.07-8.81,5.43ZM155.98,90.78c2.43,0,4.62.41,6.59,1.24,1.97.83,3.65,1.98,5.06,3.46,1.41,1.48,2.49,3.24,3.24,5.28.75,2.04,1.13,4.25,1.13,6.63s-.38,4.65-1.13,6.66c-.75,2.02-1.83,3.76-3.24,5.24-1.41,1.48-3.1,2.63-5.06,3.46-1.97.83-4.16,1.24-6.59,1.24s-4.62-.41-6.59-1.24c-1.97-.83-3.65-1.98-5.06-3.46-1.41-1.48-2.49-3.23-3.24-5.24-.75-2.01-1.13-4.23-1.13-6.66s.38-4.59,1.13-6.63c.75-2.04,1.83-3.8,3.24-5.28,1.41-1.48,3.1-2.63,5.06-3.46,1.97-.83,4.16-1.24,6.59-1.24Z"></path><path class="cls-1" d="M218.89,131.48c3.5-1.12,6.58-2.75,9.25-4.92,2.67-2.16,4.79-4.83,6.37-8.01,1.58-3.18,2.37-6.86,2.37-11.03,0-4.71-.81-8.71-2.44-12.02-1.63-3.3-3.82-5.98-6.59-8.05-2.77-2.06-6.01-3.56-9.72-4.48-3.71-.92-7.64-1.38-11.76-1.38h-17.04v51.56h18.57c3.83,0,7.5-.56,11-1.67ZM200.69,122.67v-30.59h6.7c2.38,0,4.65.3,6.81.91,2.16.61,4.04,1.52,5.64,2.73,1.6,1.21,2.88,2.76,3.82,4.62.95,1.87,1.42,4.07,1.42,6.59,0,2.91-.47,5.38-1.42,7.39-.95,2.02-2.25,3.64-3.9,4.88-1.65,1.24-3.6,2.12-5.86,2.66-2.26.53-4.7.8-7.32.8h-5.9Z"></path><path class="cls-1" d="M273.29,122.24h20.03l4.44,10.92h12.82l-22.43-51.56h-9.39l-22.28,51.56h12.53l4.3-10.92ZM283.12,96.6l6.34,16.02h-12.6l6.26-16.02Z"></path><rect class="cls-1" x="313.42" y="81.6" width="11.36" height="51.56"></rect><path class="cls-1" d="M362.5,131.48c3.5-1.12,6.58-2.75,9.25-4.92,2.67-2.16,4.79-4.83,6.37-8.01,1.58-3.18,2.37-6.86,2.37-11.03,0-4.71-.81-8.71-2.44-12.02-1.63-3.3-3.82-5.98-6.59-8.05-2.77-2.06-6.01-3.56-9.72-4.48-3.71-.92-7.64-1.38-11.76-1.38h-17.04v51.56h18.57c3.83,0,7.5-.56,11-1.67ZM344.29,122.67v-30.59h6.7c2.38,0,4.65.3,6.81.91,2.16.61,4.04,1.52,5.64,2.73,1.6,1.21,2.88,2.76,3.82,4.62.95,1.87,1.42,4.07,1.42,6.59,0,2.91-.47,5.38-1.42,7.39-.95,2.02-2.25,3.64-3.9,4.88-1.65,1.24-3.6,2.12-5.86,2.66-2.26.53-4.7.8-7.32.8h-5.9Z"></path><polygon class="cls-1" points="62.38 179.98 62.27 179.98 40.43 147.39 33.38 147.39 33.38 187.04 38.75 187.04 38.75 154.45 38.86 154.45 60.93 187.04 67.76 187.04 67.76 147.39 62.38 147.39 62.38 179.98"></polygon><polygon class="cls-1" points="83.27 169.29 102.09 169.29 102.09 164.25 83.27 164.25 83.27 152.43 103.49 152.43 103.49 147.39 77.9 147.39 77.9 187.04 104.49 187.04 104.49 182 83.27 182 83.27 169.29"></polygon><polygon class="cls-1" points="107.57 152.43 120.34 152.43 120.34 187.04 125.72 187.04 125.72 152.43 138.49 152.43 138.49 147.39 107.57 147.39 107.57 152.43"></polygon><polygon class="cls-1" points="178.39 179.09 169.06 147.39 162.9 147.39 153.58 179.09 153.46 179.09 144.7 147.39 139.1 147.39 150.69 187.04 156.41 187.04 165.93 154.67 166.04 154.67 175.61 187.04 181.33 187.04 192.86 147.39 187.26 147.39 178.5 179.09 178.39 179.09"></polygon><path class="cls-1" d="M231.03,152.38c-1.81-1.87-3.99-3.33-6.52-4.4-2.54-1.06-5.32-1.6-8.34-1.6s-5.81.53-8.34,1.6c-2.54,1.06-4.71,2.53-6.52,4.4-1.81,1.87-3.23,4.07-4.26,6.61-1.03,2.54-1.54,5.28-1.54,8.23s.51,5.69,1.54,8.23c1.03,2.54,2.44,4.74,4.26,6.61,1.81,1.87,3.98,3.33,6.52,4.4,2.54,1.06,5.32,1.6,8.34,1.6s5.8-.53,8.34-1.6c2.54-1.06,4.71-2.53,6.52-4.4,1.81-1.87,3.23-4.07,4.26-6.61,1.03-2.54,1.54-5.28,1.54-8.23s-.51-5.69-1.54-8.23c-1.03-2.54-2.45-4.74-4.26-6.61ZM230.05,173.35c-.71,1.92-1.72,3.59-3.02,5.01-1.31,1.42-2.88,2.55-4.7,3.39-1.83.84-3.88,1.26-6.16,1.26s-4.33-.42-6.16-1.26c-1.83-.84-3.4-1.97-4.7-3.39-1.31-1.42-2.32-3.09-3.02-5.01-.71-1.92-1.06-3.97-1.06-6.13s.35-4.21,1.06-6.13c.71-1.92,1.72-3.59,3.02-5.01,1.31-1.42,2.87-2.55,4.7-3.39,1.83-.84,3.88-1.26,6.16-1.26s4.33.42,6.16,1.26c1.83.84,3.4,1.97,4.7,3.39,1.31,1.42,2.31,3.09,3.02,5.01.71,1.92,1.06,3.97,1.06,6.13s-.36,4.21-1.06,6.13Z"></path><path class="cls-1" d="M265.46,167.75c1.21-.65,2.24-1.46,3.08-2.41.84-.95,1.48-2.02,1.93-3.19.45-1.18.67-2.4.67-3.67s-.19-2.51-.56-3.84c-.37-1.32-1.04-2.52-1.99-3.58s-2.25-1.94-3.89-2.63c-1.64-.69-3.73-1.04-6.27-1.04h-13.94v39.65h5.38v-17.47h5.99l10.08,17.47h6.72l-11.26-18.09c1.49-.15,2.85-.55,4.06-1.2ZM256.92,164.86h-7.06v-12.77h7.06c1.04,0,2.08.08,3.11.25,1.03.17,1.94.48,2.74.92.8.45,1.45,1.09,1.93,1.93s.73,1.93.73,3.28-.24,2.44-.73,3.28c-.49.84-1.13,1.48-1.93,1.93-.8.45-1.72.76-2.74.92-1.03.17-2.06.25-3.11.25Z"></path><polygon class="cls-1" points="309.51 147.39 302 147.39 284.48 164.53 284.03 164.53 284.03 147.39 278.65 147.39 278.65 187.04 284.03 187.04 284.03 167.21 284.48 167.21 302.96 187.04 310.8 187.04 290.36 165.7 309.51 147.39"></polygon><path class="cls-1" d="M0,0v217.5h436V0H0ZM425,206.5H11V11h414v195.5Z"></path></svg>