<svg height="40" viewBox="0 0 138 40" width="138" xmlns="http://www.w3.org/2000/svg"><path d="m125.73.148c.413.098.821.217 1.238.29 3.345.586 6.317 1.967 8.848 4.288.195.18.37.382.592.615-1.635 1.895-3.414 3.6-5.074 5.493-.13-.129-.23-.22-.32-.318-1.75-1.913-3.906-3.044-6.444-3.381-.886-.118-1.793-.108-2.672.13-1.318.358-2.333 1.094-2.725 2.488-.369 1.315.116 2.64 1.2 3.46.983.743 2.093 1.222 3.237 1.633 2.05.739 4.123 1.414 6.143 2.228 2.059.83 3.982 1.918 5.491 3.638 1.39 1.583 2.288 3.385 2.583 5.507.422 3.028-.34 5.755-1.951 8.27-.987 1.542-2.354 2.677-3.935 3.539-1.987 1.084-4.111 1.704-6.366 1.83-1.014.058-2.032.139-3.045.108-2.927-.09-5.761-.66-8.409-1.977-1.98-.985-3.698-2.339-5.14-4.045-.044-.053-.07-.123-.123-.22 1.69-1.799 3.38-3.595 5.126-5.452.22.24.414.445.6.657 1.11 1.27 2.409 2.275 3.938 2.968 1.046.473 2.131.747 3.272.896 1.106.145 2.174.043 3.234-.206 1.042-.245 1.95-.778 2.56-1.695 1.191-1.79.675-3.75-.96-4.923-.8-.574-1.719-1.013-2.635-1.382-1.48-.598-3.005-1.083-4.509-1.624-1.53-.55-3.034-1.163-4.418-2.039-2.443-1.547-4.194-3.64-4.83-6.553-.574-2.626-.18-5.134 1.062-7.507 1.531-2.926 3.882-4.86 6.937-5.935.891-.314 1.804-.547 2.746-.652.082-.009.158-.084.237-.129h4.512zm-75.336 27.933c.198.035.29.065.38.065 2.298-.01 4.595-.021 6.892-.035.02 0 .043-.024.059-.042.014-.017.019-.041.056-.128l-3.591-8.974h-.143zm4.88-27.933c.394.301.656.695.85 1.155 1.127 2.692 2.26 5.381 3.401 8.067 1.035 2.438 2.085 4.87 3.123 7.306 1.19 2.798 2.37 5.601 3.563 8.398.885 2.076 1.783 4.147 2.676 6.219 1.067 2.478 2.136 4.955 3.202 7.433.067.155.114.317.185.52h-9.944c-.397-.977-.804-1.974-1.206-2.972-.128-.318-.254-.638-.364-.962-.118-.348-.321-.507-.705-.487-.604.03-1.212.009-1.818.009h-9.675c-.145 0-.291.01-.436-.003-.305-.025-.477.087-.596.4-.41 1.077-.853 2.141-1.286 3.21-.11.27-.228.536-.347.816h-8.36c.041-.195.05-.36.112-.503 1.606-3.742 3.223-7.479 4.827-11.222 1.97-4.599 3.933-9.202 5.895-13.805 1.192-2.797 2.377-5.596 3.563-8.396.555-1.31 1.11-2.62 1.653-3.934.21-.51.484-.957.96-1.249h.728zm-55.274.458c.699.108 1.196.43 1.634.876 1.832 1.87 3.668 3.737 5.503 5.604 3.138 3.194 6.277 6.388 9.416 9.58.134.137.28.262.448.42.181-.167.345-.305.495-.457 4.94-5.024 9.882-10.049 14.817-15.079.456-.464.954-.824 1.59-.928.037.032.057.046.074.064.016.016.04.035.042.055.012.097.024.195.024.293l.001 38.123c-.525.155-6.51.208-7.84.072v-18.375c-.653.495-1.088 1.039-1.578 1.52-.524.513-1.032 1.044-1.547 1.567l-1.492 1.52-1.492 1.517c-.516.523-1.037 1.039-1.548 1.567-.492.509-.972 1.03-1.509 1.599l-9.086-9.234c-.065.044-.085.052-.097.067-.015.018-.029.042-.032.065-.007.048-.01.098-.01.147-.005 5.974-.009 11.948-.015 17.921 0 .023-.016.044-.025.066-.502.132-6.678.173-7.773.047zm84.738 7.011c-.119.972-.09 9.734.036 10.334 1.6-.038 3.221.123 4.822-.185 1.3-.25 2.4-.87 3.145-2.04.457-.719.66-1.506.754-2.353.132-1.19-.058-2.308-.638-3.333-.874-1.543-2.307-2.187-3.971-2.333-1.154-.1-2.318-.096-3.477-.131-.212-.007-.424.025-.671.04m-9.028 31.582v-38.389c.172-.015.356-.046.54-.046 4.074-.003 8.15-.03 12.223.01 2.029.019 4.058.153 6.025.73 2.438.716 4.508 2.017 6.07 4.077 1.228 1.621 1.851 3.473 2.027 5.513.136 1.568-.02 3.087-.468 4.582-.677 2.254-2.032 4-3.902 5.357-.212.153-.425.304-.685.489.367.291.67.533.974.772 1.169.92 2.023 2.103 2.772 3.382.971 1.658 1.618 3.456 2.237 5.267.831 2.434 1.66 4.869 2.486 7.304.108.318.196.643.313 1.03h-9.268c-.145 0-.291-.004-.437 0-.228.008-.357-.096-.41-.325-.292-1.24-.568-2.484-.888-3.717-.649-2.491-1.29-4.99-2.493-7.283-.764-1.457-1.873-2.502-3.512-2.84-.495-.103-1.002-.18-1.506-.197-.92-.03-1.843-.01-2.764-.003-.092 0-.184.045-.24.06-.047.048-.066.063-.079.083s-.022.044-.03.067-.016.046-.018.07c-.004.05-.007.099-.007.148-.004 4.591-.008 9.182-.014 13.773 0 .022-.018.044-.027.065-.53.127-8.136.148-8.92.02" fill="#0000a0" fill-rule="evenodd"/></svg>