<svg xmlns="http://www.w3.org/2000/svg" viewBox="0 0 294.03 154.96"><g transform="matrix(.13333333 0 0 -.13333333 0 154.96)"><path d="m0 0h2205.2v1162.2h-2205.2z" fill="#3d5161"/><g fill="#f8bd41"><path d="m878.887 560.789c-.649 5.41-2.192 10.75-4.629 16-2.442 5.238-5.699 9.899-9.762 13.961-4.07 4.059-8.867 7.277-14.398 9.648-5.532 2.36-11.551 3.551-18.051 3.551-13.352 0-24.731-4.402-34.16-13.199-9.442-8.801-14.969-18.789-16.59-29.961zm59.051-115.762c-11.391-14.218-25.79-25.129-43.192-32.75-17.398-7.609-35.367-11.418-53.918-11.418-17.57 0-33.91 3.039-49.043 9.137-15.129 6.094-28.226 14.723-39.277 25.895-11.07 11.168-19.77 24.629-26.11 40.367-6.351 15.742-9.519 33.254-9.519 52.551 0 17.257 2.687 33.589 8.047 48.988 5.371 15.402 13.101 29.023 23.179 40.883 10.083 11.84 22.211 21.226 36.364 28.179 14.148 6.93 30.008 10.399 47.578 10.399 16.262 0 31.23-3.379 44.891-10.149 13.667-6.769 25.46-15.832 35.378-27.16 9.922-11.347 17.653-24.629 23.18-39.859 5.531-15.231 8.301-31.481 8.301-48.75 0-7.102-.488-13.371-1.469-18.781h-163.961c.981-8.813 3.25-16.762 6.828-23.86 3.582-7.109 8.211-13.211 13.91-18.281 5.692-5.078 12.204-9.059 19.524-11.93 7.316-2.89 15.199-4.32 23.668-4.32 13.66 0 25.621 3.133 35.859 9.391 10.25 6.257 18.129 12.609 23.672 19.039z"/><path d="m1157.93 565.871c-6.51 9.141-14.8 16.5-24.88 22.082-10.08 5.59-21.32 8.379-33.67 8.379-9.44 0-17.9-1.859-25.37-5.578-7.5-3.731-13.84-8.723-19.04-14.981-5.2-6.269-9.27-13.46-12.2-21.582-2.93-8.117-4.38-16.589-4.38-25.386 0-9.821 1.52-18.782 4.63-26.91 3.08-8.122 7.47-15.153 13.18-21.071 5.68-5.929 12.35-10.582 20-13.961 7.65-3.39 15.86-5.082 24.64-5.082 12.03 0 23.01 2.793 32.95 8.383 9.91 5.578 17.97 12.949 24.14 22.09zm63.45-159.937h-61.01v19.8c-9.75-8.8-20.16-15.152-31.23-19.043-11.06-3.886-22.6-5.836-34.65-5.836-17.56 0-34.23 3.727-50.01 11.168-15.78 7.442-28.88 17.598-39.28 30.469-9.446 11.172-16.837 24.121-22.204 38.84-5.371 14.723-8.051 30.539-8.051 47.473 0 18.277 3 35.199 9.032 50.777 6.007 15.563 14.308 29.102 24.873 40.621 10.58 11.5 22.86 20.559 36.85 27.16 13.99 6.602 29.12 9.899 45.39 9.899 13.65 0 26.26-2.207 37.82-6.598 11.53-4.402 22.03-10.5 31.46-18.281v19.801h61.01z"/><path d="m1489.58 456.199c-13.99-19.301-29.77-33.34-47.34-42.14-17.56-8.801-37.57-13.2-60.02-13.2-18.22 0-35.13 3.301-50.75 9.903-15.62 6.597-29.03 15.738-40.26 27.41-11.22 11.68-20.01 25.219-26.35 40.621-6.34 15.395-9.52 32.066-9.52 50.016 0 17.929 3.25 34.691 9.76 50.261 6.51 15.571 15.45 29.2 26.84 40.879 11.39 11.672 24.81 20.813 40.26 27.41 15.45 6.602 32.29 9.903 50.51 9.903 20.5 0 39.44-4.492 56.85-13.453 17.4-8.969 31.64-20.911 42.7-35.797l-44.9-41.121c-6.51 8.789-14.39 15.898-23.66 21.32-9.28 5.406-19.61 8.129-30.99 8.129-9.11 0-17.57-1.781-25.38-5.34-7.8-3.551-14.56-8.371-20.25-14.469-5.69-6.093-10.17-13.203-13.42-21.324-3.25-8.129-4.88-16.93-4.88-26.398 0-9.821 1.63-18.789 4.88-26.911 3.25-8.128 7.73-15.16 13.42-21.07 5.69-5.93 12.52-10.59 20.5-13.969 7.97-3.39 16.83-5.078 26.59-5.078 13.01 0 24.4 3.379 34.16 10.16 9.76 6.77 17.24 14.219 22.45 22.34z"/><path d="m1582.11 405.934h-63.44v355.16h63.44v-126.68c8.78 7.109 18.62 12.699 29.52 16.758 10.9 4.062 22.53 6.09 34.9 6.09 16.59 0 31.96-3.547 46.11-10.66 14.15-7.11 26.11-16.758 35.87-28.938 7.8-9.82 13.82-21.332 18.05-34.531s6.35-30.461 6.35-51.789v-125.41h-63.44v130.488c0 12.18-1.22 21.742-3.66 28.691-2.44 6.93-5.94 12.77-10.49 17.512-8.79 9.137-20.67 13.707-35.63 13.707-6.83 0-13.26-1.008-19.27-3.039-6.02-2.039-11.47-4.57-16.35-7.617-4.88-3.051-9.2-6.352-12.93-9.903-3.74-3.558-6.76-6.859-9.03-9.902z"/><path d="m513.125 699.652h61.73c61.629 0 61.629-33.808 61.629-44.929 0-11.391 0-46.059-61.629-46.059h-61.73zm116.191-143.078c43.559 15.489 68.879 50.891 68.879 98.149 0 33.379-11.73 60.871-33.929 79.5-21.442 18-51.45 27.129-89.192 27.129h-122.777v-355.418h60.828v141.937h49.77l73.171-141.937h72.239z"/></g></g></svg>