<svg width="145" height="38" viewBox="0 0 145 38" fill="none" xmlns="http://www.w3.org/2000/svg">
<g clip-path="url(#clip0_21335_3930)">
<path d="M29.5331 22.488C29.5331 29.1313 23.7325 36.2964 14.3373 36.2964C5.9 36.2964 0.861816 30.6637 0.861816 21.2074C0.861816 14.1765 3.17043 5.27847 5.80222 2.16888C6.74357 1.05394 7.76446 0.512207 8.92623 0.512207C10.6399 0.512207 11.5166 1.48633 11.5166 3.41139C11.5166 5.18404 11.1371 7.7784 10.736 10.5252C10.2388 13.9015 9.68693 17.7301 9.68693 20.9622C9.68693 25.5247 11.6227 28.1406 14.9986 28.1406C18.1756 28.1406 20.3317 26.0068 22.9536 20.2648C23.6745 18.6843 24.3507 18.0978 25.4395 18.0978C27.8526 18.1028 29.5331 19.9053 29.5331 22.488Z" fill="#00AB52"/>
<path d="M42.3755 15.6045C42.3755 22.6355 40.0669 31.5335 37.4351 34.6563C36.4937 35.768 35.4728 36.313 34.3111 36.313C32.5941 36.313 31.7224 35.3372 31.7224 33.4155C31.7224 31.6445 32.0986 29.0568 32.4996 26.3001C32.9968 22.9237 33.552 19.0985 33.552 15.863C33.552 11.3005 31.6146 8.68294 28.2371 8.68294C25.06 8.68294 22.9055 10.8184 20.282 16.5604C19.5628 18.1393 18.8883 18.7274 17.7961 18.7274C15.388 18.7274 13.7042 16.9233 13.7042 14.3422C13.7009 7.68065 19.5114 0.512207 28.8983 0.512207C37.3373 0.512207 42.3755 6.15319 42.3755 15.6045Z" fill="#00AB52"/>
<path d="M84.4128 6.93347H84.3697C83.2991 6.9517 82.8516 7.46361 82.8782 8.64648C82.8782 8.99935 82.9345 9.71669 82.9859 10.4688C83.0472 11.3585 83.1168 12.3674 83.1268 12.9538C83.1649 15.1456 82.908 16.8189 82.3644 17.9239C81.8208 19.0289 81.012 19.5706 79.9282 19.5806C78.3753 19.6054 77.5964 18.5137 77.5582 16.2374C77.5301 14.6089 77.83 12.5778 78.072 10.9443C78.2228 9.92875 78.3405 9.12194 78.3339 8.71937C78.309 7.6359 77.7604 7.04613 76.766 7.06435C75.3789 7.0892 74.5055 8.78398 74.0166 10.2004C73.4169 12.032 73.1202 13.9491 73.1382 15.8762C73.2227 20.7833 75.6242 23.4754 79.905 23.4754H80.0806C82.5053 23.434 84.3565 22.5626 85.5812 20.886C86.8507 19.1465 87.4639 16.5107 87.4042 13.0499C87.3313 9.04739 86.2988 6.93347 84.4128 6.93347Z" fill="black"/>
<path d="M110.487 13.3365C110.118 13.2421 109.201 13.0201 108.762 12.9141L108.692 12.8975C107.426 12.591 106.929 12.2266 106.929 11.597C106.929 10.3976 108.452 10.2187 109.36 10.2187C110.356 10.2357 111.346 10.3657 112.312 10.6063C112.726 10.7156 113.149 10.7838 113.576 10.8101C114.324 10.8101 114.768 10.2601 114.829 9.25945C114.837 9.04746 114.801 8.83614 114.721 8.6394C114.642 8.44266 114.522 8.26497 114.368 8.118C113.493 7.18695 111.478 6.58557 109.231 6.58557C105.419 6.58557 102.958 8.57359 102.958 11.655C102.958 14.1748 104.552 15.7702 107.83 16.5323C108.328 16.6466 109.322 16.8636 109.697 16.9531C110.986 17.233 111.641 17.5362 111.641 18.4143C111.641 19.68 109.851 19.7794 109.302 19.7794C107.852 19.7794 106.674 19.4066 105.724 19.1167C105.109 18.9212 104.624 18.7688 104.232 18.7688C103.367 18.7688 102.915 19.4679 102.915 20.1571C102.915 22.0772 105.53 23.4704 109.133 23.4704C113.179 23.4704 115.693 21.4824 115.693 18.2652C115.701 15.6045 114.337 14.3173 110.487 13.3365Z" fill="black"/>
<path d="M96.7531 13.1229L95.9128 12.9456C95.5416 12.8694 95.1902 12.7965 94.9615 12.7451C93.7467 12.4701 93.1286 12.2067 93.1286 11.5242C93.1286 10.7339 93.9456 10.2982 95.4256 10.2982C96.7928 10.3356 98.1457 10.5877 99.4346 11.0454C100.235 11.3386 100.855 11.0851 101.178 10.3363C101.295 10.0536 101.339 9.7455 101.304 9.44137C101.268 9.13723 101.156 8.8471 100.978 8.59847C100.149 7.34105 98.0872 6.59058 95.462 6.59058C91.5508 6.59058 89.1212 8.49079 89.1212 11.5507C89.1212 14.092 90.6658 15.6808 93.8445 16.4047C94.4097 16.534 95.2466 16.7079 95.6957 16.8007L95.7852 16.8189C97.3016 17.1337 97.8121 17.4816 97.8121 18.1873C97.8121 19.2078 96.9205 19.7247 95.1604 19.7247C93.2926 19.7247 91.8226 19.1051 90.6327 18.5004C90.1355 18.2453 89.6781 18.1973 89.3201 18.3613C88.9621 18.5253 88.7102 18.8881 88.5743 19.4398C88.4235 20.0594 88.5975 20.7287 89.0715 21.3267C90.0841 22.6206 92.28 23.3926 94.945 23.3926C99.3219 23.3926 101.831 21.4791 101.831 18.1426C101.828 15.2036 100.547 13.9313 96.7531 13.1229Z" fill="black"/>
<path d="M137.126 11.1762C137.126 9.29921 137.206 6.98814 137.269 5.13101C137.31 3.9266 137.345 2.88621 137.345 2.3395C137.345 0.868374 136.49 0.677856 135.651 0.677856C133.702 0.677856 132.755 3.70461 132.755 9.93206C132.755 20.3526 133.431 23.2054 135.903 23.2054C137.03 23.2054 137.41 22.8442 137.41 21.774C137.41 21.3383 137.375 20.4371 137.332 19.289C137.246 17.0674 137.126 14.0224 137.126 11.1762Z" fill="black"/>
<path d="M144.167 19.289C144.081 17.0674 143.963 14.0224 143.963 11.1713C143.963 9.29424 144.041 6.98317 144.105 5.12604C144.145 3.92163 144.182 2.88124 144.182 2.33453C144.182 0.868374 143.325 0.677856 142.488 0.677856C140.537 0.677856 139.589 3.70461 139.589 9.93206C139.589 20.3526 140.267 23.2054 142.738 23.2054C143.865 23.2054 144.246 22.8442 144.246 21.774C144.246 21.3317 144.218 20.4304 144.167 19.289Z" fill="black"/>
<path d="M66.3119 3.80898C66.3119 1.88226 64.1889 0.863403 60.1799 0.863403C56.5686 0.863403 53.2938 1.33556 50.957 2.18875C48.471 3.10158 47.1452 4.3855 47.1452 5.8997C47.1452 6.26583 47.2413 6.52924 47.4303 6.68331C47.6192 6.83738 47.9274 6.8904 48.3335 6.81253C50.372 6.40996 53.1943 5.961 53.9202 5.961C54.2948 5.961 54.4274 6.08525 54.4274 6.43481C54.4274 6.78437 54.3859 7.6591 54.3379 8.64482C54.2633 10.1358 54.1721 11.9996 54.1721 13.2404C54.1721 21.6332 55.3323 23.2252 57.4867 23.2252C58.4281 23.2252 58.9452 22.6984 58.9452 21.7442C58.9452 20.7402 58.8905 19.1962 58.8258 17.407C58.7397 15.0098 58.6319 12.0228 58.6319 9.40689C58.6319 5.66114 58.8325 5.33975 59.9578 5.21715C61.3946 5.05977 64.2916 4.87588 65.1584 4.83612C65.9754 4.80298 66.3119 4.50312 66.3119 3.80898Z" fill="black"/>
<path d="M70.2412 6.8689C68.9055 6.8689 67.5448 7.67404 66.8255 8.50569C66.5852 7.58624 65.9571 7.08261 65.0473 7.08261C63.211 7.08261 62.7271 8.73929 62.7271 15.139C62.7271 18.5733 62.9375 20.621 63.4065 21.7807C63.8872 22.9668 64.6247 23.2087 65.5859 23.2087C66.9581 23.2087 67.1902 22.4649 67.1902 20.7949C67.1902 19.9169 67.157 18.8318 67.1239 17.7814C67.0907 16.7576 67.0576 15.6973 67.0576 14.8607C67.0576 11.2624 68.3039 10.5533 70.4567 10.5533H71.2621C72.4222 10.5533 72.6659 10.0563 72.6659 9.32244C72.6742 7.69724 71.8554 6.8689 70.2412 6.8689Z" fill="black"/>
<path d="M130.131 18.5898C129.8 18.5898 129.339 18.7654 128.805 18.9675C127.977 19.284 126.949 19.6733 125.749 19.6733C124.092 19.6733 122.062 18.9013 121.548 17.2032L121.521 17.1137H121.618C122.319 17.1518 123.172 17.1634 124.306 17.1419C128.749 17.0607 130.883 15.5962 131.033 12.533C131.062 11.8152 130.943 11.0991 130.685 10.4287C130.427 9.75831 130.034 9.14784 129.531 8.63485C128.288 7.32938 126.449 6.58057 124.486 6.58057C119.889 6.58057 116.798 9.85748 116.798 14.7298C116.798 19.95 120.093 23.4571 124.997 23.4571C128.127 23.4571 131.294 22.2279 131.294 19.8771C131.291 19.5789 131.21 18.5898 130.131 18.5898ZM121.286 13.7507V13.6827C121.362 11.4247 122.552 10.1292 124.549 10.1292C125.862 10.1292 127.015 11.0453 127.015 12.0907C127.02 12.265 126.989 12.4385 126.923 12.6C126.857 12.7615 126.758 12.9074 126.633 13.0284C126.031 13.6099 124.765 13.7855 122.928 13.7855C122.441 13.7855 121.915 13.7744 121.351 13.7523L121.286 13.7507Z" fill="black"/>
<path d="M54.1472 30.074H58.2043V30.851H55.1151V32.5275H57.8728V33.2979H55.1151V35.1732H58.2043V35.9502H54.1472V30.074Z" fill="black"/>
<path d="M58.9103 31.3446H59.8368V31.9576C59.9829 31.7228 60.1888 31.5311 60.4334 31.4022C60.6781 31.2732 60.9526 31.2116 61.2289 31.2237C62.1885 31.2237 62.7851 31.7853 62.7851 32.8803V35.9568H61.8686V33.0642C61.8686 32.4015 61.5736 31.9923 60.9438 31.9923C60.2511 31.9923 59.8368 32.6053 59.8368 33.2448V35.9502H58.9103V31.3446Z" fill="black"/>
<path d="M63.5193 33.6458C63.5193 32.0803 64.2717 31.2171 65.4732 31.2171C65.7192 31.209 65.9631 31.2634 66.1823 31.3753C66.4014 31.4871 66.5885 31.6527 66.7262 31.8566V29.7278H67.6509V35.9503H66.7245V35.3887C66.5902 35.5982 66.4047 35.7701 66.1854 35.8881C65.9662 36.006 65.7205 36.0662 65.4716 36.0629C64.2535 36.0629 63.5193 35.1551 63.5193 33.6458ZM66.7262 33.6458C66.7262 32.5905 66.3118 31.9891 65.5942 31.9891C64.8766 31.9891 64.4623 32.5773 64.4623 33.6458C64.4623 34.7144 64.8766 35.2793 65.5942 35.2793C66.3118 35.2793 66.7262 34.7144 66.7262 33.6458Z" fill="black"/>
<path d="M68.5939 29.7278H69.5187V30.7731H68.5939V29.7278ZM68.5939 31.3447H69.5187V35.9503H68.5939V31.3447Z" fill="black"/>
<path d="M70.4435 31.3446H71.3699V31.9576C71.516 31.7228 71.7219 31.5311 71.9666 31.4022C72.2112 31.2732 72.4857 31.2116 72.762 31.2237C73.7216 31.2237 74.3182 31.7853 74.3182 32.8803V35.9568H73.4018V33.0642C73.4018 32.4015 73.1068 31.9923 72.477 31.9923C71.7842 31.9923 71.3699 32.6053 71.3699 33.2448V35.9502H70.4435V31.3446Z" fill="black"/>
<path d="M75.0524 33.6077C75.0524 32.0703 75.7783 31.2238 76.9367 31.2238C77.5251 31.2238 77.9659 31.4308 78.2626 31.8284V31.3447H79.189V36.0977C79.189 37.3601 78.3504 37.9731 77.2433 37.9731C76.1362 37.9731 75.3407 37.4545 75.1767 36.3826H76.1031C76.1893 36.936 76.6301 37.2292 77.2367 37.2292C77.8433 37.2292 78.2642 36.9095 78.2642 36.1143V35.3373C78.113 35.5448 77.9128 35.7117 77.6815 35.8232C77.4502 35.9348 77.195 35.9875 76.9384 35.9768C75.7617 35.9768 75.0524 35.0772 75.0524 33.6077ZM78.2592 33.5994C78.2592 32.5889 77.8449 32.0007 77.1273 32.0007C76.4097 32.0007 75.9954 32.5624 75.9954 33.6077C75.9954 34.6199 76.4014 35.1981 77.1273 35.1981C77.8532 35.1981 78.2576 34.6398 78.2576 33.5994H78.2592Z" fill="black"/>
<path d="M82.2633 29.7278H83.1881V31.9577C83.3342 31.7229 83.5401 31.5313 83.7847 31.4023C84.0294 31.2733 84.3039 31.2117 84.5802 31.2238C85.5398 31.2238 86.1364 31.7854 86.1364 32.8804V35.9569H85.2183V33.0643C85.2183 32.4017 84.9233 31.9925 84.2935 31.9925C83.6008 31.9925 83.1864 32.6054 83.1864 33.2449V35.9503H82.2617L82.2633 29.7278Z" fill="black"/>
<path d="M89.9582 31.3446H90.8746V35.9502H89.9582V35.3289C89.8156 35.5632 89.6128 35.7549 89.3708 35.884C89.1288 36.0131 88.8566 36.0748 88.5826 36.0628C87.6396 36.0628 87.0529 35.5095 87.0529 34.4211V31.3446H87.9777V34.2305C87.9777 34.8932 88.2545 35.2941 88.8677 35.2941C89.5422 35.2941 89.9582 34.6795 89.9582 34.04V31.3446Z" fill="black"/>
<path d="M91.816 31.3446H92.7408V31.9576C92.8869 31.7228 93.0928 31.5311 93.3374 31.4022C93.582 31.2732 93.8566 31.2116 94.1329 31.2237C95.0925 31.2237 95.6891 31.7853 95.6891 32.8803V35.9568H94.7726V33.0642C94.7726 32.4015 94.4793 31.9923 93.8478 31.9923C93.1567 31.9923 92.7408 32.6053 92.7408 33.2448V35.9502H91.816V31.3446Z" fill="black"/>
<path d="M96.4249 33.6077C96.4249 32.0703 97.1508 31.2238 98.3093 31.2238C98.8976 31.2238 99.3385 31.4308 99.6351 31.8284V31.3447H100.56V36.0977C100.56 37.3601 99.7213 37.9731 98.6142 37.9731C97.5071 37.9731 96.7133 37.4545 96.5492 36.3826H97.474C97.5602 36.936 98.001 37.2292 98.6059 37.2292C99.2108 37.2292 99.6368 36.9095 99.6368 36.1143V35.3373C99.4854 35.5447 99.2853 35.7115 99.054 35.823C98.8227 35.9346 98.5675 35.9874 98.3109 35.9768C97.1326 35.9768 96.4249 35.0772 96.4249 33.6077ZM99.6318 33.5994C99.6318 32.5889 99.2175 32.0007 98.4999 32.0007C97.7823 32.0007 97.3663 32.5624 97.3663 33.6077C97.3663 34.6199 97.7723 35.1981 98.4999 35.1981C99.2274 35.1981 99.6368 34.6398 99.6368 33.5994H99.6318Z" fill="black"/>
<path d="M103.478 36.0629C102.121 36.0629 101.291 35.155 101.291 33.6524C101.291 32.0869 102.119 31.2238 103.435 31.2238C104.751 31.2238 105.572 32.1217 105.572 33.5994V33.8247H102.234C102.285 34.7674 102.731 35.2942 103.478 35.2942C104.067 35.2942 104.483 35.0175 104.638 34.446H105.603C105.354 35.5179 104.561 36.0629 103.478 36.0629ZM102.26 33.1935H104.609C104.496 32.4166 104.09 31.9925 103.432 31.9925C102.774 31.9925 102.373 32.4166 102.26 33.1935Z" fill="black"/>
<path d="M106.324 31.3447H107.249V32.0272C107.369 31.7825 107.556 31.5771 107.789 31.4348C108.022 31.2926 108.29 31.2194 108.563 31.2238C108.719 31.2141 108.874 31.2566 109.004 31.3447V32.1548C108.842 32.1103 108.674 32.0902 108.507 32.0952C107.625 32.0952 107.245 32.6303 107.245 33.4338V35.9486H106.321L106.324 31.3447Z" fill="black"/>
<path d="M111.71 32.0619H111.087V31.3446H111.71V30.281H112.635V31.3446H113.629V32.0619H112.635V34.5238C112.635 35.0522 112.782 35.3024 113.43 35.3024H113.611V35.9767C113.426 36.0429 113.229 36.0722 113.033 36.0628C112.133 36.0628 111.707 35.5658 111.707 34.5718L111.71 32.0619Z" fill="black"/>
<path d="M114.138 33.6457C114.138 32.0802 114.978 31.217 116.293 31.217C117.632 31.217 118.447 32.1415 118.447 33.6457C118.447 35.2014 117.609 36.0562 116.293 36.0562C114.952 36.0628 114.138 35.155 114.138 33.6457ZM117.502 33.6457C117.502 32.5904 117.07 31.9891 116.293 31.9891C115.515 31.9891 115.081 32.5689 115.081 33.6457C115.081 34.6911 115.514 35.2792 116.293 35.2792C117.072 35.2792 117.502 34.7143 117.502 33.6457Z" fill="black"/>
<path d="M119.118 33.6077C119.118 32.0703 119.846 31.2238 121.004 31.2238C121.591 31.2238 122.032 31.4308 122.33 31.8284V31.3447H123.255V36.0977C123.255 37.3601 122.416 37.9731 121.309 37.9731C120.202 37.9731 119.407 37.4545 119.243 36.3826H120.169C120.255 36.936 120.696 37.2292 121.301 37.2292C121.906 37.2292 122.33 36.9095 122.33 36.1143V35.3373C122.179 35.5447 121.979 35.7115 121.747 35.823C121.516 35.9346 121.261 35.9874 121.004 35.9768C119.828 35.9768 119.118 35.0772 119.118 33.6077ZM122.327 33.5994C122.327 32.5889 121.911 32.0007 121.193 32.0007C120.476 32.0007 120.061 32.5624 120.061 33.6077C120.061 34.6199 120.467 35.1981 121.193 35.1981C121.919 35.1981 122.327 34.6398 122.327 33.5994Z" fill="black"/>
<path d="M126.173 36.0629C124.816 36.0629 123.986 35.155 123.986 33.6524C123.986 32.0869 124.814 31.2238 126.13 31.2238C127.446 31.2238 128.267 32.1217 128.267 33.5994V33.8247H124.929C124.98 34.7674 125.426 35.2942 126.173 35.2942C126.762 35.2942 127.168 35.0175 127.334 34.446H128.308C128.049 35.5179 127.254 36.0629 126.173 36.0629ZM124.955 33.1935H127.314C127.201 32.4166 126.795 31.9925 126.137 31.9925C125.479 31.9925 125.066 32.4166 124.955 33.1935Z" fill="black"/>
<path d="M129.302 32.0619H128.673V31.3446H129.302V30.281H130.229V31.3446H131.223V32.0619H130.229V34.5238C130.229 35.0522 130.375 35.3024 131.023 35.3024H131.205V35.9767C131.02 36.0427 130.823 36.072 130.627 36.0628C129.727 36.0628 129.301 35.5658 129.301 34.5718L129.302 32.0619Z" fill="black"/>
<path d="M131.921 29.7278H132.846V31.9577C132.992 31.7229 133.198 31.5313 133.442 31.4023C133.687 31.2733 133.962 31.2117 134.238 31.2238C135.197 31.2238 135.794 31.7854 135.794 32.8804V35.9569H134.878V33.0643C134.878 32.4017 134.583 31.9925 133.953 31.9925C133.26 31.9925 132.846 32.6054 132.846 33.2449V35.9503H131.921V29.7278Z" fill="black"/>
<path d="M138.708 36.0629C137.35 36.0629 136.52 35.155 136.52 33.6524C136.52 32.0869 137.349 31.2238 138.664 31.2238C139.98 31.2238 140.799 32.1217 140.799 33.5994V33.8247H137.461C137.514 34.7674 137.958 35.2942 138.708 35.2942C139.294 35.2942 139.702 35.0175 139.868 34.446H140.836C140.584 35.5179 139.788 36.0629 138.708 36.0629ZM137.488 33.1935H139.839C139.727 32.4166 139.321 31.9925 138.664 31.9925C138.008 31.9925 137.6 32.4166 137.488 33.1935Z" fill="black"/>
<path d="M141.551 31.3446H142.476V32.0272C142.597 31.7827 142.784 31.5775 143.017 31.4353C143.25 31.2931 143.518 31.2197 143.79 31.2237C143.947 31.2138 144.102 31.2563 144.231 31.3446V32.1548C144.07 32.11 143.902 32.0899 143.734 32.0951C142.852 32.0951 142.471 32.6302 142.471 33.4337V35.9485H141.547L141.551 31.3446Z" fill="black"/>
</g>
<defs>
<clipPath id="clip0_21335_3930">
<rect width="143.384" height="37.4608" fill="white" transform="translate(0.861816 0.512207)"/>
</clipPath>
</defs>
</svg>
