<svg clip-rule="evenodd" fill-rule="evenodd" height="309.674729" stroke-linejoin="round" stroke-miterlimit="2" viewBox="0 0 72 69" width="322.919473" xmlns="http://www.w3.org/2000/svg" xmlns:xlink="http://www.w3.org/1999/xlink"><clipPath id="a"><path clip-rule="nonzero" d="m-.021.138.161 73.612 71.919-.157-.16-73.612-71.92.157z"/></clipPath><g clip-path="url(#a)"><g fill-rule="nonzero"><path d="m9.212 16.235s.249-.624.746-.878c.5-.257 1.197-.302 2.015-.212.697.075 2.143.711 4.234 2.439 2.91 2.406 3.951 3.896 3.973 3.824.182-.585.877-1.719.877-1.719-1.375-1.199-6.177-4.324-7.67-4.915-1.682-.672-3.99-.848-4.175 1.461"/><path d="m10.948 13.329c2.027-.512 2.255.825 2.683 1.146l1.555.945c-2.107-4.641-4.238-2.091-4.238-2.091"/><path d="m11.845 15.689c4.821 3.516.79 5.157.79 5.157.947.4 1.7.127 2.109-.487.149-.231.29-.515.369-.739.135-.381.15-.692.15-.692 1.709 1.669 3.574 4.523 4.792 6.037-.373-1.471-.089-2.132-.205-2.27-1.452-1.738-1.938-2.36-2.887-3.411-2.873-3.161-5.118-3.595-5.118-3.595"/><path d="m31.795 15.305c-.228-.581-.159-2.25-.095-2.553.237-.641.452-1.27.582-1.867l.106.055.756.471c-.314-.392-.616-1.425-.775-2.049-.012-.081-.028-.165-.05-.244-.334-1.34-1.011-2.12-1.011-2.12s.497 1.276.332 2.312c-.16 2.162-3.222 4.648-2.521 8.435.387 2.093 2.487 3.755 2.487 3.755s-.671-1.377-1.149-3.977c-.19-1.022.142-1.826.593-3.055l.168.157z"/><path d="m52.941.463s-5.44.891-8.131 1.759c-2.693.87-6.619 2.577-8.396 4.807-1.775 2.233-.269 5.761-.719 8.114-.449 2.353-3.933 4.748-3.933 4.748s4.059-1.049 5.547-4.325c1.096-2.407-.305-4.076 1.375-7.793 1.68-3.713 14.257-7.31 14.257-7.31"/><path d="m53.083.724s-4.489 1.4-5.895 5.792l2.011-.449s.022-2.736 3.884-5.343"/><path d="m60.209 6.781s-7.076-1.398-14.022.659c-6.949 2.054-5.962 5.684-6.034 7.709-.066 2.026-1.773 6.521-7.892 5.942 0 0 3.631 1.974 7.664-1.291 4.03-3.267 1.204-7.207 4.45-9.095 3.242-1.886 5.757-3.455 15.834-3.924"/><path d="m42.61 16.866s2.764.379 4.395 2.277c0 0-2.231-1.722-4.759-1.273 0 0 .241-.498.364-1.004"/><path d="m54.556 13.825s-6.674.171-6.728 5.782c-.124-.21-3.682-6.385 6.728-5.782"/><path d="m59.724 7.137c-6.718 1.398-5.168 6.69-5.168 6.69-3.434-6.79 5.168-6.69 5.168-6.69"/><path d="m41.122 24.604c1.743-4.733 6.489-4.933 6.663-4.94-5.049-.981-6.329 1.574-6.619 3.366-4.318-.833-8.008-.913-8.008-.913 5.187.714 7.964 2.487 7.964 2.487"/><path d="m13.9 38.726s1.064-.58 2.311-.461c.767.072 2.25-.487 2.25-.487-.625-.004-2.103-.738-3.404-.574-1.298.164-1.157 1.522-1.157 1.522"/><path d="m38.71 35.33s-.107-1.023.868-1.145c.976-.126 2.083.429 2.552.43 0 0-1.109.42-1.689.367-.931-.088-1.731.348-1.731.348"/><path d="m48.241 39.186s.958-.526 2.083-.421c.691.066 1.75-.029 1.75-.029-.564-.003-1.453-1.154-2.791-.926-1.16.196-1.042 1.376-1.042 1.376"/><path d="m54.006 13.566c-8.13-1.94-10.656-.532-10.656-.532s.179-.459.292-.716c.182-.407.232-.513.283-.61 5.955-.244 10.081 1.858 10.081 1.858"/><path d="m22.878 8.47s-.917-.979-1.99-.977c-1.55.003-2.839 1.66-4.218 1.666-1.381.003-2.072-.463-2.072-.463s.839 1.125 2.154 1.122c1.712-.003 2.974-1.689 4.109-1.691 1.131-.005 2.017.343 2.017.343"/><path d="m26.431 10.235s.24.864.106 2.443c-.128 2.706-5.413 6.444-5.338 10.927.042 2.68 2.022 4.277 2.022 4.277s-.892-2.363-.501-4.73c.54-3.288 4.673-7.046 4.536-10.271-.084-1.902-.825-2.646-.825-2.646"/><path d="m23.91 27.833s-.802-1.883-.206-3.558c.389-1.079 1.408-2.001 3.422-2.509 0 0-3.516 3.215-.926 5.979 0 0-1.838 1.96-2.538 3.635-.699 1.67-2.226 5.175-2.731 5.992-.509.81-1.222 1.859-3.231 2.77-2.227.199-4.664.576-4.82 2.297 0 0-.431-.429-.394-1.515.038-1.088 1.838-2.306 3.724-2.245 1.885.064 3.568-.421 4.446-2.696.875-2.277 2.795-7.749 3.254-8.15"/><path d="m26.914 28.009s-2.852 8.809-7.877 12.052c0 0 3.064-.445 4.011-.06.948.386 1.92 1.027 1.002 2.5 0 0 1.821-1.006 1.315-2.512-.399-1.192-2.188-1.284-2.188-1.284s-.516-.222-.218-.984c.297-.764 2.215-3.302 2.519-3.762.305-.463 2.793-4.235 2.891-4.452 0 0 2.2.307 3.248-1.79 1.094-2.18-1.252-4.282-1.252-4.282s1.032 2.338-.153 3.49c-1.406 1.364-3.298 1.084-3.298 1.084"/><path d="m29.365 30.056s1.059-.222 1.418-.492c0 0 .492.531 2.52.483.171-.003.283-.001.347-.001 2.253-.285 4.993-1.096 9.301-2.904l.469.767c-3.363 1.144-7.418 4.352-12.513 3.858-.362-.037-2.036-.368-2.384-.476.211-.284.842-1.235.842-1.235"/><path d="m43.877 34.302c-.436.728-1.088 1.698-2.48 2.17-1.514-.026-3.333.35-3.452 1.64 0 0-.322-.324-.298-1.134.029-.818 1.143-1.71 2.794-1.624 1.415.074 2.327-.515 2.934-2.066.416-1.043-.032-3.278.524-4.696 0 0 .763.589 1.101.868 0 0 .027-.01-.133.377-.523 1.255-.268 3.066-.99 4.465"/><path d="m46.014 29.927s.434.294.853.519c-.346.841-.456 1.373-.523 1.55-.143.396-.618 2.005-.842 2.579-.225.569.161.734.161.734s1.343.072 1.642.965c.381 1.129-.982 1.882-.982 1.882.685-1.102-.042-1.584-.753-1.874-.712-.286-2.791.045-2.791.045 2.182-1.2 2.886-5.575 3.235-6.4"/><path d="m54.297 38.817s.586 1.213.255 1.66c-1.32.042-2.218.002-4.166.204-1.802.188-2.969.309-3.107 1.861 0 0-.391-.388-.359-1.368.034-.978 1.658-2.073 3.357-2.014 0 0 2.127.033 2.366-.094.508-.272-.791-2.745-1.013-3.191-1.894-3.769-1.849-4.991-1.925-5.192 0 0-5.28-.977-6.586-4.57 4.198 3.555 7.667 3.517 7.667 3.517.443 1.709 2.256 6.767 3.511 9.187"/><path d="m57.605 20.579c-.645 1.927-1.04 4.013-.956 6.288.077 2.085 1.432 4.979 4.715 4.678 1.708-.155 2.775-1.263 3.322-2.385.643-1.321.597-2.675.597-2.675s.038-2.153-2.03-3.978c-1.134-1.03-2.884-1.822-5.648-1.928m-1.983-1.599c.549-.018 1.013-.013 1.533.02 2.281-4.901 6.175-9.977 6.168-12.964-.004-1.931-1.336-3.226-1.336-3.226l-.224.727s-1.084-2.464-1.879-3.084l.025.016s2.482.982 3.329 1.666v-.012l-.626.164h-.023c1.583 1.458 1.5 3.775 1.5 3.775.135 3.555-3.707 7.647-5.925 13.022 5.023.614 8.537 3.73 8.544 7.129.011 4.763-2.899 6.444-5.548 6.486-.934.011-1.971-.135-3.184-.849-1.414-.833-2.597-2.385-2.604-5.412-.006-2.968.68-4.812 1.068-5.853l-.012-.01c-1.202.045-2.388.192-3.422.409 0 0-.934.28-1.355.41 1.123.654 2.223 1.72 2.612 3.392.247 1.197.136 2.722-.455 4.663-.123 1.9.711 4.717 1.357 6.81l.724 1.913c.385.845.979 1.082.979 1.082s1.472.213 1.887 1.104c.556 1.185-.39 1.793-.39 1.793.336-1.429-.9-1.582-1.628-1.688l-.06-.008c-.712-.102-1.187-.038-1.187-.038.09-.485-.841-3.058-.777-2.89 0 0-1.194-3.406-1.696-4.905-.525-1.542-.883-3.733-.883-3.733s3.546-5.941-4.422-8.6c0 0 .56-.059.992-.004.898-.355 2.061-.601 2.061-.601 1.415-.387 3.01-.64 4.857-.704"/><path d="m25.436 5.154s-.836 1.446-2.144.609c0 0 .029-.86.769-.779.74.082.643.386 1.375.17m-3.069.19s-2.756-.872-4.463.527l.904 1.551s2.608-2.137 4.545.916c0 0-1.435 1.886-4.474 1.363 0 0 .831 1.422 2.846 1.405 2.017-.018 3.974-2.05 4.607-1.368 0 0-.219-2.887 3.302-3.914 0 0 .807.654.952 1.022 0 0 1.153-.913 1.087-3.145-.068-2.235-1.33-3.248-1.781-3.628 0 0 .268 1.334-.322 2.577-.342.724-1.1 1.628-2.263 1.665 0 0-.956.019-1.591-.172-.636-.191-3.161-1.035-3.349 1.201"/><path d="m1.34 50.766.845-.002.013 5.969 2.197-.005.002.73-3.042.007z"/></g><path d="m5.99 57.455-.806.001-.016-7.198.806-.002z"/><g fill-rule="nonzero"><path d="m8.967 58.447c-.239.835-.584 1.134-1.198 1.135-.192.001-.403-.019-.547-.057l.037-.729c.125.057.269.095.442.095.23-.001.403-.106.536-.616l.19-.749-1.556-4.968.845-.002 1.102 3.99h.019l1.009-3.995.806-.001z"/><path d="m16.344 57.432-.922.002-1.035-4.134h-.019l-.932 4.138-.921.003-1.307-4.892.845-.002.939 4.087.02-.001.922-4.091.96-.002.978 4.087h.019l.912-4.091.806-.002z"/><path d="m20.018 56.839c.768-.002 1.121-.635 1.119-1.865-.003-1.227-.36-1.86-1.127-1.858-.768.001-1.122.635-1.119 1.863.003 1.229.359 1.862 1.127 1.86m-.01-4.376c1.296-.003 1.969.974 1.973 2.509.003 1.536-.666 2.517-1.962 2.519-1.296.003-1.97-.975-1.973-2.51-.004-1.535.667-2.516 1.962-2.518"/><path d="m24.549 53.106c-.74.001-1.074.636-1.072 1.863.003 1.23.341 1.862 1.08 1.86.738-.001 1.073-.635 1.07-1.865-.002-1.227-.34-1.86-1.078-1.858m1.888 3.402c.001.297.03.605.04.902l-.777.002-.031-.72h-.019c-.21.384-.574.788-1.284.79-1.008.002-1.69-.822-1.694-2.511s.675-2.515 1.683-2.518c.557-.001.922.219 1.249.735h.02l-.007-2.975.806-.001z"/><path d="m27.524 53.569c-.001-.354-.03-.71-.041-1.056l.777-.002.031.768h.019c.258-.595.67-.836 1.39-.837l.002.796c-.096-.02-.202-.028-.308-.027-.623.001-1.064.538-1.061 1.603l.005 2.592-.806.002z"/><path d="m32.901 54.997c-.144-.02-.345-.019-.566-.019-.95.002-1.401.455-1.399 1.021.001.519.27.854.827.853.701-.001 1.141-.569 1.139-1.24zm-2.347-2.155c.403-.26.902-.404 1.381-.405.72-.002 1.153.304 1.307.457.211.211.423.508.425 1.199l.005 2.553c.001.287.021.576.041.748l-.73.002-.049-.662h-.019c-.22.375-.623.73-1.371.732-.806.002-1.412-.467-1.414-1.407-.002-.951.62-1.652 2.299-1.656l.471-.001-.001-.221c-.001-.365-.029-.576-.184-.786-.163-.222-.481-.306-.816-.305-.499.001-.979.202-1.256.51z"/><path d="m37.372 54.565c-.002-1.018-.32-1.525-.963-1.524-.518.001-.978.387-.995 1.528zm-1.957.619c.003 1.132.445 1.659 1.338 1.657.403-.001.844-.203 1.122-.407l.04.73c-.384.183-.882.29-1.372.291-1.295.003-1.969-.975-1.973-2.51-.003-1.535.667-2.516 1.885-2.518 1.104-.002 1.72.879 1.724 2.318v.433z"/><path d="m41.235 57.321c-.192.067-.46.125-.68.125-.74.002-1.134-.295-1.136-1.158l-.007-3.148-.777.002-.002-.653.778-.002-.002-.997.805-.243.003 1.238 1.008-.002.001.653-1.007.002.006 2.889c.001.556.146.768.51.767.202 0 .346-.059.499-.126z"/><path d="m41.9 50.178.807-.002.006 2.975h.02c.21-.412.632-.739 1.197-.74.854-.002 1.432.485 1.434 1.561l.007 3.397-.806.002-.007-3.158c-.001-.777-.29-1.112-.808-1.111-.634.002-1.036.443-1.034 1.326l.007 2.947-.807.001z"/><path d="m52.952 57.218c-.403.125-.825.203-1.219.204-2.12.005-3.016-1.606-3.021-3.42-.004-2.091 1.212-3.409 2.959-3.413.48-.001.959.085 1.267.238l.002.825c-.365-.229-.788-.334-1.258-.333-1.094.002-2.09.877-2.087 2.509.004 1.727.697 2.868 2.156 2.865.432-.001.854-.117 1.199-.32z"/><path d="m55.535 58.345c-.238.835-.583 1.134-1.197 1.136-.192 0-.403-.02-.547-.058l.037-.728c.125.056.269.095.442.094.23 0 .402-.106.536-.616l.19-.748-1.556-4.969.845-.001 1.103 3.99h.019l1.008-3.995.806-.002z"/><path d="m57.894 53.503c-.001-.355-.029-.711-.039-1.056l.776-.002.03.73h.02c.258-.557.67-.798 1.207-.799.519-.001.903.266 1.154.766.258-.482.631-.77 1.188-.771.844-.002 1.422.486 1.424 1.561l.008 3.397-.807.002-.007-3.36c-.002-.623-.271-.91-.751-.909-.595.002-.92.366-.918 1.25l.007 3.022-.807.002-.007-3.36c-.002-.623-.271-.909-.751-.908-.595.001-.92.366-.918 1.249l.007 3.023-.807.001z"/><path d="m64.631 53.488c-.001-.354-.03-.71-.041-1.056l.778-.002.03.768h.019c.258-.595.67-.836 1.39-.837l.002.796c-.097-.02-.202-.028-.307-.027-.625.001-1.065.538-1.062 1.604l.005 2.591-.805.002z"/><path d="m70.933 56.257c.001.356.03.71.04 1.056l-.778.002-.03-.731h-.019c-.258.559-.671.799-1.236.801-.854.001-1.431-.487-1.433-1.562l-.008-3.397.806-.002.007 3.158c.002.777.29 1.113.809 1.112.632-.002 1.036-.444 1.034-1.327l-.007-2.947.806-.002z"/><path d="m1.446 61.635.882-.001 1.107 5.429h.019l1.187-5.435 1.075-.002 1.212 5.43h.019l1.159-5.435.806-.002-1.444 6.702-.999.002-1.278-5.737h-.02l-1.254 5.743-.998.002z"/><path d="m11.914 65.49c-.002-1.018-.32-1.526-.963-1.525-.519.001-.978.386-.995 1.529zm-1.956.618c.002 1.132.445 1.659 1.337 1.657.403-.001.844-.203 1.122-.406l.04.731c-.383.183-.882.289-1.372.29-1.295.003-1.969-.974-1.973-2.51-.003-1.535.667-2.516 1.886-2.518 1.103-.003 1.719.879 1.722 2.318l.001.432z"/></g><path d="m14.693 68.305-.806.002-.016-7.198.806-.002z"/><path d="m15.919 67.352c.365.22.749.363 1.152.362.615-.002.931-.318.93-.692-.001-.336-.174-.566-.626-.767l-.538-.24c-.701-.314-.961-.63-.962-1.253-.002-.808.62-1.422 1.571-1.424.403-.001.758.065 1.037.17l-.038.692c-.249-.116-.595-.211-.959-.21-.528.001-.806.29-.805.674.001.393.289.613.828.824l.288.114c.595.238.97.64.971 1.245.002.845-.448 1.517-1.571 1.52-.508.001-.969-.104-1.325-.285z" fill-rule="nonzero"/><path d="m19.667 61.096.806-.002.007 2.975h.019c.21-.413.632-.74 1.198-.741.854-.002 1.431.487 1.433 1.561l.008 3.398-.807.002-.006-3.158c-.002-.778-.291-1.113-.809-1.112-.634.001-1.035.445-1.033 1.327l.006 2.947-.806.001z" fill-rule="nonzero"/><path d="m31.159 67.99c-.393.145-1.065.348-1.659.35-2.121.004-3.017-1.605-3.021-3.42-.004-2.092 1.211-3.409 2.958-3.413.576-.001 1.113.075 1.574.294l.002.844c-.509-.257-1.076-.41-1.565-.409-1.094.003-2.09.878-2.087 2.51.004 1.728.697 2.867 2.157 2.864.268-.001.614-.068.834-.184l-.005-2.112-1.123.003-.001-.729 1.929-.004z" fill-rule="nonzero"/><path d="m34.209 67.677c.769-.002 1.123-.636 1.12-1.864-.002-1.228-.359-1.861-1.128-1.86-.767.002-1.121.637-1.118 1.865s.359 1.86 1.126 1.859m-.009-4.376c1.296-.003 1.97.975 1.973 2.51.004 1.536-.666 2.516-1.962 2.519-1.295.002-1.969-.975-1.973-2.51-.003-1.535.666-2.516 1.962-2.519" fill-rule="nonzero"/><path d="m36.599 63.363.883-.002 1.084 4.086.019-.001 1.085-4.09.845-.002-1.458 4.898-.959.002z" fill-rule="nonzero"/><path d="m43.753 65.421c-.002-1.018-.32-1.527-.963-1.525-.518.001-.978.386-.995 1.529zm-1.957.618c.003 1.131.445 1.658 1.338 1.656.403-.001.844-.202 1.122-.405l.04.73c-.383.183-.882.289-1.371.291-1.296.002-1.97-.975-1.973-2.511-.004-1.534.666-2.515 1.884-2.518 1.104-.002 1.72.879 1.723 2.319l.001.432z" fill-rule="nonzero"/><path d="m45.449 64.399c-.001-.355-.03-.709-.041-1.056l.778-.001.03.767h.019c.258-.595.67-.836 1.39-.837l.002.796c-.097-.019-.202-.029-.308-.029-.623.002-1.063.541-1.061 1.606l.005 2.591-.806.002z" fill-rule="nonzero"/><path d="m48.289 64.393c-.001-.356-.03-.71-.041-1.056l.778-.002.031.73h.018c.259-.558.671-.798 1.237-.799.854-.002 1.431.486 1.433 1.56l.008 3.398-.806.002-.007-3.157c-.002-.778-.291-1.114-.809-1.113-.633.002-1.035.445-1.034 1.328l.007 2.946-.806.002z" fill-rule="nonzero"/><path d="m52.914 64.383c-.001-.356-.03-.71-.04-1.056l.777-.002.03.73h.02c.258-.558.669-.798 1.207-.799.519-.001.903.267 1.154.764.257-.479.631-.768 1.187-.769.845-.002 1.423.486 1.425 1.56l.007 3.398-.806.002-.007-3.359c-.002-.623-.271-.912-.751-.911-.595.002-.92.368-.919 1.25l.007 3.024-.807.001-.007-3.359c-.001-.623-.27-.911-.75-.91-.595.001-.92.367-.919 1.249l.007 3.024-.806.002z" fill-rule="nonzero"/><path d="m62.407 65.38c-.002-1.018-.319-1.526-.962-1.525-.519.001-.979.386-.996 1.529zm-1.956.618c.002 1.132.445 1.659 1.337 1.657.403-.001.844-.203 1.122-.406l.04.731c-.383.183-.882.289-1.371.29-1.296.003-1.97-.974-1.973-2.51-.004-1.535.666-2.516 1.885-2.518 1.103-.003 1.72.878 1.723 2.318l.001.432z" fill-rule="nonzero"/><path d="m64.103 64.359c-.001-.356-.03-.71-.04-1.056l.777-.002.03.73h.02c.257-.558.669-.798 1.236-.8.854-.001 1.43.487 1.433 1.561l.007 3.398-.806.002-.007-3.158c-.001-.778-.29-1.113-.808-1.112-.633.001-1.036.445-1.034 1.327l.007 2.947-.806.002z" fill-rule="nonzero"/><path d="m70.896 68.124c-.192.069-.46.126-.681.127-.739.001-1.133-.295-1.136-1.159l-.006-3.147-.778.002-.001-.653.777-.002-.002-.997.806-.243.003 1.238 1.007-.002.002.653-1.008.002.007 2.889c.001.556.145.766.51.766.202-.001.345-.058.498-.125z" fill-rule="nonzero"/><path d="m71.739 46.744-71.395.155c-.145.001-.263-.116-.263-.261-.001-.145.117-.263.262-.264l71.395-.156c.144 0 .262.118.262.263s-.117.262-.261.263" fill-rule="nonzero"/></g></svg>