<?xml version="1.0" encoding="utf-8"?>
<!-- Svg Vector Icons : http://www.onlinewebfonts.com/icon -->
<!DOCTYPE svg PUBLIC "-//W3C//DTD SVG 1.1//EN" "http://www.w3.org/Graphics/SVG/1.1/DTD/svg11.dtd">
<svg version="1.1" xmlns="http://www.w3.org/2000/svg" xmlns:xlink="http://www.w3.org/1999/xlink" x="0px" y="0px" viewBox="0 0 1000 1000" enable-background="new 0 0 1000 1000" xml:space="preserve">
<metadata> Svg Vector Icons : http://www.onlinewebfonts.com/icon </metadata>
<g><path d="M826.7,115H635.6C620,54.6,565.2,10,500,10c-65.2,0-120,44.6-135.6,105H173.3C122,115,80,157,80,208.3v688.3c0,51.3,42,93.3,93.3,93.3h653.3c51.3,0,93.3-42,93.3-93.3V208.3C920,157,878,115,826.7,115z M500,115c25.7,0,46.7,21,46.7,46.7c0,25.7-21,46.7-46.7,46.7s-46.7-21-46.7-46.7C453.3,136,474.3,115,500,115z M832.5,902.5h-665v-700H255V360h490V202.5h87.5V902.5z"/></g>
</svg>