<?xml version="1.0" encoding="utf-8"?>
<!-- Generator: Adobe Illustrator 21.1.0, SVG Export Plug-In . SVG Version: 6.00 Build 0)  -->
<svg version="1.1" id="Icons" xmlns="http://www.w3.org/2000/svg" xmlns:xlink="http://www.w3.org/1999/xlink" x="0px" y="0px"
	 viewBox="0 0 48 48" style="enable-background:new 0 0 48 48;" xml:space="preserve">
<style type="text/css">
	.st0{opacity:0.15;fill:#45413C;}
	.st1{fill:#BF8256;}
	.st2{fill:#915E3A;}
	.st3{fill:none;stroke:#45413C;stroke-linecap:round;stroke-linejoin:round;stroke-miterlimit:10;}
	.st4{fill:#DEA47A;}
	.st5{fill:#DAEDF7;stroke:#45413C;stroke-linecap:round;stroke-linejoin:round;stroke-miterlimit:10;}
	.st6{fill:#BF8256;stroke:#45413C;stroke-linecap:round;stroke-linejoin:round;stroke-miterlimit:10;}
	.st7{fill:#FF6242;}
	.st8{fill:#FF866E;}
	.st9{fill:#DEBB7E;}
	.st10{fill:#B89558;}
	.st11{fill:#656769;}
	.st12{fill:#525252;}
	.st13{fill:#E04122;}
	.st14{fill:#FFFFFF;}
	.st15{fill:#F0F0F0;}
	.st16{fill:#00B8F0;}
	.st17{fill:#4ACFFF;}
	.st18{fill:#C0DCEB;}
	.st19{fill:#8CA4B8;}
	.st20{fill:#FF6242;stroke:#45413C;stroke-linecap:round;stroke-linejoin:round;stroke-miterlimit:10;}
	.st21{fill:#87898C;}
	.st22{fill:#E0E0E0;}
	.st23{fill:#E8F4FA;stroke:#45413C;stroke-linecap:round;stroke-linejoin:round;stroke-miterlimit:10;}
	.st24{fill:#656769;stroke:#45413C;stroke-linecap:round;stroke-linejoin:round;stroke-miterlimit:10;}
	.st25{fill:#DAEDF7;}
	.st26{fill:#E8F4FA;}
	.st27{fill:#ADC4D9;stroke:#45413C;stroke-linecap:round;stroke-linejoin:round;stroke-miterlimit:10;}
	.st28{fill:#87898C;stroke:#45413C;stroke-linecap:round;stroke-linejoin:round;stroke-miterlimit:10;}
	.st29{fill:#BDBEC0;}
	.st30{fill:#FFFFFF;stroke:#45413C;stroke-linecap:round;stroke-linejoin:round;stroke-miterlimit:10;}
	.st31{fill:#ADC4D9;}
	.st32{fill:none;stroke:#00AED9;stroke-linecap:round;stroke-linejoin:round;stroke-miterlimit:10;}
	.st33{fill:#FFFACF;}
	.st34{fill:#FFE500;}
	.st35{fill:#915E3A;stroke:#45413C;stroke-linecap:round;stroke-linejoin:round;stroke-miterlimit:10;}
	.st36{fill:#FFAA54;}
	.st37{fill:#627B8C;stroke:#45413C;stroke-linecap:round;stroke-linejoin:round;stroke-miterlimit:10;}
	.st38{fill:#FFFEF2;}
	.st39{fill:#FFFCE5;stroke:#45413C;stroke-linecap:round;stroke-linejoin:round;stroke-miterlimit:10;}
	.st40{fill:#00F5BC;}
	.st41{fill:#FFFCE5;}
	.st42{fill:#FFFEF2;stroke:#45413C;stroke-linecap:round;stroke-linejoin:round;stroke-miterlimit:10;}
	.st43{fill:#8CFFE4;}
	.st44{fill:#FFF5E3;}
	.st45{fill:#F7E5C6;}
	.st46{fill:#F7E5C6;stroke:#45413C;stroke-linecap:round;stroke-linejoin:round;stroke-miterlimit:10;}
	.st47{fill:#F0D5A8;}
	.st48{fill:#FF87AF;stroke:#45413C;stroke-linecap:round;stroke-linejoin:round;stroke-miterlimit:10;}
	.st49{fill:#45413C;}
	.st50{fill:#BDBEC0;stroke:#45413C;stroke-linecap:round;stroke-linejoin:round;stroke-miterlimit:10;}
	.st51{fill:#E0E0E0;stroke:#45413C;stroke-linecap:round;stroke-linejoin:round;stroke-miterlimit:10;}
	.st52{fill:#DEBB7E;stroke:#45413C;stroke-linecap:round;stroke-linejoin:round;stroke-miterlimit:10;}
	.st53{fill:#F5EBFF;stroke:#45413C;stroke-linecap:round;stroke-linejoin:round;stroke-miterlimit:10;}
	.st54{fill:#BF8DF2;stroke:#45413C;stroke-linecap:round;stroke-linejoin:round;stroke-miterlimit:10;}
	.st55{fill:#E4FFD1;stroke:#45413C;stroke-linecap:round;stroke-linejoin:round;stroke-miterlimit:10;}
	.st56{fill:#F0FFE5;}
	.st57{fill:#C8FFA1;stroke:#45413C;stroke-linecap:round;stroke-linejoin:round;stroke-miterlimit:10;}
	.st58{fill:#6DD627;stroke:#45413C;stroke-linecap:round;stroke-linejoin:round;stroke-miterlimit:10;}
	.st59{fill:#E5FEFF;}
	.st60{fill:#FFAA54;stroke:#45413C;stroke-linecap:round;stroke-linejoin:round;stroke-miterlimit:10;}
	.st61{fill:#9CEB60;stroke:#45413C;stroke-linecap:round;stroke-linejoin:round;stroke-miterlimit:10;}
	.st62{fill:#FFF48C;}
	.st63{fill:#00B8F0;stroke:#45413C;stroke-linecap:round;stroke-linejoin:round;stroke-miterlimit:10;}
	.st64{fill:none;stroke:#4F4B45;stroke-linejoin:round;stroke-miterlimit:10;}
	.st65{fill:#FFFFFF;stroke:#4F4B45;stroke-linejoin:round;stroke-miterlimit:10;}
	.st66{fill:#FFF5E3;stroke:#4F4B45;stroke-linejoin:round;stroke-miterlimit:10;}
	.st67{fill:#F7E5C6;stroke:#4F4B45;stroke-linejoin:round;stroke-miterlimit:10;}
	.st68{fill:#6DD627;}
	.st69{fill:#EBCB00;}
	.st70{fill:#46B000;}
	.st71{fill:none;stroke:#E0E0E0;stroke-linecap:round;stroke-linejoin:round;stroke-miterlimit:10;}
	.st72{fill:#9CEB60;}
	.st73{fill:#FFCC99;}
	.st74{fill:#BF8DF2;}
	.st75{fill:#9F5AE5;}
	.st76{fill:#DABFF5;}
	.st77{fill:#F0F0F0;stroke:#45413C;stroke-linecap:round;stroke-linejoin:round;stroke-miterlimit:10;}
	.st78{fill:#E5F8FF;}
	.st79{fill:#B8ECFF;}
	.st80{fill:#D9FDFF;}
	.st81{fill:#C0DCEB;stroke:#45413C;stroke-linecap:round;stroke-linejoin:round;stroke-miterlimit:10;}
	.st82{fill:#46B000;stroke:#45413C;stroke-linecap:round;stroke-linejoin:round;stroke-miterlimit:10;}
	.st83{fill:none;stroke:#FFFFFF;stroke-miterlimit:10;}
	.st84{fill:none;stroke:#FFFFFF;stroke-linecap:round;stroke-linejoin:round;stroke-miterlimit:10;}
	.st85{fill:#FFE500;stroke:#45413C;stroke-linecap:round;stroke-linejoin:round;stroke-miterlimit:10;}
	.st86{fill:#80DDFF;stroke:#45413C;stroke-linecap:round;stroke-linejoin:round;stroke-miterlimit:10;}
	.st87{fill:#FFFFFF;stroke:#45413C;stroke-linejoin:round;stroke-miterlimit:10;}
	.st88{fill:#009FD9;stroke:#45413C;stroke-linecap:round;stroke-linejoin:round;stroke-miterlimit:10;}
	.st89{fill:#E04122;stroke:#45413C;stroke-linecap:round;stroke-linejoin:round;stroke-miterlimit:10;}
	.st90{fill:#009FD9;}
	.st91{fill:#FFFFFF;stroke:#45413C;stroke-miterlimit:10;}
	.st92{fill:#009FD9;stroke:#45413C;stroke-miterlimit:10;}
	.st93{fill:#FF8A14;stroke:#45413C;stroke-linecap:round;stroke-linejoin:round;stroke-miterlimit:10;}
	.st94{fill:none;stroke:#009FD9;stroke-linecap:round;stroke-linejoin:round;stroke-miterlimit:10;}
	.st95{fill:#525252;stroke:#45413C;stroke-linecap:round;stroke-linejoin:round;stroke-miterlimit:10;}
	.st96{fill:none;stroke:#46B000;stroke-linecap:round;stroke-linejoin:round;stroke-miterlimit:10;}
	.st97{fill:none;stroke:#E04122;stroke-linecap:round;stroke-linejoin:round;stroke-miterlimit:10;}
	.st98{fill:#6DD627;stroke:#45413C;stroke-miterlimit:10;}
	.st99{fill:none;stroke:#45413C;stroke-linejoin:round;stroke-miterlimit:10;}
	.st100{fill:#46B000;stroke:#45413C;stroke-miterlimit:10;}
	.st101{fill:#00DFEB;}
	.st102{fill:#00AD85;}
	.st103{fill:#E04122;stroke:#45413C;stroke-miterlimit:10;}
</style>
<g id="XMLID_17497_">
	<ellipse id="XMLID_17513_" class="st0" cx="24" cy="45.1" rx="14.2" ry="1.9"/>
	<g id="XMLID_17498_">
		<path id="XMLID_17512_" class="st9" d="M37,44.5H11c-1.9,0-3.5-1.6-3.5-3.5V7.8C7.5,5.9,9,4.4,11,4.4H37c1.9,0,3.5,1.6,3.5,3.5V41
			C40.5,42.9,39,44.5,37,44.5z"/>
		<path id="XMLID_17510_" class="st3" d="M37,44.5H11c-1.9,0-3.5-1.6-3.5-3.5V7.8C7.5,5.9,9,4.4,11,4.4H37c1.9,0,3.5,1.6,3.5,3.5V41
			C40.5,42.9,39,44.5,37,44.5z"/>
		<path id="XMLID_17509_" class="st38" d="M35.1,40.4H12.9c-0.7,0-1.2-0.6-1.2-1.2V11.6c0-0.7,0.6-1.2,1.2-1.2h22.3
			c0.7,0,1.2,0.6,1.2,1.2v27.6C36.4,39.9,35.8,40.4,35.1,40.4z"/>
		<path id="XMLID_17508_" class="st14" d="M35.1,10.4H12.9c-0.7,0-1.2,0.6-1.2,1.2v3.9c0-0.7,0.6-1.2,1.2-1.2h22.3
			c0.7,0,1.2,0.6,1.2,1.2v-3.9C36.4,10.9,35.8,10.4,35.1,10.4z"/>
		<path id="XMLID_17507_" class="st3" d="M35.1,40.4H12.9c-0.7,0-1.2-0.6-1.2-1.2V11.6c0-0.7,0.6-1.2,1.2-1.2h22.3
			c0.7,0,1.2,0.6,1.2,1.2v27.6C36.4,39.9,35.8,40.4,35.1,40.4z"/>
		<path id="XMLID_17506_" class="st25" d="M26,8.1c0-1.1-0.9-2-2-2c-1.1,0-2,0.9-2,2h-3.5c-0.7,0-1.2,0.6-1.2,1.2v1.9
			c0,0.7,0.6,1.2,1.2,1.2h11c0.7,0,1.2-0.6,1.2-1.2V9.3c0-0.7-0.6-1.2-1.2-1.2H26z"/>
		<path id="XMLID_17505_" class="st26" d="M29.5,8.1H26c0-1.1-0.9-2-2-2c-1.1,0-2,0.9-2,2h-3.5c-0.7,0-1.2,0.6-1.2,1.2v1.9
			c0,0,0,0,0,0.1c0-0.7,0.6-1.2,1.2-1.2H22c0-1.1,0.9-2,2-2c1.1,0,2,0.9,2,2h3.5c0.7,0,1.2,0.5,1.2,1.2c0,0,0,0,0-0.1V9.3
			C30.8,8.7,30.2,8.1,29.5,8.1z"/>
		<path id="XMLID_17504_" class="st3" d="M26,8.1c0-1.1-0.9-2-2-2c-1.1,0-2,0.9-2,2h-3.5c-0.7,0-1.2,0.6-1.2,1.2v1.9
			c0,0.7,0.6,1.2,1.2,1.2h11c0.7,0,1.2-0.6,1.2-1.2V9.3c0-0.7-0.6-1.2-1.2-1.2H26z"/>
		<line id="XMLID_17503_" class="st3" x1="15.4" y1="16.3" x2="21.6" y2="16.3"/>
		<line id="XMLID_17502_" class="st3" x1="15.4" y1="34.4" x2="21.6" y2="34.4"/>
		<line id="XMLID_17501_" class="st3" x1="15.4" y1="20" x2="29.9" y2="20"/>
		<line id="XMLID_17500_" class="st3" x1="15.4" y1="23.3" x2="29.9" y2="23.3"/>
		<line id="XMLID_17499_" class="st3" x1="15.4" y1="26.9" x2="29.9" y2="26.9"/>
	</g>
</g>
</svg>
