
<svg fill="#000000" xmlns="http://www.w3.org/2000/svg" xmlns:xlink="http://www.w3.org/1999/xlink" version="1.1" x="0px" y="0px" viewBox="0 0 100 100" enable-background="new 0 0 100 100" xml:space="preserve"><path d="M90.1,75.1l-0.5-1c-1.4-3.3-18.6-8.3-20-8.4l-1.1,0.1c-2.1,0.4-4.4,2.3-8.9,6.2c-0.9,0.8-2.1,1-3.2,0.4  c-5.9-3.3-13.1-9.9-16.7-13.9c-3.9-4.3-8.6-11.4-10.8-17.1c-0.4-1.1,0-2.3,0.8-3.1c5.1-4.6,7.3-6.8,7.5-9.2c0.1-1.4-2.9-19.1-6-20.8  l-0.9-0.6c-2-1.3-5-3.2-8.3-2.5c-0.8,0.2-1.6,0.5-2.3,0.9C17.5,7.5,12,11.3,9.5,16.2C8,19.3,7.3,47.4,28.3,71.1  c20.8,23.5,46.5,24.5,50.3,23.7l0.1,0l0.3-0.1c5.2-1.9,9.6-6.8,11.3-8.9C93.4,82.1,91.3,77.6,90.1,75.1z"></path></svg>
