<svg viewBox="0 0 100 100" xmlns="http://www.w3.org/2000/svg"><path d="m24.015 86.058c0-6.076 2.112-11.658 5.619-16.088v16.088a3.503 3.503 0 0 0 3.503 3.503h33.727a3.503 3.503 0 0 0 3.503-3.503v-16.088c3.507 4.43 5.619 10.013 5.619 16.088a3.503 3.503 0 0 0 3.503 3.503h7.008a3.503 3.503 0 0 0 3.503-3.503c0-19.29-13.726-35.434-31.923-39.18 7.096-3.316 11.833-10.84 10.939-19.375-.922-8.814-8.021-15.966-16.829-16.943-11.541-1.28-21.311 7.72-21.311 19.002 0 7.672 4.528 14.27 11.047 17.316-18.197 3.746-31.923 19.891-31.923 39.18a3.503 3.503 0 0 0 3.503 3.503h7.008a3.503 3.503 0 0 0 3.504-3.503z" fill="#333"/></svg>