<svg enable-background="new 0 0 512 512" height="512" viewBox="0 0 512 512" width="512" xmlns="http://www.w3.org/2000/svg"><path d="m448 64h-384c-35.344 0-64 28.656-64 64v256c0 35.344 28.656 64 64 64h384c35.344 0 64-28.656 64-64v-256c0-35.344-28.656-64-64-64zm-105.344 170.781 135.469-116.094c.938 3 1.875 6 1.875 9.313v256c0 2.219-.844 4.188-1.281 6.281zm105.344-138.781c2.125 0 4 .813 6 1.219l-198 169.719-198-169.719c2-.406 3.875-1.219 6-1.219zm-414.734 294.25c-.438-2.094-1.266-4.031-1.266-6.25v-256c0-3.313.953-6.313 1.891-9.313l135.422 116.063zm30.734 25.75c-3.234 0-6.172-.938-9.125-1.844l138.75-158.563 51.969 44.531c2.984 2.595 6.703 3.876 10.406 3.876s7.422-1.281 10.406-3.875l51.969-44.531 138.75 158.563c-2.937.906-5.875 1.843-9.125 1.843z"/></svg>