<svg preserveAspectRatio="xMidYMid meet" viewBox=".5 .42 115 120.08" xmlns="http://www.w3.org/2000/svg"><path d="m9.6 118h96.8c3.6 0 6.6-2.9 6.6-6.5v-106.3c0-.3-.1-.6-.2-.8-.2-.5-.7-1-1.2-1.2s-1.1-.2-1.7 0c-.3.1-.5.3-.7.5l-7.2 7.2-7.2-7.2c-.9-.9-2.3-.9-3.1 0l-7.2 7.2-7.2-7.2c-.9-.9-2.3-.9-3.1 0l-7.2 7.2-7.2-7.2c-.9-.9-2.3-.9-3.1 0l-7.2 7.2-7.5-7.3c-.9-.9-2.3-.9-3.1 0l-7.2 7.2-7.2-7.2c-.9-.9-2.3-.9-3.1 0l-7.4 7.2-7.2-7.2c-.2-.2-.5-.3-.8-.4-.5-.2-1.1-.2-1.7 0-.5.2-1 .6-1.2 1.2 0 .2-.1.5-.1.8v106.3c0 3.6 3 6.5 6.6 6.5" fill="#f2decb" stroke="#000" stroke-width="5"/></svg>