<svg enable-background="new 0 0 48 48" viewBox="0 0 48 48" xmlns="http://www.w3.org/2000/svg"><ellipse cx="24" cy="45.1" fill="#45413c" opacity=".15" rx="14.2" ry="1.9"/><path d="m37 44.5h-26c-1.9 0-3.5-1.6-3.5-3.5v-33.2c0-1.9 1.5-3.4 3.5-3.4h26c1.9 0 3.5 1.6 3.5 3.5v33.1c0 1.9-1.5 3.5-3.5 3.5z" fill="#debb7e"/><path d="m37 44.5h-26c-1.9 0-3.5-1.6-3.5-3.5v-33.2c0-1.9 1.5-3.4 3.5-3.4h26c1.9 0 3.5 1.6 3.5 3.5v33.1c0 1.9-1.5 3.5-3.5 3.5z" fill="none" stroke="#45413c" stroke-linecap="round" stroke-linejoin="round" stroke-miterlimit="10"/><path d="m35.1 40.4h-22.2c-.7 0-1.2-.6-1.2-1.2v-27.6c0-.7.6-1.2 1.2-1.2h22.3c.7 0 1.2.6 1.2 1.2v27.6c0 .7-.6 1.2-1.3 1.2z" fill="#fffef2"/><path d="m35.1 10.4h-22.2c-.7 0-1.2.6-1.2 1.2v3.9c0-.7.6-1.2 1.2-1.2h22.3c.7 0 1.2.6 1.2 1.2v-3.9c0-.7-.6-1.2-1.3-1.2z" fill="#fff"/><path d="m35.1 40.4h-22.2c-.7 0-1.2-.6-1.2-1.2v-27.6c0-.7.6-1.2 1.2-1.2h22.3c.7 0 1.2.6 1.2 1.2v27.6c0 .7-.6 1.2-1.3 1.2z" fill="none" stroke="#45413c" stroke-linecap="round" stroke-linejoin="round" stroke-miterlimit="10"/><path d="m26 8.1c0-1.1-.9-2-2-2s-2 .9-2 2h-3.5c-.7 0-1.2.6-1.2 1.2v1.9c0 .7.6 1.2 1.2 1.2h11c.7 0 1.2-.6 1.2-1.2v-1.9c0-.7-.6-1.2-1.2-1.2z" fill="#daedf7"/><path d="m29.5 8.1h-3.5c0-1.1-.9-2-2-2s-2 .9-2 2h-3.5c-.7 0-1.2.6-1.2 1.2v1.9.1c0-.7.6-1.2 1.2-1.2h3.5c0-1.1.9-2 2-2s2 .9 2 2h3.5c.7 0 1.2.5 1.2 1.2 0 0 0 0 0-.1v-1.9c.1-.6-.5-1.2-1.2-1.2z" fill="#e8f4fa"/><g fill="none" stroke="#45413c" stroke-linecap="round" stroke-linejoin="round" stroke-miterlimit="10"><path d="m26 8.1c0-1.1-.9-2-2-2s-2 .9-2 2h-3.5c-.7 0-1.2.6-1.2 1.2v1.9c0 .7.6 1.2 1.2 1.2h11c.7 0 1.2-.6 1.2-1.2v-1.9c0-.7-.6-1.2-1.2-1.2z"/><path d="m15.4 16.3h6.2"/><path d="m15.4 34.4h6.2"/><path d="m15.4 20h14.5"/><path d="m15.4 23.3h14.5"/><path d="m15.4 26.9h14.5"/></g></svg>