<svg height="203.34843" viewBox="0 0 132.82084 53.802609" width="502.00003" xmlns="http://www.w3.org/2000/svg"><g transform="translate(128.209523 -34.61953)"><path d="m-127.94494 34.884113h132.29167v53.273438h-132.29167z" fill="#fff" stroke-width=".264583"/><path d="m4.3467331 88.157552v-53.273439h-132.2916731v53.273439zm-79.1063221-48.134758-9.132167 42.878625h-14.32958l-9.007374-29.672215h-.1248l-5.99024 29.672215h-10.87198l9.20558-42.878625h14.38097l8.831189 29.738281h.124804l6.04896-29.738281zm40.991992 0-8.955985 42.878625h-11.540011l3.831989-18.367116h-13.654211l-3.824642 18.367116h-11.540012l8.955988-42.878625h11.540011l-3.391533 16.407075h13.639528l3.398869-16.407075zm33.15917009 1.167215-2.78222999 8.537552c-2.22431-1.035077-5.24879-1.960041-9.5065501-1.960041-4.56609 0-8.27328.66803-8.27328 4.118286 0 6.078325 16.7300801 3.809965 16.7300801 16.832851 0 11.84833-11.0555101 14.924198-21.0539101 14.924198-4.44129 0-9.57263-1.049761-13.33121-2.216975l2.71616-8.721077c2.2757 1.475539 6.85647 2.459228 10.61505 2.459228 3.58239 0 9.19823-.67537 9.19823-5.101976 0-6.878492-16.73007-4.30181-16.73007-16.392393 0-11.062846 9.75615-14.380966 19.20399-14.380966 5.3148601 0 10.3067301.557914 13.21374009 1.901313" fill="#005eb8"/></g></svg>