<svg enable-background="new 0 0 488 121" viewBox="0 0 488 121" xmlns="http://www.w3.org/2000/svg"><path d="m9.6 118h96.8c3.6 0 6.6-2.9 6.6-6.5v-106.3c0-.3-.1-.6-.2-.8-.2-.5-.7-1-1.2-1.2s-1.1-.2-1.7 0c-.3.1-.5.3-.7.5l-7.2 7.2-7.2-7.2c-.9-.9-2.3-.9-3.1 0l-7.2 7.2-7.2-7.2c-.9-.9-2.3-.9-3.1 0l-7.2 7.2-7.2-7.2c-.9-.9-2.3-.9-3.1 0l-7.2 7.2-7.5-7.3c-.9-.9-2.3-.9-3.1 0l-7.2 7.2-7.2-7.2c-.9-.9-2.3-.9-3.1 0l-7.4 7.2-7.2-7.2c-.2-.2-.5-.3-.8-.4-.5-.2-1.1-.2-1.7 0-.5.2-1 .6-1.2 1.2 0 .2-.1.5-.1.8v106.3c0 3.6 3 6.5 6.6 6.5" fill="#f2decb" stroke="#000" stroke-width="5"/><path d="m146.2 62.1c0 16 12.9 28.7 28.9 28.7 11.6 0 19.8-5.3 19.8-5.3.3-.2.6-.9.6-1.3v-18.3c0-.8-.6-1.5-1.4-1.5h-13.8c-.9 0-1.5.6-1.5 1.5v3c0 .8.6 1.4 1.5 1.4h9.2v11.2s-5.6 3.4-14.4 3.4c-12.6 0-22.2-10.8-22.2-23.1 0-12.4 9.6-23 22.2-23 5.4 0 11.1 2.6 15.2 6.2.9.8 1.4.9 2.1.1.6-.7 1.5-1.5 2.2-2.2.6-.6.6-1.6-.1-2.2-5.4-4.6-11.3-7.4-19.4-7.4-16.1-.1-28.9 12.8-28.9 28.8z"/><path d="m209.3 43.5c2.5 0 4.4-2 4.4-4.3 0-2.6-1.9-4.5-4.4-4.5-2.4 0-4.3 1.9-4.3 4.5 0 2.3 1.9 4.3 4.3 4.3zm-2.8 44.7c0 1 .8 1.8 1.8 1.8h2.4c.9 0 1.8-.8 1.8-1.8v-33.4c0-.9-.9-1.8-1.8-1.8h-2.4c-1 0-1.8.9-1.8 1.8z"/><path d="m236.4 89.9c.2.5.7 1 1.5 1h.5c.9 0 1.4-.5 1.5-1l15.9-34.8c.5-1.1 0-2.1-1.4-2.1h-2.6c-.6 0-1.2.4-1.4 1l-12.2 27.2h-.2l-11.4-27.2c-.2-.6-.8-1-1.7-1h-2.8c-1.4 0-1.9 1-1.4 2.1z"/><path d="m260.9 71.5c0 10.6 6.7 19.4 17.9 19.4 6.4 0 11.3-2.5 13.5-4.2 1.4-1 1-1.4.3-2.6l-1-1.4c-1-1.4-1.5-1.1-2.8-.2-2.1 1.4-5.1 3-10 3-6.7 0-11.9-6.5-12.1-12.6h26.9c.8 0 1.6-.6 1.7-1.6.1-.6.2-1.6.2-2.2 0-9.7-7-16.8-16.7-16.8-11.2-.1-17.9 8.8-17.9 19.2zm6-3.3c.7-5.8 5.7-10.6 11.9-10.6 6.3 0 10.6 5.1 10.8 10.6z"/><path d="m325.9 88.5c0 .8.6 1.5 1.5 1.5h3.1c.8 0 1.5-.7 1.5-1.5v-21.9h23c.8 0 1.5-.7 1.5-1.5v-2.3c0-.8-.7-1.5-1.5-1.5h-23v-21.9h27c.9 0 1.5-.7 1.5-1.5v-2.3c0-.8-.6-1.5-1.5-1.5h-31.5c-.9 0-1.5.7-1.5 1.5v52.9z"/><path d="m364.7 71.4c0 10.6 8.3 19.4 18.6 19.4s18.6-8.9 18.6-19.4c0-10.4-8.3-19.2-18.6-19.2s-18.6 8.8-18.6 19.2zm5.9 0c0-7.5 5.4-13.8 12.7-13.8s12.6 6.3 12.6 13.8c0 7.7-5.4 14.1-12.6 14.1s-12.7-6.4-12.7-14.1z"/><path d="m409.5 71.4c0 10.6 8.3 19.4 18.6 19.4 10.2 0 18.6-8.9 18.6-19.4 0-10.4-8.3-19.2-18.6-19.2s-18.6 8.8-18.6 19.2zm5.9 0c0-7.5 5.4-13.8 12.7-13.8s12.6 6.3 12.6 13.8c0 7.7-5.4 14.1-12.6 14.1s-12.7-6.4-12.7-14.1z"/><path d="m454.4 71.4c0 10.6 7.2 19.4 16.6 19.4 7 0 11.7-4.8 11.7-4.8l.5 2.4c.3.9.8 1.5 1.6 1.5h1.4c1 0 1.8-.8 1.8-1.8v-52.3c0-.9-.9-1.8-1.8-1.8h-2.2c-1 0-1.8.9-1.8 1.8v18.8s-4.2-2.3-10.2-2.3c-11.2-.1-17.6 8.3-17.6 19.1zm6 .1c0-7.4 4.4-13.9 12.3-13.9 5.1 0 9.4 2.1 9.4 2.1v19.9s-3.8 5.9-10.5 5.9-11.2-6.8-11.2-14z"/></svg>