<?xml version="1.0" encoding="utf-8"?>
<!-- Generator: Adobe Illustrator 26.0.2, SVG Export Plug-In . SVG Version: 6.00 Build 0)  -->
<svg version="1.1" id="Group_664" xmlns="http://www.w3.org/2000/svg" xmlns:xlink="http://www.w3.org/1999/xlink" x="0px" y="0px"
	 viewBox="0 0 136 36.3" style="enable-background:new 0 0 136 36.3;" xml:space="preserve">
<style type="text/css">
	.st0{fill:#F8BD41;}
</style>
<path id="Path_6981" class="st0" d="M44.6,20.2c-0.1-0.6-0.2-1.1-0.5-1.6c-0.3-0.5-0.6-1-1-1.4c-0.4-0.4-0.9-0.7-1.5-1
	c-0.6-0.2-1.2-0.4-1.9-0.4c-1.3,0-2.6,0.4-3.6,1.3c-0.9,0.8-1.5,1.8-1.7,3L44.6,20.2z M50.8,31.9c-1.2,1.5-2.8,2.6-4.5,3.3
	c-1.8,0.8-3.7,1.2-5.6,1.2c-1.8,0-3.5-0.3-5.1-0.9c-3.1-1.2-5.6-3.6-6.8-6.7c-0.7-1.7-1-3.5-1-5.3c0-1.7,0.3-3.4,0.8-4.9
	c0.5-1.5,1.4-2.9,2.4-4.1c1.1-1.2,2.4-2.2,3.8-2.8c1.6-0.7,3.3-1.1,5-1c1.6,0,3.2,0.3,4.7,1c1.4,0.7,2.7,1.6,3.7,2.7
	c1.1,1.2,1.9,2.5,2.4,4c0.6,1.6,0.9,3.2,0.9,4.9c0,0.6,0,1.3-0.2,1.9H34.1c0.1,0.8,0.3,1.7,0.7,2.4c0.4,0.7,0.9,1.3,1.5,1.8
	c0.6,0.5,1.3,0.9,2,1.2c0.8,0.3,1.6,0.4,2.5,0.4c1.3,0,2.6-0.3,3.8-0.9c0.9-0.5,1.7-1.2,2.5-1.9L50.8,31.9z"/>
<path id="Path_6982" class="st0" d="M73.8,19.7c-0.7-0.9-1.6-1.7-2.6-2.2c-1.1-0.6-2.3-0.9-3.5-0.8c-1.8,0-3.5,0.7-4.6,2.1
	c-0.6,0.6-1,1.4-1.3,2.2c-0.6,1.7-0.6,3.6,0,5.3c0.3,0.8,0.8,1.5,1.4,2.1c1.2,1.2,2.9,1.9,4.7,1.9c1.2,0,2.4-0.3,3.4-0.8
	c1-0.5,1.9-1.3,2.5-2.2V19.7z M80.4,35.8H74v-2c-1,0.8-2.1,1.5-3.3,1.9c-1.2,0.4-2.4,0.6-3.6,0.6c-1.8,0-3.6-0.4-5.2-1.1
	c-1.6-0.7-3-1.7-4.1-3.1c-1-1.2-1.8-2.5-2.3-3.9c-0.6-1.5-0.9-3.2-0.8-4.8c0-1.7,0.3-3.5,0.9-5.1c0.6-1.5,1.5-2.9,2.6-4.1
	c1.1-1.2,2.4-2.1,3.9-2.7c2.8-1.2,5.9-1.3,8.7-0.3c1.2,0.4,2.3,1.1,3.3,1.8v-2h6.4L80.4,35.8z"/>
<path id="Path_6983" class="st0" d="M108.5,30.7c-1.3,1.8-3,3.2-4.9,4.2c-2,0.9-4.1,1.4-6.3,1.3c-1.8,0-3.6-0.3-5.3-1
	c-1.6-0.6-3-1.6-4.2-2.8c-1.2-1.2-2.1-2.6-2.8-4.1c-0.7-1.6-1-3.3-1-5c0-1.7,0.3-3.5,1-5.1c1.3-3.1,3.9-5.6,7-6.9
	c1.7-0.7,3.5-1,5.3-1c2.1,0,4.1,0.4,5.9,1.4c1.7,0.8,3.3,2.1,4.5,3.6l-4.7,4.1c-0.7-0.9-1.5-1.6-2.5-2.1c-1.8-1-4-1.1-5.9-0.3
	c-0.8,0.3-1.5,0.8-2.1,1.5c-1.2,1.3-1.9,3-1.9,4.8c0,0.9,0.2,1.9,0.5,2.7c0.3,0.8,0.8,1.5,1.4,2.1c0.6,0.6,1.3,1.1,2.1,1.4
	c0.9,0.4,1.8,0.5,2.8,0.5c1.3,0,2.5-0.3,3.6-1c0.9-0.6,1.7-1.4,2.3-2.3L108.5,30.7z"/>
<path id="Path_6984" class="st0" d="M118.1,35.8h-6.6V0h6.6v12.8c0.9-0.7,2-1.3,3.1-1.7c1.2-0.4,2.4-0.6,3.6-0.6
	c1.7,0,3.3,0.4,4.8,1.1c1.4,0.7,2.7,1.7,3.8,2.9c0.8,1,1.5,2.2,1.9,3.5c0.5,1.7,0.7,3.5,0.7,5.2v12.6h-6.6V22.7c0-1-0.1-2-0.4-2.9
	c-0.2-0.7-0.6-1.3-1.1-1.8c-1-1-2.3-1.5-3.7-1.4c-0.7,0-1.4,0.1-2,0.3c-0.6,0.2-1.2,0.4-1.7,0.8c-0.5,0.3-0.9,0.6-1.4,1
	c-0.3,0.3-0.7,0.6-0.9,1L118.1,35.8z"/>
<path id="Path_6985" class="st0" d="M6.4,6.2h6.5c6.4,0,6.4,3.4,6.4,4.5c0,1.1,0,4.6-6.4,4.6H6.4V6.2z M18.5,20.6
	c4.4-1.3,7.3-5.3,7.2-9.9c0.1-3.1-1.2-6-3.5-8C19.9,0.9,16.8,0,12.8,0H0v35.8h6.4V21.5h5.2l7.7,14.3h7.6L18.5,20.6z"/>
</svg>
