<svg height="127" viewBox="0 0 196 171.3" width="146" xmlns="http://www.w3.org/2000/svg"><path d="m45.8 140c-4.4-14.7-12.6-31.7-15.8-38-.9-1.8-1.7-3.7-2.4-5.5 3.2.3 11.3.6 14.9-4.3 0 0 2.1-1.9 4.9-8.9 2.1-5.3 3.8-11.6 3.8-11.6s-4.2 2.4-9.1 3.5-16.6 3.2-16.7 12.7v.5c-2.6-11.4-1.8-21.2-1.8-21.4l-3.9-.3c-.1.8-1.5 19.5 6.5 36.2-5.4-2.5-12.8-.1-16.5 1-4.8 1.4-9.7 1.3-9.7 1.3s4.5 4.7 8.9 8.3c5.8 4.8 8.6 5.4 8.6 5.4 5.3 2.4 12-1.3 14.8-3.3 2.2 4.8 4.3 9.8 6.1 14.5-7.4-5-14.7 15-15.4 22.9-.8 9.2 6.5 17.3 16.4 18.2s18.6-5.8 19.5-14.9c.7-7.2-7.3-10.8-13.1-16.3z" fill="#45ac34"/><path d="m41.7 133.3c8.4-16.4 18 8.9 18.9 18.1.8 9.2-6.5 17.3-16.4 18.2s-18.6-5.8-19.5-14.9 12.4-12.5 17-21.4z" fill="#007e47"/><path d="m51.6 137.3s12.5 20.4-4.6 27.9c0 0 11.6-7.6 4.6-27.9z" fill="#fff"/><path d="m31.7 0s-3.8 8.9-10.3 16.6c-6.6 7.7-22.6 25.1-11.5 40.4 0 0 5.2 8.4 11.6 12.2 0 0 21.2-10.7 21-26.1 0 0 1.1-5.5-2.9-20-3-11-7.9-23.1-7.9-23.1z" fill="#007e47"/><path d="m29.9 13.1s-17.1 16.2-17.1 26.8 8.3 22.6 7.6 20.7c-10.6-27.5 9.5-47.5 9.5-47.5z" fill="#fff"/><path d="m81.1 134.7v-3.9h-1.8c-2.2 0-3-.6-3-3.5v-10.4h4.8v-4.2h-4.8v-6.4h-4.3l-1.3 6.4h-3.1v4.2h3.2v12.1c0 4.7 2.4 6.2 6 6.2 1.5 0 3.3-.2 4.3-.5zm15.6-22.3c-.8-.2-1.5-.3-2.6-.3-2.3 0-3.6 1.3-5.7 4.2l-.6-3.6h-4.3v22h5.5v-13.6c2-2.6 3.3-3.9 4.7-3.9.6 0 1.8.2 2.3.3zm21.2 22.3v-22h-5.5v15c-1.9 2-3.2 3-5.4 3-2.7 0-3.6-2-3.6-5.3v-12.8h-5.5v13.9c0 5.2 2.3 8.7 7.8 8.7 3.1 0 5.1-1 7.5-3.4l.5 2.8h4.2zm18.2-6.7c0-3.6-1.9-5.2-6-6.5-2.7-.9-3.8-1.5-3.8-2.9 0-1.2.8-2.4 3.1-2.4 1.5 0 3.2.3 4.7.8l.6-4.2c-1.6-.4-3.6-.7-5.5-.7-5.4 0-8.6 2.8-8.6 7 0 3.7 2.2 5.2 5.9 6.4 2.6.9 3.7 1.5 3.7 3 0 1.7-1.3 2.5-3.4 2.5-1.8 0-3.8-.4-5.5-1l-.8 4.4c2.1.5 4.4.8 6.5.8 5.7.1 9.1-2.8 9.1-7.2zm13.7 6.7v-3.9h-1.8c-2.2 0-3-.6-3-3.5v-10.4h4.8v-4.2h-4.8v-6.4h-4.2l-1.3 6.4h-3.1v4.2h3.2v12.1c0 4.7 2.4 6.2 6 6.2 1.5 0 3.2-.2 4.2-.5z" fill="#45ac34"/><path d="m81.1 102.6v-3.9h-1.8c-2.2 0-3-.6-3-3.5v-10.4h4.8v-4.2h-4.8v-6.4h-4.3l-1.3 6.4h-3.1v4.2h3.2v12.1c0 4.7 2.4 6.2 6 6.2 1.5 0 3.3-.2 4.3-.5zm15.6-22.3c-.8-.2-1.5-.3-2.6-.3-2.3 0-3.6 1.3-5.7 4.2l-.6-3.6h-4.3v22h5.5v-13.5c2-2.6 3.3-3.9 4.7-3.9.6 0 1.8.2 2.3.3zm21.2 22.3v-22h-5.5v15c-1.9 2-3.2 3-5.4 3-2.7 0-3.6-2-3.6-5.3v-12.7h-5.5v13.9c0 5.2 2.3 8.7 7.8 8.7 3.1 0 5.1-1 7.5-3.4l.5 2.8zm18.2-6.6c0-3.6-1.9-5.2-6-6.5-2.7-.9-3.8-1.5-3.8-2.9 0-1.2.8-2.4 3.1-2.4 1.5 0 3.2.3 4.7.8l.6-4.2c-1.6-.4-3.6-.7-5.5-.7-5.4 0-8.6 2.8-8.6 7 0 3.7 2.2 5.2 5.9 6.4 2.6.9 3.7 1.5 3.7 3 0 1.7-1.3 2.5-3.4 2.5-1.8 0-3.8-.4-5.5-1l-.8 4.4c2.1.5 4.4.8 6.5.8 5.7 0 9.1-2.9 9.1-7.2zm16.7 0c0-3.6-1.9-5.2-6-6.5-2.7-.9-3.8-1.5-3.8-2.9 0-1.2.8-2.4 3.1-2.4 1.5 0 3.2.3 4.7.8l.6-4.2c-1.6-.4-3.6-.7-5.5-.7-5.4 0-8.6 2.8-8.6 7 0 3.7 2.2 5.2 5.9 6.4 2.6.9 3.7 1.5 3.7 3 0 1.7-1.3 2.5-3.4 2.5-1.8 0-3.8-.4-5.5-1l-.8 4.4c2.1.5 4.4.8 6.5.8 5.7 0 9.1-2.9 9.1-7.2zm21.4-5.7c0-6.3-2.9-10.2-9.5-10.2-7 0-10.8 4.5-10.8 11.8 0 7.7 3.5 11.4 10.9 11.4 3.2 0 6.1-.5 8.6-1.2l-.5-4c-2.3.6-4.7.9-7.3.9-4.5 0-6.1-2.3-6.1-6h14.5c.2-1 .2-2.2.2-2.7zm-5.4-1h-9.2c0-2.7 1.6-5.4 4.8-5.4 3 0 4.5 2.2 4.4 5.4zm16.9 13.3v-4h-1.5c-1.3 0-1.7-.7-1.7-2.2v-25.9h-5.5v27.4c0 4 2.2 5.2 5.3 5.2 1.4 0 2.6-.2 3.4-.5zm10.3 0v-4h-1.5c-1.3 0-1.7-.7-1.7-2.2v-25.9h-5.5v27.4c0 4 2.2 5.2 5.3 5.2 1.5 0 2.7-.2 3.4-.5z" fill="#007e47"/><path d="m81.1 70.5v-3.9h-1.8c-2.2 0-3-.6-3-3.5v-10.4h4.8v-4.2h-4.8v-6.4h-4.3l-1.3 6.4h-3.1v4.2h3.2v12.1c0 4.7 2.4 6.2 6 6.2 1.5 0 3.3-.2 4.3-.5zm22.4 0v-13.8c0-5.2-2.3-8.7-7.6-8.7-3 0-4.9 1.1-6.9 3v-12.6h-5.5v32.1h5.5v-15c1.9-2 3.2-3 5.4-3 2.7 0 3.6 2 3.6 5.3v12.8h5.5zm22.8-12.3c0-6.3-2.9-10.2-9.5-10.2-7 0-10.8 4.5-10.8 11.8 0 7.7 3.5 11.4 10.9 11.4 3.2 0 6.1-.5 8.6-1.2l-.5-4c-2.3.6-4.7.9-7.3.9-4.5 0-6.1-2.3-6.1-6h14.5c.2-1 .2-2.2.2-2.7zm-5.4-1h-9.2c0-2.7 1.6-5.4 4.8-5.4 3.1 0 4.5 2.2 4.4 5.4z" fill="#45ac34"/><g fill="#717070"><path d="m78.8 149.3v.2c-.1.3-.2.6-.3.7s-.2.1-.3.1h-.1c-.1 0-.4-.1-.8-.3-.9-.3-1.7-.8-3-.8-1 0-3.8.4-3.9 1v.1c0 1.3 3.2 2.1 5.6 2.9 1.2.4 2.1.6 2.7.8 1.7.6 2.9.9 3.5 1.4.5.4.8 1 .8 1.6 0 .2 0 .3-.1.5-.4 1.9-3.4 4-6.7 4.5-.5.1-.9.1-1.4.1-2.6 0-6-1.5-6-4.2v-.1c0-1.2.2-1.8.9-2.1.1 0 .3-.1.4-.1.3 0 .7.1.8.5v.5c-.1.3-.1.5-.1.6v.1c0 .5.2 1 .7 1.3.9.7 2 1.3 3.3 1.3.3 0 .6 0 .9-.1 1.7-.2 3.4-1.2 4.6-2.4.2-.2.2-.3.2-.4s0-.2-.1-.3c-.3-.4-1-.6-3.4-1.2-1.1-.3-2-.6-2.7-.8-4.8-1.6-6.7-2.6-6.8-4.7 0-2 3.2-2.9 6.1-3.1h.5c1.9.3 4.7 1.2 4.7 2.4z"/><path d="m87.1 147.5c.1 0 .1 0 .2.1.2.2.3.8.3 1.8 0 .6 0 1.3-.1 2.1-.1 1.1-.1 1.2-.1 1.8v.9c0 .1.2.1.6.1h.2c.5 0 1.1-.1 1.8-.2l.2-.1c.5-.1.8-.2 1-.2.3 0 .5.1.7.3.1.1.1.3.1.5 0 .1 0 .3-.1.3-.4.9-1.7 1-4 1.1h-.4v1.6c.1.6.1 1.3.1 2.2v.3c0 1.2-.1 1.9-.2 1.9h-.1c0 .1 0 0-.3 0-.6 0-.9 0-.9-.1-.4-.4-.6-1.4-.6-2.8 0-.4 0-.9.1-1.5v-.3c0-.9-.2-1.2-1.4-1.2h-.4c-.7 0-1.2-.1-1.5-.9v-.1c0-.2.1-.4.2-.5.3-.3.8-.5 1.5-.5h.7c.2 0 .5-.1.6-.1h.1c-.1-.7-.1-1.4-.1-2 0-.5 0-1 .1-1.5.1-1.5.4-2.6.8-3.1.3.2.5.1.9.1zm8.1 6.5c1.7 0 2.7 1.4 2.7 3.5 0 2.5-1.5 4.9-3.7 4.9-.2 0-.4 0-.7-.1-1.8-.3-2.3-2.2-2.3-3.9v-.7c.2-2.3 1.7-3.8 3.8-3.8h.2zm-1.7 3c-.2.4-.3.8-.3 1.2v.1c0 1.1.5 1.9 1.1 1.9s1.6-1 1.6-2.3v-.3c0-.6-.1-1.1-.4-1.5-.2-.2-.3-.4-.6-.4-.6.1-1.3.8-1.4 1.3zm12.2.3c0 1.5-2 3.5-3.9 3.9-.3.1-.5.1-.6.2v1.7c0 .3.1 1.7.2 2.8v.2c0 .4-.3.7-.8.7-.7 0-1.1-.3-1.4-2-.1-.5-.1-1.1-.1-1.3v-.8c-.1-2.2-.3-3.2-.3-4.5v-2.8c0-.7.1-1.1.3-1.3.1-.2-.1-.2.4-.2h.2c2.2 0 5 1 5.7 2.6.3.3.3.5.3.8zm-2.2-.2c0-.2-.1-.4-.2-.5-.2-.3-.9-.4-1.3-.5-.2 0-.4-.1-.5-.1-.2 0-.3 0-.4.1 0 .1-.1.4-.1.8 0 .3 0 .8.1 1.3 0 .5.1.8.1 1.1v.1c1-.1 2.2-1 2.3-2.1zm18-11.2c.8.9 1.3 2.6 1.6 5 .1 1 .2 1.9.2 2.8 0 2.7-.5 7.2-3.3 8.3-.4.2-.9.2-1.3.2-2 0-4.2-1.5-4.9-3.3-.6-1.5-.8-3.3-.8-5.2 0-1.3.1-2.8.4-4.3v-.3c.2-1.3.5-1.6 1.2-1.6.5 0 .8.1 1 .4.1.1.1.3.1.5 0 .3-.1.7-.2 1.1-.1.2-.1.4-.1.5-.2.8-.2 1.6-.2 2.6v1.2c.1 3 .4 5.2 1.9 6 .4.2.9.3 1.2.3 1.9 0 2.7-2.9 2.7-4.9v-.5c0-1.9-.2-3.5-.6-4.7l-.1-.3c-.2-.8-.4-1.4-.4-1.8v-.5c0-.9.4-1.4 1.3-1.4.1-.1.1-.1.3-.1zm5.9.3c.2 0 .4.1.6.3s.3.6.3 1.2-.1 1.5-.3 2.5c-.1.4-.1.7-.1.8l.2.1c.4-.2 1-.6 1.7-1.1.6-.4 1-.7 1.3-.9s.7-.4 1.2-.9c.8-.6 1.4-1 1.8-1.1.2-.1.3-.1.4-.1s.3 0 .4.1c.3.1.5.2.6.5.1.1.1.2.1.3 0 .2 0 .3-.2.5-.7 1.1-1.5 1.8-2.3 2.2-.5.3-1.2.7-2.1 1.2-.5.3-.9.6-1.2.7-.8.5-1.3 1-1.3 1.5s.5 1.1 1.4 1.8l.4.3c2.5 1.8 4.3 2.8 5.6 3.1h.1c1.1.2 1.7.6 1.9 1.1v.3c0 .1 0 .2-.1.3-.2.4-1 .4-1.5.4-1.8 0-3.8-.9-5.7-2.4l-.4-.3c-.8-.7-1.4-1-1.8-1 0 0 0 .4.2 1.3.1.8.2 1.5.2 2 0 1.2-.3 1.5-.9 1.5h-.2c-1.1-.1-1.3-1.6-1.3-4.1 0-1.3.3-1.6-1.1-2.8-.4-.4-.7-.6-.8-.8s-.2-.4-.2-.5 0-.2.1-.3c.1-.2.3-.4.7-.6.7-.4 1.1-.9 1.2-2.1v-1.7c0-1.5.2-2.4.5-2.8.2-.2.4-.3.7-.3-.2-.2-.2-.2-.1-.2zm25.8-.3c.4.5.7 1.5.7 3.1 0 .8 0 1.7-.2 2.7 0 .3 0 .5-.1.6v1.3c.1.8.3.9.8 1 .2 0 .4.1.5.1.6.2.9.4.9.8 0 .2-.1.4-.5.5-.5.2-1 .4-1.5.5h-.1v.3c0 .6.1 1.3.3 2.1s.3 1.5.3 2.1-.4 1.1-1.2 1.1h-.3c-.6-.1-.6-.5-.7-1.3 0-.5-.1-.8-.1-.9-.1-.3-.2-.8-.2-1.5-.1-1.3-.1-2-.3-2.2-.1-.1-.4-.2-.9-.2-.4 0-1.1.1-2 .2-.3 0-.4.1-.5.1l-.1.1.1.7c.1 1.1.2 2 .2 2.7 0 .9-.1 1.5-.2 1.8-.2.3-.4.4-.8.4-.5 0-1-.3-1.2-.7-.1-.2-.1-.5-.1-1 0-.3 0-.7.1-1.2v-1.1c0-.9-.1-1.5-.3-1.8-.2-.1-.3-.2-.6-.2-.1 0-.3 0-.5.1h-.2c-.3 0-.6-.2-.6-.7v-.1c0-.3.2-.6.6-.8.1 0 .3-.1.6-.1h.5c.2 0 .4-.1.4-.6v-1.1.3c0-1.1-.1-2.3-.2-3.3v-.4c-.1-.6-.1-1.1-.1-1.5v-.3c.1-.7.3-1.2.6-1.4s.5-.3.8-.3c.2 0 .4.1.6.3.3.4.5 1.2.5 2.5 0 .5 0 1.1-.1 1.7v3.1c0 .9.4 1.2 1.2 1.2.2 0 .4 0 .8-.1.4 0 .6-.1.8-.1 1 0 1.2-.3 1.2-1.3v-1.5c0-.6 0-1.3-.1-2 0 0 0-.2-.1-.4-.1-.6-.1-1.2-.1-1.6 0-.9.1-1.4.4-1.8.2-.2.4-.3.8-.3-.4.1-.1.2.2.4zm9.3 11.5c.1 1.1.1 1.2.5 2.6.3 1 .5 1.7.5 2.1 0 .5-.2.8-.7.8-.3 0-.6-.1-.9-.4-.4-.3-.7-1.1-1-2.3-.1-.3-.1-.6-.2-.7-.8 1.4-2.4 2.7-3.5 2.7-.9 0-1.5-.8-1.5-2.6s.8-5.5 2.1-5.6c.5 0 .7.3.7 1.1 0 .6-.1 1.5-.4 2.7-.2.9-.3 1.5-.3 1.8v.2h.1c1.4-.9 1.8-2.2 2.1-4.1.2-1.2.3-1.7.9-1.7 1.3.1 1.5 1.4 1.6 3.4zm7-4.3c.4 1 .8 2.5 1.1 4.7.1.8.2 1.3.3 1.7 0 .1.1.4.2.7.1.5.2.9.2 1.3 0 .5-.2.8-.8.8h-.4c-.8-.1-1.1-1.7-1.5-4.6-.1-1-.2-1.6-.3-1.9h-.2c-1.6 1.2-2.1 2.4-2.1 4.2 0 .7-.7 2-1.4 2-.5 0-1-.7-1-1.9 0-.6.1-1.3.2-2.1s.2-1.3.2-1.6c0-1 .5-1.4 1.1-1.4.2 0 .8.1.8.3l.2.1c.2-.2.4-.5.7-.9.5-.8.7-1 1.2-1.3.4-.2.7-.3.9-.3.2-.2.4-.1.6.2zm7.4.9c.9 0 2.5.3 2.5 1.1v.1h-.1c-.2.1-.3.5-.3 1.1 0 .3 0 .7.1 1.2 0 .3.1.6.1.7v.3c0 1 .1 1.9.1 2.7 0 2.4-.1 3.9-.7 5.1-.5 1-1.1 1.5-2 1.7-.2 0-.4.1-.6.1-.8 0-1.5-.3-2.2-.8-.3-.3-.6-.6-.8-1-.1-.2-.2-.4-.3-.5-.4-.7-.7-1.2-.7-1.7 0-.3.1-.6.4-.8.1 0 .1-.1.2-.1.4 0 .8.3 1.2 1 .5.8 1.4 1.6 2.1 1.6.5 0 .9-.3 1.1-1s.3-1.6.3-2.8v-1.4c0-.7-.1-1.3-.1-1.7v-.4c-.2.2-.4.5-.6 1-.6 1-1.2 1.6-1.9 1.8-.2.1-.3.1-.5.1-1.1 0-2-1-2.2-2.2 0-.3-.1-.5-.1-.8 0-2.1 1.8-4.6 4.7-4.6h.3zm-2.4 3c-.2.4-.4.8-.5 1.2 0 .2-.1.3-.1.5 0 .3.1.5.3.7h.1c.4 0 1.2-1 2.6-3.1.2-.3.3-.5.3-.5 0-.1-.1-.1-.3-.1-.7 0-1.9.5-2.4 1.3zm10.8-1c.1.3.1.6.1.9 0 .8-.4 1.5-1.2 2-.1.1-.3.2-.5.2-.5.2-.6.2-.6.4 0 .1.1.3.3.4.4.4.8.6 1.3.6h.4c.6-.1 1.2-.6 1.8-1.3.8-1 1.3-1.5 1.5-1.7.4-.3.7-.4.9-.4s.3.1.3.4c-.2 1.8-2.3 4-4 4.7-.3.1-.6.1-.9.1-1.5 0-2.9-.9-4.2-2.6-.4-.6-.7-1.4-.7-2.4 0-.4 0-.9.1-1.4.1-.9.9-1.5 2.2-1.8.2 0 .4-.1.5-.1 1.1 0 2 .6 2.7 2zm-2.8-.2c-.4 0-.7.4-.7 1 0 .7.2 1.2.5 1.4.7 0 1.1-.5 1.2-1.1v-.2c0-.5-.3-1-.9-1.1z"/><path d="m194.6 153.7c.6 0 1.3.5 1.3 1v.2c-2.2 1.1-3.7 3.1-4.4 5.9-.2 1-.5 1.5-1 1.5-.2 0-.4-.1-.6-.3-1.1-1-1.6-3.9-1.6-6 .1-.4.3-.7.5-.9.1-.1.2-.1.3-.1s.2 0 .4.1c.6.3.9 1.2 1 2.5.5-1.5 2.5-3.9 4.1-3.9z"/></g></svg>